g Water_Big_Pool
v -4.494147 0 -2.707034
v -4.494147 0 -2.991985
v -4.066133 0 -2.991985
v -4.066133 0 -2.707034
v -3.210105 0 -2.991985
v -4.066133 0 -2.137132
v -4.494147 0 -2.137132
v -3.210105 0 -2.707034
v -2.354077 0 -2.991985
v -4.066133 0 -1.56723
v -4.494147 0 -1.56723
v -3.210105 0 -2.137132
v -2.354077 0 -2.707034
v -1.498049 0 -2.991985
v -4.066133 0 -0.9973284
v -4.494147 0 -0.9973285
v -3.210105 0 -1.56723
v -2.354077 0 -2.137132
v -1.498049 0 -2.707034
v -0.6420209 0 -2.991985
v -4.066133 0 -0.4274265
v -4.494147 0 -0.4274265
v -3.210105 0 -0.9973284
v -2.354077 0 -1.56723
v -1.498049 0 -2.137132
v -0.6420209 0 -2.707034
v 0.2140071 0 -2.991985
v -4.066133 0 0.1424755
v -4.494147 0 0.1424755
v -2.354077 0 -0.9973284
v -1.498049 0 -1.56723
v -0.6420211 0 -2.137132
v 0.2140071 0 -2.707034
v 1.070035 0 -2.991985
v -4.066133 0 0.7123775
v -4.494147 0 0.7123774
v -1.498049 0 -0.9973284
v -0.6420211 0 -1.56723
v 0.2140071 0 -2.137132
v 1.070035 0 -2.707034
v 1.926063 0 -2.991985
v -4.066133 0 1.282279
v -4.494147 0 1.282279
v -0.6420212 0 -0.9973284
v 0.2140071 0 -1.56723
v 1.070035 0 -2.137132
v 1.926063 0 -2.707034
v 2.782091 0 -2.991985
v -4.066133 0 1.852181
v -4.494147 0 1.852181
v 0.2140071 0 -0.9973284
v 1.070035 0 -1.56723
v 1.926063 0 -2.137132
v 2.782091 0 -2.707034
v 3.638119 0 -2.991985
v -4.066133 0 2.422083
v -4.494147 0 2.422083
v -4.066133 0 2.991985
v -4.494147 0 2.991985
v -3.210105 0 2.991985
v -3.210105 0 2.422083
v -2.354077 0 2.991985
v -3.210105 0 1.852181
v -2.354077 0 2.422083
v -1.498049 0 2.991985
v -3.210105 0 1.282279
v -1.498049 0 2.422083
v -0.6420212 0 2.991985
v -2.354077 0 1.852181
v -3.210105 0 0.7123775
v -0.6420212 0 2.422083
v 0.2140069 0 2.991985
v -1.498049 0 1.852181
v -2.354077 0 1.282279
v -3.210105 0 0.1424755
v 0.214007 0 2.422083
v 1.070035 0 2.991985
v -0.6420212 0 1.852181
v -2.354077 0 0.7123775
v -1.498049 0 1.282279
v -3.210105 0 -0.4274265
v 1.070035 0 2.422083
v 1.926063 0 2.991985
v 0.214007 0 1.852181
v -0.6420212 0 1.282279
v -2.354077 0 0.1424755
v -2.354077 0 -0.4274265
v -1.498049 0 0.7123775
v 1.926063 0 2.422083
v 2.782091 0 2.991985
v 1.070035 0 1.852181
v -1.498049 0 0.1424755
v -1.498049 0 -0.4274265
v -0.6420212 0 0.7123775
v 0.214007 0 1.282279
v 2.782091 0 2.422083
v 3.638119 0 2.991985
v -0.6420212 0 0.1424755
v -0.6420212 0 -0.4274265
v 1.926063 0 1.852181
v 0.214007 0 0.7123775
v 1.070035 0 1.282279
v 3.638119 0 2.422083
v 4.494147 0 2.991985
v 4.494147 0 2.422083
v 0.214007 0 0.1424755
v 0.2140071 0 -0.4274265
v 2.782091 0 1.852181
v 3.638119 0 1.852181
v 4.494147 0 1.852181
v 1.070035 0 0.7123775
v 1.926063 0 1.282279
v 1.070035 0 0.1424755
v 1.070035 0 -0.4274265
v 2.782091 0 1.282279
v 3.638119 0 1.282279
v 4.494147 0 1.282279
v 1.926063 0 0.7123775
v 2.782091 0 0.7123775
v 3.638119 0 0.7123775
v 4.494147 0 0.7123775
v 1.926063 0 0.1424755
v 2.782091 0 0.1424755
v 3.638119 0 0.1424755
v 4.494147 0 0.1424755
v 1.926063 0 -0.4274265
v 2.782091 0 -0.4274265
v 3.638119 0 -0.4274265
v 4.494147 0 -0.4274265
v 1.070035 0 -0.9973284
v 1.926063 0 -0.9973284
v 2.782091 0 -0.9973284
v 3.638119 0 -0.9973284
v 4.494147 0 -0.9973284
v 1.926063 0 -1.56723
v 2.782091 0 -1.56723
v 3.638119 0 -1.56723
v 4.494147 0 -1.56723
v 2.782091 0 -2.137132
v 3.638119 0 -2.137132
v 4.494147 0 -2.137132
v 3.638119 0 -2.707034
v 4.494147 0 -2.707034
v 4.494147 0 -2.991985
vt 0 0.9521484
vt 0 1
vt 0.04760742 1
vt 0.04760742 0.9521484
vt 0.1428223 1
vt 0.04760742 0.8569336
vt 0 0.8569336
vt 0.1428223 0.9521484
vt 0.2380371 1
vt 0.04760742 0.7617188
vt 0 0.7617188
vt 0.1428223 0.8569336
vt 0.2380371 0.9521484
vt 0.333252 1
vt 0.04760742 0.6665039
vt 0 0.6665039
vt 0.1428223 0.7617188
vt 0.2380371 0.8569336
vt 0.333252 0.9521484
vt 0.4284668 1
vt 0.04760742 0.5712891
vt 0 0.5712891
vt 0.1428223 0.6665039
vt 0.2380371 0.7617188
vt 0.333252 0.8569336
vt 0.4284668 0.9521484
vt 0.5239258 1
vt 0.04760742 0.4760742
vt 0 0.4760742
vt 0.2380371 0.6665039
vt 0.333252 0.7617188
vt 0.4284668 0.8569336
vt 0.5239258 0.9521484
vt 0.6191406 1
vt 0.04760742 0.3808594
vt 0 0.3808594
vt 0.333252 0.6665039
vt 0.4284668 0.7617188
vt 0.5239258 0.8569336
vt 0.6191406 0.9521484
vt 0.7143555 1
vt 0.04760742 0.2856445
vt 0 0.2856445
vt 0.4284668 0.6665039
vt 0.5239258 0.7617188
vt 0.6191406 0.8569336
vt 0.7143555 0.9521484
vt 0.8095703 1
vt 0.04760742 0.1904297
vt 0 0.1904297
vt 0.5239258 0.6665039
vt 0.6191406 0.7617188
vt 0.7143555 0.8569336
vt 0.8095703 0.9521484
vt 0.9047852 1
vt 0.04760742 0.09521484
vt 0 0.09521484
vt 0.04760742 0
vt 0 0
vt 0.1428223 0
vt 0.1428223 0.09521484
vt 0.2380371 0
vt 0.1428223 0.1904297
vt 0.2380371 0.09521484
vt 0.333252 0
vt 0.1428223 0.2856445
vt 0.333252 0.09521484
vt 0.4284668 0
vt 0.2380371 0.1904297
vt 0.1428223 0.3808594
vt 0.4284668 0.09521484
vt 0.5239258 0
vt 0.333252 0.1904297
vt 0.2380371 0.2856445
vt 0.1428223 0.4760742
vt 0.5239258 0.09521484
vt 0.6191406 0
vt 0.4284668 0.1904297
vt 0.2380371 0.3808594
vt 0.333252 0.2856445
vt 0.1428223 0.5712891
vt 0.6191406 0.09521484
vt 0.7143555 0
vt 0.5239258 0.1904297
vt 0.4284668 0.2856445
vt 0.2380371 0.4760742
vt 0.2380371 0.5712891
vt 0.333252 0.3808594
vt 0.7143555 0.09521484
vt 0.8095703 0
vt 0.6191406 0.1904297
vt 0.333252 0.4760742
vt 0.333252 0.5712891
vt 0.4284668 0.3808594
vt 0.5239258 0.2856445
vt 0.8095703 0.09521484
vt 0.9047852 0
vt 0.4284668 0.4760742
vt 0.4284668 0.5712891
vt 0.7143555 0.1904297
vt 0.5239258 0.3808594
vt 0.6191406 0.2856445
vt 0.9047852 0.09521484
vt 1 0
vt 1 0.09521484
vt 0.5239258 0.4760742
vt 0.5239258 0.5712891
vt 0.8095703 0.1904297
vt 0.9047852 0.1904297
vt 1 0.1904297
vt 0.6191406 0.3808594
vt 0.7143555 0.2856445
vt 0.6191406 0.4760742
vt 0.6191406 0.5712891
vt 0.8095703 0.2856445
vt 0.9047852 0.2856445
vt 1 0.2856445
vt 0.7143555 0.3808594
vt 0.8095703 0.3808594
vt 0.9047852 0.3808594
vt 1 0.3808594
vt 0.7143555 0.4760742
vt 0.8095703 0.4760742
vt 0.9047852 0.4760742
vt 1 0.4760742
vt 0.7143555 0.5712891
vt 0.8095703 0.5712891
vt 0.9047852 0.5712891
vt 1 0.5712891
vt 0.6191406 0.6665039
vt 0.7143555 0.6665039
vt 0.8095703 0.6665039
vt 0.9047852 0.6665039
vt 1 0.6665039
vt 0.7143555 0.7617188
vt 0.8095703 0.7617188
vt 0.9047852 0.7617188
vt 1 0.7617188
vt 0.8095703 0.8569336
vt 0.9047852 0.8569336
vt 1 0.8569336
vt 0.9047852 0.9521484
vt 1 0.9521484
vt 1 1
vn 0 1 0
vn 0 1 0
vn 0 1 0
vn 0 1 0
vn 0 1 0
vn 0 1 0
vn 0 1 0
vn 0 1 0
vn 0 1 0
vn 0 1 0
vn 0 1 0
vn 0 1 0
vn 0 1 0
vn 0 1 0
vn 0 1 0
vn 0 1 0
vn 0 1 0
vn 0 1 0
vn 0 1 0
vn 0 1 0
vn 0 1 0
vn 0 1 0
vn 0 1 0
vn 0 1 0
vn 0 1 0
vn 0 1 0
vn 0 1 0
vn 0 1 0
vn 0 1 0
vn 0 1 0
vn 0 1 0
vn 0 1 0
vn 0 1 0
vn 0 1 0
vn 0 1 0
vn 0 1 0
vn 0 1 0
vn 0 1 0
vn 0 1 0
vn 0 1 0
vn 0 1 0
vn 0 1 0
vn 0 1 0
vn 0 1 0
vn 0 1 0
vn 0 1 0
vn 0 1 0
vn 0 1 0
vn 0 1 0
vn 0 1 0
vn 0 1 0
vn 0 1 0
vn 0 1 0
vn 0 1 0
vn 0 1 0
vn 0 1 0
vn 0 1 0
vn 0 1 0
vn 0 1 0
vn 0 1 0
vn 0 1 0
vn 0 1 0
vn 0 1 0
vn 0 1 0
vn 0 1 0
vn 0 1 0
vn 0 1 0
vn 0 1 0
vn 0 1 0
vn 0 1 0
vn 0 1 0
vn 0 1 0
vn 0 1 0
vn 0 1 0
vn 0 1 0
vn 0 1 0
vn 0 1 0
vn 0 1 0
vn 0 1 0
vn 0 1 0
vn 0 1 0
vn 0 1 0
vn 0 1 0
vn 0 1 0
vn 0 1 0
vn 0 1 0
vn 0 1 0
vn 0 1 0
vn 0 1 0
vn 0 1 0
vn 0 1 0
vn 0 1 0
vn 0 1 0
vn 0 1 0
vn 0 1 0
vn 0 1 0
vn 0 1 0
vn 0 1 0
vn 0 1 0
vn 0 1 0
vn 0 1 0
vn 0 1 0
vn 0 1 0
vn 0 1 0
vn 0 1 0
vn 0 1 0
vn 0 1 0
vn 0 1 0
vn 0 1 0
vn 0 1 0
vn 0 1 0
vn 0 1 0
vn 0 1 0
vn 0 1 0
vn 0 1 0
vn 0 1 0
vn 0 1 0
vn 0 1 0
vn 0 1 0
vn 0 1 0
vn 0 1 0
vn 0 1 0
vn 0 1 0
vn 0 1 0
vn 0 1 0
vn 0 1 0
vn 0 1 0
vn 0 1 0
vn 0 1 0
vn 0 1 0
vn 0 1 0
vn 0 1 0
vn 0 1 0
vn 0 1 0
vn 0 1 0
vn 0 1 0
vn 0 1 0
vn 0 1 0
vn 0 1 0
vn 0 1 0
vn 0 1 0
vn 0 1 0
vn 0 1 0
vn 0 1 0
g Water_Big_Pool_0
f 3/3/3 2/2/2 1/1/1
f 4/4/4 3/3/3 1/1/1
f 5/5/5 3/3/3 4/4/4
f 4/4/4 1/1/1 6/6/6
f 1/1/1 7/7/7 6/6/6
f 8/8/8 5/5/5 4/4/4
f 9/9/9 5/5/5 8/8/8
f 6/6/6 7/7/7 10/10/10
f 7/7/7 11/11/11 10/10/10
f 4/4/4 6/6/6 12/12/12
f 8/8/8 4/4/4 12/12/12
f 13/13/13 9/9/9 8/8/8
f 14/14/14 9/9/9 13/13/13
f 10/10/10 11/11/11 15/15/15
f 11/11/11 16/16/16 15/15/15
f 6/6/6 10/10/10 17/17/17
f 12/12/12 6/6/6 17/17/17
f 8/8/8 12/12/12 18/18/18
f 13/13/13 8/8/8 18/18/18
f 19/19/19 14/14/14 13/13/13
f 20/20/20 14/14/14 19/19/19
f 15/15/15 16/16/16 21/21/21
f 16/16/16 22/22/22 21/21/21
f 10/10/10 15/15/15 23/23/23
f 17/17/17 10/10/10 23/23/23
f 12/12/12 17/17/17 24/24/24
f 18/18/18 12/12/12 24/24/24
f 13/13/13 18/18/18 25/25/25
f 19/19/19 13/13/13 25/25/25
f 26/26/26 20/20/20 19/19/19
f 27/27/27 20/20/20 26/26/26
f 21/21/21 22/22/22 28/28/28
f 22/22/22 29/29/29 28/28/28
f 17/17/17 23/23/23 30/30/30
f 24/24/24 17/17/17 30/30/30
f 18/18/18 24/24/24 31/31/31
f 25/25/25 18/18/18 31/31/31
f 19/19/19 25/25/25 32/32/32
f 26/26/26 19/19/19 32/32/32
f 33/33/33 27/27/27 26/26/26
f 34/34/34 27/27/27 33/33/33
f 28/28/28 29/29/29 35/35/35
f 29/29/29 36/36/36 35/35/35
f 24/24/24 30/30/30 37/37/37
f 31/31/31 24/24/24 37/37/37
f 25/25/25 31/31/31 38/38/38
f 32/32/32 25/25/25 38/38/38
f 26/26/26 32/32/32 39/39/39
f 33/33/33 26/26/26 39/39/39
f 40/40/40 34/34/34 33/33/33
f 41/41/41 34/34/34 40/40/40
f 35/35/35 36/36/36 42/42/42
f 36/36/36 43/43/43 42/42/42
f 31/31/31 37/37/37 44/44/44
f 38/38/38 31/31/31 44/44/44
f 32/32/32 38/38/38 45/45/45
f 39/39/39 32/32/32 45/45/45
f 33/33/33 39/39/39 46/46/46
f 40/40/40 33/33/33 46/46/46
f 47/47/47 41/41/41 40/40/40
f 48/48/48 41/41/41 47/47/47
f 42/42/42 43/43/43 49/49/49
f 43/43/43 50/50/50 49/49/49
f 38/38/38 44/44/44 51/51/51
f 45/45/45 38/38/38 51/51/51
f 39/39/39 45/45/45 52/52/52
f 46/46/46 39/39/39 52/52/52
f 40/40/40 46/46/46 53/53/53
f 47/47/47 40/40/40 53/53/53
f 54/54/54 48/48/48 47/47/47
f 55/55/55 48/48/48 54/54/54
f 49/49/49 50/50/50 56/56/56
f 50/50/50 57/57/57 56/56/56
f 56/56/56 57/57/57 58/58/58
f 57/57/57 59/59/59 58/58/58
f 56/56/56 58/58/58 60/60/60
f 61/61/61 56/56/56 60/60/60
f 49/49/49 56/56/56 61/61/61
f 61/61/61 60/60/60 62/62/62
f 63/63/63 49/49/49 61/61/61
f 42/42/42 49/49/49 63/63/63
f 64/64/64 61/61/61 62/62/62
f 63/63/63 61/61/61 64/64/64
f 64/64/64 62/62/62 65/65/65
f 66/66/66 42/42/42 63/63/63
f 35/35/35 42/42/42 66/66/66
f 67/67/67 64/64/64 65/65/65
f 67/67/67 65/65/65 68/68/68
f 69/69/69 63/63/63 64/64/64
f 66/66/66 63/63/63 69/69/69
f 69/69/69 64/64/64 67/67/67
f 70/70/70 35/35/35 66/66/66
f 28/28/28 35/35/35 70/70/70
f 71/71/71 67/67/67 68/68/68
f 71/71/71 68/68/68 72/72/72
f 73/73/73 69/69/69 67/67/67
f 73/73/73 67/67/67 71/71/71
f 74/74/74 66/66/66 69/69/69
f 70/70/70 66/66/66 74/74/74
f 74/74/74 69/69/69 73/73/73
f 75/75/75 28/28/28 70/70/70
f 21/21/21 28/28/28 75/75/75
f 76/76/76 71/71/71 72/72/72
f 76/76/76 72/72/72 77/77/77
f 78/78/78 73/73/73 71/71/71
f 78/78/78 71/71/71 76/76/76
f 79/79/79 70/70/70 74/74/74
f 75/75/75 70/70/70 79/79/79
f 80/80/80 74/74/74 73/73/73
f 80/80/80 73/73/73 78/78/78
f 79/79/79 74/74/74 80/80/80
f 81/81/81 21/21/21 75/75/75
f 15/15/15 21/21/21 81/81/81
f 23/23/23 15/15/15 81/81/81
f 82/82/82 76/76/76 77/77/77
f 82/82/82 77/77/77 83/83/83
f 84/84/84 78/78/78 76/76/76
f 84/84/84 76/76/76 82/82/82
f 85/85/85 80/80/80 78/78/78
f 85/85/85 78/78/78 84/84/84
f 86/86/86 75/75/75 79/79/79
f 81/81/81 75/75/75 86/86/86
f 23/23/23 81/81/81 87/87/87
f 87/87/87 81/81/81 86/86/86
f 30/30/30 23/23/23 87/87/87
f 88/88/88 79/79/79 80/80/80
f 86/86/86 79/79/79 88/88/88
f 88/88/88 80/80/80 85/85/85
f 89/89/89 82/82/82 83/83/83
f 89/89/89 83/83/83 90/90/90
f 91/91/91 84/84/84 82/82/82
f 91/91/91 82/82/82 89/89/89
f 87/87/87 86/86/86 92/92/92
f 92/92/92 86/86/86 88/88/88
f 30/30/30 87/87/87 93/93/93
f 93/93/93 87/87/87 92/92/92
f 37/37/37 30/30/30 93/93/93
f 94/94/94 88/88/88 85/85/85
f 92/92/92 88/88/88 94/94/94
f 95/95/95 85/85/85 84/84/84
f 95/95/95 84/84/84 91/91/91
f 94/94/94 85/85/85 95/95/95
f 96/96/96 89/89/89 90/90/90
f 96/96/96 90/90/90 97/97/97
f 93/93/93 92/92/92 98/98/98
f 98/98/98 92/92/92 94/94/94
f 37/37/37 93/93/93 99/99/99
f 99/99/99 93/93/93 98/98/98
f 44/44/44 37/37/37 99/99/99
f 100/100/100 91/91/91 89/89/89
f 100/100/100 89/89/89 96/96/96
f 101/101/101 94/94/94 95/95/95
f 98/98/98 94/94/94 101/101/101
f 102/102/102 95/95/95 91/91/91
f 102/102/102 91/91/91 100/100/100
f 101/101/101 95/95/95 102/102/102
f 103/103/103 96/96/96 97/97/97
f 103/103/103 97/97/97 104/104/104
f 105/105/105 103/103/103 104/104/104
f 99/99/99 98/98/98 106/106/106
f 106/106/106 98/98/98 101/101/101
f 44/44/44 99/99/99 107/107/107
f 107/107/107 99/99/99 106/106/106
f 51/51/51 44/44/44 107/107/107
f 108/108/108 100/100/100 96/96/96
f 108/108/108 96/96/96 103/103/103
f 109/109/109 103/103/103 105/105/105
f 109/109/109 108/108/108 103/103/103
f 110/110/110 109/109/109 105/105/105
f 106/106/106 101/101/101 111/111/111
f 111/111/111 101/101/101 102/102/102
f 112/112/112 102/102/102 100/100/100
f 112/112/112 100/100/100 108/108/108
f 111/111/111 102/102/102 112/112/112
f 107/107/107 106/106/106 113/113/113
f 113/113/113 106/106/106 111/111/111
f 51/51/51 107/107/107 114/114/114
f 114/114/114 107/107/107 113/113/113
f 115/115/115 108/108/108 109/109/109
f 115/115/115 112/112/112 108/108/108
f 116/116/116 109/109/109 110/110/110
f 116/116/116 115/115/115 109/109/109
f 117/117/117 116/116/116 110/110/110
f 118/118/118 111/111/111 112/112/112
f 113/113/113 111/111/111 118/118/118
f 118/118/118 112/112/112 115/115/115
f 119/119/119 115/115/115 116/116/116
f 119/119/119 118/118/118 115/115/115
f 120/120/120 116/116/116 117/117/117
f 120/120/120 119/119/119 116/116/116
f 121/121/121 120/120/120 117/117/117
f 122/122/122 113/113/113 118/118/118
f 122/122/122 118/118/118 119/119/119
f 114/114/114 113/113/113 122/122/122
f 123/123/123 119/119/119 120/120/120
f 123/123/123 122/122/122 119/119/119
f 124/124/124 120/120/120 121/121/121
f 124/124/124 123/123/123 120/120/120
f 125/125/125 124/124/124 121/121/121
f 126/126/126 114/114/114 122/122/122
f 126/126/126 122/122/122 123/123/123
f 127/127/127 123/123/123 124/124/124
f 127/127/127 126/126/126 123/123/123
f 128/128/128 124/124/124 125/125/125
f 128/128/128 127/127/127 124/124/124
f 129/129/129 128/128/128 125/125/125
f 130/130/130 114/114/114 126/126/126
f 130/130/130 51/51/51 114/114/114
f 45/45/45 51/51/51 130/130/130
f 52/52/52 45/45/45 130/130/130
f 131/131/131 130/130/130 126/126/126
f 131/131/131 126/126/126 127/127/127
f 52/52/52 130/130/130 131/131/131
f 132/132/132 127/127/127 128/128/128
f 132/132/132 131/131/131 127/127/127
f 133/133/133 128/128/128 129/129/129
f 133/133/133 132/132/132 128/128/128
f 134/134/134 133/133/133 129/129/129
f 135/135/135 52/52/52 131/131/131
f 135/135/135 131/131/131 132/132/132
f 46/46/46 52/52/52 135/135/135
f 53/53/53 46/46/46 135/135/135
f 136/136/136 135/135/135 132/132/132
f 136/136/136 132/132/132 133/133/133
f 53/53/53 135/135/135 136/136/136
f 137/137/137 133/133/133 134/134/134
f 137/137/137 136/136/136 133/133/133
f 138/138/138 137/137/137 134/134/134
f 139/139/139 53/53/53 136/136/136
f 139/139/139 136/136/136 137/137/137
f 47/47/47 53/53/53 139/139/139
f 54/54/54 47/47/47 139/139/139
f 140/140/140 137/137/137 138/138/138
f 140/140/140 139/139/139 137/137/137
f 54/54/54 139/139/139 140/140/140
f 141/141/141 140/140/140 138/138/138
f 142/142/142 54/54/54 140/140/140
f 142/142/142 140/140/140 141/141/141
f 142/142/142 55/55/55 54/54/54
f 143/143/143 142/142/142 141/141/141
f 144/144/144 55/55/55 142/142/142
f 143/143/143 144/144/144 142/142/142
