g Object26
v 33.46685 50.00341 42.12885
v 35.04176 50.00341 44.49122
v 33.46685 50.00341 44.49122
v 35.04176 50.00341 42.12885
v 34.2543 53.15322 42.91631
v 35.04176 53.15322 43.70377
v 34.2543 53.15322 43.70377
v 35.04176 53.15322 42.91631
v 34.2543 53.15322 42.91631
v 34.2543 52.36577 43.70377
v 34.2543 52.36577 42.91631
v 34.2543 53.15322 43.70377
v 35.04176 52.36577 42.91631
v 34.2543 52.36577 43.70377
v 35.04176 52.36577 43.70377
v 34.2543 52.36577 42.91631
v 46.06613 57.0905 16.93029
v 42.12885 56.30305 16.93029
v 46.06613 56.30305 16.93029
v 42.12885 57.0905 16.93029
v 42.12885 57.0905 16.93029
v 42.12885 56.30305 20.08011
v 42.12885 56.30305 16.93029
v 42.12885 57.0905 20.08011
v 46.06613 56.30305 16.93029
v 42.12885 56.30305 20.08011
v 46.06613 56.30305 20.08011
v 42.12885 56.30305 16.93029
v 42.12885 57.0905 20.08011
v 46.06613 56.30305 20.08011
v 42.12885 56.30305 20.08011
v 46.06613 57.0905 20.08011
v 42.12885 57.0905 16.93029
v 46.06613 57.0905 20.08011
v 42.12885 57.0905 20.08011
v 46.06613 57.0905 16.93029
v 33.46685 50.0034 45.27867
v 35.04176 50.0034 47.64104
v 33.46685 50.0034 47.64104
v 35.04176 50.0034 45.27867
v 34.2543 53.15322 46.06613
v 35.04176 53.15322 46.85358
v 34.2543 53.15322 46.85358
v 35.04176 53.15322 46.06613
v 34.2543 53.15322 46.06613
v 34.2543 52.36576 46.85358
v 34.2543 52.36576 46.06613
v 34.2543 53.15322 46.85358
v 35.04176 52.36576 46.06613
v 34.2543 52.36576 46.85358
v 35.04176 52.36576 46.85358
v 34.2543 52.36576 46.06613
vt 0 1
vt 2 -2
vt 0 -2
vt 2 1
vt 0 1
vt 1 0
vt 0 0
vt 1 1
vt 0 1
vt 1 0
vt 0 0
vt 1 1
vt 0 1
vt 1 0
vt 0 0
vt 1 1
vt -4 1
vt 1 0
vt -4 0
vt 1 1
vt 0 1
vt 4 0
vt 0 0
vt 4 1
vt -4 1
vt 1 -3
vt -4 -3
vt 1 1
vt 0 1
vt 5 0
vt 0 0
vt 5 1
vt 0 1
vt 5 -3
vt 0 -3
vt 5 1
vt 0 1
vt 2 -2
vt 0 -2
vt 2 1
vt 0 1
vt 1 0
vt 0 0
vt 1 1
vt 0 1
vt 1 0
vt 0 0
vt 1 1
vt 0 1
vt 1 0
vt 0 0
vt 1 1
vn 0 1 0
vn 0 1 0
vn 0 1 0
vn 0 1 0
vn 0 1 0
vn 0 1 0
vn 0 1 0
vn 0 1 0
vn -1 0 0
vn -1 0 0
vn -1 0 0
vn -1 0 0
vn 0 -1 0
vn 0 -1 0
vn 0 -1 0
vn 0 -1 0
vn 0 0 -1
vn 0 0 -1
vn 0 0 -1
vn 0 0 -1
vn -1 0 0
vn -1 0 0
vn -1 0 0
vn -1 0 0
vn 0 -1 0
vn 0 -1 0
vn 0 -1 0
vn 0 -1 0
vn 0 0 1
vn 0 0 1
vn 0 0 1
vn 0 0 1
vn 0 1 0
vn 0 1 0
vn 0 1 0
vn 0 1 0
vn 0 1 0
vn 0 1 0
vn 0 1 0
vn 0 1 0
vn 0 1 0
vn 0 1 0
vn 0 1 0
vn 0 1 0
vn -1 0 0
vn -1 0 0
vn -1 0 0
vn -1 0 0
vn 0 -1 0
vn 0 -1 0
vn 0 -1 0
vn 0 -1 0
g Object26_0
f 3/3/3 2/2/2 1/1/1
f 4/4/4 1/1/1 2/2/2
f 7/7/7 6/6/6 5/5/5
f 8/8/8 5/5/5 6/6/6
f 11/11/11 10/10/10 9/9/9
f 12/12/12 9/9/9 10/10/10
f 15/15/15 14/14/14 13/13/13
f 16/16/16 13/13/13 14/14/14
f 19/19/19 18/18/18 17/17/17
f 20/20/20 17/17/17 18/18/18
f 23/23/23 22/22/22 21/21/21
f 24/24/24 21/21/21 22/22/22
f 27/27/27 26/26/26 25/25/25
f 28/28/28 25/25/25 26/26/26
f 31/31/31 30/30/30 29/29/29
f 32/32/32 29/29/29 30/30/30
f 35/35/35 34/34/34 33/33/33
f 36/36/36 33/33/33 34/34/34
f 39/39/39 38/38/38 37/37/37
f 40/40/40 37/37/37 38/38/38
f 43/43/43 42/42/42 41/41/41
f 44/44/44 41/41/41 42/42/42
f 47/47/47 46/46/46 45/45/45
f 48/48/48 45/45/45 46/46/46
f 51/51/51 50/50/50 49/49/49
f 52/52/52 49/49/49 50/50/50
