g Object25
v 16.14283 53.94068 45.27868
v 13.78047 53.94068 44.49122
v 16.14283 53.94068 44.49122
v 15.35538 53.94068 45.27868
v 14.56792 53.94068 45.27868
v 13.78047 53.94068 45.27868
v 13.78047 53.94068 45.27868
v 14.56792 53.94068 46.06613
v 13.78047 53.94068 46.06613
v 14.56792 53.94068 45.27868
v 15.35538 53.94068 45.27868
v 16.14283 53.94068 46.06613
v 15.35538 53.94068 46.06613
v 16.14283 53.94068 45.27868
v 16.14283 53.94068 46.85358
v 15.35538 53.94068 46.06613
v 16.14283 53.94068 46.06613
v 14.56792 53.94068 46.06613
v 13.78047 53.94068 46.06613
v 13.78047 53.94068 46.85358
v 13.78047 57.0905 44.49122
v 16.14283 57.0905 46.85358
v 13.78047 57.0905 46.85358
v 16.14283 57.0905 44.49122
v 26.37975 50.00341 44.49122
v 27.95466 50.00341 46.85358
v 26.37975 50.00341 46.85358
v 27.95466 50.00341 44.49122
v 26.37975 53.15322 45.27868
v 27.16721 53.15322 46.06613
v 26.37975 53.15322 46.06613
v 27.16721 53.15322 45.27868
v 27.16721 52.36577 45.27868
v 26.37975 52.36577 46.06613
v 27.16721 52.36577 46.06613
v 26.37975 52.36577 45.27868
v 27.16721 53.15322 46.06613
v 27.16721 52.36577 45.27868
v 27.16721 52.36577 46.06613
v 27.16721 53.15322 45.27868
v 9.055735 53.94068 38.19157
v 6.69337 53.94068 37.40412
v 9.055735 53.94068 37.40412
v 8.26828 53.94068 38.19157
v 7.480824 53.94068 38.19157
v 6.69337 53.94068 38.19157
v 6.69337 53.94068 38.19157
v 7.480824 53.94068 38.97903
v 6.69337 53.94068 38.97903
v 7.480824 53.94068 38.19157
v 8.26828 53.94068 38.19157
v 9.055735 53.94068 38.97903
v 8.26828 53.94068 38.97903
v 9.055735 53.94068 38.19157
v 9.055735 53.94068 39.76649
v 8.26828 53.94068 38.97903
v 9.055735 53.94068 38.97903
v 7.480824 53.94068 38.97903
v 6.69337 53.94068 38.97903
v 6.69337 53.94068 39.76649
vt 3 0
vt 0 1
vt 3 1
vt 2 0
vt 1 0
vt 0 0
vt 0 1
vt 1 0
vt 0 0
vt 1 1
vt 0 1
vt 1 0
vt 0 0
vt 1 1
vt 3 0
vt 2 1
vt 3 1
vt 1 1
vt 0 1
vt 0 0
vt 0 1
vt 3 -2
vt 0 -2
vt 3 1
vt 0 1
vt 2 -2
vt 0 -2
vt 2 1
vt 0 1
vt 1 0
vt 0 0
vt 1 1
vt 0 1
vt 1 0
vt 0 0
vt 1 1
vt 0 1
vt 1 0
vt 0 0
vt 1 1
vt 3 0
vt 0 1
vt 3 1
vt 2 0
vt 1 0
vt 0 0
vt 0 1
vt 1 0
vt 0 0
vt 1 1
vt 0 1
vt 1 0
vt 0 0
vt 1 1
vt 3 0
vt 2 1
vt 3 1
vt 1 1
vt 0 1
vt 0 0
vn 0 1 0
vn 0 1 0
vn 0 1 0
vn 0 1 0
vn 0 1 0
vn 0 1 0
vn 0 1 0
vn 0 1 0
vn 0 1 0
vn 0 1 0
vn 0 1 0
vn 0 1 0
vn 0 1 0
vn 0 1 0
vn 0 1 0
vn 0 1 0
vn 0 1 0
vn 0 1 0
vn 0 1 0
vn 0 1 0
vn 0 1 0
vn 0 1 0
vn 0 1 0
vn 0 1 0
vn 0 1 0
vn 0 1 0
vn 0 1 0
vn 0 1 0
vn 0 1 0
vn 0 1 0
vn 0 1 0
vn 0 1 0
vn 0 -1 0
vn 0 -1 0
vn 0 -1 0
vn 0 -1 0
vn 1 0 0
vn 1 0 0
vn 1 0 0
vn 1 0 0
vn 0 1 0
vn 0 1 0
vn 0 1 0
vn 0 1 0
vn 0 1 0
vn 0 1 0
vn 0 1 0
vn 0 1 0
vn 0 1 0
vn 0 1 0
vn 0 1 0
vn 0 1 0
vn 0 1 0
vn 0 1 0
vn 0 1 0
vn 0 1 0
vn 0 1 0
vn 0 1 0
vn 0 1 0
vn 0 1 0
g Object25_0
f 3/3/3 2/2/2 1/1/1
f 2/2/2 4/4/4 1/1/1
f 5/5/5 4/4/4 2/2/2
f 6/6/6 5/5/5 2/2/2
f 9/9/9 8/8/8 7/7/7
f 10/10/10 7/7/7 8/8/8
f 13/13/13 12/12/12 11/11/11
f 14/14/14 11/11/11 12/12/12
f 17/17/17 16/16/16 15/15/15
f 16/16/16 18/18/18 15/15/15
f 18/18/18 19/19/19 15/15/15
f 19/19/19 20/20/20 15/15/15
f 23/23/23 22/22/22 21/21/21
f 24/24/24 21/21/21 22/22/22
f 27/27/27 26/26/26 25/25/25
f 28/28/28 25/25/25 26/26/26
f 31/31/31 30/30/30 29/29/29
f 32/32/32 29/29/29 30/30/30
f 35/35/35 34/34/34 33/33/33
f 36/36/36 33/33/33 34/34/34
f 39/39/39 38/38/38 37/37/37
f 40/40/40 37/37/37 38/38/38
f 43/43/43 42/42/42 41/41/41
f 42/42/42 44/44/44 41/41/41
f 45/45/45 44/44/44 42/42/42
f 46/46/46 45/45/45 42/42/42
f 49/49/49 48/48/48 47/47/47
f 50/50/50 47/47/47 48/48/48
f 53/53/53 52/52/52 51/51/51
f 54/54/54 51/51/51 52/52/52
f 57/57/57 56/56/56 55/55/55
f 56/56/56 58/58/58 55/55/55
f 58/58/58 59/59/59 55/55/55
f 59/59/59 60/60/60 55/55/55
