g Object02
v -16.93033 2.756091 -3.889589E-05
v -16.14287 -0.3937295 -3.931532E-05
v -16.93033 -0.3937295 -3.931532E-05
v -16.14287 2.756091 -3.889589E-05
v -16.14287 -1.181185 -3.942018E-05
v -12.99305 -3.54355 -3.973474E-05
v -16.14287 -3.54355 -3.973474E-05
v -12.99305 -1.181185 -3.942018E-05
v -10.63068 -1.181185 -3.942018E-05
v -6.693409 -2.756095 -3.962989E-05
v -10.63068 -2.756095 -3.962989E-05
v -6.693409 -1.181185 -3.942018E-05
v -10.63068 -2.756095 -3.962989E-05
v -5.905954 -3.54355 -3.973474E-05
v -10.63068 -3.54355 -3.973474E-05
v -5.905954 -2.756095 -3.962989E-05
v -16.14287 -3.54355 -3.973474E-05
v -5.905954 -5.11846 -3.994445E-05
v -16.14287 -5.11846 -3.994445E-05
v -5.905954 -3.54355 -3.973474E-05
v -15.35542 -5.11846 -3.994445E-05
v -7.480864 -5.905916 -4.004931E-05
v -15.35542 -5.905916 -4.004931E-05
v -7.480864 -5.11846 -3.994445E-05
v -14.56796 -5.905916 -4.004931E-05
v -8.268319 -9.843191 -4.057359E-05
v -14.56796 -9.843191 -4.057359E-05
v -8.268319 -5.905916 -4.004931E-05
v -12.99305 -9.843191 -4.057359E-05
v -7.480864 -11.4181 -4.07833E-05
v -12.99305 -11.4181 -4.07833E-05
v -7.480864 -9.843191 -4.057359E-05
v -13.78051 -11.4181 -4.07833E-05
v -8.268319 -12.20556 -4.088816E-05
v -13.78051 -12.20556 -4.088816E-05
v -8.268319 -11.4181 -4.07833E-05
v -15.35542 -12.20556 -4.088816E-05
v -9.84323 -12.99301 -4.099302E-05
v -15.35542 -12.99301 -4.099302E-05
v -9.84323 -12.20556 -4.088816E-05
v -16.14287 -12.99301 -4.099302E-05
v -9.84323 -13.78047 -4.109787E-05
v -16.14287 -13.78047 -4.109787E-05
v -9.84323 -12.99301 -4.099302E-05
v -11.41814 18.50519 -3.679878E-05
v -7.480864 17.71774 -3.690363E-05
v -11.41814 17.71774 -3.690363E-05
v -7.480864 18.50519 -3.679878E-05
v -15.35542 17.71774 -3.690363E-05
v -4.331043 16.93028 -3.700849E-05
v -15.35542 16.93028 -3.700849E-05
v -4.331043 17.71774 -3.690363E-05
v -15.35542 16.93028 -3.700849E-05
v -3.543588 16.14283 -3.711334E-05
v -15.35542 16.14283 -3.711334E-05
v -3.543588 16.93028 -3.700849E-05
v -16.14287 16.14283 -3.711334E-05
v -3.543588 14.56792 -3.732305E-05
v -16.14287 14.56792 -3.732305E-05
v -3.543588 16.14283 -3.711334E-05
v -15.35542 14.56792 -3.732305E-05
v -3.543588 13.78046 -3.742791E-05
v -15.35542 13.78046 -3.742791E-05
v -3.543588 14.56792 -3.732305E-05
v -14.56796 13.78046 -3.742791E-05
v -7.480864 12.99301 -3.753277E-05
v -14.56796 12.99301 -3.753277E-05
v -7.480864 13.78046 -3.742791E-05
v -14.56796 12.99301 -3.753277E-05
v -8.268319 12.20555 -3.763762E-05
v -14.56796 12.20555 -3.763762E-05
v -8.268319 12.99301 -3.753277E-05
v -14.56796 12.20555 -3.763762E-05
v -9.055775 11.4181 -3.774248E-05
v -14.56796 11.4181 -3.774248E-05
v -9.055775 12.20555 -3.763762E-05
v -16.14287 -13.78047 -4.109787E-05
v -8.268319 -14.56792 -4.120273E-05
v -16.14287 -14.56792 -4.120273E-05
v -8.268319 -13.78047 -4.109787E-05
v -16.14287 -14.56792 -4.120273E-05
v -7.480864 -16.14283 -4.141244E-05
v -16.14287 -16.14283 -4.141244E-05
v -7.480864 -14.56792 -4.120273E-05
v -14.56796 -16.14283 -4.141244E-05
v -8.268319 -19.29265 -4.183186E-05
v -14.56796 -19.29265 -4.183186E-05
v -8.268319 -16.14283 -4.141244E-05
v -14.56796 11.4181 -3.774248E-05
v -9.055775 10.63064 -3.784734E-05
v -14.56796 10.63064 -3.784734E-05
v -9.055775 11.4181 -3.774248E-05
v -15.35542 10.63064 -3.784734E-05
v -8.268319 9.055733 -3.805705E-05
v -15.35542 9.055733 -3.805705E-05
v -8.268319 10.63064 -3.784734E-05
v -16.14287 9.055733 -3.805705E-05
v -9.055775 6.693367 -3.837162E-05
v -16.14287 6.693367 -3.837162E-05
v -9.055775 9.055733 -3.805705E-05
v -16.14287 6.693367 -3.837162E-05
v -12.99305 2.756091 -3.889589E-05
v -16.14287 2.756091 -3.889589E-05
v -12.99305 6.693367 -3.837162E-05
v -11.41814 6.693367 -3.837162E-05
v -8.268319 5.905912 -3.847647E-05
v -11.41814 5.905912 -3.847647E-05
v -8.268319 6.693367 -3.837162E-05
v -10.63068 5.905912 -3.847647E-05
v -8.268319 5.118456 -3.858133E-05
v -10.63068 5.118456 -3.858133E-05
v -8.268319 5.905912 -3.847647E-05
v -10.63068 5.118456 -3.858133E-05
v -7.480864 2.756091 -3.889589E-05
v -10.63068 2.756091 -3.889589E-05
v -7.480864 5.118456 -3.858133E-05
v -16.14287 2.756091 -3.889589E-05
v -12.2056 1.968636 -3.900075E-05
v -16.14287 1.968636 -3.900075E-05
v -12.2056 2.756091 -3.889589E-05
v -10.63068 2.756091 -3.889589E-05
v -8.268319 1.968636 -3.900075E-05
v -10.63068 1.968636 -3.900075E-05
v -8.268319 2.756091 -3.889589E-05
v -16.14287 1.968636 -3.900075E-05
v -12.99305 1.181181 -3.910561E-05
v -16.14287 1.181181 -3.910561E-05
v -12.99305 1.968636 -3.900075E-05
v -16.14287 1.181181 -3.910561E-05
v -13.78051 -1.181185 -3.942018E-05
v -16.14287 -1.181185 -3.942018E-05
v -13.78051 1.181181 -3.910561E-05
v -10.63068 0.3937256 -3.921046E-05
v -8.268319 -1.181185 -3.942018E-05
v -10.63068 -1.181185 -3.942018E-05
v -8.268319 0.3937256 -3.921046E-05
v 7.480785 19.29265 -3.669392E-05
v 9.055696 18.50519 -3.679878E-05
v 7.480785 18.50519 -3.679878E-05
v 9.055696 19.29265 -3.669392E-05
v 5.905875 18.50519 -3.679878E-05
v 9.055696 17.71774 -3.690363E-05
v 5.905875 17.71774 -3.690363E-05
v 9.055696 18.50519 -3.679878E-05
v 1.968598 17.71774 -3.690363E-05
v 9.055696 16.93028 -3.700849E-05
v 1.968598 16.93028 -3.700849E-05
v 9.055696 17.71774 -3.690363E-05
v -3.543588 16.93028 -3.700849E-05
v 9.055696 15.35537 -3.72182E-05
v -3.543588 15.35537 -3.72182E-05
v 9.055696 16.93028 -3.700849E-05
v -3.543588 15.35537 -3.72182E-05
v 4.330964 14.56792 -3.732305E-05
v -3.543588 14.56792 -3.732305E-05
v 4.330964 15.35537 -3.72182E-05
v 5.118419 15.35537 -3.72182E-05
v 9.055696 14.56792 -3.732305E-05
v 5.118419 14.56792 -3.732305E-05
v 9.055696 15.35537 -3.72182E-05
v -3.543588 14.56792 -3.732305E-05
v -2.756133 13.78046 -3.742791E-05
v -3.543588 13.78046 -3.742791E-05
v -2.756133 14.56792 -3.732305E-05
v 6.69333 14.56792 -3.732305E-05
v 9.055696 13.78046 -3.742791E-05
v 6.69333 13.78046 -3.742791E-05
v 9.055696 14.56792 -3.732305E-05
v 9.055696 19.29265 -3.669392E-05
v 10.63061 18.50519 -3.679878E-05
v 9.055696 18.50519 -3.679878E-05
v 10.63061 19.29265 -3.669392E-05
v 9.055696 18.50519 -3.679878E-05
v 16.14279 17.71774 -3.690363E-05
v 9.055696 17.71774 -3.690363E-05
v 16.14279 18.50519 -3.679878E-05
v 9.055696 17.71774 -3.690363E-05
v 16.93025 14.56792 -3.732305E-05
v 9.055696 14.56792 -3.732305E-05
v 16.93025 17.71774 -3.690363E-05
v 9.055696 14.56792 -3.732305E-05
v 16.14279 13.78046 -3.742791E-05
v 9.055696 13.78046 -3.742791E-05
v 16.14279 14.56792 -3.732305E-05
v 10.63061 13.78046 -3.742791E-05
v 13.78043 12.99301 -3.753277E-05
v 10.63061 12.99301 -3.753277E-05
v 13.78043 13.78046 -3.742791E-05
v -9.84323 1.968636 -3.900075E-05
v -9.055775 1.181181 -3.910561E-05
v -9.84323 1.181181 -3.910561E-05
v -9.055775 1.968636 -3.900075E-05
v -9.055775 1.968636 -3.900075E-05
v -8.268319 1.181181 -3.910561E-05
v -9.055775 1.181181 -3.910561E-05
v -8.268319 1.968636 -3.900075E-05
v -9.84323 1.181181 -3.910561E-05
v -9.055775 0.3937256 -3.921046E-05
v -9.84323 0.3937256 -3.921046E-05
v -9.055775 1.181181 -3.910561E-05
v -9.055775 1.181181 -3.910561E-05
v -8.268319 0.3937256 -3.921046E-05
v -9.055775 0.3937256 -3.921046E-05
v -8.268319 1.181181 -3.910561E-05
vt 100 83
vt 99 87
vt 100 87
vt 99 83
vt 100 83
vt 96 86
vt 100 86
vt 96 83
vt 100 83
vt 95 85
vt 100 85
vt 95 83
vt 100 83
vt 94 84
vt 100 84
vt 94 83
vt 100 83
vt 87 85
vt 100 85
vt 87 83
vt 100 83
vt 90 84
vt 100 84
vt 90 83
vt 100 83
vt 92 88
vt 100 88
vt 92 83
vt 100 83
vt 93 85
vt 100 85
vt 93 83
vt 100 83
vt 93 84
vt 100 84
vt 93 83
vt 100 83
vt 93 84
vt 100 84
vt 93 83
vt 100 83
vt 92 84
vt 100 84
vt 92 83
vt 100 83
vt 95 84
vt 100 84
vt 95 83
vt 100 83
vt 86 84
vt 100 84
vt 86 83
vt 100 83
vt 85 84
vt 100 84
vt 85 83
vt 100 83
vt 84 85
vt 100 85
vt 84 83
vt 100 83
vt 85 84
vt 100 84
vt 85 83
vt 100 83
vt 91 84
vt 100 84
vt 91 83
vt 100 83
vt 92 84
vt 100 84
vt 92 83
vt 100 83
vt 93 84
vt 100 84
vt 93 83
vt 100 83
vt 90 84
vt 100 84
vt 90 83
vt 100 83
vt 89 85
vt 100 85
vt 89 83
vt 100 83
vt 92 87
vt 100 87
vt 92 83
vt 100 83
vt 93 84
vt 100 84
vt 93 83
vt 100 83
vt 91 85
vt 100 85
vt 91 83
vt 100 83
vt 91 86
vt 100 86
vt 91 83
vt 100 83
vt 96 88
vt 100 88
vt 96 83
vt 100 83
vt 96 84
vt 100 84
vt 96 83
vt 100 83
vt 97 84
vt 100 84
vt 97 83
vt 100 83
vt 96 86
vt 100 86
vt 96 83
vt 100 83
vt 95 84
vt 100 84
vt 95 83
vt 100 83
vt 97 84
vt 100 84
vt 97 83
vt 100 83
vt 96 84
vt 100 84
vt 96 83
vt 100 83
vt 97 86
vt 100 86
vt 97 83
vt 100 83
vt 97 85
vt 100 85
vt 97 83
vt 100 83
vt 98 84
vt 100 84
vt 98 83
vt 100 83
vt 96 84
vt 100 84
vt 96 83
vt 100 83
vt 91 84
vt 100 84
vt 91 83
vt 100 83
vt 84 85
vt 100 85
vt 84 83
vt 100 83
vt 90 84
vt 100 84
vt 90 83
vt 100 83
vt 95 84
vt 100 84
vt 95 83
vt 100 83
vt 99 84
vt 100 84
vt 99 83
vt 100 83
vt 97 84
vt 100 84
vt 97 83
vt 100 83
vt 98 84
vt 100 84
vt 98 83
vt 100 83
vt 91 84
vt 100 84
vt 91 83
vt 100 83
vt 90 87
vt 100 87
vt 90 83
vt 100 83
vt 91 84
vt 100 84
vt 91 83
vt 100 83
vt 96 84
vt 100 84
vt 96 83
vt 100 83
vt 99 84
vt 100 84
vt 99 83
vt 100 83
vt 99 84
vt 100 84
vt 99 83
vt 100 83
vt 99 84
vt 100 84
vt 99 83
vt 100 83
vt 99 84
vt 100 84
vt 99 83
vn 0 0 1
vn 0 0 1
vn 0 0 1
vn 0 0 1
vn 0 0 1
vn 0 0 1
vn 0 0 1
vn 0 0 1
vn 0 0 1
vn 0 0 1
vn 0 0 1
vn 0 0 1
vn 0 0 1
vn 0 0 1
vn 0 0 1
vn 0 0 1
vn 0 0 1
vn 0 0 1
vn 0 0 1
vn 0 0 1
vn 0 0 1
vn 0 0 1
vn 0 0 1
vn 0 0 1
vn 0 0 1
vn 0 0 1
vn 0 0 1
vn 0 0 1
vn 0 0 1
vn 0 0 1
vn 0 0 1
vn 0 0 1
vn 0 0 1
vn 0 0 1
vn 0 0 1
vn 0 0 1
vn 0 0 1
vn 0 0 1
vn 0 0 1
vn 0 0 1
vn 0 0 1
vn 0 0 1
vn 0 0 1
vn 0 0 1
vn 0 0 1
vn 0 0 1
vn 0 0 1
vn 0 0 1
vn 0 0 1
vn 0 0 1
vn 0 0 1
vn 0 0 1
vn 0 0 1
vn 0 0 1
vn 0 0 1
vn 0 0 1
vn 0 0 1
vn 0 0 1
vn 0 0 1
vn 0 0 1
vn 0 0 1
vn 0 0 1
vn 0 0 1
vn 0 0 1
vn 0 0 1
vn 0 0 1
vn 0 0 1
vn 0 0 1
vn 0 0 1
vn 0 0 1
vn 0 0 1
vn 0 0 1
vn 0 0 1
vn 0 0 1
vn 0 0 1
vn 0 0 1
vn 0 0 1
vn 0 0 1
vn 0 0 1
vn 0 0 1
vn 0 0 1
vn 0 0 1
vn 0 0 1
vn 0 0 1
vn 0 0 1
vn 0 0 1
vn 0 0 1
vn 0 0 1
vn 0 0 1
vn 0 0 1
vn 0 0 1
vn 0 0 1
vn 0 0 1
vn 0 0 1
vn 0 0 1
vn 0 0 1
vn 0 0 1
vn 0 0 1
vn 0 0 1
vn 0 0 1
vn 0 0 1
vn 0 0 1
vn 0 0 1
vn 0 0 1
vn 0 0 1
vn 0 0 1
vn 0 0 1
vn 0 0 1
vn 0 0 1
vn 0 0 1
vn 0 0 1
vn 0 0 1
vn 0 0 1
vn 0 0 1
vn 0 0 1
vn 0 0 1
vn 0 0 1
vn 0 0 1
vn 0 0 1
vn 0 0 1
vn 0 0 1
vn 0 0 1
vn 0 0 1
vn 0 0 1
vn 0 0 1
vn 0 0 1
vn 0 0 1
vn 0 0 1
vn 0 0 1
vn 0 0 1
vn 0 0 1
vn 0 0 1
vn 0 0 1
vn 0 0 1
vn 0 0 1
vn 0 0 1
vn 0 0 1
vn 0 0 1
vn 0 0 1
vn 0 0 1
vn 0 0 1
vn 0 0 1
vn 0 0 1
vn 0 0 1
vn 0 0 1
vn 0 0 1
vn 0 0 1
vn 0 0 1
vn 0 0 1
vn 0 0 1
vn 0 0 1
vn 0 0 1
vn 0 0 1
vn 0 0 1
vn 0 0 1
vn 0 0 1
vn 0 0 1
vn 0 0 1
vn 0 0 1
vn 0 0 1
vn 0 0 1
vn 0 0 1
vn 0 0 1
vn 0 0 1
vn 0 0 1
vn 0 0 1
vn 0 0 1
vn 0 0 1
vn 0 0 1
vn 0 0 1
vn 0 0 1
vn 0 0 1
vn 0 0 1
vn 0 0 1
vn 0 0 1
vn 0 0 1
vn 0 0 1
vn 0 0 1
vn 0 0 1
vn 0 0 1
vn 0 0 1
vn 0 0 1
vn 0 0 1
vn 0 0 1
vn 0 0 1
vn 0 0 1
vn 0 0 1
vn 0 0 1
vn 0 0 1
vn 0 0 1
vn 0 0 1
vn 0 0 1
vn 0 0 1
vn 0 0 1
vn 0 0 1
vn 0 0 1
vn 0 0 1
vn 0 0 1
vn 0 0 1
vn 0 0 1
vn 0 0 1
vn 0 0 1
vn 0 0 1
vn 0 0 1
g Object02_0
f 3/3/3 2/2/2 1/1/1
f 4/4/4 1/1/1 2/2/2
f 7/7/7 6/6/6 5/5/5
f 8/8/8 5/5/5 6/6/6
f 11/11/11 10/10/10 9/9/9
f 12/12/12 9/9/9 10/10/10
f 15/15/15 14/14/14 13/13/13
f 16/16/16 13/13/13 14/14/14
f 19/19/19 18/18/18 17/17/17
f 20/20/20 17/17/17 18/18/18
f 23/23/23 22/22/22 21/21/21
f 24/24/24 21/21/21 22/22/22
f 27/27/27 26/26/26 25/25/25
f 28/28/28 25/25/25 26/26/26
f 31/31/31 30/30/30 29/29/29
f 32/32/32 29/29/29 30/30/30
f 35/35/35 34/34/34 33/33/33
f 36/36/36 33/33/33 34/34/34
f 39/39/39 38/38/38 37/37/37
f 40/40/40 37/37/37 38/38/38
f 43/43/43 42/42/42 41/41/41
f 44/44/44 41/41/41 42/42/42
f 47/47/47 46/46/46 45/45/45
f 48/48/48 45/45/45 46/46/46
f 51/51/51 50/50/50 49/49/49
f 52/52/52 49/49/49 50/50/50
f 55/55/55 54/54/54 53/53/53
f 56/56/56 53/53/53 54/54/54
f 59/59/59 58/58/58 57/57/57
f 60/60/60 57/57/57 58/58/58
f 63/63/63 62/62/62 61/61/61
f 64/64/64 61/61/61 62/62/62
f 67/67/67 66/66/66 65/65/65
f 68/68/68 65/65/65 66/66/66
f 71/71/71 70/70/70 69/69/69
f 72/72/72 69/69/69 70/70/70
f 75/75/75 74/74/74 73/73/73
f 76/76/76 73/73/73 74/74/74
f 79/79/79 78/78/78 77/77/77
f 80/80/80 77/77/77 78/78/78
f 83/83/83 82/82/82 81/81/81
f 84/84/84 81/81/81 82/82/82
f 87/87/87 86/86/86 85/85/85
f 88/88/88 85/85/85 86/86/86
f 91/91/91 90/90/90 89/89/89
f 92/92/92 89/89/89 90/90/90
f 95/95/95 94/94/94 93/93/93
f 96/96/96 93/93/93 94/94/94
f 99/99/99 98/98/98 97/97/97
f 100/100/100 97/97/97 98/98/98
f 103/103/103 102/102/102 101/101/101
f 104/104/104 101/101/101 102/102/102
f 107/107/107 106/106/106 105/105/105
f 108/108/108 105/105/105 106/106/106
f 111/111/111 110/110/110 109/109/109
f 112/112/112 109/109/109 110/110/110
f 115/115/115 114/114/114 113/113/113
f 116/116/116 113/113/113 114/114/114
f 119/119/119 118/118/118 117/117/117
f 120/120/120 117/117/117 118/118/118
f 123/123/123 122/122/122 121/121/121
f 124/124/124 121/121/121 122/122/122
f 127/127/127 126/126/126 125/125/125
f 128/128/128 125/125/125 126/126/126
f 131/131/131 130/130/130 129/129/129
f 132/132/132 129/129/129 130/130/130
f 135/135/135 134/134/134 133/133/133
f 136/136/136 133/133/133 134/134/134
f 139/139/139 138/138/138 137/137/137
f 140/140/140 137/137/137 138/138/138
f 143/143/143 142/142/142 141/141/141
f 144/144/144 141/141/141 142/142/142
f 147/147/147 146/146/146 145/145/145
f 148/148/148 145/145/145 146/146/146
f 151/151/151 150/150/150 149/149/149
f 152/152/152 149/149/149 150/150/150
f 155/155/155 154/154/154 153/153/153
f 156/156/156 153/153/153 154/154/154
f 159/159/159 158/158/158 157/157/157
f 160/160/160 157/157/157 158/158/158
f 163/163/163 162/162/162 161/161/161
f 164/164/164 161/161/161 162/162/162
f 167/167/167 166/166/166 165/165/165
f 168/168/168 165/165/165 166/166/166
f 171/171/171 170/170/170 169/169/169
f 172/172/172 169/169/169 170/170/170
f 175/175/175 174/174/174 173/173/173
f 176/176/176 173/173/173 174/174/174
f 179/179/179 178/178/178 177/177/177
f 180/180/180 177/177/177 178/178/178
f 183/183/183 182/182/182 181/181/181
f 184/184/184 181/181/181 182/182/182
f 187/187/187 186/186/186 185/185/185
f 188/188/188 185/185/185 186/186/186
f 191/191/191 190/190/190 189/189/189
f 192/192/192 189/189/189 190/190/190
f 195/195/195 194/194/194 193/193/193
f 196/196/196 193/193/193 194/194/194
f 199/199/199 198/198/198 197/197/197
f 200/200/200 197/197/197 198/198/198
f 203/203/203 202/202/202 201/201/201
f 204/204/204 201/201/201 202/202/202
