g Object31
v -35.82922 -18.89896 2.670288E-05
v -37.40411 -17.32399 2.670288E-05
v -35.82922 -17.32399 2.670288E-05
v -37.40411 -18.89896 2.670288E-05
v -30.31699 -15.7491 -0.7874527
v -31.89196 -14.96169 -0.7874527
v -30.31699 -14.96169 -0.7874527
v -31.89196 -15.7491 -0.7874527
v -30.31699 -16.53658 -0.7874527
v -31.10448 -15.7491 -0.7874527
v -30.31699 -15.7491 -0.7874527
v -31.10448 -16.53658 -0.7874527
v 37.40413 18.11146 -0.7874527
v 35.82924 18.89894 -0.7874527
v 37.40413 18.89894 -0.7874527
v 35.82924 18.11146 -0.7874527
v 35.82924 16.53657 -0.7874527
v 35.04176 18.11146 -0.7874527
v 35.82924 18.11146 -0.7874527
v 35.04176 16.53657 -0.7874527
v 35.82924 15.74908 -0.7874527
v 34.25434 16.53657 -0.7874527
v 35.82924 16.53657 -0.7874527
v 34.25434 15.74908 -0.7874527
v 37.40413 17.32398 0.7874374
v 36.61665 18.11146 0.7874374
v 37.40413 18.11146 0.7874374
v 36.61665 17.32398 0.7874374
v 37.40413 16.53657 0.7874374
v 35.82924 17.32398 0.7874374
v 37.40413 17.32398 0.7874374
v 35.82924 16.53657 0.7874374
v 36.61665 15.74908 0.7874374
v 35.82924 16.53657 0.7874374
v 36.61665 16.53657 0.7874374
v 35.82924 15.74908 0.7874374
v 35.82924 17.32398 -0.7874527
v 35.82924 18.11146 2.670288E-05
v 35.82924 17.32398 2.670288E-05
v 35.82924 18.11146 -0.7874527
v 37.40413 15.74908 2.670288E-05
v 36.61665 16.53657 2.670288E-05
v 37.40413 16.53657 2.670288E-05
v 36.61665 15.74908 2.670288E-05
v 37.40413 14.96161 2.670288E-05
v 35.82924 15.74908 2.670288E-05
v 37.40413 15.74908 2.670288E-05
v 35.82924 14.96161 2.670288E-05
vt -30.99999 47.00003
vt -32.99999 49.00002
vt -30.99999 49.00002
vt -32.99999 47.00003
vt -24.00002 51.00002
vt -26.00002 52.00002
vt -24.00002 52.00002
vt -26.00002 51.00002
vt -24.00002 50.00002
vt -24.99999 51.00002
vt -24.00002 51.00002
vt -24.99999 50.00002
vt 62.00002 93.99999
vt 60.00002 94.99996
vt 62.00002 94.99996
vt 60.00002 93.99999
vt 60.00002 91.99999
vt 59.00003 93.99999
vt 60.00002 93.99999
vt 59.00003 91.99999
vt 60.00002 90.99999
vt 58.00002 91.99999
vt 60.00002 91.99999
vt 58.00002 90.99999
vt 62.00002 92.99999
vt 61.00003 93.99999
vt 62.00002 93.99999
vt 61.00003 92.99999
vt 62.00002 91.99999
vt 60.00002 92.99999
vt 62.00002 92.99999
vt 60.00002 91.99999
vt 61.00003 90.99999
vt 60.00002 91.99999
vt 61.00003 91.99999
vt 60.00002 90.99999
vt 7.000027 43.00001
vt 6.000031 44.00001
vt 7.000027 44.00001
vt 6.000031 43.00001
vt 62.00002 90.99999
vt 61.00003 91.99999
vt 62.00002 91.99999
vt 61.00003 90.99999
vt 62.00002 89.99999
vt 60.00002 90.99999
vt 62.00002 90.99999
vt 60.00002 89.99999
vn 0 0 1
vn 0 0 1
vn 0 0 1
vn 0 0 1
vn 0 0 1
vn 0 0 1
vn 0 0 1
vn 0 0 1
vn 0 0 1
vn 0 0 1
vn 0 0 1
vn 0 0 1
vn 0 0 1
vn 0 0 1
vn 0 0 1
vn 0 0 1
vn 0 0 1
vn 0 0 1
vn 0 0 1
vn 0 0 1
vn 0 0 1
vn 0 0 1
vn 0 0 1
vn 0 0 1
vn 0 0 1
vn 0 0 1
vn 0 0 1
vn 0 0 1
vn 0 0 1
vn 0 0 1
vn 0 0 1
vn 0 0 1
vn 0 0 1
vn 0 0 1
vn 0 0 1
vn 0 0 1
vn -1 0 0
vn -1 0 0
vn -1 0 0
vn -1 0 0
vn 0 0 1
vn 0 0 1
vn 0 0 1
vn 0 0 1
vn 0 0 1
vn 0 0 1
vn 0 0 1
vn 0 0 1
g Object31_0
f 3/3/3 2/2/2 1/1/1
f 4/4/4 1/1/1 2/2/2
f 7/7/7 6/6/6 5/5/5
f 8/8/8 5/5/5 6/6/6
f 11/11/11 10/10/10 9/9/9
f 12/12/12 9/9/9 10/10/10
f 15/15/15 14/14/14 13/13/13
f 16/16/16 13/13/13 14/14/14
f 19/19/19 18/18/18 17/17/17
f 20/20/20 17/17/17 18/18/18
f 23/23/23 22/22/22 21/21/21
f 24/24/24 21/21/21 22/22/22
f 27/27/27 26/26/26 25/25/25
f 28/28/28 25/25/25 26/26/26
f 31/31/31 30/30/30 29/29/29
f 32/32/32 29/29/29 30/30/30
f 35/35/35 34/34/34 33/33/33
f 36/36/36 33/33/33 34/34/34
f 39/39/39 38/38/38 37/37/37
f 40/40/40 37/37/37 38/38/38
f 43/43/43 42/42/42 41/41/41
f 44/44/44 41/41/41 42/42/42
f 47/47/47 46/46/46 45/45/45
f 48/48/48 45/45/45 46/46/46
