g Object36
v -33.46684 29.52957 5.340576E-05
v -32.67939 28.74211 5.340576E-05
v -33.46684 28.74211 5.340576E-05
v -31.89193 28.74211 5.340576E-05
v -31.89193 29.52957 5.340576E-05
v -31.89193 27.95465 5.340576E-05
v -32.67939 27.95465 5.340576E-05
v -31.10447 26.37975 5.340576E-05
v -31.10447 27.95465 5.340576E-05
v -31.89193 26.37975 5.340576E-05
v -32.67939 26.37975 5.340576E-05
v -31.10447 25.59229 5.340576E-05
v -31.89193 25.59229 5.340576E-05
v -26.37975 23.22992 5.340576E-05
v -27.1672 27.1672 5.340576E-05
v -26.37975 27.1672 5.340576E-05
v -27.1672 23.22992 5.340576E-05
v -33.46684 5.90591 5.340576E-05
v -34.2543 8.268276 5.340576E-05
v -33.46684 8.268276 5.340576E-05
v -34.2543 5.90591 5.340576E-05
v -26.37975 4.330997 5.340576E-05
v -25.59229 3.543545 5.340576E-05
v -26.37975 3.543545 5.340576E-05
v -25.59229 4.330997 5.340576E-05
v -22.44247 3.543545 5.340576E-05
v -22.44247 4.330997 5.340576E-05
v -27.95465 20.86756 5.340576E-05
v -27.1672 18.50519 5.340576E-05
v -27.95465 18.50519 5.340576E-05
v -26.37975 18.50519 5.340576E-05
v -26.37975 20.86756 5.340576E-05
v -26.37975 14.56792 5.340576E-05
v -27.1672 14.56792 5.340576E-05
v -26.37975 11.41809 5.340576E-05
v -27.1672 12.20555 5.340576E-05
v -26.37975 12.20555 5.340576E-05
v -27.1672 11.41809 5.340576E-05
v -31.89193 37.40412 5.340576E-05
v -32.67939 38.19157 5.340576E-05
v -31.89193 38.19157 5.340576E-05
v -32.67939 37.40412 5.340576E-05
v -32.67939 36.61666 5.340576E-05
v -33.46684 37.40412 5.340576E-05
v -32.67939 37.40412 5.340576E-05
v -33.46684 36.61666 5.340576E-05
v -33.46684 35.8292 5.340576E-05
v -34.2543 36.61666 5.340576E-05
v -33.46684 36.61666 5.340576E-05
v -34.2543 35.8292 5.340576E-05
v -16.14283 36.61666 5.340576E-05
v -16.93029 39.76648 5.340576E-05
v -16.14283 39.76648 5.340576E-05
v -16.93029 36.61666 5.340576E-05
v 4.331009 46.85358 0.7875099
v 3.543552 49.21595 0.7875099
v 4.331009 49.21595 0.7875099
v 3.543552 46.85358 0.7875099
v 4.331009 42.12885 0.7875099
v 3.543552 44.49121 0.7875099
v 4.331009 44.49121 0.7875099
v 3.543552 42.12885 0.7875099
v 4.331009 41.3414 0.7875099
v 2.756096 42.12885 0.7875099
v 2.756096 41.3414 0.7875099
v 2.756096 35.8292 0.7875099
v -0.3937225 36.61666 0.7875099
v 2.756096 36.61666 0.7875099
v -0.3937225 35.8292 0.7875099
v 2.756096 31.89193 0.7875099
v -0.3937225 32.67939 0.7875099
v 2.756096 32.67939 0.7875099
v -0.3937225 31.89193 0.7875099
v 10.63065 24.80484 0.7875099
v 12.20556 24.01738 0.7875099
v 10.63065 24.01738 0.7875099
v 12.20556 24.80484 0.7875099
v 14.56792 24.01738 0.7875099
v 14.56792 24.80484 0.7875099
v 11.41811 -34.2543 4.724789
v 12.20556 -35.04176 4.724789
v 11.41811 -35.04176 4.724789
v 12.20556 -34.2543 4.724789
v 12.99302 -35.04176 4.724789
v 12.99302 -34.2543 4.724789
v 9.05574 -35.04176 -2.362312
v 12.20556 -35.82922 -2.362312
v 9.05574 -35.82922 -2.362312
v 12.20556 -35.04176 -2.362312
v 13.78047 -35.82922 -2.362312
v 13.78047 -35.04176 -2.362312
v 9.843193 -53.94069 -4.724678
v 9.05574 -53.15323 -4.724678
v 9.843193 -53.15323 -4.724678
v 9.05574 -53.94069 -4.724678
v 13.78047 12.20555 5.340576E-05
v 12.99302 15.35537 5.340576E-05
v 13.78047 15.35537 5.340576E-05
v 12.99302 12.20555 5.340576E-05
v 12.99302 8.268276 5.340576E-05
v 13.78047 11.41809 5.340576E-05
v 13.78047 8.268276 5.340576E-05
v 12.99302 11.41809 5.340576E-05
v 16.93029 -24.01739 -2.362312
v 12.99302 -23.22993 -2.362312
v 16.93029 -23.22993 -2.362312
v 12.99302 -24.01739 -2.362312
v 20.86757 55.51559 3.149876
v 16.93029 56.30304 3.149876
v 20.86757 56.30304 3.149876
v 16.93029 55.51559 3.149876
v 22.44248 51.57831 0.7875099
v 19.29266 52.36576 0.7875099
v 22.44248 52.36576 0.7875099
v 19.29266 51.57831 0.7875099
v 20.86757 -35.82922 4.724789
v 19.29266 -35.04176 4.724789
v 20.86757 -35.04176 4.724789
v 19.29266 -35.82922 4.724789
v 28.74212 24.01738 0.7875099
v 25.5923 24.80484 0.7875099
v 28.74212 24.80484 0.7875099
v 25.5923 24.01738 0.7875099
v 30.31703 -24.01739 -1.574856
v 27.16721 -23.22993 -1.574856
v 30.31703 -23.22993 -1.574856
v 27.16721 -24.01739 -1.574856
v 35.82922 -3.543552 -1.574856
v 35.04176 -1.968643 -1.574856
v 35.82922 -1.968643 -1.574856
v 35.04176 -3.543552 -1.574856
v 35.82922 -5.118462 -1.574856
v 35.04176 -5.118462 -1.574856
v 27.16721 -56.30305 -4.724678
v 26.37975 -55.51559 -4.724678
v 27.16721 -55.51559 -4.724678
v 26.37975 -56.30305 -4.724678
v 26.37975 -57.09051 -4.724678
v 25.5923 -56.30305 -4.724678
v 26.37975 -56.30305 -4.724678
v 25.5923 -57.09051 -4.724678
v 42.91631 48.42849 5.340576E-05
v 42.12886 50.79086 5.340576E-05
v 42.91631 50.79086 5.340576E-05
v 42.12886 48.42849 5.340576E-05
v 37.40413 -11.41811 -1.574856
v 36.61667 -6.693375 -1.574856
v 37.40413 -6.693375 -1.574856
v 36.61667 -11.41811 -1.574856
v 42.91631 14.56792 5.340576E-05
v 38.19158 15.35537 5.340576E-05
v 42.91631 15.35537 5.340576E-05
v 38.19158 14.56792 5.340576E-05
v 43.70377 11.41809 5.340576E-05
v 40.55395 12.20555 5.340576E-05
v 43.70377 12.20555 5.340576E-05
v 40.55395 11.41809 5.340576E-05
v 43.70377 4.330997 5.340576E-05
v 42.91631 7.480824 5.340576E-05
v 43.70377 7.480824 5.340576E-05
v 42.91631 4.330997 5.340576E-05
v 46.85359 4.330997 5.340576E-05
v 46.06613 7.480824 5.340576E-05
v 46.85359 7.480824 5.340576E-05
v 46.06613 4.330997 5.340576E-05
v 45.27868 -23.22993 -1.574856
v 44.49122 -20.86757 -1.574856
v 45.27868 -20.86757 -1.574856
v 44.49122 -23.22993 -1.574856
v 42.12886 -24.01739 -1.574856
v 38.19158 -23.22993 -1.574856
v 42.12886 -23.22993 -1.574856
v 38.19158 -24.01739 -1.574856
v 40.55395 -20.86757 3.937328
v 38.97903 -20.08011 3.937328
v 40.55395 -20.08011 3.937328
v 38.97903 -20.86757 3.937328
v -61.02777 -6.693375 2.362419
v -43.70376 -1.968643 2.362419
v -43.70376 -6.693375 2.362419
v -46.85358 -1.968643 2.362419
v -47.64103 -1.181187 2.362419
v -46.85358 -1.181187 2.362419
v -47.64103 12.40239 2.362419
v -61.02777 12.40239 2.362419
v 47.64104 17.71774 5.340576E-05
v 53.94069 11.41809 5.340576E-05
v 47.64104 11.41809 5.340576E-05
v 61.02778 7.480824 5.340576E-05
v 61.02778 17.71774 5.340576E-05
v 53.94069 7.480824 5.340576E-05
v 8.268284 54.72813 0.7875099
v 9.843193 57.0905 0.7875099
v 9.843193 54.72813 0.7875099
v 8.268284 57.0905 0.7875099
vt -24.00002 76
vt -22.99998 75
vt -24.00002 75
vt -21.99997 75
vt -21.99997 76
vt -21.99997 73.99998
vt -23 73.99998
vt -21.00001 72
vt -21.00001 73.99998
vt -22 72
vt -23 72
vt -21.00001 71
vt -21.99997 71
vt -15.00001 67.99998
vt -15.99998 72.99998
vt -15.00001 72.99998
vt -15.99998 67.99998
vt -24.00002 46
vt -25 48.99997
vt -24.00002 48.99997
vt -25 46
vt -15.00001 43.99998
vt -13.99998 42.99998
vt -15.00001 42.99998
vt -13.99998 43.99998
vt -9.999996 42.99998
vt -9.999996 43.99998
vt -17.00001 64.99998
vt -16.00002 61.99999
vt -17.00001 61.99999
vt -15.00001 61.99999
vt -15.00001 64.99998
vt -15.00001 56.99997
vt -15.99998 56.99997
vt -15.00001 52.99997
vt -15.99998 53.99998
vt -15.00001 53.99998
vt -15.99998 52.99997
vt -21.99997 85.99998
vt -23 86.99997
vt -21.99997 86.99997
vt -23 85.99998
vt -23 85
vt -24.00002 85.99998
vt -23 85.99998
vt -24.00002 85
vt -24.00002 83.99997
vt -25 85
vt -24.00002 85
vt -25 83.99997
vt -1.999996 85
vt -3.000023 88.99995
vt -1.999996 88.99995
vt -3.000023 85
vt 23.99998 98
vt 23 101
vt 23.99998 101
vt 23 98
vt 23.99998 91.99995
vt 23 94.99997
vt 23.99998 94.99997
vt 23 91.99995
vt 23.99998 90.99997
vt 21.99998 91.99995
vt 21.99998 90.99997
vt 21.99998 83.99995
vt 17.99998 84.99994
vt 21.99998 84.99994
vt 17.99998 83.99995
vt 21.99998 78.99995
vt 17.99998 79.99995
vt 21.99998 79.99995
vt 17.99998 78.99995
vt 32.00002 69.99997
vt 34.00002 68.99996
vt 32.00002 68.99996
vt 34.00002 69.99997
vt 36.99999 68.99996
vt 36.99999 69.99997
vt 32.99999 -5.000042
vt 34.00002 -6.000038
vt 32.99999 -6.000038
vt 34.00002 -5.000042
vt 34.99998 -6.000038
vt 34.99998 -5.000042
vt 30.00002 -6.000038
vt 34.00002 -7.000042
vt 30.00002 -7.000042
vt 34.00002 -6.000038
vt 36.00001 -7.000042
vt 36.00001 -6.000038
vt 30.99995 -30.00004
vt 29.99996 -29.00005
vt 30.99995 -29.00005
vt 29.99996 -30.00004
vt 36.00001 53.99995
vt 34.99998 57.99995
vt 36.00001 57.99995
vt 34.99998 53.99995
vt 34.99998 48.99995
vt 36.00001 52.99995
vt 36.00001 48.99995
vt 34.99998 52.99995
vt 40.00001 7.999969
vt 34.99998 8.999977
vt 40.00001 8.999977
vt 34.99998 7.999969
vt 44.99999 109
vt 40.00001 110
vt 44.99999 110
vt 40.00001 109
vt 46.99998 104
vt 42.99998 105
vt 46.99998 105
vt 42.99998 104
vt 44.99999 -7.000042
vt 42.99998 -6.000038
vt 44.99999 -6.000038
vt 42.99998 -7.000042
vt 55.00002 68.99996
vt 50.99998 69.99997
vt 55.00002 69.99997
vt 50.99998 68.99996
vt 57.00003 7.999969
vt 52.99997 8.999977
vt 57.00003 8.999977
vt 52.99997 7.999969
vt 63.99998 33.99998
vt 63.00002 35.99997
vt 63.99998 35.99997
vt 63.00002 33.99998
vt 63.99998 31.99995
vt 63.00002 31.99995
vt 52.99993 -33.00003
vt 51.99996 -32.00004
vt 52.99993 -32.00004
vt 51.99996 -33.00003
vt 51.99996 -34.00004
vt 50.99992 -33.00003
vt 51.99996 -33.00003
vt 50.99992 -34.00004
vt 73 99.99997
vt 72 103
vt 73 103
vt 72 99.99997
vt 65.99999 23.99995
vt 65.00001 29.99994
vt 65.99999 29.99994
vt 65.00001 23.99995
vt 73 56.99995
vt 67.00002 57.99995
vt 73 57.99995
vt 67.00002 56.99995
vt 73.99998 52.99995
vt 69.99998 53.99995
vt 73.99998 53.99995
vt 69.99998 52.99995
vt 73.99998 43.99997
vt 73 47.99997
vt 73.99998 47.99997
vt 73 43.99997
vt 77.99997 43.99997
vt 77 47.99997
vt 77.99997 47.99997
vt 77 43.99997
vt 76 8.999977
vt 75.00002 11.99997
vt 76 11.99997
vt 75.00002 8.999977
vt 72 7.999969
vt 67.00002 8.999977
vt 72 8.999977
vt 67.00002 7.999969
vt 69.99998 11.99997
vt 67.99998 12.99996
vt 69.99998 12.99996
vt 67.99998 11.99997
vt -59.00002 29.99996
vt -36.99999 35.99999
vt -36.99999 29.99996
vt -40.99998 35.99999
vt -42.00001 36.99999
vt -40.99998 36.99999
vt -42.00001 54.24999
vt -59 54.24999
vt 79.00002 60.99992
vt 86.99998 52.99997
vt 79.00002 52.99995
vt 96.00003 47.99997
vt 96.00003 60.99992
vt 86.99998 47.99997
vt 29 107.9999
vt 30.99998 110.9999
vt 30.99998 107.9999
vt 29 110.9999
vn 3.721652E-09 -3.721652E-09 1
vn 3.721652E-09 -3.721652E-09 1
vn 3.721652E-09 -3.721652E-09 1
vn 3.721652E-09 -3.721652E-09 1
vn 3.721652E-09 -3.721652E-09 1
vn 3.721652E-09 -7.644244E-07 1
vn 3.721652E-09 -6.376406E-07 1
vn 3.721652E-09 -6.376406E-07 1
vn 3.721652E-09 -9.508713E-07 1
vn 3.721652E-09 -7.644244E-07 1
vn 3.721652E-09 -9.508713E-07 1
vn 3.721652E-09 -3.721652E-09 1
vn 3.721652E-09 -3.721652E-09 1
vn 3.721652E-09 -3.84073E-07 1
vn 3.721652E-09 -3.84073E-07 1
vn 3.721652E-09 -3.84073E-07 1
vn 3.721652E-09 -3.84073E-07 1
vn 3.721652E-09 -3.721652E-09 1
vn 3.721652E-09 -3.721652E-09 1
vn 3.721652E-09 -3.721652E-09 1
vn 3.721652E-09 -3.721652E-09 1
vn 3.721652E-09 -3.721652E-09 1
vn 3.721652E-09 -3.721652E-09 1
vn 3.721652E-09 -3.721652E-09 1
vn 3.721652E-09 -3.721652E-09 1
vn 3.721652E-09 -3.721652E-09 1
vn 3.721652E-09 -3.721652E-09 1
vn 3.721652E-09 -3.721652E-09 1
vn -9.732594E-07 -5.705199E-07 1
vn 1.905479E-06 -3.721652E-09 1
vn -1.435647E-06 -4.735675E-07 1
vn 3.721652E-09 -3.721652E-09 1
vn 3.721652E-09 -3.721652E-09 1
vn 3.721652E-09 -3.721652E-09 1
vn 3.721652E-09 -3.721652E-09 1
vn 3.721652E-09 -3.721652E-09 1
vn 3.721652E-09 -3.721652E-09 1
vn 3.721652E-09 -3.721652E-09 1
vn 1.905479E-06 1.905493E-06 1
vn 1.905479E-06 1.905493E-06 1
vn 3.721652E-09 -3.721652E-09 1
vn 3.814694E-06 3.814708E-06 1
vn 3.721652E-09 -3.721652E-09 1
vn 3.721652E-09 -3.721652E-09 1
vn 3.814694E-06 3.814708E-06 1
vn 3.814694E-06 3.814708E-06 1
vn -1.905493E-06 -3.814694E-06 1
vn -1.905493E-06 -3.814694E-06 1
vn 3.814694E-06 3.814708E-06 1
vn 3.721652E-09 -1.905479E-06 1
vn 3.721652E-09 -3.721652E-09 1
vn 3.721652E-09 -3.721652E-09 1
vn 3.721652E-09 -3.721652E-09 1
vn 3.721652E-09 -3.721652E-09 1
vn 3.721652E-09 -3.721652E-09 1
vn 3.721652E-09 -3.721652E-09 1
vn 3.721652E-09 -3.721652E-09 1
vn 3.721652E-09 -3.721652E-09 1
vn -1.614636E-06 -3.766152E-07 1
vn -3.915457E-07 1.144791E-06 1
vn 3.721652E-09 1.271574E-06 1
vn -1.905493E-06 -1.144776E-06 1
vn -1.04038E-06 -2.07701E-06 1
vn -3.318823E-07 -6.600144E-07 1
vn 3.721652E-09 -3.721652E-09 1
vn 3.721652E-09 -1.905479E-06 1
vn 3.721652E-09 -1.905479E-06 1
vn 3.721652E-09 -1.905479E-06 1
vn 3.721652E-09 -1.905479E-06 1
vn 3.721652E-09 -3.721652E-09 1
vn 3.721652E-09 -3.721652E-09 1
vn 3.721652E-09 -3.721652E-09 1
vn 3.721652E-09 -3.721652E-09 1
vn 3.721652E-09 -3.721652E-09 1
vn 3.721652E-09 -3.721652E-09 1
vn 3.721652E-09 -3.721652E-09 1
vn 3.721652E-09 -3.721652E-09 1
vn 3.721652E-09 -3.721652E-09 1
vn 3.721652E-09 -3.721652E-09 1
vn 3.721652E-09 -3.721652E-09 1
vn 3.721652E-09 -3.721652E-09 1
vn 3.721652E-09 -3.721652E-09 1
vn 3.721652E-09 -3.721652E-09 1
vn 3.721652E-09 -3.721652E-09 1
vn 3.721652E-09 -3.721652E-09 1
vn 3.721652E-09 -3.721652E-09 1
vn 3.721652E-09 -3.721652E-09 1
vn 3.721652E-09 -3.721652E-09 1
vn 3.721652E-09 -3.721652E-09 1
vn 3.721652E-09 -3.721652E-09 1
vn 3.721652E-09 -3.721652E-09 1
vn 3.721652E-09 -3.721652E-09 1
vn 3.721652E-09 -3.721652E-09 1
vn 3.721652E-09 -3.721652E-09 1
vn 3.721652E-09 -3.721652E-09 1
vn 3.721652E-09 -3.721652E-09 1
vn 3.721652E-09 -3.721652E-09 1
vn 3.721652E-09 -3.721652E-09 1
vn 3.721652E-09 -3.721652E-09 1
vn 3.721652E-09 -4.735675E-07 1
vn 3.721652E-09 -4.735675E-07 1
vn 3.721652E-09 -4.735675E-07 1
vn 3.721652E-09 -4.735675E-07 1
vn 3.721652E-09 -3.721652E-09 1
vn 3.721652E-09 -3.721652E-09 1
vn 3.721652E-09 -3.721652E-09 1
vn 3.721652E-09 -3.721652E-09 1
vn 3.721652E-09 -3.721652E-09 1
vn 3.721652E-09 -3.721652E-09 1
vn 3.721652E-09 -3.721652E-09 1
vn 3.721652E-09 -3.721652E-09 1
vn 3.721652E-09 -3.721652E-09 1
vn 3.721652E-09 -3.721652E-09 1
vn 3.721652E-09 -3.721652E-09 1
vn 3.721652E-09 -3.721652E-09 1
vn 3.721652E-09 -3.721652E-09 1
vn 3.721652E-09 -3.721652E-09 1
vn 3.721652E-09 -3.721652E-09 1
vn 3.721652E-09 -3.721652E-09 1
vn 3.721652E-09 -3.721652E-09 1
vn 3.721652E-09 -3.721652E-09 1
vn 3.721652E-09 -3.721652E-09 1
vn 3.721652E-09 -3.721652E-09 1
vn 3.721652E-09 -3.721652E-09 1
vn 3.721652E-09 -3.721652E-09 1
vn 3.721652E-09 -3.721652E-09 1
vn 3.721652E-09 -3.721652E-09 1
vn 3.721652E-09 -3.721652E-09 1
vn 3.721652E-09 -3.721652E-09 1
vn 3.721652E-09 -3.721652E-09 1
vn 3.721652E-09 -3.721652E-09 1
vn 3.721652E-09 -3.721652E-09 1
vn 3.721652E-09 -3.721652E-09 1
vn 9.807027E-07 -9.807027E-07 1
vn 9.807027E-07 -9.807027E-07 1
vn 3.721652E-09 -1.965142E-06 1
vn 1.965142E-06 -3.721652E-09 1
vn -9.807172E-07 -9.807027E-07 1
vn -9.807172E-07 -9.807027E-07 1
vn 1.965142E-06 -3.721652E-09 1
vn 3.721652E-09 -3.721652E-09 1
vn 3.721652E-09 -3.721652E-09 1
vn 3.721652E-09 -3.721652E-09 1
vn 3.721652E-09 -3.721652E-09 1
vn 3.721652E-09 -3.721652E-09 1
vn 3.721652E-09 -3.244102E-07 1
vn 3.721652E-09 -3.244102E-07 1
vn 3.721652E-09 -3.244102E-07 1
vn 3.721652E-09 -3.244102E-07 1
vn 3.721652E-09 -3.721652E-09 1
vn 3.721652E-09 -3.721652E-09 1
vn 3.721652E-09 -3.721652E-09 1
vn 3.721652E-09 -3.721652E-09 1
vn 3.721652E-09 -3.721652E-09 1
vn 3.721652E-09 -3.721652E-09 1
vn 3.721652E-09 -3.721652E-09 1
vn 3.721652E-09 -3.721652E-09 1
vn 3.721652E-09 -3.721652E-09 1
vn 3.721652E-09 -3.721652E-09 1
vn 3.721652E-09 -3.721652E-09 1
vn 3.721652E-09 -3.721652E-09 1
vn 3.721652E-09 -3.721652E-09 1
vn 3.721652E-09 -3.721652E-09 1
vn 3.721652E-09 -3.721652E-09 1
vn 3.721652E-09 -3.721652E-09 1
vn 3.721652E-09 -3.721652E-09 1
vn 3.721652E-09 -3.721652E-09 1
vn 3.721652E-09 -3.721652E-09 1
vn 3.721652E-09 -3.721652E-09 1
vn 3.721652E-09 -3.721652E-09 1
vn 3.721652E-09 -3.721652E-09 1
vn 3.721652E-09 -3.721652E-09 1
vn 3.721652E-09 -3.721652E-09 1
vn 3.721652E-09 -3.721652E-09 1
vn 3.721652E-09 -3.721652E-09 1
vn 3.721652E-09 -3.721652E-09 1
vn 3.721652E-09 -3.721652E-09 1
vn 3.721652E-09 -3.721652E-09 1
vn 3.721652E-09 -3.721652E-09 1
vn 3.721652E-09 -3.721652E-09 1
vn 3.467837E-07 -1.293933E-06 1
vn 3.721652E-09 -3.721652E-09 1
vn 1.965142E-06 1.965156E-06 1
vn 3.721652E-09 -3.721652E-09 1
vn 3.721652E-09 -3.721652E-09 1
vn 3.721652E-09 -3.721652E-09 1
vn 3.721652E-09 -3.721652E-09 1
vn 3.721652E-09 -3.721652E-09 1
vn 3.721652E-09 -3.721652E-09 1
vn 3.721652E-09 -3.721652E-09 1
vn 3.721652E-09 -3.721652E-09 1
vn 3.721652E-09 -3.721652E-09 1
vn 3.721652E-09 -3.721652E-09 1
vn 3.721652E-09 -3.721652E-09 1
vn 3.721652E-09 -3.721652E-09 1
g Object36_0
f 3/3/3 2/2/2 1/1/1
f 2/2/2 4/4/4 1/1/1
f 4/4/4 5/5/5 1/1/1
f 4/4/4 2/2/2 6/6/6
f 7/7/7 6/6/6 2/2/2
f 8/8/8 6/6/6 7/7/7
f 9/9/9 6/6/6 8/8/8
f 10/10/10 8/8/8 7/7/7
f 11/11/11 10/10/10 7/7/7
f 8/8/8 10/10/10 12/12/12
f 13/13/13 12/12/12 10/10/10
f 16/16/16 15/15/15 14/14/14
f 17/17/17 14/14/14 15/15/15
f 20/20/20 19/19/19 18/18/18
f 21/21/21 18/18/18 19/19/19
f 24/24/24 23/23/23 22/22/22
f 25/25/25 22/22/22 23/23/23
f 23/23/23 26/26/26 25/25/25
f 27/27/27 25/25/25 26/26/26
f 30/30/30 29/29/29 28/28/28
f 29/29/29 31/31/31 28/28/28
f 31/31/31 32/32/32 28/28/28
f 31/31/31 29/29/29 33/33/33
f 34/34/34 33/33/33 29/29/29
f 37/37/37 36/36/36 35/35/35
f 38/38/38 35/35/35 36/36/36
f 41/41/41 40/40/40 39/39/39
f 42/42/42 39/39/39 40/40/40
f 45/45/45 44/44/44 43/43/43
f 46/46/46 43/43/43 44/44/44
f 49/49/49 48/48/48 47/47/47
f 50/50/50 47/47/47 48/48/48
f 53/53/53 52/52/52 51/51/51
f 54/54/54 51/51/51 52/52/52
f 57/57/57 56/56/56 55/55/55
f 58/58/58 55/55/55 56/56/56
f 61/61/61 60/60/60 59/59/59
f 62/62/62 59/59/59 60/60/60
f 59/59/59 62/62/62 63/63/63
f 63/63/63 62/62/62 64/64/64
f 65/65/65 63/63/63 64/64/64
f 68/68/68 67/67/67 66/66/66
f 69/69/69 66/66/66 67/67/67
f 72/72/72 71/71/71 70/70/70
f 73/73/73 70/70/70 71/71/71
f 76/76/76 75/75/75 74/74/74
f 77/77/77 74/74/74 75/75/75
f 75/75/75 78/78/78 77/77/77
f 79/79/79 77/77/77 78/78/78
f 82/82/82 81/81/81 80/80/80
f 83/83/83 80/80/80 81/81/81
f 81/81/81 84/84/84 83/83/83
f 85/85/85 83/83/83 84/84/84
f 88/88/88 87/87/87 86/86/86
f 89/89/89 86/86/86 87/87/87
f 87/87/87 90/90/90 89/89/89
f 91/91/91 89/89/89 90/90/90
f 94/94/94 93/93/93 92/92/92
f 95/95/95 92/92/92 93/93/93
f 98/98/98 97/97/97 96/96/96
f 99/99/99 96/96/96 97/97/97
f 102/102/102 101/101/101 100/100/100
f 103/103/103 100/100/100 101/101/101
f 106/106/106 105/105/105 104/104/104
f 107/107/107 104/104/104 105/105/105
f 110/110/110 109/109/109 108/108/108
f 111/111/111 108/108/108 109/109/109
f 114/114/114 113/113/113 112/112/112
f 115/115/115 112/112/112 113/113/113
f 118/118/118 117/117/117 116/116/116
f 119/119/119 116/116/116 117/117/117
f 122/122/122 121/121/121 120/120/120
f 123/123/123 120/120/120 121/121/121
f 126/126/126 125/125/125 124/124/124
f 127/127/127 124/124/124 125/125/125
f 130/130/130 129/129/129 128/128/128
f 131/131/131 128/128/128 129/129/129
f 128/128/128 131/131/131 132/132/132
f 133/133/133 132/132/132 131/131/131
f 136/136/136 135/135/135 134/134/134
f 137/137/137 134/134/134 135/135/135
f 140/140/140 139/139/139 138/138/138
f 141/141/141 138/138/138 139/139/139
f 144/144/144 143/143/143 142/142/142
f 145/145/145 142/142/142 143/143/143
f 148/148/148 147/147/147 146/146/146
f 149/149/149 146/146/146 147/147/147
f 152/152/152 151/151/151 150/150/150
f 153/153/153 150/150/150 151/151/151
f 156/156/156 155/155/155 154/154/154
f 157/157/157 154/154/154 155/155/155
f 160/160/160 159/159/159 158/158/158
f 161/161/161 158/158/158 159/159/159
f 164/164/164 163/163/163 162/162/162
f 165/165/165 162/162/162 163/163/163
f 168/168/168 167/167/167 166/166/166
f 169/169/169 166/166/166 167/167/167
f 172/172/172 171/171/171 170/170/170
f 173/173/173 170/170/170 171/171/171
f 176/176/176 175/175/175 174/174/174
f 177/177/177 174/174/174 175/175/175
f 180/180/180 179/179/179 178/178/178
f 179/179/179 181/181/181 178/178/178
f 181/181/181 182/182/182 178/178/178
f 183/183/183 182/182/182 181/181/181
f 182/182/182 184/184/184 178/178/178
f 184/184/184 185/185/185 178/178/178
f 188/188/188 187/187/187 186/186/186
f 187/187/187 189/189/189 186/186/186
f 189/189/189 190/190/190 186/186/186
f 191/191/191 189/189/189 187/187/187
f 194/194/194 193/193/193 192/192/192
f 195/195/195 192/192/192 193/193/193
