g Object18
v -0.7872956 -0.787304 1.525695
v -7.748604E-06 -1.574673 1.431203
v -0.7873194 -1.574529 0.8550463
v -7.748604E-06 -1.574673 1.431203
v 0.7873011 -0.787304 1.525695
v 0.7873251 -1.574529 0.8550463
v -7.748604E-06 1.57464 1.431203
v -0.7872956 0.7871392 1.525695
v -0.7873194 1.57452 0.8550463
v 0.7873011 0.7871392 1.525695
v -7.748604E-06 1.57464 1.431203
v 0.7873251 1.574499 0.8550463
v -0.7872956 0.7871392 1.525695
v -1.574655 -4.291534E-06 1.431203
v -1.574727 0.7872593 0.8642342
v 1.574661 -4.291534E-06 1.431203
v 0.7873011 0.7871392 1.525695
v 1.574709 0.7872593 0.8642342
v -1.574655 -4.291534E-06 1.431203
v -0.7872956 -0.787304 1.525695
v -1.574727 -0.787268 0.8642342
v 0.7873011 -0.787304 1.525695
v 1.574661 -4.291534E-06 1.431203
v 1.574709 -0.787268 0.8642342
v -7.748604E-06 -1.574673 1.431203
v -0.7872956 -0.787304 1.525695
v -7.748604E-06 -0.7874603 1.525695
v 0.7873011 -0.787304 1.525695
v -0.7874637 -0.7876284 -1.525694
v 0.7877095 -0.7879888 -0.7382382
v -0.787704 -0.7879888 -0.7382382
v 0.7874452 -0.7876284 -1.525694
v -0.787704 -0.7879888 0.0492177
v 0.7877095 -0.7879888 0.8366737
v -0.787704 -0.7879888 0.8366737
v 0.7877095 -0.7879888 0.0492177
v 0.7874452 -0.7876284 -1.525694
v 0.7873251 -1.574529 0.8550463
v 0.7873011 -0.787304 1.525695
v 0.7869406 -1.574673 -1.525694
v -0.7873194 -1.574529 0.8550463
v 0.7869406 -1.574673 -1.525694
v -0.7871993 -1.574409 -1.525694
v 0.7873251 -1.574529 0.8550463
v -7.748604E-06 -1.57412 0.8366737
v -0.7873194 -1.574529 0.8550463
v -7.748604E-06 -1.574673 1.431203
v 0.7873251 -1.574529 0.8550463
v -0.7874637 -0.7876284 -1.525694
v -0.7873194 -1.574529 0.8550463
v -0.7871993 -1.574409 -1.525694
v -0.7872956 -0.787304 1.525695
v -0.7872956 0.7871392 1.525695
v -7.748604E-06 1.57464 1.431203
v -7.748604E-06 0.7874517 1.525695
v 0.7873011 0.7871392 1.525695
v -1.574655 -4.291534E-06 1.431203
v -0.7872956 0.7871392 1.525695
v -0.7874637 -4.291534E-06 1.525695
v -0.7872956 -0.787304 1.525695
v 0.7873011 0.7871392 1.525695
v 1.574661 -4.291534E-06 1.431203
v 0.7874452 -4.291534E-06 1.525695
v 0.7873011 -0.787304 1.525695
v -1.574727 0.7872593 0.8642342
v -1.574127 -4.291534E-06 -1.525694
v -1.574391 0.7871873 -1.525694
v -1.574655 -4.291534E-06 1.431203
v -1.574727 -0.787268 0.8642342
v -1.574391 -0.787208 -1.525694
v -0.7874637 0.7872834 -1.525694
v -1.574727 0.7872593 0.8642342
v -1.574391 0.7871873 -1.525694
v -0.7872956 0.7871392 1.525695
v 0.7874452 0.7872834 -1.525694
v 1.574709 0.7872593 0.8642342
v 0.7873011 0.7871392 1.525695
v 1.574661 0.7869229 -1.525694
v 0.7874452 0.7872834 -1.525694
v 0.7873251 1.574499 0.8550463
v 0.7869406 1.57464 -1.525694
v 0.7873011 0.7871392 1.525695
v -0.7874637 0.7872834 -1.525694
v -0.787704 -0.7879888 -0.7382382
v -0.7879682 0.787704 -0.7382382
v -0.7874637 -0.7876284 -1.525694
v -0.7879682 0.787704 0.0492177
v -0.787704 -0.7879888 0.8366737
v -0.7879682 0.787704 0.8366737
v -0.787704 -0.7879888 0.0492177
v 0.7873251 1.574499 0.8550463
v -0.7871993 1.574379 -1.525694
v 0.7869406 1.57464 -1.525694
v -0.7873194 1.57452 0.8550463
v -7.748604E-06 1.574115 0.8366737
v 0.7873251 1.574499 0.8550463
v -7.748604E-06 1.57464 1.431203
v -0.7873194 1.57452 0.8550463
v 0.7874452 -0.7876284 -1.525694
v 0.7879738 0.787704 -0.7382382
v 0.7877095 -0.7879888 -0.7382382
v 0.7874452 0.7872834 -1.525694
v 0.7877095 -0.7879888 0.0492177
v 0.7879738 0.787704 0.8366737
v 0.7877095 -0.7879888 0.8366737
v 0.7879738 0.787704 0.0492177
v -0.7874637 -0.7876284 -1.525694
v -1.574727 -0.787268 0.8642342
v -0.7872956 -0.787304 1.525695
v -1.574391 -0.787208 -1.525694
v 0.7874452 -0.7876284 -1.525694
v 1.574709 -0.787268 0.8642342
v 1.574661 -0.7869316 -1.525694
v 0.7873011 -0.787304 1.525695
v 0.7874452 0.7872834 -1.525694
v -0.7879682 0.787704 -0.7382382
v 0.7879738 0.787704 -0.7382382
v -0.7874637 0.7872834 -1.525694
v 0.7879738 0.787704 0.0492177
v -0.7879682 0.787704 0.8366737
v 0.7879738 0.787704 0.8366737
v -0.7879682 0.787704 0.0492177
v 1.574108 -4.291534E-06 -1.525694
v 1.574709 0.7872593 0.8642342
v 1.574661 0.7869229 -1.525694
v 1.574661 -4.291534E-06 1.431203
v 1.574709 -0.787268 0.8642342
v 1.574661 -0.7869316 -1.525694
v -0.7874637 0.7872834 -1.525694
v -0.7873194 1.57452 0.8550463
v -0.7872956 0.7871392 1.525695
v -0.7871993 1.574379 -1.525694
vt -19.99979 34.00019
vt -19.00001 33.00029
vt -19.99984 33.00047
vt -19.00001 33.00029
vt -18.00018 34.00019
vt -18.00018 33.00047
vt -19.00001 36.99966
vt -19.99979 35.99959
vt -19.99984 36.99949
vt -18.00018 35.99959
vt -19.00001 36.99966
vt -18.00018 36.99947
vt -19.99979 35.99959
vt -20.99967 34.99999
vt -20.99977 35.99973
vt -17.00029 34.99999
vt -18.00018 35.99959
vt -17.00025 35.99973
vt -20.99967 34.99999
vt -19.99979 34.00019
vt -20.99977 34.00023
vt -18.00018 34.00019
vt -17.00029 34.99999
vt -17.00025 34.00023
vt -19.00001 33.00029
vt -19.99979 34.00019
vt -19.00001 33.99999
vt -18.00018 34.00019
vt 120 42.99999
vt 117.9997 43.99998
vt 120.0003 43.99998
vt 118 42.99999
vt 120.0003 44.99998
vt 117.9997 46
vt 120.0003 46
vt 117.9997 44.99998
vt 33.99978 42.99999
vt 33.00047 46.02332
vt 34.00019 46.87498
vt 33.00029 42.99999
vt -19.99984 46.02332
vt -18.00065 42.99999
vt -19.99965 42.99999
vt -18.00018 46.02332
vt -19.00001 46
vt -19.99984 46.02332
vt -19.00001 46.755
vt -18.00018 46.02332
vt 66.00021 42.99999
vt 66.99953 46.02332
vt 66.99939 42.99999
vt 65.99981 46.87498
vt -19.99979 35.99959
vt -19.00001 36.99966
vt -19.00001 36
vt -18.00018 35.99959
vt -20.99967 34.99999
vt -19.99979 35.99959
vt -19.99998 34.99999
vt -19.99979 34.00019
vt -18.00018 35.99959
vt -17.00029 34.99999
vt -17.99998 34.99999
vt -18.00018 34.00019
vt 64.00028 46.035
vt 65.00002 42.99999
vt 64.00035 42.99999
vt 65.00002 46.755
vt 65.99978 46.035
vt 65.99969 42.99999
vt 120 42.99999
vt 120.9998 46.035
vt 120.9994 42.99999
vt 119.9998 46.87498
vt 118 42.99999
vt 117.0003 46.035
vt 118.0002 46.87498
vt 117.0003 42.99999
vt 35.99978 42.99999
vt 36.99947 46.02332
vt 36.99966 42.99999
vt 35.99959 46.87498
vt 35.99978 42.99999
vt 33.9993 43.99998
vt 36.00031 43.99998
vt 33.99978 42.99999
vt 36.00031 44.99998
vt 33.9993 46
vt 36.00031 46
vt 33.9993 44.99998
vt 118.0002 46.02332
vt 119.9997 42.99999
vt 118.0007 42.99999
vt 119.9999 46.02332
vt 119 46
vt 118.0002 46.02332
vt 119 46.755
vt 119.9999 46.02332
vt 66.00021 42.99999
vt 63.9997 43.99998
vt 66.00071 43.99998
vt 64.00023 42.99999
vt 66.00071 44.99998
vt 63.9997 46
vt 66.00071 46
vt 63.9997 44.99998
vt -19.99998 42.99999
vt -20.99977 46.035
vt -19.99979 46.87498
vt -20.99933 42.99999
vt -17.99998 42.99999
vt -17.00025 46.035
vt -17.00029 42.99999
vt -18.00018 46.87498
vt -17.99998 42.99999
vt -20.00065 43.99998
vt -17.99931 43.99998
vt -19.99998 42.99999
vt -17.99931 44.99998
vt -20.00065 46
vt -17.99931 46
vt -20.00065 44.99998
vt 34.99999 42.99999
vt 35.99973 46.035
vt 35.99931 42.99999
vt 34.99999 46.755
vt 34.00023 46.035
vt 34.00066 42.99999
vt 64.00023 42.99999
vt 63.00052 46.02332
vt 64.00042 46.87498
vt 63.0007 42.99999
vn -0.4858258 -0.5659821 0.6660612
vn -0.4858258 -0.5659821 0.6660612
vn -0.4858258 -0.5659821 0.6660612
vn 0.4858258 -0.5659821 0.6660612
vn 0.4858258 -0.5659821 0.6660612
vn 0.4858258 -0.5659821 0.6660612
vn -0.4858258 0.5659821 0.6660612
vn -0.4858258 0.5659821 0.6660612
vn -0.4858258 0.5659821 0.6660612
vn 0.4858258 0.5659821 0.6660612
vn 0.4858258 0.5659821 0.6660612
vn 0.4858258 0.5659821 0.6660612
vn -0.5640271 0.4819157 0.670545
vn -0.5640271 0.4819157 0.670545
vn -0.5640271 0.4819157 0.670545
vn 0.5640271 0.4819157 0.670545
vn 0.5640271 0.4819157 0.670545
vn 0.5640271 0.4819157 0.670545
vn -0.5640271 -0.4819157 0.670545
vn -0.5640271 -0.4819157 0.670545
vn -0.5640271 -0.4819157 0.670545
vn 0.5640271 -0.4819157 0.670545
vn 0.5640271 -0.4819157 0.670545
vn 0.5640271 -0.4819157 0.670545
vn -0.0009775162 -0.1182795 0.9929799
vn -0.0009775162 -0.1182795 0.9929799
vn -0.0009775162 -0.1182795 0.9929799
vn 0.0009775162 -0.1182795 0.9929799
vn -0.0009775162 0.9999995 0
vn -0.0009775162 0.9999995 0
vn -0.0009775162 0.9999995 0
vn -0.0009775162 0.9999995 0
vn -0.0009775162 0.9999995 0
vn -0.0009775162 0.9999995 0
vn -0.0009775162 0.9999995 0
vn -0.0009775162 0.9999995 0
vn 0.9999995 -0.0009775162 0
vn 0.9999995 -0.0009775162 0
vn 0.9999995 -0.0009775162 0
vn 0.9999995 -0.0009775162 0
vn -0.0009775162 -0.9999995 0
vn -0.0009775162 -0.9999995 0
vn -0.0009775162 -0.9999995 0
vn -0.0009775162 -0.9999995 0
vn -0.0009775162 -0.9999995 0
vn -0.0009775162 -0.9999995 0
vn -0.0009775162 -0.9999995 0
vn -0.0009775162 -0.9999995 0
vn -0.9999995 -0.0009775162 0
vn -0.9999995 -0.0009775162 0
vn -0.9999995 -0.0009775162 0
vn -0.9999995 -0.0009775162 0
vn -0.0009775162 0.1182795 0.9929799
vn -0.0009775162 0.1182795 0.9929799
vn -0.0009775162 0.1182795 0.9929799
vn 0.0009775162 0.1182795 0.9929799
vn -0.1182795 0.0009775162 0.9929799
vn -0.1182795 0.0009775162 0.9929799
vn -0.1182795 0.0009775162 0.9929799
vn -0.1182795 -0.0009775162 0.9929799
vn 0.1182795 0.0009775162 0.9929799
vn 0.1182795 0.0009775162 0.9929799
vn 0.1182795 0.0009775162 0.9929799
vn 0.1182795 -0.0009775162 0.9929799
vn -0.9999995 -0.0009775162 0
vn -0.9999995 0.0009775162 0
vn -0.9999995 -0.0009775162 0
vn -0.9999995 0.0009775162 0
vn -0.9999995 0.0009775162 0
vn -0.9999995 0.0009775162 0
vn -0.0009775162 0.9999995 0
vn 0.0009775162 0.9999995 0
vn -0.0009775162 0.9999995 0
vn 0.0009775162 0.9999995 0
vn 0.0009775162 0.9999995 0
vn -0.0009775162 0.9999995 0
vn -0.0009775162 0.9999995 0
vn 0.0009775162 0.9999995 0
vn 0.9999995 0.0009775162 0
vn 0.9999995 0.0009775162 0
vn 0.9999995 0.0009775162 0
vn 0.9999995 0.0009775162 0
vn 0.9999995 0.0009775162 0
vn 0.9999995 0.0009775162 0
vn 0.9999995 0.0009775162 0
vn 0.9999995 0.0009775162 0
vn 0.9999995 0.0009775162 0
vn 0.9999995 0.0009775162 0
vn 0.9999995 0.0009775162 0
vn 0.9999995 0.0009775162 0
vn -0.0009775162 0.9999995 0
vn -0.0009775162 0.9999995 0
vn -0.0009775162 0.9999995 0
vn 0.0009775162 0.9999995 0
vn 0.0009775162 0.9999995 0
vn -0.0009775162 0.9999995 0
vn 0.0009775162 0.9999995 0
vn 0.0009775162 0.9999995 0
vn -0.9999995 0.0009775162 0
vn -0.9999995 0.0009775162 0
vn -0.9999995 0.0009775162 0
vn -0.9999995 0.0009775162 0
vn -0.9999995 0.0009775162 0
vn -0.9999995 0.0009775162 0
vn -0.9999995 0.0009775162 0
vn -0.9999995 0.0009775162 0
vn -0.0009775162 -0.9999995 0
vn -0.0009775162 -0.9999995 0
vn -0.0009775162 -0.9999995 0
vn -0.0009775162 -0.9999995 0
vn 0.0009775162 -0.9999995 0
vn 0.0009775162 -0.9999995 0
vn 0.0009775162 -0.9999995 0
vn 0.0009775162 -0.9999995 0
vn -0.0009775162 -0.9999995 0
vn -0.0009775162 -0.9999995 0
vn -0.0009775162 -0.9999995 0
vn -0.0009775162 -0.9999995 0
vn -0.0009775162 -0.9999995 0
vn -0.0009775162 -0.9999995 0
vn -0.0009775162 -0.9999995 0
vn -0.0009775162 -0.9999995 0
vn 0.9999995 0.0009775162 0
vn 0.9999995 -0.0009775162 0
vn 0.9999995 -0.0009775162 0
vn 0.9999995 0.0009775162 0
vn 0.9999995 0.0009775162 0
vn 0.9999995 0.0009775162 0
vn -0.9999995 0.0009775162 0
vn -0.9999995 0.0009775162 0
vn -0.9999995 0.0009775162 0
vn -0.9999995 0.0009775162 0
g Object18_0
f 3/3/3 2/2/2 1/1/1
f 6/6/6 5/5/5 4/4/4
f 9/9/9 8/8/8 7/7/7
f 12/12/12 11/11/11 10/10/10
f 15/15/15 14/14/14 13/13/13
f 18/18/18 17/17/17 16/16/16
f 21/21/21 20/20/20 19/19/19
f 24/24/24 23/23/23 22/22/22
f 27/27/27 26/26/26 25/25/25
f 27/27/27 25/25/25 28/28/28
f 31/31/31 30/30/30 29/29/29
f 32/32/32 29/29/29 30/30/30
f 35/35/35 34/34/34 33/33/33
f 36/36/36 33/33/33 34/34/34
f 39/39/39 38/38/38 37/37/37
f 40/40/40 37/37/37 38/38/38
f 43/43/43 42/42/42 41/41/41
f 44/44/44 41/41/41 42/42/42
f 47/47/47 46/46/46 45/45/45
f 47/47/47 45/45/45 48/48/48
f 51/51/51 50/50/50 49/49/49
f 52/52/52 49/49/49 50/50/50
f 55/55/55 54/54/54 53/53/53
f 55/55/55 56/56/56 54/54/54
f 59/59/59 58/58/58 57/57/57
f 59/59/59 57/57/57 60/60/60
f 63/63/63 62/62/62 61/61/61
f 63/63/63 64/64/64 62/62/62
f 67/67/67 66/66/66 65/65/65
f 68/68/68 65/65/65 66/66/66
f 68/68/68 66/66/66 69/69/69
f 70/70/70 69/69/69 66/66/66
f 73/73/73 72/72/72 71/71/71
f 74/74/74 71/71/71 72/72/72
f 77/77/77 76/76/76 75/75/75
f 78/78/78 75/75/75 76/76/76
f 81/81/81 80/80/80 79/79/79
f 82/82/82 79/79/79 80/80/80
f 85/85/85 84/84/84 83/83/83
f 86/86/86 83/83/83 84/84/84
f 89/89/89 88/88/88 87/87/87
f 90/90/90 87/87/87 88/88/88
f 93/93/93 92/92/92 91/91/91
f 94/94/94 91/91/91 92/92/92
f 97/97/97 96/96/96 95/95/95
f 97/97/97 95/95/95 98/98/98
f 101/101/101 100/100/100 99/99/99
f 102/102/102 99/99/99 100/100/100
f 105/105/105 104/104/104 103/103/103
f 106/106/106 103/103/103 104/104/104
f 109/109/109 108/108/108 107/107/107
f 110/110/110 107/107/107 108/108/108
f 113/113/113 112/112/112 111/111/111
f 114/114/114 111/111/111 112/112/112
f 117/117/117 116/116/116 115/115/115
f 118/118/118 115/115/115 116/116/116
f 121/121/121 120/120/120 119/119/119
f 122/122/122 119/119/119 120/120/120
f 125/125/125 124/124/124 123/123/123
f 126/126/126 123/123/123 124/124/124
f 126/126/126 127/127/127 123/123/123
f 128/128/128 123/123/123 127/127/127
f 131/131/131 130/130/130 129/129/129
f 132/132/132 129/129/129 130/130/130
