g Object25
v -30.31702 -26.37978 -1.181198
v -31.10452 -26.37978 0.3937263
v -30.31702 -26.37978 0.3937263
v -31.10452 -26.37978 -1.181198
v -21.65502 -26.37978 -1.181198
v -21.65502 -25.59228 0.3937263
v -21.65502 -26.37978 0.3937263
v -21.65502 -25.59228 -1.181198
v -20.08009 -25.59228 -1.181198
v -20.08009 -27.16721 0.3937263
v -20.08009 -25.59228 0.3937263
v -20.08009 -27.16721 -1.181198
v -30.31702 -24.80485 -1.181198
v -30.31702 -26.37978 0.3937263
v -30.31702 -24.80485 0.3937263
v -30.31702 -26.37978 -1.181198
v -21.65502 -25.59228 -1.181198
v -20.08009 -25.59228 0.3937263
v -21.65502 -25.59228 0.3937263
v -20.08009 -25.59228 -1.181198
v -20.08009 -27.16721 -1.181198
v -21.65502 -27.16721 0.3937263
v -20.08009 -27.16721 0.3937263
v -21.65502 -27.16721 -1.181198
v -30.31702 -26.37978 0.3937263
v -31.89195 -24.80485 0.3937263
v -30.31702 -24.80485 0.3937263
v -31.89195 -26.37978 0.3937263
v -20.08009 -27.16721 0.3937263
v -21.65502 -25.59228 0.3937263
v -20.08009 -25.59228 0.3937263
v -21.65502 -27.16721 0.3937263
v -31.89195 -24.80485 -1.181198
v -30.31702 -24.80485 0.3937263
v -31.89195 -24.80485 0.3937263
v -30.31702 -24.80485 -1.181198
v -16.9303 -17.71777 1.18116
v -18.50523 -16.14285 1.18116
v -16.9303 -16.14285 1.18116
v -18.50523 -17.71777 1.18116
v -18.50523 -16.14285 -1.181198
v -16.9303 -16.14285 1.18116
v -18.50523 -16.14285 1.18116
v -16.9303 -16.14285 -1.181198
v -16.9303 -17.71777 -1.181198
v -18.50523 -17.71777 1.18116
v -16.9303 -17.71777 1.18116
v -18.50523 -17.71777 -1.181198
v -18.50523 -17.71777 -1.181198
v -18.50523 -16.14285 1.18116
v -18.50523 -17.71777 1.18116
v -18.50523 -16.14285 -1.181198
v 20.86757 25.5923 1.18116
v 19.29264 27.16717 1.18116
v 20.86757 27.16717 1.18116
v 19.29264 25.5923 1.18116
v 25.59228 22.44245 1.18116
v 24.01735 24.80481 1.18116
v 25.59228 24.80481 1.18116
v 24.01735 22.44245 1.18116
v 24.01735 24.80481 -0.3937054
v 25.59228 24.80481 1.18116
v 24.01735 24.80481 1.18116
v 25.59228 24.80481 -0.3937054
v 25.59228 24.80481 -0.3937054
v 25.59228 22.44245 1.18116
v 25.59228 24.80481 1.18116
v 25.59228 22.44245 -0.3937054
v 24.01735 22.44245 -0.3937054
v 24.01735 24.80481 1.18116
v 24.01735 22.44245 1.18116
v 24.01735 24.80481 -0.3937054
v 25.59228 22.44245 -0.3937054
v 24.01735 22.44245 1.18116
v 25.59228 22.44245 1.18116
v 24.01735 22.44245 -0.3937054
v 19.29264 27.16717 -0.3937054
v 20.86757 27.16717 1.18116
v 19.29264 27.16717 1.18116
v 20.86757 27.16717 -0.3937054
v 20.86757 25.5923 -0.3937054
v 19.29264 25.5923 1.18116
v 20.86757 25.5923 1.18116
v 19.29264 25.5923 -0.3937054
v 20.86757 27.16717 -0.3937054
v 20.86757 25.5923 1.18116
v 20.86757 27.16717 1.18116
v 20.86757 25.5923 -0.3937054
v 31.89193 25.5923 1.18116
v 30.317 27.16717 1.18116
v 31.89193 27.16717 1.18116
v 30.317 25.5923 1.18116
v 30.317 27.16717 -0.3937054
v 31.89193 27.16717 1.18116
v 30.317 27.16717 1.18116
v 31.89193 27.16717 -0.3937054
v 31.89193 25.5923 -0.3937054
v 30.317 25.5923 1.18116
v 31.89193 25.5923 1.18116
v 30.317 25.5923 -0.3937054
v 31.89193 27.16717 -0.3937054
v 31.89193 25.5923 1.18116
v 31.89193 27.16717 1.18116
v 31.89193 25.5923 -0.3937054
v 30.317 25.5923 -0.3937054
v 30.317 27.16717 1.18116
v 30.317 25.5923 1.18116
v 30.317 27.16717 -0.3937054
v -16.9303 -21.655 1.18116
v -19.29266 -20.08013 1.18116
v -16.9303 -20.08013 1.18116
v -19.29266 -21.655 1.18116
v -19.29266 -21.655 -1.181198
v -19.29266 -20.08013 1.18116
v -19.29266 -21.655 1.18116
v -19.29266 -20.08013 -1.181198
v -19.29266 -20.08013 -1.181198
v -16.9303 -20.08013 1.18116
v -19.29266 -20.08013 1.18116
v -16.9303 -20.08013 -1.181198
v -16.9303 -21.655 -1.181198
v -19.29266 -21.655 1.18116
v -16.9303 -21.655 1.18116
v -19.29266 -21.655 -1.181198
vt -26.99999 41.99998
vt -28.00002 44
vt -26.99999 44
vt -28.00002 41.99998
vt 71 41.99998
vt 70 44
vt 71 44
vt 70 41.99998
vt 30 41.99998
vt 28 44
vt 30 44
vt 28 41.99998
vt 31 41.99998
vt 29 44
vt 31 44
vt 29 41.99998
vt 116 41.99998
vt 114 44
vt 116 44
vt 114 41.99998
vt -13.99998 41.99998
vt -15.99998 44
vt -13.99998 44
vt -15.99998 41.99998
vt -26.99999 29
vt -29 31
vt -26.99999 31
vt -29 29
vt -13.99998 28
vt -15.99998 30
vt -13.99998 30
vt -15.99998 28
vt 129 41.99998
vt 127 44
vt 129 44
vt 127 41.99998
vt -9.999989 40.00001
vt -11.99999 42.00001
vt -9.999989 42.00001
vt -11.99999 40.00001
vt 112 41.99998
vt 110 45
vt 112 45
vt 110 41.99998
vt -9.999989 41.99998
vt -11.99999 45
vt -9.999989 45
vt -11.99999 41.99998
vt 60 41.99998
vt 58 45
vt 60 45
vt 58 41.99998
vt 38.00003 95
vt 36.00003 97
vt 38.00003 97
vt 36.00003 95
vt 44 90.99998
vt 42.00001 93.99997
vt 44 93.99997
vt 42.00001 90.99998
vt 58 42.99999
vt 56 45
vt 58 45
vt 56 42.99999
vt 93.99997 42.99999
vt 90.99998 45
vt 93.99997 45
vt 90.99998 42.99999
vt 9.000027 42.99999
vt 6.000034 45
vt 9.000027 45
vt 6.000034 42.99999
vt 44 42.99999
vt 42.00001 45
vt 44 45
vt 42.00001 42.99999
vt 63.99998 42.99999
vt 62 45
vt 63.99998 45
vt 62 42.99999
vt 38.00003 42.99999
vt 36.00003 45
vt 38.00003 45
vt 36.00003 42.99999
vt 97 42.99999
vt 95 45
vt 97 45
vt 95 42.99999
vt 52.00001 95
vt 50.00001 97
vt 52.00001 97
vt 50.00001 95
vt 50.00001 42.99999
vt 48 45
vt 50.00001 45
vt 48 42.99999
vt 52.00001 42.99999
vt 50.00001 45
vt 52.00001 45
vt 50.00001 42.99999
vt 97 42.99999
vt 95 45
vt 97 45
vt 95 42.99999
vt 5.000034 42.99999
vt 3.000031 45
vt 5.000034 45
vt 3.000031 42.99999
vt -9.999989 35.00002
vt -13.00001 37.00003
vt -9.999989 37.00003
vt -13.00001 35.00002
vt 65 41.99998
vt 62.99999 45
vt 65 45
vt 62.99999 41.99998
vt 113 41.99998
vt 110 45
vt 113 45
vt 110 41.99998
vt -9.999989 41.99998
vt -13.00001 45
vt -9.999989 45
vt -13.00001 41.99998
vn -0.0009775162 -0.9999995 0
vn -0.0009775162 -0.9999995 0
vn -0.0009775162 -0.9999995 0
vn -0.0009775162 -0.9999995 0
vn -0.9999995 0.0009775162 0
vn -0.9999995 0.0009775162 0
vn -0.9999995 0.0009775162 0
vn -0.9999995 0.0009775162 0
vn 0.9999995 0.0009775162 0
vn 0.9999995 0.0009775162 0
vn 0.9999995 0.0009775162 0
vn 0.9999995 0.0009775162 0
vn 0.9999995 0.0009775162 0
vn 0.9999995 0.0009775162 0
vn 0.9999995 0.0009775162 0
vn 0.9999995 0.0009775162 0
vn -0.0009775162 0.9999995 0
vn -0.0009775162 0.9999995 0
vn -0.0009775162 0.9999995 0
vn -0.0009775162 0.9999995 0
vn -0.0009775162 -0.9999995 0
vn -0.0009775162 -0.9999995 0
vn -0.0009775162 -0.9999995 0
vn -0.0009775162 -0.9999995 0
vn -0.0009775162 0.0009775162 0.999999
vn -0.0009775162 0.0009775162 0.999999
vn -0.0009775162 0.0009775162 0.999999
vn -0.0009775162 0.0009775162 0.999999
vn -0.0009775162 0.0009775162 0.999999
vn -0.0009775162 0.0009775162 0.999999
vn -0.0009775162 0.0009775162 0.999999
vn -0.0009775162 0.0009775162 0.999999
vn -0.0009775162 0.9999995 0
vn -0.0009775162 0.9999995 0
vn -0.0009775162 0.9999995 0
vn -0.0009775162 0.9999995 0
vn -0.0009775162 0.0009775162 0.999999
vn -0.0009775162 0.0009775162 0.999999
vn -0.0009775162 0.0009775162 0.999999
vn -0.0009775162 0.0009775162 0.999999
vn -0.0009775162 0.9999995 0
vn -0.0009775162 0.9999995 0
vn -0.0009775162 0.9999995 0
vn -0.0009775162 0.9999995 0
vn -0.0009775162 -0.9999995 0
vn -0.0009775162 -0.9999995 0
vn -0.0009775162 -0.9999995 0
vn -0.0009775162 -0.9999995 0
vn -0.9999995 0.0009775162 0
vn -0.9999995 0.0009775162 0
vn -0.9999995 0.0009775162 0
vn -0.9999995 0.0009775162 0
vn -0.0009775162 0.0009775162 0.999999
vn -0.0009775162 0.0009775162 0.999999
vn -0.0009775162 0.0009775162 0.999999
vn -0.0009775162 0.0009775162 0.999999
vn -0.0009775162 0.0009775162 0.999999
vn -0.0009775162 0.0009775162 0.999999
vn -0.0009775162 0.0009775162 0.999999
vn -0.0009775162 0.0009775162 0.999999
vn -0.0009775162 0.9999995 0
vn -0.0009775162 0.9999995 0
vn -0.0009775162 0.9999995 0
vn -0.0009775162 0.9999995 0
vn 0.9999995 0.0009775162 0
vn 0.9999995 0.0009775162 0
vn 0.9999995 0.0009775162 0
vn 0.9999995 0.0009775162 0
vn -0.9999995 0.0009775162 0
vn -0.9999995 0.0009775162 0
vn -0.9999995 0.0009775162 0
vn -0.9999995 0.0009775162 0
vn -0.0009775162 -0.9999995 0
vn -0.0009775162 -0.9999995 0
vn -0.0009775162 -0.9999995 0
vn -0.0009775162 -0.9999995 0
vn -0.0009775162 0.9999995 0
vn -0.0009775162 0.9999995 0
vn -0.0009775162 0.9999995 0
vn -0.0009775162 0.9999995 0
vn -0.0009775162 -0.9999995 0
vn -0.0009775162 -0.9999995 0
vn -0.0009775162 -0.9999995 0
vn -0.0009775162 -0.9999995 0
vn 0.9999995 0.0009775162 0
vn 0.9999995 0.0009775162 0
vn 0.9999995 0.0009775162 0
vn 0.9999995 0.0009775162 0
vn -0.0009775162 0.0009775162 0.999999
vn -0.0009775162 0.0009775162 0.999999
vn -0.0009775162 0.0009775162 0.999999
vn -0.0009775162 0.0009775162 0.999999
vn -0.0009775162 0.9999995 0
vn -0.0009775162 0.9999995 0
vn -0.0009775162 0.9999995 0
vn -0.0009775162 0.9999995 0
vn -0.0009775162 -0.9999995 0
vn -0.0009775162 -0.9999995 0
vn -0.0009775162 -0.9999995 0
vn -0.0009775162 -0.9999995 0
vn 0.9999995 0.0009775162 0
vn 0.9999995 0.0009775162 0
vn 0.9999995 0.0009775162 0
vn 0.9999995 0.0009775162 0
vn -0.9999995 0.0009775162 0
vn -0.9999995 0.0009775162 0
vn -0.9999995 0.0009775162 0
vn -0.9999995 0.0009775162 0
vn -0.0009775162 0.0009775162 0.999999
vn -0.0009775162 0.0009775162 0.999999
vn -0.0009775162 0.0009775162 0.999999
vn -0.0009775162 0.0009775162 0.999999
vn -0.9999995 0.0009775162 0
vn -0.9999995 0.0009775162 0
vn -0.9999995 0.0009775162 0
vn -0.9999995 0.0009775162 0
vn -0.0009775162 0.9999995 0
vn -0.0009775162 0.9999995 0
vn -0.0009775162 0.9999995 0
vn -0.0009775162 0.9999995 0
vn -0.0009775162 -0.9999995 0
vn -0.0009775162 -0.9999995 0
vn -0.0009775162 -0.9999995 0
vn -0.0009775162 -0.9999995 0
g Object25_0
f 3/3/3 2/2/2 1/1/1
f 4/4/4 1/1/1 2/2/2
f 7/7/7 6/6/6 5/5/5
f 8/8/8 5/5/5 6/6/6
f 11/11/11 10/10/10 9/9/9
f 12/12/12 9/9/9 10/10/10
f 15/15/15 14/14/14 13/13/13
f 16/16/16 13/13/13 14/14/14
f 19/19/19 18/18/18 17/17/17
f 20/20/20 17/17/17 18/18/18
f 23/23/23 22/22/22 21/21/21
f 24/24/24 21/21/21 22/22/22
f 27/27/27 26/26/26 25/25/25
f 28/28/28 25/25/25 26/26/26
f 31/31/31 30/30/30 29/29/29
f 32/32/32 29/29/29 30/30/30
f 35/35/35 34/34/34 33/33/33
f 36/36/36 33/33/33 34/34/34
f 39/39/39 38/38/38 37/37/37
f 40/40/40 37/37/37 38/38/38
f 43/43/43 42/42/42 41/41/41
f 44/44/44 41/41/41 42/42/42
f 47/47/47 46/46/46 45/45/45
f 48/48/48 45/45/45 46/46/46
f 51/51/51 50/50/50 49/49/49
f 52/52/52 49/49/49 50/50/50
f 55/55/55 54/54/54 53/53/53
f 56/56/56 53/53/53 54/54/54
f 59/59/59 58/58/58 57/57/57
f 60/60/60 57/57/57 58/58/58
f 63/63/63 62/62/62 61/61/61
f 64/64/64 61/61/61 62/62/62
f 67/67/67 66/66/66 65/65/65
f 68/68/68 65/65/65 66/66/66
f 71/71/71 70/70/70 69/69/69
f 72/72/72 69/69/69 70/70/70
f 75/75/75 74/74/74 73/73/73
f 76/76/76 73/73/73 74/74/74
f 79/79/79 78/78/78 77/77/77
f 80/80/80 77/77/77 78/78/78
f 83/83/83 82/82/82 81/81/81
f 84/84/84 81/81/81 82/82/82
f 87/87/87 86/86/86 85/85/85
f 88/88/88 85/85/85 86/86/86
f 91/91/91 90/90/90 89/89/89
f 92/92/92 89/89/89 90/90/90
f 95/95/95 94/94/94 93/93/93
f 96/96/96 93/93/93 94/94/94
f 99/99/99 98/98/98 97/97/97
f 100/100/100 97/97/97 98/98/98
f 103/103/103 102/102/102 101/101/101
f 104/104/104 101/101/101 102/102/102
f 107/107/107 106/106/106 105/105/105
f 108/108/108 105/105/105 106/106/106
f 111/111/111 110/110/110 109/109/109
f 112/112/112 109/109/109 110/110/110
f 115/115/115 114/114/114 113/113/113
f 116/116/116 113/113/113 114/114/114
f 119/119/119 118/118/118 117/117/117
f 120/120/120 117/117/117 118/118/118
f 123/123/123 122/122/122 121/121/121
f 124/124/124 121/121/121 122/122/122
