g Object24
v 18.5052 57.0905 -1.968638
v 20.86756 57.0905 -0.3937276
v 18.5052 57.0905 -0.3937276
v 20.86756 57.0905 -1.968638
v 22.44247 54.72814 1.968638
v 24.01739 54.72814 3.543548
v 22.44247 54.72814 3.543548
v 24.01739 54.72814 1.968638
v 24.01739 54.72814 3.543548
v 24.01739 53.94068 1.968638
v 24.01739 53.94068 3.543548
v 24.01739 54.72814 1.968638
v 24.01739 54.72814 1.968638
v 22.44247 53.94068 1.968638
v 24.01739 53.94068 1.968638
v 22.44247 54.72814 1.968638
v 22.44247 54.72814 3.543548
v 24.01739 53.94068 3.543548
v 22.44247 53.94068 3.543548
v 24.01739 54.72814 3.543548
v 22.44247 54.72814 1.968638
v 22.44247 53.94068 3.543548
v 22.44247 53.94068 1.968638
v 22.44247 54.72814 3.543548
v 18.5052 57.0905 -0.3937276
v 20.86756 57.0905 0.3937276
v 18.5052 57.0905 0.3937276
v 20.86756 57.0905 -0.3937276
vt 0 1
vt 3 -1
vt 0 -1
vt 3 1
vt 0 1
vt 2 -1
vt 0 -1
vt 2 1
vt -1 1
vt 1 0
vt -1 0
vt 1 1
vt -1 1
vt 1 0
vt -1 0
vt 1 1
vt 0 1
vt 2 0
vt 0 0
vt 2 1
vt 0 1
vt 2 0
vt 0 0
vt 2 1
vt 0 1
vt 3 0
vt 0 0
vt 3 1
vn 0 1 0
vn 0 1 0
vn 0 1 0
vn 0 1 0
vn 0 1 0
vn 0 1 0
vn 0 1 0
vn 0 1 0
vn 1 0 0
vn 1 0 0
vn 1 0 0
vn 1 0 0
vn 0 0 -1
vn 0 0 -1
vn 0 0 -1
vn 0 0 -1
vn 0 0 1
vn 0 0 1
vn 0 0 1
vn 0 0 1
vn -1 0 0
vn -1 0 0
vn -1 0 0
vn -1 0 0
vn 0 1 0
vn 0 1 0
vn 0 1 0
vn 0 1 0
g Object24_0
f 3/3/3 2/2/2 1/1/1
f 4/4/4 1/1/1 2/2/2
f 7/7/7 6/6/6 5/5/5
f 8/8/8 5/5/5 6/6/6
f 11/11/11 10/10/10 9/9/9
f 12/12/12 9/9/9 10/10/10
f 15/15/15 14/14/14 13/13/13
f 16/16/16 13/13/13 14/14/14
f 19/19/19 18/18/18 17/17/17
f 20/20/20 17/17/17 18/18/18
f 23/23/23 22/22/22 21/21/21
f 24/24/24 21/21/21 22/22/22
f 27/27/27 26/26/26 25/25/25
f 28/28/28 25/25/25 26/26/26
