g shell
v -0.3879163 0.01216123 -0.1137798
v -0.3879163 0.02007194 -0.1201101
v -0.3879163 0.01471686 -0.1184708
v -0.3879163 0.02502351 -0.1174788
v -0.3879163 0.01372486 -0.1081641
v -0.3879163 0.02658714 -0.1118631
v -0.3879163 0.01866803 -0.1055328
v -0.3879163 0.0240315 -0.1071721
v -0.4307989 0.02003832 -0.1201353
v -0.4307989 0.01212759 -0.113721
v -0.4307989 0.01467483 -0.1184624
v -0.4307989 0.01372486 -0.1081221
v -0.4307989 0.02501509 -0.1175208
v -0.4307989 0.02661237 -0.1119219
v -0.4307989 0.01870164 -0.1055076
v -0.4307989 0.02407354 -0.1071721
v -0.3879163 0.01372486 -0.1081641
v -0.4307989 0.01212759 -0.113721
v -0.4307989 0.01372486 -0.1081221
v -0.4307989 0.01870164 -0.1055076
v -0.3879163 0.01216123 -0.1137798
v -0.3879163 0.01866803 -0.1055328
v -0.4307989 0.01467483 -0.1184624
v -0.3879163 0.01471686 -0.1184708
v -0.3879163 0.0240315 -0.1071721
v -0.4307989 0.02407354 -0.1071721
v -0.4307989 0.02661237 -0.1119219
v -0.3879163 0.02658714 -0.1118631
v -0.4307989 0.02501509 -0.1175208
v -0.3879163 0.02502351 -0.1174788
v -0.4307989 0.02003832 -0.1201353
v -0.3879163 0.02007194 -0.1201101
vt 0.433652 0.04178932
vt 0.4555437 0.02372861
vt 0.4407668 0.02865426
vt 0.4697734 0.03084343
vt 0.4385776 0.05711356
vt 0.4741517 0.04616767
vt 0.45226 0.06422838
vt 0.4670369 0.05985003
vt 0.4555437 0.02372861
vt 0.4741517 0.04616767
vt 0.4697734 0.03084343
vt 0.4670369 0.05985003
vt 0.4407668 0.02865426
vt 0.433652 0.04178932
vt 0.45226 0.06422838
vt 0.4385776 0.05711356
vt 0.4916652 0.05766085
vt 0.5814214 0.04616767
vt 0.5814214 0.05766085
vt 0.5814214 0.06970132
vt 0.4916652 0.04671497
vt 0.4916652 0.07024862
vt 0.5814214 0.0335799
vt 0.4916652 0.0341272
vt 0.4916652 0.05766085
vt 0.5814214 0.05766085
vt 0.5814214 0.04616767
vt 0.4916652 0.04671497
vt 0.5814214 0.0335799
vt 0.4916652 0.0341272
vt 0.5814214 0.02153943
vt 0.4916652 0.02153943
vn 0.9999924 0.003921509 0
vn 0.9999924 0.003921509 0
vn 0.9999924 0.003921509 0
vn 0.9999924 0.003921509 0
vn 0.9999924 0.003921509 0
vn 0.9999924 0.003921509 0
vn 0.9999924 0.003921509 0
vn 0.9999924 0.003921509 0
vn -0.9999923 0.003921509 -0.0003449296
vn -0.9999923 0.003921509 -0.0003449296
vn -0.9999923 0.003921509 -0.0003449296
vn -0.9999923 0.003921509 -0.0003449296
vn -0.9999923 0.003921509 -0.0003449296
vn -0.9999923 0.003921509 -0.0003449296
vn -0.9999923 0.003921509 -0.0003449296
vn -0.9999923 0.003921509 -0.0003449296
vn 0.003921568 -0.7803862 0.6252855
vn 0.003921568 -0.9921493 -0.1249976
vn 0.003921568 -0.7725431 0.6349502
vn 0.003921568 -0.09019542 0.9959164
vn 0.003921568 -0.9921493 -0.1249976
vn 0.003921568 -0.09803849 0.9951749
vn 0.003921568 -0.6392108 -0.7690216
vn 0.003921568 -0.6313677 -0.7754737
vn 0.003921568 0.6313677 0.7754737
vn 0.003921568 0.6392107 0.7690216
vn 0.003921568 0.9921492 0.1249981
vn 0.003921568 0.9921492 0.1249981
vn 0.003921568 0.7725431 -0.6349503
vn 0.003921568 0.7803861 -0.6252857
vn 0.003921568 0.0901953 -0.9959164
vn 0.003921568 0.09803843 -0.9951749
g shell_0
f 3/3/3 2/2/2 1/1/1
f 2/2/2 4/4/4 1/1/1
f 4/4/4 5/5/5 1/1/1
f 6/6/6 5/5/5 4/4/4
f 7/7/7 5/5/5 6/6/6
f 8/8/8 7/7/7 6/6/6
f 11/11/11 10/10/10 9/9/9
f 10/10/10 12/12/12 9/9/9
f 12/12/12 13/13/13 9/9/9
f 14/14/14 13/13/13 12/12/12
f 15/15/15 14/14/14 12/12/12
f 16/16/16 14/14/14 15/15/15
f 19/19/19 18/18/18 17/17/17
f 19/19/19 17/17/17 20/20/20
f 21/21/21 17/17/17 18/18/18
f 22/22/22 20/20/20 17/17/17
f 18/18/18 23/23/23 21/21/21
f 24/24/24 21/21/21 23/23/23
f 22/22/22 25/25/25 20/20/20
f 26/26/26 20/20/20 25/25/25
f 26/26/26 25/25/25 27/27/27
f 28/28/28 27/27/27 25/25/25
f 27/27/27 28/28/28 29/29/29
f 30/30/30 29/29/29 28/28/28
f 23/23/23 31/31/31 24/24/24
f 29/29/29 30/30/30 31/31/31
f 32/32/32 24/24/24 31/31/31
f 32/32/32 31/31/31 30/30/30
