g Book_Occultism
v -0.09766573 0.05817109 -0.1377642
v -0.09766573 0.05817107 0.1377642
v -0.1012396 0.03357472 0.1377642
v -0.1012396 0.03357475 -0.1377642
v -0.09766573 0.006457527 0.1377642
v -0.0976657 0.006457554 -0.1377642
v -0.08909202 0.06462862 -0.1377642
v 0.1012396 1.204373E-08 -0.1377642
v 0.1012397 0.06462862 -0.1377642
v -0.08909202 1.204373E-08 -0.1377642
v -0.09766573 0.05817109 -0.1377642
v -0.1012396 0.03357475 -0.1377642
v -0.0976657 0.006457554 -0.1377642
v -0.0976657 0.006457554 -0.1377642
v -0.09766573 0.006457527 0.1377642
v -0.08909202 -1.204373E-08 0.1377642
v -0.08909202 1.204373E-08 -0.1377642
v 0.1012396 1.204373E-08 -0.1377642
v 0.1012396 -1.204373E-08 0.1377642
v 0.1012396 -1.204373E-08 0.1377642
v 0.1012397 0.0646286 0.1377642
v 0.1012397 0.06462862 -0.1377642
v 0.1012396 1.204373E-08 -0.1377642
v -0.08909202 -1.204373E-08 0.1377642
v 0.1012397 0.0646286 0.1377642
v 0.1012396 -1.204373E-08 0.1377642
v -0.08909202 0.0646286 0.1377642
v -0.09766573 0.006457527 0.1377642
v -0.1012396 0.03357472 0.1377642
v -0.09766573 0.05817107 0.1377642
v -0.08909202 0.0646286 0.1377642
v -0.09766573 0.05817107 0.1377642
v -0.09766573 0.05817109 -0.1377642
v -0.08909202 0.06462862 -0.1377642
v 0.1012397 0.0646286 0.1377642
v 0.1012397 0.06462862 -0.1377642
vt 0.07714844 0.7172852
vt 0.0007481575 0.7172852
vt 0.0007481575 0.7246094
vt 0.07714844 0.7246094
vt 0.0007481575 0.7319336
vt 0.07714844 0.7319336
vt 0.1929932 0.5185547
vt 0.1751709 0.5712891
vt 0.1929932 0.5712891
vt 0.1751709 0.5185547
vt 0.1912842 0.5161133
vt 0.1844482 0.5151367
vt 0.1768799 0.5161133
vt 0.07714844 0.7319336
vt 0.0007481575 0.7319336
vt 0.0007481575 0.7348633
vt 0.07714844 0.7348633
vt 0.07714844 0.7880859
vt 0.0007481575 0.7880859
vt 0.4243164 0.8676758
vt 0.4421387 0.8676758
vt 0.4421387 0.7910156
vt 0.4243164 0.7910156
vt 0.1948242 0.5683594
vt 0.2127686 0.515625
vt 0.1948242 0.515625
vt 0.2127686 0.5683594
vt 0.1966553 0.5708008
vt 0.2041016 0.5717773
vt 0.2109375 0.5708008
vt 0.0007481575 0.7143555
vt 0.0007481575 0.7172852
vt 0.07714844 0.7172852
vt 0.07714844 0.7143555
vt 0.0007481575 0.6616211
vt 0.07714844 0.6616211
vn -0.8603516 0.5097656 0
vn -0.8603516 0.5097656 0
vn -1 0.006626129 0
vn -1 0.006626129 0
vn -0.8637695 -0.5039063 0
vn -0.8637695 -0.5039063 0
vn 0 0 -1
vn 0 0 -1
vn 0 0 -1
vn 0 0 -1
vn 0 0 -1
vn 0 0 -1
vn 0 0 -1
vn -0.8637695 -0.5039063 0
vn -0.8637695 -0.5039063 0
vn -0.3171387 -0.9482422 0
vn -0.3171387 -0.9482422 0
vn 0 -1 0
vn 0 -1 0
vn 1 0 0
vn 1 0 0
vn 1 0 0
vn 1 0 0
vn 0 0 1
vn 0 0 1
vn 0 0 1
vn 0 0 1
vn 0 0 1
vn 0 0 1
vn 0 0 1
vn -0.3171387 0.9482422 0
vn -0.8603516 0.5097656 0
vn -0.8603516 0.5097656 0
vn -0.3171387 0.9482422 0
vn 0 1 0
vn 0 1 0
g Book_Occultism_0
f 3/3/3 2/2/2 1/1/1
f 4/4/4 3/3/3 1/1/1
f 5/5/5 3/3/3 4/4/4
f 6/6/6 5/5/5 4/4/4
f 9/9/9 8/8/8 7/7/7
f 8/8/8 10/10/10 7/7/7
f 7/7/7 10/10/10 11/11/11
f 11/11/11 10/10/10 12/12/12
f 10/10/10 13/13/13 12/12/12
f 16/16/16 15/15/15 14/14/14
f 17/17/17 16/16/16 14/14/14
f 16/16/16 17/17/17 18/18/18
f 19/19/19 16/16/16 18/18/18
f 22/22/22 21/21/21 20/20/20
f 23/23/23 22/22/22 20/20/20
f 26/26/26 25/25/25 24/24/24
f 25/25/25 27/27/27 24/24/24
f 28/28/28 24/24/24 27/27/27
f 29/29/29 28/28/28 27/27/27
f 30/30/30 29/29/29 27/27/27
f 33/33/33 32/32/32 31/31/31
f 34/34/34 33/33/33 31/31/31
f 31/31/31 35/35/35 34/34/34
f 35/35/35 36/36/36 34/34/34
