g Book_TheBlue
v -0.07611991 0.04984374 0.1203175
v -0.07611991 0.04984375 -0.1203175
v 0.08706435 0.04984375 -0.1203175
v 0.08706435 0.04984374 0.1203175
v -0.08543503 0.03859252 -0.1203175
v -0.08393731 0.005887874 0.1203175
v -0.08393727 0.005887898 -0.1203175
v -0.08543503 0.0385925 0.1203175
v -0.07611991 0.04984374 0.1203175
v -0.07611991 0.04984375 -0.1203175
v -0.08393727 0.005887898 -0.1203175
v -0.07611991 1.051849E-08 -0.1203175
v -0.08543503 0.03859252 -0.1203175
v -0.07611991 0.04984375 -0.1203175
v 0.08706435 0.04984375 -0.1203175
v 0.08706435 1.051849E-08 -0.1203175
v 0.08706435 -1.051849E-08 0.1203175
v 0.08706435 0.04984374 0.1203175
v 0.08706435 0.04984375 -0.1203175
v 0.08706435 1.051849E-08 -0.1203175
v -0.08393727 0.005887898 -0.1203175
v -0.08393731 0.005887874 0.1203175
v -0.07611991 -1.051849E-08 0.1203175
v -0.07611991 1.051849E-08 -0.1203175
v 0.08706435 1.051849E-08 -0.1203175
v 0.08706435 -1.051849E-08 0.1203175
v 0.08706435 -1.051849E-08 0.1203175
v -0.07611991 0.04984374 0.1203175
v 0.08706435 0.04984374 0.1203175
v -0.07611991 -1.051849E-08 0.1203175
v -0.08393731 0.005887874 0.1203175
v -0.08543503 0.0385925 0.1203175
vt 0.06945801 0.5991211
vt 0.1361084 0.5991211
vt 0.1361084 0.5537109
vt 0.06945801 0.5537109
vt 0.1361084 0.6030273
vt 0.06945801 0.6123047
vt 0.1361084 0.6123047
vt 0.06945801 0.6030273
vt 0.06945801 0.5991211
vt 0.1361084 0.5991211
vt 0.1072998 0.5043945
vt 0.1056519 0.5063477
vt 0.116333 0.5039063
vt 0.1194458 0.5063477
vt 0.1194458 0.5517578
vt 0.1056519 0.5517578
vt 0.1378174 0.5854492
vt 0.1516113 0.5854492
vt 0.1516113 0.519043
vt 0.1378174 0.519043
vt 0.1361084 0.6123047
vt 0.06945801 0.6123047
vt 0.06945801 0.6152344
vt 0.1361084 0.6152344
vt 0.1361084 0.6601563
vt 0.06945801 0.6601563
vt 0.0690918 0.5029297
vt 0.08294678 0.5483398
vt 0.08294678 0.5029297
vt 0.0690918 0.5483398
vt 0.07073975 0.550293
vt 0.07983398 0.5507813
vn 0 1 0
vn 0 1 0
vn 0 1 0
vn 0 1 0
vn -0.9482422 0.3173828 0
vn -0.9990234 -0.04574585 0
vn -0.9990234 -0.04574585 0
vn -0.9482422 0.3173828 0
vn -0.7705078 0.6376953 0
vn -0.7705078 0.6376953 0
vn 0 0 -1
vn 0 0 -1
vn 0 0 -1
vn 0 0 -1
vn 0 0 -1
vn 0 0 -1
vn 1 0 0
vn 1 0 0
vn 1 0 0
vn 1 0 0
vn -0.6015625 -0.7988281 0
vn -0.6015625 -0.7988281 0
vn -0.3171387 -0.9482422 0
vn -0.3171387 -0.9482422 0
vn 0 -1 0
vn 0 -1 0
vn 0 0 1
vn 0 0 1
vn 0 0 1
vn 0 0 1
vn 0 0 1
vn 0 0 1
g Book_TheBlue_0
f 3/3/3 2/2/2 1/1/1
f 4/4/4 3/3/3 1/1/1
f 7/7/7 6/6/6 5/5/5
f 6/6/6 8/8/8 5/5/5
f 5/5/5 8/8/8 9/9/9
f 10/10/10 5/5/5 9/9/9
f 13/13/13 12/12/12 11/11/11
f 14/14/14 12/12/12 13/13/13
f 14/14/14 15/15/15 12/12/12
f 15/15/15 16/16/16 12/12/12
f 19/19/19 18/18/18 17/17/17
f 20/20/20 19/19/19 17/17/17
f 23/23/23 22/22/22 21/21/21
f 24/24/24 23/23/23 21/21/21
f 23/23/23 24/24/24 25/25/25
f 26/26/26 23/23/23 25/25/25
f 29/29/29 28/28/28 27/27/27
f 28/28/28 30/30/30 27/27/27
f 31/31/31 30/30/30 28/28/28
f 32/32/32 31/31/31 28/28/28
