g Book_Math
v 0.08853117 1.051849E-08 -0.1203175
v -0.07765255 -1.051849E-08 0.1203175
v 0.08853117 -1.051849E-08 0.1203175
v -0.07765255 1.051849E-08 -0.1203175
v -0.08546994 0.005887874 0.1203175
v -0.08546993 0.005887898 -0.1203175
v -0.08546994 0.04395587 -0.1203175
v -0.08546993 0.005887898 -0.1203175
v -0.07765255 1.051849E-08 -0.1203175
v -0.07765255 0.04984375 -0.1203175
v 0.08853117 0.04984375 -0.1203175
v 0.08853117 1.051849E-08 -0.1203175
v -0.08546994 0.005887874 0.1203175
v -0.08546993 0.005887898 -0.1203175
v -0.08546994 0.04395587 -0.1203175
v -0.08546994 0.04395586 0.1203175
v -0.07765255 0.04984374 0.1203175
v 0.08853117 0.04984375 -0.1203175
v 0.08853117 0.04984374 0.1203175
v -0.07765255 0.04984375 -0.1203175
v -0.08546994 0.04395586 0.1203175
v -0.08546994 0.04395587 -0.1203175
v 0.08853117 -1.051849E-08 0.1203175
v -0.07765255 0.04984374 0.1203175
v 0.08853117 0.04984374 0.1203175
v -0.07765255 -1.051849E-08 0.1203175
v -0.08546994 0.005887874 0.1203175
v -0.08546994 0.04395586 0.1203175
v 0.08853117 0.04984375 -0.1203175
v 0.08853117 1.051849E-08 -0.1203175
v 0.08853117 -1.051849E-08 0.1203175
v 0.08853117 0.04984374 0.1203175
vt 0.4345703 0.7875977
vt 0.3679199 0.7412109
vt 0.3679199 0.7875977
vt 0.4345703 0.7412109
vt 0.3679199 0.7387695
vt 0.4345703 0.7387695
vt 0.04931641 0.5019531
vt 0.03875732 0.5019531
vt 0.03713989 0.5039063
vt 0.05096436 0.5039063
vt 0.05096436 0.5498047
vt 0.03713989 0.5498047
vt 0.3679199 0.7387695
vt 0.4345703 0.7387695
vt 0.4345703 0.7280273
vt 0.3679199 0.7280273
vt 0.3679199 0.7250977
vt 0.4345703 0.6791992
vt 0.3679199 0.6791992
vt 0.4345703 0.7250977
vt 0.3679199 0.7280273
vt 0.4345703 0.7280273
vt 0.05328369 0.5014648
vt 0.06713867 0.5478516
vt 0.06713867 0.5014648
vt 0.05328369 0.5478516
vt 0.05493164 0.5498047
vt 0.06549072 0.5498047
vt 0.4606934 0.8007813
vt 0.4467773 0.8007813
vt 0.4467773 0.8671875
vt 0.4606934 0.8671875
vn 0 -1 0
vn -0.3171387 -0.9482422 0
vn 0 -1 0
vn -0.3171387 -0.9482422 0
vn -0.6015625 -0.7988281 0
vn -0.6015625 -0.7988281 0
vn 0 0 -1
vn 0 0 -1
vn 0 0 -1
vn 0 0 -1
vn 0 0 -1
vn 0 0 -1
vn -1 0 0
vn -1 0 0
vn -1 0 0
vn -1 0 0
vn -0.3171387 0.9482422 0
vn 0 1 0
vn 0 1 0
vn -0.3171387 0.9482422 0
vn -0.6015625 0.7988281 0
vn -0.6015625 0.7988281 0
vn 0 0 1
vn 0 0 1
vn 0 0 1
vn 0 0 1
vn 0 0 1
vn 0 0 1
vn 1 0 0
vn 1 0 0
vn 1 0 0
vn 1 0 0
g Book_Math_0
f 3/3/3 2/2/2 1/1/1
f 2/2/2 4/4/4 1/1/1
f 2/2/2 5/5/5 4/4/4
f 5/5/5 6/6/6 4/4/4
f 9/9/9 8/8/8 7/7/7
f 10/10/10 9/9/9 7/7/7
f 10/10/10 11/11/11 9/9/9
f 11/11/11 12/12/12 9/9/9
f 15/15/15 14/14/14 13/13/13
f 16/16/16 15/15/15 13/13/13
f 19/19/19 18/18/18 17/17/17
f 18/18/18 20/20/20 17/17/17
f 17/17/17 20/20/20 21/21/21
f 20/20/20 22/22/22 21/21/21
f 25/25/25 24/24/24 23/23/23
f 24/24/24 26/26/26 23/23/23
f 27/27/27 26/26/26 24/24/24
f 28/28/28 27/27/27 24/24/24
f 31/31/31 30/30/30 29/29/29
f 32/32/32 31/31/31 29/29/29
