g Book_Row_Short_D
v -0.05279247 -0.0006123352 0.06494409
v -0.05279236 0.2400227 0.06494413
v -0.05279236 0.2400227 -0.1012396
v -0.05279247 -0.000612297 -0.1012397
v -0.2425037 -0.0006122207 -0.1012397
v -0.1704634 -0.0006122494 -0.1012397
v -0.1704633 0.2312452 -0.1012396
v -0.2425036 0.2312452 -0.1012396
v 0.01304464 0.3195755 0.08225951
v 0.01304464 0.3195755 -0.08092478
v 0.02135872 0.27043 -0.08092479
v 0.02135866 0.2704299 0.08225948
v -0.103356 0.221134 0.08453013
v -0.1033561 -0.0006122875 0.08453009
v -0.1704634 -0.0006122589 0.08453009
v -0.1704634 0.221134 0.08453013
v -0.003057823 0.2416267 -0.08199154
v -0.05287214 0.2399143 -0.0819915
v -0.04460491 -0.0005786514 -0.08199158
v 0.005209408 0.001133776 -0.08199162
v -0.01015862 0.2595876 -0.1012395
v -0.01015862 0.2595876 0.08909206
v 0.07858638 -0.001257544 0.08909198
v 0.07858638 -0.001257515 -0.1012396
v -0.1026361 0.2400227 -0.1012396
v -0.1026361 0.2400227 0.06494413
v -0.1026362 -0.0006123066 0.06494409
v -0.1026362 -0.0006122685 -0.1012396
v -0.2242192 0.2794372 -0.08092479
v -0.2242192 0.2794372 0.08225949
v -0.2159051 0.2302916 0.08225949
v -0.2159051 0.2302916 -0.08092479
v 0.05102589 0.2804038 0.08909206
v 0.05102589 0.2804039 -0.1012396
v 0.1397709 0.01955875 -0.1012397
v 0.1397709 0.01955873 0.08909202
v 0.06821109 0.2224765 -0.1012397
v 0.06821109 0.2224765 0.08237591
v 0.2061797 -0.001757116 0.08237588
v 0.2061797 -0.001757088 -0.1012397
v 0.2061797 -0.001757088 -0.1012397
v 0.2425044 0.02059312 -0.1012397
v 0.1045358 0.2448267 -0.1012397
v 0.06821109 0.2224765 -0.1012397
v -0.2242192 0.2794372 -0.08092479
v -0.2159051 0.2302916 -0.08092479
v 0.02135872 0.27043 -0.08092479
v 0.01304464 0.3195755 -0.08092478
v -0.1026361 0.2400227 0.06494413
v -0.05279236 0.2400227 0.06494413
v -0.05279247 -0.0006123352 0.06494409
v -0.1026362 -0.0006123066 0.06494409
v -0.1026362 -0.0006122685 -0.1012396
v -0.1026362 -0.0006123066 0.06494409
v -0.05279247 -0.0006123352 0.06494409
v -0.05279247 -0.000612297 -0.1012397
v -0.1704634 -0.0006122779 0.06194456
v -0.1704634 -0.0006122494 -0.1012397
v -0.2425037 -0.0006122207 -0.1012397
v -0.2425037 -0.0006122494 0.06194456
v 0.07858638 -0.001257515 -0.1012396
v 0.1397709 0.01955875 -0.1012397
v 0.05102589 0.2804039 -0.1012396
v -0.01015862 0.2595876 -0.1012395
v -0.2159051 0.2302916 0.08225949
v 0.02135866 0.2704299 0.08225948
v 0.02135872 0.27043 -0.08092479
v -0.2159051 0.2302916 -0.08092479
v -0.1704634 -0.0006122779 0.06194456
v -0.1704633 0.2312452 0.06194459
v -0.1704633 0.2312452 -0.1012396
v -0.1704634 -0.0006122494 -0.1012397
v -0.1704634 0.221134 -0.06739686
v -0.1704634 0.221134 0.08453013
v -0.1704634 -0.0006122589 0.08453009
v -0.1704634 -0.0006122303 -0.06739689
v 0.05102589 0.2804038 0.08909206
v -0.01015862 0.2595876 0.08909206
v -0.01015862 0.2595876 -0.1012395
v 0.05102589 0.2804039 -0.1012396
v -0.1033561 -0.0006122875 0.08453009
v -0.1033561 -0.0006122589 -0.06739689
v -0.1704634 -0.0006122303 -0.06739689
v -0.1704634 -0.0006122589 0.08453009
v -0.2425036 0.2312452 -0.1012396
v -0.2425036 0.2312452 0.0619446
v -0.2425037 -0.0006122494 0.06194456
v -0.2425037 -0.0006122207 -0.1012397
v -0.05279236 0.2400227 -0.1012396
v -0.1026361 0.2400227 -0.1012396
v -0.1026362 -0.0006122685 -0.1012396
v -0.05279247 -0.000612297 -0.1012397
v -0.04460491 -0.0005786514 -0.08199158
v -0.04460491 -0.0005787372 0.08419213
v 0.005209408 0.00113369 0.08419213
v 0.005209408 0.001133776 -0.08199162
v 0.06821109 0.2224765 0.08237591
v 0.06821109 0.2224765 -0.1012397
v 0.1045358 0.2448267 -0.1012397
v 0.1045358 0.2448266 0.08237594
v -0.1704634 -0.0006122303 -0.06739689
v -0.1033561 -0.0006122589 -0.06739689
v -0.103356 0.221134 -0.06739686
v -0.1704634 0.221134 -0.06739686
v 0.2061797 -0.001757088 -0.1012397
v 0.2061797 -0.001757116 0.08237588
v 0.2425044 0.02059308 0.08237588
v 0.2425044 0.02059312 -0.1012397
v 0.2425044 0.02059308 0.08237588
v 0.1045358 0.2448266 0.08237594
v 0.1045358 0.2448267 -0.1012397
v 0.2425044 0.02059312 -0.1012397
v -0.05287214 0.2399142 0.08419218
v -0.003057823 0.2416266 0.08419218
v 0.005209408 0.00113369 0.08419213
v -0.04460491 -0.0005787372 0.08419213
v -0.2159051 0.2302916 0.08225949
v -0.2242192 0.2794372 0.08225949
v 0.01304464 0.3195755 0.08225951
v 0.02135866 0.2704299 0.08225948
v 0.05102589 0.2804038 0.08909206
v 0.1397709 0.01955873 0.08909202
v 0.07858638 -0.001257544 0.08909198
v -0.01015862 0.2595876 0.08909206
v 0.01304464 0.3195755 -0.08092478
v 0.01304464 0.3195755 0.08225951
v -0.2242192 0.2794372 0.08225949
v -0.2242192 0.2794372 -0.08092479
v -0.05287214 0.2399143 -0.0819915
v -0.05287214 0.2399142 0.08419218
v -0.04460491 -0.0005787372 0.08419213
v -0.04460491 -0.0005786514 -0.08199158
v -0.1033561 -0.0006122875 0.08453009
v -0.103356 0.221134 0.08453013
v -0.103356 0.221134 -0.06739686
v -0.1033561 -0.0006122589 -0.06739689
v 0.07858638 -0.001257544 0.08909198
v 0.1397709 0.01955873 0.08909202
v 0.1397709 0.01955875 -0.1012397
v 0.07858638 -0.001257515 -0.1012396
v -0.1704633 0.2312452 0.06194459
v -0.1704634 -0.0006122779 0.06194456
v -0.2425037 -0.0006122494 0.06194456
v -0.2425036 0.2312452 0.0619446
v 0.005209408 0.00113369 0.08419213
v -0.003057823 0.2416266 0.08419218
v -0.003057823 0.2416267 -0.08199154
v 0.005209408 0.001133776 -0.08199162
v -0.05287214 0.2399142 0.08419218
v -0.05287214 0.2399143 -0.0819915
v -0.003057823 0.2416267 -0.08199154
v -0.003057823 0.2416266 0.08419218
v 0.1045358 0.2448266 0.08237594
v 0.2425044 0.02059308 0.08237588
v 0.2061797 -0.001757116 0.08237588
v 0.06821109 0.2224765 0.08237591
v -0.1704634 0.221134 0.08453013
v -0.1704634 0.221134 -0.06739686
v -0.103356 0.221134 -0.06739686
v -0.103356 0.221134 0.08453013
v -0.2425036 0.2312452 0.0619446
v -0.2425036 0.2312452 -0.1012396
v -0.1704633 0.2312452 -0.1012396
v -0.1704633 0.2312452 0.06194459
v -0.1026361 0.2400227 0.06494413
v -0.1026361 0.2400227 -0.1012396
v -0.05279236 0.2400227 -0.1012396
v -0.05279236 0.2400227 0.06494413
vt 0.3679199 0.7250977
vt 0.4345703 0.7250977
vt 0.4345703 0.6791992
vt 0.3679199 0.6791992
vt 0.4233398 0.9990234
vt 0.4433594 0.9990234
vt 0.4433594 0.9350586
vt 0.4233398 0.9350586
vt 0.1056519 0.5063477
vt 0.1056519 0.5517578
vt 0.1194458 0.5517578
vt 0.1194458 0.5063477
vt 0.498291 0.7236328
vt 0.4370117 0.7236328
vt 0.4370117 0.7451172
vt 0.498291 0.7451172
vt 0.4606934 0.8007813
vt 0.4467773 0.8007813
vt 0.4467773 0.8671875
vt 0.4606934 0.8671875
vt 0.07714844 0.7880859
vt 0.07714844 0.7348633
vt 0.0007481575 0.7348633
vt 0.0007481575 0.7880859
vt 0.4345703 0.7875977
vt 0.4345703 0.7412109
vt 0.3679199 0.7412109
vt 0.3679199 0.7875977
vt 0.0690918 0.5029297
vt 0.0690918 0.5483398
vt 0.08294678 0.5483398
vt 0.08294678 0.5029297
vt 0.07714844 0.7143555
vt 0.07714844 0.6616211
vt 0.0007481575 0.6616211
vt 0.0007481575 0.7143555
vt 0.2259521 0.7875977
vt 0.2259521 0.7368164
vt 0.1529541 0.7368164
vt 0.1529541 0.7875977
vt 0.1386719 0.6611328
vt 0.1505127 0.6611328
vt 0.1505127 0.5878906
vt 0.1386719 0.5878906
vt 0.1378174 0.5854492
vt 0.1516113 0.5854492
vt 0.1516113 0.519043
vt 0.1378174 0.519043
vt 0.4345703 0.7412109
vt 0.4345703 0.7250977
vt 0.3679199 0.7250977
vt 0.3679199 0.7412109
vt 0.05328369 0.5014648
vt 0.05328369 0.5478516
vt 0.06713867 0.5478516
vt 0.06713867 0.5014648
vt 0.4465332 0.5605469
vt 0.4465332 0.5151367
vt 0.4265137 0.5151367
vt 0.4265137 0.5605469
vt 0.4243164 0.8676758
vt 0.4421387 0.8676758
vt 0.4421387 0.7910156
vt 0.4243164 0.7910156
vt 0.06945801 0.5991211
vt 0.1361084 0.5991211
vt 0.1361084 0.5537109
vt 0.06945801 0.5537109
vt 0.3012695 0.7197266
vt 0.3654785 0.7197266
vt 0.3654785 0.6748047
vt 0.3012695 0.6748047
vt 0.498291 0.7871094
vt 0.498291 0.7451172
vt 0.4370117 0.7451172
vt 0.4370117 0.7871094
vt 0.1929932 0.5185547
vt 0.1751709 0.5185547
vt 0.1751709 0.5712891
vt 0.1929932 0.5712891
vt 0.3630371 0.5576172
vt 0.3630371 0.5151367
vt 0.3444824 0.5151367
vt 0.3444824 0.5576172
vt 0.3654785 0.7875977
vt 0.3654785 0.7421875
vt 0.3012695 0.7421875
vt 0.3012695 0.7875977
vt 0.4606934 0.8007813
vt 0.4467773 0.8007813
vt 0.4467773 0.8671875
vt 0.4606934 0.8671875
vt 0.05328369 0.5014648
vt 0.05328369 0.5478516
vt 0.06713867 0.5478516
vt 0.06713867 0.5014648
vt 0.1617432 0.5200195
vt 0.1617432 0.5712891
vt 0.1734619 0.5712891
vt 0.1734619 0.5200195
vt 0.4238281 0.9321289
vt 0.4423828 0.9321289
vt 0.4423828 0.8706055
vt 0.4238281 0.8706055
vt 0.4645996 0.7993164
vt 0.4645996 0.8500977
vt 0.4763184 0.8500977
vt 0.4763184 0.7993164
vt 0.1529541 0.7226563
vt 0.2259521 0.7226563
vt 0.2259521 0.671875
vt 0.1529541 0.671875
vt 0.4345703 0.7412109
vt 0.4345703 0.7250977
vt 0.3679199 0.7250977
vt 0.3679199 0.7412109
vt 0.06945801 0.5991211
vt 0.06945801 0.6152344
vt 0.1361084 0.6152344
vt 0.1361084 0.5991211
vt 0.07714844 0.7143555
vt 0.0007481575 0.7143555
vt 0.0007481575 0.7348633
vt 0.07714844 0.7348633
vt 0.1361084 0.6601563
vt 0.1361084 0.6152344
vt 0.06945801 0.6152344
vt 0.06945801 0.6601563
vt 0.4345703 0.7875977
vt 0.4345703 0.7412109
vt 0.3679199 0.7412109
vt 0.3679199 0.7875977
vt 0.4370117 0.7236328
vt 0.498291 0.7236328
vt 0.498291 0.6816406
vt 0.4370117 0.6816406
vt 0.1948242 0.5683594
vt 0.2127686 0.5683594
vt 0.2127686 0.515625
vt 0.1948242 0.515625
vt 0.3654785 0.7197266
vt 0.3012695 0.7197266
vt 0.3012695 0.7421875
vt 0.3654785 0.7421875
vt 0.3679199 0.7250977
vt 0.4345703 0.7250977
vt 0.4345703 0.6791992
vt 0.3679199 0.6791992
vt 0.03713989 0.5039063
vt 0.03713989 0.5498047
vt 0.05096436 0.5498047
vt 0.05096436 0.5039063
vt 0.2259521 0.7226563
vt 0.1529541 0.7226563
vt 0.1529541 0.7368164
vt 0.2259521 0.7368164
vt 0.0848999 0.5092773
vt 0.0848999 0.5517578
vt 0.1035156 0.5517578
vt 0.1035156 0.5092773
vt 0.3806152 0.5151367
vt 0.3806152 0.5600586
vt 0.4006348 0.5600586
vt 0.4006348 0.5151367
vt 0.03713989 0.5039063
vt 0.03713989 0.5498047
vt 0.05096436 0.5498047
vt 0.05096436 0.5039063
vn 1 0 0
vn 1 0 0
vn 1 0 0
vn 1 0 0
vn 0 0 -1
vn 0 0 -1
vn 0 0 -1
vn 0 0 -1
vn 0.9858398 0.166748 0
vn 0.9858398 0.166748 0
vn 0.9858398 0.166748 0
vn 0.9858398 0.166748 0
vn 0 0 1
vn 0 0 1
vn 0 0 1
vn 0 0 1
vn 0 0 -1
vn 0 0 -1
vn 0 0 -1
vn 0 0 -1
vn -0.9467773 -0.3220215 0
vn -0.9467773 -0.3220215 0
vn -0.9467773 -0.3220215 0
vn -0.9467773 -0.3220215 0
vn -1 0 0
vn -1 0 0
vn -1 0 0
vn -1 0 0
vn -0.9858398 -0.166748 0
vn -0.9858398 -0.166748 0
vn -0.9858398 -0.166748 0
vn -0.9858398 -0.166748 0
vn 0.9467773 0.3220215 0
vn 0.9467773 0.3220215 0
vn 0.9467773 0.3220215 0
vn 0.9467773 0.3220215 0
vn -0.8515625 -0.5239258 0
vn -0.8515625 -0.5239258 0
vn -0.8515625 -0.5239258 0
vn -0.8515625 -0.5239258 0
vn 0 0 -1
vn 0 0 -1
vn 0 0 -1
vn 0 0 -1
vn 0 0 -1
vn 0 0 -1
vn 0 0 -1
vn 0 0 -1
vn 0 0 1
vn 0 0 1
vn 0 0 1
vn 0 0 1
vn 0 -1 0
vn 0 -1 0
vn 0 -1 0
vn 0 -1 0
vn 0 -1 0
vn 0 -1 0
vn 0 -1 0
vn 0 -1 0
vn 0 0 -1
vn 0 0 -1
vn 0 0 -1
vn 0 0 -1
vn 0.166748 -0.9858398 0
vn 0.166748 -0.9858398 0
vn 0.166748 -0.9858398 0
vn 0.166748 -0.9858398 0
vn 1 0 0
vn 1 0 0
vn 1 0 0
vn 1 0 0
vn -1 0 0
vn -1 0 0
vn -1 0 0
vn -1 0 0
vn -0.3220215 0.9467773 0
vn -0.3220215 0.9467773 0
vn -0.3220215 0.9467773 0
vn -0.3220215 0.9467773 0
vn 0 -1 0
vn 0 -1 0
vn 0 -1 0
vn 0 -1 0
vn -1 0 0
vn -1 0 0
vn -1 0 0
vn -1 0 0
vn 0 0 -1
vn 0 0 -1
vn 0 0 -1
vn 0 0 -1
vn 0.03436279 -0.9995117 0
vn 0.03436279 -0.9995117 0
vn 0.03436279 -0.9995117 0
vn 0.03436279 -0.9995117 0
vn -0.5239258 0.8515625 0
vn -0.5239258 0.8515625 0
vn -0.5239258 0.8515625 0
vn -0.5239258 0.8515625 0
vn 0 0 -1
vn 0 0 -1
vn 0 0 -1
vn 0 0 -1
vn 0.5239258 -0.8515625 0
vn 0.5239258 -0.8515625 0
vn 0.5239258 -0.8515625 0
vn 0.5239258 -0.8515625 0
vn 0.8515625 0.5239258 0
vn 0.8515625 0.5239258 0
vn 0.8515625 0.5239258 0
vn 0.8515625 0.5239258 0
vn 0 0 1
vn 0 0 1
vn 0 0 1
vn 0 0 1
vn 0 0 1
vn 0 0 1
vn 0 0 1
vn 0 0 1
vn 0 0 1
vn 0 0 1
vn 0 0 1
vn 0 0 1
vn -0.166748 0.9858398 0
vn -0.166748 0.9858398 0
vn -0.166748 0.9858398 0
vn -0.166748 0.9858398 0
vn -0.9995117 -0.03436279 0
vn -0.9995117 -0.03436279 0
vn -0.9995117 -0.03436279 0
vn -0.9995117 -0.03436279 0
vn 1 0 0
vn 1 0 0
vn 1 0 0
vn 1 0 0
vn 0.3220215 -0.9467773 0
vn 0.3220215 -0.9467773 0
vn 0.3220215 -0.9467773 0
vn 0.3220215 -0.9467773 0
vn 0 0 1
vn 0 0 1
vn 0 0 1
vn 0 0 1
vn 0.9995117 0.03436279 0
vn 0.9995117 0.03436279 0
vn 0.9995117 0.03436279 0
vn 0.9995117 0.03436279 0
vn -0.03436279 0.9995117 0
vn -0.03436279 0.9995117 0
vn -0.03436279 0.9995117 0
vn -0.03436279 0.9995117 0
vn 0 0 1
vn 0 0 1
vn 0 0 1
vn 0 0 1
vn 0 1 0
vn 0 1 0
vn 0 1 0
vn 0 1 0
vn 0 1 0
vn 0 1 0
vn 0 1 0
vn 0 1 0
vn 0 1 0
vn 0 1 0
vn 0 1 0
vn 0 1 0
g Book_Row_Short_D_0
f 3/3/3 2/2/2 1/1/1
f 4/4/4 3/3/3 1/1/1
f 7/7/7 6/6/6 5/5/5
f 8/8/8 7/7/7 5/5/5
f 11/11/11 10/10/10 9/9/9
f 12/12/12 11/11/11 9/9/9
f 15/15/15 14/14/14 13/13/13
f 16/16/16 15/15/15 13/13/13
f 19/19/19 18/18/18 17/17/17
f 20/20/20 19/19/19 17/17/17
f 23/23/23 22/22/22 21/21/21
f 24/24/24 23/23/23 21/21/21
f 27/27/27 26/26/26 25/25/25
f 28/28/28 27/27/27 25/25/25
f 31/31/31 30/30/30 29/29/29
f 32/32/32 31/31/31 29/29/29
f 35/35/35 34/34/34 33/33/33
f 36/36/36 35/35/35 33/33/33
f 39/39/39 38/38/38 37/37/37
f 40/40/40 39/39/39 37/37/37
f 43/43/43 42/42/42 41/41/41
f 44/44/44 43/43/43 41/41/41
f 47/47/47 46/46/46 45/45/45
f 48/48/48 47/47/47 45/45/45
f 51/51/51 50/50/50 49/49/49
f 52/52/52 51/51/51 49/49/49
f 55/55/55 54/54/54 53/53/53
f 56/56/56 55/55/55 53/53/53
f 59/59/59 58/58/58 57/57/57
f 60/60/60 59/59/59 57/57/57
f 63/63/63 62/62/62 61/61/61
f 64/64/64 63/63/63 61/61/61
f 67/67/67 66/66/66 65/65/65
f 68/68/68 67/67/67 65/65/65
f 71/71/71 70/70/70 69/69/69
f 72/72/72 71/71/71 69/69/69
f 75/75/75 74/74/74 73/73/73
f 76/76/76 75/75/75 73/73/73
f 79/79/79 78/78/78 77/77/77
f 80/80/80 79/79/79 77/77/77
f 83/83/83 82/82/82 81/81/81
f 84/84/84 83/83/83 81/81/81
f 87/87/87 86/86/86 85/85/85
f 88/88/88 87/87/87 85/85/85
f 91/91/91 90/90/90 89/89/89
f 92/92/92 91/91/91 89/89/89
f 95/95/95 94/94/94 93/93/93
f 96/96/96 95/95/95 93/93/93
f 99/99/99 98/98/98 97/97/97
f 100/100/100 99/99/99 97/97/97
f 103/103/103 102/102/102 101/101/101
f 104/104/104 103/103/103 101/101/101
f 107/107/107 106/106/106 105/105/105
f 108/108/108 107/107/107 105/105/105
f 111/111/111 110/110/110 109/109/109
f 112/112/112 111/111/111 109/109/109
f 115/115/115 114/114/114 113/113/113
f 116/116/116 115/115/115 113/113/113
f 119/119/119 118/118/118 117/117/117
f 120/120/120 119/119/119 117/117/117
f 123/123/123 122/122/122 121/121/121
f 124/124/124 123/123/123 121/121/121
f 127/127/127 126/126/126 125/125/125
f 128/128/128 127/127/127 125/125/125
f 131/131/131 130/130/130 129/129/129
f 132/132/132 131/131/131 129/129/129
f 135/135/135 134/134/134 133/133/133
f 136/136/136 135/135/135 133/133/133
f 139/139/139 138/138/138 137/137/137
f 140/140/140 139/139/139 137/137/137
f 143/143/143 142/142/142 141/141/141
f 144/144/144 143/143/143 141/141/141
f 147/147/147 146/146/146 145/145/145
f 148/148/148 147/147/147 145/145/145
f 151/151/151 150/150/150 149/149/149
f 152/152/152 151/151/151 149/149/149
f 155/155/155 154/154/154 153/153/153
f 156/156/156 155/155/155 153/153/153
f 159/159/159 158/158/158 157/157/157
f 160/160/160 159/159/159 157/157/157
f 163/163/163 162/162/162 161/161/161
f 164/164/164 163/163/163 161/161/161
f 167/167/167 166/166/166 165/165/165
f 168/168/168 167/167/167 165/165/165
