g Book_Row_Short_G
v 0.1359752 -0.0006122112 0.02874986
v 0.1359752 -0.0006122112 -0.1000399
v 0.08649151 -0.0006122017 -0.1000399
v 0.08649153 -0.0006122017 0.02874986
v 0.005036907 -0.0006122207 0.08909557
v 0.005036945 0.2520118 0.08909557
v 0.005036983 0.2520119 -0.08719812
v 0.005036945 -0.0006122017 -0.08719814
v 0.08649158 0.1840546 0.02874985
v 0.08649156 0.1840546 -0.1000399
v 0.1359753 0.1840546 -0.1000399
v 0.1359753 0.1840546 0.02874985
v 0.02488806 -0.0003771114 -0.1000399
v 0.08359121 0.004758749 -0.10004
v 0.06157362 0.2564215 -0.1000399
v 0.002870445 0.2512857 -0.1000399
v -0.1018388 0.2033815 -0.1000399
v -0.1018388 0.2033815 0.04292335
v -0.1018388 -0.0006121826 0.04292335
v -0.1018388 -0.0006121445 -0.1000398
v 0.2025914 -0.0006122207 -0.1000399
v 0.2025914 -0.0006122398 0.04760173
v 0.2452413 -0.0006122589 0.04760173
v 0.2452413 -0.0006122398 -0.10004
v 0.1356366 0.2211341 -0.1000399
v 0.1356365 0.2211341 0.05188708
v 0.1356365 -0.0006121826 0.05188708
v 0.1356365 -0.0006121635 -0.1000399
v -0.1495119 0.2033815 0.05319189
v -0.1495119 0.2033815 -0.08977137
v -0.1010957 0.2033815 -0.08977135
v -0.1010957 0.2033815 0.05319191
v -0.05389042 0.2520119 -0.08719812
v -0.05389042 0.2520119 0.08909561
v -0.05389046 -0.0006122112 0.08909559
v -0.05389046 -0.0006121921 -0.08719814
v -0.1975681 0.2033815 0.04292334
v -0.1975681 0.2033815 -0.1000399
v -0.1491519 0.2033815 -0.1000399
v -0.1491519 0.2033815 0.04292335
v 0.2027439 0.2211341 0.05188706
v 0.2027439 -0.0006122112 0.05188706
v 0.1356365 -0.0006121826 0.05188708
v 0.1356365 0.2211341 0.05188708
v 0.005036945 0.2520118 0.08909557
v 0.005036907 -0.0006122207 0.08909557
v -0.05389046 -0.0006122112 0.08909559
v -0.05389042 0.2520119 0.08909561
v 0.002870445 0.2512857 -0.1000399
v 0.002870388 0.2512856 0.07625376
v 0.02488798 -0.0003771496 0.07625379
v 0.02488806 -0.0003771114 -0.1000399
v -0.05342262 -0.0006122303 0.04292335
v -0.05342262 -0.0006121921 -0.1000398
v -0.1018388 -0.0006121445 -0.1000398
v -0.1018388 -0.0006121826 0.04292335
v -0.1010957 -0.0006122207 0.05319191
v -0.1010957 -0.0006121921 -0.08977128
v -0.1495119 -0.0006121445 -0.08977129
v -0.1495119 -0.0006121731 0.05319189
v -0.1491519 0.2033815 -0.1000399
v -0.1975681 0.2033815 -0.1000399
v -0.1975681 -0.0006121445 -0.1000398
v -0.1491519 -0.0006121826 -0.1000398
v -0.2452412 0.2033815 -0.07816003
v -0.2452412 0.2033815 0.06480324
v -0.2452412 -0.0006121635 0.06480324
v -0.2452412 -0.0006121445 -0.07815997
v 0.06157352 0.2564215 0.07625376
v 0.08359113 0.004758673 0.07625376
v 0.02488798 -0.0003771496 0.07625379
v 0.002870388 0.2512856 0.07625376
v 0.2025914 -0.0006122207 -0.1000399
v 0.2452413 -0.0006122398 -0.10004
v 0.2452414 0.2148794 -0.10004
v 0.2025915 0.2148794 -0.10004
v -0.196825 0.2033815 0.06480323
v -0.196825 0.2033815 -0.07816003
v -0.196825 -0.0006121921 -0.07815997
v -0.196825 -0.0006122112 0.06480323
v -0.1018388 0.2033815 0.04292335
v -0.1018388 0.2033815 -0.1000399
v -0.05342262 0.2033815 -0.1000399
v -0.05342262 0.2033815 0.04292335
v 0.08359113 0.004758673 0.07625376
v 0.06157352 0.2564215 0.07625376
v 0.06157362 0.2564215 -0.1000399
v 0.08359121 0.004758749 -0.10004
v 0.1356365 -0.0006121635 -0.1000399
v 0.2027439 -0.0006121921 -0.1000399
v 0.2027439 0.2211341 -0.1000399
v 0.1356366 0.2211341 -0.1000399
v -0.196825 0.2033815 -0.07816003
v -0.2452412 0.2033815 -0.07816003
v -0.2452412 -0.0006121445 -0.07815997
v -0.196825 -0.0006121921 -0.07815997
v 0.08649151 -0.0006122017 -0.1000399
v 0.1359752 -0.0006122112 -0.1000399
v 0.1359753 0.1840546 -0.1000399
v 0.08649156 0.1840546 -0.1000399
v 0.2452414 0.2148793 0.04760173
v 0.2452413 -0.0006122589 0.04760173
v 0.2025914 -0.0006122398 0.04760173
v 0.2025915 0.2148794 0.04760173
v 0.08649156 0.1840546 -0.1000399
v 0.08649158 0.1840546 0.02874985
v 0.08649153 -0.0006122017 0.02874986
v 0.08649151 -0.0006122017 -0.1000399
v 0.002870388 0.2512856 0.07625376
v 0.002870445 0.2512857 -0.1000399
v 0.06157362 0.2564215 -0.1000399
v 0.06157352 0.2564215 0.07625376
v -0.1491519 0.2033815 0.04292335
v -0.1491519 0.2033815 -0.1000399
v -0.1491519 -0.0006121826 -0.1000398
v -0.1491519 -0.0006122112 0.04292335
v -0.1975681 0.2033815 0.04292334
v -0.1491519 0.2033815 0.04292335
v -0.1491519 -0.0006122112 0.04292335
v -0.1975681 -0.0006121731 0.04292334
v -0.2452412 0.2033815 0.06480324
v -0.196825 0.2033815 0.06480323
v -0.196825 -0.0006122112 0.06480323
v -0.2452412 -0.0006121635 0.06480324
v -0.1018388 0.2033815 0.04292335
v -0.05342262 0.2033815 0.04292335
v -0.05342262 -0.0006122303 0.04292335
v -0.1018388 -0.0006121826 0.04292335
v -0.2452412 0.2033815 0.06480324
v -0.2452412 0.2033815 -0.07816003
v -0.196825 0.2033815 -0.07816003
v -0.196825 0.2033815 0.06480323
v -0.196825 -0.0006122112 0.06480323
v -0.196825 -0.0006121921 -0.07815997
v -0.2452412 -0.0006121445 -0.07815997
v -0.2452412 -0.0006121635 0.06480324
v -0.1495119 0.2033815 -0.08977137
v -0.1495119 0.2033815 0.05319189
v -0.1495119 -0.0006121731 0.05319189
v -0.1495119 -0.0006121445 -0.08977129
v 0.1356365 0.2211341 0.05188708
v 0.1356366 0.2211341 -0.1000399
v 0.2027439 0.2211341 -0.1000399
v 0.2027439 0.2211341 0.05188706
v -0.05389046 -0.0006121921 -0.08719814
v 0.005036945 -0.0006122017 -0.08719814
v 0.005036983 0.2520119 -0.08719812
v -0.05389042 0.2520119 -0.08719812
v 0.2025915 0.2148794 -0.10004
v 0.2025915 0.2148794 0.04760173
v 0.2025914 -0.0006122398 0.04760173
v 0.2025914 -0.0006122207 -0.1000399
v 0.2027439 -0.0006122112 0.05188706
v 0.2027439 -0.0006121921 -0.1000399
v 0.1356365 -0.0006121635 -0.1000399
v 0.1356365 -0.0006121826 0.05188708
v -0.1975681 0.2033815 -0.1000399
v -0.1975681 0.2033815 0.04292334
v -0.1975681 -0.0006121731 0.04292334
v -0.1975681 -0.0006121445 -0.1000398
v -0.1495119 0.2033815 0.05319189
v -0.1010957 0.2033815 0.05319191
v -0.1010957 -0.0006122207 0.05319191
v -0.1495119 -0.0006121731 0.05319189
v -0.05389046 -0.0006121921 -0.08719814
v -0.05389046 -0.0006122112 0.08909559
v 0.005036907 -0.0006122207 0.08909557
v 0.005036945 -0.0006122017 -0.08719814
v 0.2452414 0.2148794 -0.10004
v 0.2452414 0.2148793 0.04760173
v 0.2025915 0.2148794 0.04760173
v 0.2025915 0.2148794 -0.10004
v -0.1010957 0.2033815 0.05319191
v -0.1010957 0.2033815 -0.08977135
v -0.1010957 -0.0006121921 -0.08977128
v -0.1010957 -0.0006122207 0.05319191
v 0.2027439 -0.0006122112 0.05188706
v 0.2027439 0.2211341 0.05188706
v 0.2027439 0.2211341 -0.1000399
v 0.2027439 -0.0006121921 -0.1000399
v -0.05342262 0.2033815 -0.1000399
v -0.1018388 0.2033815 -0.1000399
v -0.1018388 -0.0006121445 -0.1000398
v -0.05342262 -0.0006121921 -0.1000398
v -0.1010957 0.2033815 -0.08977135
v -0.1495119 0.2033815 -0.08977137
v -0.1495119 -0.0006121445 -0.08977129
v -0.1010957 -0.0006121921 -0.08977128
v 0.1359753 0.1840546 -0.1000399
v 0.1359752 -0.0006122112 -0.1000399
v 0.1359752 -0.0006122112 0.02874986
v 0.1359753 0.1840546 0.02874985
v 0.02488806 -0.0003771114 -0.1000399
v 0.02488798 -0.0003771496 0.07625379
v 0.08359113 0.004758673 0.07625376
v 0.08359121 0.004758749 -0.10004
v -0.1491519 -0.0006122112 0.04292335
v -0.1491519 -0.0006121826 -0.1000398
v -0.1975681 -0.0006121445 -0.1000398
v -0.1975681 -0.0006121731 0.04292334
v 0.1359753 0.1840546 0.02874985
v 0.1359752 -0.0006122112 0.02874986
v 0.08649153 -0.0006122017 0.02874986
v 0.08649158 0.1840546 0.02874985
v -0.05342262 0.2033815 0.04292335
v -0.05342262 0.2033815 -0.1000399
v -0.05342262 -0.0006121921 -0.1000398
v -0.05342262 -0.0006122303 0.04292335
v 0.2452414 0.2148794 -0.10004
v 0.2452413 -0.0006122398 -0.10004
v 0.2452413 -0.0006122589 0.04760173
v 0.2452414 0.2148793 0.04760173
v -0.05389042 0.2520119 0.08909561
v -0.05389042 0.2520119 -0.08719812
v 0.005036983 0.2520119 -0.08719812
v 0.005036945 0.2520118 0.08909557
vt 0.425293 0.5571289
vt 0.425293 0.5214844
vt 0.411377 0.5214844
vt 0.411377 0.5571289
vt 0.2290039 0.7202148
vt 0.2990723 0.7202148
vt 0.2990723 0.6713867
vt 0.2290039 0.6713867
vt 0.2731934 0.5219727
vt 0.2731934 0.5576172
vt 0.2868652 0.5576172
vt 0.2868652 0.5219727
vt 0.4748535 0.9990234
vt 0.4912109 0.9990234
vt 0.4912109 0.9291992
vt 0.4748535 0.9291992
vt 0.2714844 0.6694336
vt 0.2714844 0.6298828
vt 0.2149658 0.6298828
vt 0.2149658 0.6694336
vt 0.3151855 0.5405273
vt 0.3151855 0.581543
vt 0.3269043 0.581543
vt 0.3269043 0.5405273
vt 0.498291 0.7871094
vt 0.498291 0.7451172
vt 0.4370117 0.7451172
vt 0.4370117 0.7871094
vt 0.4719238 0.5229492
vt 0.4719238 0.5629883
vt 0.4853516 0.5629883
vt 0.4853516 0.5229492
vt 0.2990723 0.7875977
vt 0.2990723 0.7387695
vt 0.2290039 0.7387695
vt 0.2290039 0.7875977
vt 0.4719238 0.5229492
vt 0.4719238 0.5629883
vt 0.4853516 0.5629883
vt 0.4853516 0.5229492
vt 0.498291 0.7236328
vt 0.4370117 0.7236328
vt 0.4370117 0.7451172
vt 0.498291 0.7451172
vt 0.2990723 0.7202148
vt 0.2290039 0.7202148
vt 0.2290039 0.7387695
vt 0.2990723 0.7387695
vt 0.2990723 0.7875977
vt 0.2990723 0.7387695
vt 0.2290039 0.7387695
vt 0.2290039 0.7875977
vt 0.3425293 0.5805664
vt 0.3425293 0.5410156
vt 0.3291016 0.5410156
vt 0.3291016 0.5805664
vt 0.3425293 0.5805664
vt 0.3425293 0.5410156
vt 0.3291016 0.5410156
vt 0.3291016 0.5805664
vt 0.2712402 0.515625
vt 0.2578125 0.515625
vt 0.2578125 0.5722656
vt 0.2712402 0.5722656
vt 0.2714844 0.6694336
vt 0.2714844 0.6298828
vt 0.2149658 0.6298828
vt 0.2149658 0.6694336
vt 0.2990723 0.7202148
vt 0.2290039 0.7202148
vt 0.2290039 0.7387695
vt 0.2990723 0.7387695
vt 0.4819336 0.9267578
vt 0.4938965 0.9267578
vt 0.4938965 0.8671875
vt 0.4819336 0.8671875
vt 0.2714844 0.6137695
vt 0.2714844 0.5742188
vt 0.2149658 0.5742188
vt 0.2149658 0.6137695
vt 0.4719238 0.5229492
vt 0.4719238 0.5629883
vt 0.4853516 0.5629883
vt 0.4853516 0.5229492
vt 0.2290039 0.7202148
vt 0.2990723 0.7202148
vt 0.2990723 0.6713867
vt 0.2290039 0.6713867
vt 0.4238281 0.9321289
vt 0.4423828 0.9321289
vt 0.4423828 0.8706055
vt 0.4238281 0.8706055
vt 0.2712402 0.515625
vt 0.2578125 0.515625
vt 0.2578125 0.5722656
vt 0.2712402 0.5722656
vt 0.4816895 0.8647461
vt 0.4953613 0.8647461
vt 0.4953613 0.8134766
vt 0.4816895 0.8134766
vt 0.2127686 0.6142578
vt 0.1529541 0.6142578
vt 0.1529541 0.6289063
vt 0.2127686 0.6289063
vt 0.3522949 0.6728516
vt 0.3522949 0.637207
vt 0.3012695 0.637207
vt 0.3012695 0.6728516
vt 0.4460449 0.8735352
vt 0.4460449 0.9223633
vt 0.4621582 0.9223633
vt 0.4624023 0.8735352
vt 0.2714844 0.6137695
vt 0.2714844 0.5742188
vt 0.2149658 0.5742188
vt 0.2149658 0.6137695
vt 0.2714844 0.6298828
vt 0.2714844 0.6137695
vt 0.2149658 0.6137695
vt 0.2149658 0.6298828
vt 0.2714844 0.6298828
vt 0.2714844 0.6137695
vt 0.2149658 0.6137695
vt 0.2149658 0.6298828
vt 0.2714844 0.6298828
vt 0.2714844 0.6137695
vt 0.2149658 0.6137695
vt 0.2149658 0.6298828
vt 0.4719238 0.5229492
vt 0.4719238 0.5629883
vt 0.4853516 0.5629883
vt 0.4853516 0.5229492
vt 0.3425293 0.5805664
vt 0.3425293 0.5410156
vt 0.3291016 0.5410156
vt 0.3291016 0.5805664
vt 0.2714844 0.6694336
vt 0.2714844 0.6298828
vt 0.2149658 0.6298828
vt 0.2149658 0.6694336
vt 0.0848999 0.5092773
vt 0.0848999 0.5517578
vt 0.1035156 0.5517578
vt 0.1035156 0.5092773
vt 0.4748535 0.9990234
vt 0.4912109 0.9990234
vt 0.4912109 0.9291992
vt 0.4748535 0.9291992
vt 0.2127686 0.6694336
vt 0.2127686 0.6289063
vt 0.1529541 0.6289063
vt 0.1529541 0.6694336
vt 0.3630371 0.5576172
vt 0.3630371 0.5151367
vt 0.3444824 0.5151367
vt 0.3444824 0.5576172
vt 0.2714844 0.6694336
vt 0.2714844 0.6298828
vt 0.2149658 0.6298828
vt 0.2149658 0.6694336
vt 0.2714844 0.6298828
vt 0.2714844 0.6137695
vt 0.2149658 0.6137695
vt 0.2149658 0.6298828
vt 0.2392578 0.5200195
vt 0.2392578 0.5688477
vt 0.2556152 0.5688477
vt 0.2556152 0.5200195
vt 0.3134766 0.5839844
vt 0.3134766 0.5429688
vt 0.3015137 0.5429688
vt 0.3015137 0.5839844
vt 0.2714844 0.6137695
vt 0.2714844 0.5742188
vt 0.2149658 0.5742188
vt 0.2149658 0.6137695
vt 0.4370117 0.7236328
vt 0.498291 0.7236328
vt 0.498291 0.6816406
vt 0.4370117 0.6816406
vt 0.2712402 0.515625
vt 0.2578125 0.515625
vt 0.2578125 0.5722656
vt 0.2712402 0.5722656
vt 0.2712402 0.515625
vt 0.2578125 0.515625
vt 0.2578125 0.5722656
vt 0.2712402 0.5722656
vt 0.3522949 0.5859375
vt 0.3012695 0.5859375
vt 0.3012695 0.621582
vt 0.3522949 0.621582
vt 0.2392578 0.5200195
vt 0.2392578 0.5688477
vt 0.2556152 0.5688477
vt 0.2556152 0.5200195
vt 0.3425293 0.5805664
vt 0.3425293 0.5410156
vt 0.3291016 0.5410156
vt 0.3291016 0.5805664
vt 0.3522949 0.621582
vt 0.3012695 0.621582
vt 0.3012695 0.637207
vt 0.3522949 0.637207
vt 0.2714844 0.6137695
vt 0.2714844 0.5742188
vt 0.2149658 0.5742188
vt 0.2149658 0.6137695
vt 0.2127686 0.5737305
vt 0.1529541 0.5737305
vt 0.1529541 0.6142578
vt 0.2127686 0.6142578
vt 0.4460449 0.8735352
vt 0.4460449 0.9223633
vt 0.4621582 0.9223633
vt 0.4624023 0.8735352
vn 0 -1 0
vn 0 -1 0
vn 0 -1 0
vn 0 -1 0
vn 1 0 0
vn 1 0 0
vn 1 0 0
vn 1 0 0
vn 0 1 0
vn 0 1 0
vn 0 1 0
vn 0 1 0
vn 0 0 -1
vn 0 0 -1
vn 0 0 -1
vn 0 0 -1
vn -1 0 0
vn -1 0 0
vn -1 0 0
vn -1 0 0
vn 0 -1 0
vn 0 -1 0
vn 0 -1 0
vn 0 -1 0
vn -1 0 0
vn -1 0 0
vn -1 0 0
vn -1 0 0
vn 0 1 0
vn 0 1 0
vn 0 1 0
vn 0 1 0
vn -1 0 0
vn -1 0 0
vn -1 0 0
vn -1 0 0
vn 0 1 0
vn 0 1 0
vn 0 1 0
vn 0 1 0
vn 0 0 1
vn 0 0 1
vn 0 0 1
vn 0 0 1
vn 0 0 1
vn 0 0 1
vn 0 0 1
vn 0 0 1
vn -0.9960938 -0.0871582 0
vn -0.9960938 -0.0871582 0
vn -0.9960938 -0.0871582 0
vn -0.9960938 -0.0871582 0
vn 0 -1 0
vn 0 -1 0
vn 0 -1 0
vn 0 -1 0
vn 0 -1 0
vn 0 -1 0
vn 0 -1 0
vn 0 -1 0
vn 0 0 -1
vn 0 0 -1
vn 0 0 -1
vn 0 0 -1
vn -1 0 0
vn -1 0 0
vn -1 0 0
vn -1 0 0
vn 0 0 1
vn 0 0 1
vn 0 0 1
vn 0 0 1
vn 0 0 -1
vn 0 0 -1
vn 0 0 -1
vn 0 0 -1
vn 1 0 0
vn 1 0 0
vn 1 0 0
vn 1 0 0
vn 0 1 0
vn 0 1 0
vn 0 1 0
vn 0 1 0
vn 0.9960938 0.0871582 0
vn 0.9960938 0.0871582 0
vn 0.9960938 0.0871582 0
vn 0.9960938 0.0871582 0
vn 0 0 -1
vn 0 0 -1
vn 0 0 -1
vn 0 0 -1
vn 0 0 -1
vn 0 0 -1
vn 0 0 -1
vn 0 0 -1
vn 0 0 -1
vn 0 0 -1
vn 0 0 -1
vn 0 0 -1
vn 0 0 1
vn 0 0 1
vn 0 0 1
vn 0 0 1
vn -1 0 0
vn -1 0 0
vn -1 0 0
vn -1 0 0
vn -0.0871582 0.9960938 0
vn -0.0871582 0.9960938 0
vn -0.0871582 0.9960938 0
vn -0.0871582 0.9960938 0
vn 1 0 0
vn 1 0 0
vn 1 0 0
vn 1 0 0
vn 0 0 1
vn 0 0 1
vn 0 0 1
vn 0 0 1
vn 0 0 1
vn 0 0 1
vn 0 0 1
vn 0 0 1
vn 0 0 1
vn 0 0 1
vn 0 0 1
vn 0 0 1
vn 0 1 0
vn 0 1 0
vn 0 1 0
vn 0 1 0
vn 0 -1 0
vn 0 -1 0
vn 0 -1 0
vn 0 -1 0
vn -1 0 0
vn -1 0 0
vn -1 0 0
vn -1 0 0
vn 0 1 0
vn 0 1 0
vn 0 1 0
vn 0 1 0
vn 0 0 -1
vn 0 0 -1
vn 0 0 -1
vn 0 0 -1
vn -1 0 0
vn -1 0 0
vn -1 0 0
vn -1 0 0
vn 0 -1 0
vn 0 -1 0
vn 0 -1 0
vn 0 -1 0
vn -1 0 0
vn -1 0 0
vn -1 0 0
vn -1 0 0
vn 0 0 1
vn 0 0 1
vn 0 0 1
vn 0 0 1
vn 0 -1 0
vn 0 -1 0
vn 0 -1 0
vn 0 -1 0
vn 0 1 0
vn 0 1 0
vn 0 1 0
vn 0 1 0
vn 1 0 0
vn 1 0 0
vn 1 0 0
vn 1 0 0
vn 1 0 0
vn 1 0 0
vn 1 0 0
vn 1 0 0
vn 0 0 -1
vn 0 0 -1
vn 0 0 -1
vn 0 0 -1
vn 0 0 -1
vn 0 0 -1
vn 0 0 -1
vn 0 0 -1
vn 1 0 0
vn 1 0 0
vn 1 0 0
vn 1 0 0
vn 0.0871582 -0.9960938 0
vn 0.0871582 -0.9960938 0
vn 0.0871582 -0.9960938 0
vn 0.0871582 -0.9960938 0
vn 0 -1 0
vn 0 -1 0
vn 0 -1 0
vn 0 -1 0
vn 0 0 1
vn 0 0 1
vn 0 0 1
vn 0 0 1
vn 1 0 0
vn 1 0 0
vn 1 0 0
vn 1 0 0
vn 1 0 0
vn 1 0 0
vn 1 0 0
vn 1 0 0
vn 0 1 0
vn 0 1 0
vn 0 1 0
vn 0 1 0
g Book_Row_Short_G_0
f 3/3/3 2/2/2 1/1/1
f 4/4/4 3/3/3 1/1/1
f 7/7/7 6/6/6 5/5/5
f 8/8/8 7/7/7 5/5/5
f 11/11/11 10/10/10 9/9/9
f 12/12/12 11/11/11 9/9/9
f 15/15/15 14/14/14 13/13/13
f 16/16/16 15/15/15 13/13/13
f 19/19/19 18/18/18 17/17/17
f 20/20/20 19/19/19 17/17/17
f 23/23/23 22/22/22 21/21/21
f 24/24/24 23/23/23 21/21/21
f 27/27/27 26/26/26 25/25/25
f 28/28/28 27/27/27 25/25/25
f 31/31/31 30/30/30 29/29/29
f 32/32/32 31/31/31 29/29/29
f 35/35/35 34/34/34 33/33/33
f 36/36/36 35/35/35 33/33/33
f 39/39/39 38/38/38 37/37/37
f 40/40/40 39/39/39 37/37/37
f 43/43/43 42/42/42 41/41/41
f 44/44/44 43/43/43 41/41/41
f 47/47/47 46/46/46 45/45/45
f 48/48/48 47/47/47 45/45/45
f 51/51/51 50/50/50 49/49/49
f 52/52/52 51/51/51 49/49/49
f 55/55/55 54/54/54 53/53/53
f 56/56/56 55/55/55 53/53/53
f 59/59/59 58/58/58 57/57/57
f 60/60/60 59/59/59 57/57/57
f 63/63/63 62/62/62 61/61/61
f 64/64/64 63/63/63 61/61/61
f 67/67/67 66/66/66 65/65/65
f 68/68/68 67/67/67 65/65/65
f 71/71/71 70/70/70 69/69/69
f 72/72/72 71/71/71 69/69/69
f 75/75/75 74/74/74 73/73/73
f 76/76/76 75/75/75 73/73/73
f 79/79/79 78/78/78 77/77/77
f 80/80/80 79/79/79 77/77/77
f 83/83/83 82/82/82 81/81/81
f 84/84/84 83/83/83 81/81/81
f 87/87/87 86/86/86 85/85/85
f 88/88/88 87/87/87 85/85/85
f 91/91/91 90/90/90 89/89/89
f 92/92/92 91/91/91 89/89/89
f 95/95/95 94/94/94 93/93/93
f 96/96/96 95/95/95 93/93/93
f 99/99/99 98/98/98 97/97/97
f 100/100/100 99/99/99 97/97/97
f 103/103/103 102/102/102 101/101/101
f 104/104/104 103/103/103 101/101/101
f 107/107/107 106/106/106 105/105/105
f 108/108/108 107/107/107 105/105/105
f 111/111/111 110/110/110 109/109/109
f 112/112/112 111/111/111 109/109/109
f 115/115/115 114/114/114 113/113/113
f 116/116/116 115/115/115 113/113/113
f 119/119/119 118/118/118 117/117/117
f 120/120/120 119/119/119 117/117/117
f 123/123/123 122/122/122 121/121/121
f 124/124/124 123/123/123 121/121/121
f 127/127/127 126/126/126 125/125/125
f 128/128/128 127/127/127 125/125/125
f 131/131/131 130/130/130 129/129/129
f 132/132/132 131/131/131 129/129/129
f 135/135/135 134/134/134 133/133/133
f 136/136/136 135/135/135 133/133/133
f 139/139/139 138/138/138 137/137/137
f 140/140/140 139/139/139 137/137/137
f 143/143/143 142/142/142 141/141/141
f 144/144/144 143/143/143 141/141/141
f 147/147/147 146/146/146 145/145/145
f 148/148/148 147/147/147 145/145/145
f 151/151/151 150/150/150 149/149/149
f 152/152/152 151/151/151 149/149/149
f 155/155/155 154/154/154 153/153/153
f 156/156/156 155/155/155 153/153/153
f 159/159/159 158/158/158 157/157/157
f 160/160/160 159/159/159 157/157/157
f 163/163/163 162/162/162 161/161/161
f 164/164/164 163/163/163 161/161/161
f 167/167/167 166/166/166 165/165/165
f 168/168/168 167/167/167 165/165/165
f 171/171/171 170/170/170 169/169/169
f 172/172/172 171/171/171 169/169/169
f 175/175/175 174/174/174 173/173/173
f 176/176/176 175/175/175 173/173/173
f 179/179/179 178/178/178 177/177/177
f 180/180/180 179/179/179 177/177/177
f 183/183/183 182/182/182 181/181/181
f 184/184/184 183/183/183 181/181/181
f 187/187/187 186/186/186 185/185/185
f 188/188/188 187/187/187 185/185/185
f 191/191/191 190/190/190 189/189/189
f 192/192/192 191/191/191 189/189/189
f 195/195/195 194/194/194 193/193/193
f 196/196/196 195/195/195 193/193/193
f 199/199/199 198/198/198 197/197/197
f 200/200/200 199/199/199 197/197/197
f 203/203/203 202/202/202 201/201/201
f 204/204/204 203/203/203 201/201/201
f 207/207/207 206/206/206 205/205/205
f 208/208/208 207/207/207 205/205/205
f 211/211/211 210/210/210 209/209/209
f 212/212/212 211/211/211 209/209/209
f 215/215/215 214/214/214 213/213/213
f 216/216/216 215/215/215 213/213/213
