g Book_Encyclopedia_2
v 0.07954112 0.04264987 -0.1077458
v -0.06810062 3.92282E-08 -0.1077458
v 0.0795411 -1.240081E-08 -0.1077458
v -0.06810061 0.04264992 -0.1077458
v -0.0763718 0.03642025 -0.1077458
v -0.07637181 0.006229721 -0.1077458
v -0.07637177 0.03642021 0.1077458
v -0.07637179 0.006229687 0.1077458
v -0.07637181 0.006229721 -0.1077458
v -0.0763718 0.03642025 -0.1077458
v 0.0795411 -1.240081E-08 -0.1077458
v -0.06810061 8.400167E-09 0.1077458
v 0.07954107 -4.322882E-08 0.1077458
v -0.06810062 3.92282E-08 -0.1077458
v -0.07637181 0.006229721 -0.1077458
v -0.07637179 0.006229687 0.1077458
v 0.07954107 -4.322882E-08 0.1077458
v -0.06810059 0.04264988 0.1077458
v 0.07954114 0.04264984 0.1077458
v -0.06810061 8.400167E-09 0.1077458
v -0.07637179 0.006229687 0.1077458
v -0.07637177 0.03642021 0.1077458
v 0.07954112 0.04264987 -0.1077458
v 0.07954114 0.04264984 0.1077458
v -0.06810059 0.04264988 0.1077458
v -0.06810061 0.04264992 -0.1077458
v -0.0763718 0.03642025 -0.1077458
v -0.07637177 0.03642021 0.1077458
v 0.07954107 -4.322882E-08 0.1077458
v 0.07954114 0.04264984 0.1077458
v 0.07954112 0.04264987 -0.1077458
v 0.0795411 -1.240081E-08 -0.1077458
vt 0.3134766 0.5839844
vt 0.3015137 0.5429688
vt 0.3015137 0.5839844
vt 0.3134766 0.5429688
vt 0.3117676 0.5405273
vt 0.3032227 0.5405273
vt 0.1529541 0.6171875
vt 0.1529541 0.6259766
vt 0.2127686 0.6259766
vt 0.2127686 0.6171875
vt 0.2127686 0.6694336
vt 0.1529541 0.6289063
vt 0.1529541 0.6694336
vt 0.2127686 0.6289063
vt 0.2127686 0.6259766
vt 0.1529541 0.6259766
vt 0.3151855 0.5405273
vt 0.3269043 0.581543
vt 0.3269043 0.5405273
vt 0.3151855 0.581543
vt 0.3168945 0.5839844
vt 0.3251953 0.5839844
vt 0.2127686 0.5737305
vt 0.1529541 0.5737305
vt 0.1529541 0.6142578
vt 0.2127686 0.6142578
vt 0.2127686 0.6171875
vt 0.1529541 0.6171875
vt 0.4819336 0.9267578
vt 0.4938965 0.9267578
vt 0.4938965 0.8671875
vt 0.4819336 0.8671875
vn 0 0 -1
vn 0 0 -1
vn 0 0 -1
vn 0 0 -1
vn 0 0 -1
vn 0 0 -1
vn -1 0 0
vn -1 0 0
vn -1 0 0
vn -1 0 0
vn 0 -1 0
vn -0.3171387 -0.9482422 0
vn 0 -1 0
vn -0.3171387 -0.9482422 0
vn -0.6015625 -0.7988281 0
vn -0.6015625 -0.7988281 0
vn 0 0 1
vn 0 0 1
vn 0 0 1
vn 0 0 1
vn 0 0 1
vn 0 0 1
vn 0 1 0
vn 0 1 0
vn -0.3171387 0.9482422 0
vn -0.3171387 0.9482422 0
vn -0.6015625 0.7988281 0
vn -0.6015625 0.7988281 0
vn 1 0 0
vn 1 0 0
vn 1 0 0
vn 1 0 0
g Book_Encyclopedia_2_0
f 3/3/3 2/2/2 1/1/1
f 2/2/2 4/4/4 1/1/1
f 4/4/4 2/2/2 5/5/5
f 6/6/6 5/5/5 2/2/2
f 9/9/9 8/8/8 7/7/7
f 10/10/10 9/9/9 7/7/7
f 13/13/13 12/12/12 11/11/11
f 12/12/12 14/14/14 11/11/11
f 14/14/14 12/12/12 15/15/15
f 12/12/12 16/16/16 15/15/15
f 19/19/19 18/18/18 17/17/17
f 18/18/18 20/20/20 17/17/17
f 20/20/20 18/18/18 21/21/21
f 18/18/18 22/22/22 21/21/21
f 25/25/25 24/24/24 23/23/23
f 26/26/26 25/25/25 23/23/23
f 26/26/26 27/27/27 25/25/25
f 27/27/27 28/28/28 25/25/25
f 31/31/31 30/30/30 29/29/29
f 32/32/32 31/31/31 29/29/29
