g Hall_Carpet_Welcome
v 0.9979023 -0.001534734 -0.4663837
v 0.9780495 -0.001560745 0.4768237
v 0.9892781 -0.001561308 0.4654077
v -0.9909527 -0.00161922 0.4909174
v 0.9868153 -0.001546707 -0.4779938
v -0.9967611 -0.001562629 -0.4755884
v -0.9986067 -0.001386571 0.4793628
v -0.9847819 -0.00154819 -0.4872888
v 0.9780495 -0.001560745 0.4768237
v 0.9830974 0.01552199 0.4597052
v 0.9892781 -0.001561308 0.4654077
v 0.9979023 -0.001534734 -0.4663837
v 0.9720753 0.0156167 0.4707196
v -0.9909527 -0.00161922 0.4909174
v -0.9801704 0.0157008 0.4850354
v -0.9986067 -0.001386571 0.4793628
v 0.9688377 0.01557339 0.4561664
v -0.9917579 0.01572666 0.4736951
v -0.9967611 -0.001562629 -0.4755884
v -0.9771774 0.01580239 0.4703607
v -0.990731 0.01554121 -0.4697827
v -0.9847819 -0.00154819 -0.4872888
v -0.976107 0.0155564 -0.4664578
v -0.9790244 0.01554623 -0.4811767
v 0.9868153 -0.001546707 -0.4779938
v 0.9806975 0.01612568 -0.4719733
v 0.9914897 0.01598953 -0.4607428
v 0.9769621 0.0163218 -0.4577096
v 0.9781486 0.0194817 -0.3289301
vt 0.5029297 0.005760193
vt 0.5029297 0.005882263
vt 0.5029297 0.005882263
vt 0.5029297 0.005886078
vt 0.5029297 0.005760193
vt 0.5029297 0.005760193
vt 0.5029297 0.005882263
vt 0.5029297 0.005760193
vt 0.8681641 0.2451172
vt 0.8647461 0.244751
vt 0.8662109 0.2470703
vt 0.7548828 0.2484131
vt 0.8657227 0.2436523
vt 0.8691406 0.01078796
vt 0.8671875 0.01281738
vt 0.8671875 0.009208679
vt 0.8642578 0.2432861
vt 0.8657227 0.01168823
vt 0.7524414 0.009887695
vt 0.8657227 0.01322937
vt 0.7543945 0.01226807
vt 0.7504883 0.01199341
vt 0.7548828 0.01380157
vt 0.7529297 0.01339722
vt 0.7524414 0.246582
vt 0.7548828 0.244873
vt 0.7563477 0.2459717
vt 0.7563477 0.2443848
vt 0.7714844 0.2446289
vn 0.0002090931 -1 0.0003473759
vn 0 -1 -2.771616E-05
vn -7.987022E-05 -1 -2.926588E-05
vn -0.008232117 -1 0
vn 0.0002980232 -1 0.0005307198
vn -9.608269E-05 -1 -0.0004427433
vn -0.03056335 -0.9995117 0.0001251698
vn 0 -1 -0.001227379
vn 0.3811035 0.4230957 0.8222656
vn 0.5859375 0.78125 0.215332
vn 0.8251953 0.4233398 0.3735352
vn 0.8330078 0.4206543 -0.3596191
vn 0.2147217 0.7827148 0.5839844
vn -0.4516602 0.5258789 0.7207031
vn -0.1881104 0.7856445 0.5893555
vn -0.8154297 0.4848633 0.3156738
vn 0.0008621216 1 0.0001616478
vn -0.574707 0.7895508 0.21521
vn -0.8237305 0.4199219 -0.3806152
vn -0.002193451 1 0.003046036
vn -0.5883789 0.7788086 -0.217041
vn -0.3686523 0.4199219 -0.8291016
vn -0.0006246567 1 -0.000415802
vn -0.2075195 0.7807617 -0.5893555
vn 0.3891602 0.4150391 -0.8222656
vn 0.2233887 0.7739258 -0.5922852
vn 0.5981445 0.7729492 -0.2119141
vn 0.004577637 1 -0.01225281
vn -0.3266602 0.9453125 -0.00280571
g Hall_Carpet_Welcome_0
f 3/3/3 2/2/2 1/1/1
f 2/2/2 4/4/4 1/1/1
f 4/4/4 5/5/5 1/1/1
f 6/6/6 5/5/5 4/4/4
f 7/7/7 6/6/6 4/4/4
f 8/8/8 5/5/5 6/6/6
f 11/11/11 10/10/10 9/9/9
f 10/10/10 11/11/11 12/12/12
f 10/10/10 13/13/13 9/9/9
f 9/9/9 13/13/13 14/14/14
f 13/13/13 15/15/15 14/14/14
f 14/14/14 15/15/15 16/16/16
f 10/10/10 17/17/17 13/13/13
f 15/15/15 13/13/13 17/17/17
f 15/15/15 18/18/18 16/16/16
f 16/16/16 18/18/18 19/19/19
f 15/15/15 20/20/20 18/18/18
f 20/20/20 15/15/15 17/17/17
f 18/18/18 21/21/21 19/19/19
f 21/21/21 18/18/18 20/20/20
f 19/19/19 21/21/21 22/22/22
f 23/23/23 21/21/21 20/20/20
f 23/23/23 20/20/20 17/17/17
f 21/21/21 24/24/24 22/22/22
f 21/21/21 23/23/23 24/24/24
f 22/22/22 24/24/24 25/25/25
f 24/24/24 26/26/26 25/25/25
f 26/26/26 24/24/24 23/23/23
f 25/25/25 26/26/26 12/12/12
f 27/27/27 10/10/10 12/12/12
f 26/26/26 27/27/27 12/12/12
f 28/28/28 26/26/26 23/23/23
f 28/28/28 23/23/23 17/17/17
f 26/26/26 28/28/28 27/27/27
f 17/17/17 10/10/10 29/29/29
f 10/10/10 27/27/27 29/29/29
f 27/27/27 28/28/28 29/29/29
f 29/29/29 28/28/28 17/17/17
