g Hall_Carpet_Long
v 0.9876348 -0.001516614 1.997629
v -0.9740399 -0.001532755 2.000109
v 0.9759643 -0.001543684 2.008714
v 0.9969159 -0.001523061 -1.992424
v -0.9854687 -0.001527557 1.988878
v -0.9886224 -0.001496506 -2.005807
v -1.00013 -0.001485047 -1.994013
v 0.9852173 -0.001539969 -2.004391
v -0.9886224 -0.001496506 -2.005807
v 0.9852173 -0.001539969 -2.004391
v 0.9793988 0.0155649 -1.998307
v 0.9969159 -0.001523061 -1.992424
v -0.9826871 0.01553856 -1.999495
v -0.9938363 0.01558786 -1.987927
v -1.00013 -0.001485047 -1.994013
v -0.9854687 -0.001527557 1.988878
v -0.9792764 0.01557584 -1.984904
v 0.9907776 0.01555688 -1.986625
v 0.9760869 0.01556572 -1.983674
v 0.9816388 0.01609466 1.99148
v 0.9876348 -0.001516614 1.997629
v 0.9759643 -0.001543684 2.008714
v -0.9647896 0.01557228 1.979643
v -0.9793408 0.01561556 1.982882
v -0.9683258 0.01552212 1.993903
v -0.9740399 -0.001532755 2.000109
v 0.9704071 0.01586657 2.0024
v 0.9673935 0.01607757 1.987783
vt 0.503418 0.006031036
vt 0.503418 0.006282806
vt 0.503418 0.006031036
vt 0.5029297 0.006027222
vt 0.503418 0.006282806
vt 0.5029297 0.006286621
vt 0.5029297 0.006286621
vt 0.5029297 0.006031036
vt 0.7431641 0.01690674
vt 0.5078125 0.01748657
vt 0.5097656 0.01986694
vt 0.5058594 0.01953125
vt 0.7416992 0.01933289
vt 0.7426758 0.02046204
vt 0.7451172 0.0189209
vt 0.7441406 0.4914551
vt 0.7412109 0.02085876
vt 0.5083008 0.02102661
vt 0.5097656 0.02142334
vt 0.5102539 0.4916992
vt 0.5078125 0.4934082
vt 0.5097656 0.4953613
vt 0.7397461 0.489502
vt 0.7416992 0.4899902
vt 0.7402344 0.4912109
vt 0.7421875 0.4934082
vt 0.5112305 0.4926758
vt 0.5117188 0.4912109
vn 0 -1 -0.0007910728
vn -0.0001572371 -1 -8.583069E-05
vn 0 -1 -0.002437592
vn -1.2815E-05 -1 0.0004758835
vn -0.0002481937 -1 -0.0001240969
vn -0.0003402233 -1 0
vn -0.001003265 -1 0
vn -2.3067E-05 -1 0.00143528
vn -0.3779297 0.4355469 -0.8168945
vn 0.3798828 0.4221191 -0.8232422
vn 0.2164307 0.7802734 -0.5869141
vn 0.8276367 0.4221191 -0.3693848
vn -0.21521 0.7832031 -0.5830078
vn -0.5839844 0.7856445 -0.2037354
vn -0.8222656 0.4343262 -0.3681641
vn -0.8217773 0.4250488 0.3796387
vn 0.0004606247 1 -0.001286507
vn 0.5883789 0.7817383 -0.2075195
vn 0.0001949072 1 -0.0001358986
vn 0.5883789 0.777832 0.2214355
vn 0.8212891 0.4160156 0.390625
vn 0.3608398 0.4187012 0.8334961
vn 0.001408577 1 0.001820564
vn -0.5839844 0.7832031 0.2131348
vn -0.2121582 0.7817383 0.5864258
vn -0.3713379 0.4248047 0.8256836
vn 0.2073975 0.7768555 0.5947266
vn -0.001405716 1 0.006809235
g Hall_Carpet_Long_0
f 3/3/3 2/2/2 1/1/1
f 2/2/2 4/4/4 1/1/1
f 5/5/5 4/4/4 2/2/2
f 6/6/6 4/4/4 5/5/5
f 7/7/7 6/6/6 5/5/5
f 8/8/8 4/4/4 6/6/6
f 11/11/11 10/10/10 9/9/9
f 10/10/10 11/11/11 12/12/12
f 13/13/13 11/11/11 9/9/9
f 14/14/14 13/13/13 9/9/9
f 15/15/15 14/14/14 9/9/9
f 14/14/14 15/15/15 16/16/16
f 11/11/11 13/13/13 17/17/17
f 14/14/14 17/17/17 13/13/13
f 11/11/11 18/18/18 12/12/12
f 19/19/19 11/11/11 17/17/17
f 11/11/11 19/19/19 18/18/18
f 18/18/18 20/20/20 12/12/12
f 20/20/20 18/18/18 19/19/19
f 20/20/20 21/21/21 12/12/12
f 21/21/21 20/20/20 22/22/22
f 23/23/23 17/17/17 14/14/14
f 17/17/17 23/23/23 19/19/19
f 24/24/24 14/14/14 16/16/16
f 24/24/24 23/23/23 14/14/14
f 25/25/25 24/24/24 16/16/16
f 25/25/25 23/23/23 24/24/24
f 26/26/26 25/25/25 16/16/16
f 26/26/26 22/22/22 27/27/27
f 20/20/20 27/27/27 22/22/22
f 25/25/25 26/26/26 27/27/27
f 28/28/28 20/20/20 19/19/19
f 23/23/23 28/28/28 19/19/19
f 20/20/20 28/28/28 27/27/27
f 28/28/28 23/23/23 25/25/25
f 27/27/27 28/28/28 25/25/25
