g Frame_Wall_3
v 0.1008514 0.002305088 0.002725258
v 0.1008514 0.3048594 -0.006687507
v 0.1008514 0.002305088 -0.006687546
v 0.1008514 0.3048594 0.002725296
v 0.09713715 0.3011451 0.006687164
v 0.09713715 0.006019344 0.006687164
v 0.09713715 0.006019344 0.006687164
v 0.09416839 0.2981762 0.006687164
v 0.09713715 0.3011451 0.006687164
v 0.09416839 0.008988285 0.006687164
v 0.09416839 0.008988285 0.006687164
v 0.09093384 0.2949417 0.003466682
v 0.09416839 0.2981762 0.006687164
v 0.09093384 0.01222281 0.003466682
v 0.09093384 0.01222281 0.003466682
v 0.08703247 0.2910403 0.003415604
v 0.09093384 0.2949417 0.003466682
v 0.08703247 0.01612416 0.003415604
v 0.06273285 0.2667409 0.003097534
v 0.06273285 0.04042356 0.003097572
v 0.05926147 0.0438949 0.003052101
v 0.05926147 0.2632696 0.003052101
v 0.05926147 0.0438949 0.003052101
v 0.05804687 0.2620548 -0.003391571
v 0.05926147 0.2632696 0.003052101
v 0.05804687 0.04510973 -0.003391571
v -0.1008514 0.3048594 -0.006687507
v -0.1008514 0.002305088 0.002725258
v -0.1008514 0.002305088 -0.006687546
v -0.1008514 0.3048594 0.002725296
v -0.09713715 0.3011451 0.006687164
v -0.09713715 0.006019344 0.006687164
v -0.09416839 0.2981762 0.006687164
v -0.09713715 0.006019344 0.006687164
v -0.09713715 0.3011451 0.006687164
v -0.09416839 0.008988285 0.006687164
v -0.09093384 0.2949417 0.003466682
v -0.09416839 0.008988285 0.006687164
v -0.09416839 0.2981762 0.006687164
v -0.09093384 0.01222281 0.003466682
v -0.09093384 0.2949417 0.003466682
v -0.08703247 0.01612416 0.003415604
v -0.09093384 0.01222281 0.003466682
v -0.08703247 0.2910403 0.003415604
v -0.06273285 0.04042356 0.003097572
v -0.06273285 0.2667409 0.003097572
v -0.05926147 0.2632696 0.003052101
v -0.05926147 0.0438949 0.003052101
v -0.05804687 0.2620548 -0.003391571
v -0.05926147 0.0438949 0.003052101
v -0.05926147 0.2632696 0.003052101
v -0.05804687 0.04510973 -0.003391571
v 0.1008514 0.3048594 0.002725296
v -0.1008514 0.3048594 -0.006687507
v 0.1008514 0.3048594 -0.006687507
v -0.1008514 0.3048594 0.002725296
v 0.09713715 0.3011451 0.006687164
v -0.09713715 0.3011451 0.006687164
v 0.09416839 0.2981762 0.006687164
v -0.09713715 0.3011451 0.006687164
v 0.09713715 0.3011451 0.006687164
v -0.09416839 0.2981762 0.006687164
v 0.09093384 0.2949417 0.003466682
v -0.09416839 0.2981762 0.006687164
v 0.09416839 0.2981762 0.006687164
v -0.09093384 0.2949417 0.003466682
v 0.09093384 0.2949417 0.003466682
v -0.08703247 0.2910403 0.003415604
v -0.09093384 0.2949417 0.003466682
v 0.08703247 0.2910403 0.003415604
v -0.06273285 0.2667409 0.003097572
v 0.06273285 0.2667409 0.003097534
v -0.05926147 0.2632696 0.003052101
v 0.05926147 0.2632696 0.003052101
v 0.05804687 0.2620548 -0.003391571
v -0.05926147 0.2632696 0.003052101
v 0.05926147 0.2632696 0.003052101
v -0.05804687 0.2620548 -0.003391571
v -0.1008514 0.002305088 -0.006687546
v 0.1008514 0.002305088 0.002725258
v 0.1008514 0.002305088 -0.006687546
v -0.1008514 0.002305088 0.002725258
v -0.09713715 0.006019344 0.006687164
v 0.09713715 0.006019344 0.006687164
v -0.09713715 0.006019344 0.006687164
v 0.09416839 0.008988285 0.006687164
v 0.09713715 0.006019344 0.006687164
v -0.09416839 0.008988285 0.006687164
v -0.09416839 0.008988285 0.006687164
v 0.09093384 0.01222281 0.003466682
v 0.09416839 0.008988285 0.006687164
v -0.09093384 0.01222281 0.003466682
v -0.09093384 0.01222281 0.003466682
v 0.08703247 0.01612416 0.003415604
v 0.09093384 0.01222281 0.003466682
v -0.08703247 0.01612416 0.003415604
v 0.06273285 0.04042356 0.003097572
v -0.06273285 0.04042356 0.003097572
v 0.05926147 0.0438949 0.003052101
v -0.05926147 0.0438949 0.003052101
v -0.05926147 0.0438949 0.003052101
v 0.05804687 0.04510973 -0.003391571
v 0.05926147 0.0438949 0.003052101
v -0.05804687 0.04510973 -0.003391571
v 0.1008514 0.002305088 -0.006687546
v -0.1008514 0.3048594 -0.006687507
v -0.1008514 0.002305088 -0.006687546
v 0.1008514 0.3048594 -0.006687507
v -0.05804687 0.2620548 -0.003391571
v 0.05804687 0.04510973 -0.003391571
v -0.05804687 0.04510973 -0.003391571
v 0.05804687 0.2620548 -0.003391571
vt 0.7158203 0.3566895
vt 0.7138672 0.3051758
vt 0.7138672 0.3566895
vt 0.7158203 0.3051758
vt 0.7163086 0.3059082
vt 0.7163086 0.355957
vt 0.7163086 0.355957
vt 0.7167969 0.3063965
vt 0.7163086 0.3059082
vt 0.7167969 0.3554688
vt 0.7167969 0.3554688
vt 0.7172852 0.3068848
vt 0.7167969 0.3063965
vt 0.7172852 0.3549805
vt 0.7172852 0.3549805
vt 0.7177734 0.3076172
vt 0.7172852 0.3068848
vt 0.7177734 0.354248
vt 0.722168 0.3117676
vt 0.722168 0.3500977
vt 0.7226563 0.3496094
vt 0.7226563 0.3122559
vt 0.7226563 0.3496094
vt 0.7236328 0.3125
vt 0.7226563 0.3122559
vt 0.7236328 0.3493652
vt 0.7241211 0.3520508
vt 0.722168 0.4035645
vt 0.7241211 0.4035645
vt 0.722168 0.3520508
vt 0.7216797 0.3527832
vt 0.7216797 0.4030762
vt 0.7211914 0.3532715
vt 0.7216797 0.4030762
vt 0.7216797 0.3527832
vt 0.7211914 0.4025879
vt 0.7207031 0.3537598
vt 0.7211914 0.4025879
vt 0.7211914 0.3532715
vt 0.7207031 0.4018555
vt 0.7207031 0.3537598
vt 0.7197266 0.4013672
vt 0.7207031 0.4018555
vt 0.7197266 0.3544922
vt 0.7158203 0.3972168
vt 0.7158203 0.3586426
vt 0.715332 0.3591309
vt 0.715332 0.3964844
vt 0.7138672 0.359375
vt 0.715332 0.3964844
vt 0.715332 0.3591309
vt 0.7138672 0.3962402
vt 0.722168 0.4438477
vt 0.7241211 0.4782715
vt 0.7241211 0.4438477
vt 0.722168 0.4782715
vt 0.7216797 0.4445801
vt 0.7216797 0.4775391
vt 0.7211914 0.4450684
vt 0.7216797 0.4775391
vt 0.7216797 0.4445801
vt 0.7211914 0.4770508
vt 0.7207031 0.4455566
vt 0.7211914 0.4770508
vt 0.7211914 0.4450684
vt 0.7207031 0.4765625
vt 0.7207031 0.4455566
vt 0.7197266 0.4758301
vt 0.7207031 0.4765625
vt 0.7197266 0.4462891
vt 0.7158203 0.4716797
vt 0.7158203 0.4504395
vt 0.715332 0.4711914
vt 0.715332 0.4509277
vt 0.7143555 0.4511719
vt 0.715332 0.4711914
vt 0.715332 0.4509277
vt 0.7143555 0.4709473
vt 0.7509766 0.4909668
vt 0.7167969 0.4892578
vt 0.7167969 0.4909668
vt 0.7509766 0.4892578
vt 0.7504883 0.4887695
vt 0.7172852 0.4887695
vt 0.7504883 0.4887695
vt 0.7177734 0.4882813
vt 0.7172852 0.4887695
vt 0.75 0.4882813
vt 0.75 0.4882813
vt 0.71875 0.4875488
vt 0.7177734 0.4882813
vt 0.7495117 0.4875488
vt 0.7495117 0.4875488
vt 0.7192383 0.4870605
vt 0.71875 0.4875488
vt 0.7490234 0.4870605
vt 0.7231445 0.4829102
vt 0.7446289 0.4829102
vt 0.7241211 0.4821777
vt 0.7441406 0.4821777
vt 0.7441406 0.4821777
vt 0.7241211 0.4812012
vt 0.7241211 0.4821777
vt 0.7441406 0.4812012
vt 0.7480469 0.3989258
vt 0.7729492 0.3823242
vt 0.7480469 0.3823242
vt 0.7729492 0.3989258
vt 0.3696289 0.4953613
vt 0.4042969 0.4304199
vt 0.3696289 0.4304199
vt 0.4042969 0.4953613
vn 0.9599609 0 0.2797852
vn 1 0 0
vn 1 0 0
vn 0.9599609 0 0.2797852
vn 0.5722656 0 0.8203125
vn 0.5722656 0 0.8203125
vn 0.5722656 0 0.8203125
vn -0.2167969 0 0.9760742
vn 0.5722656 0 0.8203125
vn -0.2167969 0 0.9760742
vn -0.2167969 0 0.9760742
vn -0.5537109 0 0.8325195
vn -0.2167969 0 0.9760742
vn -0.5537109 0 0.8325195
vn -0.5537109 0 0.8325195
vn -0.01309204 0 1
vn -0.5537109 0 0.8325195
vn -0.01309204 0 1
vn -0.01308441 0 1
vn -0.01309204 0 1
vn -0.4707031 0 0.8823242
vn -0.4707031 0 0.8823242
vn -0.4707031 0 0.8823242
vn -0.9829102 0 0.1851807
vn -0.4707031 0 0.8823242
vn -0.9829102 0 0.1851807
vn -1 0 0
vn -0.9599609 0 0.2797852
vn -1 0 0
vn -0.9599609 0 0.2797852
vn -0.5722656 0 0.8203125
vn -0.5722656 0 0.8203125
vn 0.2167969 0 0.9760742
vn -0.5722656 0 0.8203125
vn -0.5722656 0 0.8203125
vn 0.2167969 0 0.9760742
vn 0.5537109 0 0.8325195
vn 0.2167969 0 0.9760742
vn 0.2167969 0 0.9760742
vn 0.5537109 0 0.8325195
vn 0.5537109 0 0.8325195
vn 0.01309204 0 1
vn 0.5537109 0 0.8325195
vn 0.01309204 0 1
vn 0.01309204 0 1
vn 0.01309204 0 1
vn 0.4709473 0 0.8823242
vn 0.4707031 0 0.8823242
vn 0.9829102 0 0.1851807
vn 0.4707031 0 0.8823242
vn 0.4709473 0 0.8823242
vn 0.9829102 0 0.1851807
vn 0 0.9599609 0.2797852
vn 0 1 0
vn 0 1 0
vn 0 0.9599609 0.2797852
vn 0 0.5722656 0.8203125
vn 0 0.5722656 0.8203125
vn 0 -0.2167969 0.9760742
vn 0 0.5722656 0.8203125
vn 0 0.5722656 0.8203125
vn 0 -0.2167969 0.9760742
vn 0 -0.5537109 0.8325195
vn 0 -0.2167969 0.9760742
vn 0 -0.2167969 0.9760742
vn 0 -0.5537109 0.8325195
vn 0 -0.5537109 0.8325195
vn 0 -0.01309204 1
vn 0 -0.5537109 0.8325195
vn 0 -0.01309204 1
vn 0 -0.01309204 1
vn 0 -0.01309204 1
vn 0 -0.4707031 0.8823242
vn 0 -0.4707031 0.8823242
vn 0 -0.9829102 0.1853027
vn 0 -0.4707031 0.8823242
vn 0 -0.4707031 0.8823242
vn 0 -0.9829102 0.1853027
vn 0 -1 0
vn 0 -0.9599609 0.2797852
vn 0 -1 0
vn 0 -0.9599609 0.2797852
vn 0 -0.5722656 0.8203125
vn 0 -0.5722656 0.8203125
vn 0 -0.5722656 0.8203125
vn 0 0.2167969 0.9760742
vn 0 -0.5722656 0.8203125
vn 0 0.2167969 0.9760742
vn 0 0.2167969 0.9760742
vn 0 0.5537109 0.8325195
vn 0 0.2167969 0.9760742
vn 0 0.5537109 0.8325195
vn 0 0.5537109 0.8325195
vn 0 0.01309204 1
vn 0 0.5537109 0.8325195
vn 0 0.01309204 1
vn 0 0.01309204 1
vn 0 0.01309204 1
vn 0 0.4707031 0.8823242
vn 0 0.4707031 0.8823242
vn 0 0.4707031 0.8823242
vn 0 0.9829102 0.1853027
vn 0 0.4707031 0.8823242
vn 0 0.9829102 0.1853027
vn 0 0 -1
vn 0 0 -1
vn 0 0 -1
vn 0 0 -1
vn 0 0 1
vn 0 0 1
vn 0 0 1
vn 0 0 1
g Frame_Wall_3_0
f 3/3/3 2/2/2 1/1/1
f 4/4/4 1/1/1 2/2/2
f 4/4/4 5/5/5 1/1/1
f 6/6/6 1/1/1 5/5/5
f 9/9/9 8/8/8 7/7/7
f 10/10/10 7/7/7 8/8/8
f 13/13/13 12/12/12 11/11/11
f 14/14/14 11/11/11 12/12/12
f 17/17/17 16/16/16 15/15/15
f 18/18/18 15/15/15 16/16/16
f 16/16/16 19/19/19 18/18/18
f 20/20/20 18/18/18 19/19/19
f 20/20/20 19/19/19 21/21/21
f 22/22/22 21/21/21 19/19/19
f 25/25/25 24/24/24 23/23/23
f 26/26/26 23/23/23 24/24/24
f 29/29/29 28/28/28 27/27/27
f 30/30/30 27/27/27 28/28/28
f 30/30/30 28/28/28 31/31/31
f 32/32/32 31/31/31 28/28/28
f 35/35/35 34/34/34 33/33/33
f 36/36/36 33/33/33 34/34/34
f 39/39/39 38/38/38 37/37/37
f 40/40/40 37/37/37 38/38/38
f 43/43/43 42/42/42 41/41/41
f 44/44/44 41/41/41 42/42/42
f 42/42/42 45/45/45 44/44/44
f 46/46/46 44/44/44 45/45/45
f 46/46/46 45/45/45 47/47/47
f 48/48/48 47/47/47 45/45/45
f 51/51/51 50/50/50 49/49/49
f 52/52/52 49/49/49 50/50/50
f 55/55/55 54/54/54 53/53/53
f 56/56/56 53/53/53 54/54/54
f 53/53/53 56/56/56 57/57/57
f 58/58/58 57/57/57 56/56/56
f 61/61/61 60/60/60 59/59/59
f 62/62/62 59/59/59 60/60/60
f 65/65/65 64/64/64 63/63/63
f 66/66/66 63/63/63 64/64/64
f 69/69/69 68/68/68 67/67/67
f 70/70/70 67/67/67 68/68/68
f 68/68/68 71/71/71 70/70/70
f 72/72/72 70/70/70 71/71/71
f 71/71/71 73/73/73 72/72/72
f 74/74/74 72/72/72 73/73/73
f 77/77/77 76/76/76 75/75/75
f 78/78/78 75/75/75 76/76/76
f 81/81/81 80/80/80 79/79/79
f 82/82/82 79/79/79 80/80/80
f 82/82/82 80/80/80 83/83/83
f 84/84/84 83/83/83 80/80/80
f 87/87/87 86/86/86 85/85/85
f 88/88/88 85/85/85 86/86/86
f 91/91/91 90/90/90 89/89/89
f 92/92/92 89/89/89 90/90/90
f 95/95/95 94/94/94 93/93/93
f 96/96/96 93/93/93 94/94/94
f 94/94/94 97/97/97 96/96/96
f 98/98/98 96/96/96 97/97/97
f 97/97/97 99/99/99 98/98/98
f 100/100/100 98/98/98 99/99/99
f 103/103/103 102/102/102 101/101/101
f 104/104/104 101/101/101 102/102/102
f 107/107/107 106/106/106 105/105/105
f 108/108/108 105/105/105 106/106/106
g Frame_Wall_3_1
f 111/111/111 110/110/110 109/109/109
f 112/112/112 109/109/109 110/110/110
