g C_gift2
v -0.1494822 0.1814623 0.1595184
v -0.150962 0.166778 0.1436954
v -0.2432317 0.179654 0.154493
v -0.2347682 0.1644535 0.1214628
v -0.2283732 0.1609374 0.06686635
v -0.1597099 0.1609374 0.06648589
v -0.2432332 0.1796655 -0.1491685
v -0.1509443 0.1668051 -0.1384414
v -0.149482 0.181443 -0.1541874
v -0.2347682 0.1644535 -0.1161362
v -0.2283732 0.1609374 -0.0615398
v -0.1597099 0.1609374 -0.06115933
v -0.1624024 0.1604351 0.002568166
v -0.2308662 0.1629906 -0.06875611
v -0.2275411 0.1606089 0.04146367
v -0.1570938 0.162906 -0.07010575
v -0.1492357 0.1757445 -0.1059441
v -0.2432563 0.1798911 -0.1047639
v -0.1747527 0.1695289 -0.09057008
v -0.2328806 0.1696418 -0.09039019
v -0.2432332 0.1796655 -0.1491685
v -0.149482 0.181443 -0.1541874
v -0.1560872 0.2029298 0.0849862
v -0.1492332 0.175813 0.1112897
v -0.2432602 0.180004 0.1101311
v -0.236288 0.2038081 0.08550502
v -0.1492332 0.175813 0.1112897
v -0.2347682 0.1644535 0.08779181
v -0.2432602 0.180004 0.1101311
v -0.1570707 0.1629239 0.07555102
v -0.2275411 0.1606089 0.04146367
v -0.1624024 0.1604351 0.002568166
v 0.3444948 3.172097E-08 -0.1947018
v -0.3444951 3.172097E-08 -0.1947018
v -0.3444951 -3.172097E-08 0.1947018
v 0.3444948 -3.172097E-08 0.1947018
v 0.3444948 -3.172097E-08 0.1947018
v 0.3444948 0.1611383 0.1947018
v 0.3444948 0.1611384 -0.1947018
v 0.3444948 3.172097E-08 -0.1947018
v -0.3444951 -3.172097E-08 0.1947018
v -0.3444951 0.1611383 0.1947018
v 0.3444948 0.1611383 0.1947018
v 0.3444948 -3.172097E-08 0.1947018
v -0.1562095 0.1693767 0.1083514
v -0.1494822 0.1814623 0.1595184
v -0.2432317 0.179654 0.154493
v -0.2315144 0.1690103 0.1082469
v 0.3444948 0.1611384 -0.1947018
v 0.3444948 0.1611383 0.1947018
v -0.3444951 0.1611383 0.1947018
v -0.3444951 0.1611384 -0.1947018
v -0.3444951 0.1611383 0.1947018
v -0.3444951 -3.172097E-08 0.1947018
v -0.3444951 3.172097E-08 -0.1947018
v -0.3444951 0.1611384 -0.1947018
v -0.3444951 0.1611384 -0.1947018
v -0.3444951 3.172097E-08 -0.1947018
v 0.3444948 3.172097E-08 -0.1947018
v 0.3444948 0.1611384 -0.1947018
v -0.2269997 0.1737438 0.0388848
v -0.1560872 0.2029298 0.0849862
v -0.236288 0.2038081 0.08550502
v -0.1616876 0.1713396 0.03247251
v -0.1621667 0.1667562 -0.01737236
v -0.227094 0.171988 -0.03294414
v -0.1560964 0.2010009 -0.07961525
v -0.2362732 0.2018931 -0.08010536
v -0.2432563 0.1798911 -0.1047639
v -0.1492357 0.1757445 -0.1059441
vt 0.6225586 0.6601563
vt 0.6225586 0.6621094
vt 0.6337891 0.6601563
vt 0.6328125 0.6645508
vt 0.6328125 0.6708984
vt 0.6245117 0.6713867
vt 0.6464844 0.6713867
vt 0.6352539 0.6694336
vt 0.6352539 0.6713867
vt 0.6455078 0.6669922
vt 0.6455078 0.6606445
vt 0.637207 0.6601563
vt 0.8432617 0.862793
vt 0.8349609 0.8544922
vt 0.8354492 0.862793
vt 0.8442383 0.8540039
vt 0.8447266 0.8491211
vt 0.8334961 0.8486328
vt 0.6630859 0.5024414
vt 0.6630859 0.5112305
vt 0.6708984 0.5126953
vt 0.6713867 0.5014648
vt 0.8442383 0.8203125
vt 0.8447266 0.8144531
vt 0.8334961 0.8149414
vt 0.8344727 0.8203125
vt 0.8447266 0.8144531
vt 0.8344727 0.8110352
vt 0.8334961 0.8149414
vt 0.8442383 0.8095703
vt 0.8354492 0.8056641
vt 0.8432617 0.8007813
vt 0.765625 0.7836914
vt 0.6826172 0.7836914
vt 0.6826172 0.8305664
vt 0.765625 0.8305664
vt 0.9609375 0.675293
vt 0.9804688 0.675293
vt 0.9804688 0.628418
vt 0.9609375 0.628418
vt 0.7646484 0.6787109
vt 0.7646484 0.6591797
vt 0.6816406 0.6591797
vt 0.6816406 0.6787109
vt 0.6572266 0.6611328
vt 0.6489258 0.6601563
vt 0.6494141 0.6713867
vt 0.6572266 0.6704102
vt 0.5981445 0.7841797
vt 0.5981445 0.831543
vt 0.6811523 0.831543
vt 0.6811523 0.7841797
vt 0.9804688 0.6777344
vt 0.9609375 0.6777344
vt 0.9609375 0.7246094
vt 0.9804688 0.7246094
vt 0.5009766 0.8081055
vt 0.5009766 0.8276367
vt 0.5839844 0.8276367
vt 0.5839844 0.8081055
vt 0.8354492 0.8271484
vt 0.8442383 0.8203125
vt 0.8344727 0.8203125
vt 0.8432617 0.828125
vt 0.8432617 0.8344727
vt 0.8354492 0.8364258
vt 0.8442383 0.8432617
vt 0.8344727 0.8432617
vt 0.8334961 0.8486328
vt 0.8447266 0.8491211
vn -0.0223999 -0.7319336 0.6811523
vn -0.02046204 -0.9042969 0.4262695
vn -0.07171631 -0.890625 0.4492188
vn -0.03622437 -0.972168 0.2304688
vn 0.005073547 -0.9975586 0.07073975
vn 0.005073547 -0.9975586 0.07073975
vn -0.07183838 -0.890625 -0.4492188
vn -0.02055359 -0.9042969 -0.4267578
vn -0.02264404 -0.730957 -0.6816406
vn -0.03619385 -0.972168 -0.2305908
vn 0.005191803 -0.9975586 -0.07086182
vn 0.005191803 -0.9975586 -0.07086182
vn -0.0006551743 -1 -0.006626129
vn -0.02049255 -0.9746094 -0.2227783
vn -0.0006079674 -0.9995117 0.03256226
vn -0.02056885 -0.9741211 -0.2242432
vn -0.02905273 -0.9243164 -0.3806152
vn -0.02905273 -0.9243164 -0.3806152
vn -0.004768372 0.984375 0.1759033
vn -0.004768372 0.984375 0.1759033
vn -0.004768372 0.984375 0.1759033
vn -0.004768372 0.984375 0.1759033
vn 0.008857727 0.9838867 0.1776123
vn 0.01797485 0.7070313 0.7070313
vn 0.01797485 0.7070313 0.7070313
vn 0.009414673 0.9785156 0.206665
vn -0.001537323 -0.8979492 0.4396973
vn -0.003606796 -0.9516602 0.3068848
vn -0.001537323 -0.8979492 0.4396973
vn 0.003469467 -0.96875 0.248291
vn -0.0006079674 -0.9995117 0.03256226
vn -0.0006551743 -1 -0.006626129
vn 0 -1 0
vn 0 -1 0
vn 0 -1 0
vn 0 -1 0
vn 1 0 0
vn 1 0 0
vn 1 0 0
vn 1 0 0
vn 0 0 1
vn 0 0 1
vn 0 0 1
vn 0 0 1
vn -0.005622864 0.9736328 -0.2275391
vn -0.005622864 0.9736328 -0.2275391
vn -0.005622864 0.9736328 -0.2275391
vn -0.005622864 0.9736328 -0.2275391
vn 0 1 0
vn 0 1 0
vn 0 1 0
vn 0 1 0
vn -1 0 0
vn -1 0 0
vn -1 0 0
vn -1 0 0
vn 0 0 -1
vn 0 0 -1
vn 0 0 -1
vn 0 0 -1
vn 0.02508545 0.9448242 -0.3269043
vn 0.008857727 0.9838867 0.1776123
vn 0.009414673 0.9785156 0.206665
vn 0.03010559 0.9560547 -0.2919922
vn 0.02740479 0.9790039 0.2012939
vn 0.01394653 0.9560547 0.2927246
vn 0.001225471 0.9858398 -0.1676025
vn 0.00213623 0.9804688 -0.1956787
vn 0.01852417 0.7333984 -0.6796875
vn 0.01852417 0.7333984 -0.6796875
g C_gift2_0
f 3/3/3 2/2/2 1/1/1
f 3/3/3 4/4/4 2/2/2
f 2/2/2 4/4/4 5/5/5
f 6/6/6 2/2/2 5/5/5
f 9/9/9 8/8/8 7/7/7
f 7/7/7 8/8/8 10/10/10
f 11/11/11 10/10/10 8/8/8
f 12/12/12 11/11/11 8/8/8
f 15/15/15 14/14/14 13/13/13
f 14/14/14 16/16/16 13/13/13
f 16/16/16 14/14/14 17/17/17
f 14/14/14 18/18/18 17/17/17
f 21/21/21 20/20/20 19/19/19
f 22/22/22 21/21/21 19/19/19
f 25/25/25 24/24/24 23/23/23
f 26/26/26 25/25/25 23/23/23
f 29/29/29 28/28/28 27/27/27
f 28/28/28 30/30/30 27/27/27
f 30/30/30 28/28/28 31/31/31
f 30/30/30 31/31/31 32/32/32
f 35/35/35 34/34/34 33/33/33
f 36/36/36 35/35/35 33/33/33
f 39/39/39 38/38/38 37/37/37
f 40/40/40 39/39/39 37/37/37
f 43/43/43 42/42/42 41/41/41
f 44/44/44 43/43/43 41/41/41
f 47/47/47 46/46/46 45/45/45
f 48/48/48 47/47/47 45/45/45
f 51/51/51 50/50/50 49/49/49
f 52/52/52 51/51/51 49/49/49
f 55/55/55 54/54/54 53/53/53
f 56/56/56 55/55/55 53/53/53
f 59/59/59 58/58/58 57/57/57
f 60/60/60 59/59/59 57/57/57
f 63/63/63 62/62/62 61/61/61
f 62/62/62 64/64/64 61/61/61
f 61/61/61 64/64/64 65/65/65
f 66/66/66 61/61/61 65/65/65
f 66/66/66 65/65/65 67/67/67
f 68/68/68 66/66/66 67/67/67
f 68/68/68 67/67/67 69/69/69
f 67/67/67 70/70/70 69/69/69
