g C_gift8
v -0.2038379 0.9441612 -0.1118199
v -0.1048829 0.9087004 -0.1955374
v -0.1059742 0.9759359 -0.1932514
v 0.1033448 0.8966076 -0.183322
v 0.2084006 0.9186491 -0.112077
v 0.1188442 0.9438384 -0.2059375
v -0.1887804 0.9035412 -0.09978402
v -0.1048829 0.9087004 -0.1955374
v -0.2038379 0.9441612 -0.1118199
v 0.2083718 0.9185742 0.1167829
v 0.1067288 0.9035412 0.1957661
v 0.1186812 0.9449846 0.2105856
v -0.1100362 0.9184787 0.206357
v -0.1809545 0.8962862 0.1011238
v -0.2038426 0.9439749 0.1165222
v -0.1100362 0.9184787 0.206357
v -0.06118119 0.8882522 0.1410918
v -0.1809545 0.8962862 0.1011238
v -0.09377324 0.8840893 0.03586485
v 0.03619318 0.8831167 0.0340151
v 0.03134876 0.883408 -0.08816493
v -0.1059742 0.9759359 -0.1932514
v -0.1574377 0.9803967 -0.07841431
v -0.2038379 0.9441612 -0.1118199
v -0.06847431 0.9695911 -0.1440651
v -0.06892729 0.9028272 -0.008697447
v 0.005329765 0.896135 -0.06047725
v 0.01738862 0.9059566 0.07728053
v 0.07319795 0.9010562 0.006886153
v 0.1665577 0.9807283 0.08770439
v 0.08538111 0.9804205 0.1644867
v 0.1186812 0.9449846 0.2105856
v 0.2083718 0.9185742 0.1167829
v 0.1033448 0.8966076 -0.183322
v 0.1448926 0.8884696 -0.06472708
v 0.2084006 0.9186491 -0.112077
v 0.03134876 0.883408 -0.08816493
v 0.03619318 0.8831167 0.0340151
v 0.0878096 0.8928427 0.1630871
v 0.1067288 0.9035412 0.1957661
v 0.2083718 0.9185742 0.1167829
v 0.1429725 0.8882204 0.06798071
v 0.03134916 0.8834076 0.09289273
v 0.03619318 0.8831167 -0.02928771
v -0.2103729 0.7916927 -0.2103584
v 0.2103729 0.7916927 -0.2103584
v 0.2103729 0.8845756 -0.2103584
v -0.2103729 0.8845756 -0.2103584
v 0.2103729 0.8845756 -0.2103584
v 0.2103729 0.8845756 0.2103586
v -0.2103729 0.8845756 0.2103586
v -0.2103729 0.8845756 -0.2103584
v -0.2027641 3.303286E-08 -0.202754
v 0.2027641 3.303286E-08 -0.202754
v 0.2027641 0.7907201 -0.2027538
v -0.2027641 0.7907201 -0.2027538
v -0.2103729 0.8845756 0.2103586
v 0.2103729 0.8845756 0.2103586
v 0.2103729 0.7916927 0.2103586
v -0.2103729 0.7916927 0.2103586
v 0.03619318 0.8831167 -0.02928771
v -0.09377324 0.8840893 -0.03113747
v 0.03134916 0.8834076 0.09289273
v -0.06117857 0.8882512 -0.1363616
v -0.1560831 0.8928427 -0.08087538
v -0.1048829 0.9087004 -0.1955374
v -0.1887804 0.9035412 -0.09978402
v 0.2027641 3.303286E-08 -0.202754
v 0.2027641 -3.303286E-08 0.2027539
v 0.2027641 0.7907201 0.2027541
v 0.2027641 0.7907201 -0.2027538
v 0.2027641 -3.303286E-08 0.2027539
v -0.2027641 -3.303286E-08 0.2027539
v -0.2027641 0.7907201 0.2027541
v 0.2027641 0.7907201 0.2027541
v -0.2103729 0.7916927 0.2103586
v -0.2103729 0.7916927 -0.2103584
v -0.2103729 0.8845756 -0.2103584
v -0.2103729 0.8845756 0.2103586
v -0.07982773 0.9833732 0.1632741
v -0.1100362 0.9184787 0.206357
v -0.2038426 0.9439749 0.1165222
v -0.1562076 0.9828442 0.08224133
v -0.07129388 0.9116324 0.01623983
v 0.005444585 0.9020684 0.0651572
v 0.01679116 0.9088819 -0.07233577
v 0.07437831 0.9073874 -0.003257809
v 0.1655756 0.9828441 -0.08217615
v 0.08483207 0.9825525 -0.1590309
v 0.1188442 0.9438384 -0.2059375
v 0.2084006 0.9186491 -0.112077
v -0.2027641 -3.303286E-08 0.2027539
v -0.2027641 3.303286E-08 -0.202754
v -0.2027641 0.7907201 -0.2027538
v -0.2027641 0.7907201 0.2027541
v 0.2103729 0.7916927 0.2103586
v 0.2103729 0.8845756 0.2103586
v 0.2103729 0.8845756 -0.2103584
v 0.2103729 0.7916927 -0.2103584
v 0.2027641 -3.303286E-08 0.2027539
v 0.2027641 3.303286E-08 -0.202754
v -0.2027641 3.303286E-08 -0.202754
v -0.2027641 -3.303286E-08 0.2027539
v 0.2103729 0.7916927 -0.2103584
v -0.2027641 0.7907201 -0.2027538
v 0.2027641 0.7907201 -0.2027538
v -0.2103729 0.7916927 -0.2103584
v 0.2103729 0.7916927 0.2103586
v -0.2027641 0.7907201 0.2027541
v 0.2027641 0.7907201 0.2027541
v -0.2103729 0.7916927 0.2103586
vt 0.7285156 0.6259766
vt 0.7436523 0.6303711
vt 0.7436523 0.6220703
vt 0.7133789 0.6083984
vt 0.7285156 0.6044922
vt 0.7128906 0.6015625
vt 0.7285156 0.6313477
vt 0.7436523 0.6303711
vt 0.7285156 0.6259766
vt 0.7436523 0.5537109
vt 0.7285156 0.5507813
vt 0.7285156 0.5566406
vt 0.7285156 0.5288086
vt 0.7133789 0.5249023
vt 0.7128906 0.5322266
vt 0.7285156 0.5288086
vt 0.7270508 0.5180664
vt 0.7133789 0.5249023
vt 0.715332 0.512207
vt 0.7260742 0.5004883
vt 0.715332 0.5009766
vt 0.7436523 0.6220703
vt 0.7294922 0.6162109
vt 0.7285156 0.6259766
vt 0.7426758 0.6142578
vt 0.730957 0.5986328
vt 0.7416992 0.5966797
vt 0.730957 0.5834961
vt 0.7416992 0.5849609
vt 0.7431641 0.565918
vt 0.7294922 0.565918
vt 0.7285156 0.5566406
vt 0.7436523 0.5537109
vt 0.7133789 0.6083984
vt 0.7270508 0.6152344
vt 0.7285156 0.6044922
vt 0.715332 0.6225586
vt 0.7260742 0.6328125
vt 0.7294922 0.5463867
vt 0.7285156 0.5507813
vt 0.7436523 0.5537109
vt 0.7426758 0.5429688
vt 0.7304688 0.5356445
vt 0.7412109 0.5253906
vt 0.9638672 0.7988281
vt 0.9638672 0.7480469
vt 0.9526367 0.7480469
vt 0.9526367 0.7988281
vt 0.934082 0.9858398
vt 0.9848633 0.9858398
vt 0.9848633 0.9350586
vt 0.934082 0.9350586
vt 0.8203125 0.5009766
vt 0.7714844 0.5009766
vt 0.7714844 0.5961914
vt 0.8203125 0.5961914
vt 0.8554688 0.7509766
vt 0.8554688 0.8017578
vt 0.8666992 0.8017578
vt 0.8666992 0.7509766
vt 0.7412109 0.6572266
vt 0.7304688 0.6455078
vt 0.7304688 0.6572266
vt 0.7426758 0.6396484
vt 0.7294922 0.6362305
vt 0.7436523 0.6303711
vt 0.7285156 0.6313477
vt 0.8188477 0.6044922
vt 0.7700195 0.6044922
vt 0.7700195 0.7001953
vt 0.8188477 0.7001953
vt 0.5009766 0.7583008
vt 0.5009766 0.8071289
vt 0.5961914 0.8071289
vt 0.5961914 0.7583008
vt 0.8920898 0.6518555
vt 0.8920898 0.6010742
vt 0.8808594 0.6010742
vt 0.8808594 0.6518555
vt 0.7275391 0.5415039
vt 0.7285156 0.5288086
vt 0.7128906 0.5322266
vt 0.7138672 0.5415039
vt 0.7158203 0.5585938
vt 0.7265625 0.5610352
vt 0.7158203 0.5742188
vt 0.7265625 0.5732422
vt 0.7275391 0.5917969
vt 0.7138672 0.5917969
vt 0.7128906 0.6015625
vt 0.7285156 0.6044922
vt 0.7700195 0.7973633
vt 0.8188477 0.7973633
vt 0.8188477 0.7021484
vt 0.7700195 0.7021484
vt 0.9677734 0.5756836
vt 0.956543 0.5756836
vt 0.956543 0.6264648
vt 0.9677734 0.6264648
vt 0.6264648 0.9858398
vt 0.675293 0.9858398
vt 0.675293 0.9370117
vt 0.6264648 0.9370117
vt 0.9072266 0.9858398
vt 0.90625 0.9360352
vt 0.90625 0.9848633
vt 0.9072266 0.9350586
vt 0.8564453 0.9858398
vt 0.8574219 0.9360352
vt 0.8574219 0.9848633
vt 0.8564453 0.9350586
vn -0.7504883 0.2183838 -0.6235352
vn -0.5307617 -0.5908203 -0.6074219
vn -0.454834 0.7133789 -0.5327148
vn 0.3798828 -0.8286133 -0.4108887
vn 0.7626953 -0.2130127 -0.6108398
vn 0.6967773 0.2056885 -0.6870117
vn -0.4780273 -0.7470703 -0.4619141
vn -0.5307617 -0.5908203 -0.6074219
vn -0.7504883 0.2183838 -0.6235352
vn 0.7514648 -0.2283936 0.6191406
vn 0.4724121 -0.7416992 0.4763184
vn 0.6962891 0.2440186 0.675293
vn -0.6103516 -0.2163086 0.762207
vn -0.4106445 -0.828125 0.3815918
vn -0.6884766 0.2081299 0.6948242
vn -0.6103516 -0.2163086 0.762207
vn -0.09356689 -0.9848633 0.1463623
vn -0.4106445 -0.828125 0.3815918
vn -0.0378418 -0.9985352 0.03646851
vn 0.006980896 -1 0.01216888
vn 0.03817749 -0.9990234 -0.02806091
vn -0.454834 0.7133789 -0.5327148
vn -0.03427124 0.996582 0.07281494
vn -0.7504883 0.2183838 -0.6235352
vn 0.2744141 0.9331055 0.2322998
vn 0.2393799 0.9472656 0.2130127
vn 0.1938477 0.9692383 0.1523438
vn -0.2148438 0.9418945 -0.2575684
vn -0.1804199 0.9560547 -0.2310791
vn 0.1290283 0.9902344 0.05422974
vn 0.1251221 0.9907227 0.05075073
vn 0.6962891 0.2440186 0.675293
vn 0.7514648 -0.2283936 0.6191406
vn 0.3798828 -0.8286133 -0.4108887
vn 0.1574707 -0.9824219 -0.09906006
vn 0.7626953 -0.2130127 -0.6108398
vn 0.03817749 -0.9990234 -0.02806091
vn 0.006980896 -1 0.01216888
vn 0.197998 -0.9682617 0.152832
vn 0.4724121 -0.7416992 0.4763184
vn 0.7514648 -0.2283936 0.6191406
vn 0.1531982 -0.9819336 0.1092529
vn 0.03701782 -0.9990234 0.02578735
vn 0.006584167 -1 -0.01219177
vn -0.5893555 -0.5522461 -0.5893555
vn 0.5893555 -0.5522461 -0.5893555
vn 0 0 -1
vn 0 0 -1
vn 0 1 0
vn 0 1 0
vn 0 1 0
vn 0 1 0
vn 0 0 -1
vn 0 0 -1
vn 0.3483887 -0.8701172 -0.3486328
vn -0.3483887 -0.8701172 -0.3486328
vn 0 0 1
vn 0 0 1
vn 0.5893555 -0.5522461 0.5893555
vn -0.5893555 -0.5522461 0.5893555
vn 0.006584167 -1 -0.01219177
vn -0.03656006 -0.9985352 -0.03591919
vn 0.03701782 -0.9990234 0.02578735
vn -0.1020508 -0.987793 -0.1169434
vn -0.1437988 -0.9765625 -0.1588135
vn -0.5307617 -0.5908203 -0.6074219
vn -0.4780273 -0.7470703 -0.4619141
vn 1 0 0
vn 1 0 0
vn 0.3483887 -0.8701172 0.3486328
vn 0.3483887 -0.8701172 -0.3486328
vn 0 0 1
vn 0 0 1
vn -0.3483887 -0.8701172 0.3486328
vn 0.3483887 -0.8701172 0.3486328
vn -0.5893555 -0.5522461 0.5893555
vn -0.5893555 -0.5522461 -0.5893555
vn -1 0 0
vn -1 0 0
vn -0.06817627 0.9887695 0.1333008
vn -0.6103516 -0.2163086 0.762207
vn -0.6884766 0.2081299 0.6948242
vn -0.0647583 0.9892578 0.1293945
vn 0.2683105 0.9399414 -0.211792
vn 0.1972656 0.9692383 -0.1462402
vn -0.2089844 0.9482422 0.2381592
vn -0.2120361 0.9536133 0.2141113
vn 0.1317139 0.9887695 -0.06732178
vn 0.12854 0.9897461 -0.0645752
vn 0.6967773 0.2056885 -0.6870117
vn 0.7626953 -0.2130127 -0.6108398
vn -1 0 0
vn -1 0 0
vn -0.3483887 -0.8701172 -0.3486328
vn -0.3483887 -0.8701172 0.3486328
vn 0.5893555 -0.5522461 0.5893555
vn 1 0 0
vn 1 0 0
vn 0.5893555 -0.5522461 -0.5893555
vn 0 -1 0
vn 0 -1 0
vn 0 -1 0
vn 0 -1 0
vn 0.5893555 -0.5522461 -0.5893555
vn -0.3483887 -0.8701172 -0.3486328
vn 0.3483887 -0.8701172 -0.3486328
vn -0.5893555 -0.5522461 -0.5893555
vn 0.5893555 -0.5522461 0.5893555
vn -0.3483887 -0.8701172 0.3486328
vn 0.3483887 -0.8701172 0.3486328
vn -0.5893555 -0.5522461 0.5893555
g C_gift8_0
f 3/3/3 2/2/2 1/1/1
f 6/6/6 5/5/5 4/4/4
f 9/9/9 8/8/8 7/7/7
f 12/12/12 11/11/11 10/10/10
f 15/15/15 14/14/14 13/13/13
f 18/18/18 17/17/17 16/16/16
f 18/18/18 19/19/19 17/17/17
f 20/20/20 17/17/17 19/19/19
f 21/21/21 20/20/20 19/19/19
f 24/24/24 23/23/23 22/22/22
f 25/25/25 22/22/22 23/23/23
f 23/23/23 26/26/26 25/25/25
f 26/26/26 27/27/27 25/25/25
f 27/27/27 26/26/26 28/28/28
f 29/29/29 27/27/27 28/28/28
f 30/30/30 29/29/29 28/28/28
f 31/31/31 30/30/30 28/28/28
f 31/31/31 32/32/32 30/30/30
f 32/32/32 33/33/33 30/30/30
f 36/36/36 35/35/35 34/34/34
f 34/34/34 35/35/35 37/37/37
f 35/35/35 38/38/38 37/37/37
f 41/41/41 40/40/40 39/39/39
f 42/42/42 41/41/41 39/39/39
f 39/39/39 43/43/43 42/42/42
f 42/42/42 43/43/43 44/44/44
f 47/47/47 46/46/46 45/45/45
f 48/48/48 47/47/47 45/45/45
f 51/51/51 50/50/50 49/49/49
f 52/52/52 51/51/51 49/49/49
f 55/55/55 54/54/54 53/53/53
f 56/56/56 55/55/55 53/53/53
f 59/59/59 58/58/58 57/57/57
f 60/60/60 59/59/59 57/57/57
f 63/63/63 62/62/62 61/61/61
f 62/62/62 64/64/64 61/61/61
f 65/65/65 64/64/64 62/62/62
f 64/64/64 65/65/65 66/66/66
f 65/65/65 67/67/67 66/66/66
f 70/70/70 69/69/69 68/68/68
f 71/71/71 70/70/70 68/68/68
f 74/74/74 73/73/73 72/72/72
f 75/75/75 74/74/74 72/72/72
f 78/78/78 77/77/77 76/76/76
f 79/79/79 78/78/78 76/76/76
f 82/82/82 81/81/81 80/80/80
f 83/83/83 82/82/82 80/80/80
f 83/83/83 80/80/80 84/84/84
f 80/80/80 85/85/85 84/84/84
f 86/86/86 84/84/84 85/85/85
f 85/85/85 87/87/87 86/86/86
f 86/86/86 87/87/87 88/88/88
f 89/89/89 86/86/86 88/88/88
f 89/89/89 88/88/88 90/90/90
f 88/88/88 91/91/91 90/90/90
f 94/94/94 93/93/93 92/92/92
f 95/95/95 94/94/94 92/92/92
f 98/98/98 97/97/97 96/96/96
f 99/99/99 98/98/98 96/96/96
f 102/102/102 101/101/101 100/100/100
f 103/103/103 102/102/102 100/100/100
f 106/106/106 105/105/105 104/104/104
f 104/104/104 105/105/105 107/107/107
f 104/104/104 108/108/108 106/106/106
f 105/105/105 109/109/109 107/107/107
f 106/106/106 108/108/108 110/110/110
f 107/107/107 109/109/109 111/111/111
f 109/109/109 110/110/110 111/111/111
f 111/111/111 110/110/110 108/108/108
