g C_gift1
v -0.1963138 0.08700395 0.0925616
v -0.2043261 0.1034845 0.09928491
v -0.1671778 0.09466348 0.1275315
v -0.05709638 0.09263565 0.08414494
v -0.09199242 0.08725335 0.1133236
v -0.08570513 0.1046631 0.1208726
v -0.1014803 0.09864371 -0.02039885
v -0.06748764 0.0914667 0.004520129
v -0.06827155 0.1097861 0.01112862
v -0.1058884 0.08674134 -0.01838995
v -0.1804921 0.0916901 -0.01597357
v -0.2125163 0.1047898 0.01764251
v -0.2042718 0.08743957 0.02209692
v -0.1806732 0.115438 -0.01517326
v -0.06827155 0.1097861 0.01112862
v -0.1116063 0.108431 -0.009315981
v -0.1014803 0.09864371 -0.02039885
v -0.08540238 0.1045703 0.0202033
v -0.1321386 0.09128533 0.02349431
v -0.1216403 0.08175591 0.06080323
v -0.159432 0.08965157 0.05687993
v -0.1582476 0.1117472 0.1111655
v -0.1887831 0.1115164 0.085454
v -0.2043261 0.1034845 0.09928491
v -0.1671778 0.09466348 0.1275315
v 0.228458 0 0.1437694
v 0.228458 0.0831801 0.1437694
v 0.228458 0.0831801 -0.1437693
v 0.228458 0 -0.1437693
v -0.1058884 0.08674134 -0.01838995
v -0.08784813 0.08416222 0.0229996
v -0.06748764 0.0914667 0.004520129
v -0.1257801 0.0827606 0.01439806
v -0.1215391 0.0823411 0.06089307
v -0.1644609 0.08244226 0.06254773
v -0.228458 0.0831801 0.1437694
v -0.228458 0 0.1437694
v -0.228458 0 -0.1437693
v -0.228458 0.0831801 -0.1437693
v -0.1220344 0.08244605 0.08117916
v -0.09199242 0.08725335 0.1133236
v -0.05709638 0.09263565 0.08414494
v -0.1133774 0.08216672 0.04696095
v -0.2125163 0.1047898 0.01764251
v -0.1806732 0.115438 -0.01517326
v -0.1942923 0.1251546 0.0281569
v -0.1648501 0.1212616 0.001807248
v -0.1615121 0.08540179 0.04877803
v -0.1242087 0.08280628 0.03831509
v -0.1276864 0.0839002 0.07630668
v -0.07358932 0.1142932 0.07486494
v -0.09929715 0.1142663 0.1054979
v -0.08570513 0.1046631 0.1208726
v -0.05709638 0.09263565 0.08414494
v -0.1804921 0.0916901 -0.01597357
v -0.2042718 0.08743957 0.02209692
v -0.1619356 0.0841777 0.004334718
v -0.1704227 0.0827606 0.04235125
v -0.1133774 0.08216672 0.04696095
v -0.1220344 0.08244605 0.08117916
v -0.228458 0 0.1437694
v -0.228458 0.0831801 0.1437694
v 0.228458 0.0831801 0.1437694
v 0.228458 0 0.1437694
v -0.1215391 0.0823411 0.06089307
v -0.1644609 0.08244226 0.06254773
v -0.1532118 0.08446404 0.1037199
v -0.1963138 0.08700395 0.0925616
v -0.1671778 0.09466348 0.1275315
v 0.228458 0.0831801 -0.1437693
v 0.228458 0.0831801 0.1437694
v -0.228458 0.0831801 0.1437694
v -0.228458 0.0831801 -0.1437693
v -0.228458 0.0831801 -0.1437693
v -0.228458 0 -0.1437693
v 0.228458 0 -0.1437693
v 0.228458 0.0831801 -0.1437693
v 0.228458 0 -0.1437693
v -0.228458 0 -0.1437693
v -0.228458 0 0.1437694
v 0.228458 0 0.1437694
vt 0.5786133 0.6850586
vt 0.578125 0.6879883
vt 0.5849609 0.6865234
vt 0.8266602 0.7426758
vt 0.8203125 0.7412109
vt 0.8203125 0.7441406
vt 0.578125 0.7177734
vt 0.5849609 0.7197266
vt 0.5849609 0.7163086
vt 0.5786133 0.7207031
vt 0.8266602 0.7758789
vt 0.8203125 0.7734375
vt 0.8203125 0.7763672
vt 0.8266602 0.7719727
vt 0.5849609 0.7163086
vt 0.5786133 0.7133789
vt 0.578125 0.7177734
vt 0.5844727 0.7124023
vt 0.5795898 0.7060547
vt 0.5839844 0.703125
vt 0.5795898 0.699707
vt 0.5844727 0.6923828
vt 0.5786133 0.6923828
vt 0.578125 0.6879883
vt 0.5849609 0.6865234
vt 0.597168 0.7255859
vt 0.609375 0.7255859
vt 0.609375 0.6845703
vt 0.597168 0.6845703
vt 0.5786133 0.7207031
vt 0.5844727 0.7241211
vt 0.5849609 0.7197266
vt 0.5791016 0.7260742
vt 0.5839844 0.730957
vt 0.5791016 0.730957
vt 0.8413086 0.7460938
vt 0.8291016 0.7460938
vt 0.8291016 0.7871094
vt 0.8413086 0.7871094
vt 0.8212891 0.7348633
vt 0.8203125 0.7412109
vt 0.8266602 0.7426758
vt 0.8256836 0.7329102
vt 0.8203125 0.7734375
vt 0.8266602 0.7719727
vt 0.8208008 0.7695313
vt 0.8261719 0.7685547
vt 0.8212891 0.762207
vt 0.8261719 0.7587891
vt 0.8212891 0.7558594
vt 0.8266602 0.7485352
vt 0.8208008 0.7485352
vt 0.8203125 0.7441406
vt 0.8266602 0.7426758
vt 0.8266602 0.7758789
vt 0.8203125 0.7763672
vt 0.8261719 0.7797852
vt 0.8212891 0.7822266
vt 0.8256836 0.7871094
vt 0.8212891 0.7871094
vt 0.8671875 0.6660156
vt 0.8793945 0.6660156
vt 0.8793945 0.6005859
vt 0.8671875 0.6005859
vt 0.5839844 0.6748047
vt 0.5791016 0.6787109
vt 0.5844727 0.6821289
vt 0.5786133 0.6850586
vt 0.5849609 0.6865234
vt 0.8647461 0.6005859
vt 0.8237305 0.6005859
vt 0.8237305 0.6660156
vt 0.8647461 0.6660156
vt 0.8320313 0.8007813
vt 0.8203125 0.8007813
vt 0.8203125 0.8666992
vt 0.8320313 0.8666992
vt 0.9335938 0.8198242
vt 0.9335938 0.8857422
vt 0.9750977 0.8857422
vt 0.9750977 0.8198242
vn -0.3564453 -0.8413086 0.4060059
vn -0.5883789 -0.5336914 0.6074219
vn -0.2670898 -0.8706055 0.4133301
vn 0.2897949 -0.9375 0.1936035
vn 0.409668 -0.8427734 0.348877
vn 0.6020508 -0.4904785 0.6298828
vn 0.4934082 0.2758789 -0.824707
vn 0.6044922 -0.3747559 -0.703125
vn 0.3395996 0.8364258 -0.4301758
vn 0.3405762 -0.8081055 -0.480957
vn -0.5874023 -0.5834961 -0.5605469
vn -0.8105469 0.1345215 -0.5698242
vn -0.467041 -0.8144531 -0.3439941
vn -0.581543 0.5844727 -0.565918
vn 0.3395996 0.8364258 -0.4301758
vn -0.02682495 0.9970703 -0.07104492
vn 0.4934082 0.2758789 -0.824707
vn -0.1953125 0.9375 0.2875977
vn -0.1181641 0.9511719 0.2858887
vn 0.0836792 0.9951172 0.05340576
vn 0.2445068 0.9482422 -0.2025146
vn -0.02720642 0.9951172 0.09301758
vn -0.02839661 0.9951172 0.09484863
vn -0.2724609 0.8369141 0.4750977
vn -0.2724609 0.8369141 0.4750977
vn 1 0 0
vn 1 0 0
vn 1 0 0
vn 1 0 0
vn 0.3405762 -0.8081055 -0.480957
vn 0.102417 -0.9907227 -0.08685303
vn 0.6044922 -0.3747559 -0.703125
vn 0.03201294 -0.9985352 -0.03955078
vn 0.01215363 -1 0.005996704
vn -0.02104187 -0.9990234 0.04043579
vn -1 0 0
vn -1 0 0
vn -1 0 0
vn -1 0 0
vn 0.09747314 -0.9951172 0.01085663
vn 0.409668 -0.8427734 0.348877
vn 0.2897949 -0.9375 0.1936035
vn 0.0526123 -0.9985352 -0.001271248
vn -0.8105469 0.1345215 -0.5698242
vn -0.581543 0.5844727 -0.565918
vn -0.1326904 0.9897461 0.05587769
vn 0.1711426 0.9667969 0.1895752
vn 0.2924805 0.8735352 0.3894043
vn -0.01537323 0.9936523 0.109375
vn -0.3237305 0.9321289 -0.1633301
vn 0.08026123 0.9941406 0.07366943
vn 0.08599854 0.9931641 0.07659912
vn 0.5527344 0.7744141 0.3076172
vn 0.5527344 0.7744141 0.3076172
vn -0.5874023 -0.5834961 -0.5605469
vn -0.467041 -0.8144531 -0.3439941
vn -0.09429932 -0.9902344 -0.1025391
vn -0.04431152 -0.9985352 -0.03384399
vn 0.0526123 -0.9985352 -0.001271248
vn 0.09747314 -0.9951172 0.01085663
vn 0 0 1
vn 0 0 1
vn 0 0 1
vn 0 0 1
vn 0.01215363 -1 0.005996704
vn -0.02104187 -0.9990234 0.04043579
vn -0.08074951 -0.9829102 0.1652832
vn -0.3564453 -0.8413086 0.4060059
vn -0.2670898 -0.8706055 0.4133301
vn 0 1 0
vn 0 1 0
vn 0 1 0
vn 0 1 0
vn 0 0 -1
vn 0 0 -1
vn 0 0 -1
vn 0 0 -1
vn 0 -1 0
vn 0 -1 0
vn 0 -1 0
vn 0 -1 0
g C_gift1_0
f 3/3/3 2/2/2 1/1/1
f 6/6/6 5/5/5 4/4/4
f 9/9/9 8/8/8 7/7/7
f 7/7/7 8/8/8 10/10/10
f 13/13/13 12/12/12 11/11/11
f 11/11/11 12/12/12 14/14/14
f 17/17/17 16/16/16 15/15/15
f 18/18/18 15/15/15 16/16/16
f 16/16/16 19/19/19 18/18/18
f 19/19/19 20/20/20 18/18/18
f 21/21/21 20/20/20 19/19/19
f 22/22/22 20/20/20 21/21/21
f 23/23/23 22/22/22 21/21/21
f 23/23/23 24/24/24 22/22/22
f 24/24/24 25/25/25 22/22/22
f 28/28/28 27/27/27 26/26/26
f 29/29/29 28/28/28 26/26/26
f 32/32/32 31/31/31 30/30/30
f 30/30/30 31/31/31 33/33/33
f 33/33/33 31/31/31 34/34/34
f 35/35/35 33/33/33 34/34/34
f 38/38/38 37/37/37 36/36/36
f 39/39/39 38/38/38 36/36/36
f 42/42/42 41/41/41 40/40/40
f 43/43/43 42/42/42 40/40/40
f 46/46/46 45/45/45 44/44/44
f 46/46/46 47/47/47 45/45/45
f 47/47/47 46/46/46 48/48/48
f 49/49/49 47/47/47 48/48/48
f 48/48/48 50/50/50 49/49/49
f 49/49/49 50/50/50 51/51/51
f 50/50/50 52/52/52 51/51/51
f 51/51/51 52/52/52 53/53/53
f 54/54/54 51/51/51 53/53/53
f 57/57/57 56/56/56 55/55/55
f 58/58/58 56/56/56 57/57/57
f 58/58/58 57/57/57 59/59/59
f 60/60/60 58/58/58 59/59/59
f 63/63/63 62/62/62 61/61/61
f 64/64/64 63/63/63 61/61/61
f 67/67/67 66/66/66 65/65/65
f 67/67/67 68/68/68 66/66/66
f 67/67/67 69/69/69 68/68/68
f 72/72/72 71/71/71 70/70/70
f 73/73/73 72/72/72 70/70/70
f 76/76/76 75/75/75 74/74/74
f 77/77/77 76/76/76 74/74/74
f 80/80/80 79/79/79 78/78/78
f 81/81/81 80/80/80 78/78/78
