g Light_Switch
v -0.00574433 0.002249195 0.04129363
v -0.0092714 0.009933363 0.03417635
v 0.004770953 0.009097903 0.03854815
v -0.007999884 0.00602747 0.059757
v -0.0002370636 0.001309879 0.06630464
v -0.002664674 -0.004684918 0.06504826
v 0.002316811 0.009602968 0.0593911
v 0.009720474 0.001438968 0.05967094
v 0.006742357 -0.006287922 0.05680564
v -0.0003323622 -0.009873579 0.05912757
v -0.002664674 -0.004684918 0.06504826
v -0.00574433 0.002249195 0.04129363
v -0.002026258 -0.00888945 0.03893798
v -0.01108775 -0.002777182 0.03757713
v -0.001352516 0.004708297 0.04688403
v -0.00574433 0.002249195 0.04129363
v 0.004770953 0.009097903 0.03854815
v -0.002195407 0.007853849 0.0197251
v -0.005645584 -0.005428726 0.01983237
v 0.007408275 -0.002384978 0.01978399
v -0.0002370636 0.001309879 0.06630464
v 0.009720474 0.001438968 0.05967094
v -0.002664674 -0.004684918 0.06504826
v -0.03919556 -0.0524266 0.02942245
v -0.03122528 0.04445648 0.03371414
v -0.03122528 -0.04445633 0.03371414
v -0.03919556 0.05242676 0.02942245
v 0.03122467 0.04445648 0.03371414
v -0.03919556 0.05242676 0.02942245
v 0.03919495 0.05242676 0.02942245
v -0.03122528 0.04445648 0.03371414
v 0.03122467 -0.04445633 0.03371414
v -0.03122528 -0.04445633 0.03371414
v 0.03919495 -0.0524266 0.02942245
v -0.03919556 -0.0524266 0.02942245
v 0.03122467 0.04445648 0.03371414
v 0.03919495 -0.0524266 0.02942245
v 0.03122467 -0.04445633 0.03371414
v 0.03919495 0.05242676 0.02942245
v -0.002195407 0.007853849 0.0197251
v 0.002953144 0.01330467 0.03113615
v -0.0092714 0.009933363 0.03417635
v 0.004770953 0.009097903 0.03854815
v -0.01257604 -0.006543544 0.03078228
v 0.003041022 -0.0130337 0.0318276
v -0.005645584 -0.005428726 0.01983237
v 0.007408275 -0.002384978 0.01978399
v -0.002026258 -0.00888945 0.03893798
v 0.00600195 -0.00694272 0.03882925
v 0.004087844 -0.001650112 0.04692301
v -0.003205599 -0.002988931 0.04693563
v -0.0003323622 -0.009873579 0.05912757
v 0.006742357 -0.006287922 0.05680564
v -0.01108775 -0.002777182 0.03757713
v -0.002026258 -0.00888945 0.03893798
v -0.01257604 -0.006543544 0.03078228
v 0.003041022 -0.0130337 0.0318276
v -0.01108775 -0.002777182 0.03757713
v -0.01257604 -0.006543544 0.03078228
v -0.0092714 0.009933363 0.03417635
v -0.00574433 0.002249195 0.04129363
v -0.002664674 -0.004684918 0.06504826
v -0.0003323622 -0.009873579 0.05912757
v -0.009249118 -0.00248972 0.05706739
v -0.003205599 -0.002988931 0.04693563
v -0.007999884 0.00602747 0.059757
v -0.002664674 -0.004684918 0.06504826
v -0.009249118 -0.00248972 0.05706739
v -0.001352516 0.004708297 0.04688403
v -0.003205599 -0.002988931 0.04693563
v -0.00574433 0.002249195 0.04129363
v -0.002026258 -0.00888945 0.03893798
v -0.0002370636 0.001309879 0.06630464
v -0.007999884 0.00602747 0.059757
v 0.002316811 0.009602968 0.0593911
v -0.001352516 0.004708297 0.04688403
v 0.03919495 -0.0524266 0.02942245
v 0.03919495 0.05242676 0.02942245
v 0.0497403 0.06297211 0.01286873
v 0.0497403 -0.06297195 0.01286873
v 0.0497403 0.06297211 -0.0001117706
v 0.0497403 -0.06297195 -0.0001117706
v -0.0497406 -0.06297195 0.01286873
v 0.0497403 -0.06297195 -0.0001117706
v -0.0497406 -0.06297195 -0.0001117706
v 0.0497403 -0.06297195 0.01286873
v 0.03919495 -0.0524266 0.02942245
v -0.03919556 -0.0524266 0.02942245
v -0.0497406 -0.06297195 0.01286873
v -0.03919556 0.05242676 0.02942245
v -0.03919556 -0.0524266 0.02942245
v -0.0497406 0.06297211 0.01286873
v -0.0497406 0.06297211 -0.0001117706
v -0.0497406 -0.06297195 -0.0001117706
v -0.0497406 0.06297211 0.01286873
v 0.03919495 0.05242676 0.02942245
v -0.03919556 0.05242676 0.02942245
v 0.0497403 0.06297211 0.01286873
v -0.0497406 0.06297211 -0.0001117706
v 0.0497403 0.06297211 -0.0001117706
v -0.0497406 -0.06297195 -0.0001117706
v 0.0497403 -0.06297195 -0.0001117706
v 0.0497403 0.06297211 -0.0001117706
v -0.0497406 0.06297211 -0.0001117706
v -0.01257604 -0.006543544 0.03078228
v -0.005645584 -0.005428726 0.01983237
v -0.002195407 0.007853849 0.0197251
v -0.0092714 0.009933363 0.03417635
v 0.009720474 0.001438968 0.05967094
v 0.002316811 0.009602968 0.0593911
v -0.001352516 0.004708297 0.04688403
v 0.004087844 -0.001650112 0.04692301
v 0.006742357 -0.006287922 0.05680564
v 0.009176312 0.0003103007 0.03875932
v 0.00600195 -0.00694272 0.03882925
v 0.004770953 0.009097903 0.03854815
v 0.01428177 0.0004881796 0.0315604
v 0.003041022 -0.0130337 0.0318276
v 0.002953144 0.01330467 0.03113615
v 0.007408275 -0.002384978 0.01978399
v -0.002195407 0.007853849 0.0197251
vt 0.1955566 0.2434082
vt 0.1972656 0.2460938
vt 0.199585 0.2429199
vt 0.1940918 0.2376709
vt 0.1947021 0.2354736
vt 0.1937256 0.2344971
vt 0.1960449 0.2375488
vt 0.1972656 0.2359619
vt 0.1986084 0.2351074
vt 0.1994629 0.2333984
vt 0.1931152 0.2352295
vt 0.1955566 0.2434082
vt 0.1914063 0.2437744
vt 0.1939697 0.2453613
vt 0.1966553 0.2406006
vt 0.1955566 0.2434082
vt 0.199585 0.2429199
vt 0.2015381 0.2478027
vt 0.2078857 0.244873
vt 0.2050781 0.2440186
vt 0.1947021 0.2354736
vt 0.1972656 0.2359619
vt 0.1931152 0.2352295
vt 0.01876831 0.2114258
vt 0.02153015 0.2409668
vt 0.02153015 0.2138672
vt 0.01876831 0.2434082
vt 0.4726563 0.447998
vt 0.4938965 0.4450684
vt 0.4702148 0.4450684
vt 0.4914551 0.447998
vt 0.4726563 0.4750977
vt 0.4914551 0.4750977
vt 0.4702148 0.4777832
vt 0.4938965 0.4777832
vt 0.02851868 0.3034668
vt 0.02575684 0.3330078
vt 0.02851868 0.3305664
vt 0.02575684 0.3010254
vt 0.2015381 0.2478027
vt 0.2004395 0.2454834
vt 0.1972656 0.2460938
vt 0.199585 0.2429199
vt 0.2108154 0.2451172
vt 0.2071533 0.2402344
vt 0.2078857 0.244873
vt 0.2050781 0.2440186
vt 0.204834 0.2376709
vt 0.2033691 0.2393799
vt 0.2001953 0.237915
vt 0.2017822 0.2363281
vt 0.1994629 0.2333984
vt 0.1986084 0.2351074
vt 0.1939697 0.2453613
vt 0.1914063 0.2437744
vt 0.192749 0.2470703
vt 0.1889648 0.2451172
vt 0.1939697 0.2453613
vt 0.192749 0.2470703
vt 0.1972656 0.2460938
vt 0.1955566 0.2434082
vt 0.1937256 0.2344971
vt 0.1899414 0.2382813
vt 0.192749 0.2382813
vt 0.1931152 0.2414551
vt 0.1940918 0.2376709
vt 0.1937256 0.2344971
vt 0.192749 0.2382813
vt 0.1966553 0.2406006
vt 0.1931152 0.2414551
vt 0.1955566 0.2434082
vt 0.1914063 0.2437744
vt 0.1947021 0.2354736
vt 0.1940918 0.2376709
vt 0.1960449 0.2375488
vt 0.1966553 0.2406006
vt 0.02575684 0.3330078
vt 0.02575684 0.3010254
vt 0.01977539 0.2978516
vt 0.01977539 0.3361816
vt 0.01582336 0.2978516
vt 0.01582336 0.3361816
vt 0.4973145 0.4836426
vt 0.4667969 0.487793
vt 0.4973145 0.487793
vt 0.4667969 0.4836426
vt 0.4702148 0.4777832
vt 0.4938965 0.4777832
vt 0.01279449 0.208252
vt 0.01876831 0.2434082
vt 0.01876831 0.2114258
vt 0.01279449 0.246582
vt 0.008834839 0.246582
vt 0.008834839 0.208252
vt 0.4973145 0.439209
vt 0.4702148 0.4450684
vt 0.4938965 0.4450684
vt 0.4667969 0.439209
vt 0.4973145 0.4353027
vt 0.4667969 0.4353027
vt 0.3303223 0.4968262
vt 0.3432617 0.4968262
vt 0.3432617 0.4804688
vt 0.3303223 0.4804688
vt 0.2108154 0.2451172
vt 0.2078857 0.244873
vt 0.2050781 0.2471924
vt 0.2092285 0.2495117
vt 0.1972656 0.2359619
vt 0.1960449 0.2375488
vt 0.1966553 0.2406006
vt 0.2001953 0.237915
vt 0.1986084 0.2351074
vt 0.201416 0.2408447
vt 0.2033691 0.2393799
vt 0.199585 0.2429199
vt 0.2030029 0.2425537
vt 0.2071533 0.2402344
vt 0.2004395 0.2454834
vt 0.2050781 0.2440186
vt 0.2015381 0.2478027
vn -0.7050781 0.2910156 0.6464844
vn -0.7011719 0.690918 0.1751709
vn 0.3850098 0.7524414 0.5341797
vn -0.78125 0.5751953 0.2416992
vn 0.03686523 0.1329346 0.9902344
vn -0.2247314 -0.4855957 0.8447266
vn 0.2792969 0.9423828 0.1833496
vn 0.953125 0.1424561 0.2670898
vn 0.7041016 -0.7084961 0.04959106
vn -0.006153107 -0.9819336 0.1889648
vn -0.2247314 -0.4855957 0.8447266
vn -0.7050781 0.2910156 0.6464844
vn -0.2507324 -0.8007813 0.5439453
vn -0.7885742 -0.1846924 0.5864258
vn -0.2570801 0.9663086 -0.01514435
vn -0.7050781 0.2910156 0.6464844
vn 0.3850098 0.7524414 0.5341797
vn -0.1690674 0.5795898 -0.796875
vn -0.4555664 -0.3989258 -0.7958984
vn 0.5805664 -0.1710205 -0.7958984
vn 0.03686523 0.1329346 0.9902344
vn 0.953125 0.1424561 0.2670898
vn -0.2247314 -0.4855957 0.8447266
vn -0.7558594 0 0.6547852
vn -0.4741211 0 0.8803711
vn -0.4741211 0 0.8803711
vn -0.7558594 0 0.6547852
vn 0 0.2897949 0.9570313
vn 0 0.7558594 0.6547852
vn 0 0.7558594 0.6547852
vn 0 0.2897949 0.9570313
vn 0 -0.2897949 0.9570313
vn 0 -0.2897949 0.9570313
vn 0 -0.7558594 0.6547852
vn 0 -0.7558594 0.6547852
vn 0.4741211 0 0.8803711
vn 0.7558594 0 0.6547852
vn 0.4741211 0 0.8803711
vn 0.7558594 0 0.6547852
vn -0.1690674 0.5795898 -0.796875
vn 0.2792969 0.9580078 -0.06311035
vn -0.7011719 0.690918 0.1751709
vn 0.3850098 0.7524414 0.5341797
vn -0.8852539 -0.4543457 -0.1011963
vn 0.2342529 -0.972168 -0.01338959
vn -0.4555664 -0.3989258 -0.7958984
vn 0.5805664 -0.1710205 -0.7958984
vn -0.2507324 -0.8007813 0.5439453
vn 0.5712891 -0.659668 0.4887695
vn 0.9360352 -0.3261719 0.1324463
vn -0.7490234 -0.6616211 -0.04095459
vn -0.006153107 -0.9819336 0.1889648
vn 0.7041016 -0.7084961 0.04959106
vn -0.7885742 -0.1846924 0.5864258
vn -0.2507324 -0.8007813 0.5439453
vn -0.8852539 -0.4543457 -0.1011963
vn 0.2342529 -0.972168 -0.01338959
vn -0.7885742 -0.1846924 0.5864258
vn -0.8852539 -0.4543457 -0.1011963
vn -0.7011719 0.690918 0.1751709
vn -0.7050781 0.2910156 0.6464844
vn -0.2247314 -0.4855957 0.8447266
vn -0.006153107 -0.9819336 0.1889648
vn -0.9550781 -0.2956543 -0.0246582
vn -0.7490234 -0.6616211 -0.04095459
vn -0.78125 0.5751953 0.2416992
vn -0.2247314 -0.4855957 0.8447266
vn -0.9550781 -0.2956543 -0.0246582
vn -0.2570801 0.9663086 -0.01514435
vn -0.7490234 -0.6616211 -0.04095459
vn -0.7050781 0.2910156 0.6464844
vn -0.2507324 -0.8007813 0.5439453
vn 0.03686523 0.1329346 0.9902344
vn -0.78125 0.5751953 0.2416992
vn 0.2792969 0.9423828 0.1833496
vn -0.2570801 0.9663086 -0.01514435
vn 0.7558594 0 0.6547852
vn 0.7558594 0 0.6547852
vn 0.9736328 0 0.227417
vn 0.9736328 0 0.227417
vn 1 0 0
vn 1 0 0
vn 0 -0.9736328 0.227417
vn 0 -1 0
vn 0 -1 0
vn 0 -0.9736328 0.227417
vn 0 -0.7558594 0.6547852
vn 0 -0.7558594 0.6547852
vn -0.9736328 0 0.227417
vn -0.7558594 0 0.6547852
vn -0.7558594 0 0.6547852
vn -0.9736328 0 0.227417
vn -1 0 0
vn -1 0 0
vn 0 0.9736328 0.227417
vn 0 0.7558594 0.6547852
vn 0 0.7558594 0.6547852
vn 0 0.9736328 0.227417
vn 0 1 0
vn 0 1 0
vn 0 0 -1
vn 0 0 -1
vn 0 0 -1
vn 0 0 -1
vn -0.8852539 -0.4543457 -0.1011963
vn -0.4555664 -0.3989258 -0.7958984
vn -0.1690674 0.5795898 -0.796875
vn -0.7011719 0.690918 0.1751709
vn 0.953125 0.1424561 0.2670898
vn 0.2792969 0.9423828 0.1833496
vn -0.2570801 0.9663086 -0.01514435
vn 0.9360352 -0.3261719 0.1324463
vn 0.7041016 -0.7084961 0.04959106
vn 0.8105469 0.05844116 0.5830078
vn 0.5712891 -0.659668 0.4887695
vn 0.3850098 0.7524414 0.5341797
vn 0.9985352 0.04675293 -0.02458191
vn 0.2342529 -0.972168 -0.01338959
vn 0.2792969 0.9580078 -0.06311035
vn 0.5805664 -0.1710205 -0.7958984
vn -0.1690674 0.5795898 -0.796875
g Light_Switch_0
f 3/3/3 2/2/2 1/1/1
f 6/6/6 5/5/5 4/4/4
f 8/8/8 7/7/7 5/5/5
f 10/10/10 9/9/9 8/8/8
f 8/8/8 11/11/11 10/10/10
f 14/14/14 13/13/13 12/12/12
f 17/17/17 16/16/16 15/15/15
f 20/20/20 19/19/19 18/18/18
f 23/23/23 22/22/22 21/21/21
f 26/26/26 25/25/25 24/24/24
f 27/27/27 24/24/24 25/25/25
f 30/30/30 29/29/29 28/28/28
f 31/31/31 28/28/28 29/29/29
f 28/28/28 31/31/31 32/32/32
f 31/31/31 33/33/33 32/32/32
f 32/32/32 33/33/33 34/34/34
f 35/35/35 34/34/34 33/33/33
f 38/38/38 37/37/37 36/36/36
f 39/39/39 36/36/36 37/37/37
f 42/42/42 41/41/41 40/40/40
f 43/43/43 41/41/41 42/42/42
f 46/46/46 45/45/45 44/44/44
f 46/46/46 47/47/47 45/45/45
f 45/45/45 49/49/49 48/48/48
f 49/49/49 50/50/50 48/48/48
f 50/50/50 51/51/51 48/48/48
f 51/51/51 50/50/50 52/52/52
f 50/50/50 53/53/53 52/52/52
f 56/56/56 55/55/55 54/54/54
f 56/56/56 57/57/57 55/55/55
f 60/60/60 59/59/59 58/58/58
f 60/60/60 58/58/58 61/61/61
f 64/64/64 63/63/63 62/62/62
f 63/63/63 64/64/64 65/65/65
f 68/68/68 67/67/67 66/66/66
f 66/66/66 69/69/69 68/68/68
f 69/69/69 70/70/70 68/68/68
f 71/71/71 70/70/70 69/69/69
f 71/71/71 72/72/72 70/70/70
f 75/75/75 74/74/74 73/73/73
f 74/74/74 75/75/75 76/76/76
f 79/79/79 78/78/78 77/77/77
f 80/80/80 79/79/79 77/77/77
f 81/81/81 79/79/79 80/80/80
f 82/82/82 81/81/81 80/80/80
f 85/85/85 84/84/84 83/83/83
f 84/84/84 86/86/86 83/83/83
f 83/83/83 86/86/86 87/87/87
f 88/88/88 83/83/83 87/87/87
f 91/91/91 90/90/90 89/89/89
f 90/90/90 92/92/92 89/89/89
f 92/92/92 93/93/93 89/89/89
f 93/93/93 94/94/94 89/89/89
f 97/97/97 96/96/96 95/95/95
f 96/96/96 98/98/98 95/95/95
f 99/99/99 95/95/95 98/98/98
f 100/100/100 99/99/99 98/98/98
f 103/103/103 102/102/102 101/101/101
f 104/104/104 103/103/103 101/101/101
f 107/107/107 106/106/106 105/105/105
f 108/108/108 107/107/107 105/105/105
f 111/111/111 110/110/110 109/109/109
f 112/112/112 111/111/111 109/109/109
f 109/109/109 113/113/113 112/112/112
f 111/111/111 112/112/112 114/114/114
f 115/115/115 114/114/114 112/112/112
f 116/116/116 111/111/111 114/114/114
f 115/115/115 117/117/117 114/114/114
f 117/117/117 116/116/116 114/114/114
f 118/118/118 117/117/117 115/115/115
f 117/117/117 119/119/119 116/116/116
f 120/120/120 117/117/117 118/118/118
f 119/119/119 117/117/117 121/121/121
f 117/117/117 120/120/120 121/121/121
