g Picture_4_Medium
v -0.08822456 0.00511462 -0.169691
v -0.1240598 0.005113042 -0.1280942
v -0.116008 0.01722929 -0.1620937
v -0.0523362 0.0004927468 -0.1707197
v -0.1252684 0.0004926038 -0.09813814
v 0.1252826 0.0004931402 -0.1707312
v -0.1252826 0.0004931831 0.1707313
v 0.0001856995 0.0004928613 0.1707204
v 0.1252727 0.0004928875 0.04499526
v 0.0519249 0.006614895 0.1675891
v 0.1223744 0.006615544 0.1008212
v 0.1113261 0.02152688 0.155976
v -0.1241387 0.004759177 -0.128168
v -0.08830238 0.004759176 -0.169758
v -0.1161763 0.01693346 -0.1622387
v -0.05234879 0.0001231527 -0.1707313
v -0.1252825 0.0001231623 -0.09815238
v 0.1252826 0.0001231527 -0.1707312
v -0.1252826 0.0001231956 0.1707313
v 0.0001966858 0.0001231956 0.1707313
v 0.1252826 0.000123179 0.04500561
v 0.05198273 0.006254225 0.1676481
v 0.122429 0.006254216 0.100879
v 0.1114325 0.02119069 0.1560882
v -0.08830238 0.004759176 -0.169758
v -0.116008 0.01722929 -0.1620937
v -0.1161763 0.01693346 -0.1622387
v -0.08822456 0.00511462 -0.169691
v -0.05234879 0.0001231527 -0.1707313
v -0.0523362 0.0004927468 -0.1707197
v 0.1252826 0.0001231527 -0.1707312
v 0.1252826 0.0004931402 -0.1707312
v -0.1240598 0.005113042 -0.1280942
v -0.1161763 0.01693346 -0.1622387
v -0.116008 0.01722929 -0.1620937
v -0.1241387 0.004759177 -0.128168
v -0.1252684 0.0004926038 -0.09813814
v -0.1252825 0.0001231623 -0.09815238
v -0.1252826 0.0004931831 0.1707313
v -0.1252826 0.0001231956 0.1707313
v 0.1252826 0.000123179 0.04500561
v 0.1252826 0.0004931402 -0.1707312
v 0.1252826 0.0001231527 -0.1707312
v 0.1252727 0.0004928875 0.04499526
v 0.122429 0.006254216 0.100879
v 0.1223744 0.006615544 0.1008212
v 0.1114325 0.02119069 0.1560882
v 0.1113261 0.02152688 0.155976
v 0.0001856995 0.0004928613 0.1707204
v -0.1252826 0.0001231956 0.1707313
v -0.1252826 0.0004931831 0.1707313
v 0.0001966858 0.0001231956 0.1707313
v 0.0519249 0.006614895 0.1675891
v 0.05198273 0.006254225 0.1676481
v 0.1113261 0.02152688 0.155976
v 0.1114325 0.02119069 0.1560882
vt 0.277832 0.8198242
vt 0.2697754 0.8105469
vt 0.2697754 0.8198242
vt 0.286377 0.8198242
vt 0.2697754 0.8037109
vt 0.3273926 0.8198242
vt 0.2697754 0.7426758
vt 0.298584 0.7426758
vt 0.3273926 0.7709961
vt 0.3112793 0.7426758
vt 0.3273926 0.7578125
vt 0.3273926 0.7426758
vt 0.3330078 0.5581055
vt 0.3266602 0.5654297
vt 0.3320313 0.5644531
vt 0.3200684 0.565918
vt 0.333252 0.5522461
vt 0.2885742 0.565918
vt 0.333252 0.503418
vt 0.310791 0.503418
vt 0.2885742 0.5263672
vt 0.3015137 0.5039063
vt 0.2890625 0.5161133
vt 0.2905273 0.5053711
vt 0.277832 0.8198242
vt 0.2697754 0.8198242
vt 0.2697754 0.8198242
vt 0.277832 0.8198242
vt 0.286377 0.8198242
vt 0.286377 0.8198242
vt 0.3273926 0.8198242
vt 0.3273926 0.8198242
vt 0.2697754 0.8105469
vt 0.2697754 0.8198242
vt 0.2697754 0.8198242
vt 0.2697754 0.8105469
vt 0.2697754 0.8037109
vt 0.2697754 0.8037109
vt 0.2697754 0.7426758
vt 0.2697754 0.7426758
vt 0.3273926 0.7709961
vt 0.3273926 0.8198242
vt 0.3273926 0.8198242
vt 0.3273926 0.7709961
vt 0.3273926 0.7578125
vt 0.3273926 0.7578125
vt 0.3273926 0.7426758
vt 0.3273926 0.7426758
vt 0.298584 0.7426758
vt 0.2697754 0.7426758
vt 0.2697754 0.7426758
vt 0.298584 0.7426758
vt 0.3112793 0.7426758
vt 0.3112793 0.7426758
vt 0.3273926 0.7426758
vt 0.3273926 0.7426758
vn 0.2102051 0.9609375 0.1811523
vn 0.2131348 0.956543 0.199585
vn 0.4558105 0.7988281 0.3925781
vn 0.03399658 0.9990234 0.03112793
vn 0.03823853 0.9985352 0.03842163
vn 0 1 0
vn 0 1 0
vn -0.02958679 0.9990234 -0.0294342
vn -0.02706909 0.9990234 -0.0279541
vn -0.1560059 0.9746094 -0.1593018
vn -0.1479492 0.9765625 -0.1561279
vn -0.2873535 0.9086914 -0.3032227
vn -0.2131348 -0.956543 -0.199585
vn -0.2103271 -0.9609375 -0.1811523
vn -0.4550781 -0.7998047 -0.3920898
vn -0.03405762 -0.9990234 -0.03115845
vn -0.03829956 -0.9985352 -0.03848267
vn 0 -1 0
vn 0 -1 0
vn 0.02960205 -0.9990234 0.02944946
vn 0.02708435 -0.9990234 0.02796936
vn 0.1560059 -0.9746094 0.1593018
vn 0.1479492 -0.9765625 0.1561279
vn 0.2871094 -0.9086914 0.3029785
vn -0.08056641 0.2028809 -0.9760742
vn -0.04055786 0.4562988 -0.8886719
vn -0.03961182 0.4580078 -0.8881836
vn -0.0892334 0.2030029 -0.9750977
vn -0.01193237 0.03219604 -0.9995117
vn -0.01247406 0.03167725 -0.9995117
vn -6.502867E-05 4.178286E-05 -1
vn -6.508827E-05 0 -1
vn -0.9697266 0.2325439 -0.07415771
vn -0.8642578 0.5019531 -0.02575684
vn -0.8637695 0.503418 -0.02503967
vn -0.9707031 0.2299805 -0.06884766
vn -0.9990234 0.03948975 -0.01629639
vn -0.9990234 0.03878784 -0.01560211
vn -1 3.254414E-05 0
vn -1 0 0
vn 0.9995117 0.02740479 0.02355957
vn 1 2.938509E-05 0
vn 1 0 0
vn 0.9995117 0.0276947 0.02435303
vn 0.9824219 0.1625977 0.08947754
vn 0.9819336 0.1635742 0.09265137
vn 0.9389648 0.3293457 0.09906006
vn 0.9389648 0.3300781 0.09881592
vn 0.02888489 0.03022766 0.9990234
vn 8.636713E-05 5.483627E-05 1
vn 8.654594E-05 0 1
vn 0.02775574 0.0305481 0.9990234
vn 0.09313965 0.1749268 0.9799805
vn 0.09020996 0.1751709 0.9804688
vn 0.09594727 0.3415527 0.9350586
vn 0.09576416 0.342041 0.9345703
g Picture_4_Medium_0
f 3/3/3 2/2/2 1/1/1
f 1/1/1 2/2/2 4/4/4
f 5/5/5 4/4/4 2/2/2
f 4/4/4 5/5/5 6/6/6
f 5/5/5 7/7/7 6/6/6
f 7/7/7 8/8/8 6/6/6
f 8/8/8 9/9/9 6/6/6
f 8/8/8 10/10/10 9/9/9
f 11/11/11 9/9/9 10/10/10
f 12/12/12 11/11/11 10/10/10
f 15/15/15 14/14/14 13/13/13
f 14/14/14 16/16/16 13/13/13
f 17/17/17 13/13/13 16/16/16
f 17/17/17 16/16/16 18/18/18
f 19/19/19 17/17/17 18/18/18
f 20/20/20 19/19/19 18/18/18
f 21/21/21 20/20/20 18/18/18
f 20/20/20 21/21/21 22/22/22
f 23/23/23 22/22/22 21/21/21
f 24/24/24 22/22/22 23/23/23
f 27/27/27 26/26/26 25/25/25
f 28/28/28 25/25/25 26/26/26
f 25/25/25 28/28/28 29/29/29
f 30/30/30 29/29/29 28/28/28
f 29/29/29 30/30/30 31/31/31
f 32/32/32 31/31/31 30/30/30
f 35/35/35 34/34/34 33/33/33
f 36/36/36 33/33/33 34/34/34
f 33/33/33 36/36/36 37/37/37
f 38/38/38 37/37/37 36/36/36
f 37/37/37 38/38/38 39/39/39
f 40/40/40 39/39/39 38/38/38
f 43/43/43 42/42/42 41/41/41
f 44/44/44 41/41/41 42/42/42
f 41/41/41 44/44/44 45/45/45
f 46/46/46 45/45/45 44/44/44
f 45/45/45 46/46/46 47/47/47
f 48/48/48 47/47/47 46/46/46
f 51/51/51 50/50/50 49/49/49
f 52/52/52 49/49/49 50/50/50
f 49/49/49 52/52/52 53/53/53
f 54/54/54 53/53/53 52/52/52
f 53/53/53 54/54/54 55/55/55
f 56/56/56 55/55/55 54/54/54
