g Picture_3_Medium
v 0.1198777 0.00808676 -0.1522568
v -0.11961 0.01282096 -0.1576469
v 0.1209066 0.01638873 -0.1627418
v -0.1204933 0.005528973 -0.1313322
v 0.1192385 0.001004113 -0.1356263
v -0.1209022 0.001012552 -0.1022527
v -0.1209064 0.00101361 0.1630054
v 0.1192227 0.001013346 0.04191819
v -0.02089669 0.001013463 0.1629968
v 0.04988381 0.006430433 0.1603673
v 0.1171447 0.006428564 0.09667128
v 0.1053404 0.02327929 0.1474649
v -0.1196154 0.0124133 -0.1577659
v 0.1198724 0.007721197 -0.1524729
v 0.1209059 0.0160557 -0.1630054
v -0.1205008 0.005114039 -0.1314225
v 0.1192327 0.0005888951 -0.1357155
v -0.1209063 0.0005888939 -0.1022824
v -0.1209064 0.0005888939 0.1630054
v 0.1192327 0.0005888915 0.04192922
v -0.02088929 0.0005888939 0.1630054
v 0.0499415 0.006014452 0.1604307
v 0.1172096 0.00601445 0.09673976
v 0.1054879 0.02291269 0.1476206
v -0.02089669 0.001013463 0.1629968
v -0.1209064 0.0005888939 0.1630054
v -0.1209064 0.00101361 0.1630054
v -0.02088929 0.0005888939 0.1630054
v 0.04988381 0.006430433 0.1603673
v 0.0499415 0.006014452 0.1604307
v 0.1053404 0.02327929 0.1474649
v 0.1054879 0.02291269 0.1476206
v -0.1209063 0.0005888939 -0.1022824
v -0.1209064 0.00101361 0.1630054
v -0.1209064 0.0005888939 0.1630054
v -0.1209022 0.001012552 -0.1022527
v -0.1205008 0.005114039 -0.1314225
v -0.1204933 0.005528973 -0.1313322
v -0.1196154 0.0124133 -0.1577659
v -0.11961 0.01282096 -0.1576469
v 0.1198724 0.007721197 -0.1524729
v 0.1209066 0.01638873 -0.1627418
v 0.1209059 0.0160557 -0.1630054
v 0.1198777 0.00808676 -0.1522568
v 0.1192327 0.0005888951 -0.1357155
v 0.1192385 0.001004113 -0.1356263
v 0.1192327 0.0005888915 0.04192922
v 0.1192227 0.001013346 0.04191819
v 0.1172096 0.00601445 0.09673976
v 0.1171447 0.006428564 0.09667128
v 0.1054879 0.02291269 0.1476206
v 0.1053404 0.02327929 0.1474649
v -0.11961 0.01282096 -0.1576469
v 0.1209059 0.0160557 -0.1630054
v 0.1209066 0.01638873 -0.1627418
v -0.1196154 0.0124133 -0.1577659
vt 0.3723145 0.9882813
vt 0.2496338 0.9985352
vt 0.3723145 0.9985352
vt 0.2496338 0.9770508
vt 0.3723145 0.9775391
vt 0.2496338 0.9604492
vt 0.2496338 0.8251953
vt 0.3723145 0.8867188
vt 0.3007813 0.8251953
vt 0.3378906 0.8251953
vt 0.3723145 0.8579102
vt 0.3723145 0.8251953
vt 0.3325195 0.5634766
vt 0.2888184 0.5625
vt 0.2885742 0.5649414
vt 0.3327637 0.5585938
vt 0.2888184 0.559082
vt 0.3327637 0.5532227
vt 0.3327637 0.5039063
vt 0.2888184 0.5263672
vt 0.3144531 0.5039063
vt 0.3015137 0.5039063
vt 0.2890625 0.5161133
vt 0.2907715 0.5058594
vt 0.3007813 0.8251953
vt 0.2496338 0.8251953
vt 0.2496338 0.8251953
vt 0.3007813 0.8251953
vt 0.3378906 0.8251953
vt 0.3378906 0.8251953
vt 0.3723145 0.8251953
vt 0.3723145 0.8251953
vt 0.2496338 0.9604492
vt 0.2496338 0.8251953
vt 0.2496338 0.8251953
vt 0.2496338 0.9604492
vt 0.2496338 0.9770508
vt 0.2496338 0.9770508
vt 0.2496338 0.9985352
vt 0.2496338 0.9985352
vt 0.3723145 0.9882813
vt 0.3723145 0.9985352
vt 0.3723145 0.9985352
vt 0.3723145 0.9882813
vt 0.3723145 0.9775391
vt 0.3723145 0.9775391
vt 0.3723145 0.8867188
vt 0.3723145 0.8867188
vt 0.3723145 0.8579102
vt 0.3723145 0.8579102
vt 0.3723145 0.8251953
vt 0.3723145 0.8251953
vt 0.2496338 0.9985352
vt 0.3723145 0.9985352
vt 0.3723145 0.9985352
vt 0.2496338 0.9985352
vn 0.01248169 0.8608398 0.5092773
vn 0.01266479 0.9599609 0.2802734
vn 0.001523018 0.7836914 0.6210938
vn 0.0176239 0.9770508 0.2126465
vn 0.01351166 0.9775391 0.2099609
vn 0.009765625 0.9975586 0.07000732
vn 0 1 -1.561642E-05
vn -0.02378845 0.9995117 -0.02600098
vn -0.0173645 0.9995117 -0.02009583
vn -0.1357422 0.9794922 -0.1491699
vn -0.1525879 0.9750977 -0.1612549
vn -0.3476563 0.862793 -0.3669434
vn -0.01261139 -0.9599609 -0.2802734
vn -0.0125351 -0.8608398 -0.5087891
vn -0.001645088 -0.7841797 -0.6206055
vn -0.01759338 -0.9770508 -0.2126465
vn -0.01351166 -0.9775391 -0.2099609
vn -0.009742737 -0.9975586 -0.06994629
vn 0 -1 0
vn 0.02378845 -0.9995117 0.02598572
vn 0.01737976 -0.9995117 0.02011108
vn 0.1358643 -0.9794922 0.1491699
vn 0.15271 -0.9750977 0.1612549
vn 0.347168 -0.8632813 0.3666992
vn 0.01800537 0.02035522 0.9995117
vn 8.505583E-05 5.418062E-05 1
vn 8.529425E-05 0 1
vn 0.01750183 0.02062988 0.9995117
vn 0.1019287 0.1634521 0.9814453
vn 0.09552002 0.1635742 0.9819336
vn 0.08221436 0.4162598 0.9052734
vn 0.08178711 0.4172363 0.9052734
vn -1 0.01013184 -0.00611496
vn -1 0 0
vn -1 0 0
vn -1 0.01017761 -0.006164551
vn -0.9995117 0.02209473 -0.01895142
vn -0.9995117 0.02212524 -0.0189209
vn -0.9995117 0.0211792 -0.02767944
vn -0.9995117 0.02116394 -0.02767944
vn 0.9985352 -0.03948975 0.04211426
vn 0.9970703 -0.04888916 0.05914307
vn 0.9970703 -0.04888916 0.05917358
vn 0.9985352 -0.03945923 0.04220581
vn 0.9995117 -0.01725769 0.01494598
vn 0.9995117 -0.0171051 0.01478577
vn 0.9995117 0.02410889 0.01699829
vn 0.9995117 0.0244751 0.01748657
vn 0.9814453 0.1682129 0.09008789
vn 0.980957 0.1699219 0.09564209
vn 0.9130859 0.3999023 0.07958984
vn 0.9125977 0.4008789 0.0791626
vn -0.02514648 0.2810059 -0.9594727
vn -0.02580261 0.6201172 -0.7841797
vn -0.02580261 0.6206055 -0.7836914
vn -0.02514648 0.2805176 -0.9594727
g Picture_3_Medium_0
f 3/3/3 2/2/2 1/1/1
f 4/4/4 1/1/1 2/2/2
f 1/1/1 4/4/4 5/5/5
f 6/6/6 5/5/5 4/4/4
f 5/5/5 6/6/6 7/7/7
f 8/8/8 5/5/5 7/7/7
f 9/9/9 8/8/8 7/7/7
f 9/9/9 10/10/10 8/8/8
f 11/11/11 8/8/8 10/10/10
f 12/12/12 11/11/11 10/10/10
f 15/15/15 14/14/14 13/13/13
f 16/16/16 13/13/13 14/14/14
f 14/14/14 17/17/17 16/16/16
f 18/18/18 16/16/16 17/17/17
f 18/18/18 17/17/17 19/19/19
f 17/17/17 20/20/20 19/19/19
f 20/20/20 21/21/21 19/19/19
f 21/21/21 20/20/20 22/22/22
f 23/23/23 22/22/22 20/20/20
f 24/24/24 22/22/22 23/23/23
f 27/27/27 26/26/26 25/25/25
f 28/28/28 25/25/25 26/26/26
f 25/25/25 28/28/28 29/29/29
f 30/30/30 29/29/29 28/28/28
f 29/29/29 30/30/30 31/31/31
f 32/32/32 31/31/31 30/30/30
f 35/35/35 34/34/34 33/33/33
f 36/36/36 33/33/33 34/34/34
f 33/33/33 36/36/36 37/37/37
f 38/38/38 37/37/37 36/36/36
f 37/37/37 38/38/38 39/39/39
f 40/40/40 39/39/39 38/38/38
f 43/43/43 42/42/42 41/41/41
f 44/44/44 41/41/41 42/42/42
f 41/41/41 44/44/44 45/45/45
f 46/46/46 45/45/45 44/44/44
f 45/45/45 46/46/46 47/47/47
f 48/48/48 47/47/47 46/46/46
f 47/47/47 48/48/48 49/49/49
f 50/50/50 49/49/49 48/48/48
f 49/49/49 50/50/50 51/51/51
f 52/52/52 51/51/51 50/50/50
f 55/55/55 54/54/54 53/53/53
f 56/56/56 53/53/53 54/54/54
