g Picture_10_Small
v 0.1394599 0.003870077 -0.1051228
v -0.1384018 0.00541024 -0.1151888
v 0.1386274 0.009342027 -0.115037
v -0.1396283 0.00293842 -0.07946849
v 0.140166 0.000995149 -0.09043511
v -0.1401618 0.0009998959 -0.04059837
v -0.1401657 0.001000163 0.1155198
v 0.02339783 0.0009992766 0.115486
v 0.1401273 0.0009986412 0.02933441
v 0.06674349 0.006341669 0.1134539
v 0.1386862 0.006336888 0.06554437
v 0.1289499 0.02171877 0.100832
v -0.1384043 0.004413443 -0.1152688
v 0.1394586 0.002925348 -0.1054507
v 0.1386399 0.008466413 -0.1155198
v -0.1396344 0.001940318 -0.07952978
v 0.1401584 1.394749E-07 -0.0905346
v -0.1401657 1.466274E-07 -0.04062042
v -0.1401657 1.645088E-07 0.1155198
v 0.02342286 1.645088E-07 0.1155198
v 0.1401584 1.5378E-07 0.02937977
v 0.06689577 0.005376859 0.1136682
v 0.1388416 0.005376853 0.06577735
v 0.1292484 0.02087629 0.1012805
v 0.02339783 0.0009992766 0.115486
v -0.1401657 1.645088E-07 0.1155198
v -0.1401657 0.001000163 0.1155198
v 0.02342286 1.645088E-07 0.1155198
v 0.06674349 0.006341669 0.1134539
v 0.06689577 0.005376859 0.1136682
v 0.1289499 0.02171877 0.100832
v 0.1292484 0.02087629 0.1012805
v -0.1401657 1.466274E-07 -0.04062042
v -0.1401657 0.001000163 0.1155198
v -0.1401657 1.645088E-07 0.1155198
v -0.1401618 0.0009998959 -0.04059837
v -0.1396344 0.001940318 -0.07952978
v -0.1396283 0.00293842 -0.07946849
v -0.1384043 0.004413443 -0.1152688
v -0.1384018 0.00541024 -0.1151888
v 0.1394586 0.002925348 -0.1054507
v 0.1386274 0.009342027 -0.115037
v 0.1386399 0.008466413 -0.1155198
v 0.1394599 0.003870077 -0.1051228
v 0.1401584 1.394749E-07 -0.0905346
v 0.140166 0.000995149 -0.09043511
v 0.1401584 1.5378E-07 0.02937977
v 0.1401273 0.0009986412 0.02933441
v 0.1388416 0.005376853 0.06577735
v 0.1386862 0.006336888 0.06554437
v 0.1292484 0.02087629 0.1012805
v 0.1289499 0.02171877 0.100832
v -0.1384018 0.00541024 -0.1151888
v 0.1386399 0.008466413 -0.1155198
v 0.1386274 0.009342027 -0.115037
v -0.1384043 0.004413443 -0.1152688
vt 0.3312988 0.5688477
vt 0.3344727 0.6542969
vt 0.3344727 0.5688477
vt 0.3239746 0.6542969
vt 0.3269043 0.5688477
vt 0.3127441 0.6542969
vt 0.2680664 0.6542969
vt 0.2680664 0.6044922
vt 0.2927246 0.5688477
vt 0.2680664 0.5908203
vt 0.2817383 0.5688477
vt 0.2680664 0.5688477
vt 0.2956543 0.5522461
vt 0.2971191 0.5112305
vt 0.2954102 0.5112305
vt 0.3007813 0.5522461
vt 0.2993164 0.5107422
vt 0.3066406 0.5522461
vt 0.329834 0.5522461
vt 0.329834 0.5283203
vt 0.3171387 0.5107422
vt 0.3295898 0.5219727
vt 0.3225098 0.5112305
vt 0.3283691 0.512207
vt 0.2680664 0.6044922
vt 0.2680664 0.6542969
vt 0.2680664 0.6542969
vt 0.2680664 0.6044922
vt 0.2680664 0.5908203
vt 0.2680664 0.5908203
vt 0.2680664 0.5688477
vt 0.2680664 0.5688477
vt 0.3127441 0.6542969
vt 0.2680664 0.6542969
vt 0.2680664 0.6542969
vt 0.3127441 0.6542969
vt 0.3239746 0.6542969
vt 0.3239746 0.6542969
vt 0.3344727 0.6542969
vt 0.3344727 0.6542969
vt 0.3312988 0.5688477
vt 0.3344727 0.5688477
vt 0.3344727 0.5688477
vt 0.3312988 0.5688477
vt 0.3269043 0.5688477
vt 0.3269043 0.5688477
vt 0.2927246 0.5688477
vt 0.2927246 0.5688477
vt 0.2817383 0.5688477
vt 0.2817383 0.5688477
vt 0.2680664 0.5688477
vt 0.2680664 0.5688477
vt 0.3344727 0.6542969
vt 0.3344727 0.5688477
vt 0.3344727 0.5688477
vt 0.3344727 0.6542969
vn 0.001202583 0.9448242 0.3278809
vn 0.002634048 0.996582 0.07983398
vn -0.01268005 0.875 0.4838867
vn 0.006271362 0.9980469 0.06124878
vn 0.007656097 0.9951172 0.09924316
vn 0.003936768 0.9995117 0.02204895
vn 1.209974E-05 1 0
vn -0.0249176 0.9990234 -0.03378296
vn -0.03103638 0.9985352 -0.04528809
vn -0.1524658 0.9648438 -0.2144775
vn -0.1550293 0.9599609 -0.2327881
vn -0.2993164 0.8417969 -0.4494629
vn -0.002513885 -0.996582 -0.07995605
vn -0.001337051 -0.9448242 -0.3278809
vn 0.01237488 -0.8754883 -0.4829102
vn -0.006214142 -0.9980469 -0.0612793
vn -0.007671356 -0.9951172 -0.0994873
vn -0.003925323 -0.9995117 -0.02204895
vn 0 -1 0
vn 0.0249939 -0.9990234 0.03387451
vn 0.03109741 -0.9985352 0.04534912
vn 0.1523438 -0.9648438 0.2143555
vn 0.1550293 -0.9599609 0.2330322
vn 0.298584 -0.8422852 0.4484863
vn 0.02174377 0.03433228 0.9990234
vn 0.0002062321 0.0001316071 1
vn 0.0002070665 0 1
vn 0.02052307 0.0357666 0.9990234
vn 0.07800293 0.2266846 0.9707031
vn 0.07342529 0.2286377 0.9707031
vn 0.05410767 0.4816895 0.8745117
vn 0.05328369 0.4838867 0.8735352
vn -1 0.004112244 -0.006721497
vn -1 1.603365E-05 0
vn -1 0 0
vn -1 0.004142761 -0.006744385
vn -0.9995117 0.007518768 -0.02362061
vn -0.9995117 0.007511139 -0.02359009
vn -0.9995117 0.005222321 -0.03396606
vn -0.9995117 0.0051651 -0.03396606
vn 0.9980469 0.01931763 -0.05691528
vn 0.9975586 0.04400635 -0.05700684
vn 0.9975586 0.04519653 -0.05621338
vn 0.9980469 0.01841736 -0.05770874
vn 0.9995117 -0.004859924 -0.02424622
vn 0.9995117 -0.005146027 -0.02424622
vn 0.9995117 0.03173828 0.01553345
vn 0.9995117 0.03295898 0.01596069
vn 0.9794922 0.1794434 0.09173584
vn 0.9780273 0.1833496 0.09716797
vn 0.9233398 0.3725586 0.09228516
vn 0.9223633 0.3752441 0.09094238
vn -0.002082825 0.08087158 -0.996582
vn -0.006362915 0.4819336 -0.8759766
vn -0.006370544 0.4829102 -0.8754883
vn -0.002073288 0.07995605 -0.996582
g Picture_10_Small_0
f 3/3/3 2/2/2 1/1/1
f 4/4/4 1/1/1 2/2/2
f 1/1/1 4/4/4 5/5/5
f 6/6/6 5/5/5 4/4/4
f 6/6/6 7/7/7 5/5/5
f 7/7/7 8/8/8 5/5/5
f 8/8/8 9/9/9 5/5/5
f 8/8/8 10/10/10 9/9/9
f 11/11/11 9/9/9 10/10/10
f 12/12/12 11/11/11 10/10/10
f 15/15/15 14/14/14 13/13/13
f 16/16/16 13/13/13 14/14/14
f 14/14/14 17/17/17 16/16/16
f 18/18/18 16/16/16 17/17/17
f 19/19/19 18/18/18 17/17/17
f 20/20/20 19/19/19 17/17/17
f 21/21/21 20/20/20 17/17/17
f 20/20/20 21/21/21 22/22/22
f 23/23/23 22/22/22 21/21/21
f 24/24/24 22/22/22 23/23/23
f 27/27/27 26/26/26 25/25/25
f 28/28/28 25/25/25 26/26/26
f 25/25/25 28/28/28 29/29/29
f 30/30/30 29/29/29 28/28/28
f 29/29/29 30/30/30 31/31/31
f 32/32/32 31/31/31 30/30/30
f 35/35/35 34/34/34 33/33/33
f 36/36/36 33/33/33 34/34/34
f 33/33/33 36/36/36 37/37/37
f 38/38/38 37/37/37 36/36/36
f 37/37/37 38/38/38 39/39/39
f 40/40/40 39/39/39 38/38/38
f 43/43/43 42/42/42 41/41/41
f 44/44/44 41/41/41 42/42/42
f 41/41/41 44/44/44 45/45/45
f 46/46/46 45/45/45 44/44/44
f 45/45/45 46/46/46 47/47/47
f 48/48/48 47/47/47 46/46/46
f 47/47/47 48/48/48 49/49/49
f 50/50/50 49/49/49 48/48/48
f 49/49/49 50/50/50 51/51/51
f 52/52/52 51/51/51 50/50/50
f 55/55/55 54/54/54 53/53/53
f 56/56/56 53/53/53 54/54/54
