g Picture_12_Small
v 0.1657265 0.01604045 0.1503101
v 0.08083728 0.007072859 0.1471388
v 0.1672118 0.007072047 0.08694325
v -0.004051909 0.003259078 0.1439675
v 0.168697 0.003257453 0.02357637
v 0.1696949 0.0009969187 -0.09892672
v -0.1757939 0.000999906 0.05167129
v -0.1758029 0.001000167 0.1418555
v -0.175714 0.004297927 -0.007518596
v 0.169869 0.00424378 -0.1246735
v -0.1749236 0.01466456 -0.08462147
v 0.1703619 0.00948984 -0.1471231
v -0.1716541 0.02932501 -0.1440822
v -0.1749749 0.01368277 -0.08480438
v 0.1703056 0.008518237 -0.1473529
v -0.1717126 0.02835649 -0.1443241
v 0.169819 0.003261679 -0.1248551
v -0.1757471 0.003302355 -0.007606583
v 0.1696688 1.40667E-07 -0.09900258
v -0.1758029 1.573563E-07 0.05165073
v -0.1758029 1.680851E-07 0.1418555
v -0.004051843 0.002259079 0.1439675
v 0.168684 0.002259065 0.02353846
v 0.08083732 0.00607286 0.1471388
v 0.1672052 0.006072854 0.08692429
v 0.1657265 0.01504045 0.1503101
v -0.1758029 1.573563E-07 0.05165073
v -0.1758029 0.001000167 0.1418555
v -0.1758029 1.680851E-07 0.1418555
v -0.1757939 0.000999906 0.05167129
v -0.1757471 0.003302355 -0.007606583
v -0.175714 0.004297927 -0.007518596
v -0.1749749 0.01368277 -0.08480438
v -0.1749236 0.01466456 -0.08462147
v -0.1717126 0.02835649 -0.1443241
v -0.1716541 0.02932501 -0.1440822
v -0.1758029 0.001000167 0.1418555
v -0.004051843 0.002259079 0.1439675
v -0.1758029 1.680851E-07 0.1418555
v -0.004051909 0.003259078 0.1439675
v 0.08083732 0.00607286 0.1471388
v 0.08083728 0.007072859 0.1471388
v 0.1657265 0.01504045 0.1503101
v 0.1657265 0.01604045 0.1503101
v 0.1657265 0.01604045 0.1503101
v 0.1672052 0.006072854 0.08692429
v 0.1657265 0.01504045 0.1503101
v 0.1672118 0.007072047 0.08694325
v 0.168684 0.002259065 0.02353846
v 0.168697 0.003257453 0.02357637
v 0.1696688 1.40667E-07 -0.09900258
v 0.1696949 0.0009969187 -0.09892672
v 0.169869 0.00424378 -0.1246735
v 0.169819 0.003261679 -0.1248551
v 0.1703619 0.00948984 -0.1471231
v 0.1703056 0.008518237 -0.1473529
v -0.1716541 0.02932501 -0.1440822
v 0.1703056 0.008518237 -0.1473529
v 0.1703619 0.00948984 -0.1471231
v -0.1717126 0.02835649 -0.1443241
vt 0.3745117 0.8261719
vt 0.3745117 0.8691406
vt 0.3999023 0.8261719
vt 0.3745117 0.9125977
vt 0.425293 0.8261719
vt 0.4760742 0.8261719
vt 0.4125977 0.9990234
vt 0.3745117 0.9990234
vt 0.4375 0.9990234
vt 0.4868164 0.8261719
vt 0.470459 0.9990234
vt 0.4963379 0.8261719
vt 0.4963379 0.9990234
vt 0.2983398 0.5649414
vt 0.2888184 0.5112305
vt 0.2888184 0.5644531
vt 0.2922363 0.5117188
vt 0.3103027 0.5649414
vt 0.2963867 0.5117188
vt 0.3195801 0.5649414
vt 0.3334961 0.5649414
vt 0.3334961 0.5380859
vt 0.3149414 0.5117188
vt 0.3334961 0.5249023
vt 0.3242188 0.5117188
vt 0.3334961 0.5117188
vt 0.4125977 0.9990234
vt 0.3745117 0.9990234
vt 0.3745117 0.9990234
vt 0.4125977 0.9990234
vt 0.4375 0.9990234
vt 0.4375 0.9990234
vt 0.470459 0.9990234
vt 0.470459 0.9990234
vt 0.4963379 0.9990234
vt 0.4963379 0.9990234
vt 0.3745117 0.9990234
vt 0.3745117 0.9125977
vt 0.3745117 0.9990234
vt 0.3745117 0.9125977
vt 0.3745117 0.8691406
vt 0.3745117 0.8691406
vt 0.3745117 0.8261719
vt 0.3745117 0.8261719
vt 0.3745117 0.8261719
vt 0.3999023 0.8261719
vt 0.3745117 0.8261719
vt 0.3999023 0.8261719
vt 0.425293 0.8261719
vt 0.425293 0.8261719
vt 0.4760742 0.8261719
vt 0.4760742 0.8261719
vt 0.4868164 0.8261719
vt 0.4868164 0.8261719
vt 0.4963379 0.8261719
vt 0.4963379 0.8261719
vt 0.4963379 0.9990234
vt 0.4963379 0.8261719
vt 0.4963379 0.8261719
vt 0.4963379 0.9990234
vn -0.09875488 0.9848633 -0.1417236
vn -0.05422974 0.9956055 -0.07781982
vn -0.05947876 0.9946289 -0.08538818
vn -0.0152359 0.9995117 -0.02172852
vn -0.02182007 0.9995117 -0.03134155
vn 0.02261353 0.9970703 0.07012939
vn 0.002748489 1 0.01664734
vn -0.01315308 1 0
vn 0.03305054 0.9956055 0.0880127
vn 0.05004883 0.9819336 0.1816406
vn 0.05133057 0.9819336 0.1828613
vn 0.05618286 0.9716797 0.2298584
vn 0.05831909 0.96875 0.2419434
vn -0.05133057 -0.9819336 -0.1828613
vn -0.05618286 -0.9716797 -0.2298584
vn -0.05831909 -0.96875 -0.2419434
vn -0.05004883 -0.9819336 -0.1816406
vn -0.03305054 -0.9956055 -0.0880127
vn -0.02220154 -0.9970703 -0.07043457
vn -0.008956909 -0.9995117 -0.02053833
vn 0.005069733 -1 0.007274628
vn 0.01898193 -0.9995117 0.02722168
vn 0.02182007 -0.9995117 0.03131104
vn 0.05422974 -0.9956055 0.07781982
vn 0.05947876 -0.9946289 0.08532715
vn 0.09875488 -0.9848633 0.1416016
vn -1 0.008979797 -0.0002684593
vn -1 6.347895E-05 0
vn -1 0 0
vn -1 0.009140015 -0.0002655983
vn -0.9995117 0.03335571 -0.002471924
vn -0.9995117 0.03356934 -0.002483368
vn -0.9980469 0.05603027 -0.02153015
vn -0.9980469 0.05618286 -0.0216217
vn -0.9970703 0.06945801 -0.03768921
vn -0.9970703 0.06958008 -0.03765869
vn -0.01229858 0 1
vn -0.02458191 0 0.9995117
vn -0.01229858 0 1
vn -0.02503967 0 0.9995117
vn -0.037323 2.765656E-05 0.9995117
vn -0.037323 2.765656E-05 0.9995117
vn -0.037323 0 0.9995117
vn -0.037323 0 0.9995117
vn 0.9995117 -7.534027E-05 0.02333069
vn 0.9995117 -0.006977081 0.02404785
vn 0.9995117 0 0.02331543
vn 0.9995117 -0.007045746 0.02410889
vn 1 -0.01361084 0.0158844
vn 1 -0.01371002 0.0166626
vn 0.9995117 -0.02690125 0.005939484
vn 0.9995117 -0.02662659 0.006065369
vn 0.9985352 -0.05142212 0.004535675
vn 0.9985352 -0.05181885 0.004489899
vn 0.9980469 -0.05950928 0.007698059
vn 0.9980469 -0.05969238 0.007644653
vn 0.005447388 0.2420654 -0.9702148
vn 0.004684448 0.2299805 -0.9731445
vn 0.004680634 0.2299805 -0.9731445
vn 0.005447388 0.2420654 -0.9702148
g Picture_12_Small_0
f 3/3/3 2/2/2 1/1/1
f 2/2/2 3/3/3 4/4/4
f 5/5/5 4/4/4 3/3/3
f 6/6/6 4/4/4 5/5/5
f 7/7/7 4/4/4 6/6/6
f 8/8/8 4/4/4 7/7/7
f 7/7/7 6/6/6 9/9/9
f 10/10/10 9/9/9 6/6/6
f 9/9/9 10/10/10 11/11/11
f 12/12/12 11/11/11 10/10/10
f 13/13/13 11/11/11 12/12/12
f 16/16/16 15/15/15 14/14/14
f 15/15/15 17/17/17 14/14/14
f 18/18/18 14/14/14 17/17/17
f 17/17/17 19/19/19 18/18/18
f 20/20/20 18/18/18 19/19/19
f 19/19/19 21/21/21 20/20/20
f 22/22/22 21/21/21 19/19/19
f 23/23/23 22/22/22 19/19/19
f 22/22/22 23/23/23 24/24/24
f 25/25/25 24/24/24 23/23/23
f 26/26/26 24/24/24 25/25/25
f 29/29/29 28/28/28 27/27/27
f 30/30/30 27/27/27 28/28/28
f 27/27/27 30/30/30 31/31/31
f 32/32/32 31/31/31 30/30/30
f 31/31/31 32/32/32 33/33/33
f 34/34/34 33/33/33 32/32/32
f 33/33/33 34/34/34 35/35/35
f 36/36/36 35/35/35 34/34/34
f 39/39/39 38/38/38 37/37/37
f 40/40/40 37/37/37 38/38/38
f 38/38/38 41/41/41 40/40/40
f 42/42/42 40/40/40 41/41/41
f 41/41/41 43/43/43 42/42/42
f 44/44/44 42/42/42 43/43/43
f 47/47/47 46/46/46 45/45/45
f 48/48/48 45/45/45 46/46/46
f 46/46/46 49/49/49 48/48/48
f 50/50/50 48/48/48 49/49/49
f 49/49/49 51/51/51 50/50/50
f 52/52/52 50/50/50 51/51/51
f 52/52/52 51/51/51 53/53/53
f 54/54/54 53/53/53 51/51/51
f 53/53/53 54/54/54 55/55/55
f 56/56/56 55/55/55 54/54/54
f 59/59/59 58/58/58 57/57/57
f 60/60/60 57/57/57 58/58/58
