g Picture_2_Large
v -0.07965613 0.002802958 -0.07540377
v -0.097764 0.002799959 -0.05711648
v -0.09473354 0.009358084 -0.07230382
v -0.09874752 0.0005045665 -0.03862105
v -0.05557127 0.0005047703 -0.07639378
v -0.09874875 0.0005046321 0.05676513
v 0.05671531 0.000504223 0.07638473
v -0.07709711 0.000504736 0.07639289
v -0.09837902 0.002718895 0.07584018
v 0.09874813 0.0005046393 -0.02654177
v 0.04970181 0.0005046499 -0.07639255
v 0.09873994 0.0005039259 0.03840312
v 0.09709205 0.003863764 -0.05573122
v 0.0797573 0.003864065 -0.07441366
v 0.09405783 0.009227346 -0.07083186
v 0.08438368 0.005107853 0.07482494
v 0.0974966 0.005105509 0.06275181
v 0.09564666 0.009364568 0.072597
v -0.09786601 0.002315778 -0.05721756
v -0.07974801 0.002315776 -0.07550004
v -0.09495118 0.008956629 -0.0725195
v -0.09876283 2.468375E-08 -0.03863715
v -0.05558233 2.016843E-08 -0.07640643
v -0.09876281 3.612256E-08 0.05678064
v 0.05673488 3.762766E-08 0.0764064
v -0.07710942 3.762766E-08 0.07640645
v -0.09843233 0.002220147 0.07589902
v 0.09876274 2.528579E-08 -0.02655614
v 0.04971631 2.016843E-08 -0.07640645
v 0.09876274 3.311235E-08 0.03842815
v 0.09718452 0.003375146 -0.05581931
v 0.07985004 0.003375145 -0.07449974
v 0.09426227 0.008806317 -0.07102158
v 0.08449513 0.004630683 0.07494718
v 0.09761307 0.004630684 0.06287841
v 0.09584407 0.008952195 0.07281157
v -0.07974801 0.002315776 -0.07550004
v -0.09473354 0.009358084 -0.07230382
v -0.09495118 0.008956629 -0.0725195
v -0.07965613 0.002802958 -0.07540377
v -0.05558233 2.016843E-08 -0.07640643
v -0.05557127 0.0005047703 -0.07639378
v 0.04971631 2.016843E-08 -0.07640645
v 0.04970181 0.0005046499 -0.07639255
v 0.07985004 0.003375145 -0.07449974
v 0.0797573 0.003864065 -0.07441366
v 0.09426227 0.008806317 -0.07102158
v 0.09405783 0.009227346 -0.07083186
v -0.097764 0.002799959 -0.05711648
v -0.09495118 0.008956629 -0.0725195
v -0.09473354 0.009358084 -0.07230382
v -0.09786601 0.002315778 -0.05721756
v -0.09874752 0.0005045665 -0.03862105
v -0.09876283 2.468375E-08 -0.03863715
v -0.09874875 0.0005046321 0.05676513
v -0.09876281 3.612256E-08 0.05678064
v -0.09837902 0.002718895 0.07584018
v -0.09843233 0.002220147 0.07589902
v 0.09718452 0.003375146 -0.05581931
v 0.09405783 0.009227346 -0.07083186
v 0.09426227 0.008806317 -0.07102158
v 0.09709205 0.003863764 -0.05573122
v 0.09876274 2.528579E-08 -0.02655614
v 0.09874813 0.0005046393 -0.02654177
v 0.09876274 3.311235E-08 0.03842815
v 0.09873994 0.0005039259 0.03840312
v 0.09761307 0.004630684 0.06287841
v 0.0974966 0.005105509 0.06275181
v 0.09584407 0.008952195 0.07281157
v 0.09564666 0.009364568 0.072597
v 0.08449513 0.004630683 0.07494718
v 0.09564666 0.009364568 0.072597
v 0.09584407 0.008952195 0.07281157
v 0.08438368 0.005107853 0.07482494
v 0.05673488 3.762766E-08 0.0764064
v 0.05671531 0.000504223 0.07638473
v -0.07710942 3.762766E-08 0.07640645
v -0.07709711 0.000504736 0.07639289
v -0.09843233 0.002220147 0.07589902
v -0.09837902 0.002718895 0.07584018
vt 0.3950195 0.730957
vt 0.3876953 0.7387695
vt 0.3950195 0.7387695
vt 0.3796387 0.7387695
vt 0.3950195 0.7211914
vt 0.3410645 0.7387695
vt 0.3330078 0.675293
vt 0.3330078 0.7299805
vt 0.3330078 0.7387695
vt 0.3747559 0.6582031
vt 0.3950195 0.6782227
vt 0.3483887 0.6582031
vt 0.3874512 0.6582031
vt 0.3950195 0.6655273
vt 0.3950195 0.6582031
vt 0.3330078 0.6635742
vt 0.3378906 0.6582031
vt 0.3330078 0.6582031
vt 0.2939453 0.5644531
vt 0.2885742 0.559082
vt 0.2888184 0.5639648
vt 0.2993164 0.5644531
vt 0.2883301 0.5517578
vt 0.3273926 0.5644531
vt 0.3330078 0.519043
vt 0.3330078 0.5581055
vt 0.3330078 0.5644531
vt 0.3029785 0.5068359
vt 0.2883301 0.5209961
vt 0.3220215 0.5068359
vt 0.2941895 0.5073242
vt 0.2888184 0.512207
vt 0.2895508 0.5078125
vt 0.3327637 0.5107422
vt 0.3293457 0.5068359
vt 0.3325195 0.5073242
vt 0.3950195 0.730957
vt 0.3950195 0.7387695
vt 0.3950195 0.7387695
vt 0.3950195 0.730957
vt 0.3950195 0.7211914
vt 0.3950195 0.7211914
vt 0.3950195 0.6782227
vt 0.3950195 0.6782227
vt 0.3950195 0.6655273
vt 0.3950195 0.6655273
vt 0.3950195 0.6582031
vt 0.3950195 0.6582031
vt 0.3876953 0.7387695
vt 0.3950195 0.7387695
vt 0.3950195 0.7387695
vt 0.3876953 0.7387695
vt 0.3796387 0.7387695
vt 0.3796387 0.7387695
vt 0.3410645 0.7387695
vt 0.3410645 0.7387695
vt 0.3330078 0.7387695
vt 0.3330078 0.7387695
vt 0.3874512 0.6582031
vt 0.3950195 0.6582031
vt 0.3950195 0.6582031
vt 0.3874512 0.6582031
vt 0.3747559 0.6582031
vt 0.3747559 0.6582031
vt 0.3483887 0.6582031
vt 0.3483887 0.6582031
vt 0.3378906 0.6582031
vt 0.3378906 0.6582031
vt 0.3330078 0.6582031
vt 0.3330078 0.6582031
vt 0.3330078 0.6635742
vt 0.3330078 0.6582031
vt 0.3330078 0.6582031
vt 0.3330078 0.6635742
vt 0.3330078 0.675293
vt 0.3330078 0.675293
vt 0.3330078 0.7299805
vt 0.3330078 0.7299805
vt 0.3330078 0.7387695
vt 0.3330078 0.7387695
vn 0.1816406 0.9648438 0.1903076
vn 0.2017822 0.9589844 0.1999512
vn 0.4328613 0.7929688 0.4287109
vn 0.03016663 0.9990234 0.03173828
vn 0.02182007 0.9995117 0.02494812
vn 0.02783203 0.9990234 -0.03070068
vn -0.03866577 0.9985352 -0.04278564
vn 0.02433777 0.9995117 -0.02685547
vn 0.1057739 0.9873047 -0.1166992
vn -0.02886963 0.9990234 0.02841187
vn -0.02867126 0.9990234 0.02746582
vn -0.04504395 0.9975586 -0.04946899
vn -0.1828613 0.9677734 0.1741943
vn -0.1834717 0.9682617 0.1702881
vn -0.4064941 0.8320313 0.3771973
vn -0.2207031 0.9448242 -0.2420654
vn -0.2305908 0.9404297 -0.2507324
vn -0.392334 0.8149414 -0.4262695
vn -0.2020264 -0.9584961 -0.2001953
vn -0.1818848 -0.9648438 -0.1906738
vn -0.4309082 -0.7949219 -0.427002
vn -0.03030396 -0.9990234 -0.03189087
vn -0.02189636 -0.9995117 -0.02503967
vn -0.02784729 -0.9990234 0.03071594
vn 0.03875732 -0.9985352 0.04290771
vn -0.02435303 -0.9995117 0.02687073
vn -0.1055908 -0.987793 0.1165161
vn 0.02893066 -0.9990234 -0.02845764
vn 0.0287323 -0.9990234 -0.02752686
vn 0.0451355 -0.9975586 0.04959106
vn 0.1831055 -0.9672852 -0.1744385
vn 0.1837158 -0.9682617 -0.1704102
vn 0.4047852 -0.8334961 -0.3757324
vn 0.2207031 -0.9448242 0.2420654
vn 0.2305908 -0.9404297 0.2507324
vn 0.3908691 -0.8164063 0.4248047
vn -0.05859375 0.2071533 -0.9765625
vn 0.02522278 0.4572754 -0.8891602
vn 0.0276947 0.4614258 -0.8867188
vn -0.06506348 0.2042236 -0.9765625
vn -0.01882935 0.02664185 -0.9995117
vn -0.01960754 0.02548218 -0.9995117
vn 0.02940369 0.02836609 -0.9990234
vn 0.03038025 0.0291748 -0.9990234
vn 0.09863281 0.1898193 -0.9770508
vn 0.1027832 0.1938477 -0.9755859
vn 0.06390381 0.4304199 -0.9003906
vn 0.06192017 0.4348145 -0.8984375
vn -0.9741211 0.2196045 -0.05749512
vn -0.8867188 0.4619141 0.02272034
vn -0.8842773 0.4660645 0.02481079
vn -0.9750977 0.21521 -0.0553894
vn -0.9990234 0.03256226 -0.0223999
vn -0.9995117 0.03103638 -0.02168274
vn -0.9995117 0.02812195 0.008178711
vn -0.9995117 0.02879333 0.007801056
vn -0.9946289 0.1055298 0.004966736
vn -0.9941406 0.1068115 0.004779816
vn 0.9770508 0.2009277 -0.07324219
vn 0.8989258 0.4377441 -0.01655579
vn 0.8969727 0.4421387 -0.01448059
vn 0.9770508 0.1982422 -0.07849121
vn 0.9990234 0.03056335 -0.02592468
vn 0.9990234 0.02972412 -0.02705383
vn 0.9985352 0.04605103 0.01850891
vn 0.9985352 0.04733276 0.01939392
vn 0.9692383 0.244873 0.03210449
vn 0.9677734 0.2491455 0.03305054
vn 0.9072266 0.4208984 -0.01197052
vn 0.9047852 0.4257813 -0.01416779
vn 0.0461731 0.2609863 0.9643555
vn -0.005008698 0.4541016 0.8911133
vn -0.007484436 0.4587402 0.8886719
vn 0.05081177 0.2578125 0.9648438
vn 0.0234375 0.04507446 0.9985352
vn 0.02507019 0.04388428 0.9985352
vn -0.01024628 0.02713013 0.9995117
vn -0.01056671 0.027771 0.9995117
vn -0.01356506 0.1171875 0.9931641
vn -0.01345062 0.1185913 0.9926758
g Picture_2_Large_0
f 3/3/3 2/2/2 1/1/1
f 2/2/2 4/4/4 1/1/1
f 5/5/5 1/1/1 4/4/4
f 4/4/4 6/6/6 5/5/5
f 6/6/6 7/7/7 5/5/5
f 8/8/8 7/7/7 6/6/6
f 9/9/9 8/8/8 6/6/6
f 5/5/5 7/7/7 10/10/10
f 11/11/11 5/5/5 10/10/10
f 7/7/7 12/12/12 10/10/10
f 10/10/10 13/13/13 11/11/11
f 14/14/14 11/11/11 13/13/13
f 15/15/15 14/14/14 13/13/13
f 7/7/7 16/16/16 12/12/12
f 17/17/17 12/12/12 16/16/16
f 18/18/18 17/17/17 16/16/16
f 21/21/21 20/20/20 19/19/19
f 19/19/19 20/20/20 22/22/22
f 23/23/23 22/22/22 20/20/20
f 24/24/24 22/22/22 23/23/23
f 25/25/25 24/24/24 23/23/23
f 26/26/26 24/24/24 25/25/25
f 27/27/27 24/24/24 26/26/26
f 28/28/28 25/25/25 23/23/23
f 29/29/29 28/28/28 23/23/23
f 30/30/30 25/25/25 28/28/28
f 28/28/28 29/29/29 31/31/31
f 32/32/32 31/31/31 29/29/29
f 33/33/33 31/31/31 32/32/32
f 25/25/25 30/30/30 34/34/34
f 35/35/35 34/34/34 30/30/30
f 36/36/36 34/34/34 35/35/35
f 39/39/39 38/38/38 37/37/37
f 40/40/40 37/37/37 38/38/38
f 37/37/37 40/40/40 41/41/41
f 42/42/42 41/41/41 40/40/40
f 41/41/41 42/42/42 43/43/43
f 44/44/44 43/43/43 42/42/42
f 43/43/43 44/44/44 45/45/45
f 46/46/46 45/45/45 44/44/44
f 45/45/45 46/46/46 47/47/47
f 48/48/48 47/47/47 46/46/46
f 51/51/51 50/50/50 49/49/49
f 52/52/52 49/49/49 50/50/50
f 49/49/49 52/52/52 53/53/53
f 54/54/54 53/53/53 52/52/52
f 53/53/53 54/54/54 55/55/55
f 56/56/56 55/55/55 54/54/54
f 55/55/55 56/56/56 57/57/57
f 58/58/58 57/57/57 56/56/56
f 61/61/61 60/60/60 59/59/59
f 62/62/62 59/59/59 60/60/60
f 59/59/59 62/62/62 63/63/63
f 64/64/64 63/63/63 62/62/62
f 63/63/63 64/64/64 65/65/65
f 66/66/66 65/65/65 64/64/64
f 65/65/65 66/66/66 67/67/67
f 68/68/68 67/67/67 66/66/66
f 67/67/67 68/68/68 69/69/69
f 70/70/70 69/69/69 68/68/68
f 73/73/73 72/72/72 71/71/71
f 74/74/74 71/71/71 72/72/72
f 71/71/71 74/74/74 75/75/75
f 76/76/76 75/75/75 74/74/74
f 75/75/75 76/76/76 77/77/77
f 78/78/78 77/77/77 76/76/76
f 77/77/77 78/78/78 79/79/79
f 80/80/80 79/79/79 78/78/78
