g Picture_11_Small
v -0.08909789 0.0009960067 -0.1377583
v -0.1055337 0.0009975701 -0.1169732
v -0.1050684 0.004946853 -0.1364238
v -0.1055768 0.0009999394 -8.633512E-06
v 0.04034759 0.0009985482 -0.1377734
v 0.1056869 0.001000131 0.1378133
v 6.530761E-05 0.0009999335 0.1378012
v 0.1056375 0.0009969389 -0.08453806
v -0.05278717 0.003860148 0.1376066
v -0.1056125 0.003860912 0.06870494
v -0.1033877 0.01114775 0.1312674
v 0.1037472 0.005332308 -0.1045395
v 0.06897461 0.005348123 -0.1360885
v 0.09813324 0.01683615 -0.1308977
v -0.1055881 -3.755093E-08 -0.117016
v -0.08916778 -5.125999E-08 -0.1378132
v -0.1053177 0.003998643 -0.1366206
v -0.1055881 4.053116E-08 3.53425E-08
v 0.04038239 -5.125999E-08 -0.1378133
v 0.1056869 1.323223E-07 0.1378133
v 4.943848E-05 1.323223E-07 0.1378133
v 0.1056869 -1.788139E-08 -0.08459848
v -0.05286835 0.002865409 0.1376689
v -0.1056873 0.002865366 0.0687623
v -0.1035437 0.01016728 0.1313871
v 0.1039804 0.004398861 -0.1048122
v 0.06918549 0.004398843 -0.1363215
v 0.09852782 0.01602724 -0.1313335
v -0.08916778 -5.125999E-08 -0.1378132
v -0.1050684 0.004946853 -0.1364238
v -0.1053177 0.003998643 -0.1366206
v -0.08909789 0.0009960067 -0.1377583
v 0.04038239 -5.125999E-08 -0.1378133
v 0.04034759 0.0009985482 -0.1377734
v 0.06918549 0.004398843 -0.1363215
v 0.06897461 0.005348123 -0.1360885
v 0.09852782 0.01602724 -0.1313335
v 0.09813324 0.01683615 -0.1308977
v -0.1055337 0.0009975701 -0.1169732
v -0.1053177 0.003998643 -0.1366206
v -0.1050684 0.004946853 -0.1364238
v -0.1055881 -3.755093E-08 -0.117016
v -0.1055768 0.0009999394 -8.633512E-06
v -0.1055881 4.053116E-08 3.53425E-08
v -0.1056125 0.003860912 0.06870494
v -0.1056873 0.002865366 0.0687623
v -0.1033877 0.01114775 0.1312674
v -0.1035437 0.01016728 0.1313871
v 0.1039804 0.004398861 -0.1048122
v 0.09813324 0.01683615 -0.1308977
v 0.09852782 0.01602724 -0.1313335
v 0.1037472 0.005332308 -0.1045395
v 0.1056869 -1.788139E-08 -0.08459848
v 0.1056375 0.0009969389 -0.08453806
v 0.1056869 1.323223E-07 0.1378133
v 0.1056869 0.001000131 0.1378133
v -0.05278717 0.003860148 0.1376066
v -0.1035437 0.01016728 0.1313871
v -0.1033877 0.01114775 0.1312674
v -0.05286835 0.002865409 0.1376689
v 6.530761E-05 0.0009999335 0.1378012
v 4.943848E-05 1.323223E-07 0.1378133
v 0.1056869 0.001000131 0.1378133
v 0.1056869 1.323223E-07 0.1378133
vt 0.4023438 0.7333984
vt 0.3972168 0.7270508
vt 0.3972168 0.7333984
vt 0.3972168 0.690918
vt 0.4431152 0.7333984
vt 0.463623 0.6479492
vt 0.4304199 0.6479492
vt 0.463623 0.7172852
vt 0.4138184 0.6479492
vt 0.3972168 0.6694336
vt 0.3972168 0.6479492
vt 0.463623 0.7236328
vt 0.4526367 0.7333984
vt 0.463623 0.7333984
vt 0.3222656 0.5576172
vt 0.3198242 0.5610352
vt 0.3222656 0.5610352
vt 0.3222656 0.5405273
vt 0.3005371 0.5610352
vt 0.2907715 0.5200195
vt 0.3063965 0.5200195
vt 0.2907715 0.5532227
vt 0.3144531 0.5200195
vt 0.3222656 0.5302734
vt 0.3220215 0.5209961
vt 0.2910156 0.5561523
vt 0.2961426 0.5605469
vt 0.2915039 0.5605469
vt 0.4023438 0.7333984
vt 0.3972168 0.7333984
vt 0.3972168 0.7333984
vt 0.4023438 0.7333984
vt 0.4431152 0.7333984
vt 0.4431152 0.7333984
vt 0.4526367 0.7333984
vt 0.4526367 0.7333984
vt 0.463623 0.7333984
vt 0.463623 0.7333984
vt 0.3972168 0.7270508
vt 0.3972168 0.7333984
vt 0.3972168 0.7333984
vt 0.3972168 0.7270508
vt 0.3972168 0.690918
vt 0.3972168 0.690918
vt 0.3972168 0.6694336
vt 0.3972168 0.6694336
vt 0.3972168 0.6479492
vt 0.3972168 0.6479492
vt 0.463623 0.7236328
vt 0.463623 0.7333984
vt 0.463623 0.7333984
vt 0.463623 0.7236328
vt 0.463623 0.7172852
vt 0.463623 0.7172852
vt 0.463623 0.6479492
vt 0.463623 0.6479492
vt 0.4138184 0.6479492
vt 0.3972168 0.6479492
vt 0.3972168 0.6479492
vt 0.4138184 0.6479492
vt 0.4304199 0.6479492
vt 0.4304199 0.6479492
vt 0.463623 0.6479492
vt 0.463623 0.6479492
vn 0.06945801 0.9960938 0.05490112
vn 0.05410767 0.9975586 0.04272461
vn 0.2509766 0.9472656 0.1983643
vn 0.01129913 1 -0.008674622
vn -0.03457642 0.9985352 0.03970337
vn 0 1 0
vn 0.01577759 1 -0.01209259
vn -0.04901123 0.9970703 0.06015015
vn 0.08129883 0.9946289 -0.06231689
vn 0.0748291 0.9956055 -0.05737305
vn 0.15625 0.9804688 -0.119751
vn -0.2335205 0.9331055 0.2731934
vn -0.2111816 0.9492188 0.2332764
vn -0.3959961 0.8076172 0.4367676
vn -0.05426025 -0.9975586 -0.04284668
vn -0.06964111 -0.9960938 -0.05496216
vn -0.2492676 -0.9482422 -0.1968994
vn -0.01130676 -1 0.008666992
vn 0.034729 -0.9985352 -0.03991699
vn 0 -1 0
vn -0.01579285 -1 0.01210022
vn 0.04922485 -0.9970703 -0.0604248
vn -0.08129883 -0.9946289 0.06231689
vn -0.0748291 -0.9956055 0.05737305
vn -0.1561279 -0.9804688 0.1196899
vn 0.2330322 -0.9335938 -0.2727051
vn 0.2110596 -0.9492188 -0.2330322
vn 0.3945313 -0.809082 -0.435791
vn -0.03201294 0.06045532 -0.9975586
vn -0.02241516 0.2028809 -0.9790039
vn -0.02061462 0.208374 -0.9780273
vn -0.03530884 0.05749512 -0.9975586
vn 0.02198792 0.04074097 -0.9990234
vn 0.02294922 0.04284668 -0.9990234
vn 0.04162598 0.2446289 -0.96875
vn 0.04244995 0.2492676 -0.9672852
vn -0.02366638 0.4606934 -0.887207
vn -0.02542114 0.4645996 -0.8852539
vn -0.9985352 0.05737305 -0.001101494
vn -0.9697266 0.2429199 0.02642822
vn -0.9682617 0.2489014 0.02737427
vn -0.9985352 0.05432129 -0.001467705
vn -1 0.01138306 -0.0004992485
vn -1 0.01156616 -0.0005073547
vn -0.9970703 0.07525635 0.01123047
vn -0.9970703 0.07592773 0.01071167
vn -0.9873047 0.1580811 0.01538086
vn -0.9873047 0.1589355 0.01526642
vn 0.9643555 0.2595215 -0.05566406
vn 0.9018555 0.432373 0.004020691
vn 0.8999023 0.435791 0.006031036
vn 0.9648438 0.2553711 -0.05984497
vn 0.9975586 0.05514526 -0.03894043
vn 0.9975586 0.05197144 -0.0423584
vn 1 0.0001415014 -0.0002217293
vn 1 0 -0.0002223253
vn -0.05718994 0.06744385 0.9960938
vn -0.1038208 0.1359863 0.9853516
vn -0.1036987 0.1367188 0.9853516
vn -0.05578613 0.06665039 0.9960938
vn -0.001088142 0.01241302 1
vn -0.001084328 0.01208496 1
vn 0 7.289648E-05 1
vn 0 0 1
g Picture_11_Small_0
f 3/3/3 2/2/2 1/1/1
f 2/2/2 4/4/4 1/1/1
f 4/4/4 5/5/5 1/1/1
f 6/6/6 5/5/5 4/4/4
f 7/7/7 6/6/6 4/4/4
f 8/8/8 5/5/5 6/6/6
f 7/7/7 4/4/4 9/9/9
f 10/10/10 9/9/9 4/4/4
f 11/11/11 9/9/9 10/10/10
f 8/8/8 12/12/12 5/5/5
f 13/13/13 5/5/5 12/12/12
f 14/14/14 13/13/13 12/12/12
f 17/17/17 16/16/16 15/15/15
f 15/15/15 16/16/16 18/18/18
f 16/16/16 19/19/19 18/18/18
f 19/19/19 20/20/20 18/18/18
f 20/20/20 21/21/21 18/18/18
f 22/22/22 20/20/20 19/19/19
f 21/21/21 23/23/23 18/18/18
f 24/24/24 18/18/18 23/23/23
f 25/25/25 24/24/24 23/23/23
f 22/22/22 19/19/19 26/26/26
f 27/27/27 26/26/26 19/19/19
f 28/28/28 26/26/26 27/27/27
f 31/31/31 30/30/30 29/29/29
f 32/32/32 29/29/29 30/30/30
f 29/29/29 32/32/32 33/33/33
f 34/34/34 33/33/33 32/32/32
f 33/33/33 34/34/34 35/35/35
f 36/36/36 35/35/35 34/34/34
f 35/35/35 36/36/36 37/37/37
f 38/38/38 37/37/37 36/36/36
f 41/41/41 40/40/40 39/39/39
f 42/42/42 39/39/39 40/40/40
f 39/39/39 42/42/42 43/43/43
f 44/44/44 43/43/43 42/42/42
f 43/43/43 44/44/44 45/45/45
f 46/46/46 45/45/45 44/44/44
f 45/45/45 46/46/46 47/47/47
f 48/48/48 47/47/47 46/46/46
f 51/51/51 50/50/50 49/49/49
f 52/52/52 49/49/49 50/50/50
f 49/49/49 52/52/52 53/53/53
f 54/54/54 53/53/53 52/52/52
f 53/53/53 54/54/54 55/55/55
f 56/56/56 55/55/55 54/54/54
f 59/59/59 58/58/58 57/57/57
f 60/60/60 57/57/57 58/58/58
f 57/57/57 60/60/60 61/61/61
f 62/62/62 61/61/61 60/60/60
f 61/61/61 62/62/62 63/63/63
f 64/64/64 63/63/63 62/62/62
