g Picture_2_Small_Framed
v -0.1532796 -0.1260269 -0.002927189
v 0.1532796 -0.1260269 -0.01385388
v -0.1532796 -0.1260269 -0.01385388
v 0.1532796 -0.1260269 -0.002927189
v 0.1525086 -0.1252559 0.004747807
v -0.1525087 -0.125256 0.004747807
v -0.1466743 -0.1194216 0.007156119
v 0.1466742 -0.1194215 0.007156119
v 0.1420494 -0.1147968 0.01385387
v -0.1420495 -0.1147968 0.01385387
v -0.1356585 -0.1084058 0.01333185
v 0.1420494 -0.1147968 0.01385387
v -0.1420495 -0.1147968 0.01385387
v 0.1356584 -0.1084058 0.01333185
v -0.1285072 -0.1012545 0.01137576
v 0.1285071 -0.1012544 0.01137576
v 0.1244943 -0.09724157 0.01026465
v -0.1244943 -0.09724162 0.01026465
v -0.1174864 -0.09023368 0.005164803
v 0.1174863 -0.09023364 0.005164803
v 0.1174863 -0.09023364 0.005164803
v -0.1163608 -0.0891081 -0.002684731
v 0.1163607 -0.08910806 -0.002684731
v -0.1174864 -0.09023368 0.005164803
v -0.1532797 0.1260269 -0.01385387
v -0.1532796 -0.1260269 -0.002927189
v -0.1532796 -0.1260269 -0.01385388
v -0.1532797 0.1260269 -0.002927178
v -0.1525087 -0.125256 0.004747807
v -0.1525087 0.1252559 0.004747819
v -0.1466743 0.1194215 0.00715613
v -0.1466743 -0.1194216 0.007156119
v -0.1420496 0.1147967 0.01385388
v -0.1420495 -0.1147968 0.01385387
v -0.1244943 -0.09724162 0.01026465
v -0.1174864 0.0902336 0.005164812
v -0.1174864 -0.09023368 0.005164803
v -0.1244943 0.09724154 0.01026466
v -0.1285072 0.1012544 0.01137577
v -0.1285072 -0.1012545 0.01137576
v -0.1356585 -0.1084058 0.01333185
v -0.1356586 0.1084057 0.01333186
v -0.1420496 0.1147967 0.01385388
v -0.1420495 -0.1147968 0.01385387
v -0.1174864 -0.09023368 0.005164803
v -0.1163609 0.08910801 -0.002684723
v -0.1163608 -0.0891081 -0.002684731
v -0.1174864 0.0902336 0.005164812
v 0.1532796 -0.1260269 -0.01385388
v 0.1532795 0.1260269 -0.002927178
v 0.1532795 0.1260269 -0.01385387
v 0.1532796 -0.1260269 -0.002927189
v 0.1525086 0.1252559 0.004747819
v 0.1525086 -0.1252559 0.004747807
v 0.1466742 0.1194215 0.00715613
v 0.1466742 -0.1194215 0.007156119
v 0.1420494 0.1147968 0.01385388
v 0.1420494 -0.1147968 0.01385387
v 0.1174863 0.09023365 0.005164812
v 0.1244943 -0.09724157 0.01026465
v 0.1174863 -0.09023364 0.005164803
v 0.1244942 0.09724158 0.01026466
v 0.1285071 -0.1012544 0.01137576
v 0.1285071 0.1012545 0.01137577
v 0.1356584 0.1084058 0.01333186
v 0.1356584 -0.1084058 0.01333185
v 0.1420494 -0.1147968 0.01385387
v 0.1420494 0.1147968 0.01385388
v 0.1174863 0.09023365 0.005164812
v 0.1163607 -0.08910806 -0.002684731
v 0.1163607 0.08910806 -0.002684723
v 0.1174863 -0.09023364 0.005164803
v 0.1532795 0.1260269 -0.002927178
v -0.1532797 0.1260269 -0.01385387
v 0.1532795 0.1260269 -0.01385387
v -0.1532797 0.1260269 -0.002927178
v -0.1525087 0.1252559 0.004747819
v 0.1525086 0.1252559 0.004747819
v -0.1466743 0.1194215 0.00715613
v 0.1466742 0.1194215 0.00715613
v 0.1420494 0.1147968 0.01385388
v -0.1420496 0.1147967 0.01385388
v 0.1356584 0.1084058 0.01333186
v -0.1420496 0.1147967 0.01385388
v 0.1420494 0.1147968 0.01385388
v -0.1356586 0.1084057 0.01333186
v 0.1285071 0.1012545 0.01137577
v -0.1285072 0.1012544 0.01137577
v -0.1244943 0.09724154 0.01026466
v 0.1244942 0.09724158 0.01026466
v -0.1174864 0.0902336 0.005164812
v 0.1174863 0.09023365 0.005164812
v -0.1174864 0.0902336 0.005164812
v 0.1163607 0.08910806 -0.002684723
v -0.1163609 0.08910801 -0.002684723
v 0.1174863 0.09023365 0.005164812
v -0.1163609 0.08910801 -0.002684723
v -0.1532796 -0.1260269 -0.01385388
v -0.1163608 -0.0891081 -0.002684731
v -0.1532797 0.1260269 -0.01385387
v 0.1163607 0.08910806 -0.002684723
v -0.1532797 0.1260269 -0.01385387
v -0.1163609 0.08910801 -0.002684723
v 0.1532795 0.1260269 -0.01385387
v 0.1163607 -0.08910806 -0.002684731
v 0.1532795 0.1260269 -0.01385387
v 0.1163607 0.08910806 -0.002684723
v 0.1532796 -0.1260269 -0.01385388
v -0.1163608 -0.0891081 -0.002684731
v 0.1532796 -0.1260269 -0.01385388
v 0.1163607 -0.08910806 -0.002684731
v -0.1532796 -0.1260269 -0.01385388
v -0.1203931 0.0931404 -4.256606E-08
v 0.1203931 -0.0931403 -5.137284E-08
v -0.1203931 -0.09314042 -5.137284E-08
v 0.120393 0.09314045 -4.256606E-08
vt 0.1367188 0.6328125
vt 0.1331787 0.5336914
vt 0.1331787 0.6328125
vt 0.1367188 0.5336914
vt 0.1381836 0.5336914
vt 0.1381836 0.6328125
vt 0.1392822 0.6318359
vt 0.1392822 0.534668
vt 0.142334 0.5366211
vt 0.142334 0.6298828
vt 0.1435547 0.628418
vt 0.142334 0.5366211
vt 0.142334 0.6298828
vt 0.1435547 0.5375977
vt 0.1459961 0.6264648
vt 0.1459961 0.5400391
vt 0.1473389 0.5415039
vt 0.1473389 0.625
vt 0.149292 0.6235352
vt 0.149292 0.5429688
vt 0.149292 0.5429688
vt 0.1506348 0.6235352
vt 0.1506348 0.5429688
vt 0.149292 0.6235352
vt 0.09368896 0.6279297
vt 0.09735107 0.546875
vt 0.09368896 0.546875
vt 0.09735107 0.6279297
vt 0.09875488 0.546875
vt 0.09875488 0.6279297
vt 0.09985352 0.6269531
vt 0.09985352 0.5478516
vt 0.1029053 0.625
vt 0.1029053 0.5498047
vt 0.1079102 0.5546875
vt 0.1099243 0.6186523
vt 0.1099243 0.5561523
vt 0.1079102 0.6201172
vt 0.1066284 0.621582
vt 0.1066284 0.5537109
vt 0.104187 0.5512695
vt 0.104187 0.6240234
vt 0.1029053 0.625
vt 0.1029053 0.5498047
vt 0.1099243 0.5561523
vt 0.1112061 0.6186523
vt 0.1112061 0.5561523
vt 0.1099243 0.6186523
vt 0.09033203 0.5561523
vt 0.08666992 0.637207
vt 0.09033203 0.637207
vt 0.08666992 0.5561523
vt 0.08526611 0.637207
vt 0.08526611 0.5561523
vt 0.08422852 0.6362305
vt 0.08422852 0.5571289
vt 0.08117676 0.6342773
vt 0.08117676 0.559082
vt 0.07409668 0.6279297
vt 0.07611084 0.5639648
vt 0.07409668 0.565918
vt 0.07611084 0.6293945
vt 0.07739258 0.5629883
vt 0.07739258 0.6308594
vt 0.07983398 0.6333008
vt 0.07983398 0.5605469
vt 0.08117676 0.559082
vt 0.08117676 0.6342773
vt 0.07409668 0.6279297
vt 0.07281494 0.565918
vt 0.07281494 0.6279297
vt 0.07409668 0.565918
vt 0.1273193 0.5371094
vt 0.1309814 0.6367188
vt 0.1309814 0.5371094
vt 0.1273193 0.6367188
vt 0.1259766 0.6367188
vt 0.1259766 0.5371094
vt 0.1248779 0.6352539
vt 0.1248779 0.5385742
vt 0.1218262 0.5400391
vt 0.1218262 0.6337891
vt 0.1205444 0.5415039
vt 0.1218262 0.6337891
vt 0.1218262 0.5400391
vt 0.1205444 0.6323242
vt 0.118042 0.5439453
vt 0.118042 0.6298828
vt 0.1167603 0.6289063
vt 0.1167603 0.5449219
vt 0.1147461 0.6269531
vt 0.1147461 0.546875
vt 0.1147461 0.6269531
vt 0.1134644 0.546875
vt 0.1134644 0.6269531
vt 0.1147461 0.546875
vt 0.1112061 0.6186523
vt 0.09368896 0.546875
vt 0.1112061 0.5561523
vt 0.09368896 0.6279297
vt 0.1134644 0.546875
vt 0.1309814 0.6367188
vt 0.1134644 0.6269531
vt 0.1309814 0.5371094
vt 0.07281494 0.565918
vt 0.09033203 0.637207
vt 0.07281494 0.6279297
vt 0.09033203 0.5561523
vt 0.1506348 0.6235352
vt 0.1331787 0.5336914
vt 0.1506348 0.5429688
vt 0.1331787 0.6328125
vt 0.3950195 0.7387695
vt 0.3330078 0.6582031
vt 0.3330078 0.7387695
vt 0.3950195 0.6582031
vn 0 -0.9990234 0.04840088
vn 0 -1 0
vn 0 -1 0
vn 0 -0.9990234 0.04840088
vn 0 -0.9047852 0.4255371
vn 0 -0.9047852 0.4255371
vn 0 -0.5385742 0.8427734
vn 0 -0.5385742 0.8427734
vn 0 -0.6430664 0.7661133
vn 0 -0.6430664 0.7661133
vn 0 0.1282959 0.9916992
vn 0 -0.6430664 0.7661133
vn 0 -0.6430664 0.7661133
vn 0 0.1282959 0.9916992
vn 0 0.2646484 0.9643555
vn 0 0.2646484 0.9643555
vn 0 0.3601074 0.9331055
vn 0 0.3601074 0.9331055
vn 0 0.8046875 0.59375
vn 0 0.8046875 0.59375
vn 0 0.8046875 0.59375
vn 0 0.9897461 0.1419678
vn 0 0.9897461 0.1419678
vn 0 0.8046875 0.59375
vn -1 0 0
vn -0.9990234 0 0.04840088
vn -1 0 0
vn -0.9990234 0 0.04840088
vn -0.9047852 0 0.4255371
vn -0.9047852 0 0.4255371
vn -0.5385742 0 0.8427734
vn -0.5385742 0 0.8427734
vn -0.6430664 0 0.7661133
vn -0.6430664 0 0.7661133
vn 0.3601074 0 0.9331055
vn 0.8046875 0 0.59375
vn 0.8046875 0 0.59375
vn 0.3601074 0 0.9331055
vn 0.2646484 0 0.9643555
vn 0.2646484 0 0.9643555
vn 0.1282959 0 0.9916992
vn 0.1282959 0 0.9916992
vn -0.6430664 0 0.7661133
vn -0.6430664 0 0.7661133
vn 0.8046875 0 0.59375
vn 0.9897461 0 0.1419678
vn 0.9897461 0 0.1419678
vn 0.8046875 0 0.59375
vn 1 0 0
vn 0.9990234 0 0.04840088
vn 1 0 0
vn 0.9990234 0 0.04840088
vn 0.9047852 0 0.4255371
vn 0.9047852 0 0.4255371
vn 0.5385742 0 0.8427734
vn 0.5385742 0 0.8427734
vn 0.6430664 0 0.7661133
vn 0.6430664 0 0.7661133
vn -0.8046875 0 0.59375
vn -0.3601074 0 0.9331055
vn -0.8046875 0 0.59375
vn -0.3601074 0 0.9331055
vn -0.2646484 0 0.9643555
vn -0.2646484 0 0.9643555
vn -0.1282959 0 0.9916992
vn -0.1282959 0 0.9916992
vn 0.6430664 0 0.7661133
vn 0.6430664 0 0.7661133
vn -0.8046875 0 0.59375
vn -0.9897461 0 0.1419678
vn -0.9897461 0 0.1419678
vn -0.8046875 0 0.59375
vn 0 0.9990234 0.04840088
vn 0 1 0
vn 0 1 0
vn 0 0.9990234 0.04840088
vn 0 0.9047852 0.4255371
vn 0 0.9047852 0.4255371
vn 0 0.5385742 0.8427734
vn 0 0.5385742 0.8427734
vn 0 0.6430664 0.7661133
vn 0 0.6430664 0.7661133
vn 0 -0.1282959 0.9916992
vn 0 0.6430664 0.7661133
vn 0 0.6430664 0.7661133
vn 0 -0.1282959 0.9916992
vn 0 -0.2646484 0.9643555
vn 0 -0.2646484 0.9643555
vn 0 -0.3601074 0.9331055
vn 0 -0.3601074 0.9331055
vn 0 -0.8046875 0.59375
vn 0 -0.8046875 0.59375
vn 0 -0.8046875 0.59375
vn 0 -0.9897461 0.1419678
vn 0 -0.9897461 0.1419678
vn 0 -0.8046875 0.59375
vn 0.1479492 -0.1479492 -0.9780273
vn 0.1479492 0.1479492 -0.9780273
vn 0.1479492 0.1479492 -0.9780273
vn 0.1479492 -0.1479492 -0.9780273
vn -0.1479492 -0.1479492 -0.9780273
vn 0.1479492 -0.1479492 -0.9780273
vn 0.1479492 -0.1479492 -0.9780273
vn -0.1479492 -0.1479492 -0.9780273
vn -0.1479492 0.1479492 -0.9780273
vn -0.1479492 -0.1479492 -0.9780273
vn -0.1479492 -0.1479492 -0.9780273
vn -0.1479492 0.1479492 -0.9780273
vn 0.1479492 0.1479492 -0.9780273
vn -0.1479492 0.1479492 -0.9780273
vn -0.1479492 0.1479492 -0.9780273
vn 0.1479492 0.1479492 -0.9780273
vn 0 0 1
vn 0 0 1
vn 0 0 1
vn 0 0 1
g Picture_2_Small_Framed_0
f 3/3/3 2/2/2 1/1/1
f 4/4/4 1/1/1 2/2/2
f 4/4/4 5/5/5 1/1/1
f 6/6/6 1/1/1 5/5/5
f 6/6/6 5/5/5 7/7/7
f 8/8/8 7/7/7 5/5/5
f 8/8/8 9/9/9 7/7/7
f 10/10/10 7/7/7 9/9/9
f 13/13/13 12/12/12 11/11/11
f 14/14/14 11/11/11 12/12/12
f 11/11/11 14/14/14 15/15/15
f 16/16/16 15/15/15 14/14/14
f 16/16/16 17/17/17 15/15/15
f 18/18/18 15/15/15 17/17/17
f 18/18/18 17/17/17 19/19/19
f 20/20/20 19/19/19 17/17/17
f 23/23/23 22/22/22 21/21/21
f 24/24/24 21/21/21 22/22/22
f 27/27/27 26/26/26 25/25/25
f 28/28/28 25/25/25 26/26/26
f 26/26/26 29/29/29 28/28/28
f 30/30/30 28/28/28 29/29/29
f 30/30/30 29/29/29 31/31/31
f 32/32/32 31/31/31 29/29/29
f 31/31/31 32/32/32 33/33/33
f 34/34/34 33/33/33 32/32/32
f 37/37/37 36/36/36 35/35/35
f 38/38/38 35/35/35 36/36/36
f 38/38/38 39/39/39 35/35/35
f 40/40/40 35/35/35 39/39/39
f 40/40/40 39/39/39 41/41/41
f 42/42/42 41/41/41 39/39/39
f 42/42/42 43/43/43 41/41/41
f 44/44/44 41/41/41 43/43/43
f 47/47/47 46/46/46 45/45/45
f 48/48/48 45/45/45 46/46/46
f 51/51/51 50/50/50 49/49/49
f 52/52/52 49/49/49 50/50/50
f 50/50/50 53/53/53 52/52/52
f 54/54/54 52/52/52 53/53/53
f 53/53/53 55/55/55 54/54/54
f 56/56/56 54/54/54 55/55/55
f 55/55/55 57/57/57 56/56/56
f 58/58/58 56/56/56 57/57/57
f 61/61/61 60/60/60 59/59/59
f 62/62/62 59/59/59 60/60/60
f 60/60/60 63/63/63 62/62/62
f 64/64/64 62/62/62 63/63/63
f 64/64/64 63/63/63 65/65/65
f 66/66/66 65/65/65 63/63/63
f 66/66/66 67/67/67 65/65/65
f 68/68/68 65/65/65 67/67/67
f 71/71/71 70/70/70 69/69/69
f 72/72/72 69/69/69 70/70/70
f 75/75/75 74/74/74 73/73/73
f 76/76/76 73/73/73 74/74/74
f 76/76/76 77/77/77 73/73/73
f 78/78/78 73/73/73 77/77/77
f 77/77/77 79/79/79 78/78/78
f 80/80/80 78/78/78 79/79/79
f 80/80/80 79/79/79 81/81/81
f 82/82/82 81/81/81 79/79/79
f 85/85/85 84/84/84 83/83/83
f 86/86/86 83/83/83 84/84/84
f 83/83/83 86/86/86 87/87/87
f 88/88/88 87/87/87 86/86/86
f 88/88/88 89/89/89 87/87/87
f 90/90/90 87/87/87 89/89/89
f 89/89/89 91/91/91 90/90/90
f 92/92/92 90/90/90 91/91/91
f 95/95/95 94/94/94 93/93/93
f 96/96/96 93/93/93 94/94/94
f 99/99/99 98/98/98 97/97/97
f 100/100/100 97/97/97 98/98/98
f 103/103/103 102/102/102 101/101/101
f 104/104/104 101/101/101 102/102/102
f 107/107/107 106/106/106 105/105/105
f 108/108/108 105/105/105 106/106/106
f 111/111/111 110/110/110 109/109/109
f 112/112/112 109/109/109 110/110/110
f 115/115/115 114/114/114 113/113/113
f 116/116/116 113/113/113 114/114/114
