g Picture_8_Tiny_Framed
v -0.1422106 0.1706618 0.0116652
v 0.15169 0.1801389 0.00775315
v 0.142213 0.1706618 0.0116652
v -0.1516876 0.1801389 0.00775315
v 0.1529423 0.1813911 -0.02246215
v -0.15294 0.1813911 -0.004713431
v -0.15294 0.1813911 -0.02246215
v 0.1529423 0.1813911 -0.004713431
v -0.1516876 0.1801389 0.00775315
v 0.15169 0.1801389 0.00775315
v -0.08305115 0.109857 0.00814774
v 0.09393226 0.1208391 0.01680283
v 0.08305336 0.109857 0.00814774
v 0.08142063 0.1081908 -0.004319758
v -0.08141834 0.1081908 -0.004319758
v 0.09393226 0.1208391 0.01680283
v -0.08305115 0.109857 0.00814774
v -0.09393016 0.1208392 0.01680283
v 0.1005113 0.1276767 0.01802445
v -0.1005091 0.1276766 0.01802414
v -0.1248916 0.1531193 0.02239578
v 0.1248939 0.1531193 0.02239578
v 0.1348182 0.1632639 0.02246216
v -0.1348159 0.1632639 0.02246216
v -0.1516876 0.1801389 0.00775315
v -0.1422106 -0.1706618 0.01166518
v -0.1516876 -0.1801389 0.007753136
v -0.1422106 0.1706618 0.0116652
v -0.1348159 0.1632639 0.02246216
v -0.1348159 -0.1632639 0.02246215
v -0.1248916 -0.1531193 0.02239578
v -0.1248916 0.1531193 0.02239578
v -0.1005091 0.1276766 0.01802414
v -0.1005091 -0.1276766 0.01802413
v -0.09393016 0.1208392 0.01680283
v -0.09393016 -0.1208392 0.01680282
v -0.08305115 -0.109857 0.00814773
v -0.15294 0.1813911 -0.02246215
v -0.15294 -0.1813911 -0.004713448
v -0.15294 -0.1813911 -0.02246216
v -0.15294 0.1813911 -0.004713431
v -0.1516876 -0.1801389 0.007753136
v -0.1516876 0.1801389 0.00775315
v -0.08305115 -0.109857 0.00814773
v -0.09393016 0.1208392 0.01680283
v -0.08305115 0.109857 0.00814774
v -0.08141834 -0.1081908 -0.004319768
v -0.08141834 0.1081908 -0.004319758
v -0.15294 -0.1813911 -0.02246216
v 0.1529423 -0.1813911 -0.004713448
v 0.1529423 -0.1813911 -0.02246216
v -0.15294 -0.1813911 -0.004713448
v 0.15169 -0.1801389 0.007753136
v -0.1516876 -0.1801389 0.007753136
v 0.08305336 -0.109857 0.00814773
v -0.09393016 -0.1208392 0.01680282
v -0.08305115 -0.109857 0.00814773
v -0.08141834 -0.1081908 -0.004319768
v 0.08142063 -0.1081908 -0.004319768
v -0.09393016 -0.1208392 0.01680282
v 0.08305336 -0.109857 0.00814773
v 0.09393237 -0.1208392 0.01680282
v -0.1005091 -0.1276766 0.01802413
v 0.1005113 -0.1276767 0.01802413
v 0.1248939 -0.1531193 0.02239578
v -0.1248916 -0.1531193 0.02239578
v -0.1348159 -0.1632639 0.02246215
v 0.1348182 -0.1632639 0.02246215
v -0.1422106 -0.1706618 0.01166518
v 0.142213 -0.1706618 0.01166518
v -0.1516876 -0.1801389 0.007753136
v 0.15169 -0.1801389 0.007753136
v 0.1529423 -0.1813911 -0.004713448
v 0.1529423 0.1813911 -0.02246215
v 0.1529423 -0.1813911 -0.02246216
v 0.1529423 0.1813911 -0.004713431
v 0.15169 0.1801389 0.00775315
v 0.15169 -0.1801389 0.007753136
v 0.09393237 -0.1208392 0.01680282
v 0.08305336 0.109857 0.00814774
v 0.09393226 0.1208391 0.01680283
v 0.1005113 -0.1276767 0.01802413
v 0.1005113 0.1276767 0.01802445
v 0.1248939 0.1531193 0.02239578
v 0.1248939 -0.1531193 0.02239578
v 0.1348182 0.1632639 0.02246216
v 0.1348182 -0.1632639 0.02246215
v 0.142213 0.1706618 0.0116652
v 0.142213 -0.1706618 0.01166518
v 0.15169 -0.1801389 0.007753136
v 0.15169 0.1801389 0.00775315
v 0.08305336 0.109857 0.00814774
v 0.09393237 -0.1208392 0.01680282
v 0.08305336 -0.109857 0.00814773
v 0.08142063 0.1081908 -0.004319758
v 0.08142063 -0.1081908 -0.004319768
v -0.1422106 0.1706618 0.0116652
v 0.1348182 0.1632639 0.02246216
v -0.1348159 0.1632639 0.02246216
v 0.142213 0.1706618 0.0116652
v 0.08142063 0.1081908 -0.004319758
v -0.15294 0.1813911 -0.02246215
v -0.08141834 0.1081908 -0.004319758
v 0.1529423 0.1813911 -0.02246215
v 0.08142063 -0.1081908 -0.004319768
v 0.1529423 0.1813911 -0.02246215
v 0.08142063 0.1081908 -0.004319758
v 0.1529423 -0.1813911 -0.02246216
v -0.08141834 -0.1081908 -0.004319768
v 0.1529423 -0.1813911 -0.02246216
v 0.08142063 -0.1081908 -0.004319768
v -0.15294 -0.1813911 -0.02246216
v -0.08141834 0.1081908 -0.004319758
v -0.15294 -0.1813911 -0.02246216
v -0.08141834 -0.1081908 -0.004319768
v -0.15294 0.1813911 -0.02246215
v 0.08384182 0.110818 -0.00236587
v -0.0838277 -0.1108179 -0.00236588
v -0.0838277 0.110818 -0.00236587
v 0.08384182 -0.1108179 -0.00236588
vt 0.2766113 0.5634766
vt 0.2775879 0.5048828
vt 0.2766113 0.5058594
vt 0.2775879 0.5644531
vt 0.2827148 0.5048828
vt 0.2790527 0.5644531
vt 0.2827148 0.5644531
vt 0.2790527 0.5048828
vt 0.2775879 0.5644531
vt 0.2775879 0.5048828
vt 0.263916 0.5527344
vt 0.265625 0.5151367
vt 0.263916 0.5166016
vt 0.2624512 0.5166016
vt 0.2624512 0.5527344
vt 0.265625 0.5151367
vt 0.263916 0.5527344
vt 0.265625 0.5541992
vt 0.2668457 0.5136719
vt 0.2668457 0.5551758
vt 0.2722168 0.5605469
vt 0.2722168 0.5087891
vt 0.2734375 0.5078125
vt 0.2734375 0.5615234
vt 0.1586914 0.5986328
vt 0.159668 0.5283203
vt 0.1586914 0.5273438
vt 0.159668 0.5976563
vt 0.1627197 0.5957031
vt 0.1627197 0.5302734
vt 0.1640625 0.53125
vt 0.1640625 0.5947266
vt 0.1690674 0.5893555
vt 0.1690674 0.5366211
vt 0.1702881 0.5878906
vt 0.1702881 0.5380859
vt 0.1721191 0.5395508
vt 0.1535645 0.5986328
vt 0.1572266 0.5273438
vt 0.1535645 0.5273438
vt 0.1572266 0.5986328
vt 0.1586914 0.5273438
vt 0.1586914 0.5986328
vt 0.1721191 0.5395508
vt 0.1702881 0.5878906
vt 0.1721191 0.5864258
vt 0.1734619 0.5395508
vt 0.1734619 0.5864258
vt 0.06079102 0.5668945
vt 0.06445313 0.5068359
vt 0.06079102 0.5068359
vt 0.06445313 0.5668945
vt 0.06585693 0.5068359
vt 0.06585693 0.5668945
vt 0.07971191 0.5185547
vt 0.07781982 0.5561523
vt 0.07971191 0.5546875
vt 0.08099365 0.5546875
vt 0.08099365 0.5185547
vt 0.07781982 0.5561523
vt 0.07971191 0.5185547
vt 0.07781982 0.5170898
vt 0.07653809 0.5576172
vt 0.07653809 0.5161133
vt 0.07122803 0.5107422
vt 0.07122803 0.5625
vt 0.06994629 0.5634766
vt 0.06994629 0.5097656
vt 0.06689453 0.5654297
vt 0.06689453 0.5078125
vt 0.06585693 0.5668945
vt 0.06585693 0.5068359
vt 0.2047119 0.5288086
vt 0.208252 0.6000977
vt 0.208252 0.5288086
vt 0.2047119 0.6000977
vt 0.2032471 0.6000977
vt 0.2032471 0.5288086
vt 0.1915283 0.5395508
vt 0.1896973 0.5878906
vt 0.1915283 0.5898438
vt 0.1928711 0.5380859
vt 0.1928711 0.5908203
vt 0.197876 0.5961914
vt 0.197876 0.5332031
vt 0.1990967 0.597168
vt 0.1990967 0.5317383
vt 0.2021484 0.5991211
vt 0.2021484 0.5297852
vt 0.2032471 0.5288086
vt 0.2032471 0.6000977
vt 0.1896973 0.5878906
vt 0.1915283 0.5395508
vt 0.1896973 0.5410156
vt 0.1884766 0.5878906
vt 0.1884766 0.5410156
vt 0.2766113 0.5634766
vt 0.2734375 0.5078125
vt 0.2734375 0.5615234
vt 0.2766113 0.5058594
vt 0.2624512 0.5166016
vt 0.2827148 0.5644531
vt 0.2624512 0.5527344
vt 0.2827148 0.5048828
vt 0.1884766 0.5410156
vt 0.208252 0.6000977
vt 0.1884766 0.5878906
vt 0.208252 0.5288086
vt 0.08099365 0.5546875
vt 0.06079102 0.5068359
vt 0.08099365 0.5185547
vt 0.06079102 0.5668945
vt 0.1734619 0.5864258
vt 0.1535645 0.5273438
vt 0.1734619 0.5395508
vt 0.1535645 0.5986328
vt 0.404541 0.6450195
vt 0.3378906 0.5595703
vt 0.3378906 0.6450195
vt 0.404541 0.5595703
vn 0 0.5395508 0.8417969
vn 0 0.9047852 0.4255371
vn 0 0.5395508 0.8417969
vn 0 0.9047852 0.4255371
vn 0 1 0
vn 0 0.9990234 0.04840088
vn 0 1 0
vn 0 0.9990234 0.04840088
vn 0 0.9047852 0.4255371
vn 0 0.9047852 0.4255371
vn 0 -0.8222656 0.5688477
vn 0 -0.3078613 0.9516602
vn 0 -0.8222656 0.5688477
vn 0 -0.9912109 0.1324463
vn 0 -0.9912109 0.1324463
vn 0 -0.3078613 0.9516602
vn 0 -0.8222656 0.5688477
vn 0 -0.3076172 0.9516602
vn 0 -0.1710205 0.9853516
vn 0 -0.1710205 0.9853516
vn 0 -0.0486145 0.9990234
vn 0 -0.0486145 0.9990234
vn 0 0.6557617 0.7548828
vn 0 0.6557617 0.7548828
vn -0.9047852 0 0.4255371
vn -0.5395508 0 0.8417969
vn -0.9047852 0 0.4255371
vn -0.5395508 0 0.8417969
vn -0.6601563 0 0.7514648
vn -0.6601563 0 0.7514648
vn 0.04858398 0 0.9990234
vn 0.04858398 0 0.9990234
vn 0.1779785 0 0.9838867
vn 0.1779785 0 0.9838867
vn 0.3112793 0 0.9501953
vn 0.3112793 0 0.9501953
vn 0.8242188 0 0.5664063
vn -1 0 0
vn -0.9990234 0 0.04840088
vn -1 0 0
vn -0.9990234 0 0.04840088
vn -0.9047852 0 0.4255371
vn -0.9047852 0 0.4255371
vn 0.8242188 0 0.5664063
vn 0.3112793 0 0.9501953
vn 0.8242188 0 0.5664063
vn 0.9916992 0 0.1298828
vn 0.9916992 0 0.1298828
vn 0 -1 0
vn 0 -0.9990234 0.04840088
vn 0 -1 0
vn 0 -0.9990234 0.04840088
vn 0 -0.9047852 0.4255371
vn 0 -0.9047852 0.4255371
vn 0 0.8222656 0.5688477
vn 0 0.3076172 0.9516602
vn 0 0.8222656 0.5688477
vn 0 0.9912109 0.1324463
vn 0 0.9912109 0.1324463
vn 0 0.3076172 0.9516602
vn 0 0.8222656 0.5688477
vn 0 0.3076172 0.9516602
vn 0 0.1710205 0.9853516
vn 0 0.1710205 0.9853516
vn 0 0.0486145 0.9990234
vn 0 0.0486145 0.9990234
vn 0 -0.6557617 0.7548828
vn 0 -0.6557617 0.7548828
vn 0 -0.5395508 0.8417969
vn 0 -0.5395508 0.8417969
vn 0 -0.9047852 0.4255371
vn 0 -0.9047852 0.4255371
vn 0.9990234 0 0.04840088
vn 1 0 0
vn 1 0 0
vn 0.9990234 0 0.04840088
vn 0.9047852 0 0.4255371
vn 0.9047852 0 0.4255371
vn -0.3112793 0 0.9501953
vn -0.8242188 0 0.5664063
vn -0.3112793 0 0.9501953
vn -0.1779785 0 0.9838867
vn -0.1779785 0 0.9838867
vn -0.04858398 0 0.9990234
vn -0.04858398 0 0.9990234
vn 0.6601563 0 0.7514648
vn 0.6601563 0 0.7514648
vn 0.5395508 0 0.8417969
vn 0.5395508 0 0.8417969
vn 0.9047852 0 0.4255371
vn 0.9047852 0 0.4255371
vn -0.8242188 0 0.5664063
vn -0.3112793 0 0.9501953
vn -0.8242188 0 0.5664063
vn -0.9916992 0 0.1298828
vn -0.9916992 0 0.1298828
vn 0 0.5395508 0.8417969
vn 0 0.6557617 0.7548828
vn 0 0.6557617 0.7548828
vn 0 0.5395508 0.8417969
vn -0.1253662 -0.121521 -0.9848633
vn 0.1230469 -0.1238403 -0.9848633
vn 0.1253662 -0.121521 -0.9848633
vn -0.1230469 -0.1238403 -0.9848633
vn -0.1253662 0.121521 -0.9848633
vn -0.1230469 -0.1238403 -0.9848633
vn -0.1253662 -0.121521 -0.9848633
vn -0.1230469 0.1238403 -0.9848633
vn 0.1253662 0.121521 -0.9848633
vn -0.1230469 0.1238403 -0.9848633
vn -0.1253662 0.121521 -0.9848633
vn 0.1230469 0.1238403 -0.9848633
vn 0.1253662 -0.121521 -0.9848633
vn 0.1230469 0.1238403 -0.9848633
vn 0.1253662 0.121521 -0.9848633
vn 0.1230469 -0.1238403 -0.9848633
vn 0 0 1
vn 0 0 1
vn 0 0 1
vn 0 0 1
g Picture_8_Tiny_Framed_0
f 3/3/3 2/2/2 1/1/1
f 4/4/4 1/1/1 2/2/2
f 7/7/7 6/6/6 5/5/5
f 8/8/8 5/5/5 6/6/6
f 6/6/6 9/9/9 8/8/8
f 10/10/10 8/8/8 9/9/9
f 13/13/13 12/12/12 11/11/11
f 13/13/13 11/11/11 14/14/14
f 15/15/15 14/14/14 11/11/11
f 18/18/18 17/17/17 16/16/16
f 16/16/16 19/19/19 18/18/18
f 20/20/20 18/18/18 19/19/19
f 20/20/20 19/19/19 21/21/21
f 22/22/22 21/21/21 19/19/19
f 22/22/22 23/23/23 21/21/21
f 24/24/24 21/21/21 23/23/23
f 27/27/27 26/26/26 25/25/25
f 28/28/28 25/25/25 26/26/26
f 28/28/28 26/26/26 29/29/29
f 30/30/30 29/29/29 26/26/26
f 30/30/30 31/31/31 29/29/29
f 32/32/32 29/29/29 31/31/31
f 32/32/32 31/31/31 33/33/33
f 34/34/34 33/33/33 31/31/31
f 33/33/33 34/34/34 35/35/35
f 36/36/36 35/35/35 34/34/34
f 36/36/36 37/37/37 35/35/35
f 40/40/40 39/39/39 38/38/38
f 41/41/41 38/38/38 39/39/39
f 39/39/39 42/42/42 41/41/41
f 43/43/43 41/41/41 42/42/42
f 46/46/46 45/45/45 44/44/44
f 44/44/44 47/47/47 46/46/46
f 48/48/48 46/46/46 47/47/47
f 51/51/51 50/50/50 49/49/49
f 52/52/52 49/49/49 50/50/50
f 50/50/50 53/53/53 52/52/52
f 54/54/54 52/52/52 53/53/53
f 57/57/57 56/56/56 55/55/55
f 57/57/57 55/55/55 58/58/58
f 59/59/59 58/58/58 55/55/55
f 62/62/62 61/61/61 60/60/60
f 60/60/60 63/63/63 62/62/62
f 64/64/64 62/62/62 63/63/63
f 64/64/64 63/63/63 65/65/65
f 66/66/66 65/65/65 63/63/63
f 66/66/66 67/67/67 65/65/65
f 68/68/68 65/65/65 67/67/67
f 67/67/67 69/69/69 68/68/68
f 70/70/70 68/68/68 69/69/69
f 69/69/69 71/71/71 70/70/70
f 72/72/72 70/70/70 71/71/71
f 75/75/75 74/74/74 73/73/73
f 76/76/76 73/73/73 74/74/74
f 76/76/76 77/77/77 73/73/73
f 78/78/78 73/73/73 77/77/77
f 81/81/81 80/80/80 79/79/79
f 79/79/79 82/82/82 81/81/81
f 83/83/83 81/81/81 82/82/82
f 83/83/83 82/82/82 84/84/84
f 85/85/85 84/84/84 82/82/82
f 84/84/84 85/85/85 86/86/86
f 87/87/87 86/86/86 85/85/85
f 86/86/86 87/87/87 88/88/88
f 89/89/89 88/88/88 87/87/87
f 89/89/89 90/90/90 88/88/88
f 91/91/91 88/88/88 90/90/90
f 94/94/94 93/93/93 92/92/92
f 92/92/92 95/95/95 94/94/94
f 96/96/96 94/94/94 95/95/95
f 99/99/99 98/98/98 97/97/97
f 100/100/100 97/97/97 98/98/98
f 103/103/103 102/102/102 101/101/101
f 104/104/104 101/101/101 102/102/102
f 107/107/107 106/106/106 105/105/105
f 108/108/108 105/105/105 106/106/106
f 111/111/111 110/110/110 109/109/109
f 112/112/112 109/109/109 110/110/110
f 115/115/115 114/114/114 113/113/113
f 116/116/116 113/113/113 114/114/114
f 119/119/119 118/118/118 117/117/117
f 120/120/120 117/117/117 118/118/118
