g Hall_Shelf_Long
v -0.4340387 -0.02686272 0.07539751
v -0.4340387 0.0285659 0.1118192
v -0.4340387 -0.03457626 0.05630662
v -0.4340387 0.05697563 -0.002143879
v -0.4340387 -0.04300453 0.04529089
v -0.4340387 -0.04301292 0.05629935
v -0.4340387 -0.06467693 0.02673892
v -0.4340387 -0.07258964 -0.002143884
v -0.4340387 0.05697563 0.1078343
v -0.4340387 0.03101746 0.1246276
v -0.4340387 0.04048324 0.1246276
v -0.4340387 0.05697563 0.13919
v -0.452283 -0.04300453 0.04529088
v -0.452283 -0.03457626 0.05630662
v -0.452283 -0.04301292 0.05629935
v -0.452283 0.05697563 -0.002143884
v -0.452283 -0.02686272 0.07539751
v -0.452283 -0.07258964 -0.002143889
v -0.452283 -0.06467693 0.02673892
v -0.452283 0.05697563 0.1078343
v -0.452283 0.0285659 0.1118191
v -0.452283 0.03101746 0.1246276
v -0.452283 0.04048324 0.1246276
v -0.452283 0.05697563 0.13919
v -0.452283 0.03101746 0.1246276
v -0.4340387 0.0285659 0.1118192
v -0.452283 0.0285659 0.1118191
v -0.4340387 0.03101746 0.1246276
v -0.452283 0.04048324 0.1246276
v -0.4340387 0.03101746 0.1246276
v -0.452283 0.03101746 0.1246276
v -0.4340387 0.04048324 0.1246276
v -0.452283 0.05697563 0.13919
v -0.4340387 0.04048324 0.1246276
v -0.452283 0.04048324 0.1246276
v -0.4340387 0.05697563 0.13919
v -0.452283 -0.06467693 0.02673892
v -0.4340387 -0.07258964 -0.002143884
v -0.452283 -0.07258964 -0.002143889
v -0.4340387 -0.06467693 0.02673892
v -0.452283 -0.04300453 0.04529088
v -0.4340387 -0.04300453 0.04529089
v -0.4340387 -0.04300453 0.04529089
v -0.452283 -0.04301292 0.05629935
v -0.4340387 -0.04301292 0.05629935
v -0.452283 -0.04300453 0.04529088
v -0.4340387 -0.04301292 0.05629935
v -0.452283 -0.03457626 0.05630662
v -0.4340387 -0.03457626 0.05630662
v -0.452283 -0.04301292 0.05629935
v -0.452283 -0.02686272 0.07539751
v -0.4340387 -0.03457626 0.05630662
v -0.452283 -0.03457626 0.05630662
v -0.4340387 -0.02686272 0.07539751
v -0.452283 0.0285659 0.1118191
v -0.4340387 -0.02686272 0.07539751
v -0.452283 -0.02686272 0.07539751
v -0.4340387 0.0285659 0.1118192
v -0.4340387 0.05697563 0.13919
v -0.452283 0.05697563 0.1078343
v -0.4340387 0.05697563 0.1078343
v -0.452283 0.05697563 0.13919
v -0.4340387 0.05697563 0.1078343
v -0.452283 0.05697563 -0.002143884
v -0.4340387 0.05697563 -0.002143879
v -0.452283 0.05697563 0.1078343
v -0.452283 -0.07258964 -0.002143889
v -0.4340387 0.05697563 -0.002143879
v -0.452283 0.05697563 -0.002143884
v -0.4340387 -0.07258964 -0.002143884
v -0.4866104 0.07258964 0.1473589
v 0.4866104 0.07258964 0.01211222
v 0.4866104 0.07258964 0.1473589
v -0.4866104 0.07258964 0.01211223
v -0.4866104 0.07258964 0.1473589
v -0.5007091 0.05707084 -0.001986394
v -0.4866104 0.07258964 0.01211223
v -0.5007091 0.05707084 0.1614575
v 0.5007091 0.05707084 -0.001986399
v -0.5007091 0.05707084 0.1614575
v 0.5007091 0.05707084 0.1614575
v -0.5007091 0.05707084 -0.001986394
v -0.5007091 0.05707084 -0.001986394
v 0.4866104 0.07258964 0.01211222
v -0.4866104 0.07258964 0.01211223
v 0.5007091 0.05707084 -0.001986399
v 0.4866104 0.07258964 0.01211222
v 0.5007091 0.05707084 0.1614575
v 0.4866104 0.07258964 0.1473589
v 0.5007091 0.05707084 -0.001986399
v 0.5007091 0.05707084 0.1614575
v -0.4866104 0.07258964 0.1473589
v 0.4866104 0.07258964 0.1473589
v -0.5007091 0.05707084 0.1614575
v 0.4521678 -0.02686272 0.07539751
v 0.4521678 0.0285659 0.1118192
v 0.4521678 -0.03457626 0.05630663
v 0.4521678 0.05697563 -0.002143874
v 0.4521678 -0.04300453 0.04529089
v 0.4521678 -0.04301292 0.05629935
v 0.4521678 -0.06467693 0.02673893
v 0.4521678 -0.07258964 -0.002143884
v 0.4521678 0.05697563 0.1078343
v 0.4521678 0.03101746 0.1246276
v 0.4521678 0.04048324 0.1246276
v 0.4521678 0.05697563 0.13919
v 0.4339235 -0.04300453 0.04529089
v 0.4339235 -0.03457626 0.05630663
v 0.4339235 -0.04301292 0.05629935
v 0.4339235 0.05697563 -0.002143884
v 0.4339235 -0.02686272 0.07539751
v 0.4339235 -0.07258964 -0.002143893
v 0.4339235 -0.06467693 0.02673893
v 0.4339235 0.05697563 0.1078343
v 0.4339235 0.0285659 0.1118192
v 0.4339235 0.03101746 0.1246276
v 0.4339235 0.04048324 0.1246276
v 0.4339235 0.05697563 0.13919
v 0.4339235 0.03101746 0.1246276
v 0.4521678 0.0285659 0.1118192
v 0.4339235 0.0285659 0.1118192
v 0.4521678 0.03101746 0.1246276
v 0.4339235 0.04048324 0.1246276
v 0.4521678 0.03101746 0.1246276
v 0.4339235 0.03101746 0.1246276
v 0.4521678 0.04048324 0.1246276
v 0.4339235 0.05697563 0.13919
v 0.4521678 0.04048324 0.1246276
v 0.4339235 0.04048324 0.1246276
v 0.4521678 0.05697563 0.13919
v 0.4339235 -0.06467693 0.02673893
v 0.4521678 -0.07258964 -0.002143884
v 0.4339235 -0.07258964 -0.002143893
v 0.4521678 -0.06467693 0.02673893
v 0.4339235 -0.04300453 0.04529089
v 0.4521678 -0.04300453 0.04529089
v 0.4521678 -0.04300453 0.04529089
v 0.4339235 -0.04301292 0.05629935
v 0.4521678 -0.04301292 0.05629935
v 0.4339235 -0.04300453 0.04529089
v 0.4521678 -0.04301292 0.05629935
v 0.4339235 -0.03457626 0.05630663
v 0.4521678 -0.03457626 0.05630663
v 0.4339235 -0.04301292 0.05629935
v 0.4339235 -0.02686272 0.07539751
v 0.4521678 -0.03457626 0.05630663
v 0.4339235 -0.03457626 0.05630663
v 0.4521678 -0.02686272 0.07539751
v 0.4339235 0.0285659 0.1118192
v 0.4521678 -0.02686272 0.07539751
v 0.4339235 -0.02686272 0.07539751
v 0.4521678 0.0285659 0.1118192
v 0.4521678 0.05697563 0.13919
v 0.4339235 0.05697563 0.1078343
v 0.4521678 0.05697563 0.1078343
v 0.4339235 0.05697563 0.13919
v 0.4521678 0.05697563 0.1078343
v 0.4339235 0.05697563 -0.002143884
v 0.4521678 0.05697563 -0.002143874
v 0.4339235 0.05697563 0.1078343
v 0.4339235 -0.07258964 -0.002143893
v 0.4521678 0.05697563 -0.002143874
v 0.4339235 0.05697563 -0.002143884
v 0.4521678 -0.07258964 -0.002143884
vt 0.9536133 0.5410156
vt 0.9492188 0.5478516
vt 0.9560547 0.5405273
vt 0.9628906 0.5512695
vt 0.9570313 0.5395508
vt 0.9560547 0.5395508
vt 0.9594727 0.5366211
vt 0.9628906 0.5356445
vt 0.949707 0.5512695
vt 0.9477539 0.5483398
vt 0.9477539 0.5493164
vt 0.9462891 0.5512695
vt 0.9501953 0.5405273
vt 0.9492188 0.5419922
vt 0.9501953 0.5419922
vt 0.9384766 0.5351563
vt 0.9482422 0.5439453
vt 0.9536133 0.5351563
vt 0.9526367 0.5385742
vt 0.9384766 0.5478516
vt 0.9418945 0.5483398
vt 0.9414063 0.5498047
vt 0.9404297 0.5498047
vt 0.9384766 0.5517578
vt 0.8305664 0.5180664
vt 0.8320313 0.5200195
vt 0.8320313 0.5180664
vt 0.8305664 0.5200195
vt 0.8291016 0.5180664
vt 0.8305664 0.5200195
vt 0.8305664 0.5180664
vt 0.8291016 0.5200195
vt 0.8266602 0.5180664
vt 0.8291016 0.5200195
vt 0.8291016 0.5180664
vt 0.8266602 0.5200195
vt 0.8432617 0.5180664
vt 0.8466797 0.5200195
vt 0.8466797 0.5180664
vt 0.8432617 0.5200195
vt 0.8408203 0.5180664
vt 0.8408203 0.5200195
vt 0.8408203 0.5200195
vt 0.8393555 0.5180664
vt 0.8393555 0.5200195
vt 0.8408203 0.5180664
vt 0.8393555 0.5200195
vt 0.8383789 0.5180664
vt 0.8383789 0.5200195
vt 0.8393555 0.5180664
vt 0.8364258 0.5180664
vt 0.8383789 0.5200195
vt 0.8383789 0.5180664
vt 0.8364258 0.5200195
vt 0.8320313 0.5180664
vt 0.8364258 0.5200195
vt 0.8364258 0.5180664
vt 0.8320313 0.5200195
vt 0.8266602 0.5200195
vt 0.8232422 0.5180664
vt 0.8232422 0.5200195
vt 0.8266602 0.5180664
vt 0.8886719 0.6708984
vt 0.8911133 0.6577148
vt 0.8886719 0.6577148
vt 0.8911133 0.6708984
vt 0.7700195 0.6748047
vt 0.7680664 0.6904297
vt 0.7700195 0.6904297
vt 0.7680664 0.6748047
vt 0.8876953 0.690918
vt 0.7719727 0.6748047
vt 0.7719727 0.690918
vt 0.8876953 0.6748047
vt 0.9619141 0.722168
vt 0.9648438 0.7041016
vt 0.9619141 0.7060547
vt 0.9648438 0.7236328
vt 0.7680664 0.6708984
vt 0.887207 0.6513672
vt 0.7680664 0.6513672
vt 0.887207 0.6708984
vt 0.8896484 0.6723633
vt 0.7719727 0.6748047
vt 0.8876953 0.6748047
vt 0.7705078 0.6723633
vt 0.7709961 0.706543
vt 0.7685547 0.7241211
vt 0.7709961 0.7226563
vt 0.7685547 0.7045898
vt 0.7705078 0.6938477
vt 0.8876953 0.690918
vt 0.7719727 0.690918
vt 0.8896484 0.6938477
vt 0.9536133 0.5410156
vt 0.9492188 0.5478516
vt 0.9560547 0.5405273
vt 0.9628906 0.5512695
vt 0.9570313 0.5395508
vt 0.9560547 0.5395508
vt 0.9594727 0.5366211
vt 0.9628906 0.5356445
vt 0.949707 0.5512695
vt 0.9477539 0.5483398
vt 0.9477539 0.5493164
vt 0.9462891 0.5512695
vt 0.9501953 0.5405273
vt 0.9492188 0.5419922
vt 0.9501953 0.5419922
vt 0.9384766 0.5351563
vt 0.9482422 0.5439453
vt 0.9536133 0.5351563
vt 0.9526367 0.5385742
vt 0.9384766 0.5478516
vt 0.9418945 0.5483398
vt 0.9414063 0.5498047
vt 0.9404297 0.5498047
vt 0.9384766 0.5517578
vt 0.8305664 0.5180664
vt 0.8320313 0.5200195
vt 0.8320313 0.5180664
vt 0.8305664 0.5200195
vt 0.8291016 0.5180664
vt 0.8305664 0.5200195
vt 0.8305664 0.5180664
vt 0.8291016 0.5200195
vt 0.8266602 0.5180664
vt 0.8291016 0.5200195
vt 0.8291016 0.5180664
vt 0.8266602 0.5200195
vt 0.8432617 0.5180664
vt 0.8466797 0.5200195
vt 0.8466797 0.5180664
vt 0.8432617 0.5200195
vt 0.8408203 0.5180664
vt 0.8408203 0.5200195
vt 0.8408203 0.5200195
vt 0.8393555 0.5180664
vt 0.8393555 0.5200195
vt 0.8408203 0.5180664
vt 0.8393555 0.5200195
vt 0.8383789 0.5180664
vt 0.8383789 0.5200195
vt 0.8393555 0.5180664
vt 0.8364258 0.5180664
vt 0.8383789 0.5200195
vt 0.8383789 0.5180664
vt 0.8364258 0.5200195
vt 0.8320313 0.5180664
vt 0.8364258 0.5200195
vt 0.8364258 0.5180664
vt 0.8320313 0.5200195
vt 0.8266602 0.5200195
vt 0.8232422 0.5180664
vt 0.8232422 0.5200195
vt 0.8266602 0.5180664
vt 0.8886719 0.6708984
vt 0.8911133 0.6577148
vt 0.8886719 0.6577148
vt 0.8911133 0.6708984
vt 0.7700195 0.6748047
vt 0.7680664 0.6904297
vt 0.7700195 0.6904297
vt 0.7680664 0.6748047
vn 1 0 0
vn 1 0 0
vn 1 0 0
vn 1 0 0
vn 1 0 0
vn 1 0 0
vn 1 0 0
vn 1 0 0
vn 1 0 0
vn 1 0 0
vn 1 0 0
vn 1 0 0
vn -1 0 0
vn -1 0 0
vn -1 0 0
vn -1 0 0
vn -1 0 0
vn -1 0 0
vn -1 0 0
vn -1 0 0
vn -1 0 0
vn -1 0 0
vn -1 0 0
vn -1 0 0
vn 0 -0.9819336 0.1879883
vn 0 -0.9819336 0.1879883
vn 0 -0.9819336 0.1879883
vn 0 -0.9819336 0.1879883
vn 0 -0.3537598 0.9355469
vn 0 0 1
vn 0 0 1
vn 0 -0.3537598 0.9355469
vn 0 -0.6621094 0.7495117
vn 0 -0.3537598 0.9355469
vn 0 -0.3537598 0.9355469
vn 0 -0.6621094 0.7495117
vn 0 -0.8447266 0.5356445
vn 0 -0.9643555 0.2641602
vn 0 -0.9643555 0.2641602
vn 0 -0.8447266 0.5356445
vn 0 -0.6503906 0.7597656
vn 0 -0.6503906 0.7597656
vn 0 -1 -0.0007624626
vn 0 -1 -0.0007624626
vn 0 -1 -0.0007619858
vn 0 -1 -0.0007629395
vn 0 -0.0008621216 1
vn 0 -0.0008621216 1
vn 0 -0.0008621216 1
vn 0 -0.0008621216 1
vn 0 -0.7734375 0.6337891
vn 0 -0.9272461 0.3745117
vn 0 -0.9272461 0.3745117
vn 0 -0.7734375 0.6337891
vn 0 -0.5493164 0.8359375
vn 0 -0.7734375 0.6337891
vn 0 -0.7734375 0.6337891
vn 0 -0.5493164 0.8359375
vn 0 1 0
vn 0 1 0
vn 0 1 0
vn 0 1 0
vn 0 1 0
vn 0 1 0
vn 0 1 0
vn 0 1 0
vn 0 0 -1
vn 0 0 -1
vn 0 0 -1
vn 0 0 -1
vn 0 1 0
vn 0 1 0
vn 0 1 0
vn 0 1 0
vn -0.7402344 0.6723633 0
vn -0.7402344 0.6723633 0
vn -0.7402344 0.6723633 0
vn -0.7402344 0.6723633 0
vn 0 -1 0
vn 0 -1 0
vn 0 -1 0
vn 0 -1 0
vn 0 0.6723633 -0.7402344
vn 0 0.6723633 -0.7402344
vn 0 0.6723633 -0.7402344
vn 0 0.6723633 -0.7402344
vn 0.7402344 0.6723633 0
vn 0.7402344 0.6723633 0
vn 0.7402344 0.6723633 0
vn 0.7402344 0.6723633 0
vn 0 0.6723633 0.7402344
vn 0 0.6723633 0.7402344
vn 0 0.6723633 0.7402344
vn 0 0.6723633 0.7402344
vn 1 0 0
vn 1 0 0
vn 1 0 0
vn 1 0 0
vn 1 0 0
vn 1 0 0
vn 1 0 0
vn 1 0 0
vn 1 0 0
vn 1 0 0
vn 1 0 0
vn 1 0 0
vn -1 0 0
vn -1 0 0
vn -1 0 0
vn -1 0 0
vn -1 0 0
vn -1 0 0
vn -1 0 0
vn -1 0 0
vn -1 0 0
vn -1 0 0
vn -1 0 0
vn -1 0 0
vn 0 -0.9819336 0.1879883
vn 0 -0.9819336 0.1879883
vn 0 -0.9819336 0.1879883
vn 0 -0.9819336 0.1879883
vn 0 -0.3537598 0.9355469
vn 0 0 1
vn 0 0 1
vn 0 -0.3537598 0.9355469
vn 0 -0.6621094 0.7495117
vn 0 -0.3537598 0.9355469
vn 0 -0.3537598 0.9355469
vn 0 -0.6621094 0.7495117
vn 0 -0.8447266 0.5356445
vn 0 -0.9643555 0.2641602
vn 0 -0.9643555 0.2641602
vn 0 -0.8447266 0.5356445
vn 0 -0.6503906 0.7597656
vn 0 -0.6503906 0.7597656
vn 0 -1 -0.0007624626
vn 0 -1 -0.0007624626
vn 0 -1 -0.0007619858
vn 0 -1 -0.0007629395
vn 0 -0.0008630753 1
vn 0 -0.0008630753 1
vn 0 -0.0008630753 1
vn 0 -0.0008630753 1
vn 0 -0.7734375 0.6337891
vn 0 -0.9272461 0.3745117
vn 0 -0.9272461 0.3745117
vn 0 -0.7734375 0.6337891
vn 0 -0.5493164 0.8359375
vn 0 -0.7734375 0.6337891
vn 0 -0.7734375 0.6337891
vn 0 -0.5493164 0.8359375
vn 0 1 0
vn 0 1 0
vn 0 1 0
vn 0 1 0
vn 0 1 0
vn 0 1 0
vn 0 1 0
vn 0 1 0
vn 0 0 -1
vn 0 0 -1
vn 0 0 -1
vn 0 0 -1
g Hall_Shelf_Long_0
f 3/3/3 2/2/2 1/1/1
f 4/4/4 2/2/2 3/3/3
f 3/3/3 5/5/5 4/4/4
f 6/6/6 5/5/5 3/3/3
f 5/5/5 7/7/7 4/4/4
f 8/8/8 4/4/4 7/7/7
f 9/9/9 2/2/2 4/4/4
f 2/2/2 9/9/9 10/10/10
f 10/10/10 9/9/9 11/11/11
f 12/12/12 11/11/11 9/9/9
f 15/15/15 14/14/14 13/13/13
f 14/14/14 16/16/16 13/13/13
f 14/14/14 17/17/17 16/16/16
f 16/16/16 18/18/18 13/13/13
f 19/19/19 13/13/13 18/18/18
f 17/17/17 20/20/20 16/16/16
f 21/21/21 20/20/20 17/17/17
f 20/20/20 21/21/21 22/22/22
f 20/20/20 22/22/22 23/23/23
f 20/20/20 23/23/23 24/24/24
f 27/27/27 26/26/26 25/25/25
f 28/28/28 25/25/25 26/26/26
f 31/31/31 30/30/30 29/29/29
f 32/32/32 29/29/29 30/30/30
f 35/35/35 34/34/34 33/33/33
f 36/36/36 33/33/33 34/34/34
f 39/39/39 38/38/38 37/37/37
f 40/40/40 37/37/37 38/38/38
f 37/37/37 40/40/40 41/41/41
f 42/42/42 41/41/41 40/40/40
f 45/45/45 44/44/44 43/43/43
f 46/46/46 43/43/43 44/44/44
f 49/49/49 48/48/48 47/47/47
f 50/50/50 47/47/47 48/48/48
f 53/53/53 52/52/52 51/51/51
f 54/54/54 51/51/51 52/52/52
f 57/57/57 56/56/56 55/55/55
f 58/58/58 55/55/55 56/56/56
f 61/61/61 60/60/60 59/59/59
f 62/62/62 59/59/59 60/60/60
f 65/65/65 64/64/64 63/63/63
f 66/66/66 63/63/63 64/64/64
f 69/69/69 68/68/68 67/67/67
f 70/70/70 67/67/67 68/68/68
f 73/73/73 72/72/72 71/71/71
f 74/74/74 71/71/71 72/72/72
f 77/77/77 76/76/76 75/75/75
f 78/78/78 75/75/75 76/76/76
f 81/81/81 80/80/80 79/79/79
f 82/82/82 79/79/79 80/80/80
f 85/85/85 84/84/84 83/83/83
f 86/86/86 83/83/83 84/84/84
f 89/89/89 88/88/88 87/87/87
f 90/90/90 87/87/87 88/88/88
f 93/93/93 92/92/92 91/91/91
f 94/94/94 91/91/91 92/92/92
f 97/97/97 96/96/96 95/95/95
f 98/98/98 96/96/96 97/97/97
f 97/97/97 99/99/99 98/98/98
f 100/100/100 99/99/99 97/97/97
f 99/99/99 101/101/101 98/98/98
f 102/102/102 98/98/98 101/101/101
f 103/103/103 96/96/96 98/98/98
f 96/96/96 103/103/103 104/104/104
f 104/104/104 103/103/103 105/105/105
f 106/106/106 105/105/105 103/103/103
f 109/109/109 108/108/108 107/107/107
f 108/108/108 110/110/110 107/107/107
f 108/108/108 111/111/111 110/110/110
f 110/110/110 112/112/112 107/107/107
f 113/113/113 107/107/107 112/112/112
f 111/111/111 114/114/114 110/110/110
f 115/115/115 114/114/114 111/111/111
f 114/114/114 115/115/115 116/116/116
f 114/114/114 116/116/116 117/117/117
f 114/114/114 117/117/117 118/118/118
f 121/121/121 120/120/120 119/119/119
f 122/122/122 119/119/119 120/120/120
f 125/125/125 124/124/124 123/123/123
f 126/126/126 123/123/123 124/124/124
f 129/129/129 128/128/128 127/127/127
f 130/130/130 127/127/127 128/128/128
f 133/133/133 132/132/132 131/131/131
f 134/134/134 131/131/131 132/132/132
f 131/131/131 134/134/134 135/135/135
f 136/136/136 135/135/135 134/134/134
f 139/139/139 138/138/138 137/137/137
f 140/140/140 137/137/137 138/138/138
f 143/143/143 142/142/142 141/141/141
f 144/144/144 141/141/141 142/142/142
f 147/147/147 146/146/146 145/145/145
f 148/148/148 145/145/145 146/146/146
f 151/151/151 150/150/150 149/149/149
f 152/152/152 149/149/149 150/150/150
f 155/155/155 154/154/154 153/153/153
f 156/156/156 153/153/153 154/154/154
f 159/159/159 158/158/158 157/157/157
f 160/160/160 157/157/157 158/158/158
f 163/163/163 162/162/162 161/161/161
f 164/164/164 161/161/161 162/162/162
