g Room_Sifoner_Door_L
v 0.5236342 0.4796579 -0.03351412
v 0.5236342 0.4796579 -0.005108719
v -0.00493515 0.4796579 -0.005108491
v -0.00493515 0.4796579 -0.03351389
v 0.4723944 0.06436218 -2.507999E-05
v 0.4447819 0.07259716 -0.005165535
v 0.4730538 0.06502166 -0.005165535
v 0.4450233 0.07169628 -2.507999E-05
v 0.4240852 0.05190052 -0.005165539
v 0.4249861 0.05165913 -2.508476E-05
v 0.5236342 -0.42742 -0.03351429
v -0.00493515 -0.42742 -0.03351406
v -0.00493515 -0.42742 -0.005108685
v 0.5236342 -0.42742 -0.005108914
v 0.5236342 0.4796579 -0.005108719
v 0.5236342 0.4796579 -0.03351412
v 0.5236342 -0.42742 -0.03351429
v 0.5236342 -0.42742 -0.005108914
v -0.00493515 0.4796579 -0.005108491
v -0.00493515 -0.42742 -0.005108685
v -0.00493515 -0.42742 -0.03351406
v -0.00493515 0.4796579 -0.03351389
v -0.00493515 0.4796579 -0.03351389
v -0.00493515 -0.42742 -0.03351406
v 0.5236342 -0.42742 -0.03351429
v 0.5236342 0.4796579 -0.03351412
v 0.4249861 0.05165913 -2.508476E-05
v 0.4323202 0.02428787 -2.508476E-05
v 0.4316607 0.02362839 -0.005165542
v 0.4240852 0.05190052 -0.005165539
v 0.4596914 0.01695374 -2.508476E-05
v 0.4797285 0.03699093 -2.508476E-05
v 0.4806294 0.03674953 -0.005165539
v 0.4599328 0.0160529 -0.005165542
v 0.4323202 0.02428787 -2.508476E-05
v 0.4316607 0.02362839 -0.005165542
v 0.4797285 0.03699093 -2.508476E-05
v 0.4723944 0.06436218 -2.507999E-05
v 0.4730538 0.06502166 -0.005165535
v 0.4806294 0.03674953 -0.005165539
v 0.4323202 0.02428787 -2.508476E-05
v 0.4249861 0.05165913 -2.508476E-05
v 0.4450233 0.07169628 -2.507999E-05
v 0.4797285 0.03699093 -2.508476E-05
v 0.4596914 0.01695374 -2.508476E-05
v 0.4723944 0.06436218 -2.507999E-05
v -0.00493515 0.4796579 -0.005108491
v 0.5236342 0.4796579 -0.005108719
v 0.5236342 -0.42742 -0.005108914
v -0.00493515 -0.42742 -0.005108685
vt 0.265625 0.9858398
vt 0.2631836 0.9858398
vt 0.2631836 0.9418945
vt 0.265625 0.9418945
vt 0.4448242 0.9091797
vt 0.4440918 0.9018555
vt 0.4438477 0.9101563
vt 0.4450684 0.9023438
vt 0.4509277 0.8979492
vt 0.4509277 0.8989258
vt 0.2666016 0.9858398
vt 0.2666016 0.9418945
vt 0.269043 0.9418945
vt 0.269043 0.9858398
vt 0.3417969 0.6542969
vt 0.3442383 0.6542969
vt 0.3442383 0.7294922
vt 0.3417969 0.7294922
vt 0.3547363 0.6542969
vt 0.3547363 0.7294922
vt 0.3522949 0.7294922
vt 0.3522949 0.6542969
vt 0.3984375 0.9418945
vt 0.3984375 0.9794922
vt 0.3762207 0.9794922
vt 0.3762207 0.9418945
vt 0.4509277 0.8989258
vt 0.4570313 0.9023438
vt 0.4580078 0.9018555
vt 0.4509277 0.8979492
vt 0.4570313 0.909668
vt 0.4509277 0.9130859
vt 0.4509277 0.9140625
vt 0.4580078 0.9101563
vt 0.4570313 0.9023438
vt 0.4580078 0.9018555
vt 0.4509277 0.9130859
vt 0.4448242 0.9091797
vt 0.4438477 0.9101563
vt 0.4509277 0.9140625
vt 0.4570313 0.9023438
vt 0.4509277 0.8989258
vt 0.4450684 0.9023438
vt 0.4509277 0.9130859
vt 0.4570313 0.909668
vt 0.4448242 0.9091797
vt 0.342041 0.5776367
vt 0.3859863 0.5776367
vt 0.3859863 0.652832
vt 0.342041 0.652832
vn 0 1 0
vn 0 1 0
vn 0 1 0
vn 0 1 0
vn 0.6958008 0.6958008 0.1784668
vn -0.2546387 0.9501953 0.1784668
vn 0.6958008 0.6958008 0.1784668
vn -0.2546387 0.9501953 0.1784668
vn -0.9501953 0.2546387 0.1784668
vn -0.9501953 0.2546387 0.1784668
vn 0 -1 0
vn 0 -1 0
vn 0 -1 0
vn 0 -1 0
vn 1 0 0
vn 1 0 0
vn 1 0 0
vn 1 0 0
vn -1 0 0
vn -1 0 0
vn -1 0 0
vn -1 0 0
vn 0 0 -1
vn 0 0 -1
vn 0 0 -1
vn 0 0 -1
vn -0.9501953 0.2546387 0.1784668
vn -0.6958008 -0.6958008 0.1784668
vn -0.6958008 -0.6958008 0.1784668
vn -0.9501953 0.2546387 0.1784668
vn 0.2546387 -0.9501953 0.1784668
vn 0.9501953 -0.2546387 0.1784668
vn 0.9501953 -0.2546387 0.1784668
vn 0.2546387 -0.9501953 0.1784668
vn -0.6958008 -0.6958008 0.1784668
vn -0.6958008 -0.6958008 0.1784668
vn 0.9501953 -0.2546387 0.1784668
vn 0.6958008 0.6958008 0.1784668
vn 0.6958008 0.6958008 0.1784668
vn 0.9501953 -0.2546387 0.1784668
vn 0 0 1
vn 0 0 1
vn 0 0 1
vn 0 0 1
vn 0 0 1
vn 0 0 1
vn 0 0 1
vn 0 0 1
vn 0 0 1
vn 0 0 1
g Room_Sifoner_Door_L_0
f 3/3/3 2/2/2 1/1/1
f 4/4/4 3/3/3 1/1/1
f 7/7/7 6/6/6 5/5/5
f 6/6/6 8/8/8 5/5/5
f 6/6/6 9/9/9 8/8/8
f 9/9/9 10/10/10 8/8/8
f 13/13/13 12/12/12 11/11/11
f 14/14/14 13/13/13 11/11/11
f 17/17/17 16/16/16 15/15/15
f 18/18/18 17/17/17 15/15/15
f 21/21/21 20/20/20 19/19/19
f 22/22/22 21/21/21 19/19/19
f 25/25/25 24/24/24 23/23/23
f 26/26/26 25/25/25 23/23/23
f 29/29/29 28/28/28 27/27/27
f 30/30/30 29/29/29 27/27/27
f 33/33/33 32/32/32 31/31/31
f 34/34/34 33/33/33 31/31/31
f 34/34/34 31/31/31 35/35/35
f 36/36/36 34/34/34 35/35/35
f 39/39/39 38/38/38 37/37/37
f 40/40/40 39/39/39 37/37/37
f 43/43/43 42/42/42 41/41/41
f 44/44/44 43/43/43 41/41/41
f 45/45/45 44/44/44 41/41/41
f 43/43/43 44/44/44 46/46/46
f 49/49/49 48/48/48 47/47/47
f 50/50/50 49/49/49 47/47/47
