g Table_Knife
v -0.01332275 0.008186264 0.170672
v -0.002640381 0.005001488 0.02234617
v -0.004356079 0.008186264 0.02234617
v -0.009906006 0.003455887 0.170672
v 0.003065185 0.00331131 0.02234617
v -0.009166259 0.008186264 0.1820036
v 0.003065185 0.0005915833 0.170672
v 0.008770752 0.005001488 0.02234617
v -0.007704468 0.006092529 0.1807992
v 0.003065185 0.003782387 0.1833631
v 0.003065185 0.008186264 0.1856113
v 0.01536011 0.008186264 0.1819726
v 0.01603638 0.003455887 0.170672
v 0.01048645 0.008186264 0.02234617
v 0.01945313 0.008186264 0.170672
v 0.01383545 0.006092529 0.1807991
v -0.002640381 0.005001488 0.02234617
v -0.004356079 0.008186264 0.0121501
v -0.004356079 0.008186264 0.02234617
v -0.002640381 0.005461655 0.0121501
v 0.003065185 0.00331131 0.02234617
v -0.004384155 0.006347008 0.007008462
v -0.006099853 0.008186264 0.007008462
v 0.003065185 0.005461655 0.0121501
v 0.008770752 0.005001488 0.02234617
v -0.01042297 0.006347008 0.0001529455
v -0.01213867 0.008186264 0.0001529455
v -0.01773743 0.006347008 -0.004988689
v -0.01945313 0.008186264 -0.004988689
v 0.003065185 0.006347008 -0.004988689
v 0.008770752 0.006347008 -0.004988689
v 0.008770752 0.005461655 0.0121501
v 0.01048645 0.008186264 0.02234617
v 0.01048645 0.008186264 0.0121501
v 0.01048645 0.008186264 -0.004988689
v -0.01773743 0.01002552 -0.004988689
v -0.01213867 0.008186264 0.0001529455
v -0.01945313 0.008186264 -0.004988689
v -0.01042297 0.01002552 0.0001529455
v -0.006099853 0.008186264 0.007008462
v 0.003065185 0.01002552 -0.004988689
v -0.004384155 0.01002552 0.007008462
v -0.004356079 0.008186264 0.0121501
v 0.003065185 0.01091087 0.0121501
v 0.008770752 0.01002552 -0.004988689
v -0.002640381 0.01091087 0.0121501
v -0.004356079 0.008186264 0.02234617
v -0.002640381 0.01137104 0.02234617
v 0.003065185 0.01306122 0.02234617
v 0.008770752 0.01091087 0.0121501
v 0.01048645 0.008186264 -0.004988689
v 0.008770752 0.01137104 0.02234617
v 0.01048645 0.008186264 0.0121501
v 0.01048645 0.008186264 0.02234617
v 0.008770752 0.01002552 -0.004988689
v 0.01048645 0.008186264 -0.09187269
v 0.01048645 0.008186264 -0.004988689
v 0.008770752 0.01002552 -0.09187269
v 0.01048645 0.008186264 -0.1459811
v 0.003065185 0.01002552 -0.004988689
v 0.008770752 0.01002552 -0.1459811
v 0.01048645 0.008186264 -0.1758137
v 0.003065185 0.01002552 -0.09187269
v 0.008770752 0.01002552 -0.1758137
v 0.009924927 0.008186264 -0.1843362
v -0.01726685 0.01002552 -0.07612054
v -0.01773743 0.01002552 -0.004988689
v -0.01945313 0.008186264 -0.004988689
v -0.01898193 0.008186264 -0.07612054
v -0.01766357 0.008186264 -0.1076249
v -0.01594849 0.01002552 -0.1076249
v -0.01477661 0.008186264 -0.1331957
v -0.0130603 0.01002552 -0.1331957
v -0.009146118 0.008186264 -0.1587665
v 0.003065185 0.01002552 -0.1459811
v -0.00743042 0.01002552 -0.1587665
v -0.002731933 0.008186264 -0.1758137
v -0.001016846 0.01002552 -0.1758137
v 0.004528808 0.01002552 -0.1758137
v 0.002890015 0.01002552 -0.1826643
v 0.002521973 0.008186264 -0.1843016
v 0.00621582 0.008186264 -0.1856113
v 0.005731201 0.01002552 -0.1838171
v 0.008622437 0.01002552 -0.1830452
v -0.01773743 0.006347008 -0.004988689
v -0.01898193 0.008186264 -0.07612054
v -0.01945313 0.008186264 -0.004988689
v -0.01726685 0.006347008 -0.07612054
v -0.01766357 0.008186264 -0.1076249
v 0.003065185 0.006347008 -0.004988689
v -0.01594849 0.006347008 -0.1076249
v -0.01477661 0.008186264 -0.1331957
v 0.003065185 0.006347008 -0.09187269
v -0.0130603 0.006347008 -0.1331957
v -0.009146118 0.008186264 -0.1587665
v 0.008770752 0.006347008 -0.09187269
v 0.008770752 0.006347008 -0.004988689
v 0.01048645 0.008186264 -0.004988689
v 0.01048645 0.008186264 -0.09187269
v 0.003065185 0.006347008 -0.1459811
v -0.00743042 0.006347008 -0.1587665
v -0.002731933 0.008186264 -0.1758137
v 0.008770752 0.006347008 -0.1459811
v 0.01048645 0.008186264 -0.1459811
v -0.001016846 0.006347008 -0.1758137
v 0.002521973 0.008186264 -0.1843016
v 0.004528808 0.006347008 -0.1758137
v 0.008770752 0.006347008 -0.1758137
v 0.01048645 0.008186264 -0.1758137
v 0.002890015 0.006347008 -0.1826643
v 0.005731201 0.006347008 -0.1838171
v 0.00621582 0.008186264 -0.1856113
v 0.008622437 0.006347008 -0.1830452
v 0.009924927 0.008186264 -0.1843362
v 0.01048645 0.008186264 0.02234617
v 0.01603638 0.01291664 0.170672
v 0.008770752 0.01137104 0.02234617
v 0.01945313 0.008186264 0.170672
v 0.003065185 0.01306122 0.02234617
v 0.01536011 0.008186264 0.1819726
v 0.003065185 0.01578094 0.170672
v -0.002640381 0.01137104 0.02234617
v 0.01383545 0.01028 0.1807991
v 0.003065185 0.008186264 0.1856113
v 0.003065185 0.01259014 0.183363
v -0.007704468 0.01028 0.1807991
v -0.009166259 0.008186264 0.1820036
v -0.009906006 0.01291664 0.170672
v -0.004356079 0.008186264 0.02234617
v -0.01332275 0.008186264 0.170672
vt 0.9731445 0.2371826
vt 0.9755859 0.1894531
vt 0.9746094 0.1894531
vt 0.9750977 0.2369385
vt 0.9775391 0.1893311
vt 0.9750977 0.2408447
vt 0.9790039 0.2366943
vt 0.9794922 0.1893311
vt 0.9755859 0.2402344
vt 0.9794922 0.2407227
vt 0.9794922 0.2421875
vt 0.9833984 0.2406006
vt 0.9833984 0.2366943
vt 0.9804688 0.189209
vt 0.9853516 0.2368164
vt 0.9829102 0.2399902
vt 0.9755859 0.1894531
vt 0.9746094 0.1861572
vt 0.9746094 0.1894531
vt 0.9755859 0.1861572
vt 0.9775391 0.1893311
vt 0.9750977 0.1844482
vt 0.9741211 0.1845703
vt 0.9775391 0.1860352
vt 0.9794922 0.1893311
vt 0.9731445 0.182251
vt 0.972168 0.1824951
vt 0.9707031 0.180542
vt 0.9702148 0.1806641
vt 0.9775391 0.180542
vt 0.9794922 0.180542
vt 0.9794922 0.1860352
vt 0.9804688 0.189209
vt 0.9804688 0.1860352
vt 0.9799805 0.180542
vt 0.9853516 0.184082
vt 0.9868164 0.1821289
vt 0.984375 0.18396
vt 0.9873047 0.182373
vt 0.9882813 0.1799316
vt 0.9916992 0.1838379
vt 0.9892578 0.1800537
vt 0.9887695 0.1783447
vt 0.9916992 0.1782227
vt 0.9936523 0.1837158
vt 0.9897461 0.1783447
vt 0.9882813 0.1750488
vt 0.9897461 0.1750488
vt 0.9916992 0.1750488
vt 0.9936523 0.1782227
vt 0.9946289 0.1837158
vt 0.9931641 0.1749268
vt 0.9946289 0.1782227
vt 0.9946289 0.1749268
vt 0.9936523 0.1837158
vt 0.9956055 0.2115479
vt 0.9946289 0.1837158
vt 0.9946289 0.2115479
vt 0.9960938 0.2288818
vt 0.9916992 0.1838379
vt 0.9951172 0.2288818
vt 0.996582 0.2384033
vt 0.9926758 0.2115479
vt 0.9956055 0.2384033
vt 0.9960938 0.2412109
vt 0.9863281 0.2067871
vt 0.9853516 0.184082
vt 0.984375 0.18396
vt 0.9853516 0.2067871
vt 0.9858398 0.2169189
vt 0.9868164 0.2169189
vt 0.9873047 0.2250977
vt 0.9882813 0.2249756
vt 0.9892578 0.2332764
vt 0.9936523 0.2288818
vt 0.9902344 0.2331543
vt 0.9916992 0.2386475
vt 0.9926758 0.2385254
vt 0.9941406 0.2384033
vt 0.9936523 0.2406006
vt 0.9936523 0.241333
vt 0.9951172 0.2418213
vt 0.9946289 0.2409668
vt 0.9956055 0.2407227
vt 0.9707031 0.180542
vt 0.9697266 0.1578369
vt 0.9702148 0.1806641
vt 0.9707031 0.1578369
vt 0.9702148 0.1477051
vt 0.9775391 0.180542
vt 0.9711914 0.1477051
vt 0.9711914 0.1395264
vt 0.9770508 0.15271
vt 0.9716797 0.1395264
vt 0.9726563 0.1312256
vt 0.9790039 0.15271
vt 0.9794922 0.180542
vt 0.9799805 0.180542
vt 0.9799805 0.15271
vt 0.9770508 0.135376
vt 0.9736328 0.1313477
vt 0.9746094 0.1257324
vt 0.9790039 0.135376
vt 0.9794922 0.135376
vt 0.9755859 0.1258545
vt 0.9765625 0.1229858
vt 0.9775391 0.1258545
vt 0.9785156 0.1258545
vt 0.9794922 0.1257324
vt 0.9770508 0.1236572
vt 0.9775391 0.123291
vt 0.9780273 0.1224976
vt 0.9785156 0.1235352
vt 0.9790039 0.1229858
vt 0.9946289 0.1749268
vt 0.9951172 0.1274414
vt 0.9931641 0.1749268
vt 0.9970703 0.1271973
vt 0.9916992 0.1750488
vt 0.9951172 0.1235352
vt 0.9907227 0.1275635
vt 0.9897461 0.1750488
vt 0.9946289 0.1241455
vt 0.9907227 0.1221313
vt 0.9907227 0.1235962
vt 0.9873047 0.1242065
vt 0.9868164 0.1235962
vt 0.9868164 0.1275635
vt 0.9882813 0.1750488
vt 0.9848633 0.1273193
vn -0.9907227 0.0005249977 0.1361084
vn -0.621582 -0.7827148 -0.03384399
vn -0.9995117 0.004096985 -0.03393555
vn -0.5478516 -0.8261719 0.1330566
vn 0.02250671 -0.9960938 -0.08618164
vn -0.6923828 0.009544373 0.7216797
vn 0.0004606247 -0.9921875 0.12323
vn 0.6054688 -0.793457 -0.06561279
vn -0.4301758 -0.7744141 0.4641113
vn 0.0001711845 -0.7827148 0.6225586
vn 0.0002418756 0.01221466 1
vn 0.6953125 0.00907135 0.71875
vn 0.5473633 -0.8266602 0.1308594
vn 0.9995117 -0.003248215 -0.0324707
vn 0.9912109 0 0.1334229
vn 0.4250488 -0.7763672 0.4655762
vn -0.621582 -0.7827148 -0.03384399
vn -0.9921875 0.00358963 0.1247559
vn -0.9995117 0.004096985 -0.03393555
vn -0.4592285 -0.8857422 -0.06500244
vn 0.02250671 -0.9960938 -0.08618164
vn -0.3840332 -0.9121094 0.1434326
vn -0.8398438 0 0.5424805
vn 0.01092529 -0.9936523 -0.1135254
vn 0.6054688 -0.793457 -0.06561279
vn -0.3120117 -0.8935547 0.3227539
vn -0.6352539 0 0.7724609
vn -0.4431152 -0.8427734 0.3059082
vn -0.9204102 0 0.3913574
vn -0.007350922 -1 -0.01747131
vn 0.40625 -0.9135742 -0.01490021
vn 0.486084 -0.8730469 -0.03668213
vn 0.9995117 -0.003248215 -0.0324707
vn 1 -0.008018494 -0.01296234
vn 1 -0.005641937 -0.0105896
vn -0.4431152 0.8427734 0.3059082
vn -0.6352539 0 0.7724609
vn -0.9204102 0 0.3913574
vn -0.3120117 0.8935547 0.3227539
vn -0.8398438 0 0.5424805
vn -0.007350922 1 -0.01747131
vn -0.3840332 0.9121094 0.1434326
vn -0.9921875 0.00358963 0.1247559
vn -0.03637695 0.9926758 -0.1134644
vn 0.401123 0.9155273 -0.02375793
vn -0.4404297 0.8974609 -0.0287323
vn -0.9995117 0.004096985 -0.03393555
vn -0.6054688 0.793457 -0.06561279
vn -0.02250671 0.9960938 -0.08618164
vn 0.5 0.8632813 -0.06610107
vn 1 -0.005641937 -0.0105896
vn 0.6220703 0.7822266 -0.03253174
vn 1 -0.008018494 -0.01296234
vn 0.9995117 -0.003248215 -0.0324707
vn 0.401123 0.9155273 -0.02375793
vn 1 0 0
vn 1 -0.005641937 -0.0105896
vn 0.3986816 0.9169922 0
vn 1 0 0
vn -0.007350922 1 -0.01747131
vn 0.3986816 0.9169922 0
vn 0.9995117 0.004909515 -0.02368164
vn 0 1 0
vn 0.4055176 0.9140625 -0.01186371
vn 0.7797852 0.01009369 -0.6259766
vn -0.4023438 0.9155273 -0.00982666
vn -0.4431152 0.8427734 0.3059082
vn -0.9204102 0 0.3913574
vn -0.9995117 0 -0.02403259
vn -0.9970703 0 -0.0758667
vn -0.4057617 0.9135742 -0.03182983
vn -0.9873047 0 -0.1602783
vn -0.4069824 0.9106445 -0.06921387
vn -0.9609375 0 -0.276123
vn 0 1 0
vn -0.4055176 0.9057617 -0.1243896
vn -0.9072266 -0.002492905 -0.420166
vn -0.3955078 0.8979492 -0.1932373
vn 0 1 0
vn -0.3522949 0.8613281 -0.3657227
vn -0.5942383 0.003484726 -0.8041992
vn 0.01486969 0.01013947 -1
vn -0.04553223 0.8847656 -0.463623
vn 0.4116211 0.8642578 -0.2895508
vn -0.4431152 -0.8427734 0.3059082
vn -0.9995117 0 -0.02403259
vn -0.9204102 0 0.3913574
vn -0.4023438 -0.9155273 -0.00982666
vn -0.9970703 0 -0.0758667
vn -0.007350922 -1 -0.01747131
vn -0.4057617 -0.9135742 -0.03182983
vn -0.9873047 0 -0.1602783
vn 0 -1 0
vn -0.4069824 -0.9106445 -0.06921387
vn -0.9609375 0 -0.276123
vn 0.3986816 -0.9169922 0
vn 0.40625 -0.9135742 -0.01490021
vn 1 -0.005641937 -0.0105896
vn 1 0 0
vn 0 -1 0
vn -0.4055176 -0.9057617 -0.1243896
vn -0.9072266 -0.002492905 -0.420166
vn 0.3986816 -0.9169922 0
vn 1 0 0
vn -0.3972168 -0.8945313 -0.2039795
vn -0.5942383 0.003484726 -0.8041992
vn 0 -1 0
vn 0.4008789 -0.9160156 -0.004127502
vn 0.9995117 0.004909515 -0.02368164
vn -0.3691406 -0.8583984 -0.3564453
vn -0.04519653 -0.890625 -0.4526367
vn 0.01486969 0.01013947 -1
vn 0.4030762 -0.8706055 -0.2822266
vn 0.7797852 0.01009369 -0.6259766
vn 0.9995117 -0.003248215 -0.0324707
vn 0.5478516 0.8261719 0.1314697
vn 0.6220703 0.7822266 -0.03253174
vn 0.9912109 0 0.1334229
vn -0.02250671 0.9960938 -0.08618164
vn 0.6953125 0.00907135 0.71875
vn -0.0004637241 0.9921875 0.12323
vn -0.6054688 0.793457 -0.06561279
vn 0.4072266 0.765625 0.498291
vn 0.0002418756 0.01221466 1
vn 0 0.7749023 0.6323242
vn -0.4121094 0.7641602 0.496582
vn -0.6923828 0.009544373 0.7216797
vn -0.5478516 0.8261719 0.1315918
vn -0.9995117 0.004096985 -0.03393555
vn -0.9907227 0.0005249977 0.1361084
g Table_Knife_0
f 3/3/3 2/2/2 1/1/1
f 4/4/4 1/1/1 2/2/2
f 2/2/2 5/5/5 4/4/4
f 1/1/1 4/4/4 6/6/6
f 7/7/7 4/4/4 5/5/5
f 5/5/5 8/8/8 7/7/7
f 9/9/9 6/6/6 4/4/4
f 4/4/4 7/7/7 9/9/9
f 9/9/9 10/10/10 6/6/6
f 10/10/10 9/9/9 7/7/7
f 11/11/11 6/6/6 10/10/10
f 11/11/11 10/10/10 12/12/12
f 13/13/13 7/7/7 8/8/8
f 8/8/8 14/14/14 13/13/13
f 15/15/15 13/13/13 14/14/14
f 15/15/15 12/12/12 13/13/13
f 16/16/16 12/12/12 10/10/10
f 10/10/10 7/7/7 16/16/16
f 16/16/16 13/13/13 12/12/12
f 13/13/13 16/16/16 7/7/7
f 19/19/19 18/18/18 17/17/17
f 20/20/20 17/17/17 18/18/18
f 17/17/17 20/20/20 21/21/21
f 20/20/20 18/18/18 22/22/22
f 23/23/23 22/22/22 18/18/18
f 24/24/24 21/21/21 20/20/20
f 20/20/20 22/22/22 24/24/24
f 21/21/21 24/24/24 25/25/25
f 22/22/22 23/23/23 26/26/26
f 27/27/27 26/26/26 23/23/23
f 26/26/26 27/27/27 28/28/28
f 29/29/29 28/28/28 27/27/27
f 28/28/28 30/30/30 26/26/26
f 26/26/26 30/30/30 22/22/22
f 30/30/30 24/24/24 22/22/22
f 30/30/30 31/31/31 24/24/24
f 32/32/32 25/25/25 24/24/24
f 32/32/32 24/24/24 31/31/31
f 25/25/25 32/32/32 33/33/33
f 34/34/34 33/33/33 32/32/32
f 32/32/32 31/31/31 34/34/34
f 35/35/35 34/34/34 31/31/31
f 38/38/38 37/37/37 36/36/36
f 39/39/39 36/36/36 37/37/37
f 37/37/37 40/40/40 39/39/39
f 36/36/36 39/39/39 41/41/41
f 42/42/42 39/39/39 40/40/40
f 39/39/39 42/42/42 41/41/41
f 40/40/40 43/43/43 42/42/42
f 41/41/41 42/42/42 44/44/44
f 41/41/41 44/44/44 45/45/45
f 46/46/46 42/42/42 43/43/43
f 46/46/46 44/44/44 42/42/42
f 43/43/43 47/47/47 46/46/46
f 48/48/48 46/46/46 47/47/47
f 46/46/46 48/48/48 44/44/44
f 49/49/49 44/44/44 48/48/48
f 50/50/50 45/45/45 44/44/44
f 44/44/44 49/49/49 50/50/50
f 45/45/45 50/50/50 51/51/51
f 52/52/52 50/50/50 49/49/49
f 53/53/53 51/51/51 50/50/50
f 50/50/50 52/52/52 53/53/53
f 54/54/54 53/53/53 52/52/52
f 57/57/57 56/56/56 55/55/55
f 58/58/58 55/55/55 56/56/56
f 56/56/56 59/59/59 58/58/58
f 55/55/55 58/58/58 60/60/60
f 61/61/61 58/58/58 59/59/59
f 59/59/59 62/62/62 61/61/61
f 63/63/63 60/60/60 58/58/58
f 58/58/58 61/61/61 63/63/63
f 64/64/64 61/61/61 62/62/62
f 62/62/62 65/65/65 64/64/64
f 63/63/63 66/66/66 60/60/60
f 67/67/67 60/60/60 66/66/66
f 67/67/67 66/66/66 68/68/68
f 69/69/69 68/68/68 66/66/66
f 69/69/69 66/66/66 70/70/70
f 71/71/71 70/70/70 66/66/66
f 66/66/66 63/63/63 71/71/71
f 70/70/70 71/71/71 72/72/72
f 73/73/73 72/72/72 71/71/71
f 71/71/71 63/63/63 73/73/73
f 72/72/72 73/73/73 74/74/74
f 75/75/75 63/63/63 61/61/61
f 75/75/75 73/73/73 63/63/63
f 61/61/61 64/64/64 75/75/75
f 76/76/76 74/74/74 73/73/73
f 76/76/76 73/73/73 75/75/75
f 74/74/74 76/76/76 77/77/77
f 76/76/76 75/75/75 78/78/78
f 78/78/78 77/77/77 76/76/76
f 79/79/79 75/75/75 64/64/64
f 79/79/79 78/78/78 75/75/75
f 78/78/78 80/80/80 77/77/77
f 81/81/81 77/77/77 80/80/80
f 81/81/81 80/80/80 82/82/82
f 80/80/80 78/78/78 83/83/83
f 83/83/83 82/82/82 80/80/80
f 79/79/79 83/83/83 78/78/78
f 82/82/82 83/83/83 65/65/65
f 84/84/84 64/64/64 65/65/65
f 64/64/64 84/84/84 79/79/79
f 84/84/84 65/65/65 83/83/83
f 83/83/83 79/79/79 84/84/84
f 87/87/87 86/86/86 85/85/85
f 88/88/88 85/85/85 86/86/86
f 86/86/86 89/89/89 88/88/88
f 85/85/85 88/88/88 90/90/90
f 91/91/91 88/88/88 89/89/89
f 89/89/89 92/92/92 91/91/91
f 93/93/93 90/90/90 88/88/88
f 88/88/88 91/91/91 93/93/93
f 94/94/94 91/91/91 92/92/92
f 91/91/91 94/94/94 93/93/93
f 92/92/92 95/95/95 94/94/94
f 93/93/93 96/96/96 90/90/90
f 97/97/97 90/90/90 96/96/96
f 97/97/97 96/96/96 98/98/98
f 99/99/99 98/98/98 96/96/96
f 100/100/100 93/93/93 94/94/94
f 93/93/93 100/100/100 96/96/96
f 101/101/101 94/94/94 95/95/95
f 101/101/101 100/100/100 94/94/94
f 95/95/95 102/102/102 101/101/101
f 96/96/96 103/103/103 99/99/99
f 103/103/103 96/96/96 100/100/100
f 104/104/104 99/99/99 103/103/103
f 105/105/105 101/101/101 102/102/102
f 101/101/101 105/105/105 100/100/100
f 102/102/102 106/106/106 105/105/105
f 100/100/100 107/107/107 103/103/103
f 107/107/107 100/100/100 105/105/105
f 103/103/103 108/108/108 104/104/104
f 108/108/108 103/103/103 107/107/107
f 109/109/109 104/104/104 108/108/108
f 110/110/110 105/105/105 106/106/106
f 105/105/105 110/110/110 107/107/107
f 110/110/110 106/106/106 111/111/111
f 111/111/111 107/107/107 110/110/110
f 107/107/107 111/111/111 108/108/108
f 112/112/112 111/111/111 106/106/106
f 108/108/108 113/113/113 109/109/109
f 113/113/113 108/108/108 111/111/111
f 111/111/111 112/112/112 113/113/113
f 114/114/114 109/109/109 113/113/113
f 114/114/114 113/113/113 112/112/112
f 117/117/117 116/116/116 115/115/115
f 118/118/118 115/115/115 116/116/116
f 117/117/117 119/119/119 116/116/116
f 118/118/118 116/116/116 120/120/120
f 121/121/121 116/116/116 119/119/119
f 119/119/119 122/122/122 121/121/121
f 123/123/123 120/120/120 116/116/116
f 116/116/116 121/121/121 123/123/123
f 120/120/120 123/123/123 124/124/124
f 125/125/125 124/124/124 123/123/123
f 125/125/125 123/123/123 121/121/121
f 125/125/125 126/126/126 124/124/124
f 125/125/125 121/121/121 126/126/126
f 127/127/127 124/124/124 126/126/126
f 128/128/128 121/121/121 122/122/122
f 128/128/128 126/126/126 121/121/121
f 126/126/126 128/128/128 127/127/127
f 122/122/122 129/129/129 128/128/128
f 130/130/130 127/127/127 128/128/128
f 130/130/130 128/128/128 129/129/129
