g Vase_1_Bottle_1
v -0.03770157 0.2012935 -0.03770125
v -0.01887497 0.3079647 -0.01887445
v -0.02763489 0.3079646 4.892755E-07
v -0.05519882 0.2012935 2.379461E-07
v -0.06378403 0.1510201 -0.03682565
v -0.07365143 0.1510201 6.445553E-08
v -0.06943192 0.07965846 -0.04008651
v -0.08017303 0.07965846 4.818139E-09
v -0.06378403 0.1510201 0.03682579
v -0.04060226 0.0161806 -0.02344135
v -0.06943192 0.07965845 0.04008652
v -0.04688339 0.0161806 3.337274E-07
v -0.04767304 -1.506777E-14 -0.02752372
v -0.04060226 0.0161806 0.02344202
v -0.05504822 -1.506166E-14 3.319622E-07
v -0.04767304 -1.505555E-14 0.02752439
v 0.05519897 0.2012935 2.469821E-07
v 0.02763489 0.3079647 4.890557E-07
v 0.01887512 0.3079647 -0.01887445
v 0.03770142 0.2012935 -0.03770125
v 0 0.3079646 -0.02763432
v 0.07365112 0.1510201 7.349148E-08
v 0 0.2012935 -0.05519857
v 0.06378417 0.1510201 -0.03682564
v 0.08017303 0.07965845 1.566128E-08
v 0.03682556 0.1510201 -0.06378394
v 0 0.1510201 -0.07365134
v 0.06943176 0.07965846 -0.04008651
v 0.04688324 0.0161806 3.445706E-07
v 0.04008667 0.07965847 -0.06943189
v 0 0.07965846 -0.08017302
v 0.04060211 0.0161806 -0.02344134
v 0.05504822 -1.506166E-14 3.446937E-07
v 0.04767304 -1.506777E-14 -0.0275237
v 0.02344177 0.0161806 -0.04060185
v 0 0.0161806 -0.04688301
v 0.02752411 -1.507224E-14 -0.04767272
v 0 -1.507388E-14 -0.05504774
v 0.02763489 0.3079647 4.890557E-07
v 0.01852356 0.3191645 0.01852422
v 0.02712067 0.3191645 4.856413E-07
v 0.01887512 0.3079646 0.01887543
v 0 0.3191645 0.0271211
v 0 0.3079647 0.02763531
v 0.04688324 0.0161806 3.445706E-07
v 0.05504822 -1.506166E-14 3.446937E-07
v 0.04767304 -1.505555E-14 0.02752442
v 0.04060211 0.0161806 0.02344206
v 0.08017303 0.07965845 1.566128E-08
v 0.02752411 1.192078E-09 0.04767342
v 0.06943176 0.07965846 0.04008659
v 0.07365112 0.1510201 7.349148E-08
v 0.02344177 0.0161806 0.04060255
v 0 -1.504943E-14 0.05504844
v 0 0.0161806 0.04688371
v 0.04008667 0.07965846 0.06943193
v 0 0.07965846 0.08017305
v 0.06378417 0.1510201 0.03682584
v 0.05519897 0.2012935 2.469821E-07
v 0.03682556 0.1510201 0.06378412
v 0 0.1510201 0.07365151
v 0.03770142 0.2012935 0.03770177
v 0.02763489 0.3079647 4.890557E-07
v 0 0.2012935 0.05519907
v 0.01887512 0.3079646 0.01887543
v 0 0.3079647 0.02763531
v 0 0.0161806 0.04688371
v 0 -1.504943E-14 0.05504844
v -0.02752411 1.192078E-09 0.04767339
v -0.02344177 0.0161806 0.04060253
v -0.04767304 -1.505555E-14 0.02752439
v 0 0.07965846 0.08017305
v -0.04060226 0.0161806 0.02344202
v -0.04008667 0.07965844 0.06943189
v 0 0.1510201 0.07365151
v -0.06943192 0.07965845 0.04008652
v -0.03682587 0.1510201 0.06378408
v 0 0.2012935 0.05519907
v -0.06378403 0.1510201 0.03682579
v -0.03770157 0.2012934 0.03770173
v 0 0.3079647 0.02763531
v -0.07365143 0.1510201 6.445553E-08
v -0.01887497 0.3079646 0.01887542
v -0.05519882 0.2012935 2.379461E-07
v -0.02763489 0.3079646 4.892755E-07
v -0.04060226 0.0161806 -0.02344135
v -0.04767304 -1.506777E-14 -0.02752372
v -0.02752411 -1.507224E-14 -0.04767272
v -0.02344177 0.0161806 -0.04060185
v 0 -1.507388E-14 -0.05504774
v -0.06943192 0.07965846 -0.04008651
v 0 0.0161806 -0.04688301
v -0.04008667 0.07965847 -0.06943188
v -0.06378403 0.1510201 -0.03682565
v 0 0.07965846 -0.08017302
v -0.03682587 0.1510201 -0.06378394
v 0 0.1510201 -0.07365134
v -0.03770157 0.2012935 -0.03770125
v 0 0.2012935 -0.05519857
v -0.01887497 0.3079647 -0.01887445
v 0 0.3079646 -0.02763432
v 0.01887512 0.3079647 -0.01887445
v 0.02763489 0.3079647 4.890557E-07
v 0.02712067 0.3191645 4.856413E-07
v 0.01852356 0.3191645 -0.01852324
v 0 0.3079646 -0.02763432
v 0 0.3191644 -0.02712012
v 0.02576111 0.3679784 4.657751E-07
v 0.02712067 0.3191645 4.856413E-07
v 0.01852356 0.3191645 0.01852422
v 0.01759521 0.3679784 0.01759571
v 0 0.3191645 0.0271211
v 0 0.3679783 0.02576167
v 0 0.3679783 0.02576167
v 0 0.3191645 0.0271211
v -0.01852386 0.3191644 0.01852421
v -0.01759521 0.3679783 0.0175957
v -0.02712067 0.3191644 4.762765E-07
v -0.02576126 0.3679783 4.715718E-07
v -0.01759521 0.3679784 -0.01759475
v -0.01852386 0.3191645 -0.01852324
v 0 0.3191644 -0.02712012
v 0 0.3679783 -0.02576072
v 0.01759521 0.3679784 -0.01759476
v 0.02712067 0.3191645 4.856413E-07
v 0.02576111 0.3679784 4.657751E-07
v 0.01852356 0.3191645 -0.01852324
v 0 0.3679783 -0.02576072
v 0 0.3191644 -0.02712012
v -0.02576126 0.3679783 4.715718E-07
v -0.02712067 0.3191644 4.762765E-07
v -0.01852386 0.3191645 -0.01852324
v -0.01759521 0.3679784 -0.01759475
v -0.01887497 0.3079646 0.01887542
v -0.02763489 0.3079646 4.892755E-07
v -0.02712067 0.3191644 4.762765E-07
v -0.01852386 0.3191644 0.01852421
v 0 0.3079647 0.02763531
v 0 0.3191645 0.0271211
v -0.01751221 0.3792563 0.01751263
v 0 0.3792563 0.02564005
v 0 0.3679783 0.02576167
v -0.01759521 0.3679783 0.0175957
v -0.02563965 0.3792563 4.602381E-07
v -0.02576126 0.3679783 4.715718E-07
v -0.01887497 0.3079647 -0.01887445
v 0 0.3079646 -0.02763432
v 0 0.3191644 -0.02712012
v -0.01852386 0.3191645 -0.01852324
v -0.02763489 0.3079646 4.892755E-07
v -0.01887497 0.3079647 -0.01887445
v -0.01852386 0.3191645 -0.01852324
v -0.02712067 0.3191644 4.762765E-07
v 0 0.3792563 -0.0256391
v -0.01751221 0.3792564 -0.01751169
v -0.01759521 0.3679784 -0.01759475
v 0 0.3679783 -0.02576072
v 0.01751221 0.3792563 0.01751264
v 0 0.3679783 0.02576167
v 0 0.3792563 0.02564005
v 0.01759521 0.3679784 0.01759571
v 0.02576111 0.3679784 4.657751E-07
v 0.02563965 0.3792564 4.69255E-07
v 0.01751221 0.3792563 -0.01751169
v 0 0.3792563 -0.0256391
v 0 0.3679783 -0.02576072
v 0.01759521 0.3679784 -0.01759476
v 0.02563965 0.3792564 4.69255E-07
v 0.02576111 0.3679784 4.657751E-07
v -0.01751221 0.3792564 -0.01751169
v -0.02563965 0.3792563 4.602381E-07
v -0.02576126 0.3679783 4.715718E-07
v -0.01759521 0.3679784 -0.01759475
v 0.04767304 -1.505555E-14 0.02752442
v 0 -1.504943E-14 0.05504844
v 0.02752411 1.192078E-09 0.04767342
v -0.04767304 -1.506777E-14 -0.02752372
v -0.04767304 -1.505555E-14 0.02752439
v -0.02752411 1.192078E-09 0.04767339
v -0.05504822 -1.506166E-14 3.319622E-07
v 0.04767304 -1.506777E-14 -0.0275237
v 0.05504822 -1.506166E-14 3.446937E-07
v 0 -1.507388E-14 -0.05504774
v -0.02752411 -1.507224E-14 -0.04767272
v 0.02752411 -1.507224E-14 -0.04767272
v 0 0.3792563 -0.0256391
v -0.02563965 0.3792563 4.602381E-07
v -0.01751221 0.3792564 -0.01751169
v 0 0.3792563 0.02564005
v -0.01751221 0.3792563 0.01751263
v 0.02563965 0.3792564 4.69255E-07
v 0.01751221 0.3792563 -0.01751169
v 0.01751221 0.3792563 0.01751264
vt 0.2060547 0.1072998
vt 0.2198486 0.1240234
vt 0.2232666 0.1220703
vt 0.2126465 0.1030884
vt 0.2011719 0.09594727
vt 0.2076416 0.09338379
vt 0.197998 0.07806396
vt 0.2055664 0.07861328
vt 0.2141113 0.0916748
vt 0.2042236 0.06335449
vt 0.2126465 0.07818604
vt 0.2091064 0.06439209
vt 0.2044678 0.05990601
vt 0.2147217 0.06451416
vt 0.2098389 0.06082153
vt 0.21521 0.06097412
vt 0.2443848 0.0993042
vt 0.2423096 0.1199341
vt 0.2471924 0.1204224
vt 0.2524414 0.1002197
vt 0.2514648 0.1212769
vt 0.2451172 0.08953857
vt 0.260498 0.1016846
vt 0.2512207 0.08996582
vt 0.2454834 0.07666016
vt 0.2575684 0.09069824
vt 0.263916 0.09185791
vt 0.2519531 0.0770874
vt 0.2452393 0.0635376
vt 0.2585449 0.07763672
vt 0.2653809 0.07824707
vt 0.2514648 0.06384277
vt 0.2452393 0.06008911
vt 0.2512207 0.06039429
vt 0.2575684 0.06427002
vt 0.2634277 0.06451416
vt 0.2570801 0.06072998
vt 0.2626953 0.06097412
vt 0.2196045 0.01148987
vt 0.2237549 0.009208679
vt 0.2197266 0.009223938
vt 0.2237549 0.0114975
vt 0.2277832 0.009086609
vt 0.2279053 0.01135254
vt 0.2452393 0.0635376
vt 0.2452393 0.06008911
vt 0.2390137 0.05999756
vt 0.2390137 0.06341553
vt 0.2454834 0.07666016
vt 0.2329102 0.06008911
vt 0.2390137 0.07653809
vt 0.2451172 0.08953857
vt 0.2327881 0.0635376
vt 0.2268066 0.06036377
vt 0.2266846 0.06384277
vt 0.232666 0.07666016
vt 0.2260742 0.07702637
vt 0.2390137 0.08935547
vt 0.2443848 0.0993042
vt 0.2329102 0.08947754
vt 0.2268066 0.08990479
vt 0.2363281 0.09936523
vt 0.2423096 0.1199341
vt 0.2282715 0.09960938
vt 0.2370605 0.1199341
vt 0.2320557 0.1201172
vt 0.2266846 0.06384277
vt 0.2268066 0.06036377
vt 0.2209473 0.06069946
vt 0.2205811 0.06420898
vt 0.21521 0.06097412
vt 0.2260742 0.07702637
vt 0.2147217 0.06451416
vt 0.2194824 0.07763672
vt 0.2268066 0.08990479
vt 0.2126465 0.07818604
vt 0.2205811 0.09057617
vt 0.2282715 0.09960938
vt 0.2141113 0.0916748
vt 0.2202148 0.1009521
vt 0.2320557 0.1201172
vt 0.2076416 0.09338379
vt 0.227417 0.1208496
vt 0.2126465 0.1030884
vt 0.2232666 0.1220703
vt 0.2736816 0.06329346
vt 0.2734375 0.05984497
vt 0.2683105 0.0607605
vt 0.2687988 0.06433105
vt 0.2626953 0.06097412
vt 0.2800293 0.07794189
vt 0.2634277 0.06451416
vt 0.2724609 0.07855225
vt 0.2770996 0.09552002
vt 0.2653809 0.07824707
vt 0.2705078 0.09326172
vt 0.263916 0.09185791
vt 0.2680664 0.1046143
vt 0.260498 0.1016846
vt 0.255127 0.1229858
vt 0.2514648 0.1212769
vt 0.2154541 0.01133728
vt 0.2196045 0.01148987
vt 0.2197266 0.009223938
vt 0.2155762 0.009056091
vt 0.2114258 0.01103973
vt 0.2115479 0.008789063
vt 0.171875 0.002506256
vt 0.171875 0.01182556
vt 0.1757813 0.01177979
vt 0.1755371 0.002462387
vt 0.1796875 0.01165771
vt 0.1793213 0.002349854
vt 0.1793213 0.002349854
vt 0.1796875 0.01165771
vt 0.1835938 0.01145172
vt 0.1829834 0.002153397
vt 0.1873779 0.01116943
vt 0.1866455 0.001886368
vt 0.1607666 0.002151489
vt 0.1601563 0.01145172
vt 0.1640625 0.01165771
vt 0.1644287 0.002349854
vt 0.1682129 0.002462387
vt 0.171875 0.01182556
vt 0.171875 0.002506256
vt 0.1679688 0.01177979
vt 0.1644287 0.002349854
vt 0.1640625 0.01165771
vt 0.1866455 0.001886368
vt 0.1873779 0.01116943
vt 0.1912842 0.01080322
vt 0.1903076 0.001534462
vt 0.2320557 0.01107025
vt 0.2362061 0.01063538
vt 0.2358398 0.008392334
vt 0.2318115 0.008789063
vt 0.2279053 0.01135254
vt 0.2277832 0.009086609
vt 0.2313232 0.002780914
vt 0.227417 0.002904892
vt 0.227417 0.005187988
vt 0.2313232 0.005081177
vt 0.2351074 0.002649307
vt 0.2352295 0.00491333
vt 0.2073975 0.01064301
vt 0.2114258 0.01103973
vt 0.2115479 0.008789063
vt 0.2076416 0.008331299
vt 0.2362061 0.01063538
vt 0.2402344 0.01010895
vt 0.2398682 0.007808685
vt 0.2358398 0.008392334
vt 0.2120361 0.002916336
vt 0.208252 0.002782822
vt 0.208252 0.005123138
vt 0.2120361 0.005180359
vt 0.2236328 0.002962112
vt 0.227417 0.005187988
vt 0.227417 0.002904892
vt 0.2236328 0.005264282
vt 0.2197266 0.005279541
vt 0.2197266 0.002994537
vt 0.2159424 0.002960205
vt 0.2120361 0.002916336
vt 0.2120361 0.005180359
vt 0.2158203 0.005260468
vt 0.2197266 0.002994537
vt 0.2197266 0.005279541
vt 0.2388916 0.002426147
vt 0.2351074 0.002649307
vt 0.2352295 0.00491333
vt 0.2390137 0.004764557
vt 0.4816895 0.291748
vt 0.4899902 0.2980957
vt 0.4868164 0.2939453
vt 0.4790039 0.3125
vt 0.4885254 0.3085938
vt 0.4907227 0.3037109
vt 0.484375 0.3120117
vt 0.4719238 0.2956543
vt 0.4763184 0.2924805
vt 0.4707031 0.3061523
vt 0.473877 0.3105469
vt 0.4699707 0.3007813
vt 0.1960449 0.002344131
vt 0.2028809 0.003343582
vt 0.199585 0.001591682
vt 0.2019043 0.01019287
vt 0.2036133 0.006950378
vt 0.1950684 0.00919342
vt 0.1943359 0.005584717
vt 0.1982422 0.01094818
vn -0.6499023 0.3569336 -0.6708984
vn -0.6967773 0.1704102 -0.6967773
vn -0.984375 0.1761475 0
vn -0.9370117 0.3491211 0.01991272
vn -0.8276367 0.2956543 -0.4770508
vn -0.953125 0.3029785 0.01428986
vn -0.8481445 -0.2020264 -0.4897461
vn -0.9794922 -0.2020264 0
vn -0.8291016 0.3183594 0.4599609
vn -0.8657227 -0.01547241 -0.5
vn -0.8481445 -0.2020264 0.4897461
vn -1 -0.01547241 0
vn -0.8598633 0.1196899 -0.4963379
vn -0.8657227 -0.01547241 0.5
vn -0.9926758 0.1196899 2.515316E-05
vn -0.8598633 0.1196899 0.4963379
vn 0.9370117 0.3491211 -0.01991272
vn 0.984375 0.1761475 0
vn 0.6967773 0.1704102 -0.6967773
vn 0.6708984 0.3569336 -0.6499023
vn 0 0.1761475 -0.984375
vn 0.953125 0.3029785 -0.01428986
vn -0.01991272 0.3491211 -0.9370117
vn 0.8291016 0.3183594 -0.4599609
vn 0.9794922 -0.2020264 0
vn 0.4770508 0.2956543 -0.8276367
vn -0.01428986 0.3029785 -0.953125
vn 0.8481445 -0.2020264 -0.4897461
vn 1 -0.01547241 0
vn 0.4897461 -0.2020264 -0.8481445
vn 0 -0.2020264 -0.9794922
vn 0.8657227 -0.01547241 -0.5
vn 0.9926758 0.1196899 -2.527237E-05
vn 0.8598633 0.1196899 -0.4963379
vn 0.5 -0.01547241 -0.8657227
vn 0 -0.01548004 -1
vn 0.4963379 0.1196899 -0.8598633
vn -2.509356E-05 0.1196899 -0.9926758
vn 0.9423828 -0.3339844 -2.038479E-05
vn 0.6459961 0.4072266 0.6459961
vn 0.9077148 0.4191895 -1.984835E-05
vn 0.6689453 -0.3239746 0.6689453
vn 2.032518E-05 0.4191895 0.9077148
vn 2.086163E-05 -0.3342285 0.9423828
vn 1 -0.01547241 0
vn 0.9926758 0.1196899 -2.527237E-05
vn 0.8598633 0.1196899 0.4963379
vn 0.8657227 -0.01547241 0.5
vn 0.9794922 -0.2020264 0
vn 0.4963379 0.1196899 0.8598633
vn 0.8481445 -0.2020264 0.4897461
vn 0.953125 0.3029785 -0.01428986
vn 0.5 -0.01547241 0.8657227
vn 2.485514E-05 0.1196899 0.9926758
vn 0 -0.01547241 1
vn 0.4897461 -0.2020264 0.8481445
vn 0 -0.2020264 0.9794922
vn 0.8276367 0.2956543 0.4770508
vn 0.9370117 0.3491211 -0.01991272
vn 0.4599609 0.3183594 0.8291016
vn 0.01429749 0.3029785 0.953125
vn 0.6499023 0.3569336 0.6708984
vn 0.984375 0.1761475 0
vn 0.01991272 0.3491211 0.9370117
vn 0.6967773 0.1704102 0.6967773
vn 0 0.1761475 0.984375
vn 0 -0.01547241 1
vn 2.485514E-05 0.1196899 0.9926758
vn -0.4963379 0.1196899 0.8598633
vn -0.5 -0.01547241 0.8657227
vn -0.8598633 0.1196899 0.4963379
vn 0 -0.2020264 0.9794922
vn -0.8657227 -0.01547241 0.5
vn -0.4897461 -0.2020264 0.8481445
vn 0.01429749 0.3029785 0.953125
vn -0.8481445 -0.2020264 0.4897461
vn -0.4770508 0.2956543 0.8276367
vn 0.01991272 0.3491211 0.9370117
vn -0.8291016 0.3183594 0.4599609
vn -0.6708984 0.3569336 0.6499023
vn 0 0.1761475 0.984375
vn -0.953125 0.3029785 0.01428986
vn -0.6967773 0.1704102 0.6967773
vn -0.9370117 0.3491211 0.01991272
vn -0.984375 0.1761475 0
vn -0.8657227 -0.01547241 -0.5
vn -0.8598633 0.1196899 -0.4963379
vn -0.4963379 0.1196899 -0.8598633
vn -0.5 -0.01548004 -0.8657227
vn -2.509356E-05 0.1196899 -0.9926758
vn -0.8481445 -0.2020264 -0.4897461
vn 0 -0.01548004 -1
vn -0.4897461 -0.2020264 -0.8481445
vn -0.8276367 0.2956543 -0.4770508
vn 0 -0.2020264 -0.9794922
vn -0.4599609 0.3183594 -0.8291016
vn -0.01428986 0.3029785 -0.953125
vn -0.6499023 0.3569336 -0.6708984
vn -0.01991272 0.3491211 -0.9370117
vn -0.6967773 0.1704102 -0.6967773
vn 0 0.1761475 -0.984375
vn 0.6689453 -0.3239746 -0.6689453
vn 0.9423828 -0.3339844 -2.038479E-05
vn 0.9077148 0.4191895 -1.984835E-05
vn 0.6459961 0.4072266 -0.6459961
vn -1.996756E-05 -0.3342285 -0.9423828
vn -1.996756E-05 0.4191895 -0.9077148
vn 0.9995117 0.02783203 0
vn 0.9995117 0.02783203 0
vn 0.7070313 0.02688599 0.7070313
vn 0.7070313 0.02688599 0.7070313
vn 0 0.02783203 0.9995117
vn 0 0.02783203 0.9995117
vn 0 0.02783203 0.9995117
vn 0 0.02783203 0.9995117
vn -0.7070313 0.02688599 0.7070313
vn -0.7070313 0.02688599 0.7070313
vn -0.9995117 0.02783203 0
vn -0.9995117 0.02783203 0
vn -0.7070313 0.02688599 -0.7070313
vn -0.7070313 0.02688599 -0.7070313
vn 0 0.02783203 -0.9995117
vn 0 0.02783203 -0.9995117
vn 0.7070313 0.02688599 -0.7070313
vn 0.9995117 0.02783203 0
vn 0.9995117 0.02783203 0
vn 0.7070313 0.02688599 -0.7070313
vn 0 0.02783203 -0.9995117
vn 0 0.02783203 -0.9995117
vn -0.9995117 0.02783203 0
vn -0.9995117 0.02783203 0
vn -0.7070313 0.02688599 -0.7070313
vn -0.7070313 0.02688599 -0.7070313
vn -0.6689453 -0.3239746 0.6689453
vn -0.9423828 -0.3342285 2.008677E-05
vn -0.9077148 0.4191895 1.972914E-05
vn -0.6459961 0.4072266 0.6459961
vn 2.086163E-05 -0.3342285 0.9423828
vn 2.032518E-05 0.4191895 0.9077148
vn -0.6557617 0.3740234 0.6557617
vn 1.841784E-05 0.3852539 0.9228516
vn 1.686811E-05 -0.3652344 0.9311523
vn -0.6611328 -0.354248 0.6611328
vn -0.9228516 0.3852539 1.639128E-05
vn -0.9311523 -0.3652344 1.609325E-05
vn -0.6689453 -0.3239746 -0.6689453
vn -1.996756E-05 -0.3342285 -0.9423828
vn -1.996756E-05 0.4191895 -0.9077148
vn -0.6459961 0.4072266 -0.6459961
vn -0.9423828 -0.3342285 2.008677E-05
vn -0.6689453 -0.3239746 -0.6689453
vn -0.6459961 0.4072266 -0.6459961
vn -0.9077148 0.4191895 1.972914E-05
vn -1.674891E-05 0.3852539 -0.9228516
vn -0.6557617 0.3740234 -0.6557617
vn -0.6611328 -0.354248 -0.6611328
vn -1.770258E-05 -0.3652344 -0.9311523
vn 0.6557617 0.3737793 0.6557617
vn 1.686811E-05 -0.3652344 0.9311523
vn 1.841784E-05 0.3852539 0.9228516
vn 0.6611328 -0.354248 0.6611328
vn 0.9311523 -0.3652344 1.513958E-05
vn 0.9228516 0.3850098 1.645088E-05
vn 0.6557617 0.3737793 -0.6557617
vn -1.674891E-05 0.3852539 -0.9228516
vn -1.770258E-05 -0.3652344 -0.9311523
vn 0.6611328 -0.354248 -0.6611328
vn 0.9228516 0.3850098 1.645088E-05
vn 0.9311523 -0.3652344 1.513958E-05
vn -0.6557617 0.3740234 -0.6557617
vn -0.9228516 0.3852539 1.639128E-05
vn -0.9311523 -0.3652344 1.609325E-05
vn -0.6611328 -0.354248 -0.6611328
vn 0 -1 0
vn 0 -1 0
vn 0 -1 0
vn 0 -1 0
vn 0 -1 0
vn 0 -1 0
vn 0 -1 0
vn 0 -1 0
vn 0 -1 0
vn 0 -1 0
vn 0 -1 0
vn 0 -1 0
vn 0 1 0
vn 0 1 0
vn 1.269579E-05 1 0
vn 0 1 0
vn 0 1 0
vn 0 1 0
vn 0 1 0
vn 0 1 0
g Vase_1_Bottle_1_0
f 3/3/3 2/2/2 1/1/1
f 4/4/4 3/3/3 1/1/1
f 4/4/4 1/1/1 5/5/5
f 6/6/6 4/4/4 5/5/5
f 5/5/5 7/7/7 6/6/6
f 7/7/7 8/8/8 6/6/6
f 6/6/6 8/8/8 9/9/9
f 8/8/8 7/7/7 10/10/10
f 8/8/8 11/11/11 9/9/9
f 12/12/12 8/8/8 10/10/10
f 11/11/11 8/8/8 12/12/12
f 10/10/10 13/13/13 12/12/12
f 14/14/14 11/11/11 12/12/12
f 13/13/13 15/15/15 12/12/12
f 12/12/12 15/15/15 14/14/14
f 15/15/15 16/16/16 14/14/14
f 19/19/19 18/18/18 17/17/17
f 20/20/20 19/19/19 17/17/17
f 21/21/21 19/19/19 20/20/20
f 20/20/20 17/17/17 22/22/22
f 23/23/23 21/21/21 20/20/20
f 24/24/24 20/20/20 22/22/22
f 22/22/22 25/25/25 24/24/24
f 23/23/23 20/20/20 26/26/26
f 20/20/20 24/24/24 26/26/26
f 27/27/27 23/23/23 26/26/26
f 25/25/25 28/28/28 24/24/24
f 24/24/24 28/28/28 26/26/26
f 28/28/28 25/25/25 29/29/29
f 26/26/26 30/30/30 27/27/27
f 28/28/28 30/30/30 26/26/26
f 30/30/30 31/31/31 27/27/27
f 32/32/32 28/28/28 29/29/29
f 30/30/30 28/28/28 32/32/32
f 29/29/29 33/33/33 32/32/32
f 33/33/33 34/34/34 32/32/32
f 31/31/31 30/30/30 35/35/35
f 35/35/35 30/30/30 32/32/32
f 32/32/32 34/34/34 35/35/35
f 36/36/36 31/31/31 35/35/35
f 34/34/34 37/37/37 35/35/35
f 35/35/35 37/37/37 36/36/36
f 37/37/37 38/38/38 36/36/36
f 41/41/41 40/40/40 39/39/39
f 40/40/40 42/42/42 39/39/39
f 40/40/40 43/43/43 42/42/42
f 43/43/43 44/44/44 42/42/42
f 47/47/47 46/46/46 45/45/45
f 48/48/48 47/47/47 45/45/45
f 45/45/45 49/49/49 48/48/48
f 50/50/50 47/47/47 48/48/48
f 49/49/49 51/51/51 48/48/48
f 51/51/51 49/49/49 52/52/52
f 53/53/53 50/50/50 48/48/48
f 48/48/48 51/51/51 53/53/53
f 54/54/54 50/50/50 53/53/53
f 55/55/55 54/54/54 53/53/53
f 53/53/53 56/56/56 55/55/55
f 51/51/51 56/56/56 53/53/53
f 56/56/56 57/57/57 55/55/55
f 58/58/58 51/51/51 52/52/52
f 56/56/56 51/51/51 58/58/58
f 52/52/52 59/59/59 58/58/58
f 57/57/57 56/56/56 60/60/60
f 60/60/60 56/56/56 58/58/58
f 61/61/61 57/57/57 60/60/60
f 59/59/59 62/62/62 58/58/58
f 62/62/62 60/60/60 58/58/58
f 60/60/60 62/62/62 61/61/61
f 59/59/59 63/63/63 62/62/62
f 62/62/62 64/64/64 61/61/61
f 63/63/63 65/65/65 62/62/62
f 62/62/62 65/65/65 64/64/64
f 65/65/65 66/66/66 64/64/64
f 69/69/69 68/68/68 67/67/67
f 70/70/70 69/69/69 67/67/67
f 71/71/71 69/69/69 70/70/70
f 67/67/67 72/72/72 70/70/70
f 73/73/73 71/71/71 70/70/70
f 72/72/72 74/74/74 70/70/70
f 70/70/70 74/74/74 73/73/73
f 74/74/74 72/72/72 75/75/75
f 74/74/74 76/76/76 73/73/73
f 77/77/77 74/74/74 75/75/75
f 76/76/76 74/74/74 77/77/77
f 75/75/75 78/78/78 77/77/77
f 79/79/79 76/76/76 77/77/77
f 78/78/78 80/80/80 77/77/77
f 80/80/80 79/79/79 77/77/77
f 78/78/78 81/81/81 80/80/80
f 79/79/79 80/80/80 82/82/82
f 81/81/81 83/83/83 80/80/80
f 80/80/80 84/84/84 82/82/82
f 80/80/80 83/83/83 84/84/84
f 83/83/83 85/85/85 84/84/84
f 88/88/88 87/87/87 86/86/86
f 89/89/89 88/88/88 86/86/86
f 90/90/90 88/88/88 89/89/89
f 86/86/86 91/91/91 89/89/89
f 92/92/92 90/90/90 89/89/89
f 91/91/91 93/93/93 89/89/89
f 89/89/89 93/93/93 92/92/92
f 93/93/93 91/91/91 94/94/94
f 93/93/93 95/95/95 92/92/92
f 96/96/96 93/93/93 94/94/94
f 95/95/95 93/93/93 96/96/96
f 97/97/97 95/95/95 96/96/96
f 98/98/98 96/96/96 94/94/94
f 96/96/96 98/98/98 97/97/97
f 98/98/98 99/99/99 97/97/97
f 98/98/98 100/100/100 99/99/99
f 100/100/100 101/101/101 99/99/99
f 104/104/104 103/103/103 102/102/102
f 105/105/105 104/104/104 102/102/102
f 105/105/105 102/102/102 106/106/106
f 107/107/107 105/105/105 106/106/106
f 110/110/110 109/109/109 108/108/108
f 111/111/111 110/110/110 108/108/108
f 112/112/112 110/110/110 111/111/111
f 113/113/113 112/112/112 111/111/111
f 116/116/116 115/115/115 114/114/114
f 117/117/117 116/116/116 114/114/114
f 118/118/118 116/116/116 117/117/117
f 119/119/119 118/118/118 117/117/117
f 122/122/122 121/121/121 120/120/120
f 123/123/123 122/122/122 120/120/120
f 126/126/126 125/125/125 124/124/124
f 125/125/125 127/127/127 124/124/124
f 124/124/124 127/127/127 128/128/128
f 127/127/127 129/129/129 128/128/128
f 132/132/132 131/131/131 130/130/130
f 133/133/133 132/132/132 130/130/130
f 136/136/136 135/135/135 134/134/134
f 137/137/137 136/136/136 134/134/134
f 137/137/137 134/134/134 138/138/138
f 139/139/139 137/137/137 138/138/138
f 142/142/142 141/141/141 140/140/140
f 143/143/143 142/142/142 140/140/140
f 143/143/143 140/140/140 144/144/144
f 145/145/145 143/143/143 144/144/144
f 148/148/148 147/147/147 146/146/146
f 149/149/149 148/148/148 146/146/146
f 152/152/152 151/151/151 150/150/150
f 153/153/153 152/152/152 150/150/150
f 156/156/156 155/155/155 154/154/154
f 157/157/157 156/156/156 154/154/154
f 160/160/160 159/159/159 158/158/158
f 159/159/159 161/161/161 158/158/158
f 161/161/161 162/162/162 158/158/158
f 162/162/162 163/163/163 158/158/158
f 166/166/166 165/165/165 164/164/164
f 167/167/167 166/166/166 164/164/164
f 167/167/167 164/164/164 168/168/168
f 169/169/169 167/167/167 168/168/168
f 172/172/172 171/171/171 170/170/170
f 173/173/173 172/172/172 170/170/170
f 176/176/176 175/175/175 174/174/174
f 175/175/175 177/177/177 174/174/174
f 178/178/178 177/177/177 175/175/175
f 179/179/179 178/178/178 175/175/175
f 180/180/180 177/177/177 178/178/178
f 177/177/177 181/181/181 174/174/174
f 174/174/174 181/181/181 182/182/182
f 183/183/183 181/181/181 177/177/177
f 184/184/184 183/183/183 177/177/177
f 185/185/185 181/181/181 183/183/183
f 188/188/188 187/187/187 186/186/186
f 187/187/187 189/189/189 186/186/186
f 190/190/190 189/189/189 187/187/187
f 189/189/189 191/191/191 186/186/186
f 186/186/186 191/191/191 192/192/192
f 193/193/193 191/191/191 189/189/189
