g Glass
v 2.873309 -9.248332 1.861131
v 2.873309 -9.248332 0.9753597
v 2.873309 -9.248334 2.745149
v 2.873309 -9.248332 0.9753597
v 2.873309 -9.248332 1.861131
v 2.873309 -9.248332 1.423529
v -13.60979 0.09970951 1.861131
v -13.60979 0.09971046 0.9753597
v -13.60979 0.09970951 2.745149
v -13.60979 0.09971046 0.9753597
v -13.60979 0.09970951 1.861131
v -13.60979 0.09971046 1.423529
v 2.10154 -9.230948 2.245384
v 1.450456 -9.230948 0.5127937
v 1.450456 -9.230948 2.245384
v 2.10154 -9.230948 0.5127937
v 1.450456 -9.220948 0.5127937
v 2.10154 -9.22095 2.245384
v 1.450456 -9.22095 2.245384
v 2.10154 -9.220948 0.5127937
v 0.6967554 -9.22095 2.245384
v 1.347839 -9.220946 0.5127938
v 1.347839 -9.220946 2.245384
v 0.6967554 -9.22095 0.5127937
v 1.34784 -9.230947 0.5127938
v 0.6967554 -9.23095 2.245384
v 1.347839 -9.230947 2.245384
v 0.6967554 -9.23095 0.5127937
v 3.918085 -9.248345 2.745149
v 3.918085 -9.248345 1.423529
v 3.918085 -9.248345 1.861131
v 3.918085 -9.248345 0.9753597
v 2.873309 -9.248334 2.745149
v 3.918085 -9.248345 0.9753597
v 3.918085 -9.248345 2.745149
v 2.873309 -9.248332 0.9753597
v 5.918085 -9.248345 2.745149
v 5.918085 -9.248345 1.423529
v 5.918085 -9.248345 1.861131
v 5.918085 -9.248345 0.9753597
v 4.873309 -9.248334 2.745149
v 5.918085 -9.248345 0.9753597
v 5.918085 -9.248345 2.745149
v 4.873309 -9.248334 0.9753597
v 4.873309 -9.248334 1.861131
v 4.873309 -9.248334 0.9753597
v 4.873309 -9.248334 2.745149
v 4.873309 -9.248334 1.423529
v -0.08191395 -9.248345 2.745149
v -0.08191395 -9.248345 1.423529
v -0.08191395 -9.248345 1.861131
v -0.08191395 -9.248345 0.9753597
v -1.12669 -9.248332 2.745149
v -0.08191395 -9.248345 0.9753597
v -0.08191395 -9.248345 2.745149
v -1.12669 -9.248332 0.9753597
v -1.12669 -9.248332 1.861131
v -1.12669 -9.248332 0.9753597
v -1.12669 -9.248332 2.745149
v -1.12669 -9.248332 1.423529
v -6.081914 -9.248345 2.745149
v -6.081914 -9.248345 1.423529
v -6.081914 -9.248345 1.861131
v -6.081914 -9.248345 0.9753597
v -7.12669 -9.248332 2.745149
v -6.081914 -9.248345 0.9753597
v -6.081914 -9.248345 2.745149
v -7.12669 -9.248332 0.9753597
v -7.12669 -9.248332 1.861131
v -7.12669 -9.248332 0.9753597
v -7.12669 -9.248332 2.745149
v -7.12669 -9.248332 1.423529
v 12.11809 -1.348346 2.745149
v 12.11809 -1.348346 1.423529
v 12.11809 -1.348346 1.861131
v 12.11809 -1.348346 0.9753597
v 11.07331 -1.348332 2.745149
v 12.11809 -1.348346 0.9753597
v 12.11809 -1.348346 2.745149
v 11.07331 -1.348332 0.9753597
v 11.07331 -1.348332 1.861131
v 11.07331 -1.348332 0.9753597
v 11.07331 -1.348332 2.745149
v 11.07331 -1.348332 1.423529
v -13.6098 -2.956273 2.745149
v -13.6098 -2.956274 1.42353
v -13.6098 -2.956274 1.861132
v -13.6098 -2.956274 0.9753597
v -13.60979 -1.911498 2.745149
v -13.60979 -1.911498 0.9753598
v -13.60979 -1.911498 1.861131
v -13.60979 -1.911498 0.9753598
v -13.60979 -1.911498 2.745149
v -13.60979 -1.911498 1.423529
v -13.6098 -0.9450665 2.745149
v -13.6098 -0.9450665 1.42353
v -13.6098 -0.9450665 1.861132
v -13.6098 -0.9450665 0.9753597
v -13.60979 0.09970951 2.745149
v -13.6098 -0.9450665 0.9753597
v -13.6098 -0.9450665 2.745149
v -13.60979 0.09971046 0.9753597
v 2.104307 -9.262048 3.239363
v 0.686883 -9.262048 2.572499
v 0.686883 -9.262048 3.239363
v 2.104307 -9.262048 2.572499
v 0.686883 -9.252048 2.572499
v 2.104307 -9.252048 3.239363
v 0.686883 -9.252048 3.239363
v 2.104307 -9.252048 2.572499
vt 0.3024902 0.3752441
vt 0.3024902 0.1732178
vt 0.3024902 0.5771484
vt 0.3024902 0.1732178
vt 0.3024902 0.3752441
vt 0.3024902 0.2741699
vt 0.3024902 0.3752441
vt 0.3024902 0.1732178
vt 0.3024902 0.5771484
vt 0.3024902 0.1732178
vt 0.3024902 0.3752441
vt 0.3024902 0.2741699
vt 0.699707 0.5444336
vt 0.5498047 0.1446533
vt 0.5498047 0.5444336
vt 0.699707 0.1446533
vt 0.5498047 0.1446533
vt 0.699707 0.5444336
vt 0.5498047 0.5444336
vt 0.699707 0.1446533
vt 0.699707 0.5444336
vt 0.5498047 0.1446533
vt 0.5498047 0.5444336
vt 0.699707 0.1446533
vt 0.5498047 0.1446533
vt 0.699707 0.5444336
vt 0.5498047 0.5444336
vt 0.699707 0.1446533
vt 0.5385742 0.5771484
vt 0.5385742 0.2741699
vt 0.5385742 0.3752441
vt 0.5385742 0.1732178
vt 0.3024902 0.5771484
vt 0.5385742 0.1732178
vt 0.5385742 0.5771484
vt 0.3024902 0.1732178
vt 0.5385742 0.5771484
vt 0.5385742 0.2741699
vt 0.5385742 0.3752441
vt 0.5385742 0.1732178
vt 0.3024902 0.5771484
vt 0.5385742 0.1732178
vt 0.5385742 0.5771484
vt 0.3024902 0.1732178
vt 0.3024902 0.3752441
vt 0.3024902 0.1732178
vt 0.3024902 0.5771484
vt 0.3024902 0.2741699
vt 0.5385742 0.5771484
vt 0.5385742 0.2741699
vt 0.5385742 0.3752441
vt 0.5385742 0.1732178
vt 0.3024902 0.5771484
vt 0.5385742 0.1732178
vt 0.5385742 0.5771484
vt 0.3024902 0.1732178
vt 0.3024902 0.3752441
vt 0.3024902 0.1732178
vt 0.3024902 0.5771484
vt 0.3024902 0.2741699
vt 0.5385742 0.5771484
vt 0.5385742 0.2741699
vt 0.5385742 0.3752441
vt 0.5385742 0.1732178
vt 0.3024902 0.5771484
vt 0.5385742 0.1732178
vt 0.5385742 0.5771484
vt 0.3024902 0.1732178
vt 0.3024902 0.3752441
vt 0.3024902 0.1732178
vt 0.3024902 0.5771484
vt 0.3024902 0.2741699
vt 0.5385742 0.5771484
vt 0.5385742 0.2741699
vt 0.5385742 0.3752441
vt 0.5385742 0.1732178
vt 0.3024902 0.5771484
vt 0.5385742 0.1732178
vt 0.5385742 0.5771484
vt 0.3024902 0.1732178
vt 0.3024902 0.3752441
vt 0.3024902 0.1732178
vt 0.3024902 0.5771484
vt 0.3024902 0.2741699
vt 0.5385742 0.5771484
vt 0.5385742 0.2741699
vt 0.5385742 0.3752441
vt 0.5385742 0.1732178
vt 0.3024902 0.5771484
vt 0.3024902 0.1732178
vt 0.3024902 0.3752441
vt 0.3024902 0.1732178
vt 0.3024902 0.5771484
vt 0.3024902 0.2741699
vt 0.5385742 0.5771484
vt 0.5385742 0.2741699
vt 0.5385742 0.3752441
vt 0.5385742 0.1732178
vt 0.3024902 0.5771484
vt 0.5385742 0.1732178
vt 0.5385742 0.5771484
vt 0.3024902 0.1732178
vt 0.9682617 0.2130127
vt 0.815918 0.5390625
vt 0.9682617 0.5390625
vt 0.815918 0.2130127
vt 0.815918 0.5390625
vt 0.9682617 0.2130127
vt 0.9682617 0.5390625
vt 0.815918 0.2130127
vn 1 0 0
vn 1 0 0
vn 1 0 0
vn 0 1 0
vn 0 1 0
vn 0 1 0
vn -1 0 0
vn -1 0 0
vn -1 0 0
vn 1 0 0
vn 1 0 0
vn 1 0 0
vn 0 -1 0
vn 0 -1 0
vn 0 -1 0
vn 0 -1 0
vn 0 1 0
vn 0 1 0
vn 0 1 0
vn 0 1 0
vn 0 1 0
vn 0 1 0
vn 0 1 0
vn 0 1 0
vn 0 -1 0
vn 0 -1 0
vn 0 -1 0
vn 0 -1 0
vn 0 1 0
vn 0 1 0
vn 0 -1 0
vn 0 1 0
vn 1.15633E-05 1 0
vn 1.215935E-05 1 0
vn 1.096725E-05 1 0
vn 1.275539E-05 1 0
vn 0 1 0
vn 0 1 0
vn 0 -1 0
vn 0 1 0
vn 1.096725E-05 1 0
vn 1.096725E-05 1 0
vn 1.096725E-05 1 0
vn 1.096725E-05 1 0
vn 0 1 0
vn 0 1 0
vn 0 1 0
vn 0 1 0
vn 0 1 0
vn 0 1 0
vn 0 1 0
vn 0 1 0
vn 1.275539E-05 1 0
vn 1.275539E-05 1 0
vn 1.275539E-05 1 0
vn 1.275539E-05 1 0
vn 0 1 0
vn 0 1 0
vn 0 1 0
vn 0 1 0
vn 0 1 0
vn 0 1 0
vn 0 -1 0
vn 0 1 0
vn 1.275539E-05 1 0
vn 1.275539E-05 1 0
vn 1.275539E-05 1 0
vn 1.275539E-05 1 0
vn 0 1 0
vn 0 1 0
vn 0 1 0
vn 0 1 0
vn 0 1 0
vn 0 -1 0
vn 0 1 0
vn 0 -1 0
vn 1.275539E-05 1 0
vn 1.275539E-05 1 0
vn 1.275539E-05 1 0
vn 1.275539E-05 1 0
vn 0 1 0
vn 0 1 0
vn 0 1 0
vn 0 1 0
vn 1 -1.239777E-05 0
vn 0.1113281 -0.9936523 0
vn 0.2137451 0.9770508 0
vn 1 -1.239777E-05 0
vn 1 -1.239777E-05 0
vn 1 -1.239777E-05 0
vn 0 1 0
vn 0 1 0
vn 0 1 0
vn 0 1 0
vn 0 1 0
vn 0 1 0
vn 0 1 0
vn 0 1 0
vn 1 -1.168251E-05 0
vn 1 -1.102686E-05 0
vn 1 -1.239777E-05 0
vn 1 -1.03116E-05 0
vn 0 -1 0
vn 0 -1 0
vn 0 -1 0
vn 0 -1 0
vn 0 1 0
vn 0 1 0
vn 0 1 0
vn 0 1 0
g Glass_0
f 3/3/3 2/2/2 1/1/1
f 6/6/6 5/5/5 4/4/4
f 9/9/9 8/8/8 7/7/7
f 12/12/12 11/11/11 10/10/10
f 15/15/15 14/14/14 13/13/13
f 16/16/16 13/13/13 14/14/14
f 19/19/19 18/18/18 17/17/17
f 20/20/20 17/17/17 18/18/18
f 23/23/23 22/22/22 21/21/21
f 24/24/24 21/21/21 22/22/22
f 27/27/27 26/26/26 25/25/25
f 28/28/28 25/25/25 26/26/26
f 31/31/31 30/30/30 29/29/29
f 32/32/32 29/29/29 30/30/30
f 35/35/35 34/34/34 33/33/33
f 36/36/36 33/33/33 34/34/34
f 39/39/39 38/38/38 37/37/37
f 40/40/40 37/37/37 38/38/38
f 43/43/43 42/42/42 41/41/41
f 44/44/44 41/41/41 42/42/42
f 47/47/47 46/46/46 45/45/45
f 48/48/48 45/45/45 46/46/46
f 51/51/51 50/50/50 49/49/49
f 52/52/52 49/49/49 50/50/50
f 55/55/55 54/54/54 53/53/53
f 56/56/56 53/53/53 54/54/54
f 59/59/59 58/58/58 57/57/57
f 60/60/60 57/57/57 58/58/58
f 63/63/63 62/62/62 61/61/61
f 64/64/64 61/61/61 62/62/62
f 67/67/67 66/66/66 65/65/65
f 68/68/68 65/65/65 66/66/66
f 71/71/71 70/70/70 69/69/69
f 72/72/72 69/69/69 70/70/70
f 75/75/75 74/74/74 73/73/73
f 76/76/76 73/73/73 74/74/74
f 79/79/79 78/78/78 77/77/77
f 80/80/80 77/77/77 78/78/78
f 83/83/83 82/82/82 81/81/81
f 84/84/84 81/81/81 82/82/82
f 87/87/87 86/86/86 85/85/85
f 88/88/88 85/85/85 86/86/86
f 85/85/85 88/88/88 89/89/89
f 90/90/90 89/89/89 88/88/88
f 93/93/93 92/92/92 91/91/91
f 94/94/94 91/91/91 92/92/92
f 97/97/97 96/96/96 95/95/95
f 98/98/98 95/95/95 96/96/96
f 101/101/101 100/100/100 99/99/99
f 102/102/102 99/99/99 100/100/100
f 105/105/105 104/104/104 103/103/103
f 106/106/106 103/103/103 104/104/104
f 109/109/109 108/108/108 107/107/107
f 110/110/110 107/107/107 108/108/108
