g Куб.001
v 0 -0.04431955 -0.08844975
v 0 -0.04431955 0.1276338
v 0.07993881 -0.01834589 0.1276338
v 0.07993881 -0.01834588 -0.08844976
v 0.1293437 0.04965414 0.1276338
v 0.1293437 0.04965414 -0.08844977
v 0.1293437 0.1337067 0.1276338
v 0.1293437 0.1337068 -0.08844978
v 0.07993884 0.2017068 0.1276339
v 0.07993884 0.2017068 -0.08844975
v 0 0.2276804 0.1276339
v 0 0.2276804 -0.08844975
v 0 -0.03193567 -0.1024774
v 0 -0.04431955 -0.08844975
v 0.07993881 -0.01834588 -0.08844976
v 0.07265975 -0.008327117 -0.1024775
v 0 0.01552045 -0.110408
v 0.1293437 0.04965414 -0.08844977
v 0.04476575 0.03006571 -0.110408
v 0.1175659 0.05348097 -0.1024775
v 0.1293437 0.1337068 -0.08844978
v 0.07243248 0.06814572 -0.110408
v 0.117566 0.1298799 -0.1024775
v 0.07993884 0.2017068 -0.08844975
v 0.08147793 0.1211348 -0.1091307
v 0.07265978 0.191688 -0.1024774
v 0 0.2276804 -0.08844975
v 0.06037277 0.1779568 -0.1066546
v 0 0.2152966 -0.1024775
v 0 0.2034325 -0.1044601
v 0.07993884 0.2017068 0.1276339
v 0 0.2152099 0.1411203
v 0 0.2276804 0.1276339
v 0.07260886 0.191618 0.1411203
v 0 0.1459522 0.1495921
v 0.1293437 0.1337067 0.1276338
v 0.03837584 0.1300564 0.1495921
v 0.1174836 0.1298532 0.1411203
v 0.1293437 0.04965414 0.1276338
v 0.05427168 0.09168046 0.1495921
v 0.1174836 0.05350774 0.1411203
v 0.07993881 -0.01834589 0.1276338
v 0.03837584 0.05330455 0.1495921
v 0.07260884 -0.008257043 0.1411203
v 0 -0.04431955 0.1276338
v 0 -0.03184905 0.1411203
v 0 0.03740874 0.1495921
v 0.03837584 0.05330455 0.1495921
v 0 0.03740874 0.1495921
v 0 0.03740872 0.1871095
v 0.03837584 0.05330456 0.1871094
v 0.05427168 0.09168046 0.1495921
v 0.02763061 0.06404981 0.1871094
v 0 0.05260481 0.1871094
v 0 0.09168046 0.1528804
v 0.05427168 0.09168046 0.1871094
v 0.03837584 0.1300564 0.1495921
v 0.03907561 0.09168046 0.1871094
v 0.02763061 0.1193111 0.1871094
v 0 0.1307561 0.1871094
v 0.03837584 0.1300564 0.1871094
v 0 0.1459522 0.1495921
v 0 0.1459522 0.1871094
v 0.04476575 0.03006571 -0.110408
v 0 0.01899058 -0.1065667
v 0 0.01552045 -0.110408
v 0.04217178 0.03382522 -0.1065667
v 0.07243248 0.06814572 -0.110408
v 0.06872636 0.0703745 -0.1065667
v 0.08147793 0.1211348 -0.1091307
v 0.07740821 0.1212335 -0.1053407
v 0.06037277 0.1779568 -0.1066546
v 0.05715143 0.1757714 -0.1029642
v 0 0.2034325 -0.1044601
v 0 0.199349 -0.1008579
v 0 -0.04431955 -0.08844975
v -0.07993881 -0.01834589 0.1276338
v 0 -0.04431955 0.1276338
v -0.07993881 -0.01834588 -0.08844976
v -0.1293437 0.04965414 0.1276338
v -0.1293437 0.04965414 -0.08844977
v -0.1293437 0.1337067 0.1276338
v -0.1293437 0.1337068 -0.08844978
v -0.07993884 0.2017068 0.1276339
v -0.07993884 0.2017068 -0.08844975
v 0 0.2276804 0.1276339
v 0 0.2276804 -0.08844975
v 0 -0.03193567 -0.1024774
v -0.07993881 -0.01834588 -0.08844976
v 0 -0.04431955 -0.08844975
v -0.07265975 -0.008327117 -0.1024775
v 0 0.01552045 -0.110408
v -0.1293437 0.04965414 -0.08844977
v -0.04476575 0.03006571 -0.110408
v -0.1175659 0.05348097 -0.1024775
v -0.1293437 0.1337068 -0.08844978
v -0.07243248 0.06814572 -0.110408
v -0.117566 0.1298799 -0.1024775
v -0.07993884 0.2017068 -0.08844975
v -0.08147793 0.1211348 -0.1091307
v -0.07265978 0.191688 -0.1024774
v 0 0.2276804 -0.08844975
v -0.06037277 0.1779568 -0.1066546
v 0 0.2152966 -0.1024775
v 0 0.2034325 -0.1044601
v -0.07993884 0.2017068 0.1276339
v 0 0.2276804 0.1276339
v 0 0.2152099 0.1411203
v -0.07260886 0.191618 0.1411203
v 0 0.1459522 0.1495921
v -0.1293437 0.1337067 0.1276338
v -0.03837584 0.1300564 0.1495921
v -0.1174836 0.1298532 0.1411203
v -0.1293437 0.04965414 0.1276338
v -0.05427168 0.09168046 0.1495921
v -0.1174836 0.05350774 0.1411203
v -0.07993881 -0.01834589 0.1276338
v -0.03837584 0.05330455 0.1495921
v -0.07260884 -0.008257043 0.1411203
v 0 -0.04431955 0.1276338
v 0 -0.03184905 0.1411203
v 0 0.03740874 0.1495921
v -0.03837584 0.05330455 0.1495921
v 0 0.03740872 0.1871095
v 0 0.03740874 0.1495921
v -0.03837584 0.05330456 0.1871094
v -0.05427168 0.09168046 0.1495921
v -0.02763061 0.06404981 0.1871094
v 0 0.05260481 0.1871094
v 0 0.09168046 0.1528804
v -0.05427168 0.09168046 0.1871094
v -0.03837584 0.1300564 0.1495921
v -0.03907561 0.09168046 0.1871094
v -0.02763061 0.1193111 0.1871094
v 0 0.1307561 0.1871094
v -0.03837584 0.1300564 0.1871094
v 0 0.1459522 0.1495921
v 0 0.1459522 0.1871094
v -0.04476575 0.03006571 -0.110408
v 0 0.01552045 -0.110408
v 0 0.01899058 -0.1065667
v -0.04217178 0.03382522 -0.1065667
v -0.07243248 0.06814572 -0.110408
v -0.06872636 0.0703745 -0.1065667
v -0.08147793 0.1211348 -0.1091307
v -0.07740821 0.1212335 -0.1053407
v -0.06037277 0.1779568 -0.1066546
v -0.05715143 0.1757714 -0.1029642
v 0 0.2034325 -0.1044601
v 0 0.199349 -0.1008579
vt 0.004638672 0.005218506
vt 0.004638672 0.5136719
vt 0.2023926 0.5136719
vt 0.2023926 0.005218506
vt 0.4001465 0.5136719
vt 0.4001465 0.005218506
vt 0.5976563 0.5136719
vt 0.5976563 0.005218506
vt 0.7954102 0.5136719
vt 0.7954102 0.005218506
vt 0.9931641 0.5136719
vt 0.9931641 0.005218506
vt 0.7392578 0.8701172
vt 0.7827148 0.8657227
vt 0.7241211 0.6850586
vt 0.6884766 0.7080078
vt 0.6293945 0.8676758
vt 0.5864258 0.5600586
vt 0.5986328 0.7646484
vt 0.5678711 0.597168
vt 0.4072266 0.5229492
vt 0.5180664 0.6928711
vt 0.4094238 0.5634766
vt 0.2375488 0.5771484
vt 0.4064941 0.6445313
vt 0.2587891 0.6108398
vt 0.1150513 0.7055664
vt 0.2758789 0.6459961
vt 0.1485596 0.7265625
vt 0.1716309 0.737793
vt 0.5839844 0.7963867
vt 0.6328125 0.9750977
vt 0.6733398 0.9638672
vt 0.5541992 0.824707
vt 0.4719238 0.9980469
vt 0.4274902 0.7016602
vt 0.4250488 0.9140625
vt 0.4169922 0.7402344
vt 0.2474365 0.7016602
vt 0.3359375 0.8803711
vt 0.2583008 0.7397461
vt 0.09429932 0.793457
vt 0.2469482 0.9111328
vt 0.1229248 0.8208008
vt 0.006080627 0.9526367
vt 0.04412842 0.9643555
vt 0.1990967 0.9912109
vt 0.8510742 0.78125
vt 0.949707 0.8266602
vt 0.984375 0.7338867
vt 0.8989258 0.7133789
vt 0.7807617 0.7089844
vt 0.9116211 0.6865234
vt 0.9770508 0.6962891
vt 0.9458008 0.5834961
vt 0.84375 0.6674805
vt 0.7460938 0.6235352
vt 0.8647461 0.6513672
vt 0.8393555 0.6015625
vt 0.8427734 0.5415039
vt 0.8149414 0.6069336
vt 0.7353516 0.5390625
vt 0.8115234 0.5292969
vt 0.7978516 0.8964844
vt 0.7363281 0.980957
vt 0.7446289 0.9887695
vt 0.784668 0.8925781
vt 0.8022461 0.7900391
vt 0.7890625 0.7905273
vt 0.7646484 0.6748047
vt 0.7529297 0.6796875
vt 0.6757813 0.5708008
vt 0.6674805 0.5795898
vt 0.5336914 0.5288086
vt 0.5336914 0.5410156
vt 0.004638672 0.005218506
vt 0.2023926 0.5136719
vt 0.004638672 0.5136719
vt 0.2023926 0.005218506
vt 0.4001465 0.5136719
vt 0.4001465 0.005218506
vt 0.5976563 0.5136719
vt 0.5976563 0.005218506
vt 0.7954102 0.5136719
vt 0.7954102 0.005218506
vt 0.9931641 0.5136719
vt 0.9931641 0.005218506
vt 0.7392578 0.8701172
vt 0.7241211 0.6850586
vt 0.7827148 0.8657227
vt 0.6884766 0.7080078
vt 0.6293945 0.8676758
vt 0.5864258 0.5600586
vt 0.5986328 0.7646484
vt 0.5678711 0.597168
vt 0.4072266 0.5229492
vt 0.5180664 0.6928711
vt 0.4094238 0.5634766
vt 0.2375488 0.5771484
vt 0.4064941 0.6445313
vt 0.2587891 0.6108398
vt 0.1150513 0.7055664
vt 0.2758789 0.6459961
vt 0.1485596 0.7265625
vt 0.1716309 0.737793
vt 0.5839844 0.7963867
vt 0.6733398 0.9638672
vt 0.6328125 0.9750977
vt 0.5541992 0.824707
vt 0.4719238 0.9980469
vt 0.4274902 0.7016602
vt 0.4250488 0.9140625
vt 0.4169922 0.7402344
vt 0.2474365 0.7016602
vt 0.3359375 0.8803711
vt 0.2583008 0.7397461
vt 0.09429932 0.793457
vt 0.2469482 0.9111328
vt 0.1229248 0.8208008
vt 0.006080627 0.9526367
vt 0.04412842 0.9643555
vt 0.1990967 0.9912109
vt 0.8510742 0.78125
vt 0.984375 0.7338867
vt 0.949707 0.8266602
vt 0.8989258 0.7133789
vt 0.7807617 0.7089844
vt 0.9116211 0.6865234
vt 0.9770508 0.6962891
vt 0.9458008 0.5834961
vt 0.84375 0.6674805
vt 0.7460938 0.6235352
vt 0.8647461 0.6513672
vt 0.8393555 0.6015625
vt 0.8427734 0.5415039
vt 0.8149414 0.6069336
vt 0.7353516 0.5390625
vt 0.8115234 0.5292969
vt 0.7978516 0.8964844
vt 0.7446289 0.9887695
vt 0.7363281 0.980957
vt 0.784668 0.8925781
vt 0.8022461 0.7900391
vt 0.7890625 0.7905273
vt 0.7646484 0.6748047
vt 0.7529297 0.6796875
vt 0.6757813 0.5708008
vt 0.6674805 0.5795898
vt 0.5336914 0.5288086
vt 0.5336914 0.5410156
vn 0 -0.9990234 -0.04504395
vn 0 -0.9990234 0.04528809
vn 0.5874023 -0.8081055 0.04528809
vn 0.5874023 -0.8081055 -0.04504395
vn 0.9501953 -0.3085938 0.04528809
vn 0.9501953 -0.3085938 -0.04504395
vn 0.9501953 0.3085938 0.04528809
vn 0.9501953 0.3085938 -0.04504395
vn 0.5874023 0.8081055 0.04528809
vn 0.5874023 0.8081055 -0.04504395
vn 0 0.9990234 0.04528809
vn 0 0.9990234 -0.04504395
vn 0 -0.4321289 -0.9018555
vn 0 -0.9990234 -0.04504395
vn 0.5874023 -0.8081055 -0.04504395
vn 0.2541504 -0.3496094 -0.9018555
vn 0 -0.1174927 -0.9931641
vn 0.9501953 -0.3085938 -0.04504395
vn 0.06915283 -0.09539795 -0.9931641
vn 0.4155273 -0.1363525 -0.8994141
vn 0.9501953 0.3085938 -0.04504395
vn 0.1046753 -0.03338623 -0.9941406
vn 0.4506836 0.1380615 -0.8818359
vn 0.5874023 0.8081055 -0.04504395
vn 0.1004028 0.03451538 -0.9941406
vn 0.3276367 0.4335938 -0.8393555
vn 0 0.9990234 -0.04504395
vn 0.05432129 0.07891846 -0.9956055
vn 0 0.5932617 -0.8051758
vn 0 0.06311035 -0.9980469
vn 0.5874023 0.8081055 0.04528809
vn 0 0.3408203 0.9399414
vn 0 0.9990234 0.04528809
vn 0.2139893 0.3054199 0.9277344
vn 0 0.3786621 0.925293
vn 0.9501953 0.3085938 0.04528809
vn 0.3161621 0.342041 0.8847656
vn 0.4152832 0.1347656 0.8999023
vn 0.9501953 -0.3085938 0.04528809
vn 0.6108398 0 0.7915039
vn 0.4152832 -0.1347656 0.8999023
vn 0.5874023 -0.8081055 0.04528809
vn 0.3161621 -0.342041 0.8847656
vn 0.2139893 -0.3054199 0.9277344
vn 0 -0.9990234 0.04528809
vn 0 -0.3408203 0.9399414
vn 0 -0.3786621 0.925293
vn 0.3161621 -0.342041 0.8847656
vn 0 -0.3786621 0.925293
vn 0 -0.9672852 0.2526855
vn 0.684082 -0.684082 0.2526855
vn 0.6108398 0 0.7915039
vn -0.2401123 0.2401123 0.9404297
vn 0 0.3395996 0.9404297
vn 0 0 1
vn 0.9672852 0 0.2526855
vn 0.3161621 0.342041 0.8847656
vn -0.3395996 0 0.9404297
vn -0.2401123 -0.2401123 0.9404297
vn 0 -0.3395996 0.9404297
vn 0.684082 0.684082 0.2526855
vn 0 0.3786621 0.925293
vn 0 0.9672852 0.2526855
vn 0.06915283 -0.09539795 -0.9931641
vn 0 0.6879883 -0.7255859
vn 0 -0.1174927 -0.9931641
vn -0.3989258 0.5356445 -0.7441406
vn 0.1046753 -0.03338623 -0.9941406
vn -0.6201172 0.2502441 -0.7436523
vn 0.1004028 0.03451538 -0.9941406
vn -0.6811523 -0.06057739 -0.7299805
vn 0.05432129 0.07891846 -0.9956055
vn -0.4873047 -0.4748535 -0.7329102
vn 0 0.06311035 -0.9980469
vn 0 -0.6860352 -0.7275391
vn 0 -0.9990234 -0.04504395
vn -0.5874023 -0.8081055 0.04528809
vn 0 -0.9990234 0.04528809
vn -0.5874023 -0.8081055 -0.04504395
vn -0.9501953 -0.3085938 0.04528809
vn -0.9501953 -0.3085938 -0.04504395
vn -0.9501953 0.3085938 0.04528809
vn -0.9501953 0.3085938 -0.04504395
vn -0.5874023 0.8081055 0.04528809
vn -0.5874023 0.8081055 -0.04504395
vn 0 0.9990234 0.04528809
vn 0 0.9990234 -0.04504395
vn 0 -0.4321289 -0.9018555
vn -0.5874023 -0.8081055 -0.04504395
vn 0 -0.9990234 -0.04504395
vn -0.2541504 -0.3496094 -0.9018555
vn 0 -0.1174927 -0.9931641
vn -0.9501953 -0.3085938 -0.04504395
vn -0.06915283 -0.09539795 -0.9931641
vn -0.4155273 -0.1363525 -0.8994141
vn -0.9501953 0.3085938 -0.04504395
vn -0.1046753 -0.03338623 -0.9941406
vn -0.4506836 0.1380615 -0.8818359
vn -0.5874023 0.8081055 -0.04504395
vn -0.1004028 0.03451538 -0.9941406
vn -0.3276367 0.4335938 -0.8393555
vn 0 0.9990234 -0.04504395
vn -0.05432129 0.07891846 -0.9956055
vn 0 0.5932617 -0.8051758
vn 0 0.06311035 -0.9980469
vn -0.5874023 0.8081055 0.04528809
vn 0 0.9990234 0.04528809
vn 0 0.3408203 0.9399414
vn -0.2139893 0.3054199 0.9277344
vn 0 0.3786621 0.925293
vn -0.9501953 0.3085938 0.04528809
vn -0.3161621 0.342041 0.8847656
vn -0.4152832 0.1347656 0.8999023
vn -0.9501953 -0.3085938 0.04528809
vn -0.6108398 0 0.7915039
vn -0.4152832 -0.1347656 0.8999023
vn -0.5874023 -0.8081055 0.04528809
vn -0.3161621 -0.342041 0.8847656
vn -0.2139893 -0.3054199 0.9277344
vn 0 -0.9990234 0.04528809
vn 0 -0.3408203 0.9399414
vn 0 -0.3786621 0.925293
vn -0.3161621 -0.342041 0.8847656
vn 0 -0.9672852 0.2526855
vn 0 -0.3786621 0.925293
vn -0.684082 -0.684082 0.2526855
vn -0.6108398 0 0.7915039
vn 0.2401123 0.2401123 0.9404297
vn 0 0.3395996 0.9404297
vn 0 0 1
vn -0.9672852 0 0.2526855
vn -0.3161621 0.342041 0.8847656
vn 0.3395996 0 0.9404297
vn 0.2401123 -0.2401123 0.9404297
vn 0 -0.3395996 0.9404297
vn -0.684082 0.684082 0.2526855
vn 0 0.3786621 0.925293
vn 0 0.9672852 0.2526855
vn -0.06915283 -0.09539795 -0.9931641
vn 0 -0.1174927 -0.9931641
vn 0 0.6879883 -0.7255859
vn 0.3989258 0.5356445 -0.7441406
vn -0.1046753 -0.03338623 -0.9941406
vn 0.6201172 0.2502441 -0.7436523
vn -0.1004028 0.03451538 -0.9941406
vn 0.6811523 -0.06057739 -0.7299805
vn -0.05432129 0.07891846 -0.9956055
vn 0.4873047 -0.4748535 -0.7329102
vn 0 0.06311035 -0.9980469
vn 0 -0.6860352 -0.7275391
g Куб.001_0
f 3/3/3 2/2/2 1/1/1
f 4/4/4 3/3/3 1/1/1
f 5/5/5 3/3/3 4/4/4
f 6/6/6 5/5/5 4/4/4
f 7/7/7 5/5/5 6/6/6
f 8/8/8 7/7/7 6/6/6
f 9/9/9 7/7/7 8/8/8
f 10/10/10 9/9/9 8/8/8
f 11/11/11 9/9/9 10/10/10
f 12/12/12 11/11/11 10/10/10
f 15/15/15 14/14/14 13/13/13
f 16/16/16 15/15/15 13/13/13
f 13/13/13 17/17/17 16/16/16
f 18/18/18 15/15/15 16/16/16
f 17/17/17 19/19/19 16/16/16
f 20/20/20 18/18/18 16/16/16
f 16/16/16 19/19/19 20/20/20
f 21/21/21 18/18/18 20/20/20
f 19/19/19 22/22/22 20/20/20
f 23/23/23 21/21/21 20/20/20
f 20/20/20 22/22/22 23/23/23
f 24/24/24 21/21/21 23/23/23
f 22/22/22 25/25/25 23/23/23
f 26/26/26 24/24/24 23/23/23
f 23/23/23 25/25/25 26/26/26
f 27/27/27 24/24/24 26/26/26
f 25/25/25 28/28/28 26/26/26
f 29/29/29 27/27/27 26/26/26
f 26/26/26 28/28/28 29/29/29
f 28/28/28 30/30/30 29/29/29
f 33/33/33 32/32/32 31/31/31
f 32/32/32 34/34/34 31/31/31
f 32/32/32 35/35/35 34/34/34
f 31/31/31 34/34/34 36/36/36
f 35/35/35 37/37/37 34/34/34
f 34/34/34 38/38/38 36/36/36
f 34/34/34 37/37/37 38/38/38
f 36/36/36 38/38/38 39/39/39
f 38/38/38 37/37/37 40/40/40
f 38/38/38 41/41/41 39/39/39
f 38/38/38 40/40/40 41/41/41
f 39/39/39 41/41/41 42/42/42
f 41/41/41 40/40/40 43/43/43
f 41/41/41 44/44/44 42/42/42
f 41/41/41 43/43/43 44/44/44
f 42/42/42 44/44/44 45/45/45
f 44/44/44 46/46/46 45/45/45
f 44/44/44 43/43/43 46/46/46
f 43/43/43 47/47/47 46/46/46
f 50/50/50 49/49/49 48/48/48
f 51/51/51 50/50/50 48/48/48
f 51/51/51 48/48/48 52/52/52
f 51/51/51 53/53/53 50/50/50
f 53/53/53 54/54/54 50/50/50
f 53/53/53 55/55/55 54/54/54
f 56/56/56 51/51/51 52/52/52
f 56/56/56 52/52/52 57/57/57
f 58/58/58 53/53/53 51/51/51
f 58/58/58 55/55/55 53/53/53
f 56/56/56 58/58/58 51/51/51
f 59/59/59 55/55/55 58/58/58
f 59/59/59 58/58/58 56/56/56
f 60/60/60 55/55/55 59/59/59
f 61/61/61 56/56/56 57/57/57
f 61/61/61 59/59/59 56/56/56
f 60/60/60 59/59/59 61/61/61
f 61/61/61 57/57/57 62/62/62
f 63/63/63 60/60/60 61/61/61
f 63/63/63 61/61/61 62/62/62
f 66/66/66 65/65/65 64/64/64
f 65/65/65 67/67/67 64/64/64
f 64/64/64 67/67/67 68/68/68
f 67/67/67 69/69/69 68/68/68
f 68/68/68 69/69/69 70/70/70
f 69/69/69 71/71/71 70/70/70
f 70/70/70 71/71/71 72/72/72
f 71/71/71 73/73/73 72/72/72
f 72/72/72 73/73/73 74/74/74
f 73/73/73 75/75/75 74/74/74
f 78/78/78 77/77/77 76/76/76
f 77/77/77 79/79/79 76/76/76
f 77/77/77 80/80/80 79/79/79
f 80/80/80 81/81/81 79/79/79
f 80/80/80 82/82/82 81/81/81
f 82/82/82 83/83/83 81/81/81
f 82/82/82 84/84/84 83/83/83
f 84/84/84 85/85/85 83/83/83
f 84/84/84 86/86/86 85/85/85
f 86/86/86 87/87/87 85/85/85
f 90/90/90 89/89/89 88/88/88
f 89/89/89 91/91/91 88/88/88
f 92/92/92 88/88/88 91/91/91
f 89/89/89 93/93/93 91/91/91
f 94/94/94 92/92/92 91/91/91
f 93/93/93 95/95/95 91/91/91
f 94/94/94 91/91/91 95/95/95
f 93/93/93 96/96/96 95/95/95
f 97/97/97 94/94/94 95/95/95
f 96/96/96 98/98/98 95/95/95
f 97/97/97 95/95/95 98/98/98
f 96/96/96 99/99/99 98/98/98
f 100/100/100 97/97/97 98/98/98
f 99/99/99 101/101/101 98/98/98
f 100/100/100 98/98/98 101/101/101
f 99/99/99 102/102/102 101/101/101
f 103/103/103 100/100/100 101/101/101
f 102/102/102 104/104/104 101/101/101
f 103/103/103 101/101/101 104/104/104
f 105/105/105 103/103/103 104/104/104
f 108/108/108 107/107/107 106/106/106
f 109/109/109 108/108/108 106/106/106
f 110/110/110 108/108/108 109/109/109
f 109/109/109 106/106/106 111/111/111
f 112/112/112 110/110/110 109/109/109
f 113/113/113 109/109/109 111/111/111
f 112/112/112 109/109/109 113/113/113
f 113/113/113 111/111/111 114/114/114
f 112/112/112 113/113/113 115/115/115
f 116/116/116 113/113/113 114/114/114
f 115/115/115 113/113/113 116/116/116
f 116/116/116 114/114/114 117/117/117
f 115/115/115 116/116/116 118/118/118
f 119/119/119 116/116/116 117/117/117
f 118/118/118 116/116/116 119/119/119
f 119/119/119 117/117/117 120/120/120
f 121/121/121 119/119/119 120/120/120
f 118/118/118 119/119/119 121/121/121
f 122/122/122 118/118/118 121/121/121
f 125/125/125 124/124/124 123/123/123
f 124/124/124 126/126/126 123/123/123
f 123/123/123 126/126/126 127/127/127
f 128/128/128 126/126/126 124/124/124
f 129/129/129 128/128/128 124/124/124
f 130/130/130 128/128/128 129/129/129
f 126/126/126 131/131/131 127/127/127
f 127/127/127 131/131/131 132/132/132
f 128/128/128 133/133/133 126/126/126
f 130/130/130 133/133/133 128/128/128
f 133/133/133 131/131/131 126/126/126
f 130/130/130 134/134/134 133/133/133
f 133/133/133 134/134/134 131/131/131
f 130/130/130 135/135/135 134/134/134
f 131/131/131 136/136/136 132/132/132
f 134/134/134 136/136/136 131/131/131
f 134/134/134 135/135/135 136/136/136
f 132/132/132 136/136/136 137/137/137
f 135/135/135 138/138/138 136/136/136
f 136/136/136 138/138/138 137/137/137
f 141/141/141 140/140/140 139/139/139
f 142/142/142 141/141/141 139/139/139
f 142/142/142 139/139/139 143/143/143
f 144/144/144 142/142/142 143/143/143
f 144/144/144 143/143/143 145/145/145
f 146/146/146 144/144/144 145/145/145
f 146/146/146 145/145/145 147/147/147
f 148/148/148 146/146/146 147/147/147
f 148/148/148 147/147/147 149/149/149
f 150/150/150 148/148/148 149/149/149
