g LegoBottom_Green
v 19.99986 24.0004 3.000397
v 19.99986 25.99975 3.000397
v -5.999882 24.0004 3.000397
v -5.999882 -10.00037 3.000397
v -3.999626 -10.00037 3.000397
v -3.999626 -8.000116 3.000397
v -5.999882 -8.000116 3.000397
v -1.144409E-05 -10.00037 3.000397
v 2.000246 -10.00037 3.000397
v 2.000246 -8.000116 3.000397
v -1.144409E-05 -8.000116 3.000397
v -3.999626 -10.00037 3.000397
v -2.000267 -10.00037 3.000397
v -2.000267 -8.000116 3.000397
v -3.999626 -8.000116 3.000397
v 3.999603 -10.00037 3.000397
v 5.999861 -10.00037 3.000397
v 5.999861 -8.000116 3.000397
v 3.999603 -8.000116 3.000397
v 11.99973 -10.00037 3.000397
v 13.99999 -10.00037 3.000397
v 13.99999 -8.000116 3.000397
v 11.99973 -8.000116 3.000397
v 8.000116 -10.00037 3.000397
v 10.00037 -10.00037 3.000397
v 10.00037 -8.000116 3.000397
v 8.000116 -8.000116 3.000397
v 16.00024 -10.00037 3.000397
v 17.9996 -10.00037 3.000397
v 17.9996 -8.000116 3.000397
v 16.00024 -8.000116 3.000397
v 19.99986 -10.00037 3.000397
v 22.00012 -10.00037 3.000397
v 22.00012 -8.000116 3.000397
v 19.99986 -8.000116 3.000397
v -8.000141 -10.00037 2.750141
v -5.999882 -10.00037 2.750141
v -5.999882 -8.000116 2.750141
v -8.000141 -8.000116 2.750141
v 2.000246 -10.00037 3.000397
v 3.999603 -10.00037 3.000397
v 3.999603 -8.000116 3.000397
v 2.000246 -8.000116 3.000397
v -2.000267 -10.00037 3.000397
v -1.144409E-05 -10.00037 3.000397
v -1.144409E-05 -8.000116 3.000397
v -2.000267 -8.000116 3.000397
v 5.999861 -10.00037 3.000397
v 8.000116 -10.00037 3.000397
v 8.000116 -8.000116 3.000397
v 5.999861 -8.000116 3.000397
v 13.99999 -10.00037 3.000397
v 16.00024 -10.00037 3.000397
v 16.00024 -8.000116 3.000397
v 13.99999 -8.000116 3.000397
v 10.00037 -10.00037 3.000397
v 11.99973 -10.00037 3.000397
v 11.99973 -8.000116 3.000397
v 10.00037 -8.000116 3.000397
v 17.9996 -10.00037 3.000397
v 19.99986 -10.00037 3.000397
v 19.99986 -8.000116 3.000397
v 17.9996 -8.000116 3.000397
v 22.00012 -10.00037 3.000397
v 24.00037 -10.00037 3.000397
v 24.00037 -8.000116 3.000397
v 22.00012 -8.000116 3.000397
v 24.00037 -10.00037 3.000397
v 25.99973 -10.00037 3.000397
v 25.99973 -8.000116 3.000397
v 24.00037 -8.000116 3.000397
v 25.99973 -10.00037 2.750141
v 27.99999 -10.00037 2.750141
v 27.99999 -8.000116 2.750141
v 25.99973 -8.000116 2.750141
v -5.999882 24.0004 2.750141
v -5.999882 25.99975 2.750141
v -8.000141 25.99975 2.750141
v -8.000141 24.0004 2.750141
v 25.99973 24.0004 3.000397
v 25.99973 25.99975 3.000397
v 19.99986 25.99975 3.000397
v 19.99986 24.0004 3.000397
v 27.99999 24.0004 2.750141
v 27.99999 25.99975 2.750141
v 25.99973 25.99975 2.750141
v 25.99973 24.0004 2.750141
v 19.99986 25.99975 3.000397
v 19.99986 28.00001 3.000397
v -5.999882 28.00001 3.000397
v -5.999882 24.0004 3.000397
v 30.99497 7.000011 10.0004
v 30.99497 9.000267 10.0004
v 30.49716 9.000267 10.0004
v 30.49716 7.000011 10.0004
v -10.99512 9.000267 10.0004
v -10.99512 7.000011 10.0004
v -10.49731 7.000011 10.0004
v -10.49731 9.000267 10.0004
v -1.004641 3.000397 10.0004
v -1.004641 5.999882 10.0004
v -1.502453 5.999882 10.0004
v -1.502453 3.000397 10.0004
v 30.49716 10.0004 10.0004
v 30.49716 12.99988 10.0004
v 30.00024 12.99988 10.0004
v 30.00024 10.0004 10.0004
v 30.99497 10.0004 10.0004
v 30.99497 12.99988 10.0004
v 30.49716 12.99988 10.0004
v 30.49716 10.0004 10.0004
v -1.502453 7.000011 10.0004
v -1.502453 9.000267 10.0004
v -2.000267 9.000267 10.0004
v -2.000267 7.000011 10.0004
v -3.000397 14.99474 10.0004
v -5.999882 14.99474 10.0004
v -5.999882 14.49783 10.0004
v -3.000397 14.49783 10.0004
v 21.00539 12.99988 10.0004
v 21.00539 10.0004 10.0004
v 21.5023 10.0004 10.0004
v 21.5023 12.99988 10.0004
v -1.004641 10.0004 10.0004
v -1.004641 12.99988 10.0004
v -1.502453 12.99988 10.0004
v -1.502453 10.0004 10.0004
v -1.502453 10.0004 10.0004
v -1.502453 12.99988 10.0004
v -2.000267 12.99988 10.0004
v -2.000267 10.0004 10.0004
v 30.49716 3.000397 10.0004
v 30.49716 5.999882 10.0004
v 30.00024 5.999882 10.0004
v 30.00024 3.000397 10.0004
v -1.502453 3.000397 10.0004
v -1.502453 5.999882 10.0004
v -2.000267 5.999882 10.0004
v -2.000267 3.000397 10.0004
v 30.49716 7.000011 10.0004
v 30.49716 9.000267 10.0004
v 30.00024 9.000267 10.0004
v 30.00024 7.000011 10.0004
v -10.49731 12.99988 10.0004
v -10.49731 10.0004 10.0004
v -10.0004 10.0004 10.0004
v -10.0004 12.99988 10.0004
v -10.99512 12.99988 10.0004
v -10.99512 10.0004 10.0004
v -10.49731 10.0004 10.0004
v -10.49731 12.99988 10.0004
v -10.99512 5.999882 10.0004
v -10.99512 3.000397 10.0004
v -10.49731 3.000397 10.0004
v -10.49731 5.999882 10.0004
v -10.49731 9.000267 10.0004
v -10.49731 7.000011 10.0004
v -10.0004 7.000011 10.0004
v -10.0004 9.000267 10.0004
v -10.49731 5.999882 10.0004
v -10.49731 3.000397 10.0004
v -9.999496 3.000397 10.0004
v -10.0004 5.999882 10.0004
v -1.004641 7.000011 10.0004
v -1.004641 9.000267 10.0004
v -1.502453 9.000267 10.0004
v -1.502453 7.000011 10.0004
v 30.99497 3.000397 10.0004
v 30.99497 5.999882 10.0004
v 30.49716 5.999882 10.0004
v 30.49716 3.000397 10.0004
v 21.5023 5.999882 10.0004
v 21.5023 3.000397 10.0004
v 22.00012 3.000397 10.0004
v 22.00012 5.999882 10.0004
v 21.5023 12.99988 10.0004
v 21.5023 10.0004 10.0004
v 22.00012 10.0004 10.0004
v 22.00012 12.99988 10.0004
v 21.00539 5.999882 10.0004
v 21.00539 3.000397 10.0004
v 21.5023 3.000397 10.0004
v 21.5023 5.999882 10.0004
v 21.5023 9.000267 10.0004
v 21.5023 7.000011 10.0004
v 22.00012 7.000011 10.0004
v 22.00012 9.000267 10.0004
v -9.000267 1.502453 10.0004
v -5.999882 1.502453 10.0004
v -5.999882 2.000267 10.0004
v -9.000267 2.000267 10.0004
v -4.999756 1.004641 10.0004
v -3.000397 1.004641 10.0004
v -3.000397 1.502453 10.0004
v -4.999756 1.502453 10.0004
v -9.000267 1.004641 10.0004
v -5.999882 1.004641 10.0004
v -5.999882 1.502453 10.0004
v -9.000267 1.502453 10.0004
v -4.999756 1.502453 10.0004
v -3.000397 1.502453 10.0004
v -3.000397 2.000267 10.0004
v -4.999756 2.000267 10.0004
v 24.9996 14.49783 10.0004
v 23.00024 14.49783 10.0004
v 23.00024 14.00001 10.0004
v 24.9996 14.00001 10.0004
v 23.00024 1.004641 10.0004
v 25.99973 1.004641 10.0004
v 25.99973 1.502453 10.0004
v 23.00024 1.502453 10.0004
v 26.99986 1.004641 10.0004
v 29.00012 1.004641 10.0004
v 29.00012 1.502453 10.0004
v 26.99986 1.502453 10.0004
v 23.00024 1.502453 10.0004
v 25.99973 1.502453 10.0004
v 25.99973 2.000267 10.0004
v 23.00024 2.000267 10.0004
v 29.00012 14.99474 10.0004
v 25.99973 14.99474 10.0004
v 25.99973 14.49783 10.0004
v 29.00012 14.49783 10.0004
v -7.000011 14.99474 10.0004
v -9.000267 14.99474 10.0004
v -9.000267 14.49783 10.0004
v -7.000011 14.49783 10.0004
v -7.000011 14.49783 10.0004
v -9.000267 14.49783 10.0004
v -9.000267 14.00001 10.0004
v -7.000011 14.00001 10.0004
v -3.000397 14.49783 10.0004
v -5.999882 14.49783 10.0004
v -5.999882 14.00001 10.0004
v -3.000397 14.00001 10.0004
v 29.00012 14.49783 10.0004
v 25.99973 14.49783 10.0004
v 25.99973 14.00001 10.0004
v 29.00012 14.00001 10.0004
v 24.9996 14.99474 10.0004
v 23.00024 14.99474 10.0004
v 23.00024 14.49783 10.0004
v 24.9996 14.49783 10.0004
v 26.99986 1.502453 10.0004
v 29.00012 1.502453 10.0004
v 29.00012 2.000267 10.0004
v 26.99986 2.000267 10.0004
v 21.00539 9.000267 10.0004
v 21.00539 7.000011 10.0004
v 21.5023 7.000011 10.0004
v 21.5023 9.000267 10.0004
vt 0.0002688169 0.0002688169
vt 1.000314 0.0002688169
vt 0.0002688169 13
vt 0.0002688169 0.0002688169
vt 0.0002688169 1.000314
vt 1.000314 1.000314
vt 1.000314 0.0002688169
vt 0.0002688169 0.0002688169
vt 0.0002688169 1.000314
vt 1.000314 1.000314
vt 1.000314 0.0002688169
vt 0.0002688169 0.0002688169
vt 0.0002688169 1.000314
vt 1.000314 1.000314
vt 1.000314 0.0002688169
vt 0.0002688169 0.0002688169
vt 0.0002688169 1.000314
vt 1.000314 1.000314
vt 1.000314 0.0002688169
vt 0.0002688169 0.0002688169
vt 0.0002688169 1.000314
vt 1.000314 1.000314
vt 1.000314 0.0002688169
vt 0.0002688169 0.0002688169
vt 0.0002688169 1.000314
vt 1.000314 1.000314
vt 1.000314 0.0002688169
vt 0.0002688169 0.0002688169
vt 0.0002688169 1.000314
vt 1.000314 1.000314
vt 1.000314 0.0002688169
vt 0.0002688169 0.0002688169
vt 0.0002688169 1.000314
vt 1.000314 1.000314
vt 1.000314 0.0002688169
vt 0.0002688169 0.0002688169
vt 0.0002688169 1.000314
vt 1.000314 1.000314
vt 1.000314 0.0002688169
vt 0.0002688169 0.0002688169
vt 0.0002688169 1.000314
vt 1.000314 1.000314
vt 1.000314 0.0002688169
vt 0.0002688169 0.0002688169
vt 0.0002688169 1.000314
vt 1.000314 1.000314
vt 1.000314 0.0002688169
vt 0.0002688169 0.0002688169
vt 0.0002688169 1.000314
vt 1.000314 1.000314
vt 1.000314 0.0002688169
vt 0.0002688169 0.0002688169
vt 0.0002688169 1.000314
vt 1.000314 1.000314
vt 1.000314 0.0002688169
vt 0.0002688169 0.0002688169
vt 0.0002688169 1.000314
vt 1.000314 1.000314
vt 1.000314 0.0002688169
vt 0.0002688169 0.0002688169
vt 0.0002688169 1.000314
vt 1.000314 1.000314
vt 1.000314 0.0002688169
vt 0.0002688169 0.0002688169
vt 0.0002688169 1.000314
vt 1.000314 1.000314
vt 1.000314 0.0002688169
vt 0.0002688169 0.0002688169
vt 0.0002688169 1.000314
vt 1.000314 1.000314
vt 1.000314 0.0002688169
vt 0.0002688169 0.0002688169
vt 0.0002688169 1.000314
vt 1.000314 1.000314
vt 1.000314 0.0002688169
vt 0.0002688169 0.0002688169
vt 1.000314 0.0002688169
vt 1.000314 1.000314
vt 0.0002688169 1.000314
vt 0.0002688169 -0.9997761
vt 1.000314 -0.9997761
vt 1.000314 2.000359
vt 0.0002688169 2.000359
vt 0.0002688169 0.0002688169
vt 1.000314 0.0002688169
vt 1.000314 1.000314
vt 0.0002688169 1.000314
vt 0.0002688169 0.0002688169
vt 1.000314 0.0002688169
vt 1.000314 12.99572
vt -0.9997761 13
vt 0.0002688169 -0.4997537
vt 0.0002688169 0.5002912
vt 0.2489979 0.5002912
vt 0.2489979 -0.4997537
vt 0.0002688169 -0.4997537
vt 0.0002688169 0.5002912
vt 0.2489979 0.5002912
vt 0.2489979 -0.4997537
vt 0.0002688169 0.0002688169
vt 0.0002688169 1.500336
vt 0.2489979 1.500336
vt 0.2489979 0.0002688169
vt 0.0002688169 -0.9997761
vt 0.0002688169 0.5002912
vt 0.2489979 0.5002912
vt 0.2489979 -0.9997761
vt 0.0002688169 -0.9997761
vt 0.0002688169 0.5002912
vt 0.2489979 0.5002912
vt 0.2489979 -0.9997761
vt 0.0002688169 -0.4997537
vt 0.0002688169 0.5002912
vt 0.2489979 0.5002912
vt 0.2489979 -0.4997537
vt 0.0002688169 -0.9997761
vt 0.0002688169 0.5002912
vt 0.2489979 0.5002912
vt 0.2489979 -0.9997761
vt 0.0002688169 -0.9997761
vt 0.0002688169 0.5002912
vt 0.2489979 0.5002912
vt 0.2489979 -0.9997761
vt 0.0002688169 -0.9997761
vt 0.0002688169 0.5002912
vt 0.2489979 0.5002912
vt 0.2489979 -0.9997761
vt 0.0002688169 -0.9997761
vt 0.0002688169 0.5002912
vt 0.2489979 0.5002912
vt 0.2489979 -0.9997761
vt 0.0002688169 -0.9997761
vt 0.0002688169 0.5002912
vt 0.2489979 0.5002912
vt 0.2489979 -0.9997761
vt 0.0002688169 0.0002688169
vt 0.0002688169 1.500336
vt 0.2489979 1.500336
vt 0.2489979 0.0002688169
vt 0.0002688169 -0.4997537
vt 0.0002688169 0.5002912
vt 0.2489979 0.5002912
vt 0.2489979 -0.4997537
vt 0.0002688169 -0.9997761
vt 0.0002688169 0.5002912
vt 0.2489979 0.5002912
vt 0.2489979 -0.9997761
vt 0.0002688169 -0.9997761
vt 0.0002688169 0.5002912
vt 0.2489979 0.5002912
vt 0.2489979 -0.9997761
vt 0.0002688169 -0.9997761
vt 0.0002688169 0.5002912
vt 0.2489979 0.5002912
vt 0.2489979 -0.9997761
vt 0.0002688169 -0.4997537
vt 0.0002688169 0.5002912
vt 0.2489979 0.5002912
vt 0.2489979 -0.4997537
vt 0.0002688169 -0.9997761
vt 0.0002688169 0.5002912
vt 0.2489979 0.5002912
vt 0.2489979 -0.9997761
vt 0.0002688169 -0.4997537
vt 0.0002688169 0.5002912
vt 0.2489979 0.5002912
vt 0.2489979 -0.4997537
vt 0.0002688169 -0.9997761
vt 0.0002688169 0.5002912
vt 0.2489979 0.5002912
vt 0.2489979 -0.9997761
vt 0.0002688169 -0.9963571
vt 0.0002688169 0.5002912
vt 0.2489979 0.5002912
vt 0.2489979 -0.9989213
vt 0.0002688169 -0.9997761
vt 0.0002688169 0.5002912
vt 0.2489979 0.5002912
vt 0.2489979 -0.9997761
vt 0.0002688169 -1.000631
vt 0.0002688169 0.5002912
vt 0.2489979 0.5002912
vt 0.2489979 -1.003195
vt 0.0002688169 -0.4997537
vt 0.0002688169 0.5002912
vt 0.2489979 0.5002912
vt 0.2489979 -0.4997537
vt 0.0002688169 -0.9997761
vt 0.0002688169 0.5002912
vt 0.2489979 0.5002912
vt 0.2489979 -0.9997761
vt 0.0002688169 0.0002688169
vt 0.0002688169 1.000314
vt 0.2489979 1.000314
vt 0.2489979 0.0002688169
vt 0.0002688169 -0.9997761
vt 0.0002688169 0.5002912
vt 0.2489979 0.5002912
vt 0.2489979 -0.9997761
vt 0.0002688169 0.0002688169
vt 0.0002688169 1.000314
vt 0.2489979 1.000314
vt 0.2489979 0.0002688169
vt 0.0002688169 -0.4997537
vt 0.0002688169 0.5002912
vt 0.2489979 0.5002912
vt 0.2489979 -0.4997537
vt 0.0002688169 -0.9997761
vt 0.0002688169 0.5002912
vt 0.2489979 0.5002912
vt 0.2489979 -0.9997761
vt 0.0002688169 0.0002688169
vt 0.0002688169 1.000314
vt 0.2489979 1.000314
vt 0.2489979 0.0002688169
vt 0.0002688169 -0.9997761
vt 0.0002688169 0.5002912
vt 0.2489979 0.5002912
vt 0.2489979 -0.9997761
vt 0.0002688169 -0.9997761
vt 0.0002688169 0.5002912
vt 0.2489979 0.5002912
vt 0.2489979 -0.9997761
vt 0.0002688169 -0.4997537
vt 0.0002688169 0.5002912
vt 0.2489979 0.5002912
vt 0.2489979 -0.5006084
vt 0.0002688169 -0.4997537
vt 0.0002688169 0.5002912
vt 0.2489979 0.5002912
vt 0.2489979 -0.4997537
vt 0.0002688169 -0.9997761
vt 0.0002688169 0.5002912
vt 0.2489979 0.5002912
vt 0.2489979 -0.9997761
vt 0.0002688169 -0.9997761
vt 0.0002688169 0.5002912
vt 0.2489979 0.5002912
vt 0.2489979 -0.9997761
vt 0.0002688169 -0.4997537
vt 0.0002688169 0.5002912
vt 0.2489979 0.5002912
vt 0.2489979 -0.4997537
vt 0.0002688169 0.0002688169
vt 0.0002688169 1.000314
vt 0.2489979 1.000314
vt 0.2489979 0.0002688169
vt 0.0002688169 -0.5006084
vt 0.0002688169 0.5002912
vt 0.2489979 0.5002912
vt 0.2489979 -0.4997537
vn 0 0 -1
vn 0 0 -1
vn 0 0 -1
vn 0 0 -1
vn 0 0 -1
vn 0 0 -1
vn 0 0 -1
vn 0 0 -1
vn 0 0 -1
vn 0 0 -1
vn 0 0 -1
vn 0 0 -1
vn 0 0 -1
vn 0 0 -1
vn 0 0 -1
vn 0 0 -1
vn 0 0 -1
vn 0 0 -1
vn 0 0 -1
vn 0 0 -1
vn 0 0 -1
vn 0 0 -1
vn 0 0 -1
vn 0 0 -1
vn 0 0 -1
vn 0 0 -1
vn 0 0 -1
vn 0 0 -1
vn 0 0 -1
vn 0 0 -1
vn 0 0 -1
vn 0 0 -1
vn 0 0 -1
vn 0 0 -1
vn 0 0 -1
vn 0 0 -1
vn 0 0 -1
vn 0 0 -1
vn 0 0 -1
vn 0 0 -1
vn 0 0 -1
vn 0 0 -1
vn 0 0 -1
vn 0 0 -1
vn 0 0 -1
vn 0 0 -1
vn 0 0 -1
vn 0 0 -1
vn 0 0 -1
vn 0 0 -1
vn 0 0 -1
vn 0 0 -1
vn 0 0 -1
vn 0 0 -1
vn 0 0 -1
vn 0 0 -1
vn 0 0 -1
vn 0 0 -1
vn 0 0 -1
vn 0 0 -1
vn 0 0 -1
vn 0 0 -1
vn 0 0 -1
vn 0 0 -1
vn 0 0 -1
vn 0 0 -1
vn 0 0 -1
vn 0 0 -1
vn 0 0 -1
vn 0 0 -1
vn 0 0 -1
vn 0 0 -1
vn 0 0 -1
vn 0 0 -1
vn 0 0 -1
vn 0 0 -1
vn 0 0 -1
vn 0 0 -1
vn 0 0 -1
vn 0 0 -1
vn 0 0 -1
vn 0 0 -1
vn 0 0 -1
vn 0 0 -1
vn 0 0 -1
vn 0 0 -1
vn 0 0 -1
vn 0 0 -1
vn 0 0 -1
vn 0 0 -1
vn 0 0 -1
vn 0 0 -1
vn 0 0 -1
vn 0 0 -1
vn 0 0 -1
vn 0 0 -1
vn 0 0 -1
vn 0 0 -1
vn 0 0 -1
vn 0 0 -1
vn 0 0 -1
vn 0 0 -1
vn 0 0 -1
vn 0 0 -1
vn 0 0 -1
vn -1.022393E-05 0 -1
vn -1.022393E-05 0 -1
vn 0 0 -1
vn 0 0 -1
vn 0 0 -1
vn 0 0 -1
vn 0 0 -1
vn 0 0 -1
vn 0 0 -1
vn 0 0 -1
vn 0 0 -1
vn 0 0 -1
vn 0 0 -1
vn 0 0 -1
vn 0 0 -1
vn 0 0 -1
vn 0 0 -1
vn 0 0 -1
vn 0 0 -1
vn 0 0 -1
vn 0 0 -1
vn 0 0 -1
vn 0 0 -1
vn 0 0 -1
vn 0 0 -1
vn 0 0 -1
vn 0 0 -1
vn 0 0 -1
vn 0 0 -1
vn 0 0 -1
vn 0 0 -1
vn 0 0 -1
vn 0 0 -1
vn 0 0 -1
vn 0 0 -1
vn 0 0 -1
vn 0 0 -1
vn 0 0 -1
vn 0 0 -1
vn 0 0 -1
vn 0 0 -1
vn 0 0 -1
vn 0 0 -1
vn 0 0 -1
vn 0 0 -1
vn 0 0 -1
vn 0 0 -1
vn 0 0 -1
vn 0 0 -1
vn 0 0 -1
vn 0 0 -1
vn 0 0 -1
vn 0 0 -1
vn 0 0 -1
vn 0 0 -1
vn 0 0 -1
vn 0 0 -1
vn 0 0 -1
vn 0 0 -1
vn 0 0 -1
vn 0 0 -1
vn 0 0 -1
vn 0 0 -1
vn 0 0 -1
vn 0 0 -1
vn 0 0 -1
vn 0 0 -1
vn 0 0 -1
vn 0 0 -1
vn 0 0 -1
vn 0 0 -1
vn 0 0 -1
vn 0 0 -1
vn 0 0 -1
vn 0 0 -1
vn 0 0 -1
vn 0 0 -1
vn 0 0 -1
vn 0 0 -1
vn 0 0 -1
vn 0 0 -1
vn 0 0 -1
vn 0 0 -1
vn 0 0 -1
vn 0 0 -1
vn 0 0 -1
vn 0 0 -1
vn 0 0 -1
vn 0 0 -1
vn 0 0 -1
vn 0 0 -1
vn 0 0 -1
vn 0 0 -1
vn 0 0 -1
vn 0 0 -1
vn 0 0 -1
vn 0 0 -1
vn 0 0 -1
vn 0 0 -1
vn 0 0 -1
vn 0 0 -1
vn 0 0 -1
vn 0 0 -1
vn 0 0 -1
vn 0 0 -1
vn 0 0 -1
vn 0 0 -1
vn 0 0 -1
vn 0 0 -1
vn 0 0 -1
vn 0 0 -1
vn 0 0 -1
vn 0 0 -1
vn 0 0 -1
vn 0 0 -1
vn 0 0 -1
vn 0 0 -1
vn 0 0 -1
vn 0 0 -1
vn 0 0 -1
vn 0 0 -1
vn 0 0 -1
vn 0 0 -1
vn 0 0 -1
vn 0 0 -1
vn 0 0 -1
vn 0 0 -1
vn 0 0 -1
vn 0 0 -1
vn 0 0 -1
vn 0 0 -1
vn 0 0 -1
vn 0 0 -1
vn 0 0 -1
vn 0 0 -1
vn 0 0 -1
vn 0 0 -1
vn 0 0 -1
vn 0 0 -1
vn 0 0 -1
vn 0 0 -1
vn 0 0 -1
vn 0 0 -1
vn 0 0 -1
vn 0 0 -1
vn 0 0 -1
g LegoBottom_Green_0
f 3/3/3 2/2/2 1/1/1
f 6/6/6 5/5/5 4/4/4
f 7/7/7 6/6/6 4/4/4
f 10/10/10 9/9/9 8/8/8
f 11/11/11 10/10/10 8/8/8
f 14/14/14 13/13/13 12/12/12
f 15/15/15 14/14/14 12/12/12
f 18/18/18 17/17/17 16/16/16
f 19/19/19 18/18/18 16/16/16
f 22/22/22 21/21/21 20/20/20
f 23/23/23 22/22/22 20/20/20
f 26/26/26 25/25/25 24/24/24
f 27/27/27 26/26/26 24/24/24
f 30/30/30 29/29/29 28/28/28
f 31/31/31 30/30/30 28/28/28
f 34/34/34 33/33/33 32/32/32
f 35/35/35 34/34/34 32/32/32
f 38/38/38 37/37/37 36/36/36
f 39/39/39 38/38/38 36/36/36
f 42/42/42 41/41/41 40/40/40
f 43/43/43 42/42/42 40/40/40
f 46/46/46 45/45/45 44/44/44
f 47/47/47 46/46/46 44/44/44
f 50/50/50 49/49/49 48/48/48
f 51/51/51 50/50/50 48/48/48
f 54/54/54 53/53/53 52/52/52
f 55/55/55 54/54/54 52/52/52
f 58/58/58 57/57/57 56/56/56
f 59/59/59 58/58/58 56/56/56
f 62/62/62 61/61/61 60/60/60
f 63/63/63 62/62/62 60/60/60
f 66/66/66 65/65/65 64/64/64
f 67/67/67 66/66/66 64/64/64
f 70/70/70 69/69/69 68/68/68
f 71/71/71 70/70/70 68/68/68
f 74/74/74 73/73/73 72/72/72
f 75/75/75 74/74/74 72/72/72
f 78/78/78 77/77/77 76/76/76
f 79/79/79 78/78/78 76/76/76
f 82/82/82 81/81/81 80/80/80
f 83/83/83 82/82/82 80/80/80
f 86/86/86 85/85/85 84/84/84
f 87/87/87 86/86/86 84/84/84
f 90/90/90 89/89/89 88/88/88
f 91/91/91 90/90/90 88/88/88
f 94/94/94 93/93/93 92/92/92
f 95/95/95 94/94/94 92/92/92
f 98/98/98 97/97/97 96/96/96
f 99/99/99 98/98/98 96/96/96
f 102/102/102 101/101/101 100/100/100
f 103/103/103 102/102/102 100/100/100
f 106/106/106 105/105/105 104/104/104
f 107/107/107 106/106/106 104/104/104
f 110/110/110 109/109/109 108/108/108
f 111/111/111 110/110/110 108/108/108
f 114/114/114 113/113/113 112/112/112
f 115/115/115 114/114/114 112/112/112
f 118/118/118 117/117/117 116/116/116
f 119/119/119 118/118/118 116/116/116
f 122/122/122 121/121/121 120/120/120
f 123/123/123 122/122/122 120/120/120
f 126/126/126 125/125/125 124/124/124
f 127/127/127 126/126/126 124/124/124
f 130/130/130 129/129/129 128/128/128
f 131/131/131 130/130/130 128/128/128
f 134/134/134 133/133/133 132/132/132
f 135/135/135 134/134/134 132/132/132
f 138/138/138 137/137/137 136/136/136
f 139/139/139 138/138/138 136/136/136
f 142/142/142 141/141/141 140/140/140
f 143/143/143 142/142/142 140/140/140
f 146/146/146 145/145/145 144/144/144
f 147/147/147 146/146/146 144/144/144
f 150/150/150 149/149/149 148/148/148
f 151/151/151 150/150/150 148/148/148
f 154/154/154 153/153/153 152/152/152
f 155/155/155 154/154/154 152/152/152
f 158/158/158 157/157/157 156/156/156
f 159/159/159 158/158/158 156/156/156
f 162/162/162 161/161/161 160/160/160
f 163/163/163 162/162/162 160/160/160
f 166/166/166 165/165/165 164/164/164
f 167/167/167 166/166/166 164/164/164
f 170/170/170 169/169/169 168/168/168
f 171/171/171 170/170/170 168/168/168
f 174/174/174 173/173/173 172/172/172
f 175/175/175 174/174/174 172/172/172
f 178/178/178 177/177/177 176/176/176
f 179/179/179 178/178/178 176/176/176
f 182/182/182 181/181/181 180/180/180
f 183/183/183 182/182/182 180/180/180
f 186/186/186 185/185/185 184/184/184
f 187/187/187 186/186/186 184/184/184
f 190/190/190 189/189/189 188/188/188
f 191/191/191 190/190/190 188/188/188
f 194/194/194 193/193/193 192/192/192
f 195/195/195 194/194/194 192/192/192
f 198/198/198 197/197/197 196/196/196
f 199/199/199 198/198/198 196/196/196
f 202/202/202 201/201/201 200/200/200
f 203/203/203 202/202/202 200/200/200
f 206/206/206 205/205/205 204/204/204
f 207/207/207 206/206/206 204/204/204
f 210/210/210 209/209/209 208/208/208
f 211/211/211 210/210/210 208/208/208
f 214/214/214 213/213/213 212/212/212
f 215/215/215 214/214/214 212/212/212
f 218/218/218 217/217/217 216/216/216
f 219/219/219 218/218/218 216/216/216
f 222/222/222 221/221/221 220/220/220
f 223/223/223 222/222/222 220/220/220
f 226/226/226 225/225/225 224/224/224
f 227/227/227 226/226/226 224/224/224
f 230/230/230 229/229/229 228/228/228
f 231/231/231 230/230/230 228/228/228
f 234/234/234 233/233/233 232/232/232
f 235/235/235 234/234/234 232/232/232
f 238/238/238 237/237/237 236/236/236
f 239/239/239 238/238/238 236/236/236
f 242/242/242 241/241/241 240/240/240
f 243/243/243 242/242/242 240/240/240
f 246/246/246 245/245/245 244/244/244
f 247/247/247 246/246/246 244/244/244
f 250/250/250 249/249/249 248/248/248
f 251/251/251 250/250/250 248/248/248
