g LegoWall_White
v 5.000177 5.500183 -0.0003223419
v 5.000177 6.500008 -0.0003223419
v 5.000177 6.500008 1.000238
v 5.000177 5.500183 1.000238
v 6.999826 5.500183 1.000238
v 6.999826 5.500183 2.000063
v 6.999826 6.500008 2.000063
v 6.999826 6.500008 1.000238
v 18.99992 15.99981 2.499975
v 18.99992 15.99981 1.500151
v 18.99992 14.99998 1.500151
v 18.99992 14.99998 2.499975
v 10.00003 -1.500057 -0.0003223419
v 10.00003 -1.500057 1.000238
v 10.00003 -0.5002346 1.000238
v 10.00003 -0.5002346 -0.0003223419
v -1.500151 0.5003262 -0.03050804
v -1.500151 1.500151 -0.03050804
v -1.500151 1.500151 0.9693165
v -1.500151 0.5003262 0.9693165
v 7.99965 -0.5002346 -0.0003223419
v 7.99965 -0.5002346 1.000238
v 7.99965 -1.500057 1.000238
v 7.99965 -1.500057 -0.0003223419
v -7.49983 0.5003262 -0.0003223419
v -7.49983 0.5003262 1.000238
v -7.49983 1.500151 1.000238
v -7.49983 1.500151 -0.0003223419
v -0.5003262 0.5003262 -0.0003223419
v -0.5003262 -0.5002346 -0.0003223419
v -0.5003262 -0.5002346 1.000238
v -0.5003262 0.5003262 1.000238
v -0.5003262 -0.5002346 -0.03050804
v -0.5003262 -1.500057 -0.03050804
v -0.5003262 -1.500057 0.9693165
v -0.5003262 -0.5002346 0.9693165
v 1.500057 0.5003262 1.000238
v 1.500057 -0.5002346 1.000238
v 1.500057 -0.5002346 2.000063
v 1.500057 0.5003262 2.000063
v -1.500151 -0.5002346 -0.0003223419
v -1.500151 0.5003262 -0.0003223419
v -1.500151 0.5003262 1.000238
v -1.500151 -0.5002346 1.000238
v -1.500151 -1.500057 -0.03050804
v -1.500151 -0.5002346 -0.03050804
v -1.500151 -0.5002346 0.9693165
v -1.500151 -1.500057 0.9693165
v 1.500057 1.500151 -0.03050804
v 1.500057 0.5003262 -0.03050804
v 1.500057 0.5003262 0.9693165
v 1.500057 1.500151 0.9693165
v -0.5003262 1.500151 -0.03050804
v -0.5003262 0.5003262 -0.03050804
v -0.5003262 0.5003262 0.9693165
v -0.5003262 1.500151 0.9693165
v 0.5002346 0.5003262 -0.03050804
v 0.5002346 1.500151 -0.03050804
v 0.5002346 1.500151 0.9693165
v 0.5002346 0.5003262 0.9693165
v 18.99992 16.99963 2.499975
v 18.99992 16.99963 1.500151
v 18.99992 15.99981 1.500151
v 18.99992 15.99981 2.499975
v 18.0001 15.99981 2.499975
v 18.0001 15.99981 1.500151
v 18.0001 16.99963 1.500151
v 18.0001 16.99963 2.499975
v 18.0001 14.99998 2.499975
v 18.0001 14.99998 1.500151
v 18.0001 15.99981 1.500151
v 18.0001 15.99981 2.499975
v 19.70009 -21.87497 11.25027
v 20.69992 -21.87497 11.25027
v 20.69992 -21.87497 12.2501
v 19.70009 -21.87497 12.2501
v -18.79976 26.37501 11.25027
v -19.80032 26.37501 11.25027
v -19.80032 26.37501 12.2501
v -18.79976 26.37501 12.2501
v -15.80029 26.37501 11.25027
v -16.80011 26.37501 11.25027
v -16.80011 26.37501 12.2501
v -15.80029 26.37501 12.2501
v 16.69989 -21.87497 11.25027
v 17.69971 -21.87497 11.25027
v 17.69971 -21.87497 12.2501
v 16.69989 -21.87497 12.2501
vt 1 0.50002
vt 0.50002 0.50002
vt 0.50002 1
vt 1 1
vt 1 0.50002
vt 1 1
vt 0.50002 1
vt 0.50002 0.50002
vt 0.50002 1
vt 0.50002 0.50002
vt 1 0.50002
vt 1 1
vt 1 0.50002
vt 1 1
vt 0.50002 1
vt 0.50002 0.50002
vt 1 0.50002
vt 0.50002 0.50002
vt 0.50002 1
vt 1 1
vt 1 0.50002
vt 1 1
vt 0.50002 1
vt 0.50002 0.50002
vt 1 0.50002
vt 1 1
vt 0.50002 1
vt 0.50002 0.50002
vt 1 0.50002
vt 0.50002 0.50002
vt 0.50002 1
vt 1 1
vt 1 0.50002
vt 0.50002 0.50002
vt 0.50002 1
vt 1 1
vt 1 0.50002
vt 0.50002 0.50002
vt 0.50002 1
vt 1 1
vt 1 0.50002
vt 0.50002 0.50002
vt 0.50002 1
vt 1 1
vt 1 0.50002
vt 0.50002 0.50002
vt 0.50002 1
vt 1 1
vt 1 0.50002
vt 0.50002 0.50002
vt 0.50002 1
vt 1 1
vt 1 0.50002
vt 0.50002 0.50002
vt 0.50002 1
vt 1 1
vt 1 0.50002
vt 0.50002 0.50002
vt 0.50002 1
vt 1 1
vt 0.50002 1
vt 0.50002 0.50002
vt 1 0.50002
vt 1 1
vt 0.50002 1
vt 0.50002 0.50002
vt 1 0.50002
vt 1 1
vt 0.50002 1
vt 0.50002 0.50002
vt 1 0.50002
vt 1 1
vt 1 0.50002
vt 0.50002 0.50002
vt 0.50002 1
vt 1 1
vt 1 0.50002
vt 0.50002 0.50002
vt 0.50002 1
vt 1 1
vt 1 0.50002
vt 0.50002 0.50002
vt 0.50002 1
vt 1 1
vt 1 0.50002
vt 0.50002 0.50002
vt 0.50002 1
vt 1 1
vn -0.9999923 0.003921509 -0.0003449296
vn -0.9999923 0.003921509 -0.0003449296
vn -0.9999923 0.003921509 -0.0003449296
vn -0.9999923 0.003921509 -0.0003449296
vn 0.9999924 0.003921509 0
vn 0.9999924 0.003921509 0
vn 0.9999924 0.003921509 0
vn 0.9999924 0.003921509 0
vn 0.9999924 0.003921509 0
vn 0.9999924 0.003921509 0
vn 0.9999924 0.003921509 0
vn 0.9999924 0.003921509 0
vn 0.9999924 -0.003921568 0
vn 0.9999924 -0.003921568 0
vn 0.9999924 -0.003921568 0
vn 0.9999924 -0.003921568 0
vn -0.9999923 0.003921509 -0.0003449296
vn -0.9999923 0.003921509 -0.0003449296
vn -0.9999923 0.003921509 -0.0003449296
vn -0.9999923 0.003921509 -0.0003449296
vn -0.9999923 0.003921509 -0.0003449296
vn -0.9999923 0.003921509 -0.0003449296
vn -0.9999923 0.003921509 -0.0003449296
vn -0.9999923 0.003921509 -0.0003449296
vn 0.9999924 0.003921509 0
vn 0.9999924 0.003921509 0
vn 0.9999924 0.003921509 0
vn 0.9999924 0.003921509 0
vn 0.9999924 0.003921509 0
vn 0.9999924 0.003921509 0
vn 0.9999924 0.003921509 0
vn 0.9999924 0.003921509 0
vn 0.9999924 0.003921509 0
vn 0.9999924 0.003921509 0
vn 0.9999924 0.003921509 0
vn 0.9999924 0.003921509 0
vn 0.9999924 0.003921509 0
vn 0.9999924 0.003921509 0
vn 0.9999924 0.003921509 0
vn 0.9999924 0.003921509 0
vn -0.9999923 0.003921509 -0.0003449296
vn -0.9999923 0.003921509 -0.0003449296
vn -0.9999923 0.003921509 -0.0003449296
vn -0.9999923 0.003921509 -0.0003449296
vn -0.9999923 0.003921509 -0.0003449296
vn -0.9999923 0.003921509 -0.0003449296
vn -0.9999923 0.003921509 -0.0003449296
vn -0.9999923 0.003921509 -0.0003449296
vn 0.9999924 0.003921509 0
vn 0.9999924 0.003921509 0
vn 0.9999924 0.003921509 0
vn 0.9999924 0.003921509 0
vn 0.9999924 0.003921509 0
vn 0.9999924 0.003921509 0
vn 0.9999924 0.003921509 0
vn 0.9999924 0.003921509 0
vn -0.9999923 0.003921509 -0.0003449296
vn -0.9999923 0.003921509 -0.0003449296
vn -0.9999923 0.003921509 -0.0003449296
vn -0.9999923 0.003921509 -0.0003449296
vn 0.9999924 0.003921509 0
vn 0.9999924 0.003921509 0
vn 0.9999924 0.003921509 0
vn 0.9999924 0.003921509 0
vn -0.9999923 0.003921509 -0.0003449296
vn -0.9999923 0.003921509 -0.0003449296
vn -0.9999923 0.003921509 -0.0003449296
vn -0.9999923 0.003921509 -0.0003449296
vn -0.9999923 0.003921509 -0.0003449296
vn -0.9999923 0.003921509 -0.0003449296
vn -0.9999923 0.003921509 -0.0003449296
vn -0.9999923 0.003921509 -0.0003449296
vn -0.003921509 0.9999923 -0.000345267
vn -0.003921509 0.9999923 -0.000345267
vn -0.003921509 0.9999923 -0.000345267
vn -0.003921509 0.9999923 -0.000345267
vn -0.003921509 -0.9999924 0
vn -0.003921509 -0.9999924 0
vn -0.003921509 -0.9999924 0
vn -0.003921509 -0.9999924 0
vn -0.003921509 -0.9999924 0
vn -0.003921509 -0.9999924 0
vn -0.003921509 -0.9999924 0
vn -0.003921509 -0.9999924 0
vn -0.003921509 0.9999923 -0.000345267
vn -0.003921509 0.9999923 -0.000345267
vn -0.003921509 0.9999923 -0.000345267
vn -0.003921509 0.9999923 -0.000345267
g LegoWall_White_0
f 3/3/3 2/2/2 1/1/1
f 4/4/4 3/3/3 1/1/1
f 7/7/7 6/6/6 5/5/5
f 8/8/8 7/7/7 5/5/5
f 11/11/11 10/10/10 9/9/9
f 12/12/12 11/11/11 9/9/9
f 15/15/15 14/14/14 13/13/13
f 16/16/16 15/15/15 13/13/13
f 19/19/19 18/18/18 17/17/17
f 20/20/20 19/19/19 17/17/17
f 23/23/23 22/22/22 21/21/21
f 24/24/24 23/23/23 21/21/21
f 27/27/27 26/26/26 25/25/25
f 28/28/28 27/27/27 25/25/25
f 31/31/31 30/30/30 29/29/29
f 32/32/32 31/31/31 29/29/29
f 35/35/35 34/34/34 33/33/33
f 36/36/36 35/35/35 33/33/33
f 39/39/39 38/38/38 37/37/37
f 40/40/40 39/39/39 37/37/37
f 43/43/43 42/42/42 41/41/41
f 44/44/44 43/43/43 41/41/41
f 47/47/47 46/46/46 45/45/45
f 48/48/48 47/47/47 45/45/45
f 51/51/51 50/50/50 49/49/49
f 52/52/52 51/51/51 49/49/49
f 55/55/55 54/54/54 53/53/53
f 56/56/56 55/55/55 53/53/53
f 59/59/59 58/58/58 57/57/57
f 60/60/60 59/59/59 57/57/57
f 63/63/63 62/62/62 61/61/61
f 64/64/64 63/63/63 61/61/61
f 67/67/67 66/66/66 65/65/65
f 68/68/68 67/67/67 65/65/65
f 71/71/71 70/70/70 69/69/69
f 72/72/72 71/71/71 69/69/69
f 75/75/75 74/74/74 73/73/73
f 76/76/76 75/75/75 73/73/73
f 79/79/79 78/78/78 77/77/77
f 80/80/80 79/79/79 77/77/77
f 83/83/83 82/82/82 81/81/81
f 84/84/84 83/83/83 81/81/81
f 87/87/87 86/86/86 85/85/85
f 88/88/88 87/87/87 85/85/85
