g LegoDarkBlue
v 5.000128 9.000111 2.749821
v 5.000128 11.00008 2.749821
v 5.000128 11.00008 6.750195
v 5.000128 9.000111 6.750195
v -7.000137 9.000111 2.749821
v -13.00006 9.000111 2.749821
v -13.00006 9.000111 6.750195
v -7.000137 9.000111 6.750195
v -5.000164 9.000111 2.749821
v -7.000137 9.000111 2.749821
v -7.000137 9.000111 6.750195
v -5.000164 9.000111 6.750195
v -5.000164 9.000111 6.750195
v -7.000137 9.000111 6.750195
v -7.000137 9.000111 8.750166
v -5.000164 9.000111 8.750166
v -5.000164 11.00008 2.749821
v -5.000164 9.000111 2.749821
v -5.000164 9.000111 6.750195
v -5.000164 11.00008 6.750195
v 5.000128 9.000111 2.749821
v 5.000128 9.000111 6.750195
v 13.00002 9.000111 6.750195
v 13.00002 9.000111 2.749821
v -5.000164 15.00003 6.750195
v -5.000164 11.00008 6.750195
v -5.000164 11.00008 8.750166
v -5.000164 15.00003 8.750166
v -5.000164 11.00008 6.750195
v -5.000164 9.000111 6.750195
v -5.000164 9.000111 8.750166
v -5.000164 11.00008 8.750166
v 5.000128 11.00008 2.749821
v -5.000164 11.00008 2.749821
v -5.000164 11.00008 6.750195
v 5.000128 11.00008 6.750195
vt -0.0004863739 -0.0004863739
vt 0.9996357 -0.0004863739
vt 0.9996357 1.999758
vt -0.0004863739 1.999758
vt -1.999754 -0.0004863739
vt 0.9996357 -0.0004863739
vt 0.9996357 1.999758
vt -1.999754 1.999758
vt -0.0004863739 -0.0004863739
vt 0.9996357 -0.0004863739
vt 0.9996357 1.999758
vt -0.0004863739 1.999758
vt -0.0004863739 -0.0004863739
vt 0.9996357 -0.0004863739
vt 0.9996357 0.9996357
vt -0.0004863739 0.9996357
vt -0.0004863739 -0.0004863739
vt 0.9996357 -0.0004863739
vt 0.9996357 1.999758
vt -0.0004863739 1.999758
vt -0.0004863739 -0.0004863739
vt -0.0004863739 1.999758
vt 4.000002 1.999758
vt 4.000002 -0.0004863739
vt -0.0004863739 -0.0004863739
vt 1.999758 -0.0004863739
vt 1.999758 0.9996357
vt -0.0004863739 0.9996357
vt -0.0004863739 -0.0004863739
vt 0.9996357 -0.0004863739
vt 0.9996357 0.9996357
vt -0.0004863739 0.9996357
vt -3.999998 -0.0004863739
vt 0.9996357 -0.0004863739
vt 0.9996357 1.999758
vt -3.999998 1.999758
vn -0.9999923 0.003921509 -0.0003449296
vn -0.9999923 0.003921509 -0.0003449296
vn -0.9999923 0.003921509 -0.0003449296
vn -0.9999923 0.003921509 -0.0003449296
vn -0.003921509 -0.9999924 0
vn -0.003921509 -0.9999924 0
vn -0.003921509 -0.9999924 0
vn -0.003921509 -0.9999924 0
vn -0.003921509 -0.9999924 0
vn -0.003921509 -0.9999924 0
vn -0.003921509 -0.9999924 0
vn -0.003921509 -0.9999924 0
vn -0.003921509 -0.9999924 0
vn -0.003921509 -0.9999924 0
vn -0.003921509 -0.9999924 0
vn -0.003921509 -0.9999924 0
vn 0.9999924 0.003921509 0
vn 0.9999924 0.003921509 0
vn 0.9999924 0.003921509 0
vn 0.9999924 0.003921509 0
vn -0.003921509 -0.9999924 0
vn -0.003921509 -0.9999924 0
vn -0.003921509 -0.9999924 0
vn -0.003921509 -0.9999924 0
vn 0.9999924 0.003921509 0
vn 0.9999924 0.003921509 0
vn 0.9999924 0.003921509 0
vn 0.9999924 0.003921509 0
vn 0.9999924 0.003921509 0
vn 0.9999924 0.003921509 0
vn 0.9999924 0.003921509 0
vn 0.9999924 0.003921509 0
vn -0.003921509 -0.9999924 0
vn -0.003921509 -0.9999924 0
vn -0.003921509 -0.9999924 0
vn -0.003921509 -0.9999924 0
g LegoDarkBlue_0
f 3/3/3 2/2/2 1/1/1
f 4/4/4 3/3/3 1/1/1
f 7/7/7 6/6/6 5/5/5
f 8/8/8 7/7/7 5/5/5
f 11/11/11 10/10/10 9/9/9
f 12/12/12 11/11/11 9/9/9
f 15/15/15 14/14/14 13/13/13
f 16/16/16 15/15/15 13/13/13
f 19/19/19 18/18/18 17/17/17
f 20/20/20 19/19/19 17/17/17
f 23/23/23 22/22/22 21/21/21
f 24/24/24 23/23/23 21/21/21
f 27/27/27 26/26/26 25/25/25
f 28/28/28 27/27/27 25/25/25
f 31/31/31 30/30/30 29/29/29
f 32/32/32 31/31/31 29/29/29
f 35/35/35 34/34/34 33/33/33
f 36/36/36 35/35/35 33/33/33
