g Deco_Plate_3
v -0.1648445 0.1648446 0.01542827
v -0.1961979 0.113275 0.02718401
v -0.2018925 0.1165628 0.01542826
v -0.1601948 0.1601949 0.02718401
v -0.1165626 0.2018925 0.01542827
v -0.1132748 0.1961979 0.02718402
v -0.06033722 0.2251819 0.01542827
v -0.2188303 0.05863548 0.02718402
v -0.2251819 0.06033738 0.01542826
v -0.08321426 0.108447 0.01096883
v -0.05863541 0.2188303 0.02718402
v 0 0.2331254 0.01542827
v -0.2265498 9.015542E-08 0.02718401
v -0.2331254 9.306513E-08 0.01542826
v -0.1262891 0.05231074 0.01096883
v -0.0178421 0.135525 0.01096883
v 0 0.2265498 0.02718402
v 0.06033737 0.2251819 0.01542827
v -0.2188303 -0.05863531 0.027184
v -0.2251819 -0.06033719 0.01542826
v 0.05863541 0.2188303 0.02718402
v 0.1165626 0.2018925 0.01542827
v -0.1355249 -0.01784214 0.01096882
v -0.196198 -0.1132748 0.02718401
v -0.2018925 -0.1165626 0.01542826
v 0.05231064 0.1262892 0.01096883
v 0.1132748 0.1961979 0.02718402
v 0.1648445 0.1648446 0.01542827
v -0.160195 -0.1601948 0.02718401
v -0.1648447 -0.1648445 0.01542825
v 0.1601948 0.1601949 0.02718401
v 0.2018925 0.1165627 0.01542826
v -0.108447 -0.08321425 0.01096882
v -0.113275 -0.1961979 0.02728895
v -0.1165628 -0.2018925 0.01549564
v 0.108447 0.0832143 0.01096883
v 0.1961978 0.1132749 0.02718402
v 0.2251819 0.0603373 0.01542826
v -0.05863556 -0.2188303 0.0274715
v -0.06033737 -0.2251818 0.01559909
v 0.2188303 0.05863541 0.02718401
v 0.2331254 3.045518E-09 0.01542826
v -0.05231079 -0.1262892 0.0117005
v -1.525879E-07 -0.2265498 0.02752385
v -1.525879E-07 -0.2331254 0.01561766
v 0.1355249 0.01784221 0.01096883
v 0.2265498 1.971548E-09 0.02718401
v 0.1262891 -0.05231079 0.01096882
v 0.2251819 -0.06033746 0.01542826
v 0.2188303 -0.05863556 0.02718401
v 0.2018924 -0.1165628 0.01542826
v 0.1961978 -0.113275 0.02718401
v 0.1648445 -0.1648447 0.01542825
v 0.05863525 -0.2188303 0.0274715
v 0.06033722 -0.2251819 0.01559909
v 0.07817947 0.01029253 0.01089108
v 0.1601948 -0.160195 0.027184
v 0.1165626 -0.2018926 0.01549564
v 0.1132748 -0.196198 0.02728895
v 0.0178421 -0.135525 0.01215012
v 0.08321426 -0.108447 0.01120345
v 0.06255905 0.04800332 0.01089108
v 0.03017609 0.07285164 0.01089108
v 0.02607849 0.03398601 -0.0117471
v -0.01029251 0.07817944 0.01089108
v -0.005788879 0.04397018 -0.0117471
v -0.02607849 -0.03398598 -0.01174711
v -0.0339859 0.02607839 -0.01174711
v -0.04800323 0.06255913 0.01089108
v -0.07285156 0.03017617 0.01089108
v -0.04397018 -0.005788764 -0.01174711
v -0.07817947 -0.01029248 0.01089108
v -0.06255905 -0.04800327 0.01089108
v -0.03017609 -0.07285161 0.01089108
v 0.01029251 -0.07817943 0.01105874
v 0.005788879 -0.04397017 -0.01163073
v 0.0339859 -0.0260784 -0.01174711
v 0.04800323 -0.06255913 0.01089108
v 0.07285156 -0.03017622 0.01089108
v 0.04397018 0.005788791 -0.01174711
v 0.06033722 -0.2251819 0.01559909
v 0.1165626 -0.2018926 0.01549564
v 0.1132748 -0.196198 0.003124838
v 0.05863525 -0.2188303 0.003356966
v -1.525879E-07 -0.2331254 0.01561766
v -1.525879E-07 -0.2265498 0.003421484
v -0.06033737 -0.2251818 0.01559909
v 0.1601948 -0.160195 0.003004433
v 0.1648445 -0.1648447 0.01542825
v 0.05793289 -0.1398626 -0.008813781
v -0.05863556 -0.2188303 0.003356966
v -0.1165628 -0.2018925 0.01549564
v 0.1961978 -0.113275 0.003004437
v 0.2018924 -0.1165628 0.01542826
v 0.1201027 -0.09215813 -0.009728687
v 0.1500909 -0.01975992 -0.00972868
v 0.2188303 -0.05863556 0.003004439
v 0.2251819 -0.06033746 0.01542826
v 0.2265498 4.183697E-09 0.003004443
v 0.2331254 3.045518E-09 0.01542826
v 0.2188303 0.05863541 0.003004443
v 0.2251819 0.0603373 0.01542826
v 0.1961978 0.1132749 0.003004447
v 0.2018925 0.1165627 0.01542826
v 0.1398627 0.05793298 -0.00972868
v 0.1601948 0.1601949 0.003004448
v 0.1648445 0.1648446 0.01542827
v 0.09215805 0.1201027 -0.009728679
v 0.1132748 0.1961979 0.00300445
v 0.1165626 0.2018925 0.01542827
v 0.05863541 0.2188303 0.00300445
v 0.06033737 0.2251819 0.01542827
v 0.01975983 0.150091 -0.009728677
v 0 0.2265498 0.00300445
v 0 0.2331254 0.01542827
v -0.05863541 0.2188303 0.003004451
v -0.06033722 0.2251819 0.01542827
v -0.05793289 0.1398626 -0.009728676
v -0.1132748 0.1961979 0.003004449
v -0.1165626 0.2018925 0.01542827
v 0.06354294 0.08281076 -0.02752385
v -0.1601948 0.1601949 0.003004448
v -0.1648445 0.1648446 0.01542827
v 0.01362442 0.1034877 -0.02752385
v 0.09643524 0.03994476 -0.02752385
v -0.01362442 -0.1034877 -0.02607534
v -0.08281067 0.06354296 -0.02752385
v -0.1201027 0.09215809 -0.009728679
v -0.1961979 0.113275 0.003004445
v -0.2018925 0.1165628 0.01542826
v -0.03994476 0.09643518 -0.02752385
v 0.1034877 -0.01362446 -0.02752385
v 0.08281067 -0.06354298 -0.02752386
v 0.03994476 -0.09643519 -0.02665639
v -0.2188303 0.05863548 0.003004444
v -0.2251819 0.06033738 0.01542826
v -0.150091 0.01975992 -0.00972868
v -0.2265498 9.239857E-08 0.003004443
v -0.2331254 9.306513E-08 0.01542826
v -0.2188303 -0.05863531 0.003004438
v -0.2251819 -0.06033719 0.01542826
v -0.1398626 -0.05793291 -0.009728684
v -0.196198 -0.1132748 0.003004437
v -0.2018925 -0.1165626 0.01542826
v -0.1034877 0.01362446 -0.02752385
v -0.09643524 -0.03994471 -0.02752386
v -0.160195 -0.1601948 0.003004435
v -0.1648447 -0.1648445 0.01542825
v -0.0921582 -0.1201027 -0.00949776
v -0.113275 -0.1961979 0.003124838
v -0.01975983 -0.150091 -0.008175347
v -0.06354294 -0.08281072 -0.02728075
vt 0.4299316 0.4458008
vt 0.4274902 0.4575195
vt 0.4301758 0.4577637
vt 0.4274902 0.4460449
vt 0.427002 0.434082
vt 0.4245605 0.4350586
vt 0.4208984 0.423584
vt 0.4245605 0.4685059
vt 0.427002 0.4694824
vt 0.409668 0.4450684
vt 0.4189453 0.425293
vt 0.4123535 0.4150391
vt 0.4189453 0.4782715
vt 0.4208984 0.4799805
vt 0.409668 0.4584961
vt 0.402832 0.4331055
vt 0.4108887 0.4172363
vt 0.4018555 0.4091797
vt 0.4108887 0.4863281
vt 0.4125977 0.4885254
vt 0.4008789 0.411377
vt 0.3901367 0.4060059
vt 0.4030762 0.470459
vt 0.401123 0.4921875
vt 0.4020996 0.4943848
vt 0.3911133 0.4265137
vt 0.3898926 0.4086914
vt 0.3781738 0.4060059
vt 0.3901367 0.4951172
vt 0.3903809 0.4975586
vt 0.378418 0.4086914
vt 0.3664551 0.4091797
vt 0.3911133 0.4772949
vt 0.3786621 0.4951172
vt 0.378418 0.4975586
vt 0.3774414 0.4265137
vt 0.3674316 0.4116211
vt 0.3562012 0.4152832
vt 0.3676758 0.4921875
vt 0.3666992 0.4946289
vt 0.357666 0.4172363
vt 0.3476563 0.4238281
vt 0.3774414 0.4772949
vt 0.3579102 0.4865723
vt 0.3562012 0.4885254
vt 0.3657227 0.4333496
vt 0.3496094 0.425293
vt 0.3588867 0.4450684
vt 0.3415527 0.4343262
vt 0.3439941 0.4353027
vt 0.338623 0.4460449
vt 0.3410645 0.4462891
vt 0.338623 0.4580078
vt 0.3498535 0.4785156
vt 0.3476563 0.4799805
vt 0.373291 0.440918
vt 0.3410645 0.4577637
vt 0.3417969 0.4697266
vt 0.3439941 0.46875
vt 0.3657227 0.470459
vt 0.3588867 0.4587402
vt 0.380127 0.4370117
vt 0.3881836 0.4367676
vt 0.3842773 0.4440918
vt 0.3952637 0.440918
vt 0.3898926 0.4460449
vt 0.3842773 0.4597168
vt 0.3920898 0.4519043
vt 0.3991699 0.4477539
vt 0.3991699 0.4558105
vt 0.3901367 0.4575195
vt 0.3952637 0.4628906
vt 0.3884277 0.4667969
vt 0.3803711 0.4667969
vt 0.373291 0.4628906
vt 0.3786621 0.4575195
vt 0.3764648 0.4519043
vt 0.3693848 0.4558105
vt 0.3693848 0.447998
vt 0.3786621 0.4460449
vt 0.3303223 0.3752441
vt 0.333252 0.3635254
vt 0.3308105 0.3632813
vt 0.3278809 0.3742676
vt 0.3242188 0.3857422
vt 0.3220215 0.3840332
vt 0.3156738 0.3942871
vt 0.3308105 0.3518066
vt 0.333252 0.3515625
vt 0.3156738 0.3652344
vt 0.3139648 0.3920898
vt 0.3051758 0.4001465
vt 0.3276367 0.3408203
vt 0.3300781 0.3398438
vt 0.3156738 0.3500977
vt 0.3081055 0.3369141
vt 0.3220215 0.3310547
vt 0.3242188 0.3293457
vt 0.3139648 0.322998
vt 0.3156738 0.3210449
vt 0.3041992 0.3173828
vt 0.3051758 0.3149414
vt 0.2932129 0.3144531
vt 0.293457 0.3117676
vt 0.2949219 0.3295898
vt 0.2817383 0.3144531
vt 0.2814941 0.3117676
vt 0.2800293 0.3295898
vt 0.270752 0.3173828
vt 0.2697754 0.3149414
vt 0.2609863 0.322998
vt 0.2592773 0.3210449
vt 0.2668457 0.3369141
vt 0.2529297 0.3310547
vt 0.2507324 0.3295898
vt 0.2473145 0.3410645
vt 0.244873 0.3398438
vt 0.2592773 0.3500977
vt 0.2443848 0.3520508
vt 0.2416992 0.3515625
vt 0.2824707 0.338623
vt 0.2443848 0.3632813
vt 0.2416992 0.3637695
vt 0.2736816 0.34375
vt 0.2927246 0.338623
vt 0.3015137 0.371582
vt 0.2685547 0.362793
vt 0.2595215 0.3652344
vt 0.2473145 0.3742676
vt 0.244873 0.3752441
vt 0.2685547 0.3525391
vt 0.3015137 0.34375
vt 0.3066406 0.3525391
vt 0.3066406 0.362793
vt 0.2529297 0.3842773
vt 0.2509766 0.3857422
vt 0.2668457 0.3781738
vt 0.2609863 0.3920898
vt 0.2595215 0.3942871
vt 0.2709961 0.3979492
vt 0.2697754 0.4003906
vt 0.2800293 0.3857422
vt 0.2819824 0.4008789
vt 0.2814941 0.4033203
vt 0.2736816 0.371582
vt 0.2824707 0.376709
vt 0.2932129 0.4008789
vt 0.2937012 0.4033203
vt 0.295166 0.3857422
vt 0.3041992 0.3979492
vt 0.3081055 0.3781738
vt 0.2927246 0.376709
vn -0.6171875 0.6171875 0.4882813
vn -0.4042969 0.2318115 0.8847656
vn -0.7558594 0.4362793 0.4882813
vn -0.3286133 0.3305664 0.8847656
vn -0.4362793 0.7558594 0.4882813
vn -0.2342529 0.402832 0.8847656
vn -0.2258301 0.8427734 0.4882813
vn -0.449707 0.1220093 0.8847656
vn -0.8427734 0.2258301 0.4882813
vn 0.06060791 -0.07897949 0.9951172
vn -0.1192627 0.4504395 0.8847656
vn 0 0.8725586 0.4882813
vn -0.4660645 -0.00142765 0.8847656
vn -0.8725586 0 0.4882813
vn 0.09197998 -0.03811646 0.9951172
vn 0.01300049 -0.09875488 0.9951172
vn -0.00142765 0.4660645 0.8847656
vn 0.2258301 0.8427734 0.4882813
vn -0.4504395 -0.1192627 0.8847656
vn -0.8427734 -0.2258301 0.4882813
vn 0.1220093 0.449707 0.8847656
vn 0.4362793 0.7558594 0.4882813
vn 0.09875488 0.01300049 0.9951172
vn -0.402832 -0.2342529 0.8847656
vn -0.7558594 -0.4362793 0.4882813
vn -0.03811646 -0.09197998 0.9951172
vn 0.2318115 0.4042969 0.8847656
vn 0.6171875 0.6171875 0.4882813
vn -0.3312988 -0.328125 0.8847656
vn -0.6176758 -0.6171875 0.487793
vn 0.3305664 0.3286133 0.8847656
vn 0.7558594 0.4362793 0.4882813
vn 0.07568359 0.06268311 0.9951172
vn -0.2354736 -0.4047852 0.8837891
vn -0.4375 -0.7558594 0.4865723
vn -0.07897949 -0.06060791 0.9951172
vn 0.402832 0.2342529 0.8847656
vn 0.8427734 0.2258301 0.4882813
vn -0.1243286 -0.453125 0.8828125
vn -0.2270508 -0.8447266 0.484375
vn 0.4504395 0.1192627 0.8847656
vn 0.8725586 0 0.4882813
vn 0.03253174 0.09552002 0.9951172
vn 0.0004367828 -0.4711914 0.8818359
vn 0.0001211166 -0.8754883 0.4833984
vn -0.09875488 -0.01300049 0.9951172
vn 0.4660645 0.00142765 0.8847656
vn -0.09155273 0.03887939 0.9951172
vn 0.8427734 -0.2258301 0.4882813
vn 0.449707 -0.1220093 0.8847656
vn 0.7558594 -0.4362793 0.4882813
vn 0.4047852 -0.2318115 0.8847656
vn 0.6171875 -0.6166992 0.4882813
vn 0.1223145 -0.4553223 0.8818359
vn 0.2270508 -0.8447266 0.4848633
vn -0.2302246 -0.03720093 0.9726563
vn 0.3300781 -0.3303223 0.8842773
vn 0.4375 -0.7558594 0.4870605
vn 0.2382813 -0.4038086 0.8833008
vn -0.01128387 0.1031494 0.9946289
vn -0.05584717 0.08374023 0.9951172
vn -0.1829834 -0.1308594 0.9741211
vn -0.09039307 -0.2191162 0.9716797
vn -0.2039795 -0.2453613 0.9477539
vn 0.03720093 -0.2302246 0.9726563
vn 0.06555176 -0.3361816 0.9394531
vn 0.2032471 0.2460938 0.9477539
vn 0.2453613 -0.2039795 0.9477539
vn 0.1308594 -0.1829834 0.9741211
vn 0.2191162 -0.09033203 0.9716797
vn 0.3361816 0.06555176 0.9394531
vn 0.2302246 0.03717041 0.9726563
vn 0.1828613 0.133667 0.9741211
vn 0.09075928 0.2269287 0.9697266
vn -0.03631592 0.2392578 0.9702148
vn -0.06616211 0.3395996 0.9379883
vn -0.244751 0.204834 0.9477539
vn -0.1295166 0.1861572 0.9741211
vn -0.2191162 0.09033203 0.9716797
vn -0.3361816 -0.06555176 0.9394531
vn 0.2272949 -0.8515625 -0.4726563
vn 0.4406738 -0.7651367 -0.4692383
vn 0.3010254 -0.5244141 -0.7963867
vn 0.152832 -0.5830078 -0.7983398
vn -0.0001553297 -0.8803711 -0.4743652
vn 0.0002977848 -0.6005859 -0.7993164
vn -0.2272949 -0.8510742 -0.4731445
vn 0.4279785 -0.4311523 -0.7944336
vn 0.625 -0.625 -0.4677734
vn 0.08294678 -0.2220459 -0.9716797
vn -0.1550293 -0.5795898 -0.7998047
vn -0.4404297 -0.7651367 -0.4699707
vn 0.5268555 -0.3024902 -0.7939453
vn 0.765625 -0.4418945 -0.4677734
vn 0.1876221 -0.1494141 -0.9707031
vn 0.239624 -0.03155518 -0.9702148
vn 0.5864258 -0.1588135 -0.7939453
vn 0.8535156 -0.2287598 -0.4677734
vn 0.6079102 0.001591682 -0.7939453
vn 0.8837891 0 -0.4677734
vn 0.5874023 0.1557617 -0.7939453
vn 0.8535156 0.2287598 -0.4677734
vn 0.5253906 0.3051758 -0.7939453
vn 0.765625 0.4418945 -0.4677734
vn 0.2232666 0.09246826 -0.9702148
vn 0.4309082 0.4284668 -0.7939453
vn 0.625 0.625 -0.4677734
vn 0.1470947 0.1917725 -0.9702148
vn 0.3024902 0.5268555 -0.7939453
vn 0.4418945 0.765625 -0.4677734
vn 0.1588135 0.5864258 -0.7939453
vn 0.2287598 0.8535156 -0.4677734
vn 0.03155518 0.239624 -0.9702148
vn -0.001591682 0.6079102 -0.7939453
vn 0 0.8837891 -0.4677734
vn -0.1557617 0.5874023 -0.7939453
vn -0.2287598 0.8535156 -0.4677734
vn -0.09246826 0.2232666 -0.9702148
vn -0.3051758 0.5253906 -0.7939453
vn -0.4418945 0.765625 -0.4677734
vn 0.1270752 0.1655273 -0.9780273
vn -0.4284668 0.4309082 -0.7939453
vn -0.625 0.625 -0.4677734
vn 0.02722168 0.2067871 -0.9780273
vn 0.1912842 0.07830811 -0.9785156
vn -0.02297974 -0.2105713 -0.9775391
vn -0.1644287 0.1251221 -0.9785156
vn -0.1917725 0.1470947 -0.9702148
vn -0.5268555 0.3024902 -0.7939453
vn -0.765625 0.4418945 -0.4677734
vn -0.07983398 0.192749 -0.9780273
vn 0.2069092 -0.02723694 -0.9780273
vn 0.1569824 -0.1303711 -0.9790039
vn 0.07043457 -0.2023926 -0.9765625
vn -0.5864258 0.1588135 -0.7939453
vn -0.8535156 0.2287598 -0.4677734
vn -0.239624 0.03155518 -0.9702148
vn -0.6079102 -0.001591682 -0.7939453
vn -0.8837891 0 -0.4677734
vn -0.5874023 -0.1557617 -0.7939453
vn -0.8535156 -0.2287598 -0.4677734
vn -0.2225342 -0.09344482 -0.9702148
vn -0.5249023 -0.3054199 -0.7944336
vn -0.765625 -0.4418945 -0.4677734
vn -0.2069092 0.02723694 -0.9780273
vn -0.1855469 -0.08056641 -0.9794922
vn -0.4294434 -0.4284668 -0.7949219
vn -0.6245117 -0.625 -0.4682617
vn -0.1391602 -0.1953125 -0.9707031
vn -0.2976074 -0.5263672 -0.7963867
vn -0.02824402 -0.2358398 -0.9711914
vn -0.1083984 -0.1607666 -0.980957
g Deco_Plate_3_0
f 3/3/3 2/2/2 1/1/1
f 2/2/2 4/4/4 1/1/1
f 1/1/1 4/4/4 5/5/5
f 4/4/4 6/6/6 5/5/5
f 5/5/5 6/6/6 7/7/7
f 8/8/8 2/2/2 3/3/3
f 9/9/9 8/8/8 3/3/3
f 4/4/4 2/2/2 10/10/10
f 4/4/4 10/10/10 6/6/6
f 6/6/6 11/11/11 7/7/7
f 7/7/7 11/11/11 12/12/12
f 13/13/13 8/8/8 9/9/9
f 14/14/14 13/13/13 9/9/9
f 8/8/8 15/15/15 2/2/2
f 2/2/2 15/15/15 10/10/10
f 8/8/8 13/13/13 15/15/15
f 11/11/11 6/6/6 16/16/16
f 6/6/6 10/10/10 16/16/16
f 11/11/11 17/17/17 12/12/12
f 11/11/11 16/16/16 17/17/17
f 12/12/12 17/17/17 18/18/18
f 19/19/19 13/13/13 14/14/14
f 20/20/20 19/19/19 14/14/14
f 17/17/17 21/21/21 18/18/18
f 18/18/18 21/21/21 22/22/22
f 19/19/19 23/23/23 13/13/13
f 13/13/13 23/23/23 15/15/15
f 24/24/24 19/19/19 20/20/20
f 19/19/19 24/24/24 23/23/23
f 25/25/25 24/24/24 20/20/20
f 21/21/21 17/17/17 26/26/26
f 17/17/17 16/16/16 26/26/26
f 21/21/21 27/27/27 22/22/22
f 21/21/21 26/26/26 27/27/27
f 22/22/22 27/27/27 28/28/28
f 29/29/29 24/24/24 25/25/25
f 30/30/30 29/29/29 25/25/25
f 27/27/27 31/31/31 28/28/28
f 28/28/28 31/31/31 32/32/32
f 29/29/29 33/33/33 24/24/24
f 24/24/24 33/33/33 23/23/23
f 34/34/34 29/29/29 30/30/30
f 29/29/29 34/34/34 33/33/33
f 35/35/35 34/34/34 30/30/30
f 31/31/31 27/27/27 36/36/36
f 27/27/27 26/26/26 36/36/36
f 31/31/31 37/37/37 32/32/32
f 31/31/31 36/36/36 37/37/37
f 32/32/32 37/37/37 38/38/38
f 39/39/39 34/34/34 35/35/35
f 40/40/40 39/39/39 35/35/35
f 37/37/37 41/41/41 38/38/38
f 38/38/38 41/41/41 42/42/42
f 39/39/39 43/43/43 34/34/34
f 34/34/34 43/43/43 33/33/33
f 44/44/44 39/39/39 40/40/40
f 39/39/39 44/44/44 43/43/43
f 45/45/45 44/44/44 40/40/40
f 41/41/41 37/37/37 46/46/46
f 37/37/37 36/36/36 46/46/46
f 41/41/41 47/47/47 42/42/42
f 41/41/41 46/46/46 47/47/47
f 47/47/47 46/46/46 48/48/48
f 42/42/42 47/47/47 49/49/49
f 47/47/47 50/50/50 49/49/49
f 50/50/50 47/47/47 48/48/48
f 49/49/49 50/50/50 51/51/51
f 50/50/50 52/52/52 51/51/51
f 50/50/50 48/48/48 52/52/52
f 51/51/51 52/52/52 53/53/53
f 54/54/54 44/44/44 45/45/45
f 55/55/55 54/54/54 45/45/45
f 46/46/46 36/36/36 56/56/56
f 48/48/48 46/46/46 56/56/56
f 52/52/52 57/57/57 53/53/53
f 53/53/53 57/57/57 58/58/58
f 58/58/58 59/59/59 55/55/55
f 59/59/59 54/54/54 55/55/55
f 57/57/57 59/59/59 58/58/58
f 54/54/54 60/60/60 44/44/44
f 54/54/54 59/59/59 60/60/60
f 44/44/44 60/60/60 43/43/43
f 57/57/57 52/52/52 61/61/61
f 57/57/57 61/61/61 59/59/59
f 52/52/52 48/48/48 61/61/61
f 59/59/59 61/61/61 60/60/60
f 36/36/36 62/62/62 56/56/56
f 36/36/36 26/26/26 62/62/62
f 26/26/26 63/63/63 62/62/62
f 26/26/26 16/16/16 63/63/63
f 56/56/56 62/62/62 64/64/64
f 63/63/63 64/64/64 62/62/62
f 16/16/16 65/65/65 63/63/63
f 16/16/16 10/10/10 65/65/65
f 64/64/64 63/63/63 66/66/66
f 63/63/63 65/65/65 66/66/66
f 66/66/66 67/67/67 64/64/64
f 68/68/68 67/67/67 66/66/66
f 66/66/66 65/65/65 68/68/68
f 10/10/10 69/69/69 65/65/65
f 65/65/65 69/69/69 68/68/68
f 10/10/10 15/15/15 69/69/69
f 15/15/15 70/70/70 69/69/69
f 70/70/70 68/68/68 69/69/69
f 15/15/15 23/23/23 70/70/70
f 68/68/68 70/70/70 71/71/71
f 71/71/71 67/67/67 68/68/68
f 23/23/23 72/72/72 70/70/70
f 70/70/70 72/72/72 71/71/71
f 71/71/71 72/72/72 67/67/67
f 23/23/23 33/33/33 72/72/72
f 33/33/33 73/73/73 72/72/72
f 72/72/72 73/73/73 67/67/67
f 33/33/33 43/43/43 73/73/73
f 43/43/43 74/74/74 73/73/73
f 74/74/74 67/67/67 73/73/73
f 43/43/43 60/60/60 74/74/74
f 60/60/60 75/75/75 74/74/74
f 60/60/60 61/61/61 75/75/75
f 67/67/67 74/74/74 76/76/76
f 74/74/74 75/75/75 76/76/76
f 76/76/76 77/77/77 67/67/67
f 76/76/76 75/75/75 77/77/77
f 67/67/67 77/77/77 64/64/64
f 61/61/61 78/78/78 75/75/75
f 75/75/75 78/78/78 77/77/77
f 61/61/61 48/48/48 78/78/78
f 48/48/48 79/79/79 78/78/78
f 79/79/79 77/77/77 78/78/78
f 79/79/79 48/48/48 56/56/56
f 64/64/64 77/77/77 80/80/80
f 80/80/80 56/56/56 64/64/64
f 79/79/79 56/56/56 80/80/80
f 77/77/77 79/79/79 80/80/80
f 83/83/83 82/82/82 81/81/81
f 84/84/84 83/83/83 81/81/81
f 84/84/84 81/81/81 85/85/85
f 86/86/86 84/84/84 85/85/85
f 86/86/86 85/85/85 87/87/87
f 83/83/83 88/88/88 82/82/82
f 88/88/88 89/89/89 82/82/82
f 84/84/84 90/90/90 83/83/83
f 84/84/84 86/86/86 90/90/90
f 91/91/91 86/86/86 87/87/87
f 91/91/91 87/87/87 92/92/92
f 88/88/88 93/93/93 89/89/89
f 93/93/93 94/94/94 89/89/89
f 88/88/88 83/83/83 95/95/95
f 83/83/83 90/90/90 95/95/95
f 88/88/88 95/95/95 93/93/93
f 93/93/93 95/95/95 96/96/96
f 93/93/93 97/97/97 94/94/94
f 97/97/97 93/93/93 96/96/96
f 97/97/97 98/98/98 94/94/94
f 97/97/97 99/99/99 98/98/98
f 97/97/97 96/96/96 99/99/99
f 99/99/99 100/100/100 98/98/98
f 99/99/99 101/101/101 100/100/100
f 101/101/101 99/99/99 96/96/96
f 101/101/101 102/102/102 100/100/100
f 101/101/101 103/103/103 102/102/102
f 103/103/103 104/104/104 102/102/102
f 105/105/105 101/101/101 96/96/96
f 101/101/101 105/105/105 103/103/103
f 103/103/103 106/106/106 104/104/104
f 106/106/106 107/107/107 104/104/104
f 106/106/106 103/103/103 108/108/108
f 103/103/103 105/105/105 108/108/108
f 106/106/106 109/109/109 107/107/107
f 106/106/106 108/108/108 109/109/109
f 109/109/109 110/110/110 107/107/107
f 109/109/109 111/111/111 110/110/110
f 111/111/111 112/112/112 110/110/110
f 109/109/109 108/108/108 113/113/113
f 111/111/111 109/109/109 113/113/113
f 111/111/111 114/114/114 112/112/112
f 111/111/111 113/113/113 114/114/114
f 114/114/114 115/115/115 112/112/112
f 114/114/114 116/116/116 115/115/115
f 116/116/116 117/117/117 115/115/115
f 116/116/116 114/114/114 118/118/118
f 114/114/114 113/113/113 118/118/118
f 116/116/116 119/119/119 117/117/117
f 116/116/116 118/118/118 119/119/119
f 119/119/119 120/120/120 117/117/117
f 113/113/113 108/108/108 121/121/121
f 108/108/108 105/105/105 121/121/121
f 119/119/119 122/122/122 120/120/120
f 122/122/122 123/123/123 120/120/120
f 124/124/124 113/113/113 121/121/121
f 118/118/118 113/113/113 124/124/124
f 105/105/105 125/125/125 121/121/121
f 121/121/121 125/125/125 124/124/124
f 124/124/124 125/125/125 126/126/126
f 127/127/127 124/124/124 126/126/126
f 119/119/119 118/118/118 128/128/128
f 122/122/122 119/119/119 128/128/128
f 122/122/122 129/129/129 123/123/123
f 122/122/122 128/128/128 129/129/129
f 129/129/129 130/130/130 123/123/123
f 131/131/131 118/118/118 124/124/124
f 131/131/131 124/124/124 127/127/127
f 128/128/128 118/118/118 131/131/131
f 127/127/127 128/128/128 131/131/131
f 125/125/125 105/105/105 132/132/132
f 105/105/105 96/96/96 132/132/132
f 133/133/133 125/125/125 132/132/132
f 132/132/132 96/96/96 133/133/133
f 126/126/126 125/125/125 133/133/133
f 96/96/96 95/95/95 133/133/133
f 133/133/133 95/95/95 134/134/134
f 134/134/134 126/126/126 133/133/133
f 95/95/95 90/90/90 134/134/134
f 134/134/134 90/90/90 126/126/126
f 129/129/129 135/135/135 130/130/130
f 135/135/135 136/136/136 130/130/130
f 129/129/129 128/128/128 137/137/137
f 135/135/135 129/129/129 137/137/137
f 137/137/137 128/128/128 127/127/127
f 135/135/135 138/138/138 136/136/136
f 135/135/135 137/137/137 138/138/138
f 138/138/138 139/139/139 136/136/136
f 138/138/138 140/140/140 139/139/139
f 140/140/140 141/141/141 139/139/139
f 138/138/138 137/137/137 142/142/142
f 140/140/140 138/138/138 142/142/142
f 140/140/140 143/143/143 141/141/141
f 140/140/140 142/142/142 143/143/143
f 143/143/143 144/144/144 141/141/141
f 145/145/145 137/137/137 127/127/127
f 142/142/142 137/137/137 145/145/145
f 145/145/145 127/127/127 146/146/146
f 146/146/146 142/142/142 145/145/145
f 146/146/146 127/127/127 126/126/126
f 143/143/143 147/147/147 144/144/144
f 147/147/147 148/148/148 144/144/144
f 143/143/143 142/142/142 149/149/149
f 149/149/149 142/142/142 146/146/146
f 147/147/147 143/143/143 149/149/149
f 147/147/147 150/150/150 148/148/148
f 147/147/147 149/149/149 150/150/150
f 150/150/150 92/92/92 148/148/148
f 150/150/150 91/91/91 92/92/92
f 91/91/91 150/150/150 151/151/151
f 150/150/150 149/149/149 151/151/151
f 91/91/91 151/151/151 86/86/86
f 86/86/86 151/151/151 90/90/90
f 90/90/90 151/151/151 126/126/126
f 152/152/152 149/149/149 146/146/146
f 152/152/152 146/146/146 126/126/126
f 151/151/151 149/149/149 152/152/152
f 126/126/126 151/151/151 152/152/152
