g Lamp_long
v -0.6200002 -0.05600002 0.05117295
v -0.6200002 -0.05600001 5.586843E-09
v -0.6200002 0.05600002 1.404261E-08
v -0.6200002 0.05600002 0.05117296
v -0.6134586 -0.05600002 0.07558649
v -0.6134586 0.05600002 0.0755865
v -0.5955867 -0.05600002 0.09345844
v -0.5955867 0.05600002 0.09345845
v -0.5711731 -0.05600002 0.1
v -0.5955867 -0.05600002 0.09345844
v -0.5955867 0.05600002 0.09345845
v -0.5711731 0.05600001 0.1
v 0.5711732 -0.05600002 0.1
v 0.5711732 0.05600001 0.1
v 0.5955867 -0.05600002 0.09345844
v 0.5955867 0.05600002 0.09345845
v 0.5955867 0.05600002 0.09345845
v 0.6134587 -0.05600002 0.07558649
v 0.5955867 -0.05600002 0.09345844
v 0.6134587 0.05600002 0.0755865
v 0.6200002 -0.05600002 0.05117295
v 0.6200002 0.05600002 0.05117296
v 0.6200002 -0.05600001 5.586843E-09
v 0.6200002 0.05600002 1.404261E-08
v 0.6200002 0.05600002 0.05117296
v -0.6200002 0.05600002 1.404261E-08
v 0.6200002 0.05600002 1.404261E-08
v -0.6200002 0.05600002 0.05117296
v 0.6134587 0.05600002 0.0755865
v -0.6134586 0.05600002 0.0755865
v 0.5955867 0.05600002 0.09345845
v -0.5955867 0.05600002 0.09345845
v 0.5711732 0.05600001 0.1
v -0.5711731 0.05600001 0.1
v -0.5900002 -0.05600001 0.04722337
v -0.5900002 -0.02502993 7.92502E-09
v -0.5900002 -0.05600001 5.586843E-09
v -0.5898333 -0.0231626 0.0472014
v -0.5865613 -0.05600002 0.06005737
v -0.5861017 -0.02228271 0.05979201
v -0.5800575 -0.05600002 0.06656118
v -0.5797921 -0.02228271 0.06610156
v -0.5672235 -0.05600002 0.07000003
v -0.5797921 -0.02228271 0.06610156
v -0.5800575 -0.05600002 0.06656118
v -0.5672016 -0.02316263 0.06983317
v 0.5672236 -0.05600002 0.07000003
v 0.5672016 -0.02316263 0.06983317
v 0.5800576 -0.05600002 0.06656118
v 0.5797923 -0.02228271 0.06610156
v 0.5797923 -0.02228271 0.06610156
v 0.5800576 -0.05600002 0.06656118
v 0.5865614 -0.05600002 0.06005734
v 0.5861018 -0.02228271 0.05979198
v 0.5900003 -0.05600001 0.0472234
v 0.5898334 -0.02316262 0.04720144
v 0.5900003 -0.05600001 5.586843E-09
v 0.5900003 -0.02502993 7.92502E-09
v -0.5898333 -0.0231626 0.0472014
v 0.5900003 -0.02502993 7.92502E-09
v -0.5900002 -0.02502993 7.92502E-09
v 0.5898334 -0.02316262 0.04720144
v -0.5861017 -0.02228271 0.05979201
v 0.5861018 -0.02228271 0.05979198
v -0.5797921 -0.02228271 0.06610156
v 0.5797923 -0.02228271 0.06610156
v -0.5672016 -0.02316263 0.06983317
v 0.5672016 -0.02316263 0.06983317
v -0.6200002 -0.05600002 0.05117295
v -0.5900002 -0.05600001 5.586843E-09
v -0.6200002 -0.05600001 5.586843E-09
v -0.5900002 -0.05600001 0.04722337
v -0.6134586 -0.05600002 0.07558649
v -0.5865613 -0.05600002 0.06005737
v -0.5955867 -0.05600002 0.09345844
v -0.5800575 -0.05600002 0.06656118
v -0.5711731 -0.05600002 0.1
v -0.5672235 -0.05600002 0.07000003
v 0.5711732 -0.05600002 0.1
v 0.5672236 -0.05600002 0.07000003
v 0.5955867 -0.05600002 0.09345844
v 0.5800576 -0.05600002 0.06656118
v 0.6134587 -0.05600002 0.07558649
v 0.5865614 -0.05600002 0.06005734
v 0.6200002 -0.05600002 0.05117295
v 0.5900003 -0.05600001 0.0472234
v 0.6200002 -0.05600001 5.586843E-09
v 0.5900003 -0.05600001 5.586843E-09
v -0.6035411 -0.03431369 0.005409084
v 0.6035414 -0.05544935 0.01761177
v 0.6035414 -0.03431369 0.005409084
v -0.6035411 -0.05544936 0.01761177
v -0.6035411 -0.05544936 0.01761177
v 0.6035414 -0.05544935 0.04201715
v 0.6035414 -0.05544935 0.01761177
v -0.6035411 -0.05544936 0.04201715
v -0.6035411 -0.05544936 0.04201715
v 0.6035414 -0.03431369 0.05421984
v 0.6035414 -0.05544935 0.04201715
v -0.6035411 -0.03431369 0.05421984
v -0.6035411 -0.03431369 0.05421984
v 0.6035413 -0.01317801 0.04201715
v 0.6035414 -0.03431369 0.05421984
v -0.6035411 -0.01317801 0.04201715
v -0.6035411 -0.01317801 0.04201715
v 0.6035413 -0.01317801 0.01761178
v 0.6035413 -0.01317801 0.04201715
v -0.6035411 -0.01317801 0.01761178
v -0.6035411 -0.01317801 0.01761178
v 0.6035414 -0.03431369 0.005409084
v 0.6035413 -0.01317801 0.01761178
v -0.6035411 -0.03431369 0.005409084
v 0.5587255 0.04511888 0.06205404
v 0.5587255 0.04511888 0.0402919
v 0.5587255 0.8708244 0.04029197
v 0.5587255 0.8708244 0.0620541
v 0.5804876 0.04511888 0.06205404
v 0.5587255 0.04511888 0.06205404
v 0.5587255 0.8708244 0.0620541
v 0.5804876 0.8708244 0.0620541
v 0.5804876 0.04511888 0.0402919
v 0.5804876 0.04511888 0.06205404
v 0.5804876 0.8708244 0.0620541
v 0.5804876 0.8708244 0.04029197
v 0.5587255 0.04511888 0.0402919
v 0.5804876 0.04511888 0.0402919
v 0.5804876 0.8708244 0.04029197
v 0.5587255 0.8708244 0.04029197
v -0.5587252 0.04511888 0.0402919
v -0.5804874 0.8708244 0.04029197
v -0.5804874 0.04511888 0.0402919
v -0.5587252 0.8708244 0.04029197
v -0.5587252 0.04511888 0.06205404
v -0.5587252 0.8708244 0.04029197
v -0.5587252 0.04511888 0.0402919
v -0.5587252 0.8708244 0.0620541
v -0.5804874 0.04511888 0.06205404
v -0.5587252 0.8708244 0.0620541
v -0.5587252 0.04511888 0.06205404
v -0.5804874 0.8708244 0.0620541
v -0.5804874 0.04511888 0.0402919
v -0.5804874 0.8708244 0.0620541
v -0.5804874 0.04511888 0.06205404
v -0.5804874 0.8708244 0.04029197
vt 0.6972656 0.9663086
vt 0.7128906 0.9663086
vt 0.7128906 0.9321289
vt 0.6972656 0.9321289
vt 0.6899414 0.9663086
vt 0.6899414 0.9321289
vt 0.6821289 0.9663086
vt 0.6821289 0.9321289
vt 0.6743164 0.9663086
vt 0.6821289 0.9663086
vt 0.6821289 0.9321289
vt 0.6743164 0.9321289
vt 0.3251953 0.9663086
vt 0.3251953 0.9321289
vt 0.317627 0.9663086
vt 0.317627 0.9321289
vt 0.317627 0.9321289
vt 0.3098145 0.9663086
vt 0.317627 0.9663086
vt 0.3098145 0.9321289
vt 0.3022461 0.9663086
vt 0.3022461 0.9321289
vt 0.2866211 0.9663086
vt 0.2866211 0.9321289
vt 0.3103027 0.9169922
vt 0.6889648 0.9013672
vt 0.3103027 0.9013672
vt 0.6889648 0.9169922
vt 0.3125 0.9243164
vt 0.6870117 0.9243164
vt 0.3178711 0.9301758
vt 0.6816406 0.9301758
vt 0.3251953 0.9321289
vt 0.6743164 0.9321289
vt 0.2983398 0.9697266
vt 0.3093262 0.9775391
vt 0.3095703 0.9702148
vt 0.2980957 0.9775391
vt 0.295166 0.9697266
vt 0.295166 0.9780273
vt 0.2929688 0.9697266
vt 0.2929688 0.9780273
vt 0.2897949 0.9697266
vt 0.2929688 0.9780273
vt 0.2929688 0.9697266
vt 0.2897949 0.9775391
vt 0.02207947 0.9697266
vt 0.02207947 0.9775391
vt 0.01893616 0.9697266
vt 0.01898193 0.9780273
vt 0.01898193 0.9780273
vt 0.01893616 0.9697266
vt 0.01676941 0.9697266
vt 0.01687622 0.9780273
vt 0.0136261 0.9697266
vt 0.01377106 0.9775391
vt 0.002483368 0.9702148
vt 0.002620697 0.9775391
vt 0.295166 0.9829102
vt 0.01669312 0.9941406
vt 0.295166 0.9941406
vt 0.01673889 0.9829102
vt 0.2944336 0.9799805
vt 0.01760864 0.9799805
vt 0.2927246 0.9785156
vt 0.019104 0.9785156
vt 0.2897949 0.9775391
vt 0.02207947 0.9775391
vt 0.6889648 0.980957
vt 0.6801758 0.996582
vt 0.6889648 0.996582
vt 0.6801758 0.9824219
vt 0.6870117 0.9736328
vt 0.6791992 0.9785156
vt 0.6816406 0.9682617
vt 0.6767578 0.9765625
vt 0.6743164 0.9663086
vt 0.6728516 0.9755859
vt 0.3251953 0.9663086
vt 0.326416 0.9755859
vt 0.3178711 0.9682617
vt 0.3225098 0.9765625
vt 0.3125 0.9736328
vt 0.3205566 0.9785156
vt 0.3103027 0.980957
vt 0.3195801 0.9824219
vt 0.3103027 0.996582
vt 0.3195801 0.996582
vt 0.0475769 0.9379883
vt 0.2661133 0.9423828
vt 0.2661133 0.9379883
vt 0.0475769 0.9423828
vt 0.0475769 0.9423828
vt 0.2661133 0.9467773
vt 0.2661133 0.9423828
vt 0.0475769 0.9467773
vt 0.0475769 0.9467773
vt 0.2661133 0.9511719
vt 0.2661133 0.9467773
vt 0.0475769 0.9511719
vt 0.0475769 0.9511719
vt 0.2661133 0.9555664
vt 0.2661133 0.9511719
vt 0.0475769 0.9555664
vt 0.0475769 0.9555664
vt 0.2661133 0.9599609
vt 0.2661133 0.9555664
vt 0.0475769 0.9599609
vt 0.0475769 0.9599609
vt 0.2661133 0.9643555
vt 0.2661133 0.9599609
vt 0.0475769 0.9643555
vt 0.9262695 0.6567383
vt 0.9262695 0.6518555
vt 0.7373047 0.6518555
vt 0.7373047 0.6567383
vt 0.9262695 0.6616211
vt 0.9262695 0.6567383
vt 0.7373047 0.6567383
vt 0.7373047 0.6616211
vt 0.9262695 0.6669922
vt 0.9262695 0.6616211
vt 0.7373047 0.6616211
vt 0.7373047 0.6669922
vt 0.9262695 0.671875
vt 0.9262695 0.6669922
vt 0.7373047 0.6669922
vt 0.7373047 0.671875
vt 0.9262695 0.6401367
vt 0.7373047 0.6450195
vt 0.9262695 0.6450195
vt 0.7373047 0.6401367
vt 0.9262695 0.6352539
vt 0.7373047 0.6401367
vt 0.9262695 0.6401367
vt 0.7373047 0.6352539
vt 0.9262695 0.6303711
vt 0.7373047 0.6352539
vt 0.9262695 0.6352539
vt 0.7373047 0.6303711
vt 0.9262695 0.625
vt 0.7373047 0.6303711
vt 0.9262695 0.6303711
vt 0.7373047 0.625
vn -0.9912109 0 0.1304932
vn -1 0 0
vn -1 0 0
vn -0.9912109 0 0.1304932
vn -0.8662109 0 0.5
vn -0.8662109 0 0.5
vn -0.5 0 0.8662109
vn -0.5 0 0.8662109
vn -0.1304932 0 0.9912109
vn -0.5 0 0.8662109
vn -0.5 0 0.8662109
vn -0.1304932 0 0.9912109
vn 0.1304932 0 0.9912109
vn 0.1304932 0 0.9912109
vn 0.5 0 0.8662109
vn 0.5 0 0.8662109
vn 0.5 0 0.8662109
vn 0.8662109 0 0.5
vn 0.5 0 0.8662109
vn 0.8662109 0 0.5
vn 0.9912109 0 0.1304932
vn 0.9912109 0 0.1304932
vn 1 0 0
vn 1 0 0
vn 0 1 0
vn 0 1 0
vn 0 1 0
vn 0 1 0
vn 0 1 0
vn 0 1 0
vn 0 1 0
vn 0 1 0
vn 0 1 0
vn 0 1 0
vn 0.9902344 -0.006484985 -0.1376953
vn 1 -0.002616882 -0.00171566
vn 1 -0.002616882 -0.00171566
vn 0.9897461 -0.006614685 -0.1422119
vn 0.862793 -0.01314545 -0.5053711
vn 0.8598633 -0.01319885 -0.5102539
vn 0.5053711 -0.01314545 -0.862793
vn 0.5102539 -0.01319885 -0.8598633
vn 0.1368408 -0.007728577 -0.9907227
vn 0.5102539 -0.01319885 -0.8598633
vn 0.5053711 -0.01314545 -0.862793
vn 0.1396484 -0.007781982 -0.9902344
vn -0.1368408 -0.007728577 -0.9907227
vn -0.1396484 -0.007781982 -0.9902344
vn -0.5053711 -0.01314545 -0.862793
vn -0.5102539 -0.01319885 -0.8598633
vn -0.5102539 -0.01319885 -0.8598633
vn -0.5053711 -0.01314545 -0.862793
vn -0.862793 -0.01314545 -0.5053711
vn -0.8598633 -0.01319885 -0.5102539
vn -0.9902344 -0.006484985 -0.1376953
vn -0.9897461 -0.006614685 -0.1422119
vn -1 -0.002616882 -0.00171566
vn -1 -0.002616882 -0.00171566
vn 0 -0.9985352 0.05310059
vn 0 -0.9990234 0.03952026
vn 0 -0.9990234 0.03952026
vn 0 -0.9985352 0.05310059
vn 0 -0.9990234 0.04904175
vn 0 -0.9990234 0.04904175
vn 0 -0.9995117 -0.02565002
vn 0 -0.9995117 -0.02565002
vn 0 -0.9731445 -0.2294922
vn 0 -0.9731445 -0.2294922
vn 0 -1 0
vn 0 -1 0
vn 0 -1 0
vn 0 -1 0
vn 0 -1 0
vn 0 -1 0
vn 0 -1 0
vn 0 -1 0
vn 0 -1 0
vn 0 -1 0
vn 0 -1 0
vn 0 -1 0
vn 0 -1 0
vn 0 -1 0
vn 0 -1 0
vn 0 -1 0
vn 0 -1 0
vn 0 -1 0
vn 0 -1 0
vn 0 -1 0
vn 0 0 -1
vn 0 -0.8662109 -0.5
vn 0 0 -1
vn 0 -0.8662109 -0.5
vn 0 -0.8662109 -0.5
vn 0 -0.8662109 0.5
vn 0 -0.8662109 -0.5
vn 0 -0.8662109 0.5
vn 0 -0.8662109 0.5
vn 0 0 1
vn 0 -0.8662109 0.5
vn 0 0 1
vn 0 0 1
vn 0 0.8662109 0.5
vn 0 0 1
vn 0 0.8662109 0.5
vn 0 0.8662109 0.5
vn 0 0.8662109 -0.5
vn 0 0.8662109 0.5
vn 0 0.8662109 -0.5
vn 0 0.8662109 -0.5
vn 0 0 -1
vn 0 0.8662109 -0.5
vn 0 0 -1
vn -0.7070313 0 0.7070313
vn -0.7070313 0 -0.7070313
vn -0.7070313 0 -0.7070313
vn -0.7070313 0 0.7070313
vn 0.7070313 0 0.7070313
vn -0.7070313 0 0.7070313
vn -0.7070313 0 0.7070313
vn 0.7070313 0 0.7070313
vn 0.7070313 0 -0.7070313
vn 0.7070313 0 0.7070313
vn 0.7070313 0 0.7070313
vn 0.7070313 0 -0.7070313
vn -0.7070313 0 -0.7070313
vn 0.7070313 0 -0.7070313
vn 0.7070313 0 -0.7070313
vn -0.7070313 0 -0.7070313
vn 0.7070313 0 -0.7070313
vn -0.7070313 0 -0.7070313
vn -0.7070313 0 -0.7070313
vn 0.7070313 0 -0.7070313
vn 0.7070313 0 0.7070313
vn 0.7070313 0 -0.7070313
vn 0.7070313 0 -0.7070313
vn 0.7070313 0 0.7070313
vn -0.7070313 0 0.7070313
vn 0.7070313 0 0.7070313
vn 0.7070313 0 0.7070313
vn -0.7070313 0 0.7070313
vn -0.7070313 0 -0.7070313
vn -0.7070313 0 0.7070313
vn -0.7070313 0 0.7070313
vn -0.7070313 0 -0.7070313
g Lamp_long_0
f 3/3/3 2/2/2 1/1/1
f 4/4/4 3/3/3 1/1/1
f 4/4/4 1/1/1 5/5/5
f 6/6/6 4/4/4 5/5/5
f 6/6/6 5/5/5 7/7/7
f 8/8/8 6/6/6 7/7/7
f 11/11/11 10/10/10 9/9/9
f 12/12/12 11/11/11 9/9/9
f 12/12/12 9/9/9 13/13/13
f 14/14/14 12/12/12 13/13/13
f 13/13/13 15/15/15 14/14/14
f 15/15/15 16/16/16 14/14/14
f 19/19/19 18/18/18 17/17/17
f 18/18/18 20/20/20 17/17/17
f 18/18/18 21/21/21 20/20/20
f 21/21/21 22/22/22 20/20/20
f 22/22/22 21/21/21 23/23/23
f 24/24/24 22/22/22 23/23/23
f 27/27/27 26/26/26 25/25/25
f 26/26/26 28/28/28 25/25/25
f 25/25/25 28/28/28 29/29/29
f 28/28/28 30/30/30 29/29/29
f 29/29/29 30/30/30 31/31/31
f 30/30/30 32/32/32 31/31/31
f 31/31/31 32/32/32 33/33/33
f 32/32/32 34/34/34 33/33/33
f 37/37/37 36/36/36 35/35/35
f 36/36/36 38/38/38 35/35/35
f 35/35/35 38/38/38 39/39/39
f 38/38/38 40/40/40 39/39/39
f 39/39/39 40/40/40 41/41/41
f 40/40/40 42/42/42 41/41/41
f 45/45/45 44/44/44 43/43/43
f 44/44/44 46/46/46 43/43/43
f 43/43/43 46/46/46 47/47/47
f 46/46/46 48/48/48 47/47/47
f 49/49/49 47/47/47 48/48/48
f 50/50/50 49/49/49 48/48/48
f 53/53/53 52/52/52 51/51/51
f 54/54/54 53/53/53 51/51/51
f 55/55/55 53/53/53 54/54/54
f 56/56/56 55/55/55 54/54/54
f 55/55/55 56/56/56 57/57/57
f 56/56/56 58/58/58 57/57/57
f 61/61/61 60/60/60 59/59/59
f 60/60/60 62/62/62 59/59/59
f 59/59/59 62/62/62 63/63/63
f 62/62/62 64/64/64 63/63/63
f 63/63/63 64/64/64 65/65/65
f 64/64/64 66/66/66 65/65/65
f 65/65/65 66/66/66 67/67/67
f 66/66/66 68/68/68 67/67/67
f 71/71/71 70/70/70 69/69/69
f 70/70/70 72/72/72 69/69/69
f 69/69/69 72/72/72 73/73/73
f 72/72/72 74/74/74 73/73/73
f 73/73/73 74/74/74 75/75/75
f 74/74/74 76/76/76 75/75/75
f 75/75/75 76/76/76 77/77/77
f 76/76/76 78/78/78 77/77/77
f 77/77/77 78/78/78 79/79/79
f 78/78/78 80/80/80 79/79/79
f 79/79/79 80/80/80 81/81/81
f 80/80/80 82/82/82 81/81/81
f 81/81/81 82/82/82 83/83/83
f 82/82/82 84/84/84 83/83/83
f 83/83/83 84/84/84 85/85/85
f 84/84/84 86/86/86 85/85/85
f 85/85/85 86/86/86 87/87/87
f 86/86/86 88/88/88 87/87/87
f 91/91/91 90/90/90 89/89/89
f 90/90/90 92/92/92 89/89/89
f 95/95/95 94/94/94 93/93/93
f 94/94/94 96/96/96 93/93/93
f 99/99/99 98/98/98 97/97/97
f 98/98/98 100/100/100 97/97/97
f 103/103/103 102/102/102 101/101/101
f 102/102/102 104/104/104 101/101/101
f 107/107/107 106/106/106 105/105/105
f 106/106/106 108/108/108 105/105/105
f 111/111/111 110/110/110 109/109/109
f 110/110/110 112/112/112 109/109/109
f 115/115/115 114/114/114 113/113/113
f 116/116/116 115/115/115 113/113/113
f 119/119/119 118/118/118 117/117/117
f 120/120/120 119/119/119 117/117/117
f 123/123/123 122/122/122 121/121/121
f 124/124/124 123/123/123 121/121/121
f 127/127/127 126/126/126 125/125/125
f 128/128/128 127/127/127 125/125/125
f 131/131/131 130/130/130 129/129/129
f 130/130/130 132/132/132 129/129/129
f 135/135/135 134/134/134 133/133/133
f 134/134/134 136/136/136 133/133/133
f 139/139/139 138/138/138 137/137/137
f 138/138/138 140/140/140 137/137/137
f 143/143/143 142/142/142 141/141/141
f 142/142/142 144/144/144 141/141/141
