g LightCone_narrow_low
v -0.1896035 -0.8271769 -0.4574724
v -0.6785737 -3.308707 -1.636827
v -0.0005338311 -3.308707 -1.77191
v -0.0001032281 -0.827177 -0.495207
v -0.02661336 -1.597404E-07 -0.0643543
v 4.030629E-05 -2.121925E-07 -0.06963944
v 0.1894126 -0.827177 -0.4575506
v 0.6775874 -3.308707 -1.637235
v 0.02668771 -2.264976E-07 -0.06432234
v 0.3500918 -0.827177 -0.3502361
v 1.252552 -3.308707 -1.253307
v 0.04927188 -2.264976E-07 -0.04921254
v 0.4574726 -0.8271769 -0.1896011
v 1.636827 -3.308707 -0.6785736
v 0.0643545 -1.859665E-07 -0.02661025
v 0.4952071 -0.8271769 -0.00010087
v 1.77191 -3.308707 -0.0005337408
v 0.06963965 -1.573563E-07 4.342026E-05
v 0.4575507 -0.8271769 0.189415
v 1.637235 -3.308707 0.6775874
v 0.06432255 -1.0252E-07 0.02669083
v 0.3502363 -0.8271769 0.3500942
v 1.253307 -3.308707 1.252552
v 0.04921274 -7.152557E-08 0.04927497
v 0.1896013 -0.8271769 0.457475
v 0.6785738 -3.308707 1.636827
v 0.02661049 -7.152557E-09 0.06435762
v 0.0001010703 -0.8271769 0.4952095
v 0.0005339598 -3.308707 1.77191
v -4.322628E-05 0 0.06964276
v -0.1894148 -0.8271769 0.4575531
v -0.6775874 -3.308707 1.637235
v -0.0266906 2.145767E-08 0.06432567
v -0.3500941 -0.8271769 0.3502387
v -1.252552 -3.308707 1.253307
v -0.04927479 1.430511E-08 0.04921586
v -0.4574748 -0.8271769 0.1896036
v -1.636827 -3.308707 0.6785737
v -0.06435742 0 0.02661359
v -0.4952093 -0.8271769 0.0001034033
v -1.77191 -3.308707 0.000533925
v -0.06964256 -2.384186E-08 -4.010389E-05
v -0.4575529 -0.8271769 -0.1894125
v -1.637235 -3.308707 -0.6775873
v -0.06432547 -7.629394E-08 -0.02668749
v -0.3502385 -0.8271769 -0.3500917
v -1.253307 -3.308707 -1.252552
v -0.04921566 -1.358986E-07 -0.04927168
v -0.1896035 -0.8271769 -0.4574724
v -0.6785737 -3.308707 -1.636827
v -0.02661336 -1.597404E-07 -0.0643543
vt 0.7407227 0.7490234
vt 0.9863281 0.001365662
vt 0.8930664 0.001365662
vt 0.7114258 0.7490234
vt 0.6669922 0.9980469
vt 0.6538086 0.9980469
vt 0.6811523 0.7490234
vt 0.8149414 0.001365662
vt 0.637207 0.9980469
vt 0.6503906 0.7490234
vt 0.7480469 0.001365662
vt 0.6176758 0.9980469
vt 0.6191406 0.7490234
vt 0.6894531 0.001365662
vt 0.5957031 0.9980469
vt 0.5878906 0.7490234
vt 0.6362305 0.001365662
vt 0.5722656 0.9980469
vt 0.5571289 0.7490234
vt 0.5874023 0.001365662
vt 0.5473633 0.9980469
vt 0.5258789 0.7490234
vt 0.5405273 0.001365662
vt 0.5214844 0.9980469
vt 0.4951172 0.7490234
vt 0.4951172 0.001365662
vt 0.4951172 0.9980469
vt 0.4641113 0.7490234
vt 0.449707 0.001365662
vt 0.46875 0.9980469
vt 0.4331055 0.7490234
vt 0.4030762 0.001365662
vt 0.4428711 0.9980469
vt 0.4020996 0.7490234
vt 0.3540039 0.001365662
vt 0.4179688 0.9980469
vt 0.3710938 0.7490234
vt 0.3010254 0.001365662
vt 0.3942871 0.9980469
vt 0.3398438 0.7490234
vt 0.2419434 0.001365662
vt 0.3725586 0.9980469
vt 0.309082 0.7490234
vt 0.1749268 0.001365662
vt 0.3530273 0.9980469
vt 0.2788086 0.7490234
vt 0.09674072 0.001365662
vt 0.3364258 0.9980469
vt 0.2496338 0.7490234
vt 0.003456116 0.001365662
vt 0.322998 0.9980469
vn -0.3405762 0.4575195 -0.8212891
vn -0.3405762 0.4575195 -0.8212891
vn -0.0002512932 0.4575195 -0.8891602
vn -0.0002332926 0.4575195 -0.8891602
vn -0.340332 0.4575195 -0.8212891
vn -5.00083E-05 0.4575195 -0.8891602
vn 0.3400879 0.4575195 -0.8217773
vn 0.3400879 0.4575195 -0.8217773
vn 0.340332 0.4575195 -0.8217773
vn 0.628418 0.4575195 -0.6289063
vn 0.628418 0.4575195 -0.6289063
vn 0.6289063 0.4575195 -0.6289063
vn 0.8212891 0.4575195 -0.3405762
vn 0.8212891 0.4575195 -0.3405762
vn 0.8212891 0.4575195 -0.340332
vn 0.8891602 0.4575195 -0.0002331734
vn 0.8891602 0.4575195 -0.0002512932
vn 0.8891602 0.4575195 -4.982948E-05
vn 0.8217773 0.4575195 0.3400879
vn 0.8217773 0.4575195 0.3400879
vn 0.8217773 0.4575195 0.340332
vn 0.6289063 0.4575195 0.628418
vn 0.6289063 0.4575195 0.628418
vn 0.6289063 0.4575195 0.6289063
vn 0.3405762 0.4575195 0.8212891
vn 0.3405762 0.4575195 0.8212891
vn 0.340332 0.4575195 0.8212891
vn 0.0002332926 0.4575195 0.8891602
vn 0.0002515316 0.4575195 0.8891602
vn 4.994869E-05 0.4575195 0.8891602
vn -0.3400879 0.4575195 0.8217773
vn -0.3400879 0.4575195 0.8217773
vn -0.340332 0.4575195 0.8217773
vn -0.628418 0.4575195 0.6289063
vn -0.628418 0.4575195 0.6289063
vn -0.6289063 0.4575195 0.6289063
vn -0.8212891 0.4575195 0.3405762
vn -0.8212891 0.4575195 0.3405762
vn -0.8212891 0.4575195 0.340332
vn -0.8891602 0.4575195 0.0002332926
vn -0.8891602 0.4575195 0.0002512932
vn -0.8891602 0.4575195 5.00679E-05
vn -0.8217773 0.4575195 -0.3400879
vn -0.8217773 0.4575195 -0.3400879
vn -0.8217773 0.4575195 -0.340332
vn -0.6289063 0.4575195 -0.628418
vn -0.6289063 0.4575195 -0.628418
vn -0.6289063 0.4575195 -0.6289063
vn -0.3405762 0.4575195 -0.8212891
vn -0.3405762 0.4575195 -0.8212891
vn -0.340332 0.4575195 -0.8212891
g LightCone_narrow_low_0
f 3/3/3 2/2/2 1/1/1
f 4/4/4 3/3/3 1/1/1
f 4/4/4 1/1/1 5/5/5
f 6/6/6 4/4/4 5/5/5
f 4/4/4 7/7/7 3/3/3
f 7/7/7 4/4/4 6/6/6
f 7/7/7 8/8/8 3/3/3
f 9/9/9 7/7/7 6/6/6
f 7/7/7 10/10/10 8/8/8
f 10/10/10 7/7/7 9/9/9
f 10/10/10 11/11/11 8/8/8
f 12/12/12 10/10/10 9/9/9
f 10/10/10 13/13/13 11/11/11
f 13/13/13 10/10/10 12/12/12
f 13/13/13 14/14/14 11/11/11
f 15/15/15 13/13/13 12/12/12
f 13/13/13 16/16/16 14/14/14
f 16/16/16 13/13/13 15/15/15
f 16/16/16 17/17/17 14/14/14
f 18/18/18 16/16/16 15/15/15
f 16/16/16 19/19/19 17/17/17
f 19/19/19 16/16/16 18/18/18
f 19/19/19 20/20/20 17/17/17
f 21/21/21 19/19/19 18/18/18
f 19/19/19 22/22/22 20/20/20
f 22/22/22 19/19/19 21/21/21
f 22/22/22 23/23/23 20/20/20
f 24/24/24 22/22/22 21/21/21
f 22/22/22 25/25/25 23/23/23
f 25/25/25 22/22/22 24/24/24
f 25/25/25 26/26/26 23/23/23
f 27/27/27 25/25/25 24/24/24
f 25/25/25 28/28/28 26/26/26
f 28/28/28 25/25/25 27/27/27
f 28/28/28 29/29/29 26/26/26
f 30/30/30 28/28/28 27/27/27
f 28/28/28 31/31/31 29/29/29
f 31/31/31 28/28/28 30/30/30
f 31/31/31 32/32/32 29/29/29
f 33/33/33 31/31/31 30/30/30
f 31/31/31 34/34/34 32/32/32
f 34/34/34 31/31/31 33/33/33
f 34/34/34 35/35/35 32/32/32
f 36/36/36 34/34/34 33/33/33
f 34/34/34 37/37/37 35/35/35
f 37/37/37 34/34/34 36/36/36
f 37/37/37 38/38/38 35/35/35
f 39/39/39 37/37/37 36/36/36
f 37/37/37 40/40/40 38/38/38
f 40/40/40 37/37/37 39/39/39
f 40/40/40 41/41/41 38/38/38
f 42/42/42 40/40/40 39/39/39
f 40/40/40 43/43/43 41/41/41
f 43/43/43 40/40/40 42/42/42
f 43/43/43 44/44/44 41/41/41
f 45/45/45 43/43/43 42/42/42
f 43/43/43 46/46/46 44/44/44
f 46/46/46 43/43/43 45/45/45
f 46/46/46 47/47/47 44/44/44
f 48/48/48 46/46/46 45/45/45
f 46/46/46 49/49/49 47/47/47
f 49/49/49 46/46/46 48/48/48
f 49/49/49 50/50/50 47/47/47
f 51/51/51 49/49/49 48/48/48
