g Mesh_Cash_01
v -0.37717 0.03585 0.532335
v -0.223455 -0.010235 0.867
v -0.375675 0.0173 0.87616
v -0.22367 -0.007565 0.51789
v -0.38227 0.09915 0.203395
v -0.07162 -0.033025 0.859415
v -0.229815 0.068705 0.193265
v -0.37458 0.003745 -0.17835
v -0.069765 -0.056045 0.50176
v 0.079195 -0.04313 0.856055
v -0.229155 0.060505 -0.15946
v -0.37148 -0.034775 -0.5411651
v 0.082995 -0.090335 0.49035
v 0.2285 -0.0345 0.858925
v -0.075165 0.010985 0.17406
v -0.224595 0.00392 -0.52829
v -0.37511 0.01032 -0.87616
v -0.22646 0.02703 -0.8706
v 0.233705 -0.09915 0.487415
v 0.37613 -0.005085 0.868715
v 0.38227 -0.08129 0.49336
v 0.077925 -0.027375 0.161295
v -0.08072501 0.079985 -0.15298
v -0.077215 0.036405 -0.51748
v -0.07807001 0.047055 -0.863935
v 0.229635 -0.0486 0.154235
v 0.37973 -0.04978 0.15384
v 0.07052501 0.064455 -0.15815
v 0.07113501 0.05688 -0.51067
v 0.07038 0.06625 -0.85755
v 0.2223 0.04246 -0.165465
v 0.373335 0.029585 -0.16975
v 0.220355 0.06657501 -0.507445
v 0.21906 0.08269 -0.85208
v 0.369975 0.071305 -0.50587
v 0.367935 0.096595 -0.847455
vt 0.002 0.2012
vt 0.0962 0.002
vt 0.002 0.002
vt 0.0962 0.2012
vt 0.002 0.4004
vt 0.1905 0.002
vt 0.0962 0.4004
vt 0.002 0.5996
vt 0.1905 0.2012
vt 0.2848 0.002
vt 0.0962 0.5996
vt 0.002 0.7988
vt 0.2848 0.2012
vt 0.379 0.002
vt 0.1905 0.4004
vt 0.0962 0.7988
vt 0.002 0.998
vt 0.0962 0.998
vt 0.379 0.2012
vt 0.4733 0.002
vt 0.4733 0.2012
vt 0.2848 0.4004
vt 0.1905 0.5996
vt 0.1905 0.7988
vt 0.1905 0.998
vt 0.379 0.4004
vt 0.4733 0.4004
vt 0.2848 0.5996
vt 0.2848 0.7988
vt 0.2848 0.998
vt 0.379 0.5996
vt 0.4733 0.5996
vt 0.379 0.7988
vt 0.379 0.998
vt 0.4733 0.7988
vt 0.4733 0.998
vn 0.2702954 0.9544839 0.1260979
vn 0.1832039 0.9829209 -0.01740037
vn 0.2057046 0.9784218 0.01940043
vn 0.2928872 0.9494587 0.1128951
vn 0.1352016 0.9892116 0.05640066
vn 0.1244982 0.9884859 -0.08599877
vn 0.2573104 0.9580388 0.1263051
vn -0.3234029 0.9288085 -0.1809016
vn 0.2569002 0.9636006 0.07400005
vn 0.01849928 0.9893618 -0.1442944
vn -0.2050023 0.9708108 -0.1245014
vn -0.234406 0.9721249 -0.005200133
vn 0.1361955 0.9900671 0.03489884
vn -0.1101951 0.9769565 -0.1827919
vn 0.2962979 0.9325936 0.2060986
vn -0.2336003 0.9715014 -0.04020005
vn -0.1156064 0.9842547 0.1337074
vn -0.1457006 0.9850043 0.09240041
vn -0.02800136 0.9995484 -0.01090053
vn -0.1788057 0.9636306 -0.1986063
vn -0.1260026 0.9909207 -0.04690098
vn 0.1983102 0.9537489 0.2259116
vn 0.008399686 0.9997627 0.02009925
vn -0.1672066 0.9845389 -0.05220206
vn -0.1439954 0.9885683 0.04469857
vn 0.07639706 0.9745626 0.2106919
vn -0.009300274 0.9824289 0.1864055
vn 0.1241011 0.983809 0.1293012
vn -0.08810259 0.9960291 -0.01280037
vn -0.1214979 0.9921824 0.0284995
vn 0.1112965 0.9773695 0.1798944
vn 0.077897 0.9781623 0.1926926
vn -0.03889865 0.9981654 0.04639839
vn -0.09690135 0.9945139 0.03940055
vn -0.01630054 0.9967332 0.07910264
vn -0.07829779 0.995472 0.05389848
g Mesh_Cash_01_0
f 3/3/3 2/2/2 1/1/1
f 2/2/2 4/4/4 1/1/1
f 1/1/1 4/4/4 5/5/5
f 2/2/2 6/6/6 4/4/4
f 4/4/4 7/7/7 5/5/5
f 5/5/5 7/7/7 8/8/8
f 6/6/6 9/9/9 4/4/4
f 4/4/4 9/9/9 7/7/7
f 6/6/6 10/10/10 9/9/9
f 7/7/7 11/11/11 8/8/8
f 8/8/8 11/11/11 12/12/12
f 10/10/10 13/13/13 9/9/9
f 10/10/10 14/14/14 13/13/13
f 9/9/9 15/15/15 7/7/7
f 7/7/7 15/15/15 11/11/11
f 9/9/9 13/13/13 15/15/15
f 11/11/11 16/16/16 12/12/12
f 12/12/12 16/16/16 17/17/17
f 16/16/16 18/18/18 17/17/17
f 14/14/14 19/19/19 13/13/13
f 14/14/14 20/20/20 19/19/19
f 20/20/20 21/21/21 19/19/19
f 13/13/13 22/22/22 15/15/15
f 13/13/13 19/19/19 22/22/22
f 15/15/15 23/23/23 11/11/11
f 11/11/11 23/23/23 16/16/16
f 15/15/15 22/22/22 23/23/23
f 16/16/16 24/24/24 18/18/18
f 23/23/23 24/24/24 16/16/16
f 24/24/24 25/25/25 18/18/18
f 19/19/19 21/21/21 26/26/26
f 19/19/19 26/26/26 22/22/22
f 21/21/21 27/27/27 26/26/26
f 22/22/22 28/28/28 23/23/23
f 23/23/23 28/28/28 24/24/24
f 22/22/22 26/26/26 28/28/28
f 24/24/24 29/29/29 25/25/25
f 28/28/28 29/29/29 24/24/24
f 29/29/29 30/30/30 25/25/25
f 26/26/26 27/27/27 31/31/31
f 26/26/26 31/31/31 28/28/28
f 28/28/28 31/31/31 29/29/29
f 27/27/27 32/32/32 31/31/31
f 29/29/29 33/33/33 30/30/30
f 31/31/31 33/33/33 29/29/29
f 31/31/31 32/32/32 33/33/33
f 33/33/33 34/34/34 30/30/30
f 32/32/32 35/35/35 33/33/33
f 33/33/33 35/35/35 34/34/34
f 35/35/35 36/36/36 34/34/34
