g Mirror_Largest_Framed
v -0.4404034 0.5634476 0.0006504297
v 0.4391376 0.5621818 0.01181193
v -0.4391377 0.5621818 0.01181193
v 0.4404034 0.5634476 0.0006504297
v 0.4404309 0.5634751 -0.01580694
v -0.4404309 0.5634751 -0.01580694
v 0.4391376 -0.5621817 0.01181173
v 0.4092267 0.5322711 0.01587779
v 0.4391376 0.5621818 0.01181193
v 0.4092267 -0.532271 0.01587774
v 0.3991101 0.5221543 0.01412241
v 0.3991101 -0.5221543 0.01412237
v 0.3490214 -0.4720654 0.005220239
v 0.3490214 0.4720655 0.005220435
v 0.3368454 0.4598894 0.00220438
v 0.3368454 -0.4598894 0.002204189
v -0.3368454 0.4598894 0.00220438
v 0.3336034 0.4566473 -0.01587774
v -0.3336034 0.4566473 -0.01587774
v 0.3368454 0.4598894 0.00220438
v 0.4391376 0.5621818 0.01181193
v -0.4092268 0.5322711 0.01587779
v -0.4391377 0.5621818 0.01181193
v 0.4092267 0.5322711 0.01587779
v 0.3991101 0.5221543 0.01412241
v -0.3991101 0.5221543 0.01412241
v 0.3490214 0.4720655 0.005220435
v -0.3490216 0.4720655 0.005220435
v -0.3368454 0.4598894 0.00220438
v 0.3368454 0.4598894 0.00220438
v -0.3336034 -0.4566472 -0.01587778
v -0.3368454 0.4598894 0.00220438
v -0.3336034 0.4566473 -0.01587774
v -0.3368454 -0.4598894 0.002204189
v -0.4391377 0.5621818 0.01181193
v -0.4092268 -0.532271 0.01587774
v -0.4391377 -0.5621817 0.01181173
v -0.4092268 0.5322711 0.01587779
v -0.3991101 0.5221543 0.01412241
v -0.3991101 -0.5221543 0.01412237
v -0.3490216 0.4720655 0.005220435
v -0.3490216 -0.4720654 0.005220239
v -0.3368454 -0.4598894 0.002204189
v -0.3368454 0.4598894 0.00220438
v 0.3368454 -0.4598894 0.002204189
v -0.3336034 -0.4566472 -0.01587778
v 0.3336034 -0.4566472 -0.01587778
v -0.3368454 -0.4598894 0.002204189
v -0.4404034 -0.5634475 0.000650382
v -0.4391377 0.5621818 0.01181193
v -0.4391377 -0.5621817 0.01181173
v -0.4404034 0.5634476 0.0006504297
v -0.4404309 0.5634751 -0.01580694
v -0.4404309 -0.563475 -0.01580699
v 0.4404034 -0.5634475 0.000650382
v -0.4391377 -0.5621817 0.01181173
v 0.4391376 -0.5621817 0.01181173
v -0.4404034 -0.5634475 0.000650382
v -0.4404309 -0.563475 -0.01580699
v 0.4404309 -0.563475 -0.01580699
v 0.4404034 -0.5634475 0.000650382
v 0.4404309 0.5634751 -0.01580694
v 0.4404309 -0.563475 -0.01580699
v 0.4404034 0.5634476 0.0006504297
v 0.4391376 0.5621818 0.01181193
v 0.4391376 -0.5621817 0.01181173
v -0.4391377 -0.5621817 0.01181173
v 0.4092267 -0.532271 0.01587774
v 0.4391376 -0.5621817 0.01181173
v -0.4092268 -0.532271 0.01587774
v -0.3991101 -0.5221543 0.01412237
v 0.3991101 -0.5221543 0.01412237
v -0.3490216 -0.4720654 0.005220239
v 0.3490214 -0.4720654 0.005220239
v 0.3368454 -0.4598894 0.002204189
v -0.3368454 -0.4598894 0.002204189
v 0.3336034 -0.4566472 -0.01587778
v 0.3368454 0.4598894 0.00220438
v 0.3368454 -0.4598894 0.002204189
v 0.3336034 0.4566473 -0.01587774
v 0.3336034 0.4566473 -0.01587774
v -0.4404309 0.5634751 -0.01580694
v -0.3336034 0.4566473 -0.01587774
v 0.4404309 0.5634751 -0.01580694
v -0.3336034 0.4566473 -0.01587774
v -0.4404309 -0.563475 -0.01580699
v -0.3336034 -0.4566472 -0.01587778
v -0.4404309 0.5634751 -0.01580694
v -0.3336034 -0.4566472 -0.01587778
v 0.4404309 -0.563475 -0.01580699
v 0.3336034 -0.4566472 -0.01587778
v -0.4404309 -0.563475 -0.01580699
v 0.3336034 -0.4566472 -0.01587778
v 0.4404309 0.5634751 -0.01580694
v 0.3336034 0.4566473 -0.01587774
v 0.4404309 -0.563475 -0.01580699
v -0.3437646 -0.4602362 5.722046E-08
v 0.3437646 0.4602361 2.479553E-07
v 0.3437646 -0.4602362 5.722046E-08
v -0.3437642 0.4602361 2.479553E-07
vt 0.260498 0.8217773
vt 0.2595215 0.6445313
vt 0.2595215 0.8217773
vt 0.260498 0.6445313
vt 0.263916 0.6445313
vt 0.263916 0.8217773
vt 0.05218506 0.5947266
vt 0.04724121 0.8178711
vt 0.05218506 0.8227539
vt 0.04724121 0.5996094
vt 0.04528809 0.815918
vt 0.04528809 0.6015625
vt 0.03485107 0.6118164
vt 0.03485107 0.8056641
vt 0.03286743 0.8037109
vt 0.03286743 0.6137695
vt 0.2401123 0.8027344
vt 0.2380371 0.6635742
vt 0.2380371 0.8027344
vt 0.2401123 0.6635742
vt 0.2595215 0.6445313
vt 0.2543945 0.8168945
vt 0.2595215 0.8217773
vt 0.2543945 0.6494141
vt 0.2524414 0.6513672
vt 0.2524414 0.8149414
vt 0.2420654 0.6616211
vt 0.2420654 0.8046875
vt 0.2401123 0.8027344
vt 0.2401123 0.6635742
vt 0.02748108 0.6137695
vt 0.02548218 0.8037109
vt 0.02748108 0.8037109
vt 0.02548218 0.6137695
vt 0.006164551 0.8227539
vt 0.0111084 0.5996094
vt 0.006164551 0.5947266
vt 0.0111084 0.8178711
vt 0.01308441 0.815918
vt 0.01308441 0.6015625
vt 0.02351379 0.8056641
vt 0.02351379 0.6118164
vt 0.02548218 0.6137695
vt 0.02548218 0.8037109
vt 0.2336426 0.6630859
vt 0.2357178 0.8027344
vt 0.2357178 0.6630859
vt 0.2336426 0.8027344
vt 0.005016327 0.5947266
vt 0.006164551 0.8227539
vt 0.006164551 0.5947266
vt 0.005016327 0.8227539
vt 0.001645088 0.8227539
vt 0.001645088 0.5947266
vt 0.2132568 0.644043
vt 0.2143555 0.8217773
vt 0.2143555 0.644043
vt 0.2132568 0.8217773
vt 0.2098389 0.8217773
vt 0.2098389 0.644043
vt 0.05334473 0.5947266
vt 0.05670166 0.8227539
vt 0.05670166 0.5947266
vt 0.05334473 0.8227539
vt 0.05218506 0.8227539
vt 0.05218506 0.5947266
vt 0.2143555 0.8217773
vt 0.2193604 0.6489258
vt 0.2143555 0.644043
vt 0.2193604 0.8168945
vt 0.2213135 0.8149414
vt 0.2213135 0.6508789
vt 0.2316895 0.8046875
vt 0.2316895 0.6611328
vt 0.2336426 0.6630859
vt 0.2336426 0.8027344
vt 0.03086853 0.6137695
vt 0.03286743 0.8037109
vt 0.03286743 0.6137695
vt 0.03086853 0.8037109
vt 0.2380371 0.6635742
vt 0.263916 0.8217773
vt 0.2380371 0.8027344
vt 0.263916 0.6445313
vt 0.02748108 0.8037109
vt 0.001645088 0.5947266
vt 0.02748108 0.6137695
vt 0.001645088 0.8227539
vt 0.2357178 0.8027344
vt 0.2098389 0.644043
vt 0.2357178 0.6630859
vt 0.2098389 0.8217773
vt 0.03086853 0.6137695
vt 0.05670166 0.8227539
vt 0.03086853 0.8037109
vt 0.05670166 0.5947266
vt 0.3669434 0.5024414
vt 0.4050293 0.5561523
vt 0.4050293 0.5024414
vt 0.3669434 0.5561523
vn 0 0.9985352 0.05517578
vn 0 0.8774414 0.4797363
vn 0 0.8774414 0.4797363
vn 0 0.9985352 0.05517578
vn 0 1 0.001667023
vn 0 1 0.001671791
vn 0.8774414 0 0.4797363
vn 0.05813599 0 0.9985352
vn 0.8774414 0 0.4797363
vn 0.05813599 0 0.9985352
vn -0.1719971 0 0.9848633
vn -0.1719971 0 0.9848633
vn -0.1916504 0 0.9814453
vn -0.1916504 0 0.9814453
vn -0.609375 0 0.7924805
vn -0.609375 0 0.7924805
vn 0 -0.609375 0.7924805
vn 0 -0.984375 0.1765137
vn 0 -0.984375 0.1765137
vn 0 -0.609375 0.7924805
vn 0 0.8774414 0.4797363
vn 0 0.05813599 0.9985352
vn 0 0.8774414 0.4797363
vn 0 0.05813599 0.9985352
vn 0 -0.1719971 0.9848633
vn 0 -0.1719971 0.9848633
vn 0 -0.1916504 0.9814453
vn 0 -0.1916504 0.9814453
vn 0 -0.609375 0.7924805
vn 0 -0.609375 0.7924805
vn 0.984375 0 0.1765137
vn 0.609375 0 0.7924805
vn 0.984375 0 0.1765137
vn 0.609375 0 0.7924805
vn -0.8774414 0 0.4797363
vn -0.05813599 0 0.9985352
vn -0.8774414 0 0.4797363
vn -0.05813599 0 0.9985352
vn 0.1719971 0 0.9848633
vn 0.1719971 0 0.9848633
vn 0.1916504 0 0.9814453
vn 0.1916504 0 0.9814453
vn 0.609375 0 0.7924805
vn 0.609375 0 0.7924805
vn 0 0.609375 0.7924805
vn 0 0.984375 0.1765137
vn 0 0.984375 0.1765137
vn 0 0.609375 0.7924805
vn -0.9985352 0 0.05517578
vn -0.8774414 0 0.4797363
vn -0.8774414 0 0.4797363
vn -0.9985352 0 0.05517578
vn -1 0 0.001669884
vn -1 0 0.001669884
vn 0 -0.9985352 0.05517578
vn 0 -0.8774414 0.4797363
vn 0 -0.8774414 0.4797363
vn 0 -0.9985352 0.05517578
vn 0 -1 0.001675606
vn 0 -1 0.001663208
vn 0.9985352 0 0.05517578
vn 1 0 0.001669884
vn 1 0 0.001669884
vn 0.9985352 0 0.05517578
vn 0.8774414 0 0.4797363
vn 0.8774414 0 0.4797363
vn 0 -0.8774414 0.4797363
vn 0 -0.05813599 0.9985352
vn 0 -0.8774414 0.4797363
vn 0 -0.05813599 0.9985352
vn 0 0.1719971 0.9848633
vn 0 0.1719971 0.9848633
vn 0 0.1916504 0.9814453
vn 0 0.1916504 0.9814453
vn 0 0.609375 0.7924805
vn 0 0.609375 0.7924805
vn -0.984375 0 0.1765137
vn -0.609375 0 0.7924805
vn -0.609375 0 0.7924805
vn -0.984375 0 0.1765137
vn 0.0003314018 0.0003314018 -1
vn -0.0003314018 0.0003314018 -1
vn -0.0003314018 0.0003314018 -1
vn 0.0003314018 0.0003314018 -1
vn -0.0003314018 0.0003314018 -1
vn -0.0003314018 -0.0003314018 -1
vn -0.0003314018 -0.0003314018 -1
vn -0.0003314018 0.0003314018 -1
vn -0.0003314018 -0.0003314018 -1
vn 0.0003314018 -0.0003314018 -1
vn 0.0003314018 -0.0003314018 -1
vn -0.0003314018 -0.0003314018 -1
vn 0.0003314018 -0.0003314018 -1
vn 0.0003314018 0.0003314018 -1
vn 0.0003314018 0.0003314018 -1
vn 0.0003314018 -0.0003314018 -1
vn 0 0 1
vn 0 0 1
vn 0 0 1
vn 0 0 1
g Mirror_Largest_Framed_0
f 3/3/3 2/2/2 1/1/1
f 4/4/4 1/1/1 2/2/2
f 4/4/4 5/5/5 1/1/1
f 6/6/6 1/1/1 5/5/5
f 9/9/9 8/8/8 7/7/7
f 10/10/10 7/7/7 8/8/8
f 8/8/8 11/11/11 10/10/10
f 12/12/12 10/10/10 11/11/11
f 12/12/12 11/11/11 13/13/13
f 14/14/14 13/13/13 11/11/11
f 14/14/14 15/15/15 13/13/13
f 16/16/16 13/13/13 15/15/15
f 19/19/19 18/18/18 17/17/17
f 20/20/20 17/17/17 18/18/18
f 23/23/23 22/22/22 21/21/21
f 24/24/24 21/21/21 22/22/22
f 24/24/24 22/22/22 25/25/25
f 26/26/26 25/25/25 22/22/22
f 25/25/25 26/26/26 27/27/27
f 28/28/28 27/27/27 26/26/26
f 28/28/28 29/29/29 27/27/27
f 30/30/30 27/27/27 29/29/29
f 33/33/33 32/32/32 31/31/31
f 34/34/34 31/31/31 32/32/32
f 37/37/37 36/36/36 35/35/35
f 38/38/38 35/35/35 36/36/36
f 38/38/38 36/36/36 39/39/39
f 40/40/40 39/39/39 36/36/36
f 39/39/39 40/40/40 41/41/41
f 42/42/42 41/41/41 40/40/40
f 42/42/42 43/43/43 41/41/41
f 44/44/44 41/41/41 43/43/43
f 47/47/47 46/46/46 45/45/45
f 48/48/48 45/45/45 46/46/46
f 51/51/51 50/50/50 49/49/49
f 52/52/52 49/49/49 50/50/50
f 52/52/52 53/53/53 49/49/49
f 54/54/54 49/49/49 53/53/53
f 57/57/57 56/56/56 55/55/55
f 58/58/58 55/55/55 56/56/56
f 58/58/58 59/59/59 55/55/55
f 60/60/60 55/55/55 59/59/59
f 63/63/63 62/62/62 61/61/61
f 64/64/64 61/61/61 62/62/62
f 64/64/64 65/65/65 61/61/61
f 66/66/66 61/61/61 65/65/65
f 69/69/69 68/68/68 67/67/67
f 70/70/70 67/67/67 68/68/68
f 70/70/70 68/68/68 71/71/71
f 72/72/72 71/71/71 68/68/68
f 71/71/71 72/72/72 73/73/73
f 74/74/74 73/73/73 72/72/72
f 74/74/74 75/75/75 73/73/73
f 76/76/76 73/73/73 75/75/75
f 79/79/79 78/78/78 77/77/77
f 80/80/80 77/77/77 78/78/78
f 83/83/83 82/82/82 81/81/81
f 84/84/84 81/81/81 82/82/82
f 87/87/87 86/86/86 85/85/85
f 88/88/88 85/85/85 86/86/86
f 91/91/91 90/90/90 89/89/89
f 92/92/92 89/89/89 90/90/90
f 95/95/95 94/94/94 93/93/93
f 96/96/96 93/93/93 94/94/94
f 99/99/99 98/98/98 97/97/97
f 100/100/100 97/97/97 98/98/98
