g Plane
v 3.422854E-10 -0.02997179 -0.007726314
v 4.126937E-10 0.0496878 0.0295479
v 1.097264E-09 -0.02997179 0.0295479
v -3.422855E-10 0.0496878 -0.007726314
v -4.126937E-10 -0.02997179 -0.02948527
v -1.097264E-09 0.0496878 -0.02948527
v -0.0001199816 -0.0496878 -0.02948527
v -0.0001199809 -0.0496878 -0.007726314
vt 0.7978516 0.3703613
vt 0.006343842 0.9936523
vt 0.7978516 0.9936523
vt 0.006343842 0.3703613
vt 0.7978516 0.006343842
vt 0.006343842 0.006343842
vt 0.9936523 0.006343842
vt 0.9936523 0.3703613
vn -1 0 0
vn -1 0 0
vn -1 0 0
vn -1 0 0
vn -1 0 0
vn -1 0 0
vn -1 0.006084442 0
vn -1 0.006084442 0
g Plane_0
f 3/3/3 2/2/2 1/1/1
f 2/2/2 4/4/4 1/1/1
f 1/1/1 4/4/4 5/5/5
f 4/4/4 6/6/6 5/5/5
f 5/5/5 7/7/7 1/1/1
f 7/7/7 8/8/8 1/1/1
