g Light_v1_1_OB1
v 0.1596146 0.2683201 0.07942009
v -0.1596165 0.2683201 0.07942009
v -0.2677155 0.3000679 -0.1478109
v 0.2677155 0.3000679 -0.1478109
v 0.1596146 0.01308632 0.14781
v 0.1596146 0.2683201 0.07942009
v 0.2677155 0.3000679 -0.1478109
v 0.2677155 -0.1280234 -0.03310442
v 0.2677155 -0.1280234 -0.03310442
v 0.2677155 0.3000679 -0.1478109
v -0.2677155 0.3000679 -0.1478109
v -0.2677155 -0.1280239 -0.03310394
v -0.2677155 -0.1280239 -0.03310394
v -0.2677155 0.3000679 -0.1478109
v -0.1596165 0.2683201 0.07942009
v -0.1596165 0.01308584 0.14781
v -0.2677155 -0.1280239 -0.03310394
v -0.1596165 0.01308584 0.14781
v 0.1596146 0.01308632 0.14781
v 0.2677155 -0.1280234 -0.03310442
v -0.1596165 0.01308584 0.14781
v -0.1596165 0.2683201 0.07942009
v 0.1596146 0.2683201 0.07942009
v 0.1596146 0.01308632 0.14781
v -0.05318451 -0.2488008 0.2722211
v -0.05318451 0.02000451 0.08400202
v 0.05318451 0.02000451 0.08400202
v 0.05318451 -0.2488008 0.2722211
v -0.05318451 -0.2488008 0.2722211
v -0.05318451 -0.3097489 0.1851778
v -0.05318451 -0.04094386 -0.003041267
v -0.05318451 0.02000451 0.08400202
v 0.05318451 0.02000451 0.08400202
v 0.05318451 -0.04094386 -0.003041267
v 0.05318451 -0.3097489 0.1851778
v 0.05318451 -0.2488008 0.2722211
v 0.05318451 -0.04094386 -0.003041267
v -0.05318451 -0.04094386 -0.003041267
v -0.05318451 -0.3097489 0.1851778
v 0.05318451 -0.3097489 0.1851778
vt 0.9463108 0.3660739
vt 0.962273 0.3660731
vt 0.9715161 0.3576221
vt 0.937067 0.3576235
vt 0.9463122 0.3787533
vt 0.9463108 0.3660739
vt 0.937067 0.3576235
vt 0.9370689 0.3872043
vt 0.6477444 0.3934448
vt 0.6477444 0.3724463
vt 0.6223698 0.3724463
vt 0.6223698 0.3934448
vt 0.9715182 0.3872029
vt 0.9715161 0.3576221
vt 0.962273 0.3660731
vt 0.9622744 0.3787525
vt 0.9715182 0.3872029
vt 0.9622744 0.3787525
vt 0.9463122 0.3787533
vt 0.9370689 0.3872043
vt 0.9622744 0.3787525
vt 0.962273 0.3660731
vt 0.9463108 0.3660739
vt 0.9463122 0.3787533
vt 0.6613612 0.4478699
vt 0.6613612 0.432308
vt 0.6563258 0.432308
vt 0.6563258 0.4478699
vt 0.6613612 0.4478699
vt 0.6663972 0.4478699
vt 0.6663972 0.432308
vt 0.6613612 0.432308
vt 0.6563258 0.432308
vt 0.6512971 0.432308
vt 0.6512971 0.4478699
vt 0.6563258 0.4478699
vt 0.6512971 0.432308
vt 0.6462605 0.432308
vt 0.6462605 0.4478699
vt 0.6512971 0.4478699
vn 0 0.9903804 0.138372
vn 0 0.9903804 0.138372
vn 0 0.9903804 0.138372
vn 0 0.9903804 0.138372
vn 0.8902337 0.1178931 0.4399831
vn 0.8902337 0.1178931 0.4399831
vn 0.8902337 0.1178931 0.4399831
vn 0.8902337 0.1178931 0.4399831
vn 0 -0.258819 -0.9659258
vn 0 -0.258819 -0.9659258
vn 0 -0.258819 -0.9659258
vn 0 -0.258819 -0.9659258
vn -0.8902368 0.1178917 0.4399773
vn -0.8902368 0.1178917 0.4399773
vn -0.8902368 0.1178917 0.4399773
vn -0.8902368 0.1178917 0.4399773
vn 0 -0.7885094 0.6150227
vn 0 -0.7885094 0.6150227
vn 0 -0.7885094 0.6150228
vn 0 -0.7885094 0.6150228
vn 0 0.2588196 0.9659256
vn 0 0.2588196 0.9659256
vn 0 0.2588196 0.9659256
vn 0 0.2588196 0.9659256
vn 0 0.5735756 0.8191527
vn 0 0.5735756 0.8191527
vn 0 0.5735756 0.8191527
vn 0 0.5735756 0.8191527
vn -1 0 0
vn -1 0 0
vn -1 0 0
vn -1 0 0
vn 1 0 0
vn 1 0 0
vn 1 0 0
vn 1 0 0
vn 0 -0.5735759 -0.8191523
vn 0 -0.5735759 -0.8191523
vn 0 -0.5735759 -0.8191523
vn 0 -0.5735759 -0.8191523
g Light_v1_1_OB1_0
f 3/3/3 2/2/2 1/1/1
f 4/4/4 3/3/3 1/1/1
f 7/7/7 6/6/6 5/5/5
f 8/8/8 7/7/7 5/5/5
f 11/11/11 10/10/10 9/9/9
f 12/12/12 11/11/11 9/9/9
f 15/15/15 14/14/14 13/13/13
f 16/16/16 15/15/15 13/13/13
f 19/19/19 18/18/18 17/17/17
f 20/20/20 19/19/19 17/17/17
f 23/23/23 22/22/22 21/21/21
f 24/24/24 23/23/23 21/21/21
f 27/27/27 26/26/26 25/25/25
f 28/28/28 27/27/27 25/25/25
f 31/31/31 30/30/30 29/29/29
f 32/32/32 31/31/31 29/29/29
f 35/35/35 34/34/34 33/33/33
f 36/36/36 35/35/35 33/33/33
f 39/39/39 38/38/38 37/37/37
f 40/40/40 39/39/39 37/37/37
