g Office_v1_1gl2
v 4.078907 -0.576473 -3.967375
v 5.258165 -0.576473 -3.967375
v 5.258165 0.576473 -3.967375
v 4.078907 0.576473 -3.967375
v 3.972795 0.6088502 -3.953691
v 2.742618 0.6088502 -3.953691
v 2.742618 -0.6088504 -3.953691
v 3.972795 -0.6088504 -3.953691
v 5.258165 0.576473 -3.945246
v 5.258165 -0.576473 -3.945246
v 4.078907 -0.576473 -3.945246
v 4.078907 0.576473 -3.945246
v 2.742618 -0.6088504 -3.931562
v 2.742618 0.6088502 -3.931562
v 3.972795 0.6088502 -3.931562
v 3.972795 -0.6088504 -3.931562
v 3.662472 -0.576473 3.931565
v 4.841731 -0.576473 3.931565
v 4.841731 0.576473 3.931565
v 3.662472 0.576473 3.931565
v 6.170227 0.6088502 3.945248
v 4.940049 0.6088502 3.945248
v 4.940049 -0.6088504 3.945248
v 6.170227 -0.6088504 3.945248
v 4.841731 0.576473 3.953695
v 4.841731 -0.576473 3.953695
v 3.662472 -0.576473 3.953695
v 3.662472 0.576473 3.953695
v 4.940049 -0.6088504 3.967376
v 4.940049 0.6088502 3.967376
v 6.170227 0.6088502 3.967376
v 6.170227 -0.6088504 3.967376
v 7.046059 -0.576473 2.143087
v 7.046059 -0.576473 3.322345
v 7.046059 0.576473 3.322345
v 7.046059 0.576473 2.143087
v 7.032376 0.6088502 2.036615
v 7.032376 0.6088502 0.8064383
v 7.032376 -0.6088504 0.8064383
v 7.032376 -0.6088504 2.036615
v 7.023929 0.576473 3.322345
v 7.023929 -0.576473 3.322345
v 7.023929 -0.576473 2.143087
v 7.023929 0.576473 2.143087
v 7.010248 -0.6088504 0.8064383
v 7.010248 0.6088502 0.8064383
v 7.010248 0.6088502 2.036615
v 7.010248 -0.6088504 2.036615
v -7.046059 -0.576473 3.931565
v -5.866801 -0.576473 3.931565
v -5.866801 0.576473 3.931565
v -7.046059 0.576473 3.931565
v -4.538306 0.6088502 3.945248
v -5.768482 0.6088502 3.945248
v -5.768482 -0.6088504 3.945248
v -4.538306 -0.6088504 3.945248
v -5.866801 0.576473 3.953695
v -5.866801 -0.576473 3.953695
v -7.046059 -0.576473 3.953695
v -7.046059 0.576473 3.953695
v -5.768481 -0.6088504 3.967376
v -5.768481 0.6088502 3.967376
v -4.538305 0.6088502 3.967376
v -4.538305 -0.6088504 3.967376
vt 0.3057446 0.01417945
vt 0.02792569 0.01417911
vt 0.02792543 0.3712525
vt 0.3057445 0.3712535
vt 0.330779 0.3721308
vt 0.6899501 0.372131
vt 0.6899503 0.01361227
vt 0.3307792 0.01361212
vt 0.02792543 0.3712525
vt 0.02792569 0.01417911
vt 0.3057446 0.01417945
vt 0.3057445 0.3712535
vt 0.6899503 0.01361227
vt 0.6899501 0.372131
vt 0.330779 0.3721308
vt 0.3307792 0.01361212
vt 0.3057446 0.01417945
vt 0.02792569 0.01417911
vt 0.02792543 0.3712525
vt 0.3057445 0.3712535
vt 0.330779 0.3721308
vt 0.6899501 0.372131
vt 0.6899503 0.01361227
vt 0.3307792 0.01361212
vt 0.02792543 0.3712525
vt 0.02792569 0.01417911
vt 0.3057446 0.01417945
vt 0.3057445 0.3712535
vt 0.6899503 0.01361227
vt 0.6899501 0.372131
vt 0.330779 0.3721308
vt 0.3307792 0.01361212
vt 0.3057446 0.01417945
vt 0.02792569 0.01417911
vt 0.02792543 0.3712525
vt 0.3057445 0.3712535
vt 0.330779 0.3721308
vt 0.6899501 0.372131
vt 0.6899503 0.01361227
vt 0.3307792 0.01361212
vt 0.02792543 0.3712525
vt 0.02792569 0.01417911
vt 0.3057446 0.01417945
vt 0.3057445 0.3712535
vt 0.6899503 0.01361227
vt 0.6899501 0.372131
vt 0.330779 0.3721308
vt 0.3307792 0.01361212
vt 0.3057446 0.01417945
vt 0.02792569 0.01417911
vt 0.02792543 0.3712525
vt 0.3057445 0.3712535
vt 0.330779 0.3721308
vt 0.6899501 0.372131
vt 0.6899503 0.01361227
vt 0.3307792 0.01361212
vt 0.02792543 0.3712525
vt 0.02792569 0.01417911
vt 0.3057446 0.01417945
vt 0.3057445 0.3712535
vt 0.6899503 0.01361227
vt 0.6899501 0.372131
vt 0.330779 0.3721308
vt 0.3307792 0.01361212
vn 0 0 -1
vn 0 0 -1
vn 0 0 -1
vn 0 0 -1
vn 0 0 -1
vn 0 0 -1
vn 0 0 -1
vn 0 0 -1
vn 0 0 1
vn 0 0 1
vn 0 0 1
vn 0 0 1
vn 0 0 1
vn 0 0 1
vn 0 0 1
vn 0 0 1
vn 0 0 -1
vn 0 0 -1
vn 0 0 -1
vn 0 0 -1
vn 0 0 -1
vn 0 0 -1
vn 0 0 -1
vn 0 0 -1
vn 0 0 1
vn 0 0 1
vn 0 0 1
vn 0 0 1
vn 0 0 1
vn 0 0 1
vn 0 0 1
vn 0 0 1
vn 1 0 0
vn 1 0 0
vn 1 0 0
vn 1 0 0
vn 1 0 0
vn 1 0 0
vn 1 0 0
vn 1 0 0
vn -1 0 0
vn -1 0 0
vn -1 0 0
vn -1 0 0
vn -1 0 0
vn -1 0 0
vn -1 0 0
vn -1 0 0
vn 0 0 -1
vn 0 0 -1
vn 0 0 -1
vn 0 0 -1
vn 0 0 -1
vn 0 0 -1
vn 0 0 -1
vn 0 0 -1
vn 0 0 1
vn 0 0 1
vn 0 0 1
vn 0 0 1
vn 0 0 1
vn 0 0 1
vn 0 0 1
vn 0 0 1
g Office_v1_1gl2_0
f 3/3/3 2/2/2 1/1/1
f 4/4/4 3/3/3 1/1/1
f 7/7/7 6/6/6 5/5/5
f 8/8/8 7/7/7 5/5/5
f 11/11/11 10/10/10 9/9/9
f 12/12/12 11/11/11 9/9/9
f 15/15/15 14/14/14 13/13/13
f 16/16/16 15/15/15 13/13/13
f 19/19/19 18/18/18 17/17/17
f 20/20/20 19/19/19 17/17/17
f 23/23/23 22/22/22 21/21/21
f 24/24/24 23/23/23 21/21/21
f 27/27/27 26/26/26 25/25/25
f 28/28/28 27/27/27 25/25/25
f 31/31/31 30/30/30 29/29/29
f 32/32/32 31/31/31 29/29/29
f 35/35/35 34/34/34 33/33/33
f 36/36/36 35/35/35 33/33/33
f 39/39/39 38/38/38 37/37/37
f 40/40/40 39/39/39 37/37/37
f 43/43/43 42/42/42 41/41/41
f 44/44/44 43/43/43 41/41/41
f 47/47/47 46/46/46 45/45/45
f 48/48/48 47/47/47 45/45/45
f 51/51/51 50/50/50 49/49/49
f 52/52/52 51/51/51 49/49/49
f 55/55/55 54/54/54 53/53/53
f 56/56/56 55/55/55 53/53/53
f 59/59/59 58/58/58 57/57/57
f 60/60/60 59/59/59 57/57/57
f 63/63/63 62/62/62 61/61/61
f 64/64/64 63/63/63 61/61/61
