g OP1_PC_v1_1
v -0.3532847 0.3269539 0.1541591
v 0.3532847 0.3269539 0.1541591
v 0.3532847 -0.3269539 0.1541591
v -0.3532847 -0.3269539 0.1541591
v -0.3532847 0.3269539 -0.1541591
v -0.3532847 -0.3269539 -0.1541591
v 0.3532847 -0.3269539 -0.1541591
v 0.3532847 0.3269539 -0.1541591
v -0.3532847 0.3269539 0.1541591
v -0.3532847 0.3269539 -0.1541591
v 0.3532847 0.3269539 -0.1541591
v 0.3532847 0.3269539 0.1541591
v 0.3532847 0.3269539 0.1541591
v 0.3532847 0.3269539 -0.1541591
v 0.3532847 -0.3269539 -0.1541591
v 0.3532847 -0.3269539 0.1541591
v 0.3532847 -0.3269539 0.1541591
v 0.3532847 -0.3269539 -0.1541591
v -0.3532847 -0.3269539 -0.1541591
v -0.3532847 -0.3269539 0.1541591
v -0.3532847 -0.3269539 0.1541591
v -0.3532847 -0.3269539 -0.1541591
v -0.3532847 0.3269539 -0.1541591
v -0.3532847 0.3269539 0.1541591
vt 0.8779898 0.9449589
vt 0.9978096 0.9449586
vt 0.9978085 0.83407
vt 0.8779893 0.8340702
vt 0.8257072 0.944959
vt 0.8257067 0.8340706
vt 0.705888 0.8340707
vt 0.705888 0.9449592
vt 0.8779898 0.9449589
vt 0.8779893 0.9972429
vt 0.9978096 0.9972429
vt 0.9978096 0.9449586
vt 0.6536042 0.9449592
vt 0.705888 0.9449592
vt 0.705888 0.8340707
vt 0.6536042 0.8340707
vt 0.8734019 0.9942537
vt 0.8734029 0.949451
vt 0.7707281 0.9494507
vt 0.7707276 0.9942538
vt 0.8779893 0.8340702
vt 0.8257067 0.8340706
vt 0.8257072 0.944959
vt 0.8779898 0.9449589
vn 0 0 1
vn 0 0 1
vn 0 0 1
vn 0 0 1
vn 0 0 -1
vn 0 0 -1
vn 0 0 -1
vn 0 0 -1
vn 0 1 0
vn 0 1 0
vn 0 1 0
vn 0 1 0
vn 1 0 0
vn 1 0 0
vn 1 0 0
vn 1 0 0
vn 0 -1 0
vn 0 -1 0
vn 0 -1 0
vn 0 -1 0
vn -1 0 0
vn -1 0 0
vn -1 0 0
vn -1 0 0
g OP1_PC_v1_1_0
f 3/3/3 2/2/2 1/1/1
f 4/4/4 3/3/3 1/1/1
f 7/7/7 6/6/6 5/5/5
f 8/8/8 7/7/7 5/5/5
f 11/11/11 10/10/10 9/9/9
f 12/12/12 11/11/11 9/9/9
f 15/15/15 14/14/14 13/13/13
f 16/16/16 15/15/15 13/13/13
f 19/19/19 18/18/18 17/17/17
f 20/20/20 19/19/19 17/17/17
f 23/23/23 22/22/22 21/21/21
f 24/24/24 23/23/23 21/21/21
