g OP1_Stikers_v1_4
v 0 -0.05350006 0.1326892
v 0 -0.05350012 0.04668728
v 0 0.06774494 0.04668733
v 0 0.0677449 0.1326892
v 0 -0.05522269 -0.07199464
v 0 -0.04235965 -0.1570286
v 0 0.07752158 -0.1388942
v 0 0.06465855 -0.05386027
vt 0.3155451 0.2698999
vt 0.3155451 0.2901787
vt 0.3441345 0.2901787
vt 0.3441345 0.2698999
vt 0.2832398 0.2699032
vt 0.2832398 0.2901825
vt 0.3118286 0.2901825
vt 0.3118286 0.2699032
vn -1 0 0
vn -1 0 0
vn -1 0 0
vn -1 0 0
vn -1 0 0
vn -1 0 0
vn -1 0 0
vn -1 0 0
g OP1_Stikers_v1_4_0
f 3/3/3 2/2/2 1/1/1
f 4/4/4 3/3/3 1/1/1
f 7/7/7 6/6/6 5/5/5
f 8/8/8 7/7/7 5/5/5
