g OP1_Copy_Papers_v1_1
v -0.3532847 0.2019487 0.2578318
v 0.3532847 0.2019487 0.2578318
v 0.3532847 -0.2019487 0.2578318
v -0.3532847 -0.2019487 0.2578318
v -0.3532847 0.2019487 -0.2578318
v -0.3532847 -0.2019487 -0.2578318
v 0.3532847 -0.2019487 -0.2578318
v 0.3532847 0.2019487 -0.2578318
v -0.3532847 0.2019487 0.2578318
v -0.3532847 0.2019487 -0.2578318
v 0.3532847 0.2019487 -0.2578318
v 0.3532847 0.2019487 0.2578318
v 0.3532847 0.2019487 0.2578318
v 0.3532847 0.2019487 -0.2578318
v 0.3532847 -0.2019487 -0.2578318
v 0.3532847 -0.2019487 0.2578318
v 0.3532847 -0.2019487 0.2578318
v 0.3532847 -0.2019487 -0.2578318
v -0.3532847 -0.2019487 -0.2578318
v -0.3532847 -0.2019487 0.2578318
v -0.3532847 -0.2019487 0.2578318
v -0.3532847 -0.2019487 -0.2578318
v -0.3532847 0.2019487 -0.2578318
v -0.3532847 0.2019487 0.2578318
vt 0.5074021 0.1303627
vt 0.5920901 0.1303627
vt 0.5920913 0.08195152
vt 0.5074009 0.08195155
vt 0.5073997 0.1921706
vt 0.5074009 0.2405823
vt 0.5920913 0.2405822
vt 0.5920918 0.1921706
vt 0.5074021 0.1303627
vt 0.5073997 0.1921706
vt 0.5920918 0.1921706
vt 0.5920901 0.1303627
vt 0.5920901 0.1303627
vt 0.5920918 0.1921706
vt 0.6405039 0.1921684
vt 0.6405004 0.1303607
vt 0.7546092 0.6678573
vt 0.7974933 0.6678573
vt 0.7974933 0.6090968
vt 0.7546092 0.6090968
vt 0.4589919 0.1303607
vt 0.4589883 0.1921684
vt 0.5073997 0.1921706
vt 0.5074021 0.1303627
vn 0 0 1
vn 0 0 1
vn 0 0 1
vn 0 0 1
vn 0 0 -1
vn 0 0 -1
vn 0 0 -1
vn 0 0 -1
vn 0 1 0
vn 0 1 0
vn 0 1 0
vn 0 1 0
vn 1 0 0
vn 1 0 0
vn 1 0 0
vn 1 0 0
vn 0 -1 0
vn 0 -1 0
vn 0 -1 0
vn 0 -1 0
vn -1 0 0
vn -1 0 0
vn -1 0 0
vn -1 0 0
g OP1_Copy_Papers_v1_1_0
f 3/3/3 2/2/2 1/1/1
f 4/4/4 3/3/3 1/1/1
f 7/7/7 6/6/6 5/5/5
f 8/8/8 7/7/7 5/5/5
f 11/11/11 10/10/10 9/9/9
f 12/12/12 11/11/11 9/9/9
f 15/15/15 14/14/14 13/13/13
f 16/16/16 15/15/15 13/13/13
f 19/19/19 18/18/18 17/17/17
f 20/20/20 19/19/19 17/17/17
f 23/23/23 22/22/22 21/21/21
f 24/24/24 23/23/23 21/21/21
