g OP1_Monitor_v1_1
v -0.08132899 0.3468066 0.4697991
v -0.04005015 0.3431952 0.4697991
v -0.09460986 -0.2804261 0.469799
v -0.1358887 -0.2768147 0.469799
v -0.08132899 0.3468066 -0.469799
v -0.1358887 -0.2768147 -0.469799
v -0.09460986 -0.2804262 -0.469799
v -0.04005015 0.3431952 -0.469799
v -0.08132899 0.3468066 0.4697991
v -0.08132899 0.3468066 -0.469799
v -0.04005015 0.3431952 -0.469799
v -0.04005015 0.3431952 0.4697991
v 0.03181458 0.09864008 0.3097868
v 0.03181458 0.09864008 -0.3097868
v 0.006901741 -0.1861153 -0.3097868
v 0.006901741 -0.1861153 0.3097868
v -0.09460986 -0.2804261 0.469799
v -0.09460986 -0.2804262 -0.469799
v -0.1358887 -0.2768147 -0.469799
v -0.1358887 -0.2768147 0.469799
v -0.1358887 -0.2768147 0.469799
v -0.1358887 -0.2768147 -0.469799
v -0.08132899 0.3468066 -0.469799
v -0.08132899 0.3468066 0.4697991
v -0.04005015 0.3431952 0.4697991
v 0.03181458 0.09864008 0.3097868
v 0.006901741 -0.1861153 0.3097868
v -0.09460986 -0.2804261 0.469799
v -0.09460986 -0.2804261 0.469799
v 0.006901741 -0.1861153 0.3097868
v 0.006901741 -0.1861153 -0.3097868
v -0.09460986 -0.2804262 -0.469799
v -0.09460986 -0.2804262 -0.469799
v 0.006901741 -0.1861153 -0.3097868
v 0.03181458 0.09864008 -0.3097868
v -0.04005015 0.3431952 -0.469799
v -0.04005015 0.3431952 -0.469799
v 0.03181458 0.09864008 -0.3097868
v 0.03181458 0.09864008 0.3097868
v -0.04005015 0.3431952 0.4697991
v -0.01334143 -0.1540549 0.05445671
v -0.01334143 -0.1540549 -0.05445766
v 0.04977989 -0.3789583 -0.05445766
v 0.04977989 -0.3789583 0.05445671
v 0.04977989 -0.3789583 0.05445671
v 0.01171935 -0.3789583 0.05445671
v -0.03617334 -0.1914198 0.05445671
v -0.01334143 -0.1540549 0.05445671
v -0.01334143 -0.1540549 -0.05445766
v -0.03617334 -0.1914198 -0.05445766
v 0.01171935 -0.3789583 -0.05445766
v 0.04977989 -0.3789583 -0.05445766
v -0.03617334 -0.1914198 -0.05445766
v -0.03617334 -0.1914198 0.05445671
v 0.01171935 -0.3789583 0.05445671
v 0.01171935 -0.3789583 -0.05445766
v 0.1156141 -0.3765724 0.1421719
v 0.1156141 -0.3765724 -0.14678
v 0.1210002 -0.3993165 -0.1522613
v 0.1210002 -0.3993165 0.1476536
v 0.1210002 -0.3993165 0.1476536
v -0.07533729 -0.3993165 0.1476536
v -0.06995106 -0.3765724 0.1421719
v 0.1156141 -0.3765724 0.1421719
v 0.1210002 -0.3993165 -0.1522613
v -0.07533729 -0.3993165 -0.1522613
v -0.07533729 -0.3993165 0.1476536
v 0.1210002 -0.3993165 0.1476536
v 0.1156141 -0.3765724 -0.14678
v -0.06995106 -0.3765724 -0.14678
v -0.07533729 -0.3993165 -0.1522613
v 0.1210002 -0.3993165 -0.1522613
v 0.1156141 -0.3765724 0.1421719
v -0.06995106 -0.3765724 0.1421719
v -0.06995106 -0.3765724 -0.14678
v 0.1156141 -0.3765724 -0.14678
v -0.06995106 -0.3765724 -0.14678
v -0.06995106 -0.3765724 0.1421719
v -0.07533729 -0.3993165 0.1476536
v -0.07533729 -0.3993165 -0.1522613
vt 0.7453831 0.007682341
vt 0.7405479 0.007149516
vt 0.7403183 0.08124921
vt 0.7451566 0.08074641
vt 0.6248206 0.007681405
vt 0.6250429 0.08074543
vt 0.6298814 0.08124848
vt 0.6296558 0.007148988
vt 0.7399353 0.002313245
vt 0.6302695 0.002312664
vt 0.6296558 0.007148988
vt 0.7405479 0.007149516
vt 0.720812 0.03525593
vt 0.6493903 0.03525599
vt 0.6494939 0.06758066
vt 0.7207068 0.06758073
vt 0.7403183 0.08124921
vt 0.6298814 0.08124848
vt 0.6302663 0.08608481
vt 0.7399321 0.0860856
vt 0.8238026 0.1154544
vt 0.8238026 0.002785584
vt 0.748737 0.002785584
vt 0.748737 0.1154544
vt 0.7405479 0.007149516
vt 0.720812 0.03525593
vt 0.7207068 0.06758073
vt 0.7403183 0.08124921
vt 0.7403183 0.08124921
vt 0.7207068 0.06758073
vt 0.6494939 0.06758066
vt 0.6298814 0.08124848
vt 0.6298814 0.08124848
vt 0.6494939 0.06758066
vt 0.6493903 0.03525599
vt 0.6296558 0.007148988
vt 0.6296558 0.007148988
vt 0.6493903 0.03525599
vt 0.720812 0.03525593
vt 0.7405479 0.007149516
vt 0.601316 0.1267584
vt 0.6177508 0.1267225
vt 0.6176742 0.09146737
vt 0.6012374 0.0915032
vt 0.6012374 0.0915032
vt 0.5957115 0.09306836
vt 0.5964667 0.122272
vt 0.601316 0.1267584
vt 0.6177508 0.1267225
vt 0.622578 0.1222143
vt 0.6232055 0.09300773
vt 0.6176742 0.09146737
vt 0.622578 0.1222143
vt 0.6390108 0.1225682
vt 0.6396393 0.09336153
vt 0.6232055 0.09300773
vt 0.8874899 0.6093973
vt 0.8874899 0.6699558
vt 0.8923876 0.6711051
vt 0.8923877 0.608248
vt 0.8886201 0.6044945
vt 0.8474705 0.6044945
vt 0.8486004 0.6093973
vt 0.8874899 0.6093973
vt 0.8025531 0.6711051
vt 0.8437026 0.6711051
vt 0.8437026 0.608248
vt 0.8025531 0.608248
vt 0.8874899 0.6699558
vt 0.8486004 0.6699558
vt 0.8474705 0.6748585
vt 0.88862 0.6748586
vt 0.8874899 0.6093973
vt 0.8486004 0.6093973
vt 0.8486004 0.6699558
vt 0.8874899 0.6699558
vt 0.8486004 0.6699558
vt 0.8486004 0.6093973
vt 0.8437026 0.608248
vt 0.8437026 0.6711051
vn 0 0 1
vn 0 0 1
vn 0 0 1
vn 0 0 1
vn 0 0 -1
vn 0 0 -1
vn 0 0 -1
vn 0 0 -1
vn 0.0871561 0.9961947 0
vn 0.0871561 0.9961947 0
vn 0.0871561 0.9961947 0
vn 0.0871561 0.9961947 0
vn 0.9961947 -0.08715564 0
vn 0.9961947 -0.08715564 0
vn 0.9961947 -0.08715564 0
vn 0.9961947 -0.08715564 0
vn -0.08715611 -0.9961947 0
vn -0.08715611 -0.9961947 0
vn -0.08715611 -0.9961947 0
vn -0.08715611 -0.9961947 0
vn -0.9961947 0.0871556 0
vn -0.9961947 0.0871556 0
vn -0.9961947 0.0871556 0
vn -0.9961947 0.0871556 0
vn 0.8615093 -0.07537223 0.5021164
vn 0.8615093 -0.07537222 0.5021163
vn 0.8615093 -0.07537222 0.5021163
vn 0.8615093 -0.07537222 0.5021164
vn 0.6806452 -0.7326132 0
vn 0.6806453 -0.7326131 0
vn 0.6806452 -0.7326131 0
vn 0.6806452 -0.7326131 0
vn 0.8615092 -0.07537214 -0.5021164
vn 0.8615093 -0.07537214 -0.5021164
vn 0.8615092 -0.07537214 -0.5021164
vn 0.8615093 -0.07537214 -0.5021163
vn 0.9594326 0.2819379 0
vn 0.9594326 0.2819379 0
vn 0.9594326 0.2819379 0
vn 0.9594326 0.281938 0
vn 0.9627989 0.2702188 0
vn 0.9627989 0.2702188 0
vn 0.9627989 0.2702188 0
vn 0.9627989 0.2702188 0
vn 0 0 1
vn 0 0 1
vn 0 0 1
vn 0 0 1
vn 0 0 -1
vn 0 0 -1
vn 0 0 -1
vn 0 0 -1
vn -0.9689047 -0.2474343 0
vn -0.9689047 -0.2474343 0
vn -0.9689047 -0.2474343 0
vn -0.9689047 -0.2474343 0
vn 0.9730866 0.2304394 0
vn 0.9730866 0.2304394 0
vn 0.9730866 0.2304394 0
vn 0.9730866 0.2304394 0
vn 0 0.2343071 0.9721627
vn 0 0.2343072 0.9721627
vn 0 0.2343072 0.9721627
vn 0 0.2343072 0.9721627
vn 0 -1 0
vn 0 -1 0
vn 0 -1 0
vn 0 -1 0
vn 0 0.2342879 -0.9721673
vn 0 0.2342879 -0.9721673
vn 0 0.2342879 -0.9721673
vn 0 0.2342879 -0.9721673
vn 0 1 0
vn 0 1 0
vn 0 1 0
vn 0 1 0
vn -0.9730855 0.2304443 0
vn -0.9730855 0.2304443 0
vn -0.9730855 0.2304443 0
vn -0.9730855 0.2304443 0
g OP1_Monitor_v1_1_0
f 3/3/3 2/2/2 1/1/1
f 4/4/4 3/3/3 1/1/1
f 7/7/7 6/6/6 5/5/5
f 8/8/8 7/7/7 5/5/5
f 11/11/11 10/10/10 9/9/9
f 12/12/12 11/11/11 9/9/9
f 15/15/15 14/14/14 13/13/13
f 16/16/16 15/15/15 13/13/13
f 19/19/19 18/18/18 17/17/17
f 20/20/20 19/19/19 17/17/17
f 23/23/23 22/22/22 21/21/21
f 24/24/24 23/23/23 21/21/21
f 27/27/27 26/26/26 25/25/25
f 28/28/28 27/27/27 25/25/25
f 31/31/31 30/30/30 29/29/29
f 32/32/32 31/31/31 29/29/29
f 35/35/35 34/34/34 33/33/33
f 36/36/36 35/35/35 33/33/33
f 39/39/39 38/38/38 37/37/37
f 40/40/40 39/39/39 37/37/37
f 43/43/43 42/42/42 41/41/41
f 44/44/44 43/43/43 41/41/41
f 47/47/47 46/46/46 45/45/45
f 48/48/48 47/47/47 45/45/45
f 51/51/51 50/50/50 49/49/49
f 52/52/52 51/51/51 49/49/49
f 55/55/55 54/54/54 53/53/53
f 56/56/56 55/55/55 53/53/53
f 59/59/59 58/58/58 57/57/57
f 60/60/60 59/59/59 57/57/57
f 63/63/63 62/62/62 61/61/61
f 64/64/64 63/63/63 61/61/61
f 67/67/67 66/66/66 65/65/65
f 68/68/68 67/67/67 65/65/65
f 71/71/71 70/70/70 69/69/69
f 72/72/72 71/71/71 69/69/69
f 75/75/75 74/74/74 73/73/73
f 76/76/76 75/75/75 73/73/73
f 79/79/79 78/78/78 77/77/77
f 80/80/80 79/79/79 77/77/77
