g Frame_picture
v 0.3378159 -0.2468879 -3.457184E-08
v 0.3378159 -0.2468879 0.0438523
v 0.3378159 0.246888 0.04385234
v 0.3378159 0.246888 2.707203E-09
v 0.3378159 0.246888 2.707203E-09
v 0.3378159 0.246888 0.04385234
v -0.3378157 0.246888 0.04385234
v -0.3378157 0.246888 2.707203E-09
v -0.3378157 0.246888 2.707203E-09
v -0.3378157 0.246888 0.04385234
v -0.3378157 -0.2468879 0.0438523
v -0.3378157 -0.2468879 -3.457184E-08
v -0.3378157 -0.2468879 -3.457184E-08
v -0.3378157 -0.2468879 0.0438523
v 0.3378159 -0.2468879 0.0438523
v 0.3378159 -0.2468879 -3.457184E-08
v 0.3012578 -0.2103298 0.03055881
v 0.3012578 -0.2103298 0.01499057
v 0.3012578 0.2103299 0.0149906
v 0.3012578 0.2103299 0.03055884
v 0.3012578 -0.2103298 0.03055881
v 0.3378159 -0.2468879 0.0438523
v -0.3378157 -0.2468879 0.0438523
v -0.3012576 -0.2103298 0.03055881
v -0.3012576 0.2103299 0.03055884
v -0.3378157 0.246888 0.04385234
v 0.3378159 0.246888 0.04385234
v 0.3012578 0.2103299 0.03055884
v -0.3012576 -0.2103298 0.03055881
v -0.3378157 -0.2468879 0.0438523
v -0.3378157 0.246888 0.04385234
v -0.3012576 0.2103299 0.03055884
v 0.3012578 0.2103299 0.03055884
v 0.3378159 0.246888 0.04385234
v 0.3378159 -0.2468879 0.0438523
v 0.3012578 -0.2103298 0.03055881
v -0.3012576 -0.2103298 0.01499057
v -0.3012576 0.2103299 0.0149906
v 0.3012578 0.2103299 0.0149906
v 0.3012578 -0.2103298 0.01499057
v 0.3012578 0.2103299 0.03055884
v 0.3012578 0.2103299 0.0149906
v -0.3012576 0.2103299 0.0149906
v -0.3012576 0.2103299 0.03055884
v -0.3012576 0.2103299 0.03055884
v -0.3012576 0.2103299 0.0149906
v -0.3012576 -0.2103298 0.01499057
v -0.3012576 -0.2103298 0.03055881
v -0.3012576 -0.2103298 0.03055881
v -0.3012576 -0.2103298 0.01499057
v 0.3012578 -0.2103298 0.01499057
v 0.3012578 -0.2103298 0.03055881
vt 0.361084 0.855957
vt 0.361084 0.8681641
vt 0.5019531 0.8681641
vt 0.5019531 0.855957
vt 0.5507813 0.8530273
vt 0.5507813 0.840332
vt 0.3581543 0.840332
vt 0.3581543 0.8530273
vt 0.8613281 0.09539795
vt 0.8491211 0.09539795
vt 0.8491211 0.2363281
vt 0.8613281 0.2363281
vt 0.2922363 0.503418
vt 0.3046875 0.503418
vt 0.3046875 0.3105469
vt 0.2922363 0.3105469
vt 0.371582 0.8793945
vt 0.371582 0.8837891
vt 0.4916992 0.8837891
vt 0.4916992 0.8793945
vt 0.315918 0.3210449
vt 0.3046875 0.3105469
vt 0.3046875 0.503418
vt 0.315918 0.4929199
vt 0.3686523 0.8295898
vt 0.3581543 0.840332
vt 0.5507813 0.840332
vt 0.5405273 0.8295898
vt 0.8378906 0.2259521
vt 0.8491211 0.2363281
vt 0.8491211 0.09539795
vt 0.8378906 0.105835
vt 0.4916992 0.8793945
vt 0.5019531 0.8681641
vt 0.361084 0.8681641
vt 0.371582 0.8793945
vt 0.8447266 0.4418945
vt 0.9648438 0.4418945
vt 0.9648438 0.2697754
vt 0.8447266 0.2697754
vt 0.5405273 0.8295898
vt 0.5405273 0.8251953
vt 0.3686523 0.8251953
vt 0.3686523 0.8295898
vt 0.8378906 0.105835
vt 0.8334961 0.105835
vt 0.8334961 0.2259521
vt 0.8378906 0.2259521
vt 0.315918 0.4929199
vt 0.3203125 0.4929199
vt 0.3203125 0.3210449
vt 0.315918 0.3210449
vn 1 0 0
vn 1 0 0
vn 1 0 0
vn 1 0 0
vn 0 1 0
vn 0 1 0
vn 0 1 0
vn 0 1 0
vn -1 0 0
vn -1 0 0
vn -1 0 0
vn -1 0 0
vn 0 -1 0
vn 0 -1 0
vn 0 -1 0
vn 0 -1 0
vn -1 0 0
vn -1 0 0
vn -1 0 0
vn -1 0 0
vn 0 0.3417969 0.9399414
vn 0 0.3417969 0.9399414
vn 0 0.3417969 0.9399414
vn 0 0.3417969 0.9399414
vn 0 -0.3417969 0.9399414
vn 0 -0.3417969 0.9399414
vn 0 -0.3417969 0.9399414
vn 0 -0.3417969 0.9399414
vn 0.3417969 0 0.9399414
vn 0.3417969 0 0.9399414
vn 0.3417969 0 0.9399414
vn 0.3417969 0 0.9399414
vn -0.3417969 0 0.9399414
vn -0.3417969 0 0.9399414
vn -0.3417969 0 0.9399414
vn -0.3417969 0 0.9399414
vn 0 0 1
vn 0 0 1
vn 0 0 1
vn 0 0 1
vn 0 -1 0
vn 0 -1 0
vn 0 -1 0
vn 0 -1 0
vn 1 0 0
vn 1 0 0
vn 1 0 0
vn 1 0 0
vn 0 1 0
vn 0 1 0
vn 0 1 0
vn 0 1 0
g Frame_picture_0
f 3/3/3 2/2/2 1/1/1
f 4/4/4 3/3/3 1/1/1
f 7/7/7 6/6/6 5/5/5
f 8/8/8 7/7/7 5/5/5
f 11/11/11 10/10/10 9/9/9
f 12/12/12 11/11/11 9/9/9
f 15/15/15 14/14/14 13/13/13
f 16/16/16 15/15/15 13/13/13
f 19/19/19 18/18/18 17/17/17
f 20/20/20 19/19/19 17/17/17
f 23/23/23 22/22/22 21/21/21
f 24/24/24 23/23/23 21/21/21
f 27/27/27 26/26/26 25/25/25
f 28/28/28 27/27/27 25/25/25
f 31/31/31 30/30/30 29/29/29
f 32/32/32 31/31/31 29/29/29
f 35/35/35 34/34/34 33/33/33
f 36/36/36 35/35/35 33/33/33
f 39/39/39 38/38/38 37/37/37
f 40/40/40 39/39/39 37/37/37
f 43/43/43 42/42/42 41/41/41
f 44/44/44 43/43/43 41/41/41
f 47/47/47 46/46/46 45/45/45
f 48/48/48 47/47/47 45/45/45
f 51/51/51 50/50/50 49/49/49
f 52/52/52 51/51/51 49/49/49
