g WorkInProgress
v -0.2672518 -3.339059E-11 0.1872618
v -0.2672518 -3.339059E-11 -0.1881464
v 0.2892678 -3.339059E-11 -0.1881464
v 0.2892678 -3.339059E-11 0.1872618
v -1.203232 0.2080889 -0.6546463
v -1.179967 0.2080888 -0.7351959
v 1.326896 0.2080889 -0.08093052
v 1.303632 0.2080889 -0.00038087
v -1.196343 0.2071486 -0.02078062
v -1.216939 0.2071486 -0.1020533
v 1.277202 0.2071486 -0.8032582
v 1.297798 0.2071486 -0.7219854
vt 0.9648438 0.9550781
vt 0.9648438 0.371582
vt 0.1051025 0.371582
vt 0.1051025 0.9550781
vt 0.04122925 0.9980469
vt 0.07342529 0.9970703
vt 0.07342529 0.002065659
vt 0.04122925 0.00289917
vt 0.03662109 0.002065659
vt 0.004440308 0.00289917
vt 0.004440308 0.9980469
vt 0.03662109 0.9970703
vn 0 1 0
vn 0 1 0
vn 0 1 0
vn 0 1 0
vn 0 1 0
vn 0 1 0
vn 0 1 0
vn 0 1 0
vn 0 1 0
vn 0 1 0
vn 0 1 0
vn 0 1 0
g WorkInProgress_0
f 3/3/3 2/2/2 1/1/1
f 4/4/4 3/3/3 1/1/1
f 7/7/7 6/6/6 5/5/5
f 8/8/8 7/7/7 5/5/5
f 11/11/11 10/10/10 9/9/9
f 12/12/12 11/11/11 9/9/9
