g SM_Armature1
v -0.003029251 -0.001401038 -0.6917698
v 0.01676117 0.00120881 -0.6918618
v -0.009086303 -0.004203273 -2.075309
v 0.01070419 -0.001593334 -2.075401
v 0.02890961 0.01704845 -0.691947
v 0.02285247 0.01424627 -2.075486
v 0.02024261 0.03403707 -2.075515
v 0.02629959 0.03683918 -0.6919755
v 0.01046005 0.04898785 -0.6919309
v 0.004403 0.04618575 -2.075471
v -0.01538765 0.04357578 -2.075378
v -0.009330444 0.04637797 -0.691839
v -0.02753601 0.0277362 -2.075294
v -0.02147903 0.03053837 -0.6917537
v -0.01886902 0.01074755 -0.6917251
v -0.02492584 0.007945435 -2.075264
v -0.009086303 -0.004203273 -2.075309
v -0.003029251 -0.001401038 -0.6917698
v 0.009084778 0.004203216 2.07531
v 0.02887527 0.006813127 2.075217
v 0.003027801 0.001401043 0.6917698
v 0.02281814 0.004010983 0.6916776
v 0.04102387 0.02265275 2.075132
v 0.03496673 0.01985059 0.6915925
v 0.03235657 0.03964139 0.6915638
v 0.0384137 0.04244352 2.075103
v 0.02257431 0.05459223 2.075148
v 0.01651703 0.05179 0.6916085
v -0.003273392 0.04918012 0.6917005
v 0.002783661 0.05198229 2.07524
v -0.01542198 0.03334049 0.6917856
v -0.009364776 0.03614263 2.075325
v -0.006754761 0.01635192 2.075354
v -0.01281181 0.01354975 0.6918145
v 0.003027801 0.001401043 0.6917698
v 0.009084778 0.004203216 2.07531
v 0.003027801 0.001401043 0.6917698
v 0.02281814 0.004010983 0.6916776
v -0.003029251 -0.001401038 -0.6917698
v 0.01676117 0.00120881 -0.6918618
v 0.03496673 0.01985059 0.6915925
v 0.02890961 0.01704845 -0.691947
v 0.02629959 0.03683918 -0.6919755
v 0.03235657 0.03964139 0.6915638
v 0.01651703 0.05179 0.6916085
v 0.01046005 0.04898785 -0.6919309
v -0.009330444 0.04637797 -0.691839
v -0.003273392 0.04918012 0.6917005
v -0.02147903 0.03053837 -0.6917537
v -0.01542198 0.03334049 0.6917856
v -0.01281181 0.01354975 0.6918145
v -0.01886902 0.01074755 -0.6917251
v -0.003029251 -0.001401038 -0.6917698
v 0.003027801 0.001401043 0.6917698
v 0.02257431 0.05459223 2.075148
v -0.009364776 0.03614263 2.075325
v 0.002783661 0.05198229 2.07524
v 0.009084778 0.004203216 2.07531
v -0.006754761 0.01635192 2.075354
v 0.04102387 0.02265275 2.075132
v 0.02887527 0.006813127 2.075217
v 0.0384137 0.04244352 2.075103
v 0.004403 0.04618575 -2.075471
v -0.02753601 0.0277362 -2.075294
v -0.01538765 0.04357578 -2.075378
v -0.009086303 -0.004203273 -2.075309
v -0.02492584 0.007945435 -2.075264
v 0.02285247 0.01424627 -2.075486
v 0.01070419 -0.001593334 -2.075401
v 0.02024261 0.03403707 -2.075515
vt 0.3774414 0.9106445
vt 0.3774414 0.9125977
vt 0.4978027 0.9106445
vt 0.4978027 0.9125977
vt 0.3774414 0.9140625
vt 0.4978027 0.9140625
vt 0.4978027 0.9160156
vt 0.3774414 0.9160156
vt 0.3774414 0.9174805
vt 0.4978027 0.9174805
vt 0.4978027 0.9194336
vt 0.3774414 0.9194336
vt 0.4978027 0.9213867
vt 0.3774414 0.9213867
vt 0.3774414 0.9228516
vt 0.4978027 0.9228516
vt 0.4978027 0.9248047
vt 0.3774414 0.9248047
vt 0.3774414 0.9106445
vt 0.3774414 0.9125977
vt 0.4978027 0.9106445
vt 0.4978027 0.9125977
vt 0.3774414 0.9140625
vt 0.4978027 0.9140625
vt 0.4978027 0.9160156
vt 0.3774414 0.9160156
vt 0.3774414 0.9174805
vt 0.4978027 0.9174805
vt 0.4978027 0.9194336
vt 0.3774414 0.9194336
vt 0.4978027 0.9213867
vt 0.3774414 0.9213867
vt 0.3774414 0.9228516
vt 0.4978027 0.9228516
vt 0.4978027 0.9248047
vt 0.3774414 0.9248047
vt 0.3774414 0.9106445
vt 0.3774414 0.9125977
vt 0.4978027 0.9106445
vt 0.4978027 0.9125977
vt 0.3774414 0.9140625
vt 0.4978027 0.9140625
vt 0.4978027 0.9160156
vt 0.3774414 0.9160156
vt 0.3774414 0.9174805
vt 0.4978027 0.9174805
vt 0.4978027 0.9194336
vt 0.3774414 0.9194336
vt 0.4978027 0.9213867
vt 0.3774414 0.9213867
vt 0.3774414 0.9228516
vt 0.4978027 0.9228516
vt 0.4978027 0.9248047
vt 0.3774414 0.9248047
vt 0.4902344 0.8759766
vt 0.4941406 0.8774414
vt 0.4926758 0.8759766
vt 0.4926758 0.8813477
vt 0.4941406 0.8798828
vt 0.4885254 0.8798828
vt 0.4902344 0.8813477
vt 0.4885254 0.8774414
vt 0.4902344 0.8759766
vt 0.4941406 0.8774414
vt 0.4924316 0.8759766
vt 0.4924316 0.8813477
vt 0.4941406 0.8798828
vt 0.4885254 0.8798828
vt 0.4902344 0.8813477
vt 0.4885254 0.8774414
vn 0.133667 -0.9912109 0
vn 0.5029297 -0.8642578 0
vn 0.1335449 -0.9912109 6.300211E-05
vn 0.5029297 -0.8642578 -1.722574E-05
vn 0.9658203 -0.2590332 -5.191565E-05
vn 0.9658203 -0.2590332 -0.0001077056
vn 0.8642578 0.5029297 -0.007873535
vn 0.8642578 0.5029297 -0.007820129
vn 0.2590332 0.9658203 -6.836653E-05
vn 0.2590332 0.9658203 0
vn -0.5029297 0.8642578 0
vn -0.5029297 0.8642578 1.239777E-05
vn -0.9658203 0.2590332 9.977818E-05
vn -0.9658203 0.2590332 0.0001028776
vn -0.8642578 -0.5029297 0.007858276
vn -0.8642578 -0.5029297 0.007850647
vn -0.6064453 -0.7954102 0.007858276
vn -0.6064453 -0.7954102 0.007827759
vn 0.133667 -0.9912109 0
vn 0.5029297 -0.8642578 0
vn 0.133667 -0.9912109 0
vn 0.5029297 -0.8642578 0
vn 0.9658203 -0.2590332 -9.977818E-05
vn 0.9658203 -0.2590332 0
vn 0.8642578 0.5029297 -0.007820129
vn 0.8642578 0.5029297 -0.007850647
vn 0.2590332 0.9658203 -0.0001776218
vn 0.2590332 0.9658203 -1.770258E-05
vn -0.5029297 0.8642578 0
vn -0.5029297 0.8642578 0
vn -0.9658203 0.2590332 0
vn -0.9658203 0.2590332 5.227327E-05
vn -0.8642578 -0.5029297 0.007865906
vn -0.8642578 -0.5029297 0.007858276
vn -0.6064453 -0.7954102 0.007858276
vn -0.6064453 -0.7954102 0.007858276
vn 0.133667 -0.9912109 0
vn 0.5029297 -0.8642578 0
vn 0.133667 -0.9912109 0
vn 0.5029297 -0.8642578 0
vn 0.9658203 -0.2590332 0
vn 0.9658203 -0.2590332 -5.191565E-05
vn 0.8642578 0.5029297 -0.007820129
vn 0.8642578 0.5029297 -0.007820129
vn 0.2590332 0.9658203 -1.770258E-05
vn 0.2590332 0.9658203 -6.836653E-05
vn -0.5029297 0.8642578 1.239777E-05
vn -0.5029297 0.8642578 0
vn -0.9658203 0.2590332 0.0001028776
vn -0.9658203 0.2590332 0
vn -0.8642578 -0.5029297 0.007858276
vn -0.8642578 -0.5029297 0.007858276
vn -0.6064453 -0.7954102 0.007827759
vn -0.6064453 -0.7954102 0.007858276
vn 0.007808685 2.938509E-05 1
vn 0.007904053 -1.609325E-05 1
vn 0.007865906 -7.641315E-05 1
vn 0.007827759 3.20673E-05 1
vn 0.007965088 -1.573563E-05 1
vn 0.007732391 7.861853E-05 1
vn 0.007911682 -0.0001221895 1
vn 0.007698059 4.070997E-05 1
vn 0.007858276 0 1
vn 0.007770538 4.374981E-05 1
vn 0.007705688 0 1
vn 0.007804871 1.943111E-05 1
vn 0.007659912 -1.990795E-05 1
vn 0.007850647 0 1
vn 0.007919312 -7.516146E-05 1
vn 0.007740021 0 1
g SM_Armature1_0
f 3/3/3 2/2/2 1/1/1
f 3/3/3 4/4/4 2/2/2
f 4/4/4 5/5/5 2/2/2
f 4/4/4 6/6/6 5/5/5
f 5/5/5 6/6/6 7/7/7
f 7/7/7 8/8/8 5/5/5
f 9/9/9 8/8/8 7/7/7
f 7/7/7 10/10/10 9/9/9
f 9/9/9 10/10/10 11/11/11
f 11/11/11 12/12/12 9/9/9
f 12/12/12 11/11/11 13/13/13
f 13/13/13 14/14/14 12/12/12
f 15/15/15 14/14/14 13/13/13
f 13/13/13 16/16/16 15/15/15
f 15/15/15 16/16/16 17/17/17
f 17/17/17 18/18/18 15/15/15
f 21/21/21 20/20/20 19/19/19
f 21/21/21 22/22/22 20/20/20
f 22/22/22 23/23/23 20/20/20
f 22/22/22 24/24/24 23/23/23
f 23/23/23 24/24/24 25/25/25
f 25/25/25 26/26/26 23/23/23
f 27/27/27 26/26/26 25/25/25
f 25/25/25 28/28/28 27/27/27
f 27/27/27 28/28/28 29/29/29
f 29/29/29 30/30/30 27/27/27
f 30/30/30 29/29/29 31/31/31
f 31/31/31 32/32/32 30/30/30
f 33/33/33 32/32/32 31/31/31
f 31/31/31 34/34/34 33/33/33
f 33/33/33 34/34/34 35/35/35
f 35/35/35 36/36/36 33/33/33
f 39/39/39 38/38/38 37/37/37
f 39/39/39 40/40/40 38/38/38
f 40/40/40 41/41/41 38/38/38
f 40/40/40 42/42/42 41/41/41
f 41/41/41 42/42/42 43/43/43
f 43/43/43 44/44/44 41/41/41
f 45/45/45 44/44/44 43/43/43
f 43/43/43 46/46/46 45/45/45
f 45/45/45 46/46/46 47/47/47
f 47/47/47 48/48/48 45/45/45
f 48/48/48 47/47/47 49/49/49
f 49/49/49 50/50/50 48/48/48
f 51/51/51 50/50/50 49/49/49
f 49/49/49 52/52/52 51/51/51
f 51/51/51 52/52/52 53/53/53
f 53/53/53 54/54/54 51/51/51
f 57/57/57 56/56/56 55/55/55
f 56/56/56 58/58/58 55/55/55
f 59/59/59 58/58/58 56/56/56
f 60/60/60 55/55/55 58/58/58
f 61/61/61 60/60/60 58/58/58
f 62/62/62 55/55/55 60/60/60
f 65/65/65 64/64/64 63/63/63
f 64/64/64 66/66/66 63/63/63
f 67/67/67 66/66/66 64/64/64
f 68/68/68 63/63/63 66/66/66
f 69/69/69 68/68/68 66/66/66
f 70/70/70 63/63/63 68/68/68
