g SM_Cones_C2
v -0.1311323 -0.002941993 0.08758589
v -0.1039807 -0.002942013 0.1185464
v -0.06974115 -0.002942028 0.1414246
v -0.2264828 0.02250661 0.2368869
v -0.2264828 -0.002942034 0.2368869
v -0.2369115 -0.002942027 0.226458
v -0.2369115 0.02250661 0.226458
v -0.2369115 0.02250661 0.226458
v -0.2369115 -0.002942027 0.226458
v -0.2409843 -0.002942017 0.2112584
v -0.2409843 0.02250663 0.2112584
v -0.2409843 -0.002941742 -0.2113624
v -0.2409843 0.0225069 -0.2113624
v -0.2369115 -0.002941731 -0.2265621
v -0.2369115 0.02250691 -0.2265621
v -0.2264828 -0.002941725 -0.236991
v -0.2264828 0.02250692 -0.236991
v 0.2369663 0.02250691 -0.2265621
v 0.2265376 0.02250692 -0.236991
v 0.2265376 -0.002941725 -0.236991
v 0.2369663 -0.002941731 -0.2265621
v 0.241039 -0.002941742 -0.2113624
v 0.241039 0.0225069 -0.2113624
v 0.241039 -0.002942017 0.2112584
v 0.241039 0.02250663 0.2112584
v 0.2369663 -0.002942027 0.226458
v 0.2369663 0.02250661 0.226458
v 0.2265376 0.02250661 0.2368869
v 0.2265376 -0.002942034 0.2368869
v 0.2113378 -0.002942037 0.2409596
v 0.2265376 0.02250661 0.2368869
v 0.2265376 -0.002942034 0.2368869
v 0.2113378 0.02250661 0.2409596
v -0.2112831 -0.002942037 0.2409596
v -0.2112831 0.02250661 0.2409596
v -0.2264828 -0.002942034 0.2368869
v -0.2264828 0.02250661 0.2368869
v 0.2265376 -0.002941725 -0.236991
v 0.2265376 0.02250692 -0.236991
v 0.2113378 0.02250692 -0.2410636
v 0.2113378 -0.002941722 -0.2410636
v -0.01028958 -0.002941834 -0.1574588
v -0.01252481 0.648352 -0.01883754
v -0.001450278 0.648352 -0.02259644
v -0.08761067 -0.002941851 -0.1312118
v -0.02023598 0.648352 -0.01004419
v -0.1414492 -0.002941891 -0.06982043
v -0.0225176 0.648352 0.00142613
v -0.1573792 -0.002941943 0.01026483
v -0.01875831 0.648352 0.01250067
v -0.1311323 -0.002941993 0.08758589
v -0.06974115 -0.002942028 0.1414246
v -0.009965401 0.648352 0.02021161
v 0.01034436 -0.002942039 0.1573548
v 0.001505068 0.648352 0.02249327
v 0.0125796 0.648352 0.01873389
v 0.08766545 -0.002942022 0.1311078
v 0.1186259 -0.002942005 0.1039562
v 0.141504 -0.002941982 0.06971642
v 0.02029077 0.648352 0.009941009
v 0.02257239 0.648352 -0.001529306
v 0.157434 -0.00294193 -0.01036886
v 0.0188131 0.648352 -0.01260385
v 0.131187 -0.002941879 -0.08768991
v 0.01002019 0.648352 -0.02031478
v 0.06979593 -0.002941844 -0.1415286
v -0.01028958 -0.002941834 -0.1574588
v -0.001450278 0.648352 -0.02259644
v -0.2264828 0.02250692 -0.236991
v -0.2264828 -0.002941725 -0.236991
v -0.2112831 -0.002941722 -0.2410636
v -0.2112831 0.02250692 -0.2410636
v 0.2113378 -0.002941722 -0.2410636
v 0.2113378 0.02250692 -0.2410636
v 0.01349152 0.6493705 -0.02735432
v -0.001963604 0.6493705 -0.03042849
v -0.01004616 0.0345788 -0.1537452
v 0.06814988 0.03457879 -0.1381908
v 0.02533896 0.6493705 -0.01696404
v 0.1280925 0.03457874 -0.08562231
v 0.1537203 0.03457868 -0.01012517
v 0.03040417 0.6493705 -0.002042859
v 0.02732995 0.6493705 0.01341239
v 0.1381661 0.03457863 0.0680704
v 0.01694004 0.6493705 0.02525988
v 0.08559778 0.03457861 0.1280131
v 0.01010094 0.0345786 0.1536412
v 0.002018392 0.6493705 0.03032532
v -0.01343674 0.6493705 0.02725115
v -0.0680951 0.03457861 0.1380863
v -0.1280378 0.03457864 0.08551834
v -0.02528417 0.6493705 0.01686087
v -0.1536655 0.03457871 0.01002119
v -0.03034938 0.6493705 0.001939208
v -0.02727516 0.6493705 -0.01351556
v -0.1381113 0.03457874 -0.06817436
v -0.085543 0.03457879 -0.1281171
v -0.01688525 0.6493705 -0.02536305
v -0.01004616 0.0345788 -0.1537452
v -0.001963604 0.6493705 -0.03042849
v -0.01036759 0.02250688 -0.1736894
v 0.06814988 0.03457879 -0.1381908
v -0.01004616 0.0345788 -0.1537452
v 0.07798938 0.02250687 -0.1554923
v 0.1156452 0.02250685 -0.129961
v 0.1280925 0.03457874 -0.08562231
v 0.14541 0.02250682 -0.09555438
v 0.1537203 0.03457868 -0.01012517
v 0.173829 0.02250677 -0.009935875
v 0.1381661 0.03457863 0.0680704
v 0.1556315 0.02250671 0.07842108
v 0.08559778 0.03457861 0.1280131
v 0.09569359 0.02250667 0.1458416
v 0.01010094 0.0345786 0.1536412
v 0.01007545 0.02250665 0.1742606
v -0.0680951 0.03457861 0.1380863
v -0.07828152 0.02250666 0.156063
v -0.1159373 0.02250668 0.1305322
v -0.1457022 0.0225067 0.09612509
v -0.1280378 0.03457864 0.08551834
v -0.1536655 0.03457871 0.01002119
v -0.1741212 0.02250676 0.01050709
v -0.1381113 0.03457874 -0.06817436
v -0.1559237 0.02250682 -0.07784989
v -0.1303928 0.02250684 -0.1155057
v -0.085543 0.03457879 -0.1281171
v -0.0959857 0.02250686 -0.1452708
v -0.01004616 0.0345788 -0.1537452
v -0.01036759 0.02250688 -0.1736894
v 0.2369663 -0.002942027 0.226458
v 0.2113378 -0.002942037 0.2409596
v 0.2265376 -0.002942034 0.2368869
v 0.241039 -0.002942017 0.2112584
v 0.1186259 -0.002942005 0.1039562
v 0.141504 -0.002941982 0.06971642
v 0.08766545 -0.002942022 0.1311078
v 0.157434 -0.00294193 -0.01036886
v 0.01034436 -0.002942039 0.1573548
v 0.241039 -0.002941742 -0.2113624
v -0.2112831 -0.002942037 0.2409596
v 0.131187 -0.002941879 -0.08768991
v -0.06974115 -0.002942028 0.1414246
v 0.2369663 -0.002941731 -0.2265621
v 0.2265376 -0.002941725 -0.236991
v 0.2113378 -0.002941722 -0.2410636
v 0.06979593 -0.002941844 -0.1415286
v -0.01028958 -0.002941834 -0.1574588
v -0.2112831 -0.002941722 -0.2410636
v -0.08761067 -0.002941851 -0.1312118
v -0.2264828 -0.002941725 -0.236991
v -0.2369115 -0.002941731 -0.2265621
v -0.2409843 -0.002941742 -0.2113624
v -0.1414492 -0.002941891 -0.06982043
v -0.1573792 -0.002941943 0.01026483
v -0.2409843 -0.002942017 0.2112584
v -0.1311323 -0.002941993 0.08758589
v -0.1039807 -0.002942013 0.1185464
v -0.2369115 -0.002942027 0.226458
v -0.2264828 -0.002942034 0.2368869
v -0.001450278 0.648352 -0.02259644
v -0.001963604 0.6493705 -0.03042849
v 0.01349152 0.6493705 -0.02735432
v 0.01002019 0.648352 -0.02031478
v 0.0188131 0.648352 -0.01260385
v 0.02533896 0.6493705 -0.01696404
v 0.02257239 0.648352 -0.001529306
v 0.03040417 0.6493705 -0.002042859
v 0.02732995 0.6493705 0.01341239
v 0.02029077 0.648352 0.009941009
v 0.01694004 0.6493705 0.02525988
v 0.0125796 0.648352 0.01873389
v 0.001505068 0.648352 0.02249327
v 0.002018392 0.6493705 0.03032532
v -0.01343674 0.6493705 0.02725115
v -0.009965401 0.648352 0.02021161
v -0.02528417 0.6493705 0.01686087
v -0.01875831 0.648352 0.01250067
v -0.0225176 0.648352 0.00142613
v -0.03034938 0.6493705 0.001939208
v -0.02023598 0.648352 -0.01004419
v -0.02727516 0.6493705 -0.01351556
v -0.01252481 0.648352 -0.01883754
v -0.01688525 0.6493705 -0.02536305
v -0.001963604 0.6493705 -0.03042849
v 0.2369663 0.02250661 0.226458
v 0.2265376 0.02250661 0.2368869
v 0.09569359 0.02250667 0.1458416
v 0.2113378 0.02250661 0.2409596
v 0.1556315 0.02250671 0.07842108
v 0.01007545 0.02250665 0.1742606
v 0.241039 0.02250663 0.2112584
v 0.173829 0.02250677 -0.009935875
v -0.2112831 0.02250661 0.2409596
v -0.07828152 0.02250666 0.156063
v 0.241039 0.0225069 -0.2113624
v 0.14541 0.02250682 -0.09555438
v -0.1159373 0.02250668 0.1305322
v 0.1156452 0.02250685 -0.129961
v -0.2264828 0.02250661 0.2368869
v -0.2369115 0.02250661 0.226458
v 0.2369663 0.02250691 -0.2265621
v 0.2265376 0.02250692 -0.236991
v -0.2409843 0.02250663 0.2112584
v -0.1457022 0.0225067 0.09612509
v -0.1741212 0.02250676 0.01050709
v 0.2113378 0.02250692 -0.2410636
v 0.07798938 0.02250687 -0.1554923
v -0.01036759 0.02250688 -0.1736894
v -0.2409843 0.0225069 -0.2113624
v -0.1559237 0.02250682 -0.07784989
v -0.2112831 0.02250692 -0.2410636
v -0.0959857 0.02250686 -0.1452708
v -0.1303928 0.02250684 -0.1155057
v -0.2369115 0.02250691 -0.2265621
v -0.2264828 0.02250692 -0.236991
vt 0.7861328 0.8251953
vt 0.7871094 0.8251953
vt 0.7885742 0.824707
vt 0.9160156 0.9404297
vt 0.9145508 0.9404297
vt 0.9145508 0.9394531
vt 0.9160156 0.9394531
vt 0.9101563 1
vt 0.9086914 1
vt 0.9086914 0.9990234
vt 0.9101563 0.9990234
vt 0.9086914 0.9726563
vt 0.9101563 0.9726563
vt 0.9086914 0.9716797
vt 0.9101563 0.9716797
vt 0.9086914 0.9707031
vt 0.9101563 0.9707031
vt 0.9160156 0.9980469
vt 0.9160156 0.9990234
vt 0.9145508 0.9990234
vt 0.9145508 0.9980469
vt 0.9145508 0.9970703
vt 0.9160156 0.9970703
vt 0.9145508 0.9707031
vt 0.9160156 0.9707031
vt 0.9145508 0.9697266
vt 0.9160156 0.9697266
vt 0.9160156 0.96875
vt 0.9145508 0.96875
vt 0.9145508 0.9677734
vt 0.9160156 0.96875
vt 0.9145508 0.96875
vt 0.9160156 0.9677734
vt 0.9145508 0.9414063
vt 0.9160156 0.9414063
vt 0.9145508 0.9404297
vt 0.9160156 0.9404297
vt 0.9145508 0.9990234
vt 0.9160156 0.9990234
vt 0.9160156 1
vt 0.9145508 1
vt 0.7768555 0.8291016
vt 0.7875977 0.8457031
vt 0.7871094 0.8461914
vt 0.7788086 0.8276367
vt 0.7885742 0.8452148
vt 0.78125 0.8266602
vt 0.7890625 0.8452148
vt 0.7836914 0.8256836
vt 0.7900391 0.8452148
vt 0.7861328 0.8251953
vt 0.7885742 0.824707
vt 0.7905273 0.8447266
vt 0.7910156 0.824707
vt 0.7910156 0.8447266
vt 0.7919922 0.8447266
vt 0.793457 0.824707
vt 0.7944336 0.8251953
vt 0.7958984 0.8251953
vt 0.7924805 0.8447266
vt 0.793457 0.8452148
vt 0.7983398 0.8256836
vt 0.7939453 0.8452148
vt 0.8007813 0.8261719
vt 0.7944336 0.8457031
vt 0.8027344 0.8271484
vt 0.8051758 0.8286133
vt 0.7954102 0.8457031
vt 0.9101563 0.9707031
vt 0.9086914 0.9707031
vt 0.9086914 0.9697266
vt 0.9101563 0.9697266
vt 0.9086914 0.9433594
vt 0.9101563 0.9433594
vt 0.8779297 0.8867188
vt 0.8769531 0.8876953
vt 0.8554688 0.8569336
vt 0.859375 0.8540039
vt 0.8789063 0.8862305
vt 0.8637695 0.8515625
vt 0.8681641 0.8500977
vt 0.8803711 0.8857422
vt 0.8813477 0.8857422
vt 0.8730469 0.8486328
vt 0.8828125 0.8852539
vt 0.8774414 0.8476563
vt 0.8823242 0.847168
vt 0.8842773 0.8852539
vt 0.8852539 0.8852539
vt 0.8876953 0.847168
vt 0.8925781 0.8476563
vt 0.8867188 0.8852539
vt 0.8969727 0.8486328
vt 0.8876953 0.8857422
vt 0.8891602 0.8857422
vt 0.9018555 0.8500977
vt 0.90625 0.8520508
vt 0.8901367 0.8862305
vt 0.9106445 0.8544922
vt 0.8916016 0.887207
vt 0.8544922 0.8554688
vt 0.859375 0.8540039
vt 0.8554688 0.8569336
vt 0.8583984 0.8525391
vt 0.8608398 0.8515625
vt 0.8637695 0.8515625
vt 0.862793 0.8500977
vt 0.8681641 0.8500977
vt 0.8676758 0.8486328
vt 0.8730469 0.8486328
vt 0.8725586 0.847168
vt 0.8774414 0.8476563
vt 0.8774414 0.8461914
vt 0.8823242 0.847168
vt 0.8823242 0.8457031
vt 0.8876953 0.847168
vt 0.8876953 0.8457031
vt 0.8901367 0.8457031
vt 0.8925781 0.8461914
vt 0.8925781 0.8476563
vt 0.8969727 0.8486328
vt 0.8974609 0.847168
vt 0.9018555 0.8500977
vt 0.9023438 0.8486328
vt 0.9047852 0.8496094
vt 0.90625 0.8520508
vt 0.9072266 0.8505859
vt 0.9106445 0.8544922
vt 0.9116211 0.8535156
vt 0.8999023 0.9106445
vt 0.9008789 0.9111328
vt 0.9003906 0.9106445
vt 0.8999023 0.9101563
vt 0.9038086 0.9067383
vt 0.902832 0.9057617
vt 0.9047852 0.9077148
vt 0.9023438 0.9033203
vt 0.9072266 0.9082031
vt 0.8999023 0.8969727
vt 0.9140625 0.9111328
vt 0.9033203 0.9008789
vt 0.909668 0.9077148
vt 0.8999023 0.8964844
vt 0.9003906 0.8959961
vt 0.9008789 0.8959961
vt 0.9052734 0.8989258
vt 0.9077148 0.8984375
vt 0.9140625 0.8959961
vt 0.9101563 0.8994141
vt 0.9145508 0.8959961
vt 0.9150391 0.8964844
vt 0.9150391 0.8969727
vt 0.9116211 0.9013672
vt 0.9121094 0.9038086
vt 0.9150391 0.9101563
vt 0.9116211 0.90625
vt 0.9106445 0.9072266
vt 0.9150391 0.9106445
vt 0.9145508 0.9106445
vt 0.9951172 0.7583008
vt 0.9951172 0.7573242
vt 0.9970703 0.7573242
vt 0.996582 0.7583008
vt 0.9975586 0.7592773
vt 0.9980469 0.7587891
vt 0.9980469 0.7602539
vt 0.9990234 0.7602539
vt 0.9985352 0.7617188
vt 0.9980469 0.7617188
vt 0.9975586 0.7631836
vt 0.9970703 0.7626953
vt 0.9960938 0.7631836
vt 0.9960938 0.7641602
vt 0.9941406 0.7636719
vt 0.9946289 0.7631836
vt 0.9926758 0.7626953
vt 0.9936523 0.762207
vt 0.9931641 0.7612305
vt 0.9921875 0.7612305
vt 0.9931641 0.7597656
vt 0.9921875 0.7592773
vt 0.9936523 0.7587891
vt 0.9931641 0.7578125
vt 0.9951172 0.7573242
vt 0.921875 0.8886719
vt 0.9223633 0.8891602
vt 0.9165039 0.8974609
vt 0.9223633 0.8901367
vt 0.9125977 0.8935547
vt 0.918457 0.902832
vt 0.9208984 0.8881836
vt 0.9067383 0.8925781
vt 0.9223633 0.9165039
vt 0.9174805 0.9082031
vt 0.8945313 0.8881836
vt 0.9013672 0.894043
vt 0.9155273 0.9106445
vt 0.8994141 0.8959961
vt 0.9223633 0.9174805
vt 0.921875 0.9179688
vt 0.8935547 0.8886719
vt 0.8925781 0.8891602
vt 0.9208984 0.918457
vt 0.9135742 0.9125977
vt 0.9082031 0.9140625
vt 0.8925781 0.8901367
vt 0.8979492 0.8984375
vt 0.8964844 0.9038086
vt 0.8945313 0.918457
vt 0.902832 0.9130859
vt 0.8925781 0.9165039
vt 0.8984375 0.9091797
vt 0.9003906 0.9116211
vt 0.8935547 0.9179688
vt 0.8925781 0.9174805
vn 0.8125 -0.206665 -0.5454102
vn 0.6455078 -0.2033691 -0.7363281
vn 0.4345703 -0.206665 -0.8764648
vn -0.7070313 0 0.7070313
vn -0.7070313 0 0.7070313
vn -0.8662109 0 0.5
vn -0.8662109 0 0.5
vn -0.8662109 0 0.5
vn -0.8662109 0 0.5
vn -0.9912109 0 0.1304932
vn -0.9912109 0 0.1304932
vn -0.9912109 0 -0.1304932
vn -0.9912109 0 -0.1304932
vn -0.8662109 0 -0.5
vn -0.8662109 0 -0.5
vn -0.7070313 0 -0.7070313
vn -0.7070313 0 -0.7070313
vn 0.8662109 0 -0.5
vn 0.7070313 0 -0.7070313
vn 0.7070313 0 -0.7070313
vn 0.8662109 0 -0.5
vn 0.9912109 0 -0.1304932
vn 0.9912109 0 -0.1304932
vn 0.9912109 0 0.1304932
vn 0.9912109 0 0.1304932
vn 0.8662109 0 0.5
vn 0.8662109 0 0.5
vn 0.7070313 0 0.7070313
vn 0.7070313 0 0.7070313
vn 0.1304932 0 0.9912109
vn 0.2587891 0 0.9658203
vn 0.2587891 0 0.9658203
vn 0.1304932 0 0.9912109
vn -0.1304932 0 0.9912109
vn -0.1304932 0 0.9912109
vn -0.2587891 0 0.9658203
vn -0.2587891 0 0.9658203
vn 0.2587891 0 -0.9658203
vn 0.2587891 0 -0.9658203
vn 0.1304932 0 -0.9912109
vn 0.1304932 0 -0.9912109
vn 0.06402588 -0.203125 0.9770508
vn 0.5439453 -0.203125 0.8139648
vn 0.06402588 -0.203125 0.9770508
vn 0.5439453 -0.203125 0.8139648
vn 0.8779297 -0.203125 0.4331055
vn 0.8779297 -0.203125 0.4331055
vn 0.9770508 -0.203125 -0.06402588
vn 0.9770508 -0.203125 -0.06402588
vn 0.8134766 -0.206665 -0.543457
vn 0.8125 -0.206665 -0.5454102
vn 0.4345703 -0.206665 -0.8764648
vn 0.4326172 -0.206665 -0.8774414
vn -0.06402588 -0.203125 -0.9770508
vn -0.06402588 -0.203125 -0.9770508
vn -0.543457 -0.206665 -0.8134766
vn -0.5454102 -0.206665 -0.8125
vn -0.7363281 -0.2033691 -0.6455078
vn -0.8764648 -0.206665 -0.4345703
vn -0.8774414 -0.206665 -0.4326172
vn -0.9770508 -0.203125 0.06402588
vn -0.9770508 -0.203125 0.06402588
vn -0.8139648 -0.203125 0.5439453
vn -0.8139648 -0.203125 0.5439453
vn -0.4331055 -0.203125 0.8779297
vn -0.4331055 -0.203125 0.8779297
vn 0.06402588 -0.203125 0.9770508
vn 0.06402588 -0.203125 0.9770508
vn -0.2587891 0 -0.9658203
vn -0.2587891 0 -0.9658203
vn -0.1304932 0 -0.9912109
vn -0.1304932 0 -0.9912109
vn 0.1304932 0 -0.9912109
vn 0.1304932 0 -0.9912109
vn 0.4335938 0.1970215 -0.8793945
vn -0.06414795 0.1970215 -0.9785156
vn -0.06414795 0.1970215 -0.9785156
vn 0.4335938 0.1970215 -0.8793945
vn 0.8149414 0.1970215 -0.5444336
vn 0.8149414 0.1970215 -0.5444336
vn 0.9785156 0.1970215 -0.06414795
vn 0.9785156 0.1970215 -0.06414795
vn 0.8793945 0.1970215 0.4335938
vn 0.8793945 0.1970215 0.4335938
vn 0.5449219 0.1970215 0.8149414
vn 0.5449219 0.1970215 0.8149414
vn 0.06414795 0.1970215 0.9785156
vn 0.06414795 0.1970215 0.9785156
vn -0.4335938 0.1970215 0.8793945
vn -0.4335938 0.1970215 0.8793945
vn -0.8149414 0.1970215 0.5444336
vn -0.8149414 0.1970215 0.5444336
vn -0.9785156 0.1970215 0.06414795
vn -0.9785156 0.1970215 0.06414795
vn -0.8793945 0.1970215 -0.4335938
vn -0.8793945 0.1970215 -0.4335938
vn -0.5444336 0.1970215 -0.8149414
vn -0.5449219 0.1970215 -0.8149414
vn -0.06414795 0.1970215 -0.9785156
vn -0.06414795 0.1970215 -0.9785156
vn -0.02806091 0.8554688 -0.5175781
vn 0.2092285 0.8706055 -0.4453125
vn -0.03500366 0.8554688 -0.5170898
vn 0.2196045 0.8720703 -0.4370117
vn 0.3146973 0.8798828 -0.3562012
vn 0.4094238 0.8720703 -0.2678223
vn 0.4123535 0.871582 -0.2651367
vn 0.5141602 0.8569336 -0.03720093
vn 0.5151367 0.8569336 -0.02638245
vn 0.4609375 0.8588867 0.2232666
vn 0.4558105 0.8588867 0.2331543
vn 0.2854004 0.8608398 0.4211426
vn 0.2766113 0.8608398 0.4267578
vn 0.03582764 0.8623047 0.5048828
vn 0.02636719 0.862793 0.5053711
vn -0.2038574 0.8779297 0.4335938
vn -0.2139893 0.8793945 0.4255371
vn -0.3068848 0.8862305 0.3474121
vn -0.4018555 0.8779297 0.2600098
vn -0.401123 0.8779297 0.2607422
vn -0.5073242 0.8613281 0.03369141
vn -0.5078125 0.8613281 0.02799988
vn -0.4382324 0.8745117 -0.2076416
vn -0.4318848 0.8759766 -0.2159424
vn -0.3527832 0.8823242 -0.3117676
vn -0.2648926 0.8730469 -0.4089355
vn -0.2648926 0.8730469 -0.4091797
vn -0.03500366 0.8554688 -0.5170898
vn -0.02806091 0.8554688 -0.5175781
vn 0 -1 0
vn 0 -1 0
vn 0 -1 0
vn 0 -1 0
vn 0 -1 0
vn 0 -1 0
vn 0 -1 0
vn 0 -1 0
vn 0 -1 0
vn 0 -1 0
vn 0 -1 0
vn 0 -1 0
vn 0 -1 0
vn 0 -1 0
vn 0 -1 0
vn 0 -1 0
vn 0 -1 0
vn 0 -1 0
vn 0 -1 0
vn 0 -1 0
vn 0 -1 0
vn 0 -1 0
vn 0 -1 0
vn 0 -1 0
vn 0 -1 0
vn 0 -1 0
vn 0 -1 0
vn 0 -1 0
vn 0 -1 0
vn 0 -1 0
vn 0.008415222 0.9916992 0.128418
vn 0.008415222 0.9916992 0.128418
vn -0.05691528 0.9916992 0.1154175
vn -0.05691528 0.9916992 0.1154175
vn -0.1069946 0.9916992 0.07147217
vn -0.1069946 0.9916992 0.07147217
vn -0.128418 0.9916992 0.008415222
vn -0.128418 0.9916992 0.008415222
vn -0.1154175 0.9916992 -0.05691528
vn -0.1154175 0.9916992 -0.05691528
vn -0.07147217 0.9916992 -0.1069946
vn -0.07147217 0.9916992 -0.1069946
vn -0.008415222 0.9916992 -0.128418
vn -0.008415222 0.9916992 -0.128418
vn 0.05691528 0.9916992 -0.1154175
vn 0.05691528 0.9916992 -0.1154175
vn 0.1069946 0.9916992 -0.07147217
vn 0.1069946 0.9916992 -0.07147217
vn 0.128418 0.9916992 -0.008415222
vn 0.128418 0.9916992 -0.008415222
vn 0.1154175 0.9916992 0.05691528
vn 0.1154175 0.9916992 0.05691528
vn 0.07147217 0.9916992 0.1069946
vn 0.07147217 0.9916992 0.1069946
vn 0.008415222 0.9916992 0.128418
vn 0 1 0
vn 0 1 0
vn 0 1 0
vn 0 1 0
vn 0 1 0
vn 0 1 0
vn 0 1 0
vn 0 1 0
vn 0 1 0
vn 0 1 0
vn 0 1 0
vn 0 1 0
vn 0 1 0
vn 0 1 0
vn 0 1 0
vn 0 1 0
vn 0 1 0
vn 0 1 0
vn 0 1 0
vn 0 1 0
vn 0 1 0
vn 0 1 0
vn 0 1 0
vn 0 1 0
vn 0 1 0
vn 0 1 0
vn 0 1 0
vn 0 1 0
vn 0 1 0
vn 0 1 0
vn 0 1 0
g SM_Cones_C2_0
f 3/3/3 2/2/2 1/1/1
f 6/6/6 5/5/5 4/4/4
f 7/7/7 6/6/6 4/4/4
f 10/10/10 9/9/9 8/8/8
f 11/11/11 10/10/10 8/8/8
f 12/12/12 10/10/10 11/11/11
f 13/13/13 12/12/12 11/11/11
f 14/14/14 12/12/12 13/13/13
f 15/15/15 14/14/14 13/13/13
f 16/16/16 14/14/14 15/15/15
f 17/17/17 16/16/16 15/15/15
f 20/20/20 19/19/19 18/18/18
f 21/21/21 20/20/20 18/18/18
f 21/21/21 18/18/18 22/22/22
f 18/18/18 23/23/23 22/22/22
f 22/22/22 23/23/23 24/24/24
f 23/23/23 25/25/25 24/24/24
f 24/24/24 25/25/25 26/26/26
f 25/25/25 27/27/27 26/26/26
f 26/26/26 27/27/27 28/28/28
f 29/29/29 26/26/26 28/28/28
f 32/32/32 31/31/31 30/30/30
f 31/31/31 33/33/33 30/30/30
f 30/30/30 33/33/33 34/34/34
f 33/33/33 35/35/35 34/34/34
f 36/36/36 34/34/34 35/35/35
f 37/37/37 36/36/36 35/35/35
f 40/40/40 39/39/39 38/38/38
f 41/41/41 40/40/40 38/38/38
f 44/44/44 43/43/43 42/42/42
f 43/43/43 45/45/45 42/42/42
f 43/43/43 46/46/46 45/45/45
f 46/46/46 47/47/47 45/45/45
f 47/47/47 46/46/46 48/48/48
f 49/49/49 47/47/47 48/48/48
f 49/49/49 48/48/48 50/50/50
f 51/51/51 49/49/49 50/50/50
f 52/52/52 51/51/51 50/50/50
f 50/50/50 53/53/53 52/52/52
f 54/54/54 52/52/52 53/53/53
f 55/55/55 54/54/54 53/53/53
f 54/54/54 55/55/55 56/56/56
f 57/57/57 54/54/54 56/56/56
f 58/58/58 57/57/57 56/56/56
f 56/56/56 59/59/59 58/58/58
f 56/56/56 60/60/60 59/59/59
f 59/59/59 60/60/60 61/61/61
f 62/62/62 59/59/59 61/61/61
f 62/62/62 61/61/61 63/63/63
f 64/64/64 62/62/62 63/63/63
f 63/63/63 65/65/65 64/64/64
f 65/65/65 66/66/66 64/64/64
f 67/67/67 66/66/66 65/65/65
f 68/68/68 67/67/67 65/65/65
f 71/71/71 70/70/70 69/69/69
f 72/72/72 71/71/71 69/69/69
f 71/71/71 72/72/72 73/73/73
f 72/72/72 74/74/74 73/73/73
f 77/77/77 76/76/76 75/75/75
f 78/78/78 77/77/77 75/75/75
f 75/75/75 79/79/79 78/78/78
f 79/79/79 80/80/80 78/78/78
f 81/81/81 80/80/80 79/79/79
f 82/82/82 81/81/81 79/79/79
f 82/82/82 83/83/83 81/81/81
f 83/83/83 84/84/84 81/81/81
f 84/84/84 83/83/83 85/85/85
f 86/86/86 84/84/84 85/85/85
f 87/87/87 86/86/86 85/85/85
f 88/88/88 87/87/87 85/85/85
f 87/87/87 88/88/88 89/89/89
f 90/90/90 87/87/87 89/89/89
f 91/91/91 90/90/90 89/89/89
f 92/92/92 91/91/91 89/89/89
f 93/93/93 91/91/91 92/92/92
f 94/94/94 93/93/93 92/92/92
f 93/93/93 94/94/94 95/95/95
f 96/96/96 93/93/93 95/95/95
f 97/97/97 96/96/96 95/95/95
f 98/98/98 97/97/97 95/95/95
f 99/99/99 97/97/97 98/98/98
f 100/100/100 99/99/99 98/98/98
f 103/103/103 102/102/102 101/101/101
f 102/102/102 104/104/104 101/101/101
f 105/105/105 104/104/104 102/102/102
f 102/102/102 106/106/106 105/105/105
f 106/106/106 107/107/107 105/105/105
f 106/106/106 108/108/108 107/107/107
f 108/108/108 109/109/109 107/107/107
f 108/108/108 110/110/110 109/109/109
f 110/110/110 111/111/111 109/109/109
f 110/110/110 112/112/112 111/111/111
f 112/112/112 113/113/113 111/111/111
f 112/112/112 114/114/114 113/113/113
f 114/114/114 115/115/115 113/113/113
f 114/114/114 116/116/116 115/115/115
f 116/116/116 117/117/117 115/115/115
f 118/118/118 117/117/117 116/116/116
f 119/119/119 118/118/118 116/116/116
f 116/116/116 120/120/120 119/119/119
f 120/120/120 121/121/121 119/119/119
f 121/121/121 122/122/122 119/119/119
f 121/121/121 123/123/123 122/122/122
f 123/123/123 124/124/124 122/122/122
f 125/125/125 124/124/124 123/123/123
f 125/125/125 123/123/123 126/126/126
f 126/126/126 127/127/127 125/125/125
f 126/126/126 128/128/128 127/127/127
f 128/128/128 129/129/129 127/127/127
f 132/132/132 131/131/131 130/130/130
f 130/130/130 131/131/131 133/133/133
f 131/131/131 134/134/134 133/133/133
f 135/135/135 133/133/133 134/134/134
f 136/136/136 134/134/134 131/131/131
f 135/135/135 137/137/137 133/133/133
f 138/138/138 136/136/136 131/131/131
f 137/137/137 139/139/139 133/133/133
f 138/138/138 131/131/131 140/140/140
f 137/137/137 141/141/141 139/139/139
f 142/142/142 138/138/138 140/140/140
f 141/141/141 143/143/143 139/139/139
f 144/144/144 143/143/143 141/141/141
f 144/144/144 141/141/141 145/145/145
f 141/141/141 146/146/146 145/145/145
f 147/147/147 145/145/145 146/146/146
f 147/147/147 148/148/148 145/145/145
f 149/149/149 148/148/148 147/147/147
f 149/149/149 150/150/150 148/148/148
f 151/151/151 150/150/150 149/149/149
f 152/152/152 151/151/151 149/149/149
f 153/153/153 152/152/152 149/149/149
f 154/154/154 152/152/152 153/153/153
f 154/154/154 155/155/155 152/152/152
f 156/156/156 155/155/155 154/154/154
f 156/156/156 157/157/157 155/155/155
f 155/155/155 157/157/157 140/140/140
f 142/142/142 140/140/140 157/157/157
f 155/155/155 140/140/140 158/158/158
f 159/159/159 158/158/158 140/140/140
f 162/162/162 161/161/161 160/160/160
f 163/163/163 162/162/162 160/160/160
f 163/163/163 164/164/164 162/162/162
f 164/164/164 165/165/165 162/162/162
f 164/164/164 166/166/166 165/165/165
f 166/166/166 167/167/167 165/165/165
f 168/168/168 167/167/167 166/166/166
f 169/169/169 168/168/168 166/166/166
f 170/170/170 168/168/168 169/169/169
f 171/171/171 170/170/170 169/169/169
f 170/170/170 171/171/171 172/172/172
f 173/173/173 170/170/170 172/172/172
f 174/174/174 173/173/173 172/172/172
f 175/175/175 174/174/174 172/172/172
f 176/176/176 174/174/174 175/175/175
f 177/177/177 176/176/176 175/175/175
f 177/177/177 178/178/178 176/176/176
f 178/178/178 179/179/179 176/176/176
f 178/178/178 180/180/180 179/179/179
f 180/180/180 181/181/181 179/179/179
f 180/180/180 182/182/182 181/181/181
f 182/182/182 183/183/183 181/181/181
f 184/184/184 183/183/183 182/182/182
f 160/160/160 184/184/184 182/182/182
f 187/187/187 186/186/186 185/185/185
f 186/186/186 187/187/187 188/188/188
f 189/189/189 187/187/187 185/185/185
f 187/187/187 190/190/190 188/188/188
f 191/191/191 189/189/189 185/185/185
f 189/189/189 191/191/191 192/192/192
f 188/188/188 190/190/190 193/193/193
f 190/190/190 194/194/194 193/193/193
f 195/195/195 192/192/192 191/191/191
f 192/192/192 195/195/195 196/196/196
f 197/197/197 193/193/193 194/194/194
f 196/196/196 195/195/195 198/198/198
f 197/197/197 199/199/199 193/193/193
f 199/199/199 197/197/197 200/200/200
f 195/195/195 201/201/201 198/198/198
f 202/202/202 198/198/198 201/201/201
f 200/200/200 197/197/197 203/203/203
f 197/197/197 204/204/204 203/203/203
f 204/204/204 205/205/205 203/203/203
f 198/198/198 202/202/202 206/206/206
f 198/198/198 206/206/206 207/207/207
f 207/207/207 206/206/206 208/208/208
f 203/203/203 205/205/205 209/209/209
f 205/205/205 210/210/210 209/209/209
f 211/211/211 208/208/208 206/206/206
f 208/208/208 211/211/211 212/212/212
f 213/213/213 209/209/209 210/210/210
f 212/212/212 211/211/211 213/213/213
f 213/213/213 214/214/214 209/209/209
f 211/211/211 215/215/215 213/213/213
f 214/214/214 213/213/213 215/215/215
