g SM_CeilingLight_emit
v 0.0444676 -0.103492 -1.254016E-09
v 0.08966784 -0.1434475 -1.324896E-08
v 0.06340477 -0.1434475 0.06340463
v 0.03144338 -0.103492 0.03144323
v 0.03144338 -0.103492 -0.03144323
v 0.08966784 -0.1434475 -1.324896E-08
v 0.0444676 -0.103492 -1.254016E-09
v 0.06340477 -0.1434474 -0.06340463
v 1.553988E-07 -0.103492 -0.04446744
v 1.534807E-07 -0.1434474 -0.08966768
v -0.06340444 -0.1434474 -0.06340463
v -0.03144306 -0.103492 -0.03144323
v -0.08966754 -0.1434475 -1.823774E-08
v -0.04446729 -0.103492 -3.728019E-09
v -0.06340444 -0.1434475 0.06340463
v -0.03144306 -0.103492 0.03144323
v 1.670201E-07 -0.1434475 0.08966766
v 1.621132E-07 -0.103492 0.04446743
v 0.06340477 -0.1434475 0.06340463
v 0.03144338 -0.103492 0.03144323
v 0.09010367 -0.3939807 -9.13336E-08
v 0.08966784 -0.1434475 -1.324896E-08
v 0.06340477 -0.1434474 -0.06340463
v 0.06371294 -0.3939807 -0.06371289
v 1.534807E-07 -0.1434474 -0.08966768
v 0.03627552 -0.4216106 -0.03627547
v 0.05130129 -0.4216106 -9.129033E-08
v 1.518052E-07 -0.4277054 -1.020791E-07
v 0.03627551 -0.4216106 0.0362753
v 1.416625E-07 -0.3939807 -0.09010359
v -0.06340444 -0.1434474 -0.06340463
v 1.154285E-07 -0.4216106 -0.05130123
v -0.06371262 -0.3939807 -0.06371289
v -0.08966754 -0.1434475 -1.823774E-08
v -0.03627521 -0.4216106 -0.03627546
v -0.09010336 -0.3939807 -1.017367E-07
v -0.06371262 -0.3939807 0.0637127
v -0.06340444 -0.1434475 0.06340463
v 1.670201E-07 -0.1434475 0.08966766
v -0.05130099 -0.4216106 -1.130013E-07
v 1.704973E-07 -0.3939807 0.0901034
v 0.06340477 -0.1434475 0.06340463
v 0.06371294 -0.3939807 0.06371272
v -0.03627521 -0.4216106 0.03627527
v 1.751336E-07 -0.4216106 0.05130102
v 0.09010367 -0.3939807 -9.13336E-08
v 0.06340477 -0.1434475 0.06340463
v 0.08966784 -0.1434475 -1.324896E-08
v 0.06371294 -0.3939807 0.06371272
v 0.05130129 -0.4216106 -9.129033E-08
v 0.03627551 -0.4216106 0.0362753
vt 0.2200928 0.9716797
vt 0.1954346 0.9731445
vt 0.2055664 0.8984375
vt 0.2243652 0.9047852
vt 0.220459 0.9609375
vt 0.1954346 0.9731445
vt 0.2200928 0.9716797
vt 0.1984863 0.9584961
vt 0.2213135 0.9511719
vt 0.2011719 0.9477539
vt 0.2028809 0.9384766
vt 0.2220459 0.9414063
vt 0.2039795 0.9296875
vt 0.2225342 0.9321289
vt 0.2044678 0.9208984
vt 0.2229004 0.9228516
vt 0.2045898 0.9106445
vt 0.2233887 0.9135742
vt 0.2055664 0.8984375
vt 0.2243652 0.9047852
vt 0.197876 0.956543
vt 0.2287598 0.9819336
vt 0.2321777 0.9658203
vt 0.2093506 0.9516602
vt 0.2351074 0.9541016
vt 0.2060547 0.9448242
vt 0.197876 0.9453125
vt 0.2045898 0.9331055
vt 0.2034912 0.9208984
vt 0.2155762 0.9458008
vt 0.2370605 0.9438477
vt 0.2111816 0.9418945
vt 0.2188721 0.9394531
vt 0.2382813 0.934082
vt 0.2139893 0.9375
vt 0.2198486 0.9331055
vt 0.2189941 0.9262695
vt 0.2387695 0.9238281
vt 0.2388916 0.9130859
vt 0.2148438 0.9331055
vt 0.215332 0.9189453
vt 0.2401123 0.8989258
vt 0.2067871 0.9111328
vt 0.2137451 0.9282227
vt 0.2103271 0.9238281
vt 0.197876 0.956543
vt 0.2401123 0.8989258
vt 0.2287598 0.9819336
vt 0.2067871 0.9111328
vt 0.197876 0.9453125
vt 0.2034912 0.9208984
vn 0.6767578 0.7363281 -0.02101135
vn 0.9194336 0.3928223 0
vn 0.6503906 0.3920898 0.6503906
vn 0.4824219 0.730957 0.4824219
vn 0.4824219 0.730957 -0.4824219
vn 0.9194336 0.3928223 0
vn 0.6767578 0.7363281 -0.02101135
vn 0.6503906 0.392334 -0.6503906
vn 0 0.7299805 -0.6835938
vn 0 0.3933105 -0.9194336
vn -0.6503906 0.3918457 -0.6503906
vn -0.4919434 0.7368164 -0.4638672
vn -0.9194336 0.3937988 0
vn -0.6767578 0.7358398 0.02104187
vn -0.6503906 0.392334 0.6503906
vn -0.4638672 0.7368164 0.4921875
vn 0 0.3937988 0.9194336
vn 0 0.7299805 0.6835938
vn 0.6503906 0.3920898 0.6503906
vn 0.4824219 0.730957 0.4824219
vn 0.9003906 -0.4348145 0
vn 0.9194336 0.3928223 0
vn 0.6503906 0.392334 -0.6503906
vn 0.637207 -0.4328613 -0.637207
vn 0 0.3933105 -0.9194336
vn 0.2753906 -0.9208984 -0.2753906
vn 0.3864746 -0.9223633 0
vn 0 -1 0
vn 0.2753906 -0.9208984 0.2753906
vn 0 -0.4348145 -0.9003906
vn -0.6503906 0.3918457 -0.6503906
vn 0 -0.9223633 -0.3864746
vn -0.637207 -0.4328613 -0.637207
vn -0.9194336 0.3937988 0
vn -0.2756348 -0.9208984 -0.2756348
vn -0.9003906 -0.4350586 0
vn -0.6376953 -0.4328613 0.6376953
vn -0.6503906 0.392334 0.6503906
vn 0 0.3937988 0.9194336
vn -0.3864746 -0.9223633 0
vn 0 -0.4348145 0.9003906
vn 0.6503906 0.3920898 0.6503906
vn 0.637207 -0.4331055 0.637207
vn -0.2756348 -0.9208984 0.2756348
vn 0 -0.9223633 0.3857422
vn 0.9003906 -0.4348145 0
vn 0.6503906 0.3920898 0.6503906
vn 0.9194336 0.3928223 0
vn 0.637207 -0.4331055 0.637207
vn 0.3864746 -0.9223633 0
vn 0.2753906 -0.9208984 0.2753906
g SM_CeilingLight_emit_0
f 3/3/3 2/2/2 1/1/1
f 4/4/4 3/3/3 1/1/1
f 7/7/7 6/6/6 5/5/5
f 6/6/6 8/8/8 5/5/5
f 5/5/5 8/8/8 9/9/9
f 8/8/8 10/10/10 9/9/9
f 10/10/10 11/11/11 9/9/9
f 11/11/11 12/12/12 9/9/9
f 12/12/12 11/11/11 13/13/13
f 14/14/14 12/12/12 13/13/13
f 14/14/14 13/13/13 15/15/15
f 16/16/16 14/14/14 15/15/15
f 15/15/15 17/17/17 16/16/16
f 17/17/17 18/18/18 16/16/16
f 18/18/18 17/17/17 19/19/19
f 20/20/20 18/18/18 19/19/19
f 23/23/23 22/22/22 21/21/21
f 24/24/24 23/23/23 21/21/21
f 25/25/25 23/23/23 24/24/24
f 24/24/24 21/21/21 26/26/26
f 21/21/21 27/27/27 26/26/26
f 26/26/26 27/27/27 28/28/28
f 29/29/29 28/28/28 27/27/27
f 30/30/30 25/25/25 24/24/24
f 30/30/30 24/24/24 26/26/26
f 31/31/31 25/25/25 30/30/30
f 32/32/32 26/26/26 28/28/28
f 32/32/32 30/30/30 26/26/26
f 33/33/33 31/31/31 30/30/30
f 34/34/34 31/31/31 33/33/33
f 32/32/32 35/35/35 30/30/30
f 35/35/35 33/33/33 30/30/30
f 35/35/35 32/32/32 28/28/28
f 36/36/36 34/34/34 33/33/33
f 36/36/36 33/33/33 35/35/35
f 34/34/34 36/36/36 37/37/37
f 38/38/38 34/34/34 37/37/37
f 39/39/39 38/38/38 37/37/37
f 40/40/40 36/36/36 35/35/35
f 40/40/40 35/35/35 28/28/28
f 37/37/37 36/36/36 40/40/40
f 41/41/41 39/39/39 37/37/37
f 42/42/42 39/39/39 41/41/41
f 43/43/43 42/42/42 41/41/41
f 29/29/29 43/43/43 41/41/41
f 44/44/44 37/37/37 40/40/40
f 44/44/44 40/40/40 28/28/28
f 41/41/41 37/37/37 44/44/44
f 29/29/29 45/45/45 28/28/28
f 45/45/45 44/44/44 28/28/28
f 45/45/45 41/41/41 44/44/44
f 45/45/45 29/29/29 41/41/41
f 48/48/48 47/47/47 46/46/46
f 47/47/47 49/49/49 46/46/46
f 46/46/46 49/49/49 50/50/50
f 49/49/49 51/51/51 50/50/50
