g SM_Exterior_1__Barrier_2
v -0.4738718 0.9621288 -0.0787379
v -0.5261281 2.565617E-08 -0.07873821
v -0.4738718 2.565617E-08 -0.07873821
v -0.5261281 0.9621288 -0.0787379
v -0.5261281 0.9621288 -0.03873794
v -0.4738718 0.9621288 -0.03873794
v -0.4738718 0.02724169 -0.03873824
v -0.5261281 0.02724169 -0.03873824
v -0.5261281 0.9621288 -0.03873794
v -0.4738718 0.9621288 -0.0787379
v -0.4738718 0.9621288 -0.03873794
v -0.5261281 0.9621288 -0.0787379
v -0.4738718 0.02724165 0.07873808
v -0.5261281 -2.565612E-08 0.07873808
v -0.5261281 0.02724165 0.07873808
v -0.4738718 -2.565612E-08 0.07873808
v -0.4738718 0.02724165 0.07873808
v -0.5261281 0.02724165 0.07873808
v -0.4738718 0.02724169 -0.03873824
v -0.5261281 0.02724169 -0.03873824
v -0.5261281 -2.565612E-08 0.07873808
v -0.4738718 -2.565612E-08 0.07873808
v -0.5261281 2.565617E-08 -0.07873821
v -0.4738718 2.565617E-08 -0.07873821
v -0.4751448 0.8049018 -0.05513198
v -0.4751448 0.8043104 -0.06852681
v -0.4751448 0.8442755 -0.06852681
v -0.4751448 0.8442755 -0.05513197
v -0.3923079 0.8049018 -0.05513198
v -0.3923079 0.8442755 -0.05513197
v -0.3923079 0.8442755 -0.06852681
v -0.3923079 0.8043104 -0.06852681
v -0.3923079 0.8442755 -0.05513197
v -0.4751448 0.8442755 -0.05513197
v -0.4751448 0.8442755 -0.06852681
v -0.3923079 0.8442755 -0.06852681
v -0.4751448 0.8442755 -0.06852681
v -0.4751448 0.8043104 -0.06852681
v -0.3923079 0.8442755 -0.06852681
v -0.3923079 0.8043104 -0.06852681
v -0.4751448 0.8049018 -0.05513198
v -0.4751448 0.8442755 -0.05513197
v -0.3923079 0.8049018 -0.05513198
v -0.3923079 0.8442755 -0.05513197
v -0.4751448 0.8043104 -0.06852681
v -0.4751448 0.8049018 -0.05513198
v -0.3923079 0.8043104 -0.06852681
v -0.3923079 0.8049018 -0.05513198
v -0.4537598 0.4168677 -0.08731253
v -0.4537598 0.4198276 -0.06336585
v 0.952091 0.4168677 -0.08731253
v 0.952091 0.4198276 -0.06336585
v 0.952091 0.6168677 -0.06336579
v -0.4537598 0.6168677 -0.06336579
v -0.4537598 0.6168677 -0.08731247
v 0.952091 0.6168677 -0.08731247
v -0.4751448 0.4795356 -0.05513209
v -0.4751448 0.4789442 -0.06852693
v -0.4751448 0.5189092 -0.06852692
v -0.4751448 0.5189092 -0.05513207
v -0.3923079 0.4795356 -0.05513209
v -0.3923079 0.5189092 -0.05513207
v -0.3923079 0.5189092 -0.06852692
v -0.3923079 0.4789442 -0.06852693
v -0.3923079 0.5189092 -0.05513207
v -0.4751448 0.5189092 -0.05513207
v -0.4751448 0.5189092 -0.06852692
v -0.3923079 0.5189092 -0.06852692
v -0.4751448 0.5189092 -0.06852692
v -0.4751448 0.4789442 -0.06852693
v -0.3923079 0.5189092 -0.06852692
v -0.3923079 0.4789442 -0.06852693
v -0.4751448 0.4795356 -0.05513209
v -0.4751448 0.5189092 -0.05513207
v -0.3923079 0.4795356 -0.05513209
v -0.3923079 0.5189092 -0.05513207
v -0.4751448 0.4789442 -0.06852693
v -0.4751448 0.4795356 -0.05513209
v -0.3923079 0.4789442 -0.06852693
v -0.3923079 0.4795356 -0.05513209
v 0.952091 0.9187026 -0.06336569
v -0.4537597 0.9187026 -0.06336569
v -0.4537597 0.9157425 -0.08731234
v 0.952091 0.9157425 -0.08731234
v -0.4537597 0.7187026 -0.08731244
v -0.4537597 0.7187026 -0.06336577
v 0.952091 0.7187026 -0.08731244
v 0.952091 0.7187026 -0.06336577
v 1.026128 0.9621288 -0.0787379
v 0.9738719 2.565617E-08 -0.07873821
v 1.026128 2.565617E-08 -0.07873821
v 0.9738719 0.9621288 -0.0787379
v 0.9738719 0.9621288 -0.03873794
v 1.026128 0.9621288 -0.03873794
v 1.026128 0.02724169 -0.03873824
v 0.9738719 0.02724169 -0.03873824
v 0.9738719 0.9621288 -0.03873794
v 1.026128 0.9621288 -0.0787379
v 1.026128 0.9621288 -0.03873794
v 0.9738719 0.9621288 -0.0787379
v 1.026128 0.02724165 0.07873808
v 0.9738719 -2.565612E-08 0.07873808
v 0.9738719 0.02724165 0.07873808
v 1.026128 -2.565612E-08 0.07873808
v 1.026128 0.02724165 0.07873808
v 0.9738719 0.02724165 0.07873808
v 1.026128 0.02724169 -0.03873824
v 0.9738719 0.02724169 -0.03873824
v 0.9738719 -2.565612E-08 0.07873808
v 1.026128 -2.565612E-08 0.07873808
v 0.9738719 2.565617E-08 -0.07873821
v 1.026128 2.565617E-08 -0.07873821
v 0.976353 0.8049018 -0.05513198
v 0.976353 0.8442755 -0.05513197
v 0.976353 0.8442755 -0.06852681
v 0.976353 0.8043104 -0.06852681
v 0.8935161 0.8049018 -0.05513198
v 0.8935161 0.8043104 -0.06852681
v 0.8935161 0.8442755 -0.06852681
v 0.8935161 0.8442755 -0.05513197
v 0.8935161 0.8442755 -0.05513197
v 0.976353 0.8442755 -0.06852681
v 0.976353 0.8442755 -0.05513197
v 0.8935161 0.8442755 -0.06852681
v 0.976353 0.8043104 -0.06852681
v 0.8935161 0.8442755 -0.06852681
v 0.8935161 0.8043104 -0.06852681
v 0.976353 0.8442755 -0.06852681
v 0.976353 0.8442755 -0.05513197
v 0.8935161 0.8049018 -0.05513198
v 0.8935161 0.8442755 -0.05513197
v 0.976353 0.8049018 -0.05513198
v 0.976353 0.8049018 -0.05513198
v 0.8935161 0.8043104 -0.06852681
v 0.8935161 0.8049018 -0.05513198
v 0.976353 0.8043104 -0.06852681
v 0.976353 0.4795356 -0.05513209
v 0.976353 0.5189092 -0.05513207
v 0.976353 0.5189092 -0.06852692
v 0.976353 0.4789442 -0.06852693
v 0.8935161 0.4795356 -0.05513209
v 0.8935161 0.4789442 -0.06852693
v 0.8935161 0.5189092 -0.06852692
v 0.8935161 0.5189092 -0.05513207
v 0.8935161 0.5189092 -0.05513207
v 0.976353 0.5189092 -0.06852692
v 0.976353 0.5189092 -0.05513207
v 0.8935161 0.5189092 -0.06852692
v 0.976353 0.4789442 -0.06852693
v 0.8935161 0.5189092 -0.06852692
v 0.8935161 0.4789442 -0.06852693
v 0.976353 0.5189092 -0.06852692
v 0.976353 0.5189092 -0.05513207
v 0.8935161 0.4795356 -0.05513209
v 0.8935161 0.5189092 -0.05513207
v 0.976353 0.4795356 -0.05513209
v 0.976353 0.4795356 -0.05513209
v 0.8935161 0.4789442 -0.06852693
v 0.8935161 0.4795356 -0.05513209
v 0.976353 0.4789442 -0.06852693
v -0.4537598 0.6168677 -0.08731247
v -0.4537598 0.6168677 -0.06336579
v -0.4509583 0.5183477 -0.06336582
v -0.4509583 0.5168676 -0.0873125
v -0.4537598 0.4198276 -0.06336585
v -0.4537598 0.4168677 -0.08731253
v 0.9548924 0.4804045 -0.06336582
v 0.952091 0.6168677 -0.06336579
v 0.952091 0.6168677 -0.08731247
v 0.9548924 0.4789244 -0.08731251
v 0.952091 0.4198276 -0.06336585
v 0.952091 0.4168677 -0.08731253
v -0.4537597 0.7187026 -0.06336577
v -0.4537597 0.7187026 -0.08731244
v -0.4509583 0.8172226 -0.0873124
v -0.4509583 0.8187025 -0.06336572
v -0.4537597 0.9157425 -0.08731234
v -0.4537597 0.9187026 -0.06336569
v 0.9548924 0.8551658 -0.08731237
v 0.952091 0.7187026 -0.08731244
v 0.952091 0.7187026 -0.06336577
v 0.9548924 0.8566458 -0.06336571
v 0.952091 0.9157425 -0.08731234
v 0.952091 0.9187026 -0.06336569
v -0.5261281 0.02724169 -0.03873824
v -0.5261281 0.9621288 -0.0787379
v -0.5261281 0.9621288 -0.03873794
v -0.5261281 2.565617E-08 -0.07873821
v -0.5261281 -2.565612E-08 0.07873808
v -0.5261281 0.02724165 0.07873808
v -0.4738718 0.02724169 -0.03873824
v -0.4738718 0.9621288 -0.03873794
v -0.4738718 0.9621288 -0.0787379
v -0.4738718 2.565617E-08 -0.07873821
v -0.4738718 -2.565612E-08 0.07873808
v -0.4738718 0.02724165 0.07873808
v -0.4537598 0.4198276 -0.06336585
v -0.4509583 0.5183477 -0.06336582
v 0.952091 0.4198276 -0.06336585
v 0.9548924 0.4804045 -0.06336582
v 0.952091 0.6168677 -0.06336579
v -0.4537598 0.6168677 -0.06336579
v -0.4537598 0.6168677 -0.08731247
v -0.4509583 0.5168676 -0.0873125
v 0.952091 0.6168677 -0.08731247
v 0.9548924 0.4789244 -0.08731251
v 0.952091 0.4168677 -0.08731253
v -0.4537598 0.4168677 -0.08731253
v -0.4537597 0.9157425 -0.08731234
v -0.4509583 0.8172226 -0.0873124
v 0.952091 0.9157425 -0.08731234
v 0.9548924 0.8551658 -0.08731237
v 0.952091 0.7187026 -0.08731244
v -0.4537597 0.7187026 -0.08731244
v -0.4537597 0.7187026 -0.06336577
v -0.4509583 0.8187025 -0.06336572
v 0.952091 0.7187026 -0.06336577
v 0.9548924 0.8566458 -0.06336571
v 0.952091 0.9187026 -0.06336569
v -0.4537597 0.9187026 -0.06336569
v 0.9738719 0.02724169 -0.03873824
v 0.9738719 0.9621288 -0.0787379
v 0.9738719 0.9621288 -0.03873794
v 0.9738719 2.565617E-08 -0.07873821
v 0.9738719 -2.565612E-08 0.07873808
v 0.9738719 0.02724165 0.07873808
v 1.026128 0.02724169 -0.03873824
v 1.026128 0.9621288 -0.03873794
v 1.026128 0.9621288 -0.0787379
v 1.026128 2.565617E-08 -0.07873821
v 1.026128 -2.565612E-08 0.07873808
v 1.026128 0.02724165 0.07873808
vt 0.002790451 0.407959
vt 0.1168823 0.4138184
vt 0.1168823 0.407959
vt 0.002790451 0.4138184
vt 0.001457214 0.4174805
vt 0.001457214 0.4233398
vt 0.1123047 0.4233398
vt 0.1123047 0.4174805
vt 0.06781006 0.4472656
vt 0.06192017 0.442627
vt 0.06192017 0.4472656
vt 0.06781006 0.442627
vt 0.05130005 0.4328613
vt 0.05453491 0.427002
vt 0.05130005 0.427002
vt 0.05453491 0.4328613
vt 0.059021 0.4487305
vt 0.059021 0.4428711
vt 0.04580688 0.4487305
vt 0.04580688 0.4428711
vt 0.03710938 0.449707
vt 0.03710938 0.4438477
vt 0.01937866 0.449707
vt 0.01937866 0.4438477
vt 0.06549072 0.440918
vt 0.06695557 0.4411621
vt 0.06695557 0.4365234
vt 0.06549072 0.4365234
vt 0.06002808 0.427002
vt 0.06002808 0.4313965
vt 0.06155396 0.4313965
vt 0.06155396 0.4267578
vt 0.0637207 0.4509277
vt 0.07305908 0.4509277
vt 0.07305908 0.4494629
vt 0.0637207 0.4494629
vt 0.1278076 0.4855957
vt 0.1278076 0.4812012
vt 0.1185303 0.4855957
vt 0.1185303 0.4812012
vt 0.0607605 0.4394531
vt 0.0607605 0.4350586
vt 0.05142212 0.4394531
vt 0.05142212 0.4350586
vt 0.06811523 0.4262695
vt 0.06658936 0.4262695
vt 0.06811523 0.435791
vt 0.06658936 0.435791
vt 0.1466064 0.3769531
vt 0.1439209 0.3769531
vt 0.1466064 0.489502
vt 0.1439209 0.489502
vt 0.2033691 0.4919434
vt 0.2033691 0.3793945
vt 0.2005615 0.3793945
vt 0.2005615 0.4919434
vt 0.06549072 0.440918
vt 0.06695557 0.4411621
vt 0.06695557 0.4365234
vt 0.06549072 0.4365234
vt 0.06002808 0.427002
vt 0.06002808 0.4313965
vt 0.06155396 0.4313965
vt 0.06155396 0.4267578
vt 0.0637207 0.4509277
vt 0.07305908 0.4509277
vt 0.07305908 0.4494629
vt 0.0637207 0.4494629
vt 0.1278076 0.4855957
vt 0.1278076 0.4812012
vt 0.1185303 0.4855957
vt 0.1185303 0.4812012
vt 0.0607605 0.4394531
vt 0.0607605 0.4350586
vt 0.05142212 0.4394531
vt 0.05142212 0.4350586
vt 0.06811523 0.4262695
vt 0.06658936 0.4262695
vt 0.06811523 0.435791
vt 0.06658936 0.435791
vt 0.1466064 0.489502
vt 0.1466064 0.3769531
vt 0.1439209 0.3769531
vt 0.1439209 0.489502
vt 0.2033691 0.3793945
vt 0.2005615 0.3793945
vt 0.2033691 0.4919434
vt 0.2005615 0.4919434
vt 0.002790451 0.407959
vt 0.1168823 0.4138184
vt 0.1168823 0.407959
vt 0.002790451 0.4138184
vt 0.001457214 0.4174805
vt 0.001457214 0.4233398
vt 0.1123047 0.4233398
vt 0.1123047 0.4174805
vt 0.06781006 0.4472656
vt 0.06192017 0.442627
vt 0.06192017 0.4472656
vt 0.06781006 0.442627
vt 0.05130005 0.4328613
vt 0.05453491 0.427002
vt 0.05130005 0.427002
vt 0.05453491 0.4328613
vt 0.059021 0.4487305
vt 0.059021 0.4428711
vt 0.04580688 0.4487305
vt 0.04580688 0.4428711
vt 0.03710938 0.449707
vt 0.03710938 0.4438477
vt 0.01937866 0.449707
vt 0.01937866 0.4438477
vt 0.06549072 0.440918
vt 0.06549072 0.4365234
vt 0.06695557 0.4365234
vt 0.06695557 0.4411621
vt 0.06002808 0.427002
vt 0.06155396 0.4267578
vt 0.06155396 0.4313965
vt 0.06002808 0.4313965
vt 0.0637207 0.4509277
vt 0.07305908 0.4494629
vt 0.07305908 0.4509277
vt 0.0637207 0.4494629
vt 0.1278076 0.4812012
vt 0.1185303 0.4855957
vt 0.1185303 0.4812012
vt 0.1278076 0.4855957
vt 0.0607605 0.4350586
vt 0.05142212 0.4394531
vt 0.05142212 0.4350586
vt 0.0607605 0.4394531
vt 0.06658936 0.4262695
vt 0.06811523 0.435791
vt 0.06658936 0.435791
vt 0.06811523 0.4262695
vt 0.06549072 0.440918
vt 0.06549072 0.4365234
vt 0.06695557 0.4365234
vt 0.06695557 0.4411621
vt 0.06002808 0.427002
vt 0.06155396 0.4267578
vt 0.06155396 0.4313965
vt 0.06002808 0.4313965
vt 0.0637207 0.4509277
vt 0.07305908 0.4494629
vt 0.07305908 0.4509277
vt 0.0637207 0.4494629
vt 0.1278076 0.4812012
vt 0.1185303 0.4855957
vt 0.1185303 0.4812012
vt 0.1278076 0.4855957
vt 0.0607605 0.4350586
vt 0.05142212 0.4394531
vt 0.05142212 0.4350586
vt 0.0607605 0.4394531
vt 0.06658936 0.4262695
vt 0.06811523 0.435791
vt 0.06658936 0.435791
vt 0.06811523 0.4262695
vt 0.002985001 0.449707
vt 0.005680084 0.449707
vt 0.005680084 0.4387207
vt 0.002985001 0.4384766
vt 0.005680084 0.4277344
vt 0.002985001 0.4272461
vt 0.0149765 0.4418945
vt 0.0149765 0.4267578
vt 0.01228333 0.4267578
vt 0.01228333 0.4421387
vt 0.0149765 0.4487305
vt 0.01228333 0.4492188
vt 0.002985001 0.449707
vt 0.005680084 0.449707
vt 0.005680084 0.4387207
vt 0.002985001 0.4384766
vt 0.005680084 0.4277344
vt 0.002985001 0.4272461
vt 0.0149765 0.4418945
vt 0.0149765 0.4267578
vt 0.01228333 0.4267578
vt 0.01228333 0.4421387
vt 0.0149765 0.4487305
vt 0.01228333 0.4492188
vt 0.1293945 0.4909668
vt 0.1339111 0.380127
vt 0.1293945 0.380127
vt 0.1339111 0.4941406
vt 0.1161499 0.4941406
vt 0.1161499 0.4909668
vt 0.1407471 0.4909668
vt 0.1407471 0.380127
vt 0.1362305 0.380127
vt 0.1362305 0.4941406
vt 0.1539307 0.4941406
vt 0.1539307 0.4909668
vt 0.001636505 0.4528809
vt 0.001951218 0.4638672
vt 0.1141357 0.4528809
vt 0.1144409 0.4594727
vt 0.1141357 0.4748535
vt 0.001636505 0.4748535
vt 0.001636505 0.4763184
vt 0.001951218 0.4875488
vt 0.1141357 0.4763184
vt 0.1144409 0.4916992
vt 0.1141357 0.4987793
vt 0.001636505 0.4987793
vt 0.001636505 0.4528809
vt 0.001951218 0.4638672
vt 0.1141357 0.4528809
vt 0.1144409 0.4594727
vt 0.1141357 0.4748535
vt 0.001636505 0.4748535
vt 0.001636505 0.4763184
vt 0.001951218 0.4875488
vt 0.1141357 0.4763184
vt 0.1144409 0.4916992
vt 0.1141357 0.4987793
vt 0.001636505 0.4987793
vt 0.1293945 0.4909668
vt 0.1339111 0.380127
vt 0.1293945 0.380127
vt 0.1339111 0.4941406
vt 0.1161499 0.4941406
vt 0.1161499 0.4909668
vt 0.1407471 0.4909668
vt 0.1407471 0.380127
vt 0.1362305 0.380127
vt 0.1362305 0.4941406
vt 0.1539307 0.4941406
vt 0.1539307 0.4909668
vn 0 0 -1
vn 0 0 -1
vn 0 0 -1
vn 0 0 -1
vn 0 0 1
vn 0 0 1
vn 0 0 1
vn 0 0 1
vn 0 1 0
vn 0 1 0
vn 0 1 0
vn 0 1 0
vn 0 0 1
vn 0 0 1
vn 0 0 1
vn 0 0 1
vn 0 1 0
vn 0 1 0
vn 0 1 0
vn 0 1 0
vn 0 -1 0
vn 0 -1 0
vn 0 -1 0
vn 0 -1 0
vn -1 0 0
vn -1 0 0
vn -1 0 0
vn -1 0 0
vn 1 0 0
vn 1 0 0
vn 1 0 0
vn 1 0 0
vn 0 1 0
vn 0 1 0
vn 0 1 0
vn 0 1 0
vn 0 0 -1
vn 0 0 -1
vn 0 0 -1
vn 0 0 -1
vn 0 0 1
vn 0 0 1
vn 0 0 1
vn 0 0 1
vn 0 -0.9990234 0.04721069
vn 0 -0.9990234 0.04705811
vn 0 -0.9990234 0.04708862
vn 0 -0.9990234 0.04718018
vn 0 -0.9921875 0.1259766
vn 0 -0.9921875 0.1259766
vn 0 -0.9921875 0.1259766
vn 0 -0.9921875 0.1258545
vn 0 1 0
vn 0 1 0
vn 0 1 0
vn 0 1 0
vn -1 0 0
vn -1 0 0
vn -1 0 0
vn -1 0 0
vn 1 0 0
vn 1 0 0
vn 1 0 0
vn 1 0 0
vn 0 1 0
vn 0 1 0
vn 0 1 0
vn 0 1 0
vn 0 0 -1
vn 0 0 -1
vn 0 0 -1
vn 0 0 -1
vn 0 0 1
vn 0 0 1
vn 0 0 1
vn 0 0 1
vn 0 -0.9990234 0.04721069
vn 0 -0.9990234 0.04718018
vn 0 -0.9990234 0.04708862
vn 0 -0.9990234 0.04708862
vn 0 0.9921875 -0.1258545
vn 0 0.9921875 -0.1259766
vn 0 0.9921875 -0.1259766
vn 0 0.9921875 -0.1258545
vn 0 -1 0
vn 0 -1 0
vn 0 -1 0
vn 0 -1 0
vn 0 0 -1
vn 0 0 -1
vn 0 0 -1
vn 0 0 -1
vn 0 0 1
vn 0 0 1
vn 0 0 1
vn 0 0 1
vn 0 1 0
vn 0 1 0
vn 0 1 0
vn 0 1 0
vn 0 0 1
vn 0 0 1
vn 0 0 1
vn 0 0 1
vn 0 1 0
vn 0 1 0
vn 0 1 0
vn 0 1 0
vn 0 -1 0
vn 0 -1 0
vn 0 -1 0
vn 0 -1 0
vn 1 0 0
vn 1 0 0
vn 1 0 0
vn 1 0 0
vn -1 0 0
vn -1 0 0
vn -1 0 0
vn -1 0 0
vn 0 1 0
vn 0 1 0
vn 0 1 0
vn 0 1 0
vn 0 0 -1
vn 0 0 -1
vn 0 0 -1
vn 0 0 -1
vn 0 0 1
vn 0 0 1
vn 0 0 1
vn 0 0 1
vn 0 -0.9990234 0.04705811
vn 0 -0.9990234 0.04708862
vn 0 -0.9990234 0.04718018
vn 0 -0.9990234 0.04714966
vn 1 0 0
vn 1 0 0
vn 1 0 0
vn 1 0 0
vn -1 0 0
vn -1 0 0
vn -1 0 0
vn -1 0 0
vn 0 1 0
vn 0 1 0
vn 0 1 0
vn 0 1 0
vn 0 0 -1
vn 0 0 -1
vn 0 0 -1
vn 0 0 -1
vn 0 0 1
vn 0 0 1
vn 0 0 1
vn 0 0 1
vn 0 -0.9990234 0.04718018
vn 0 -0.9990234 0.04708862
vn 0 -0.9990234 0.04708862
vn 0 -0.9990234 0.04718018
vn -0.9995117 -0.03152466 0
vn -0.9995117 -0.03149414 0
vn -1 0.0001547337 1.275539E-05
vn -1 0.0003061295 -4.976988E-05
vn -0.9995117 0.03149414 0
vn -0.9995117 0.03146362 0
vn 1 -0.007965088 2.646446E-05
vn 0.9995117 0.02349854 0
vn 0.9995117 0.02346802 0
vn 1 -0.01573181 2.396107E-05
vn 0.9990234 -0.04721069 0.007865906
vn 0.9990234 -0.04718018 0.007835388
vn -0.9995117 0.03140259 0
vn -0.9995117 0.03143311 0
vn -1 -0.0001546144 -1.251698E-05
vn -1 -7.212162E-05 1.239777E-05
vn -0.9995117 -0.03149414 0
vn -0.9995117 -0.03146362 1.209974E-05
vn 1 0.007965088 -1.865625E-05
vn 0.9995117 -0.02359009 0
vn 0.9995117 -0.02355957 0
vn 1 0.01571655 -2.008677E-05
vn 0.9990234 0.04721069 -0.007911682
vn 0.9990234 0.04711914 -0.007801056
vn -1 0 0
vn -1 0 0
vn -1 0 0
vn -1 0 0
vn -1 0 0
vn -1 0 0
vn 1 0 0
vn 1 0 0
vn 1 0 0
vn 1 0 0
vn 1 0 0
vn 1 0 0
vn 0 0 1
vn 0 0 1
vn 0 0 1
vn 0 0 1
vn 0 0 1
vn 0 0 1
vn 0 0 -1
vn 0 0 -1
vn 0 0 -1
vn 0 0 -1
vn 0 0 -1
vn 0 0 -1
vn 0 0 -1
vn 0 0 -1
vn 0 0 -1
vn 0 0 -1
vn 0 0 -1
vn 0 0 -1
vn 0 0 1
vn 0 0 1
vn 0 0 1
vn 0 0 1
vn 0 0 1
vn 0 0 1
vn -1 0 0
vn -1 0 0
vn -1 0 0
vn -1 0 0
vn -1 0 0
vn -1 0 0
vn 1 0 0
vn 1 0 0
vn 1 0 0
vn 1 0 0
vn 1 0 0
vn 1 0 0
g SM_Exterior_1__Barrier_2_0
f 3/3/3 2/2/2 1/1/1
f 4/4/4 1/1/1 2/2/2
f 7/7/7 6/6/6 5/5/5
f 5/5/5 8/8/8 7/7/7
f 11/11/11 10/10/10 9/9/9
f 10/10/10 12/12/12 9/9/9
f 15/15/15 14/14/14 13/13/13
f 14/14/14 16/16/16 13/13/13
f 19/19/19 18/18/18 17/17/17
f 19/19/19 20/20/20 18/18/18
f 23/23/23 22/22/22 21/21/21
f 23/23/23 24/24/24 22/22/22
f 27/27/27 26/26/26 25/25/25
f 25/25/25 28/28/28 27/27/27
f 31/31/31 30/30/30 29/29/29
f 29/29/29 32/32/32 31/31/31
f 35/35/35 34/34/34 33/33/33
f 33/33/33 36/36/36 35/35/35
f 39/39/39 38/38/38 37/37/37
f 38/38/38 39/39/39 40/40/40
f 43/43/43 42/42/42 41/41/41
f 42/42/42 43/43/43 44/44/44
f 47/47/47 46/46/46 45/45/45
f 46/46/46 47/47/47 48/48/48
f 51/51/51 50/50/50 49/49/49
f 50/50/50 51/51/51 52/52/52
f 55/55/55 54/54/54 53/53/53
f 53/53/53 56/56/56 55/55/55
f 59/59/59 58/58/58 57/57/57
f 57/57/57 60/60/60 59/59/59
f 63/63/63 62/62/62 61/61/61
f 61/61/61 64/64/64 63/63/63
f 67/67/67 66/66/66 65/65/65
f 65/65/65 68/68/68 67/67/67
f 71/71/71 70/70/70 69/69/69
f 70/70/70 71/71/71 72/72/72
f 75/75/75 74/74/74 73/73/73
f 74/74/74 75/75/75 76/76/76
f 79/79/79 78/78/78 77/77/77
f 78/78/78 79/79/79 80/80/80
f 83/83/83 82/82/82 81/81/81
f 81/81/81 84/84/84 83/83/83
f 87/87/87 86/86/86 85/85/85
f 86/86/86 87/87/87 88/88/88
f 91/91/91 90/90/90 89/89/89
f 92/92/92 89/89/89 90/90/90
f 95/95/95 94/94/94 93/93/93
f 93/93/93 96/96/96 95/95/95
f 99/99/99 98/98/98 97/97/97
f 98/98/98 100/100/100 97/97/97
f 103/103/103 102/102/102 101/101/101
f 102/102/102 104/104/104 101/101/101
f 107/107/107 106/106/106 105/105/105
f 107/107/107 108/108/108 106/106/106
f 111/111/111 110/110/110 109/109/109
f 111/111/111 112/112/112 110/110/110
f 115/115/115 114/114/114 113/113/113
f 113/113/113 116/116/116 115/115/115
f 119/119/119 118/118/118 117/117/117
f 117/117/117 120/120/120 119/119/119
f 123/123/123 122/122/122 121/121/121
f 122/122/122 124/124/124 121/121/121
f 127/127/127 126/126/126 125/125/125
f 126/126/126 128/128/128 125/125/125
f 131/131/131 130/130/130 129/129/129
f 130/130/130 132/132/132 129/129/129
f 135/135/135 134/134/134 133/133/133
f 134/134/134 136/136/136 133/133/133
f 139/139/139 138/138/138 137/137/137
f 137/137/137 140/140/140 139/139/139
f 143/143/143 142/142/142 141/141/141
f 141/141/141 144/144/144 143/143/143
f 147/147/147 146/146/146 145/145/145
f 146/146/146 148/148/148 145/145/145
f 151/151/151 150/150/150 149/149/149
f 150/150/150 152/152/152 149/149/149
f 155/155/155 154/154/154 153/153/153
f 154/154/154 156/156/156 153/153/153
f 159/159/159 158/158/158 157/157/157
f 158/158/158 160/160/160 157/157/157
f 163/163/163 162/162/162 161/161/161
f 161/161/161 164/164/164 163/163/163
f 165/165/165 163/163/163 164/164/164
f 164/164/164 166/166/166 165/165/165
f 169/169/169 168/168/168 167/167/167
f 167/167/167 170/170/170 169/169/169
f 170/170/170 167/167/167 171/171/171
f 171/171/171 172/172/172 170/170/170
f 175/175/175 174/174/174 173/173/173
f 173/173/173 176/176/176 175/175/175
f 177/177/177 175/175/175 176/176/176
f 176/176/176 178/178/178 177/177/177
f 181/181/181 180/180/180 179/179/179
f 179/179/179 182/182/182 181/181/181
f 182/182/182 179/179/179 183/183/183
f 183/183/183 184/184/184 182/182/182
f 187/187/187 186/186/186 185/185/185
f 186/186/186 188/188/188 185/185/185
f 189/189/189 185/185/185 188/188/188
f 185/185/185 189/189/189 190/190/190
f 193/193/193 192/192/192 191/191/191
f 191/191/191 194/194/194 193/193/193
f 195/195/195 194/194/194 191/191/191
f 191/191/191 196/196/196 195/195/195
f 199/199/199 198/198/198 197/197/197
f 198/198/198 199/199/199 200/200/200
f 198/198/198 200/200/200 201/201/201
f 201/201/201 202/202/202 198/198/198
f 205/205/205 204/204/204 203/203/203
f 204/204/204 205/205/205 206/206/206
f 204/204/204 206/206/206 207/207/207
f 207/207/207 208/208/208 204/204/204
f 211/211/211 210/210/210 209/209/209
f 210/210/210 211/211/211 212/212/212
f 210/210/210 212/212/212 213/213/213
f 213/213/213 214/214/214 210/210/210
f 217/217/217 216/216/216 215/215/215
f 216/216/216 217/217/217 218/218/218
f 216/216/216 218/218/218 219/219/219
f 219/219/219 220/220/220 216/216/216
f 223/223/223 222/222/222 221/221/221
f 222/222/222 224/224/224 221/221/221
f 225/225/225 221/221/221 224/224/224
f 221/221/221 225/225/225 226/226/226
f 229/229/229 228/228/228 227/227/227
f 227/227/227 230/230/230 229/229/229
f 231/231/231 230/230/230 227/227/227
f 227/227/227 232/232/232 231/231/231
