g SM_Exterior_1__Plank
v -0.09809338 -3.265348E-07 1.002128
v -0.1961868 -3.265348E-07 1.002128
v -0.1961868 0.02999968 1.002128
v -0.09809338 0.02999968 1.002128
v 0 -3.265348E-07 1.002128
v 0 0.02999968 1.002128
v 0.09809338 -3.223741E-07 0.989359
v 0.09809338 0.02999968 0.989359
v 0.1805776 -3.265348E-07 1.002128
v 0.1805776 0.02999968 1.002128
v -0.1961868 -6.934568E-10 0.002128204
v -0.1961868 3.251479E-07 -0.9978718
v -0.1961868 0.03000033 -0.9978718
v -0.1961868 0.03000001 0.002128214
v -0.1961868 -3.265348E-07 1.002128
v -0.1961868 0.02999968 1.002128
v 0.1805776 -3.265348E-07 1.002128
v 0.1805776 0.02999968 1.002128
v 0.1961868 -6.934568E-10 0.002128204
v 0.1961868 0.03000001 0.002128214
v 0.1961868 3.251479E-07 -0.9978718
v 0.1961868 0.03000033 -0.9978718
v 0.1961868 3.251479E-07 -0.9978718
v 0.1961868 0.03000033 -0.9978718
v 0.09809338 3.26843E-07 -1.003074
v 0.09809338 0.03000033 -1.003074
v 0 3.26843E-07 -1.003074
v 0 0.03000033 -1.003074
v -0.09809338 3.251479E-07 -0.9978718
v -0.09809338 0.03000033 -0.9978718
v -0.1961868 3.251479E-07 -0.9978718
v -0.1961868 0.03000033 -0.9978718
v -0.09809338 0.02999968 1.002128
v -0.1961868 0.02999968 1.002128
v -0.1961868 0.03000001 0.002128214
v 0 0.03000001 9.775243E-09
v 0 0.02999968 1.002128
v 0.09809338 0.02999968 0.989359
v -0.09809338 0.03000033 -0.9978718
v -0.1961868 0.03000033 -0.9978718
v 0 0.03000033 -1.003074
v 0.09809338 0.03000033 -1.003074
v 0.1961868 0.03000001 0.002128214
v 0.1805776 0.02999968 1.002128
v 0.1961868 0.03000033 -0.9978718
v 0.09809338 -3.223741E-07 0.989359
v 0.1805776 -3.265348E-07 1.002128
v 0.1961868 -6.934568E-10 0.002128204
v 0 0 0
v 0 -3.265348E-07 1.002128
v -0.09809338 -3.265348E-07 1.002128
v 0.09809338 3.26843E-07 -1.003074
v 0.1961868 3.251479E-07 -0.9978718
v 0 3.26843E-07 -1.003074
v -0.09809338 3.251479E-07 -0.9978718
v -0.1961868 -6.934568E-10 0.002128204
v -0.1961868 -3.265348E-07 1.002128
v -0.1961868 3.251479E-07 -0.9978718
vt 0.489502 0.9389648
vt 0.489502 0.9541016
vt 0.4951172 0.9541016
vt 0.4951172 0.9389648
vt 0.489502 0.9233398
vt 0.4951172 0.9233398
vt 0.489502 0.9077148
vt 0.4951172 0.9077148
vt 0.489502 0.8945313
vt 0.4951172 0.8945313
vt 0.3776855 0.9897461
vt 0.4973145 0.9897461
vt 0.4973145 0.9863281
vt 0.3776855 0.9863281
vt 0.2580566 0.9897461
vt 0.2580566 0.9863281
vt 0.2580566 0.9907227
vt 0.2580566 0.9941406
vt 0.3776855 0.9907227
vt 0.3776855 0.9941406
vt 0.4973145 0.9907227
vt 0.4973145 0.9941406
vt 0.3925781 0.9804688
vt 0.3925781 0.9770508
vt 0.3806152 0.9804688
vt 0.3806152 0.9770508
vt 0.3686523 0.9804688
vt 0.3686523 0.9770508
vt 0.3566895 0.9804688
vt 0.3566895 0.9770508
vt 0.3447266 0.9804688
vt 0.3447266 0.9770508
vt 0.2541504 0.8383789
vt 0.2541504 0.8500977
vt 0.3757324 0.8500977
vt 0.3759766 0.8261719
vt 0.2541504 0.8261719
vt 0.2556152 0.8144531
vt 0.4970703 0.8383789
vt 0.4970703 0.8500977
vt 0.4978027 0.8261719
vt 0.4978027 0.8144531
vt 0.3757324 0.8027344
vt 0.2541504 0.8046875
vt 0.4970703 0.8027344
vt 0.4960938 0.7661133
vt 0.4978027 0.7558594
vt 0.3762207 0.7539063
vt 0.3759766 0.777832
vt 0.4978027 0.777832
vt 0.4978027 0.7895508
vt 0.2541504 0.7661133
vt 0.2548828 0.7539063
vt 0.2541504 0.777832
vt 0.2548828 0.7895508
vt 0.3762207 0.8017578
vt 0.4978027 0.8017578
vt 0.2548828 0.8017578
vn 0 0 1
vn 0 0 1
vn 0 0 1
vn 0 0 1
vn 0.06292725 0 0.9980469
vn 0.06298828 0 0.9980469
vn -0.01579285 0 1
vn -0.01573181 0 1
vn -0.1491699 0 0.9887695
vn -0.1491699 0 0.9887695
vn -1 0 0
vn -1 0 0
vn -1 0 0
vn -1 0 0
vn -1 0 0
vn -1 0 0
vn 1 0 0.01608276
vn 1 0 0.01560974
vn 1 0 0.007804871
vn 1 0 0.007804871
vn 1 0 0
vn 1 0 0
vn 0.05493164 0 -0.9985352
vn 0.05496216 0 -0.9985352
vn 0.02381897 0 -0.9995117
vn 0.02391052 0 -0.9995117
vn -0.02377319 0 -0.9995117
vn -0.02381897 0 -0.9995117
vn -0.02378845 0 -0.9995117
vn -0.02378845 0 -0.9995117
vn 0 0 -1
vn 0 0 -1
vn 0 1 0
vn 0 1 0
vn 0 1 0
vn 0 1 0
vn 0 1 0
vn 0 1 0
vn 0 1 0
vn 0 1 0
vn 0 1 0
vn 0 1 0
vn 0 1 0
vn 0 1 0
vn 0 1 0
vn 0 -1 0
vn 0 -1 0
vn 0 -1 0
vn 0 -1 0
vn 0 -1 0
vn 0 -1 0
vn 0 -1 0
vn 0 -1 0
vn 0 -1 0
vn 0 -1 0
vn 0 -1 0
vn 0 -1 0
vn 0 -1 0
g SM_Exterior_1__Plank_0
f 3/3/3 2/2/2 1/1/1
f 1/1/1 4/4/4 3/3/3
f 4/4/4 1/1/1 5/5/5
f 5/5/5 6/6/6 4/4/4
f 6/6/6 5/5/5 7/7/7
f 7/7/7 8/8/8 6/6/6
f 8/8/8 7/7/7 9/9/9
f 9/9/9 10/10/10 8/8/8
f 13/13/13 12/12/12 11/11/11
f 13/13/13 11/11/11 14/14/14
f 14/14/14 11/11/11 15/15/15
f 15/15/15 16/16/16 14/14/14
f 19/19/19 18/18/18 17/17/17
f 19/19/19 20/20/20 18/18/18
f 21/21/21 20/20/20 19/19/19
f 21/21/21 22/22/22 20/20/20
f 25/25/25 24/24/24 23/23/23
f 24/24/24 25/25/25 26/26/26
f 27/27/27 26/26/26 25/25/25
f 26/26/26 27/27/27 28/28/28
f 29/29/29 28/28/28 27/27/27
f 28/28/28 29/29/29 30/30/30
f 31/31/31 30/30/30 29/29/29
f 30/30/30 31/31/31 32/32/32
f 35/35/35 34/34/34 33/33/33
f 33/33/33 36/36/36 35/35/35
f 33/33/33 37/37/37 36/36/36
f 37/37/37 38/38/38 36/36/36
f 39/39/39 35/35/35 36/36/36
f 39/39/39 40/40/40 35/35/35
f 39/39/39 36/36/36 41/41/41
f 41/41/41 36/36/36 42/42/42
f 36/36/36 38/38/38 43/43/43
f 42/42/42 36/36/36 43/43/43
f 43/43/43 38/38/38 44/44/44
f 43/43/43 45/45/45 42/42/42
f 48/48/48 47/47/47 46/46/46
f 46/46/46 49/49/49 48/48/48
f 46/46/46 50/50/50 49/49/49
f 50/50/50 51/51/51 49/49/49
f 52/52/52 48/48/48 49/49/49
f 52/52/52 53/53/53 48/48/48
f 52/52/52 49/49/49 54/54/54
f 54/54/54 49/49/49 55/55/55
f 49/49/49 51/51/51 56/56/56
f 55/55/55 49/49/49 56/56/56
f 56/56/56 51/51/51 57/57/57
f 56/56/56 58/58/58 55/55/55
