g SM_Interior_1_Ventilation
v 0.09422198 0.4718948 -0.6350917
v -5.925462E-08 0.446648 -0.6350917
v -6.134442E-08 0.4314288 -0.5194907
v 0.09422197 0.4558153 -0.5129564
v -5.736525E-08 0.3868085 -0.4117678
v 0.1631973 0.5224404 -0.4951041
v 0.1631973 0.5408702 -0.6350917
v 0.09422197 0.4086727 -0.3991444
v -4.758828E-08 0.3158279 -0.3192641
v 0.09422198 0.3336801 -0.3014118
v 0.1631973 0.4684071 -0.3646567
v 0.188444 0.6134518 -0.4707177
v 0.188444 0.6350923 -0.6350915
v 0.1631972 0.7293143 -0.6350915
v 0.1631972 0.7044632 -0.4463312
v 0.188444 0.5500061 -0.3175457
v 0.1631972 0.6316047 -0.2704347
v 0.1631972 0.515703 -0.1193889
v 0.1631973 0.3824528 -0.252639
v 0.094222 0.2359473 -0.2264189
v 0.188444 0.4490779 -0.186014
v 0.1631973 0.270435 -0.1666846
v 0.188444 0.3175459 -0.0850859
v 0.1631973 0.3646568 -0.003487196
v 0.1631973 0.1887606 0.06937129
v 0.188444 0.164374 -0.0216401
v 0.1631973 -9.399717E-08 0.09422205
v 0.1884441 -4.302929E-08 8.237131E-09
v 0.1631973 0.1399876 -0.1126516
v 0.09422202 0.1221355 -0.1792768
v 0.1631973 -1.892893E-09 -0.09422195
v 0.09422205 1.838967E-08 -0.1631973
v -0.1884442 0.550006 -0.3175457
v -0.1631974 0.468407 -0.3646567
v -0.1631974 0.5224403 -0.4951041
v -0.1884442 0.6134518 -0.4707177
v -0.1631974 0.5408701 -0.6350917
v -0.1884442 0.6350922 -0.6350915
v -0.1631975 0.7293141 -0.6350915
v -0.1631975 0.704463 -0.4463312
v -0.1631975 0.6316046 -0.2704347
v -0.1884442 0.4490778 -0.186014
v -0.09422217 0.7710883 -0.428479
v -0.09422217 0.7982895 -0.6350915
v -1.326374E-07 0.823536 -0.6350915
v -1.364907E-07 0.7954748 -0.4219448
v -0.09422217 0.6913388 -0.235947
v -1.291538E-07 0.713203 -0.2233236
v -0.1631975 0.5157029 -0.1193889
v -0.1884441 0.3175458 -0.08508591
v -0.09422215 0.5644758 -0.07061594
v -1.111269E-07 0.582328 -0.05276382
v -0.1631974 0.3646568 -0.003487211
v -0.09422211 0.3991444 0.0562472
v -0.1631974 0.1887605 0.06937128
v -0.09422208 0.2066126 0.1359963
v -0.1884441 0.164374 -0.02164011
v -0.1631973 -1.575485E-07 0.09422205
v -0.09422205 -1.778311E-07 0.1631974
v -0.1884441 -1.164121E-07 -8.237208E-09
v -0.1631974 0.1399876 -0.1126517
v -0.1631973 -6.544427E-08 -0.09422197
v -0.1884442 0.4490778 -0.186014
v -0.1631974 0.468407 -0.3646567
v -0.1884442 0.550006 -0.3175457
v -0.1631974 0.3824526 -0.252639
v -0.1631974 0.2704349 -0.1666846
v -0.1884441 0.3175458 -0.08508591
v -0.1884441 0.164374 -0.02164011
v -0.1631974 0.1399876 -0.1126517
v -0.09422208 0.2359472 -0.2264189
v -0.09422205 0.1221355 -0.1792768
v -0.09422208 0.3336801 -0.3014118
v -0.09422203 -1.830174E-08 -0.1631973
v -0.1631973 -6.544427E-08 -0.09422197
v -1.365578E-08 0.1156012 -0.2036632
v 8.187318E-09 9.210428E-08 -0.188444
v -3.267978E-08 0.2233239 -0.2482833
v -4.758828E-08 0.3158279 -0.3192641
v -0.09422211 0.4086726 -0.3991444
v -5.736525E-08 0.3868085 -0.4117678
v -0.09422211 0.4558152 -0.5129564
v -0.1631974 0.5224403 -0.4951041
v -0.1631974 0.5408701 -0.6350917
v -6.134442E-08 0.4314288 -0.5194907
v -0.0942221 0.4718947 -0.6350917
v -5.925462E-08 0.446648 -0.6350917
v 0.094222 0.2359473 -0.2264189
v 0.09422198 0.3336801 -0.3014118
v -4.758828E-08 0.3158279 -0.3192641
v -3.267978E-08 0.2233239 -0.2482833
v 0.09422202 0.1221355 -0.1792768
v -1.365578E-08 0.1156012 -0.2036632
v 0.09422205 1.838967E-08 -0.1631973
v 8.187318E-09 9.210428E-08 -0.188444
v 0.1631972 0.7044632 -0.4463312
v 0.09422191 0.7982895 -0.6350915
v 0.1631972 0.7293143 -0.6350915
v 0.09422191 0.7710883 -0.428479
v -1.326374E-07 0.823536 -0.6350915
v 0.1631972 0.6316047 -0.2704347
v -1.364907E-07 0.7954748 -0.4219448
v 0.09422191 0.6913388 -0.235947
v 0.1631972 0.515703 -0.1193889
v -1.291538E-07 0.713203 -0.2233236
v 0.09422193 0.5644758 -0.07061592
v 0.1631973 0.3646568 -0.003487196
v -1.111269E-07 0.582328 -0.05276382
v 0.09422196 0.3991445 0.0562472
v 0.1631973 0.1887606 0.06937129
v -8.363837E-08 0.4117679 0.07811165
v -0.09422215 0.5644758 -0.07061594
v -0.09422211 0.3991444 0.0562472
v -4.856164E-08 0.2131469 0.1603829
v -0.09422208 0.2066126 0.1359963
v 0.09422198 0.2066126 0.1359963
v 0.1631973 -9.399717E-08 0.09422205
v 0.09422203 -1.411397E-07 0.1631974
v -8.286973E-09 -1.718251E-07 0.1884442
v -0.09422205 -1.778311E-07 0.1631974
vt 0.9067383 0.07678223
vt 0.9130859 0.07678223
vt 0.9130859 0.06408691
vt 0.9067383 0.06408691
vt 0.9130859 0.0513916
vt 0.9008789 0.06408691
vt 0.9008789 0.07678223
vt 0.9067383 0.0513916
vt 0.9130859 0.03869629
vt 0.9067383 0.03869629
vt 0.9008789 0.0513916
vt 0.8945313 0.06408691
vt 0.8945313 0.07678223
vt 0.8886719 0.07678223
vt 0.8886719 0.06408691
vt 0.8945313 0.0513916
vt 0.8886719 0.0513916
vt 0.8886719 0.03869629
vt 0.9008789 0.03869629
vt 0.9067383 0.02600098
vt 0.8945313 0.03869629
vt 0.9008789 0.02600098
vt 0.8945313 0.02600098
vt 0.8886719 0.02600098
vt 0.8886719 0.01342773
vt 0.8945313 0.01342773
vt 0.8886719 0.0007324219
vt 0.8945313 0.0007324219
vt 0.9008789 0.01342773
vt 0.9067383 0.01342773
vt 0.9008789 0.0007324219
vt 0.9067383 0.0007324219
vt 0.8579102 0.0513916
vt 0.8520508 0.0513916
vt 0.8520508 0.06408691
vt 0.8579102 0.06408691
vt 0.8520508 0.07678223
vt 0.8579102 0.07678223
vt 0.8642578 0.07678223
vt 0.8642578 0.06408691
vt 0.8642578 0.0513916
vt 0.8579102 0.03869629
vt 0.8701172 0.06408691
vt 0.8701172 0.07678223
vt 0.8764648 0.07678223
vt 0.8764648 0.06408691
vt 0.8701172 0.0513916
vt 0.8764648 0.0513916
vt 0.8642578 0.03869629
vt 0.8579102 0.02600098
vt 0.8701172 0.03869629
vt 0.8764648 0.03869629
vt 0.8642578 0.02600098
vt 0.8701172 0.02600098
vt 0.8642578 0.01342773
vt 0.8701172 0.01342773
vt 0.8579102 0.01342773
vt 0.8642578 0.0007324219
vt 0.8701172 0.0007324219
vt 0.8579102 0.0007324219
vt 0.8520508 0.01342773
vt 0.8520508 0.0007324219
vt 0.8579102 0.03869629
vt 0.8520508 0.0513916
vt 0.8579102 0.0513916
vt 0.8520508 0.03869629
vt 0.8520508 0.02600098
vt 0.8579102 0.02600098
vt 0.8579102 0.01342773
vt 0.8520508 0.01342773
vt 0.8457031 0.02600098
vt 0.8457031 0.01342773
vt 0.8457031 0.03869629
vt 0.8457031 0.0007324219
vt 0.8520508 0.0007324219
vt 0.8398438 0.01342773
vt 0.8398438 0.0007324219
vt 0.8398438 0.02600098
vt 0.8398438 0.03869629
vt 0.8457031 0.0513916
vt 0.8398438 0.0513916
vt 0.8457031 0.06408691
vt 0.8520508 0.06408691
vt 0.8520508 0.07678223
vt 0.8398438 0.06408691
vt 0.8457031 0.07678223
vt 0.8398438 0.07678223
vt 0.9067383 0.02600098
vt 0.9067383 0.03869629
vt 0.9130859 0.03869629
vt 0.9130859 0.02600098
vt 0.9067383 0.01342773
vt 0.9130859 0.01342773
vt 0.9067383 0.0007324219
vt 0.9130859 0.0007324219
vt 0.8886719 0.06408691
vt 0.8823242 0.07678223
vt 0.8886719 0.07678223
vt 0.8823242 0.06408691
vt 0.8764648 0.07678223
vt 0.8886719 0.0513916
vt 0.8764648 0.06408691
vt 0.8823242 0.0513916
vt 0.8886719 0.03869629
vt 0.8764648 0.0513916
vt 0.8823242 0.03869629
vt 0.8886719 0.02600098
vt 0.8764648 0.03869629
vt 0.8823242 0.02600098
vt 0.8886719 0.01342773
vt 0.8764648 0.02600098
vt 0.8701172 0.03869629
vt 0.8701172 0.02600098
vt 0.8764648 0.01342773
vt 0.8701172 0.01342773
vt 0.8823242 0.01342773
vt 0.8886719 0.0007324219
vt 0.8823242 0.0007324219
vt 0.8764648 0.0007324219
vt 0.8701172 0.0007324219
vn 0.503418 -0.8569336 -0.1101074
vn 0 -0.9912109 -0.133667
vn 0 -0.9658203 -0.2587891
vn 0.5097656 -0.831543 -0.2197266
vn 0 -0.8676758 -0.4970703
vn 0.8759766 -0.4658203 -0.1260986
vn 0.8745117 -0.4807129 -0.06304932
vn 0.5092773 -0.7446289 -0.4311523
vn 0 -0.7070313 -0.7070313
vn 0.5126953 -0.6074219 -0.6074219
vn 0.875 -0.4179688 -0.2442627
vn 0.9995117 0.0234375 0.007720947
vn 0.9995117 0.02352905 0.0001235008
vn 0.8564453 0.5107422 0.07067871
vn 0.8579102 0.4960938 0.1337891
vn 1 0.01579285 0.007919312
vn 0.855957 0.4477539 0.2592773
vn 0.8583984 0.3625488 0.3625488
vn 0.8769531 -0.3398438 -0.3398438
vn 0.5097656 -0.4309082 -0.7446289
vn 1 0.01524353 0.01524353
vn 0.875 -0.2443848 -0.4177246
vn 1 0.007919312 0.01579285
vn 0.855957 0.2590332 0.4475098
vn 0.8579102 0.1337891 0.4960938
vn 0.9995117 0.007820129 0.02354431
vn 0.8564453 0.07067871 0.5107422
vn 0.9995117 8.094311E-05 0.02355957
vn 0.8759766 -0.1260986 -0.4658203
vn 0.5097656 -0.2198486 -0.831543
vn 0.8745117 -0.06304932 -0.4807129
vn 0.503418 -0.1101074 -0.8569336
vn -1 0.01586914 0.007987976
vn -0.875 -0.4179688 -0.2441406
vn -0.8759766 -0.4655762 -0.1262207
vn -0.9995117 0.02354431 0.007820129
vn -0.8745117 -0.4807129 -0.06304932
vn -0.9995117 0.02352905 0.0001232624
vn -0.8569336 0.5107422 0.07073975
vn -0.8579102 0.4960938 0.1337891
vn -0.855957 0.4475098 0.2590332
vn -1 0.01524353 0.01524353
vn -0.4882813 0.8422852 0.2282715
vn -0.4880371 0.8657227 0.1103516
vn 0 0.9912109 0.1335449
vn 0 0.9658203 0.2587891
vn -0.4890137 0.7568359 0.4335938
vn 0 0.8642578 0.5029297
vn -0.8588867 0.3623047 0.3623047
vn -1 0.007957458 0.01582336
vn -0.4902344 0.6162109 0.6162109
vn 0 0.7070313 0.7070313
vn -0.855957 0.2590332 0.4475098
vn -0.4887695 0.4335938 0.7568359
vn -0.8579102 0.1337891 0.4960938
vn -0.4880371 0.2282715 0.8422852
vn -0.9995117 0.007820129 0.02354431
vn -0.8569336 0.07073975 0.5107422
vn -0.4880371 0.1102295 0.8657227
vn -0.9995117 3.677607E-05 0.02359009
vn -0.8759766 -0.1262207 -0.4655762
vn -0.8745117 -0.06304932 -0.4807129
vn -1 0.01524353 0.01524353
vn -0.875 -0.4179688 -0.2441406
vn -1 0.01586914 0.007987976
vn -0.8769531 -0.3398438 -0.3398438
vn -0.875 -0.2442627 -0.4179688
vn -1 0.007957458 0.01582336
vn -0.9995117 0.007820129 0.02354431
vn -0.8759766 -0.1262207 -0.4655762
vn -0.5097656 -0.4309082 -0.7446289
vn -0.5097656 -0.2198486 -0.831543
vn -0.5126953 -0.6074219 -0.6074219
vn -0.503418 -0.1101074 -0.8569336
vn -0.8745117 -0.06304932 -0.4807129
vn 0 -0.2587891 -0.9658203
vn 0 -0.133667 -0.9912109
vn 0 -0.4970703 -0.8676758
vn 0 -0.7070313 -0.7070313
vn -0.5097656 -0.7446289 -0.4309082
vn 0 -0.8676758 -0.4970703
vn -0.5097656 -0.831543 -0.2197266
vn -0.8759766 -0.4655762 -0.1262207
vn -0.8745117 -0.4807129 -0.06304932
vn 0 -0.9658203 -0.2587891
vn -0.503418 -0.8569336 -0.1101685
vn 0 -0.9912109 -0.133667
vn 0.5097656 -0.4309082 -0.7446289
vn 0.5126953 -0.6074219 -0.6074219
vn 0 -0.7070313 -0.7070313
vn 0 -0.4970703 -0.8676758
vn 0.5097656 -0.2198486 -0.831543
vn 0 -0.2587891 -0.9658203
vn 0.503418 -0.1101074 -0.8569336
vn 0 -0.133667 -0.9912109
vn 0.8579102 0.4960938 0.1337891
vn 0.4880371 0.8657227 0.1102295
vn 0.8564453 0.5107422 0.07067871
vn 0.4882813 0.8422852 0.2282715
vn 0 0.9912109 0.1335449
vn 0.855957 0.4477539 0.2592773
vn 0 0.9658203 0.2587891
vn 0.4890137 0.7568359 0.4338379
vn 0.8583984 0.3625488 0.3625488
vn 0 0.8642578 0.5029297
vn 0.4904785 0.6162109 0.6162109
vn 0.855957 0.2590332 0.4475098
vn 0 0.7070313 0.7070313
vn 0.4887695 0.4335938 0.7568359
vn 0.8579102 0.1337891 0.4960938
vn 0 0.5029297 0.8642578
vn -0.4902344 0.6162109 0.6162109
vn -0.4887695 0.4335938 0.7568359
vn 0 0.2587891 0.9658203
vn -0.4880371 0.2282715 0.8422852
vn 0.4882813 0.2282715 0.8422852
vn 0.8564453 0.07067871 0.5107422
vn 0.4880371 0.1102295 0.8657227
vn 0 0.1335449 0.9912109
vn -0.4880371 0.1102295 0.8657227
g SM_Interior_1_Ventilation_0
f 3/3/3 2/2/2 1/1/1
f 4/4/4 3/3/3 1/1/1
f 5/5/5 3/3/3 4/4/4
f 4/4/4 1/1/1 6/6/6
f 1/1/1 7/7/7 6/6/6
f 8/8/8 5/5/5 4/4/4
f 9/9/9 5/5/5 8/8/8
f 10/10/10 9/9/9 8/8/8
f 8/8/8 4/4/4 11/11/11
f 10/10/10 8/8/8 11/11/11
f 4/4/4 6/6/6 11/11/11
f 6/6/6 7/7/7 12/12/12
f 7/7/7 13/13/13 12/12/12
f 13/13/13 14/14/14 12/12/12
f 14/14/14 15/15/15 12/12/12
f 6/6/6 12/12/12 16/16/16
f 12/12/12 15/15/15 16/16/16
f 11/11/11 6/6/6 16/16/16
f 15/15/15 17/17/17 16/16/16
f 17/17/17 18/18/18 16/16/16
f 19/19/19 10/10/10 11/11/11
f 20/20/20 10/10/10 19/19/19
f 16/16/16 21/21/21 11/11/11
f 18/18/18 21/21/21 16/16/16
f 21/21/21 19/19/19 11/11/11
f 22/22/22 20/20/20 19/19/19
f 22/22/22 19/19/19 21/21/21
f 23/23/23 21/21/21 18/18/18
f 23/23/23 22/22/22 21/21/21
f 24/24/24 23/23/23 18/18/18
f 24/24/24 25/25/25 23/23/23
f 25/25/25 26/26/26 23/23/23
f 23/23/23 26/26/26 22/22/22
f 25/25/25 27/27/27 26/26/26
f 27/27/27 28/28/28 26/26/26
f 22/22/22 29/29/29 20/20/20
f 26/26/26 29/29/29 22/22/22
f 26/26/26 28/28/28 29/29/29
f 29/29/29 30/30/30 20/20/20
f 28/28/28 31/31/31 29/29/29
f 32/32/32 30/30/30 29/29/29
f 31/31/31 32/32/32 29/29/29
f 35/35/35 34/34/34 33/33/33
f 36/36/36 35/35/35 33/33/33
f 37/37/37 35/35/35 36/36/36
f 38/38/38 37/37/37 36/36/36
f 39/39/39 38/38/38 36/36/36
f 40/40/40 36/36/36 33/33/33
f 40/40/40 39/39/39 36/36/36
f 41/41/41 40/40/40 33/33/33
f 41/41/41 33/33/33 42/42/42
f 39/39/39 40/40/40 43/43/43
f 44/44/44 39/39/39 43/43/43
f 45/45/45 44/44/44 43/43/43
f 46/46/46 45/45/45 43/43/43
f 43/43/43 40/40/40 47/47/47
f 46/46/46 43/43/43 47/47/47
f 40/40/40 41/41/41 47/47/47
f 48/48/48 46/46/46 47/47/47
f 49/49/49 41/41/41 42/42/42
f 47/47/47 41/41/41 49/49/49
f 49/49/49 42/42/42 50/50/50
f 47/47/47 51/51/51 48/48/48
f 51/51/51 47/47/47 49/49/49
f 51/51/51 52/52/52 48/48/48
f 51/51/51 49/49/49 53/53/53
f 53/53/53 49/49/49 50/50/50
f 54/54/54 51/51/51 53/53/53
f 53/53/53 50/50/50 55/55/55
f 54/54/54 53/53/53 55/55/55
f 56/56/56 54/54/54 55/55/55
f 50/50/50 57/57/57 55/55/55
f 56/56/56 55/55/55 58/58/58
f 55/55/55 57/57/57 58/58/58
f 59/59/59 56/56/56 58/58/58
f 57/57/57 60/60/60 58/58/58
f 57/57/57 61/61/61 60/60/60
f 61/61/61 62/62/62 60/60/60
f 65/65/65 64/64/64 63/63/63
f 64/64/64 66/66/66 63/63/63
f 63/63/63 66/66/66 67/67/67
f 68/68/68 63/63/63 67/67/67
f 68/68/68 67/67/67 69/69/69
f 67/67/67 70/70/70 69/69/69
f 67/67/67 66/66/66 71/71/71
f 70/70/70 67/67/67 72/72/72
f 67/67/67 71/71/71 72/72/72
f 66/66/66 64/64/64 73/73/73
f 66/66/66 73/73/73 71/71/71
f 70/70/70 72/72/72 74/74/74
f 75/75/75 70/70/70 74/74/74
f 72/72/72 76/76/76 74/74/74
f 76/76/76 77/77/77 74/74/74
f 76/76/76 72/72/72 78/78/78
f 72/72/72 71/71/71 78/78/78
f 78/78/78 71/71/71 79/79/79
f 71/71/71 73/73/73 79/79/79
f 73/73/73 80/80/80 79/79/79
f 64/64/64 80/80/80 73/73/73
f 80/80/80 81/81/81 79/79/79
f 82/82/82 80/80/80 64/64/64
f 80/80/80 82/82/82 81/81/81
f 83/83/83 82/82/82 64/64/64
f 83/83/83 84/84/84 82/82/82
f 82/82/82 85/85/85 81/81/81
f 84/84/84 86/86/86 82/82/82
f 82/82/82 86/86/86 85/85/85
f 86/86/86 87/87/87 85/85/85
f 90/90/90 89/89/89 88/88/88
f 91/91/91 90/90/90 88/88/88
f 91/91/91 88/88/88 92/92/92
f 93/93/93 91/91/91 92/92/92
f 92/92/92 94/94/94 93/93/93
f 94/94/94 95/95/95 93/93/93
f 98/98/98 97/97/97 96/96/96
f 97/97/97 99/99/99 96/96/96
f 97/97/97 100/100/100 99/99/99
f 101/101/101 96/96/96 99/99/99
f 100/100/100 102/102/102 99/99/99
f 103/103/103 101/101/101 99/99/99
f 103/103/103 99/99/99 102/102/102
f 104/104/104 101/101/101 103/103/103
f 105/105/105 103/103/103 102/102/102
f 106/106/106 104/104/104 103/103/103
f 106/106/106 103/103/103 105/105/105
f 107/107/107 104/104/104 106/106/106
f 108/108/108 106/106/106 105/105/105
f 109/109/109 107/107/107 106/106/106
f 110/110/110 107/107/107 109/109/109
f 108/108/108 111/111/111 106/106/106
f 111/111/111 109/109/109 106/106/106
f 111/111/111 108/108/108 112/112/112
f 113/113/113 111/111/111 112/112/112
f 114/114/114 111/111/111 113/113/113
f 111/111/111 114/114/114 109/109/109
f 115/115/115 114/114/114 113/113/113
f 116/116/116 110/110/110 109/109/109
f 114/114/114 116/116/116 109/109/109
f 117/117/117 110/110/110 116/116/116
f 118/118/118 117/117/117 116/116/116
f 119/119/119 118/118/118 116/116/116
f 114/114/114 119/119/119 116/116/116
f 119/119/119 114/114/114 115/115/115
f 120/120/120 119/119/119 115/115/115
