g SM_Interior_1_Ventilation_Box
v 0 0.9999996 0.5000007
v 0 1.108528 0.6085291
v 0 -0.1085287 0.6085284
v 0 -3.258413E-07 0.5
v 0 1.108528 0.6085291
v 0 0.9999996 0.5000007
v 0 1 -0.4999994
v 0 1.108529 -0.6085277
v 0 -0.1085287 0.6085284
v 0.1033888 -0.1085287 0.6085284
v 0.1033888 -0.108528 -0.6085284
v 0 -0.108528 -0.6085284
v 0 1.108528 0.6085291
v 0.1033888 1.108528 0.6085291
v 0.1033888 -0.1085287 0.6085284
v 0 -0.1085287 0.6085284
v 0.1033888 1.108528 0.6085291
v 0 1.108528 0.6085291
v 0 1.108529 -0.6085277
v 0.1033888 1.108529 -0.6085277
v 0 1.108529 -0.6085277
v 0 1 -0.4999994
v 0 3.258413E-07 -0.5
v 0 -0.108528 -0.6085284
v 0 -3.258413E-07 0.5
v 0 -0.1085287 0.6085284
v 0 -0.108528 -0.6085284
v 0 3.258413E-07 -0.5
v 0 -0.108528 -0.6085284
v 0.1033888 -0.108528 -0.6085284
v 0.1033888 1.108529 -0.6085277
v 0 1.108529 -0.6085277
v 0.1033888 -0.05426382 -0.5542642
v 0.1033888 1.108529 -0.6085277
v 0.1033888 -0.108528 -0.6085284
v 0.1033888 1.054265 -0.5542635
v 0.1033888 1.108528 0.6085291
v 0.1033888 1.054264 0.5542648
v 0.1033888 -0.1085287 0.6085284
v 0.1033888 -0.05426453 0.5542642
v 0.1287478 1.027133 -0.5271314
v 0.1287478 1.027132 0.5271328
v 0.1287478 -0.02713244 0.5271321
v 0.1287478 -0.02713175 -0.5271321
vt 0.9902344 0.2322998
vt 0.9951172 0.2280273
vt 0.9501953 0.2271729
vt 0.9545898 0.2319336
vt 0.949707 0.206543
vt 0.9541016 0.2111816
vt 0.9897461 0.2116699
vt 0.9946289 0.2073975
vt 0.9487305 0.2165527
vt 0.9443359 0.2218018
vt 0.9985352 0.2218018
vt 0.9931641 0.2174072
vt 0.9951172 0.2280273
vt 0.9995117 0.2227783
vt 0.9453125 0.2227783
vt 0.9501953 0.2271729
vt 0.9448242 0.2021484
vt 0.949707 0.206543
vt 0.9946289 0.2073975
vt 0.9990234 0.2021484
vt 0.9941406 0.2388916
vt 0.9897461 0.2341309
vt 0.9541016 0.2336426
vt 0.9492188 0.2380371
vt 0.9536133 0.2122803
vt 0.9487305 0.2165527
vt 0.9931641 0.2174072
vt 0.9892578 0.2126465
vt 0.9492188 0.2380371
vt 0.9448242 0.2432861
vt 0.9990234 0.2432861
vt 0.9941406 0.2388916
vt 0.9960938 0.1973877
vt 0.9257813 0.2000732
vt 0.9990234 0.2006836
vt 0.9291992 0.1970215
vt 0.9257813 0.1269531
vt 0.9291992 0.130127
vt 0.9990234 0.1274414
vt 0.9960938 0.1306152
vt 0.9316406 0.1947021
vt 0.9316406 0.1323242
vt 0.9936523 0.1328125
vt 0.9936523 0.1951904
vn -1 0 0
vn -1 0 0
vn -1 0 0
vn -1 0 0
vn -1 0 0
vn -1 0 0
vn -1 0 0
vn -1 0 0
vn 0 -1 0
vn 0 -1 0
vn 0 -1 0
vn 0 -1 0
vn 0 0 1
vn 0 0 1
vn 0 0 1
vn 0 0 1
vn 0 1 0
vn 0 1 0
vn 0 1 0
vn 0 1 0
vn -1 0 0
vn -1 0 0
vn -1 0 0
vn -1 0 0
vn -1 0 0
vn -1 0 0
vn -1 0 0
vn -1 0 0
vn 0 0 -1
vn 0 0 -1
vn 0 0 -1
vn 0 0 -1
vn 0.9892578 -0.1022339 -0.1022339
vn 1 0 0
vn 1 0 0
vn 0.9897461 0.1021118 -0.1021118
vn 1 0 0
vn 0.9892578 0.1022339 0.1022339
vn 1 0 0
vn 0.9892578 -0.1022339 0.1022339
vn 0.9155273 0.2841797 -0.2841797
vn 0.9155273 0.2841797 0.2841797
vn 0.9155273 -0.2841797 0.2841797
vn 0.9155273 -0.2841797 -0.2841797
g SM_Interior_1_Ventilation_Box_0
f 3/3/3 2/2/2 1/1/1
f 4/4/4 3/3/3 1/1/1
f 7/7/7 6/6/6 5/5/5
f 8/8/8 7/7/7 5/5/5
f 11/11/11 10/10/10 9/9/9
f 12/12/12 11/11/11 9/9/9
f 15/15/15 14/14/14 13/13/13
f 16/16/16 15/15/15 13/13/13
f 19/19/19 18/18/18 17/17/17
f 20/20/20 19/19/19 17/17/17
f 23/23/23 22/22/22 21/21/21
f 24/24/24 23/23/23 21/21/21
f 27/27/27 26/26/26 25/25/25
f 28/28/28 27/27/27 25/25/25
f 31/31/31 30/30/30 29/29/29
f 32/32/32 31/31/31 29/29/29
f 35/35/35 34/34/34 33/33/33
f 34/34/34 36/36/36 33/33/33
f 36/36/36 34/34/34 37/37/37
f 38/38/38 36/36/36 37/37/37
f 38/38/38 37/37/37 39/39/39
f 40/40/40 39/39/39 35/35/35
f 33/33/33 40/40/40 35/35/35
f 40/40/40 38/38/38 39/39/39
f 41/41/41 36/36/36 38/38/38
f 33/33/33 36/36/36 41/41/41
f 42/42/42 38/38/38 40/40/40
f 42/42/42 41/41/41 38/38/38
f 43/43/43 40/40/40 33/33/33
f 43/43/43 42/42/42 40/40/40
f 44/44/44 41/41/41 42/42/42
f 44/44/44 33/33/33 41/41/41
f 43/43/43 44/44/44 42/42/42
f 44/44/44 43/43/43 33/33/33
