g SM_paintBucket
v 0.05809623 0.1999999 -0.06010407
v 0.03052021 0.1999999 -0.07852975
v 0.03052023 -1.269455E-08 -0.07852981
v 0.05809624 -1.789301E-08 -0.06010406
v 0.07652192 0.1999999 -0.03252801
v 0.07652192 -2.567303E-08 -0.03252808
v 0.08299217 0.1999999 -1.11257E-08
v 0.08299216 -3.485017E-08 -1.135563E-14
v 0.07652193 0.1999999 0.03252807
v 0.07652193 -4.402731E-08 0.03252808
v 0.05809626 0.1999999 0.06010413
v 0.05809624 -5.180733E-08 0.06010406
v 0.03052025 0.1999999 0.0785298
v 0.03052024 -5.700577E-08 0.07852974
v -0.00200785 0.1999999 0.08500005
v -0.002007873 -5.883123E-08 0.085
v -0.03453596 0.1999999 0.0785298
v -0.03453597 -5.700577E-08 0.07852974
v -0.0621119 -5.180733E-08 0.06010406
v -0.06211192 0.1999999 0.06010413
v -0.0805376 -4.402731E-08 0.03252808
v -0.08053762 0.1999999 0.03252814
v -0.08700786 -3.485017E-08 -1.135563E-14
v -0.08700787 0.1999999 6.516824E-08
v -0.0805376 -2.567303E-08 -0.03252808
v -0.08053762 0.1999999 -0.03252801
v -0.06211193 0.1999999 -0.060104
v -0.06211191 -1.789299E-08 -0.06010414
v -0.03453593 0.1999999 -0.07852975
v -0.03453591 -1.269455E-08 -0.07852981
v -0.002007861 0.1999999 -0.08500002
v -0.002007836 -1.086909E-08 -0.08500008
v 0.03052021 0.1999999 -0.07852975
v 0.03052023 -1.269455E-08 -0.07852981
v -0.003101415 0.1562213 -0.08939333
v -0.003034426 0.154101 -0.08909472
v -0.00170769 0.1528555 -0.09348391
v -0.001517912 0.1547347 -0.0946319
v 0.002301452 0.1511494 -0.09680376
v 0.001492454 0.1498514 -0.09530375
v 0.04471762 0.1092741 -0.09484272
v 0.0003455882 0.1550428 -0.09348391
v -0.0009811478 0.1562883 -0.08909472
v 0.0001558226 0.1531635 -0.09233606
v -0.0009141581 0.154168 -0.08879602
v -0.003034426 0.154101 -0.08909472
v -0.00170769 0.1528555 -0.09348391
v 0.001492454 0.1498514 -0.09530375
v 0.003545732 0.1520387 -0.09530375
v 0.04615188 0.1099852 -0.09617237
v 0.08495457 0.07150206 -0.03961782
v 0.002736758 0.1507407 -0.09380374
v 0.04533666 0.1107504 -0.09351315
v 0.04471762 0.1092741 -0.09484272
v 0.0467709 0.1114614 -0.09484272
v 0.08500971 0.0735077 -0.03906568
v 0.08495457 0.07150206 -0.03961782
v 0.08500971 0.07350767 0.04300859
v 0.08495457 0.07150204 0.04356066
v 0.04471765 0.1092741 0.09878557
v 0.08700787 0.07368933 -0.03961782
v 0.08695272 0.07168369 -0.04016988
v 0.08495457 0.07150204 0.04356066
v 0.08695272 0.07168367 0.04411279
v 0.08700784 0.07368931 0.04356066
v 0.04615191 0.1099851 0.1001152
v 0.04471765 0.1092741 0.09878557
v 0.002301452 0.1511493 0.1007466
v 0.001492454 0.1498514 0.09924655
v -0.00170769 0.1528555 0.09742694
v 0.04677093 0.1114613 0.09878557
v 0.04533669 0.1107503 0.09745601
v 0.001492454 0.1498514 0.09924655
v 0.003545732 0.1520386 0.09924655
v 0.002736758 0.1507407 0.09774662
v 0.0001558226 0.1531635 0.09627895
v -0.00170769 0.1528555 0.09742694
v -0.003034426 0.154101 0.09303761
v -0.0009141581 0.154168 0.09273899
v -0.0009811478 0.1562882 0.09303761
v 0.0003455882 0.1550427 0.09742694
v -0.003101415 0.1562212 0.09333622
v -0.001517912 0.1547347 0.09857486
v -0.003034426 0.154101 0.09303761
v -0.08053762 0.1999999 -0.03252801
v -0.002007853 0.1999999 6.516824E-08
v -0.08700787 0.1999999 6.516824E-08
v -0.06211193 0.1999999 -0.060104
v -0.08053762 0.1999999 0.03252814
v -0.03453593 0.1999999 -0.07852975
v -0.06211192 0.1999999 0.06010413
v -0.002007861 0.1999999 -0.08500002
v -0.03453596 0.1999999 0.0785298
v 0.03052021 0.1999999 -0.07852975
v -0.00200785 0.1999999 0.08500005
v 0.05809623 0.1999999 -0.06010407
v 0.03052025 0.1999999 0.0785298
v 0.07652192 0.1999999 -0.03252801
v 0.05809626 0.1999999 0.06010413
v 0.08299217 0.1999999 -1.11257E-08
v 0.07652193 0.1999999 0.03252807
v -0.0621119 -5.180733E-08 0.06010406
v -0.002007855 -3.485017E-08 -1.135563E-14
v -0.0805376 -4.402731E-08 0.03252808
v -0.03453597 -5.700577E-08 0.07852974
v -0.08700786 -3.485017E-08 -1.135563E-14
v -0.002007873 -5.883123E-08 0.085
v -0.0805376 -2.567303E-08 -0.03252808
v 0.03052024 -5.700577E-08 0.07852974
v -0.06211191 -1.789299E-08 -0.06010414
v 0.05809624 -5.180733E-08 0.06010406
v -0.03453591 -1.269455E-08 -0.07852981
v 0.07652193 -4.402731E-08 0.03252808
v -0.002007836 -1.086909E-08 -0.08500008
v 0.08299216 -3.485017E-08 -1.135563E-14
v 0.03052023 -1.269455E-08 -0.07852981
v 0.07652192 -2.567303E-08 -0.03252808
v 0.05809624 -1.789301E-08 -0.06010406
v -0.0178676 0.1546935 -0.07862888
v -0.01286802 0.1436257 -0.07862888
v -0.01286801 0.1436257 -0.08940463
v -0.001506685 0.1393348 -0.07862888
v -0.01786759 0.1546935 -0.08940463
v -0.002007805 0.1551946 -0.08940463
v -0.01357673 0.1660548 -0.07862885
v -0.001506673 0.1393348 -0.08940463
v 0.009561098 0.1443344 -0.07862888
v -0.01357672 0.1660548 -0.08940462
v -0.002508949 0.1710543 -0.07862885
v 0.009561148 0.1443344 -0.08940463
v 0.01385197 0.1556957 -0.07862888
v -0.0025089 0.1710544 -0.08940462
v 0.008852421 0.1667635 -0.07862885
v 0.01385202 0.1556958 -0.08940463
v 0.008852432 0.1667635 -0.08940462
v -0.01357668 0.1660548 0.08229978
v -0.0025089 0.1710544 0.08229978
v -0.01357668 0.1660548 0.09307546
v -0.01786756 0.1546935 0.08229976
v -0.01786759 0.1546935 0.09307545
v -0.002007768 0.1551946 0.09307545
v -0.01286801 0.1436257 0.08229976
v -0.0025089 0.1710544 0.09307546
v 0.008852421 0.1667635 0.09307546
v 0.008852432 0.1667635 0.08229978
v 0.01385202 0.1556957 0.08229976
v 0.01385202 0.1556957 0.09307545
v 0.009561148 0.1443344 0.08229976
v 0.00956111 0.1443343 0.09307545
v -0.001506636 0.1393348 0.08229976
v -0.001506673 0.1393348 0.09307545
v -0.01286801 0.1436257 0.09307545
vt 0.8266602 0.4584961
vt 0.8203125 0.4584961
vt 0.8203125 0.4973145
vt 0.8266602 0.4973145
vt 0.8330078 0.4584961
vt 0.8330078 0.4973145
vt 0.8393555 0.4584961
vt 0.8393555 0.4973145
vt 0.8457031 0.4584961
vt 0.8457031 0.4973145
vt 0.8525391 0.4584961
vt 0.8525391 0.4973145
vt 0.8588867 0.4584961
vt 0.8588867 0.4973145
vt 0.8652344 0.4584961
vt 0.8652344 0.4973145
vt 0.871582 0.4584961
vt 0.871582 0.4973145
vt 0.8779297 0.4973145
vt 0.8779297 0.4584961
vt 0.8847656 0.4973145
vt 0.8847656 0.4584961
vt 0.8911133 0.4973145
vt 0.8911133 0.4584961
vt 0.8974609 0.4973145
vt 0.8974609 0.4584961
vt 0.9038086 0.4584961
vt 0.9038086 0.4973145
vt 0.9101563 0.4584961
vt 0.9101563 0.4973145
vt 0.9169922 0.4584961
vt 0.9169922 0.4973145
vt 0.9233398 0.4584961
vt 0.9233398 0.4973145
vt 0.9165039 0.4555664
vt 0.9165039 0.4553223
vt 0.9150391 0.4553223
vt 0.9150391 0.4555664
vt 0.9140625 0.4555664
vt 0.9140625 0.4553223
vt 0.902832 0.4553223
vt 0.9150391 0.4558105
vt 0.9165039 0.4558105
vt 0.9150391 0.4562988
vt 0.9165039 0.4562988
vt 0.9165039 0.456543
vt 0.9150391 0.456543
vt 0.9140625 0.456543
vt 0.9140625 0.4558105
vt 0.902832 0.4555664
vt 0.8920898 0.4553223
vt 0.9140625 0.4562988
vt 0.902832 0.4562988
vt 0.902832 0.456543
vt 0.902832 0.4558105
vt 0.8920898 0.4562988
vt 0.8920898 0.456543
vt 0.8852539 0.4562988
vt 0.8852539 0.456543
vt 0.875 0.456543
vt 0.8920898 0.4558105
vt 0.8920898 0.4555664
vt 0.8852539 0.4553223
vt 0.8852539 0.4555664
vt 0.8852539 0.4558105
vt 0.875 0.4555664
vt 0.875 0.4553223
vt 0.862793 0.4555664
vt 0.862793 0.4553223
vt 0.8618164 0.4553223
vt 0.875 0.4558105
vt 0.875 0.4562988
vt 0.862793 0.456543
vt 0.862793 0.4558105
vt 0.862793 0.4562988
vt 0.8618164 0.4562988
vt 0.8618164 0.456543
vt 0.8613281 0.456543
vt 0.8613281 0.4562988
vt 0.8613281 0.4558105
vt 0.8618164 0.4558105
vt 0.8613281 0.4555664
vt 0.8618164 0.4555664
vt 0.8613281 0.4553223
vt 0.7988281 0.4960938
vt 0.8022461 0.4799805
vt 0.7929688 0.4936523
vt 0.8056641 0.4960938
vt 0.7885742 0.4890137
vt 0.8115234 0.4936523
vt 0.7861328 0.4831543
vt 0.815918 0.4892578
vt 0.7861328 0.4768066
vt 0.8183594 0.4833984
vt 0.7885742 0.4707031
vt 0.8183594 0.4768066
vt 0.793457 0.4663086
vt 0.815918 0.4709473
vt 0.7993164 0.4638672
vt 0.8115234 0.4663086
vt 0.8056641 0.4638672
vt 0.7841797 0.4777832
vt 0.7680664 0.480957
vt 0.7841797 0.484375
vt 0.7817383 0.4719238
vt 0.7817383 0.4902344
vt 0.7773438 0.4672852
vt 0.7768555 0.494873
vt 0.7709961 0.4648438
vt 0.7709961 0.4973145
vt 0.7646484 0.4648438
vt 0.7646484 0.4973145
vt 0.7587891 0.4672852
vt 0.7587891 0.4946289
vt 0.7543945 0.4716797
vt 0.7539063 0.4902344
vt 0.7514648 0.4777832
vt 0.7514648 0.4841309
vt 0.7612305 0.4550781
vt 0.7578125 0.4536133
vt 0.7578125 0.4555664
vt 0.7539063 0.4550781
vt 0.7597656 0.4562988
vt 0.7578125 0.4584961
vt 0.7626953 0.4584961
vt 0.7553711 0.4562988
vt 0.7524414 0.4584961
vt 0.7607422 0.4584961
vt 0.7612305 0.4619141
vt 0.7543945 0.4584961
vt 0.7539063 0.4619141
vt 0.7597656 0.4604492
vt 0.7578125 0.4633789
vt 0.7553711 0.4604492
vt 0.7578125 0.4614258
vt 0.7626953 0.4584961
vt 0.7612305 0.4550781
vt 0.7607422 0.4584961
vt 0.7612305 0.4619141
vt 0.7597656 0.4604492
vt 0.7578125 0.4584961
vt 0.7578125 0.4633789
vt 0.7597656 0.4562988
vt 0.7578125 0.4555664
vt 0.7578125 0.4536133
vt 0.7539063 0.4550781
vt 0.7553711 0.4562988
vt 0.7524414 0.4584961
vt 0.7543945 0.4584961
vt 0.7539063 0.4619141
vt 0.7553711 0.4604492
vt 0.7578125 0.4614258
vn 0.7070313 0 -0.7070313
vn 0.3862305 0 -0.9223633
vn 0.3862305 0 -0.9223633
vn 0.7070313 0 -0.7070313
vn 0.9223633 0 -0.3862305
vn 0.9223633 0 -0.3862305
vn 1 0 0
vn 1 0 0
vn 0.9223633 0 0.3862305
vn 0.9223633 0 0.3862305
vn 0.7070313 0 0.7070313
vn 0.7070313 0 0.7070313
vn 0.3862305 0 0.9223633
vn 0.3862305 0 0.9223633
vn 0 0 1
vn 0 0 1
vn -0.3862305 0 0.9223633
vn -0.3862305 0 0.9223633
vn -0.7070313 0 0.7070313
vn -0.7070313 0 0.7070313
vn -0.9223633 0 0.3862305
vn -0.9223633 0 0.3862305
vn -1 0 0
vn -1 0 0
vn -0.9223633 0 -0.3862305
vn -0.9223633 0 -0.3862305
vn -0.7070313 0 -0.7070313
vn -0.7070313 0 -0.7070313
vn -0.3862305 0 -0.9223633
vn -0.3862305 0 -0.9223633
vn 0 0 -1
vn 0 0 -1
vn 0.3862305 0 -0.9223633
vn 0.3862305 0 -0.9223633
vn -0.6757813 0.628418 -0.3850098
vn -0.7412109 -0.6704102 -0.03152466
vn -0.762207 -0.6367188 -0.1178589
vn -0.5131836 0.4814453 -0.7104492
vn -0.133667 0.1258545 -0.9829102
vn -0.6923828 -0.7163086 -0.08660889
vn -0.628418 -0.7617188 -0.1571045
vn 0.5917969 0.7973633 -0.1183472
vn 0.6235352 0.78125 -0.03167725
vn 0.5131836 -0.4814453 0.7104492
vn 0.6757813 -0.628418 0.3850098
vn -0.7412109 -0.6704102 -0.03152466
vn -0.762207 -0.6367188 -0.1178589
vn -0.6923828 -0.7163086 -0.08660889
vn 0.668457 0.7387695 -0.08648682
vn 0.2832031 -0.267334 -0.9208984
vn -0.559082 -0.8266602 -0.06304932
vn 0.1413574 -0.1257324 0.9819336
vn -0.2832031 0.2675781 0.9208984
vn -0.628418 -0.7617188 -0.1571045
vn 0.7250977 0.6704102 -0.1577148
vn -0.6757813 0.628418 0.3850098
vn -0.559082 -0.8266602 -0.06304932
vn -0.6757813 0.628418 -0.3850098
vn -0.559082 -0.8266602 0.06298828
vn -0.628418 -0.7617188 0.1571045
vn 0.793457 0.6049805 -0.06292725
vn 0.6757813 -0.628418 -0.3850098
vn -0.559082 -0.8266602 0.06298828
vn 0.6757813 -0.628418 0.3850098
vn 0.793457 0.6049805 0.06286621
vn 0.2834473 -0.2675781 0.9208984
vn -0.628418 -0.7617188 0.1571045
vn -0.133667 0.1258545 0.9829102
vn -0.6928711 -0.7158203 0.08666992
vn -0.762207 -0.6367188 0.1177979
vn 0.7250977 0.6704102 0.1577148
vn -0.2832031 0.2675781 -0.9208984
vn -0.6928711 -0.7158203 0.08666992
vn 0.668457 0.7387695 0.08648682
vn 0.1413574 -0.1257324 -0.9819336
vn 0.5131836 -0.4814453 -0.7104492
vn -0.762207 -0.6367188 0.1177979
vn -0.7412109 -0.6704102 0.03170776
vn 0.6757813 -0.628418 -0.3850098
vn 0.6235352 0.78125 0.03167725
vn 0.5917969 0.7973633 0.1183472
vn -0.6757813 0.628418 0.3850098
vn -0.5131836 0.4814453 0.7104492
vn -0.7412109 -0.6704102 0.03170776
vn 0 1 0
vn 0 1 0
vn 0 1 0
vn 0 1 0
vn 0 1 0
vn 0 1 0
vn 0 1 0
vn 0 1 0
vn 0 1 0
vn 0 1 0
vn 0 1 0
vn 0 1 0
vn 0 1 0
vn 0 1 0
vn 0 1 0
vn 0 1 0
vn 0 1 0
vn 0 -1 0
vn 0 -1 0
vn 0 -1 0
vn 0 -1 0
vn 0 -1 0
vn 0 -1 0
vn 0 -1 0
vn 0 -1 0
vn 0 -1 0
vn 0 -1 0
vn 0 -1 0
vn 0 -1 0
vn 0 -1 0
vn 0 -1 0
vn 0 -1 0
vn 0 -1 0
vn 0 -1 0
vn -0.9995117 -0.03158569 0
vn -0.6831055 -0.7304688 0
vn -0.5283203 -0.5678711 -0.6308594
vn 0.03155518 -0.9995117 0
vn -0.7773438 -0.02359009 -0.628418
vn 0 0 -1
vn -0.7299805 0.6831055 0
vn 0.02362061 -0.7773438 -0.628418
vn 0.7304688 -0.6831055 0
vn -0.5678711 0.5283203 -0.6308594
vn -0.03158569 0.9995117 0
vn 0.5678711 -0.5283203 -0.6308594
vn 0.9995117 0.03155518 0
vn -0.02355957 0.7773438 -0.628418
vn 0.6835938 0.7299805 0
vn 0.7773438 0.02363586 -0.628418
vn 0.5283203 0.5678711 -0.6308594
vn -0.7304688 0.6831055 0
vn -0.03158569 0.9995117 0
vn -0.5678711 0.5283203 0.6308594
vn -0.9995117 -0.03155518 0
vn -0.7773438 -0.02363586 0.628418
vn 0 0 1
vn -0.6831055 -0.7299805 0
vn -0.02360535 0.7773438 0.628418
vn 0.5283203 0.5678711 0.6308594
vn 0.6831055 0.7299805 0
vn 0.9995117 0.03158569 0
vn 0.7773438 0.02359009 0.628418
vn 0.7299805 -0.6831055 0
vn 0.5678711 -0.5288086 0.6308594
vn 0.03158569 -0.9995117 0
vn 0.02355957 -0.7773438 0.628418
vn -0.5283203 -0.5678711 0.6308594
g SM_paintBucket_0
f 3/3/3 2/2/2 1/1/1
f 1/1/1 4/4/4 3/3/3
f 4/4/4 1/1/1 5/5/5
f 5/5/5 6/6/6 4/4/4
f 6/6/6 5/5/5 7/7/7
f 7/7/7 8/8/8 6/6/6
f 8/8/8 7/7/7 9/9/9
f 9/9/9 10/10/10 8/8/8
f 10/10/10 9/9/9 11/11/11
f 11/11/11 12/12/12 10/10/10
f 12/12/12 11/11/11 13/13/13
f 13/13/13 14/14/14 12/12/12
f 14/14/14 13/13/13 15/15/15
f 15/15/15 16/16/16 14/14/14
f 16/16/16 15/15/15 17/17/17
f 17/17/17 18/18/18 16/16/16
f 19/19/19 18/18/18 17/17/17
f 17/17/17 20/20/20 19/19/19
f 21/21/21 19/19/19 20/20/20
f 21/21/21 20/20/20 22/22/22
f 23/23/23 21/21/21 22/22/22
f 23/23/23 22/22/22 24/24/24
f 25/25/25 23/23/23 24/24/24
f 25/25/25 24/24/24 26/26/26
f 25/25/25 26/26/26 27/27/27
f 27/27/27 28/28/28 25/25/25
f 28/28/28 27/27/27 29/29/29
f 29/29/29 30/30/30 28/28/28
f 30/30/30 29/29/29 31/31/31
f 31/31/31 32/32/32 30/30/30
f 32/32/32 31/31/31 33/33/33
f 33/33/33 34/34/34 32/32/32
f 37/37/37 36/36/36 35/35/35
f 38/38/38 37/37/37 35/35/35
f 37/37/37 38/38/38 39/39/39
f 39/39/39 40/40/40 37/37/37
f 40/40/40 39/39/39 41/41/41
f 42/42/42 38/38/38 35/35/35
f 39/39/39 38/38/38 42/42/42
f 35/35/35 43/43/43 42/42/42
f 44/44/44 42/42/42 43/43/43
f 43/43/43 45/45/45 44/44/44
f 44/44/44 45/45/45 46/46/46
f 47/47/47 44/44/44 46/46/46
f 44/44/44 47/47/47 48/48/48
f 42/42/42 44/44/44 49/49/49
f 42/42/42 49/49/49 39/39/39
f 50/50/50 41/41/41 39/39/39
f 51/51/51 41/41/41 50/50/50
f 48/48/48 52/52/52 44/44/44
f 52/52/52 49/49/49 44/44/44
f 53/53/53 52/52/52 48/48/48
f 49/49/49 52/52/52 53/53/53
f 54/54/54 53/53/53 48/48/48
f 39/39/39 49/49/49 55/55/55
f 53/53/53 55/55/55 49/49/49
f 55/55/55 50/50/50 39/39/39
f 53/53/53 54/54/54 56/56/56
f 55/55/55 53/53/53 56/56/56
f 57/57/57 56/56/56 54/54/54
f 56/56/56 57/57/57 58/58/58
f 57/57/57 59/59/59 58/58/58
f 58/58/58 59/59/59 60/60/60
f 56/56/56 61/61/61 55/55/55
f 50/50/50 55/55/55 61/61/61
f 61/61/61 56/56/56 58/58/58
f 62/62/62 51/51/51 50/50/50
f 61/61/61 62/62/62 50/50/50
f 51/51/51 62/62/62 63/63/63
f 62/62/62 61/61/61 64/64/64
f 64/64/64 63/63/63 62/62/62
f 61/61/61 65/65/65 64/64/64
f 58/58/58 65/65/65 61/61/61
f 63/63/63 64/64/64 66/66/66
f 66/66/66 64/64/64 65/65/65
f 66/66/66 67/67/67 63/63/63
f 67/67/67 66/66/66 68/68/68
f 68/68/68 69/69/69 67/67/67
f 68/68/68 70/70/70 69/69/69
f 65/65/65 71/71/71 66/66/66
f 65/65/65 58/58/58 71/71/71
f 68/68/68 66/66/66 71/71/71
f 72/72/72 71/71/71 58/58/58
f 60/60/60 72/72/72 58/58/58
f 72/72/72 60/60/60 73/73/73
f 74/74/74 71/71/71 72/72/72
f 71/71/71 74/74/74 68/68/68
f 73/73/73 75/75/75 72/72/72
f 72/72/72 75/75/75 74/74/74
f 75/75/75 73/73/73 76/76/76
f 74/74/74 75/75/75 76/76/76
f 76/76/76 73/73/73 77/77/77
f 76/76/76 77/77/77 78/78/78
f 78/78/78 79/79/79 76/76/76
f 76/76/76 79/79/79 80/80/80
f 76/76/76 81/81/81 74/74/74
f 80/80/80 81/81/81 76/76/76
f 68/68/68 74/74/74 81/81/81
f 81/81/81 80/80/80 82/82/82
f 81/81/81 83/83/83 68/68/68
f 83/83/83 81/81/81 82/82/82
f 68/68/68 83/83/83 70/70/70
f 70/70/70 83/83/83 82/82/82
f 82/82/82 84/84/84 70/70/70
f 87/87/87 86/86/86 85/85/85
f 85/85/85 86/86/86 88/88/88
f 89/89/89 86/86/86 87/87/87
f 88/88/88 86/86/86 90/90/90
f 91/91/91 86/86/86 89/89/89
f 90/90/90 86/86/86 92/92/92
f 93/93/93 86/86/86 91/91/91
f 92/92/92 86/86/86 94/94/94
f 95/95/95 86/86/86 93/93/93
f 94/94/94 86/86/86 96/96/96
f 97/97/97 86/86/86 95/95/95
f 96/96/96 86/86/86 98/98/98
f 99/99/99 86/86/86 97/97/97
f 98/98/98 86/86/86 100/100/100
f 101/101/101 86/86/86 99/99/99
f 100/100/100 86/86/86 101/101/101
f 104/104/104 103/103/103 102/102/102
f 102/102/102 103/103/103 105/105/105
f 106/106/106 103/103/103 104/104/104
f 105/105/105 103/103/103 107/107/107
f 108/108/108 103/103/103 106/106/106
f 107/107/107 103/103/103 109/109/109
f 110/110/110 103/103/103 108/108/108
f 109/109/109 103/103/103 111/111/111
f 112/112/112 103/103/103 110/110/110
f 111/111/111 103/103/103 113/113/113
f 114/114/114 103/103/103 112/112/112
f 113/113/113 103/103/103 115/115/115
f 116/116/116 103/103/103 114/114/114
f 115/115/115 103/103/103 117/117/117
f 118/118/118 103/103/103 116/116/116
f 117/117/117 103/103/103 118/118/118
f 121/121/121 120/120/120 119/119/119
f 121/121/121 122/122/122 120/120/120
f 119/119/119 123/123/123 121/121/121
f 123/123/123 124/124/124 121/121/121
f 123/123/123 119/119/119 125/125/125
f 121/121/121 126/126/126 122/122/122
f 121/121/121 124/124/124 126/126/126
f 127/127/127 122/122/122 126/126/126
f 125/125/125 128/128/128 123/123/123
f 128/128/128 124/124/124 123/123/123
f 128/128/128 125/125/125 129/129/129
f 126/126/126 130/130/130 127/127/127
f 126/126/126 124/124/124 130/130/130
f 127/127/127 130/130/130 131/131/131
f 129/129/129 132/132/132 128/128/128
f 132/132/132 124/124/124 128/128/128
f 132/132/132 129/129/129 133/133/133
f 131/131/131 130/130/130 134/134/134
f 130/130/130 124/124/124 134/134/134
f 131/131/131 134/134/134 133/133/133
f 135/135/135 124/124/124 132/132/132
f 133/133/133 135/135/135 132/132/132
f 134/134/134 124/124/124 135/135/135
f 133/133/133 134/134/134 135/135/135
f 138/138/138 137/137/137 136/136/136
f 138/138/138 136/136/136 139/139/139
f 139/139/139 140/140/140 138/138/138
f 140/140/140 141/141/141 138/138/138
f 140/140/140 139/139/139 142/142/142
f 138/138/138 143/143/143 137/137/137
f 138/138/138 141/141/141 143/143/143
f 137/137/137 143/143/143 144/144/144
f 143/143/143 141/141/141 144/144/144
f 144/144/144 145/145/145 137/137/137
f 146/146/146 145/145/145 144/144/144
f 144/144/144 147/147/147 146/146/146
f 144/144/144 141/141/141 147/147/147
f 148/148/148 146/146/146 147/147/147
f 147/147/147 149/149/149 148/148/148
f 147/147/147 141/141/141 149/149/149
f 150/150/150 148/148/148 149/149/149
f 151/151/151 150/150/150 149/149/149
f 142/142/142 150/150/150 151/151/151
f 149/149/149 141/141/141 151/151/151
f 152/152/152 141/141/141 140/140/140
f 142/142/142 152/152/152 140/140/140
f 151/151/151 141/141/141 152/152/152
f 152/152/152 142/142/142 151/151/151
