g SM_ProjectorLampL_emit
v -0.01921844 -0.04084884 0.01685152
v -0.02333999 0.04606867 0.02678563
v -0.02333331 -0.04084884 0.02678565
v -0.01922321 0.04606867 0.01684686
v -0.009284377 0.04606867 0.01273008
v -0.009284496 -0.04084885 0.01273671
v 0.0006496906 -0.04084884 0.01685158
v 0.0006543398 0.04606867 0.01684686
v 0.004770994 0.04606867 0.02678563
v 0.004764438 -0.04084884 0.02678565
v 0.0006496906 -0.04084884 0.03671977
v 0.0006543398 0.04606867 0.03672435
v -0.009284377 0.04606867 0.04084112
v -0.009284496 -0.04084884 0.04083452
v -0.01921844 -0.04084884 0.03671965
v -0.01922321 0.04606867 0.03672435
v -0.02333999 0.04606867 0.02678563
v -0.02333331 -0.04084884 0.02678565
v -0.01921844 -0.04084885 -0.02081587
v -0.02333999 0.04606867 -0.01088176
v -0.02333331 -0.04084885 -0.01088174
v -0.01922321 0.04606866 -0.02082054
v -0.009284377 0.04606866 -0.02493731
v -0.009284496 -0.04084885 -0.02493068
v 0.0006496906 -0.04084885 -0.02081581
v 0.0006543398 0.04606866 -0.02082054
v 0.004770994 0.04606867 -0.01088176
v 0.004764438 -0.04084885 -0.01088174
v 0.0006496906 -0.04084885 -0.0009476178
v 0.0006543398 0.04606867 -0.0009430424
v -0.009284377 0.04606867 0.003173731
v -0.009284496 -0.04084885 0.003167129
v -0.01921844 -0.04084885 -0.000947737
v -0.01922321 0.04606867 -0.0009430424
v -0.02333999 0.04606867 -0.01088176
v -0.02333331 -0.04084885 -0.01088174
v -0.01922321 0.04606867 -0.0009430424
v -0.02333999 0.04606867 -0.01088176
v -0.01922321 0.04606866 -0.02082054
v 0.004770994 0.04606867 -0.01088176
v -0.009284377 0.04606867 0.003173731
v 0.0006543398 0.04606867 -0.0009430424
v -0.009284377 0.04606866 -0.02493731
v 0.0006543398 0.04606866 -0.02082054
v -0.01921844 -0.04084885 -0.02081587
v -0.02333331 -0.04084885 -0.01088174
v -0.01921844 -0.04084885 -0.000947737
v -0.009284496 -0.04084885 -0.02493068
v 0.004764438 -0.04084885 -0.01088174
v 0.0006496906 -0.04084885 -0.02081581
v -0.009284496 -0.04084885 0.003167129
v 0.0006496906 -0.04084885 -0.0009476178
vt 0.4553223 0.9804688
vt 0.4367676 0.9829102
vt 0.4553223 0.9829102
vt 0.4367676 0.9804688
vt 0.4367676 0.9785156
vt 0.4553223 0.9785156
vt 0.4553223 0.9760742
vt 0.4367676 0.9760742
vt 0.4367676 0.9736328
vt 0.4553223 0.9736328
vt 0.4553223 0.9711914
vt 0.4367676 0.9711914
vt 0.4367676 0.9692383
vt 0.4553223 0.9692383
vt 0.4553223 0.9667969
vt 0.4367676 0.9667969
vt 0.4367676 0.9643555
vt 0.4553223 0.9643555
vt 0.4553223 0.9804688
vt 0.4367676 0.9829102
vt 0.4553223 0.9829102
vt 0.4367676 0.9804688
vt 0.4367676 0.9785156
vt 0.4553223 0.9785156
vt 0.4553223 0.9760742
vt 0.4367676 0.9760742
vt 0.4367676 0.9736328
vt 0.4553223 0.9736328
vt 0.4553223 0.9711914
vt 0.4367676 0.9711914
vt 0.4367676 0.9692383
vt 0.4553223 0.9692383
vt 0.4553223 0.9667969
vt 0.4367676 0.9667969
vt 0.4367676 0.9643555
vt 0.4553223 0.9643555
vt 0.4726563 0.9140625
vt 0.4709473 0.9125977
vt 0.46875 0.9125977
vt 0.46875 0.9179688
vt 0.4726563 0.9165039
vt 0.4709473 0.9179688
vt 0.467041 0.9140625
vt 0.467041 0.9165039
vt 0.4345703 0.9960938
vt 0.4345703 0.9936523
vt 0.4328613 0.9921875
vt 0.4328613 0.9975586
vt 0.4289551 0.9960938
vt 0.4306641 0.9975586
vt 0.4306641 0.9921875
vt 0.4289551 0.9936523
vn -0.7070313 -7.653236E-05 -0.7070313
vn -1 -7.69496E-05 0
vn -1 -7.69496E-05 0
vn -0.7070313 -7.653236E-05 -0.7070313
vn 0 -7.635355E-05 -1
vn 0 -7.635355E-05 -1
vn 0.7070313 -7.623434E-05 -0.7070313
vn 0.7070313 -7.623434E-05 -0.7070313
vn 1 -7.551908E-05 0
vn 1 -7.551908E-05 0
vn 0.7070313 -7.551908E-05 0.7070313
vn 0.7070313 -7.551908E-05 0.7070313
vn 0 -7.587671E-05 1
vn 0 -7.587671E-05 1
vn -0.7070313 -7.653236E-05 0.7070313
vn -0.7070313 -7.653236E-05 0.7070313
vn -1 -7.69496E-05 0
vn -1 -7.69496E-05 0
vn -0.5498047 -0.628418 -0.5498047
vn -0.777832 0.628418 0
vn -0.777832 -0.628418 0
vn -0.5498047 0.628418 -0.5498047
vn 0 0.628418 -0.777832
vn 0 -0.628418 -0.777832
vn 0.5498047 -0.628418 -0.5498047
vn 0.5498047 0.628418 -0.5498047
vn 0.777832 0.628418 0
vn 0.777832 -0.628418 0
vn 0.5498047 -0.628418 0.5498047
vn 0.5498047 0.628418 0.5498047
vn 0 0.628418 0.777832
vn 0 -0.628418 0.777832
vn -0.5498047 -0.628418 0.5498047
vn -0.5498047 0.628418 0.5498047
vn -0.777832 0.628418 0
vn -0.777832 -0.628418 0
vn -0.5498047 0.628418 0.5498047
vn -0.777832 0.628418 0
vn -0.5498047 0.628418 -0.5498047
vn 0.777832 0.628418 0
vn 0 0.628418 0.777832
vn 0.5498047 0.628418 0.5498047
vn 0 0.628418 -0.777832
vn 0.5498047 0.628418 -0.5498047
vn -0.5498047 -0.628418 -0.5498047
vn -0.777832 -0.628418 0
vn -0.5498047 -0.628418 0.5498047
vn 0 -0.628418 -0.777832
vn 0.777832 -0.628418 0
vn 0.5498047 -0.628418 -0.5498047
vn 0 -0.628418 0.777832
vn 0.5498047 -0.628418 0.5498047
g SM_ProjectorLampL_emit_0
f 3/3/3 2/2/2 1/1/1
f 2/2/2 4/4/4 1/1/1
f 4/4/4 5/5/5 1/1/1
f 5/5/5 6/6/6 1/1/1
f 6/6/6 5/5/5 7/7/7
f 5/5/5 8/8/8 7/7/7
f 8/8/8 9/9/9 7/7/7
f 9/9/9 10/10/10 7/7/7
f 10/10/10 9/9/9 11/11/11
f 9/9/9 12/12/12 11/11/11
f 12/12/12 13/13/13 11/11/11
f 13/13/13 14/14/14 11/11/11
f 14/14/14 13/13/13 15/15/15
f 13/13/13 16/16/16 15/15/15
f 16/16/16 17/17/17 15/15/15
f 17/17/17 18/18/18 15/15/15
f 21/21/21 20/20/20 19/19/19
f 20/20/20 22/22/22 19/19/19
f 22/22/22 23/23/23 19/19/19
f 23/23/23 24/24/24 19/19/19
f 24/24/24 23/23/23 25/25/25
f 23/23/23 26/26/26 25/25/25
f 26/26/26 27/27/27 25/25/25
f 27/27/27 28/28/28 25/25/25
f 28/28/28 27/27/27 29/29/29
f 27/27/27 30/30/30 29/29/29
f 30/30/30 31/31/31 29/29/29
f 31/31/31 32/32/32 29/29/29
f 32/32/32 31/31/31 33/33/33
f 31/31/31 34/34/34 33/33/33
f 34/34/34 35/35/35 33/33/33
f 35/35/35 36/36/36 33/33/33
f 39/39/39 38/38/38 37/37/37
f 39/39/39 37/37/37 40/40/40
f 37/37/37 41/41/41 40/40/40
f 41/41/41 42/42/42 40/40/40
f 43/43/43 39/39/39 40/40/40
f 40/40/40 44/44/44 43/43/43
f 47/47/47 46/46/46 45/45/45
f 47/47/47 45/45/45 48/48/48
f 49/49/49 47/47/47 48/48/48
f 48/48/48 50/50/50 49/49/49
f 49/49/49 51/51/51 47/47/47
f 49/49/49 52/52/52 51/51/51
