g SM_ProjectorHandle
v 0.03846136 -0.02112297 0.005925315
v 0.03828124 -0.02818755 -0.005142073
v 0.03828124 -0.02818755 0.005925317
v 0.03846136 -0.02112297 -0.005142074
v 0.032787 -0.0108432 0.005925315
v 0.032787 -0.0108432 -0.005142076
v 0.01814333 0.01300963 0.00592531
v 0.01814333 0.01300963 -0.00514208
v 0.01328043 0.01853856 0.005925309
v 0.01328043 0.01853855 -0.005142081
v 0.006395496 0.0212452 0.005925309
v 0.006395496 0.0212452 -0.005142081
v -0.02135046 0.02901967 0.005925307
v -0.02135046 0.02901967 -0.005142082
v -0.03227218 0.03096016 0.005925307
v -0.03227218 0.03096016 -0.005142082
v -0.03828105 0.02818747 0.005925307
v -0.03828105 0.02818747 -0.005142082
v -0.03846177 0.02112325 0.005925309
v -0.03846177 0.02112325 -0.005142081
v -0.03278669 0.010843 0.005925311
v -0.03278669 0.010843 -0.00514208
v -0.01814326 -0.01300982 0.005925315
v -0.01814326 -0.01300983 -0.005142075
v -0.01328035 -0.01853851 0.005925315
v -0.01328035 -0.01853852 -0.005142075
v -0.006395422 -0.02124528 0.005925315
v -0.006395422 -0.02124528 -0.005142074
v 0.02135054 -0.02901975 0.005925317
v 0.02135054 -0.02901975 -0.005142073
v 0.03227214 -0.03096 0.005925317
v 0.03227214 -0.03096 -0.005142073
v 0.03828124 -0.02818755 0.005925317
v 0.03828124 -0.02818755 -0.005142073
v 0.01814333 0.01300963 -0.00514208
v 0.01328043 0.01853855 -0.005142081
v 0.008217967 0.01033636 -0.00514208
v 0.006395496 0.0212452 -0.005142081
v 0.01154796 0.006404599 -0.005142079
v 0.01311985 0.001497944 -0.005142078
v 0.032787 -0.0108432 -0.005142076
v 0.007172025 0.003977616 -0.01041518
v 0.01269428 -0.003636876 -0.005142076
v 0.03846136 -0.02112297 -0.005142074
v 0.0103362 -0.008217971 -0.005142076
v 0.03828124 -0.02818755 -0.005142073
v 0.03227214 -0.03096 -0.005142073
v 0.007884062 -0.002258818 -0.01041518
v 0.00814811 0.0009302689 -0.01041518
v 3.72529E-08 -4.034673E-08 -0.01041518
v 0.005103744 0.006419618 -0.01041518
v 0.003636993 0.01269444 -0.00514208
v -0.001497947 0.0131199 -0.00514208
v -0.02135046 0.02901967 -0.005142082
v 0.002258696 0.007883985 -0.01041518
v 0.006404556 -0.01154796 -0.005142076
v 0.02135054 -0.02901975 -0.005142073
v 0.006419338 -0.005103867 -0.01041518
v 0.003977574 -0.007172029 -0.01041518
v -0.0009303913 0.008148391 -0.01041518
v -0.003977738 0.007172067 -0.01041518
v 0.0009302273 -0.008148353 -0.01041518
v -0.00640472 0.011548 -0.00514208
v -0.01033624 0.00821801 -0.005142079
v -0.03227218 0.03096016 -0.005142082
v -0.03828105 0.02818747 -0.005142082
v -0.03846177 0.02112325 -0.005142081
v 0.001497902 -0.01311986 -0.005142075
v -0.006395422 -0.02124528 -0.005142074
v -0.00225886 -0.007883946 -0.01041518
v -0.003637038 -0.01269428 -0.005142076
v -0.008218132 -0.01033632 -0.005142076
v -0.01328035 -0.01853852 -0.005142075
v -0.01814326 -0.01300983 -0.005142075
v -0.005103908 -0.00641958 -0.01041518
v -0.00717219 -0.003977696 -0.01041518
v -0.01154812 -0.006404558 -0.005142076
v -0.0131199 -0.001497785 -0.005142078
v -0.03278669 0.010843 -0.00514208
v -0.008148275 -0.0009302304 -0.01041518
v -0.01269444 0.003636917 -0.005142078
v -0.007884227 0.002258856 -0.01041518
v -0.006419502 0.005103905 -0.01041518
v 1.564622E-07 -1.568938E-07 0.005925313
v -0.02135046 0.02901967 0.005925307
v 0.006395496 0.0212452 0.005925309
v -0.03227218 0.03096016 0.005925307
v 0.01328043 0.01853856 0.005925309
v -0.03828105 0.02818747 0.005925307
v 0.01814333 0.01300963 0.00592531
v -0.03846177 0.02112325 0.005925309
v 0.032787 -0.0108432 0.005925315
v -0.03278669 0.010843 0.005925311
v 0.03846136 -0.02112297 0.005925315
v -0.01814326 -0.01300982 0.005925315
v 0.03828124 -0.02818755 0.005925317
v -0.01328035 -0.01853851 0.005925315
v 0.03227214 -0.03096 0.005925317
v -0.006395422 -0.02124528 0.005925315
v 0.02135054 -0.02901975 0.005925317
vt 0.3637695 0.8686523
vt 0.3613281 0.8701172
vt 0.3637695 0.8701172
vt 0.3613281 0.8686523
vt 0.3637695 0.8662109
vt 0.3613281 0.8662109
vt 0.3637695 0.8603516
vt 0.3613281 0.8603516
vt 0.3637695 0.8588867
vt 0.3613281 0.8588867
vt 0.3637695 0.8569336
vt 0.3613281 0.8569336
vt 0.3637695 0.8510742
vt 0.3613281 0.8510742
vt 0.3637695 0.8486328
vt 0.3613281 0.8486328
vt 0.3637695 0.847168
vt 0.3613281 0.847168
vt 0.3637695 0.8457031
vt 0.3613281 0.8457031
vt 0.3637695 0.8432617
vt 0.3613281 0.8432617
vt 0.3637695 0.8369141
vt 0.3613281 0.8369141
vt 0.3637695 0.8354492
vt 0.3613281 0.8354492
vt 0.3637695 0.8339844
vt 0.3613281 0.8339844
vt 0.3637695 0.8276367
vt 0.3613281 0.8276367
vt 0.3637695 0.8251953
vt 0.3613281 0.8251953
vt 0.3637695 0.8237305
vt 0.3613281 0.8237305
vt 0.3986816 0.9790039
vt 0.3984375 0.9775391
vt 0.3964844 0.9785156
vt 0.3974609 0.9760742
vt 0.3967285 0.9794922
vt 0.3964844 0.980957
vt 0.3986816 0.9853516
vt 0.3952637 0.9794922
vt 0.395752 0.9814453
vt 0.3986816 0.987793
vt 0.3947754 0.9824219
vt 0.3977051 0.9892578
vt 0.3962402 0.9887695
vt 0.3947754 0.9804688
vt 0.3950195 0.9799805
vt 0.3937988 0.9794922
vt 0.3952637 0.9790039
vt 0.3959961 0.9775391
vt 0.3950195 0.9770508
vt 0.3930664 0.9716797
vt 0.3947754 0.9785156
vt 0.3935547 0.9824219
vt 0.3945313 0.9873047
vt 0.3942871 0.980957
vt 0.3937988 0.980957
vt 0.3942871 0.9780273
vt 0.3937988 0.9780273
vt 0.3930664 0.980957
vt 0.3937988 0.9765625
vt 0.3928223 0.9765625
vt 0.3911133 0.9697266
vt 0.3898926 0.9697266
vt 0.388916 0.9711914
vt 0.3925781 0.9819336
vt 0.3901367 0.9829102
vt 0.3925781 0.9804688
vt 0.3916016 0.9814453
vt 0.3911133 0.9804688
vt 0.3891602 0.9814453
vt 0.388916 0.9799805
vt 0.392334 0.9799805
vt 0.392334 0.9794922
vt 0.3908691 0.9794922
vt 0.3911133 0.9780273
vt 0.388916 0.9736328
vt 0.392334 0.9790039
vt 0.3918457 0.9775391
vt 0.3928223 0.9785156
vt 0.3933105 0.9780273
vt 0.3813477 0.9838867
vt 0.3806152 0.9916992
vt 0.3847656 0.9868164
vt 0.3789063 0.9931641
vt 0.3857422 0.9858398
vt 0.3774414 0.9931641
vt 0.3859863 0.984375
vt 0.376709 0.9921875
vt 0.3859863 0.9780273
vt 0.3764648 0.9897461
vt 0.3859863 0.9755859
vt 0.3764648 0.9833984
vt 0.3852539 0.9746094
vt 0.376709 0.9819336
vt 0.3837891 0.9746094
vt 0.3776855 0.9804688
vt 0.3818359 0.9760742
vn 0.7338867 0.1813965 0.6547852
vn 0.6616211 -0.440918 -0.6064453
vn 0.6616211 -0.440918 0.6064453
vn 0.7338867 0.1813965 -0.6547852
vn 0.6142578 0.3623047 0.7011719
vn 0.6142578 0.3623047 -0.7011719
vn 0.5839844 0.4338379 0.6865234
vn 0.5834961 0.4338379 -0.6865234
vn 0.4326172 0.6132813 0.6606445
vn 0.4326172 0.6132813 -0.6606445
vn 0.2293701 0.6801758 0.6962891
vn 0.2293701 0.6801758 -0.6962891
vn 0.1578369 0.7021484 0.6943359
vn 0.1578369 0.7021484 -0.6943359
vn -0.09460449 0.7568359 0.6464844
vn -0.09466553 0.7568359 -0.6464844
vn -0.6616211 0.4411621 0.6064453
vn -0.6616211 0.4411621 -0.6064453
vn -0.7338867 -0.1813965 0.6547852
vn -0.7338867 -0.1813965 -0.6547852
vn -0.6142578 -0.3623047 0.7011719
vn -0.6142578 -0.3623047 -0.7011719
vn -0.5839844 -0.4338379 0.6865234
vn -0.5839844 -0.4338379 -0.6865234
vn -0.4326172 -0.6132813 0.6606445
vn -0.4326172 -0.6132813 -0.6606445
vn -0.2293701 -0.6801758 0.6962891
vn -0.229248 -0.6801758 -0.6962891
vn -0.1578369 -0.7021484 0.6943359
vn -0.1578369 -0.7021484 -0.6943359
vn 0.09466553 -0.7568359 0.6464844
vn 0.09460449 -0.7568359 -0.6464844
vn 0.6616211 -0.440918 0.6064453
vn 0.6616211 -0.440918 -0.6064453
vn 0.5834961 0.4338379 -0.6865234
vn 0.4326172 0.6132813 -0.6606445
vn 0.2200928 0.2751465 -0.9360352
vn 0.2293701 0.6801758 -0.6962891
vn 0.3066406 0.1729736 -0.9360352
vn 0.3464355 0.03936768 -0.9370117
vn 0.6142578 0.3623047 -0.7011719
vn 0.3791504 0.2132568 -0.9003906
vn 0.3383789 -0.09448242 -0.9365234
vn 0.7338867 0.1813965 -0.6547852
vn 0.2751465 -0.2202148 -0.9360352
vn 0.6616211 -0.440918 -0.6064453
vn 0.09460449 -0.7568359 -0.6464844
vn 0.418457 -0.1185913 -0.9003906
vn 0.434082 0.04736328 -0.8999023
vn 0 0 -1
vn 0.2687988 0.3398438 -0.9013672
vn 0.09454346 0.3383789 -0.9360352
vn -0.03936768 0.3464355 -0.9370117
vn 0.1578369 0.7021484 -0.6943359
vn 0.1184692 0.4187012 -0.9003906
vn 0.1729736 -0.3066406 -0.9360352
vn -0.1578369 -0.7021484 -0.6943359
vn 0.3398438 -0.2687988 -0.9013672
vn 0.2132568 -0.3791504 -0.9003906
vn -0.04736328 0.434082 -0.8994141
vn -0.2132568 0.3791504 -0.9003906
vn 0.04736328 -0.434082 -0.8994141
vn -0.1729736 0.3066406 -0.9360352
vn -0.2751465 0.2200928 -0.9360352
vn -0.09466553 0.7568359 -0.6464844
vn -0.6616211 0.4411621 -0.6064453
vn -0.7338867 -0.1813965 -0.6547852
vn 0.03939819 -0.3466797 -0.9370117
vn -0.229248 -0.6801758 -0.6962891
vn -0.1185303 -0.418457 -0.9003906
vn -0.09454346 -0.3383789 -0.9360352
vn -0.2202148 -0.2751465 -0.9360352
vn -0.4326172 -0.6132813 -0.6606445
vn -0.5839844 -0.4338379 -0.6865234
vn -0.2687988 -0.3398438 -0.9013672
vn -0.3791504 -0.2131348 -0.9003906
vn -0.3066406 -0.1729736 -0.9360352
vn -0.3464355 -0.03936768 -0.9370117
vn -0.6142578 -0.3623047 -0.7011719
vn -0.434082 -0.04733276 -0.8994141
vn -0.3383789 0.09454346 -0.9360352
vn -0.4187012 0.1184692 -0.9003906
vn -0.3398438 0.2687988 -0.9013672
vn 0 0 1
vn 0.1578369 0.7021484 0.6943359
vn 0.2293701 0.6801758 0.6962891
vn -0.09460449 0.7568359 0.6464844
vn 0.4326172 0.6132813 0.6606445
vn -0.6616211 0.4411621 0.6064453
vn 0.5839844 0.4338379 0.6865234
vn -0.7338867 -0.1813965 0.6547852
vn 0.6142578 0.3623047 0.7011719
vn -0.6142578 -0.3623047 0.7011719
vn 0.7338867 0.1813965 0.6547852
vn -0.5839844 -0.4338379 0.6865234
vn 0.6616211 -0.440918 0.6064453
vn -0.4326172 -0.6132813 0.6606445
vn 0.09466553 -0.7568359 0.6464844
vn -0.2293701 -0.6801758 0.6962891
vn -0.1578369 -0.7021484 0.6943359
g SM_ProjectorHandle_0
f 3/3/3 2/2/2 1/1/1
f 1/1/1 2/2/2 4/4/4
f 1/1/1 4/4/4 5/5/5
f 5/5/5 4/4/4 6/6/6
f 5/5/5 6/6/6 7/7/7
f 8/8/8 7/7/7 6/6/6
f 8/8/8 9/9/9 7/7/7
f 9/9/9 8/8/8 10/10/10
f 11/11/11 9/9/9 10/10/10
f 12/12/12 11/11/11 10/10/10
f 13/13/13 11/11/11 12/12/12
f 14/14/14 13/13/13 12/12/12
f 15/15/15 13/13/13 14/14/14
f 16/16/16 15/15/15 14/14/14
f 17/17/17 15/15/15 16/16/16
f 17/17/17 16/16/16 18/18/18
f 19/19/19 17/17/17 18/18/18
f 18/18/18 20/20/20 19/19/19
f 21/21/21 19/19/19 20/20/20
f 20/20/20 22/22/22 21/21/21
f 23/23/23 21/21/21 22/22/22
f 22/22/22 24/24/24 23/23/23
f 25/25/25 23/23/23 24/24/24
f 24/24/24 26/26/26 25/25/25
f 27/27/27 25/25/25 26/26/26
f 26/26/26 28/28/28 27/27/27
f 27/27/27 28/28/28 29/29/29
f 28/28/28 30/30/30 29/29/29
f 30/30/30 31/31/31 29/29/29
f 30/30/30 32/32/32 31/31/31
f 32/32/32 33/33/33 31/31/31
f 32/32/32 34/34/34 33/33/33
f 37/37/37 36/36/36 35/35/35
f 37/37/37 38/38/38 36/36/36
f 35/35/35 39/39/39 37/37/37
f 40/40/40 39/39/39 35/35/35
f 41/41/41 40/40/40 35/35/35
f 37/37/37 39/39/39 42/42/42
f 42/42/42 39/39/39 40/40/40
f 43/43/43 40/40/40 41/41/41
f 43/43/43 41/41/41 44/44/44
f 43/43/43 44/44/44 45/45/45
f 45/45/45 44/44/44 46/46/46
f 45/45/45 46/46/46 47/47/47
f 43/43/43 48/48/48 40/40/40
f 48/48/48 43/43/43 45/45/45
f 40/40/40 49/49/49 42/42/42
f 40/40/40 48/48/48 49/49/49
f 42/42/42 49/49/49 50/50/50
f 49/49/49 48/48/48 50/50/50
f 42/42/42 51/51/51 37/37/37
f 51/51/51 42/42/42 50/50/50
f 52/52/52 38/38/38 37/37/37
f 52/52/52 37/37/37 51/51/51
f 38/38/38 52/52/52 53/53/53
f 53/53/53 54/54/54 38/38/38
f 51/51/51 55/55/55 52/52/52
f 55/55/55 51/51/51 50/50/50
f 52/52/52 55/55/55 53/53/53
f 47/47/47 56/56/56 45/45/45
f 56/56/56 47/47/47 57/57/57
f 45/45/45 58/58/58 48/48/48
f 48/48/48 58/58/58 50/50/50
f 59/59/59 58/58/58 45/45/45
f 45/45/45 56/56/56 59/59/59
f 58/58/58 59/59/59 50/50/50
f 60/60/60 55/55/55 50/50/50
f 60/60/60 53/53/53 55/55/55
f 61/61/61 60/60/60 50/50/50
f 53/53/53 60/60/60 61/61/61
f 59/59/59 62/62/62 50/50/50
f 54/54/54 53/53/53 63/63/63
f 61/61/61 63/63/63 53/53/53
f 63/63/63 61/61/61 64/64/64
f 63/63/63 65/65/65 54/54/54
f 65/65/65 63/63/63 64/64/64
f 64/64/64 66/66/66 65/65/65
f 64/64/64 67/67/67 66/66/66
f 59/59/59 56/56/56 68/68/68
f 68/68/68 62/62/62 59/59/59
f 57/57/57 68/68/68 56/56/56
f 68/68/68 57/57/57 69/69/69
f 70/70/70 62/62/62 68/68/68
f 62/62/62 70/70/70 50/50/50
f 69/69/69 71/71/71 68/68/68
f 68/68/68 71/71/71 70/70/70
f 72/72/72 71/71/71 69/69/69
f 69/69/69 73/73/73 72/72/72
f 72/72/72 73/73/73 74/74/74
f 71/71/71 75/75/75 70/70/70
f 70/70/70 75/75/75 50/50/50
f 72/72/72 75/75/75 71/71/71
f 76/76/76 75/75/75 72/72/72
f 75/75/75 76/76/76 50/50/50
f 74/74/74 77/77/77 72/72/72
f 76/76/76 72/72/72 77/77/77
f 78/78/78 77/77/77 74/74/74
f 76/76/76 77/77/77 78/78/78
f 79/79/79 78/78/78 74/74/74
f 76/76/76 80/80/80 50/50/50
f 78/78/78 80/80/80 76/76/76
f 79/79/79 81/81/81 78/78/78
f 81/81/81 79/79/79 67/67/67
f 67/67/67 64/64/64 81/81/81
f 82/82/82 80/80/80 78/78/78
f 78/78/78 81/81/81 82/82/82
f 80/80/80 82/82/82 50/50/50
f 82/82/82 81/81/81 64/64/64
f 82/82/82 83/83/83 50/50/50
f 64/64/64 83/83/83 82/82/82
f 83/83/83 61/61/61 50/50/50
f 64/64/64 61/61/61 83/83/83
f 86/86/86 85/85/85 84/84/84
f 85/85/85 87/87/87 84/84/84
f 88/88/88 86/86/86 84/84/84
f 87/87/87 89/89/89 84/84/84
f 90/90/90 88/88/88 84/84/84
f 89/89/89 91/91/91 84/84/84
f 92/92/92 90/90/90 84/84/84
f 91/91/91 93/93/93 84/84/84
f 94/94/94 92/92/92 84/84/84
f 93/93/93 95/95/95 84/84/84
f 96/96/96 94/94/94 84/84/84
f 95/95/95 97/97/97 84/84/84
f 98/98/98 96/96/96 84/84/84
f 97/97/97 99/99/99 84/84/84
f 100/100/100 98/98/98 84/84/84
f 99/99/99 100/100/100 84/84/84
