g graffity
v -25.08656 -0.3465259 49.18331
v -21.63453 -0.3464795 49.13892
v -21.63566 -0.3465039 49.20367
v -25.08551 -0.3465015 49.11855
v -25.08656 -0.3465259 49.18331
v -21.63566 -2.405471 49.20357
v -25.08656 -2.405493 49.1832
v -21.63566 -0.3465039 49.20367
v -21.63457 -2.405446 49.13882
v -21.63566 -0.3465039 49.20367
v -21.63453 -0.3464795 49.13892
v -21.63566 -2.405471 49.20357
v -25.08551 -0.3465015 49.11855
v -25.08656 -2.405493 49.1832
v -25.08551 -2.40547 49.11844
v -25.08656 -0.3465259 49.18331
v -25.08551 -2.40547 49.11844
v -21.63566 -2.405471 49.20357
v -21.63457 -2.405446 49.13882
v -25.08656 -2.405493 49.1832
v 15.85499 5.660347 -1.526562
v 15.7773 5.660384 -6.845312
v 15.84206 5.660348 -6.845429
v 15.79022 5.660383 -1.526406
v 15.85499 5.660347 -1.526562
v 15.84198 2.486591 -6.845429
v 15.85489 2.486589 -1.526562
v 15.84206 5.660348 -6.845429
v 15.77722 2.486631 -6.845234
v 15.84206 5.660348 -6.845429
v 15.7773 5.660384 -6.845312
v 15.84198 2.486591 -6.845429
v 15.79022 5.660383 -1.526406
v 15.85489 2.486589 -1.526562
v 15.79013 2.486626 -1.526406
v 15.85499 5.660347 -1.526562
v 15.79013 2.486626 -1.526406
v 15.84198 2.486591 -6.845429
v 15.77722 2.486631 -6.845234
v 15.85489 2.486589 -1.526562
vt 0.01568604 0.965332
vt 0.9482422 0.9980469
vt 0.9482422 0.965332
vt 0.01568604 0.9980469
vt 0.01568604 0.965332
vt 0.9482422 0.03268433
vt 0.01568604 0.03268433
vt 0.9482422 0.965332
vt 0.9638672 0.03268433
vt 0.9482422 0.965332
vt 0.9638672 0.965332
vt 0.9482422 0.03268433
vt 0.0001382828 0.965332
vt 0.01568604 0.03268433
vt 0.0001382828 0.03268433
vt 0.01568604 0.965332
vt 0.01567078 0.000138402
vt 0.9482422 0.03268433
vt 0.9482422 0.0001382828
vt 0.01568604 0.03268433
vt 0.01568604 0.965332
vt 0.9482422 0.9980469
vt 0.9482422 0.965332
vt 0.01568604 0.9980469
vt 0.01568604 0.965332
vt 0.9482422 0.03268433
vt 0.01568604 0.03268433
vt 0.9482422 0.965332
vt 0.9638672 0.03268433
vt 0.9482422 0.965332
vt 0.9638672 0.965332
vt 0.9482422 0.03268433
vt 0.0001382828 0.965332
vt 0.01568604 0.03268433
vt 0.0001382828 0.03268433
vt 0.01568604 0.965332
vt 0.01567078 0.000138402
vt 0.9482422 0.03268433
vt 0.9482422 0.0001382828
vt 0.01568604 0.03268433
vn -8.583069E-06 1 0.0003769398
vn -8.583069E-06 1 0.0003769398
vn -8.583069E-06 1 0.0003769398
vn -8.583069E-06 1 0.0003769398
vn -0.005901337 -5.370378E-05 1
vn -0.005901337 -5.298853E-05 1
vn -0.005901337 -5.453825E-05 1
vn -0.005901337 -5.215406E-05 1
vn 1 -1.251698E-06 0.01690674
vn 1 -1.949072E-05 0.01748657
vn 1 -1.990795E-05 0.01748657
vn 1 -8.940697E-07 0.01689148
vn -1 8.940697E-07 -0.01628113
vn -1 8.940697E-07 -0.01628113
vn -1 8.940697E-07 -0.01628113
vn -1 8.940697E-07 -0.01628113
vn 8.46386E-06 -1 -0.0003585815
vn 9.417534E-06 -1 -0.000395298
vn 9.417534E-06 -1 -0.0003957748
vn 8.46386E-06 -1 -0.0003581047
vn 0.0005655289 1 -1.132488E-06
vn 0.0005655289 1 -1.132488E-06
vn 0.0005655289 1 -1.132488E-06
vn 0.0005655289 1 -1.132488E-06
vn 1 -2.872944E-05 -0.002428055
vn 1 -2.8193E-05 -0.002428055
vn 1 -2.920628E-05 -0.002428055
vn 1 -2.771616E-05 -0.002429962
vn -0.003000259 -2.384186E-07 -1
vn -0.001825333 -2.425909E-05 -1
vn -0.00180912 -2.455711E-05 -1
vn -0.003015518 0 -1
vn 0.002412796 0 1
vn 0.002412796 0 1
vn 0.002412796 0 1
vn 0.002412796 0 1
vn -0.0005660057 -1 1.132488E-06
vn -0.0006217957 -1 5.960464E-07
vn -0.0006217957 -1 5.960464E-07
vn -0.0005655289 -1 1.132488E-06
g graffity_0
f 3/3/3 2/2/2 1/1/1
f 4/4/4 1/1/1 2/2/2
f 7/7/7 6/6/6 5/5/5
f 8/8/8 5/5/5 6/6/6
f 11/11/11 10/10/10 9/9/9
f 12/12/12 9/9/9 10/10/10
f 15/15/15 14/14/14 13/13/13
f 16/16/16 13/13/13 14/14/14
f 19/19/19 18/18/18 17/17/17
f 20/20/20 17/17/17 18/18/18
f 23/23/23 22/22/22 21/21/21
f 24/24/24 21/21/21 22/22/22
f 27/27/27 26/26/26 25/25/25
f 28/28/28 25/25/25 26/26/26
f 31/31/31 30/30/30 29/29/29
f 32/32/32 29/29/29 30/30/30
f 35/35/35 34/34/34 33/33/33
f 36/36/36 33/33/33 34/34/34
f 39/39/39 38/38/38 37/37/37
f 40/40/40 37/37/37 38/38/38
