g market_sign
v 32.25028 11.9974 -205.8395
v 32.32441 11.99014 -201.9402
v 32.46061 10.59679 -201.9454
v 32.38648 10.60405 -205.8447
v -27.11601 14.00919 -137.0355
v -31.01601 14.00919 -137.0355
v -31.01601 12.60919 -137.0355
v -27.11601 12.60919 -137.0355
v -62.24075 12.31876 -167.6108
v -62.28227 12.34398 -171.5105
v -62.48682 10.95902 -171.5172
v -62.4453 10.9338 -167.6176
v -26.59643 12.33646 -165.3168
v -27.10557 12.38668 -169.1831
v -27.24298 10.99344 -169.1831
v -26.73384 10.94322 -165.3168
v 29.7931 12.63245 -171.0894
v 29.7931 12.63243 -167.1894
v 29.98794 11.24606 -167.1894
v 29.98794 11.24607 -171.0894
v 13.12715 13.61398 -156.7355
v 13.12715 13.61395 -152.8355
v 13.23802 12.21835 -152.8355
v 13.23801 12.21838 -156.7355
v 25.45381 12.7385 -185.1555
v 25.45381 12.73847 -181.2555
v 25.66091 11.35388 -181.2555
v 25.66091 11.3539 -185.1555
v -8.02857 14.01855 -206.4443
v -8.028576 14.01855 -210.3443
v -8.17982 12.62675 -210.3443
v -8.179814 12.62674 -206.4443
v -32.12668 13.99418 -136.7652
v -36.02668 13.99418 -136.7652
v -36.02667 12.59418 -136.7652
v -32.12667 12.59418 -136.7652
vt 0.001937866 0.3308105
vt 0.4980469 0.3308105
vt 0.4980469 0.002563477
vt 0.001937866 0.002563477
vt 0.001937866 0.3308105
vt 0.4980469 0.3308105
vt 0.4980469 0.002563477
vt 0.001937866 0.002563477
vt 0.001937866 0.6640625
vt 0.4980469 0.6640625
vt 0.4980469 0.3359375
vt 0.001937866 0.3359375
vt 0.001937866 0.9975586
vt 0.4980469 0.9975586
vt 0.4980469 0.6694336
vt 0.001937866 0.6694336
vt 0.5019531 0.3308105
vt 0.9980469 0.3308105
vt 0.9980469 0.002563477
vt 0.5019531 0.002563477
vt 0.5019531 0.6640625
vt 0.9980469 0.6640625
vt 0.9980469 0.3359375
vt 0.5019531 0.3359375
vt 0.5019531 0.6640625
vt 0.9980469 0.6640625
vt 0.9980469 0.3359375
vt 0.5019531 0.3359375
vt 0.5019531 0.9975586
vt 0.9980469 0.9975586
vt 0.9980469 0.6694336
vt 0.5019531 0.6694336
vt 0.5019531 0.9975586
vt 0.9980469 0.9975586
vt 0.9980469 0.6694336
vt 0.5019531 0.6694336
vn -0.9951172 -0.09735107 0.01873779
vn -0.9951172 -0.09735107 0.01873779
vn -0.9951172 -0.09735107 0.01873779
vn -0.9951172 -0.09735107 0.01873779
vn 0 0 -1
vn 0 0 -1
vn 0 0 -1
vn 0 0 -1
vn 0.9892578 -0.1459961 -0.01147461
vn 0.9892578 -0.1459961 -0.01147461
vn 0.9892578 -0.1459961 -0.01147461
vn 0.9892578 -0.1459961 -0.01147461
vn 0.9863281 -0.09729004 -0.1312256
vn 0.9863281 -0.09729004 -0.1312256
vn 0.9863281 -0.09729004 -0.1312256
vn 0.9863281 -0.09729004 -0.1312256
vn -0.9902344 -0.1391602 -5.364418E-07
vn -0.9902344 -0.1391602 -5.364418E-07
vn -0.9902344 -0.1391602 -5.364418E-07
vn -0.9902344 -0.1391602 -5.364418E-07
vn -0.9970703 -0.0791626 1.072884E-06
vn -0.9970703 -0.0791626 3.576279E-07
vn -0.9970703 -0.0791626 5.960464E-07
vn -0.9970703 -0.0791626 1.311302E-06
vn -0.9887695 -0.1479492 -5.960464E-07
vn -0.9887695 -0.1479492 -1.132488E-06
vn -0.9887695 -0.1479492 -9.536743E-07
vn -0.9887695 -0.1479492 -4.172325E-07
vn 0.9941406 -0.1080322 -1.490116E-06
vn 0.9941406 -0.1080322 -1.609325E-06
vn 0.9941406 -0.1080322 -1.549721E-06
vn 0.9941406 -0.1080322 -1.490116E-06
vn 0 0 -1
vn 0 0 -1
vn 0 0 -1
vn 0 0 -1
g market_sign_0
f 3/3/3 2/2/2 1/1/1
f 4/4/4 3/3/3 1/1/1
f 7/7/7 6/6/6 5/5/5
f 8/8/8 7/7/7 5/5/5
f 11/11/11 10/10/10 9/9/9
f 12/12/12 11/11/11 9/9/9
f 15/15/15 14/14/14 13/13/13
f 16/16/16 15/15/15 13/13/13
f 19/19/19 18/18/18 17/17/17
f 20/20/20 19/19/19 17/17/17
f 23/23/23 22/22/22 21/21/21
f 24/24/24 23/23/23 21/21/21
f 27/27/27 26/26/26 25/25/25
f 28/28/28 27/27/27 25/25/25
f 31/31/31 30/30/30 29/29/29
f 32/32/32 31/31/31 29/29/29
f 35/35/35 34/34/34 33/33/33
f 36/36/36 35/35/35 33/33/33
